<svg xmlns="http://www.w3.org/2000/svg" viewBox="0 0 178.58 249.45"><defs><style>.cls-1{fill:#fff;}.cls-2{fill:#d41216;}</style></defs><title>10D</title><g id="Слой_2" data-name="Слой 2"><g id="D"><g id="_10D" data-name="10D"><path class="cls-1" d="M8.5,0H170.08a8.48,8.48,0,0,1,8.5,8.5V241a8.48,8.48,0,0,1-8.5,8.5H8.5A8.48,8.48,0,0,1,0,241V8.5A8.48,8.48,0,0,1,8.5,0Z"/><path class="cls-2" d="M26.28,45.85c7.93-7.75,13.14-16.19,18.13-24.31,4.38,8.93,10.65,16.75,17.43,24.31A106.44,106.44,0,0,0,44.43,69.78c-5-8.64-10.29-16.46-18.15-23.93Z"/><path class="cls-2" d="M26.28,98.11c7.93-7.74,13.14-16.19,18.13-24.31,4.38,8.93,10.65,16.76,17.43,24.31A106.66,106.66,0,0,0,44.43,122c-5-8.63-10.29-16.45-18.15-23.93Z"/><path class="cls-2" d="M26.28,151.63c7.93-7.75,13.14-16.19,18.13-24.31,4.38,8.93,10.65,16.75,17.43,24.31a106.44,106.44,0,0,0-17.41,23.93c-5-8.63-10.29-16.46-18.15-23.93Z"/><path class="cls-2" d="M26.28,203.71c7.93-7.74,13.14-16.19,18.13-24.31,4.38,8.94,10.65,16.76,17.43,24.31a106.49,106.49,0,0,0-17.41,23.94c-5-8.64-10.29-16.46-18.15-23.94Z"/><path class="cls-2" d="M71.23,73.34C79.16,65.59,84.38,57.15,89.36,49,93.73,58,100,65.78,106.79,73.34A106.13,106.13,0,0,0,89.38,97.27c-5-8.64-10.29-16.46-18.15-23.93Z"/><path class="cls-2" d="M70.85,176C78.79,168.27,84,159.82,89,151.7c4.38,8.94,10.65,16.75,17.43,24.31A106.39,106.39,0,0,0,89,199.94c-5-8.63-10.3-16.45-18.16-23.93Z"/><path class="cls-2" d="M115.5,45.85c7.94-7.75,13.15-16.19,18.14-24.31,4.37,8.93,10.64,16.75,17.43,24.31a106.13,106.13,0,0,0-17.41,23.93c-5-8.64-10.29-16.46-18.16-23.93Z"/><path class="cls-2" d="M115.5,98.11c7.94-7.74,13.15-16.19,18.14-24.31,4.37,8.93,10.64,16.76,17.43,24.31A106.35,106.35,0,0,0,133.66,122c-5-8.63-10.29-16.45-18.16-23.93Z"/><path class="cls-2" d="M115.5,151.63c7.94-7.75,13.15-16.19,18.14-24.31,4.37,8.93,10.64,16.75,17.43,24.31a106.13,106.13,0,0,0-17.41,23.93c-5-8.63-10.29-16.46-18.16-23.93Z"/><path class="cls-2" d="M115.5,203.71c7.94-7.74,13.15-16.19,18.14-24.31,4.37,8.94,10.64,16.76,17.43,24.31a106.18,106.18,0,0,0-17.41,23.94c-5-8.64-10.29-16.46-18.16-23.94Z"/><path class="cls-2" d="M157.52,198.88a48.35,48.35,0,0,0,7.43-10,44.48,44.48,0,0,0,7.14,10,43.55,43.55,0,0,0-7.13,9.8,41.44,41.44,0,0,0-7.44-9.8Z"/><path class="cls-2" d="M6.47,50.19a48.44,48.44,0,0,0,7.43-10,44.48,44.48,0,0,0,7.14,10A43.38,43.38,0,0,0,13.91,60a41.82,41.82,0,0,0-7.44-9.81Z"/><path class="cls-2" d="M6.1,36.28V11.07H8.59V36.28Z"/><path class="cls-2" d="M16,11.07a4.58,4.58,0,0,0-4.32,4.82V31.46A4.58,4.58,0,0,0,16,36.28h1.4a4.58,4.58,0,0,0,4.33-4.82V15.89a4.58,4.58,0,0,0-4.33-4.82Zm.73,2.38a2.48,2.48,0,0,1,2.55,2.41V31.63a2.56,2.56,0,0,1-5.11,0V15.86a2.48,2.48,0,0,1,2.56-2.41Z"/><path class="cls-2" d="M172.48,213.18v25.2H170v-25.2Z"/><path class="cls-2" d="M162.61,238.38a4.58,4.58,0,0,0,4.33-4.82V218a4.57,4.57,0,0,0-4.33-4.81h-1.39a4.57,4.57,0,0,0-4.33,4.81v15.57a4.58,4.58,0,0,0,4.33,4.82Zm-.72-2.38a2.47,2.47,0,0,1-2.55-2.4V217.82a2.56,2.56,0,0,1,5.11,0V233.6a2.48,2.48,0,0,1-2.56,2.4Z"/></g></g></g></svg>