<svg xmlns="http://www.w3.org/2000/svg" viewBox="0 0 178.58 249.45"><defs><style>.cls-1{fill:#fff;}</style></defs><title>10C</title><g id="Слой_2" data-name="Слой 2"><g id="C"><g id="_10C" data-name="10C"><path class="cls-1" d="M8.5,0H170.08a8.48,8.48,0,0,1,8.5,8.5V241a8.48,8.48,0,0,1-8.5,8.5H8.5A8.48,8.48,0,0,1,0,241V8.5A8.48,8.48,0,0,1,8.5,0Z"/><path d="M172.48,213.18v25.2H170v-25.2Z"/><path d="M162.62,238.38a4.58,4.58,0,0,0,4.32-4.82V218a4.57,4.57,0,0,0-4.32-4.81h-1.4a4.57,4.57,0,0,0-4.33,4.81v15.57a4.58,4.58,0,0,0,4.33,4.82Zm-.73-2.38a2.47,2.47,0,0,1-2.55-2.4V217.82a2.56,2.56,0,0,1,5.11,0V233.6a2.48,2.48,0,0,1-2.56,2.4Z"/><path d="M6.1,36.28V11.07H8.59V36.28Z"/><path d="M16,11.07a4.58,4.58,0,0,0-4.33,4.82V31.46A4.58,4.58,0,0,0,16,36.28h1.39a4.58,4.58,0,0,0,4.33-4.82V15.89a4.58,4.58,0,0,0-4.33-4.82Zm.72,2.38a2.48,2.48,0,0,1,2.55,2.41V31.63a2.56,2.56,0,0,1-5.11,0V15.86a2.48,2.48,0,0,1,2.56-2.41Z"/><path d="M124.21,120.78a37.12,37.12,0,0,0,4.27-14.43c.28-1.87-.85-1.9-1-.58-3.26,12.47-20.61,9.09-20-2.64a9.82,9.82,0,0,1,14.86-8.45c2,1.14,1.84.46.78-.73-7.32-8.17-2.89-18.69,7-18.88,10.7.63,13.48,11.89,6.91,18.52-.81.79-2.62,3.35.1,1.56,6.63-4.71,15.83.35,15.65,7.62-.35,13.39-16.68,14.39-20.17,3.2-.33-1.24-1.3-1.86-1,.25.48,3.81,1.48,9.56,4.34,14.56Z"/><path d="M41.38,120.78a37.3,37.3,0,0,0,4.28-14.43c.27-1.87-.86-1.9-1-.58-3.26,12.47-20.61,9.09-20-2.64a9.83,9.83,0,0,1,14.87-8.45c2,1.14,1.84.46.77-.73-7.32-8.17-2.88-18.69,7-18.88C58,75.7,60.74,87,54.18,93.59c-.82.79-2.63,3.35.1,1.56,6.63-4.71,15.83.35,15.64,7.62-.35,13.39-16.67,14.39-20.16,3.2-.34-1.24-1.31-1.86-1,.25.48,3.81,1.49,9.56,4.35,14.56Z"/><path d="M82.75,94.65A37.3,37.3,0,0,0,87,80.22c.27-1.87-.86-1.9-1-.59C82.74,92.11,65.39,88.73,66,77a9.84,9.84,0,0,1,14.87-8.46c2,1.15,1.84.46.78-.72-7.33-8.17-2.89-18.69,7-18.89,10.7.64,13.48,11.9,6.91,18.52-.82.8-2.63,3.36.1,1.57,6.63-4.71,15.83.35,15.64,7.61C111,90,94.62,91,91.13,79.84c-.34-1.24-1.31-1.86-1,.24.49,3.82,1.49,9.57,4.35,14.57Z"/><path d="M124.21,68.52a37.17,37.17,0,0,0,4.27-14.43c.28-1.87-.85-1.9-1-.59-3.26,12.48-20.61,9.1-20-2.64a9.83,9.83,0,0,1,14.86-8.45c2,1.15,1.84.46.78-.73-7.32-8.16-2.89-18.69,7-18.88,10.7.64,13.48,11.9,6.91,18.52-.81.8-2.62,3.35.1,1.56,6.63-4.7,15.83.36,15.65,7.62-.35,13.39-16.68,14.39-20.17,3.21-.33-1.24-1.3-1.87-1,.24.48,3.81,1.48,9.56,4.34,14.57Z"/><path d="M41.38,68.52a37.35,37.35,0,0,0,4.28-14.43c.27-1.87-.86-1.9-1-.59C41.37,66,24,62.6,24.61,50.86a9.83,9.83,0,0,1,14.87-8.45c2,1.15,1.84.46.77-.73-7.32-8.16-2.88-18.69,7-18.88,10.71.64,13.48,11.9,6.92,18.52-.82.8-2.63,3.35.1,1.56,6.63-4.7,15.83.36,15.64,7.62-.35,13.39-16.67,14.39-20.16,3.21-.34-1.24-1.31-1.87-1,.24.48,3.81,1.49,9.56,4.35,14.57Z"/><path d="M53.14,128.67a37.35,37.35,0,0,0-4.28,14.43c-.27,1.87.86,1.9,1,.59,3.26-12.48,20.61-9.1,20,2.63A9.83,9.83,0,0,1,55,154.77c-1.95-1.14-1.84-.45-.77.73,7.32,8.17,2.89,18.7-7,18.89-10.71-.64-13.48-11.9-6.92-18.52.82-.8,2.63-3.35-.1-1.56-6.63,4.7-15.83-.36-15.64-7.62.35-13.39,16.67-14.39,20.17-3.21.33,1.24,1.3,1.86,1-.24-.48-3.81-1.48-9.56-4.35-14.57Z"/><path d="M53.14,180.94a37.3,37.3,0,0,0-4.28,14.43c-.27,1.86.86,1.9,1,.58,3.26-12.47,20.61-9.09,20,2.64A9.83,9.83,0,0,1,55,207c-1.95-1.14-1.84-.46-.77.73,7.32,8.17,2.89,18.69-7,18.88-10.71-.63-13.48-11.9-6.92-18.52.82-.79,2.63-3.35-.1-1.56-6.63,4.71-15.83-.35-15.64-7.62.35-13.39,16.67-14.39,20.17-3.2.33,1.23,1.3,1.86,1-.25-.48-3.81-1.48-9.56-4.35-14.56Z"/><path d="M136,128.67a37,37,0,0,0-4.28,14.43c-.28,1.87.86,1.9,1,.59,3.26-12.48,20.61-9.1,20,2.63a9.82,9.82,0,0,1-14.86,8.45c-2-1.14-1.84-.45-.78.73,7.33,8.17,2.89,18.7-7,18.89-10.7-.64-13.48-11.9-6.91-18.52.81-.8,2.63-3.35-.1-1.56-6.63,4.7-15.83-.36-15.64-7.62.34-13.39,16.67-14.39,20.16-3.21.34,1.24,1.3,1.86,1-.24-.49-3.81-1.49-9.56-4.35-14.57Z"/><path d="M136,180.94a37,37,0,0,0-4.28,14.43c-.28,1.86.86,1.9,1,.58,3.26-12.47,20.61-9.09,20,2.64A9.82,9.82,0,0,1,137.87,207c-2-1.14-1.84-.46-.78.73,7.33,8.17,2.89,18.69-7,18.88-10.7-.63-13.48-11.9-6.91-18.52.81-.79,2.63-3.35-.1-1.56-6.63,4.71-15.83-.35-15.64-7.62.34-13.39,16.67-14.39,20.16-3.2.34,1.23,1.3,1.86,1-.25-.49-3.81-1.49-9.56-4.35-14.56Z"/><path d="M94.89,154.81a37.31,37.31,0,0,0-4.28,14.42c-.27,1.87.86,1.9,1,.59,3.26-12.48,20.61-9.1,20,2.64a9.83,9.83,0,0,1-14.86,8.45c-2-1.15-1.84-.46-.78.73,7.33,8.17,2.89,18.68-7,18.88-10.7-.64-13.48-11.9-6.91-18.52.82-.8,2.63-3.35-.1-1.57-6.63,4.72-15.83-.35-15.64-7.61.35-13.39,16.67-14.39,20.16-3.21.34,1.25,1.3,1.87,1-.24-.49-3.81-1.49-9.56-4.35-14.56Z"/><path d="M10.54,60.2a28,28,0,0,0,2.38-5.93c.34-2-.35-1.27-.74.06A3.8,3.8,0,0,1,8.52,57c-2.7,0-4-2.08-4-4.36-.29-2.4,2.14-4.1,4-4a6.28,6.28,0,0,1,3.31,1.41c.47.26,1,.37.27-.28-1.34-1.47-2.46-2.37-2.43-4.57A4.18,4.18,0,1,1,18,45.5a4.7,4.7,0,0,1-1.93,3.76c-.75.61-.54,1.07.32.49a4.47,4.47,0,0,1,2.84-1c2.79,0,3.88,2.37,3.72,4.61s-1.94,4.27-4.29,4c-2.11-.24-3.21-2-3.85-3.82-.21-.56-.54-.7-.53.12a17.83,17.83,0,0,0,2,6.57Z"/><path d="M168.06,189.8a28.23,28.23,0,0,0-2.39,5.92c-.33,2,.35,1.27.74-.06a3.81,3.81,0,0,1,3.67-2.69c2.69,0,4,2.08,4,4.36.29,2.4-2.14,4.1-4,4a6.29,6.29,0,0,1-3.31-1.42c-.48-.25-1-.37-.28.28,1.34,1.47,2.47,2.38,2.44,4.57a4.19,4.19,0,1,1-8.37-.23,4.76,4.76,0,0,1,1.93-3.77c.76-.61.55-1.07-.32-.49a4.37,4.37,0,0,1-2.83,1c-2.79,0-3.88-2.37-3.72-4.61s1.93-4.27,4.29-4c2.1.24,3.21,2,3.84,3.82.21.56.55.71.53-.12a17.51,17.51,0,0,0-2-6.56Z"/></g></g></g></svg>