<svg xmlns="http://www.w3.org/2000/svg" viewBox="0 0 178.58 249.45"><defs><style>.cls-1{fill:#fff;}</style></defs><title>10S</title><g id="Слой_2" data-name="Слой 2"><g id="S"><g id="_10S" data-name="10S"><path class="cls-1" d="M170.08,249.45H8.5A8.48,8.48,0,0,1,0,241V8.5A8.48,8.48,0,0,1,8.5,0H170.08a8.48,8.48,0,0,1,8.5,8.5V241a8.48,8.48,0,0,1-8.5,8.5Z"/><path d="M172.48,213.18v25.2H170v-25.2Z"/><path d="M162.62,238.38a4.58,4.58,0,0,0,4.32-4.82V218a4.57,4.57,0,0,0-4.32-4.81h-1.4a4.57,4.57,0,0,0-4.33,4.81v15.57a4.58,4.58,0,0,0,4.33,4.82Zm-.73-2.38a2.47,2.47,0,0,1-2.55-2.4V217.82a2.56,2.56,0,0,1,5.11,0V233.6a2.48,2.48,0,0,1-2.56,2.4Z"/><path d="M6.1,36.28V11.07H8.59V36.28Z"/><path d="M16,11.07a4.58,4.58,0,0,0-4.32,4.82V31.46A4.58,4.58,0,0,0,16,36.28h1.4a4.58,4.58,0,0,0,4.33-4.82V15.89a4.58,4.58,0,0,0-4.33-4.82Zm.73,2.38a2.48,2.48,0,0,1,2.55,2.41V31.63a2.56,2.56,0,0,1-5.11,0V15.86a2.48,2.48,0,0,1,2.56-2.41Z"/><path d="M42.35,54.82c0-1.62-1.27-1.65-1.26-.47C41,60.29,36,63.22,32.31,62.52c-5.63-1.07-7.43-6.65-7.37-10,.16-10.15,10.39-17.64,19.61-30.66,6.76,11.75,17.92,21,18.58,30.07.88,12.07-14.41,16.58-16.59,2.5-.14-1-1.31-1.44-1.22,0,.33,3.86-.14,5.46,4.21,15H38.16a33.46,33.46,0,0,0,4.19-14.59Z"/><path d="M86.92,81c0-1.62-1.27-1.65-1.26-.47-.1,6-5.13,8.87-8.78,8.18-5.63-1.07-7.42-6.66-7.37-10C69.68,68.55,79.9,61.06,89.12,48,95.89,59.79,107,69,107.7,78.11c.88,12.08-14.4,16.58-16.59,2.51-.14-1-1.31-1.44-1.22-.06.33,3.86-.14,5.47,4.22,15H82.73A33.46,33.46,0,0,0,86.92,81Z"/><path d="M131.57,54.82c0-1.62-1.27-1.65-1.25-.47-.11,5.94-5.13,8.87-8.78,8.17-5.63-1.07-7.43-6.65-7.38-10,.17-10.15,10.39-17.64,19.62-30.66,6.76,11.75,17.91,21,18.57,30.07.88,12.07-14.4,16.58-16.58,2.5-.15-1-1.31-1.44-1.22,0,.33,3.86-.14,5.46,4.21,15H127.38a33.46,33.46,0,0,0,4.19-14.59Z"/><path d="M131.57,107.08c0-1.62-1.27-1.65-1.25-.47-.11,6-5.13,8.87-8.78,8.18-5.63-1.07-7.43-6.66-7.38-10,.17-10.16,10.39-17.64,19.62-30.67,6.76,11.76,17.91,21,18.57,30.07.88,12.08-14.4,16.58-16.58,2.51-.15-1-1.31-1.44-1.22,0,.33,3.85-.14,5.46,4.21,15H127.38a33.42,33.42,0,0,0,4.19-14.59Z"/><path d="M42.35,107.08c0-1.62-1.27-1.65-1.26-.47-.11,6-5.13,8.87-8.78,8.18-5.63-1.07-7.43-6.66-7.37-10C25.1,94.68,35.33,87.2,44.55,74.17c6.76,11.76,17.92,21,18.58,30.07.88,12.08-14.41,16.58-16.59,2.51-.14-1-1.31-1.44-1.22,0,.33,3.85-.14,5.46,4.21,15H38.16a33.42,33.42,0,0,0,4.19-14.59Z"/><path d="M131.58,142.39c0,1.62-1.27,1.65-1.25.47-.11-6-5.13-8.87-8.79-8.18-5.63,1.07-7.42,6.66-7.37,9.95.17,10.16,10.39,17.65,19.62,30.67,6.76-11.75,17.92-21,18.58-30.07.87-12.08-14.41-16.58-16.59-2.5-.14,1-1.32,1.43-1.23.05.34-3.86-.14-5.47,4.22-15H127.39a33.46,33.46,0,0,1,4.19,14.59Z"/><path d="M131.58,194.66c0,1.61-1.27,1.64-1.25.46-.11-5.94-5.13-8.87-8.79-8.17-5.63,1.07-7.42,6.65-7.37,10,.17,10.16,10.39,17.64,19.62,30.66,6.76-11.75,17.92-21,18.58-30.06.87-12.08-14.41-16.59-16.59-2.51-.14,1-1.32,1.44-1.23,0,.34-3.86-.14-5.46,4.22-15H127.39a33.38,33.38,0,0,1,4.19,14.59Z"/><path d="M87.3,168.52c0,1.62-1.26,1.65-1.25.47-.11-5.94-5.14-8.87-8.79-8.17-5.63,1.07-7.42,6.65-7.37,10,.17,10.15,10.39,17.64,19.62,30.66,6.76-11.75,17.92-21,18.58-30.07.87-12.07-14.41-16.58-16.59-2.51-.14,1-1.32,1.45-1.22.06.33-3.86-.14-5.46,4.21-15H83.11a33.46,33.46,0,0,1,4.19,14.59Z"/><path d="M42.36,142.39c0,1.62-1.27,1.65-1.26.47-.11-6-5.13-8.87-8.78-8.18-5.63,1.07-7.43,6.66-7.37,9.95.16,10.16,10.39,17.65,19.61,30.67,6.76-11.75,17.92-21,18.58-30.07.88-12.08-14.41-16.58-16.59-2.5-.14,1-1.31,1.43-1.22.05.33-3.86-.14-5.47,4.21-15H38.16a33.61,33.61,0,0,1,4.2,14.59Z"/><path d="M42.36,194.66c0,1.61-1.27,1.64-1.26.46C41,189.18,36,186.25,32.32,187c-5.63,1.07-7.43,6.65-7.37,10,.16,10.16,10.39,17.64,19.61,30.66,6.76-11.75,17.92-21,18.58-30.06C64,185.42,48.73,180.91,46.55,195c-.14,1-1.31,1.44-1.22,0,.33-3.86-.14-5.46,4.21-15H38.16a33.53,33.53,0,0,1,4.2,14.59Z"/><path d="M13.43,55.9c0-.7-.72-.37-.81-.15A2.74,2.74,0,0,1,9,57.13a3.37,3.37,0,0,1-2-3.62c.25-2.75,2.43-5.76,3.49-7.46a54.74,54.74,0,0,0,3.26-5.72c1.36,2.69,2.05,3.45,3.53,5.91,1.3,2.17,3.11,4.28,3.25,6.9,0,2-.84,3.86-2.72,4.21A2.7,2.7,0,0,1,15,55.72c-.22-.33-.67-.16-.67.29a8.51,8.51,0,0,0,2.27,5H11.1a8,8,0,0,0,2.33-5.08Z"/><path d="M164.48,194.09c0,.7-.71.37-.81.16a2.73,2.73,0,0,0-3.64-1.39,3.37,3.37,0,0,0-2,3.62c.25,2.75,2.43,5.76,3.48,7.46a55.81,55.81,0,0,1,3.26,5.72c1.36-2.69,2.05-3.45,3.53-5.91,1.3-2.16,3.11-4.28,3.25-6.9,0-2-.84-3.86-2.72-4.21a2.7,2.7,0,0,0-2.8,1.63c-.23.33-.68.16-.68-.29a8.49,8.49,0,0,1,2.27-5h-5.51a8,8,0,0,1,2.33,5.07Z"/></g></g></g></svg>