<svg xmlns="http://www.w3.org/2000/svg" viewBox="0 0 178.58 249.45"><defs><style>.cls-1{fill:#fff;}.cls-2{fill:#d41216;}</style></defs><title>10H</title><g id="Слой_2" data-name="Слой 2"><g id="H"><g id="_10H" data-name="10H"><path class="cls-1" d="M8.5,0H170.08a8.48,8.48,0,0,1,8.5,8.5V241a8.48,8.48,0,0,1-8.5,8.5H8.5A8.48,8.48,0,0,1,0,241V8.5A8.48,8.48,0,0,1,8.5,0Z"/><path class="cls-2" d="M6.1,36.28V11.07H8.59V36.28Z"/><path class="cls-2" d="M16,11.07a4.58,4.58,0,0,0-4.32,4.82V31.46A4.58,4.58,0,0,0,16,36.28h1.4a4.58,4.58,0,0,0,4.33-4.82V15.89a4.58,4.58,0,0,0-4.33-4.82Zm.73,2.38a2.48,2.48,0,0,1,2.55,2.41V31.63a2.56,2.56,0,0,1-5.11,0V15.86a2.48,2.48,0,0,1,2.56-2.41Z"/><path class="cls-2" d="M172.48,213.18v25.2H170v-25.2Z"/><path class="cls-2" d="M162.61,238.38a4.58,4.58,0,0,0,4.33-4.82V218a4.57,4.57,0,0,0-4.33-4.81h-1.39a4.57,4.57,0,0,0-4.33,4.81v15.57a4.58,4.58,0,0,0,4.33,4.82Zm-.72-2.38a2.47,2.47,0,0,1-2.55-2.4V217.82a2.56,2.56,0,0,1,5.11,0V233.6a2.48,2.48,0,0,1-2.56,2.4Z"/><path class="cls-2" d="M6.82,48.11C5.55,45.34,5.41,40.59,9.2,40c2.84-.37,4,1,4.23,3,.12.6.45.63.56,0a3.36,3.36,0,0,1,3.85-3c4.42.75,4.16,5.62,2.71,8.92C18.37,53.2,16.07,56,14,60.38c-2.43-4.59-5.21-8.32-7.14-12.27Z"/><path class="cls-2" d="M34.42,22.66c5.72-.38,8.69,4.5,9.27,8.35.35.61.54.44.68,0,.27-4.94,4.7-9,8.79-8.43,6.66.09,10.71,7.5,9.57,13.78-1.39,7.66-5.52,12.27-8.64,17-3.54,4.92-8.3,12-9.84,15.45,0,0-4.83-7.36-11.13-16C28.91,47,25.54,40.73,25.23,35.32c-.36-6.17,2.17-11.7,9.19-12.66Z"/><path class="cls-2" d="M79.37,48.79c5.71-.38,8.69,4.5,9.27,8.35.35.61.54.44.67,0,.28-4.94,4.7-9,8.8-8.43,6.66.09,10.71,7.5,9.57,13.78-1.39,7.67-5.52,12.28-8.64,17-3.54,4.92-8.31,12-9.84,15.45,0,0-4.84-7.36-11.13-16-4.21-5.79-7.58-12.07-7.9-17.47-.35-6.17,2.18-11.7,9.2-12.66Z"/><path class="cls-2" d="M123.64,22.66c5.72-.38,8.7,4.5,9.28,8.35.35.61.54.44.67,0,.28-4.94,4.7-9,8.8-8.43,6.66.09,10.71,7.5,9.57,13.78-1.39,7.66-5.52,12.27-8.65,17-3.53,4.92-8.29,12-9.83,15.45,0,0-4.84-7.36-11.13-16-4.21-5.79-7.58-12.06-7.9-17.47-.35-6.17,2.18-11.7,9.19-12.66Z"/><path class="cls-2" d="M123.64,74.93c5.72-.38,8.7,4.5,9.28,8.34.35.62.54.44.67,0,.28-4.94,4.7-9,8.8-8.42,6.66.08,10.71,7.5,9.57,13.77-1.39,7.67-5.52,12.28-8.65,17-3.53,4.92-8.29,12-9.83,15.45,0,0-4.84-7.36-11.13-16-4.21-5.79-7.58-12.07-7.9-17.47-.35-6.18,2.18-11.71,9.19-12.66Z"/><path class="cls-2" d="M34.42,74.93c5.72-.38,8.69,4.5,9.27,8.34.35.62.54.44.68,0,.27-4.94,4.7-9,8.79-8.42,6.66.08,10.71,7.5,9.57,13.77-1.39,7.67-5.52,12.28-8.64,17-3.54,4.92-8.3,12-9.84,15.45,0,0-4.83-7.36-11.13-16C28.91,99.27,25.54,93,25.23,87.59c-.36-6.18,2.17-11.71,9.19-12.66Z"/><path class="cls-2" d="M123.64,174.44c5.72.38,8.7-4.51,9.28-8.35.35-.61.54-.44.67,0,.28,4.94,4.7,9,8.8,8.43,6.66-.09,10.71-7.5,9.57-13.78-1.39-7.67-5.52-12.28-8.65-17-3.53-4.92-8.29-12-9.83-15.45,0,0-4.84,7.36-11.13,16-4.21,5.8-7.58,12.07-7.9,17.47-.35,6.18,2.18,11.71,9.19,12.67Z"/><path class="cls-2" d="M123.64,226.52c5.72.38,8.7-4.5,9.28-8.35.35-.61.54-.44.67,0,.28,4.94,4.7,9,8.8,8.42,6.66-.09,10.71-7.5,9.57-13.77-1.39-7.67-5.52-12.29-8.65-17-3.53-4.92-8.29-12-9.83-15.45,0,0-4.84,7.36-11.13,16-4.21,5.79-7.58,12.07-7.9,17.47-.35,6.17,2.18,11.71,9.19,12.66Z"/><path class="cls-2" d="M79,200.48c5.72.38,8.7-4.5,9.28-8.35.35-.61.53-.44.67,0,.28,4.94,4.7,9,8.79,8.43,6.66-.09,10.72-7.5,9.57-13.78-1.39-7.66-5.51-12.28-8.64-17-3.54-4.92-8.3-12-9.83-15.46,0,0-4.84,7.37-11.13,16-4.22,5.79-7.59,12.06-7.9,17.47C69.44,194,72,199.52,79,200.48Z"/><path class="cls-2" d="M34.42,174.44c5.72.38,8.69-4.51,9.27-8.35.35-.61.54-.44.68,0,.27,4.94,4.7,9,8.79,8.43,6.66-.09,10.71-7.5,9.57-13.78-1.39-7.67-5.52-12.28-8.64-17-3.54-4.92-8.3-12-9.84-15.45,0,0-4.83,7.36-11.13,16-4.21,5.8-7.58,12.07-7.89,17.47-.36,6.18,2.17,11.71,9.19,12.67Z"/><path class="cls-2" d="M34.42,226.52c5.72.38,8.69-4.5,9.27-8.35.35-.61.54-.44.68,0,.27,4.94,4.7,9,8.79,8.42,6.66-.09,10.71-7.5,9.57-13.77-1.39-7.67-5.52-12.29-8.64-17-3.54-4.92-8.3-12-9.84-15.45,0,0-4.83,7.36-11.13,16-4.21,5.79-7.58,12.07-7.89,17.47-.36,6.17,2.17,11.71,9.19,12.66Z"/><path class="cls-2" d="M157.87,200.8c-1.26,2.78-1.41,7.52,2.38,8.17,2.85.36,4-1,4.24-3,.11-.59.45-.63.55.05a3.38,3.38,0,0,0,3.85,3c4.42-.76,4.16-5.62,2.72-8.93-2.19-4.38-4.49-7.14-6.6-11.56-2.43,4.6-5.21,8.32-7.14,12.27Z"/></g></g></g></svg>