<svg xmlns="http://www.w3.org/2000/svg" viewBox="0 0 178.58 249.45"><defs><style>.cls-1{fill:#fff;}</style></defs><title>6S</title><g id="Слой_2" data-name="Слой 2"><g id="S"><g id="_6S" data-name="6S"><path class="cls-1" d="M8.5,0H170.08a8.48,8.48,0,0,1,8.5,8.5V241a8.48,8.48,0,0,1-8.5,8.5H8.5A8.48,8.48,0,0,1,0,241V8.5A8.48,8.48,0,0,1,8.5,0Z"/><path d="M6.59,28.8a50.93,50.93,0,0,1,0-9.55c.82-5.14,2.82-7.5,6.17-8.27s7.84.09,8.84,4.39l-2.73.05c-1.47-2.91-5.19-2.13-7.28-.87-1.68,1-2.44,5.22-2.12,5.48,0,0,3.17-2.3,5.67-2.13,5.33.54,7.53,5.08,7.34,9.37-.16,5.16-1.83,9.28-7.49,9.56-5.37-.2-7.83-3.08-8.35-8Zm13.26-1.36c0-3.58-1.63-6.26-4.76-6.56S8.8,23.59,9,27.24,10.68,34,14.48,34c4.08,0,5.34-4,5.37-6.53Z"/><path d="M172,220.65a50.93,50.93,0,0,1,0,9.55c-.82,5.15-2.83,7.5-6.18,8.27s-7.83-.08-8.83-4.38l2.72-.05c1.48,2.9,5.2,2.12,7.3.86,1.67-1,2.43-5.22,2.1-5.47,0,0-3.16,2.3-5.66,2.13-5.33-.55-7.53-5.09-7.35-9.38.17-5.16,1.84-9.28,7.49-9.55,5.38.2,7.84,3.08,8.36,8ZM158.73,222c0,3.57,1.63,6.25,4.76,6.55s6.3-2.71,6.08-6.36-1.67-6.74-5.46-6.73c-4.09,0-5.36,4-5.38,6.54Z"/><path d="M43.08,54.85c0-1.62-1.27-1.65-1.26-.47-.1,5.94-5.13,8.87-8.78,8.17-5.63-1.07-7.43-6.65-7.38-9.94C25.83,42.45,36.05,35,45.28,21.94,52,33.69,63.2,42.93,63.86,52c.88,12.08-14.41,16.58-16.59,2.51-.14-1-1.31-1.45-1.22-.05.33,3.85-.14,5.46,4.21,15H38.89a33.42,33.42,0,0,0,4.19-14.59Z"/><path d="M132.3,54.85c0-1.62-1.27-1.65-1.25-.47-.11,5.94-5.14,8.87-8.78,8.17-5.63-1.07-7.43-6.65-7.38-9.94.17-10.16,10.39-17.65,19.62-30.67,6.76,11.75,17.92,21,18.58,30.07.87,12.08-14.41,16.58-16.59,2.51-.14-1-1.32-1.45-1.22-.05.33,3.85-.14,5.46,4.21,15H128.11a33.42,33.42,0,0,0,4.19-14.59Z"/><path d="M43.09,115.66c0,1.63-1.27,1.66-1.26.47-.11-5.94-5.13-8.87-8.78-8.17-5.63,1.07-7.43,6.66-7.38,10,.17,10.15,10.4,17.64,19.62,30.66,6.76-11.75,17.92-21,18.58-30.07.88-12.07-14.41-16.58-16.59-2.5-.14,1-1.31,1.44-1.22,0,.33-3.86-.14-5.46,4.21-15H38.89a33.65,33.65,0,0,1,4.2,14.59Z"/><path d="M132.31,115.66c0,1.63-1.27,1.66-1.25.47-.11-5.94-5.14-8.87-8.79-8.17-5.63,1.07-7.42,6.66-7.37,10,.17,10.15,10.39,17.64,19.62,30.66,6.76-11.75,17.91-21,18.57-30.07.88-12.07-14.4-16.58-16.59-2.5-.14,1-1.31,1.44-1.21,0,.33-3.86-.15-5.46,4.21-15H128.12a33.5,33.5,0,0,1,4.19,14.59Z"/><path d="M132.31,194.54c0,1.62-1.27,1.65-1.25.47-.11-5.94-5.14-8.87-8.79-8.17-5.63,1.07-7.42,6.66-7.37,9.95.17,10.15,10.39,17.64,19.62,30.66,6.76-11.75,17.91-21,18.57-30.07.88-12.07-14.4-16.58-16.59-2.5-.14,1-1.31,1.44-1.21.05.33-3.86-.15-5.46,4.21-15H128.12a33.46,33.46,0,0,1,4.19,14.59Z"/><path d="M43.09,194.54c0,1.62-1.27,1.65-1.26.47-.11-5.94-5.13-8.87-8.78-8.17-5.63,1.07-7.43,6.66-7.38,9.95.17,10.15,10.4,17.64,19.62,30.66,6.76-11.75,17.92-21,18.58-30.07.88-12.07-14.41-16.58-16.59-2.5-.14,1-1.31,1.44-1.22.05.33-3.86-.14-5.46,4.21-15H38.89a33.61,33.61,0,0,1,4.2,14.59Z"/><path d="M13.51,54.75c0-.7-.71-.37-.81-.16A2.73,2.73,0,0,1,9.06,56a3.37,3.37,0,0,1-2-3.62c.25-2.75,2.43-5.76,3.48-7.46a53.26,53.26,0,0,0,3.26-5.72c1.36,2.69,2.05,3.45,3.53,5.91,1.3,2.16,3.11,4.28,3.26,6.9,0,2-.84,3.86-2.73,4.21a2.7,2.7,0,0,1-2.8-1.63c-.22-.33-.68-.16-.67.28a8.46,8.46,0,0,0,2.26,5H11.18a8,8,0,0,0,2.33-5.07Z"/><path d="M164.57,192.94c0,.7-.72.37-.82.15a2.74,2.74,0,0,0-3.64-1.38,3.37,3.37,0,0,0-2,3.62c.25,2.75,2.43,5.76,3.49,7.46a54.74,54.74,0,0,1,3.26,5.72c1.35-2.69,2-3.46,3.52-5.91,1.3-2.17,3.11-4.28,3.26-6.9,0-2-.84-3.86-2.72-4.21a2.7,2.7,0,0,0-2.81,1.63c-.22.33-.68.16-.67-.29a8.45,8.45,0,0,1,2.27-5h-5.52a8,8,0,0,1,2.34,5.08Z"/></g></g></g></svg>