<svg xmlns="http://www.w3.org/2000/svg" viewBox="0 0 178.58 249.45"><defs><style>.cls-1{fill:#fff;}</style></defs><title>6C</title><g id="Слой_2" data-name="Слой 2"><g id="C"><g id="_6C" data-name="6C"><path class="cls-1" d="M8.5,0H170.08a8.48,8.48,0,0,1,8.5,8.5V241a8.48,8.48,0,0,1-8.5,8.5H8.5A8.48,8.48,0,0,1,0,241V8.5A8.48,8.48,0,0,1,8.5,0Z"/><path d="M6.5,28.8a50.09,50.09,0,0,1,0-9.55c.82-5.14,2.82-7.5,6.17-8.27s7.83.09,8.84,4.39l-2.73.05c-1.47-2.91-5.19-2.13-7.29-.87C9.76,15.56,9,19.77,9.33,20c0,0,3.17-2.3,5.66-2.13,5.34.54,7.54,5.08,7.35,9.37-.17,5.16-1.83,9.28-7.49,9.56-5.37-.2-7.84-3.08-8.35-8Zm13.25-1.36c0-3.58-1.62-6.26-4.75-6.56s-6.3,2.71-6.08,6.36S10.59,34,14.38,34c4.09,0,5.35-4,5.37-6.53Z"/><path d="M171.9,220.65a51.79,51.79,0,0,1,0,9.55c-.82,5.15-2.82,7.5-6.18,8.27s-7.83-.08-8.83-4.38l2.72-.05c1.47,2.9,5.2,2.12,7.29.86,1.68-1,2.43-5.22,2.11-5.47,0,0-3.17,2.3-5.66,2.13-5.33-.55-7.53-5.09-7.35-9.38.17-5.16,1.84-9.28,7.49-9.55,5.37.2,7.84,3.08,8.36,8ZM158.64,222c0,3.57,1.62,6.25,4.76,6.55s6.29-2.71,6.07-6.36-1.66-6.74-5.46-6.73c-4.08,0-5.35,4-5.37,6.54Z"/><path d="M123.24,147.66a37.3,37.3,0,0,0,4.28-14.43c.27-1.86-.86-1.89-1-.58-3.26,12.47-20.61,9.1-20-2.64a9.83,9.83,0,0,1,14.86-8.45c2,1.15,1.84.46.78-.73-7.33-8.17-2.89-18.69,7-18.88,10.7.63,13.47,11.89,6.91,18.52-.82.79-2.63,3.35.1,1.56,6.63-4.71,15.83.36,15.64,7.62-.35,13.39-16.67,14.39-20.16,3.2-.34-1.24-1.3-1.86-1,.25.49,3.81,1.49,9.56,4.35,14.56Z"/><path d="M43.62,147.66a37.12,37.12,0,0,0,4.27-14.43c.28-1.86-.85-1.89-1-.58-3.26,12.47-20.61,9.1-20-2.64a9.83,9.83,0,0,1,14.87-8.45c1.94,1.15,1.83.46.77-.73-7.32-8.17-2.89-18.69,7-18.88,10.7.63,13.48,11.89,6.91,18.52-.81.79-2.62,3.35.1,1.56,6.63-4.71,15.83.36,15.65,7.62C71.81,143,55.48,144,52,132.85c-.33-1.24-1.3-1.86-1,.25.48,3.81,1.48,9.56,4.34,14.56Z"/><path d="M123.24,68.55a37.35,37.35,0,0,0,4.28-14.43c.27-1.87-.86-1.9-1-.59-3.26,12.48-20.61,9.1-20-2.64a9.82,9.82,0,0,1,14.86-8.44c2,1.14,1.84.45.78-.74-7.33-8.16-2.89-18.68,7-18.88,10.7.64,13.47,11.9,6.91,18.52-.82.8-2.63,3.35.1,1.57,6.63-4.71,15.83.35,15.64,7.61-.35,13.4-16.67,14.39-20.16,3.21-.34-1.24-1.3-1.86-1,.24.49,3.81,1.49,9.56,4.35,14.57Z"/><path d="M43.62,68.55a37.17,37.17,0,0,0,4.27-14.43c.28-1.87-.85-1.9-1-.59-3.26,12.48-20.61,9.1-20-2.64a9.82,9.82,0,0,1,14.87-8.44c1.94,1.14,1.83.45.77-.74-7.32-8.16-2.89-18.68,7-18.88,10.7.64,13.48,11.9,6.91,18.52-.81.8-2.62,3.35.1,1.57,6.63-4.71,15.83.35,15.65,7.61C71.81,63.93,55.48,64.92,52,53.74c-.33-1.24-1.3-1.86-1,.24.48,3.81,1.48,9.56,4.34,14.57Z"/><path d="M135,180.83a37.12,37.12,0,0,0-4.27,14.43c-.28,1.86.86,1.89,1,.58,3.27-12.48,20.62-9.1,20,2.64a9.83,9.83,0,0,1-14.87,8.45c-1.94-1.15-1.83-.46-.77.73,7.32,8.17,2.89,18.69-7,18.88-10.7-.63-13.48-11.89-6.92-18.52.82-.79,2.63-3.35-.09-1.56-6.63,4.71-15.83-.36-15.65-7.62.35-13.39,16.68-14.39,20.16-3.21.34,1.25,1.31,1.87,1-.24-.48-3.81-1.48-9.56-4.35-14.56Z"/><path d="M55.38,180.83a37,37,0,0,0-4.28,14.43c-.28,1.86.86,1.89,1,.58,3.26-12.48,20.61-9.1,20,2.64a9.83,9.83,0,0,1-14.86,8.45c-2-1.15-1.84-.46-.78.73,7.33,8.17,2.89,18.69-7,18.88C38.79,225.91,36,214.65,42.58,208c.81-.79,2.62-3.35-.1-1.56-6.63,4.71-15.83-.36-15.64-7.62.34-13.39,16.67-14.39,20.16-3.21.34,1.25,1.3,1.87,1-.24-.49-3.81-1.49-9.56-4.35-14.56Z"/><path d="M10.53,59a27.67,27.67,0,0,0,2.38-5.92c.34-2-.34-1.27-.74.06a3.79,3.79,0,0,1-3.66,2.69c-2.69,0-4-2.08-4-4.36-.29-2.4,2.14-4.1,4-4A6.22,6.22,0,0,1,11.83,49c.47.24,1,.36.27-.29-1.34-1.47-2.46-2.38-2.43-4.57a4.19,4.19,0,1,1,8.37.23,4.74,4.74,0,0,1-1.93,3.76c-.76.62-.55,1.08.31.5a4.42,4.42,0,0,1,2.84-1.05c2.79,0,3.88,2.37,3.72,4.61s-1.93,4.27-4.29,4c-2.1-.24-3.21-2-3.85-3.82-.2-.56-.54-.71-.53.12a17.4,17.4,0,0,0,2,6.56Z"/><path d="M168.05,188.65a28.23,28.23,0,0,0-2.39,5.92c-.33,2,.36,1.27.75-.06a3.79,3.79,0,0,1,3.66-2.69c2.7,0,4,2.08,4,4.36.29,2.4-2.14,4.1-4,4a6.28,6.28,0,0,1-3.31-1.41c-.48-.26-1-.37-.27.28,1.34,1.47,2.46,2.37,2.43,4.57a4.18,4.18,0,1,1-8.36-.24,4.72,4.72,0,0,1,1.92-3.76c.76-.61.55-1.07-.31-.49a4.47,4.47,0,0,1-2.84,1c-2.79,0-3.88-2.37-3.72-4.62.15-2.09,1.94-4.26,4.29-4,2.11.24,3.21,2,3.84,3.82.22.56.55.71.53-.12a17.51,17.51,0,0,0-2-6.56Z"/></g></g></g></svg>