<svg xmlns="http://www.w3.org/2000/svg" viewBox="0 0 178.58 249.45"><defs><style>.cls-1{fill:#fff;}.cls-2{fill:#d41216;}</style></defs><title>6H</title><g id="Слой_2" data-name="Слой 2"><g id="H"><g id="_6H" data-name="6H"><path class="cls-1" d="M8.5,0H170.08a8.48,8.48,0,0,1,8.5,8.5V241a8.48,8.48,0,0,1-8.5,8.5H8.5A8.48,8.48,0,0,1,0,241V8.5A8.48,8.48,0,0,1,8.5,0Z"/><path class="cls-2" d="M6.59,28.8a50.93,50.93,0,0,1,0-9.55c.82-5.14,2.82-7.5,6.17-8.27s7.84.09,8.84,4.39l-2.73.05c-1.47-2.91-5.19-2.13-7.28-.87-1.68,1-2.44,5.22-2.12,5.48,0,0,3.17-2.3,5.67-2.13,5.33.54,7.53,5.08,7.34,9.37-.16,5.16-1.83,9.28-7.49,9.56-5.37-.2-7.83-3.08-8.35-8Zm13.26-1.36c0-3.58-1.63-6.26-4.76-6.56S8.8,23.59,9,27.24,10.68,34,14.48,34c4.08,0,5.34-4,5.37-6.53Z"/><path class="cls-2" d="M172,220.65a50.93,50.93,0,0,1,0,9.55c-.82,5.15-2.83,7.5-6.18,8.27s-7.83-.08-8.83-4.38l2.72-.05c1.48,2.9,5.2,2.12,7.3.86,1.67-1,2.43-5.22,2.1-5.47,0,0-3.16,2.3-5.66,2.13-5.33-.55-7.53-5.09-7.35-9.38.17-5.16,1.84-9.28,7.49-9.55,5.38.2,7.84,3.08,8.36,8ZM158.73,222c0,3.57,1.63,6.25,4.76,6.55s6.3-2.71,6.08-6.36-1.67-6.74-5.46-6.73c-4.09,0-5.36,4-5.38,6.54Z"/><path class="cls-2" d="M6.92,47.5C5.65,44.72,5.51,40,9.3,39.34c2.84-.37,4,.95,4.24,3,.11.59.44.63.55,0a3.38,3.38,0,0,1,3.85-3c4.42.76,4.16,5.62,2.72,8.93-2.19,4.38-4.49,7.15-6.6,11.56-2.43-4.59-5.21-8.33-7.14-12.27Z"/><path class="cls-2" d="M35.15,22.69c5.71-.38,8.69,4.51,9.28,8.35.34.61.53.44.66,0,.29-4.94,4.71-9,8.8-8.43,6.66.09,10.71,7.5,9.57,13.78-1.39,7.66-5.52,12.28-8.64,17-3.54,4.92-8.3,12-9.84,15.45,0,0-4.84-7.37-11.13-16C29.64,47,26.27,40.76,26,35.35c-.36-6.17,2.17-11.7,9.19-12.66Z"/><path class="cls-2" d="M124.37,22.69c5.72-.38,8.7,4.51,9.28,8.35.35.61.54.44.67,0,.28-4.94,4.7-9,8.8-8.43,6.66.09,10.71,7.5,9.57,13.78-1.39,7.66-5.52,12.28-8.65,17-3.54,4.92-8.29,12-9.83,15.45,0,0-4.84-7.37-11.13-16-4.21-5.79-7.58-12.06-7.9-17.47-.36-6.17,2.18-11.7,9.19-12.66Z"/><path class="cls-2" d="M124.37,101.81c5.72-.38,8.7,4.5,9.28,8.35.35.61.54.43.67,0,.28-4.94,4.7-9,8.8-8.42,6.66.09,10.71,7.5,9.57,13.77-1.39,7.67-5.52,12.28-8.65,17-3.54,4.92-8.29,12-9.83,15.45,0,0-4.84-7.36-11.13-16-4.21-5.79-7.58-12.07-7.9-17.47-.36-6.17,2.18-11.7,9.19-12.66Z"/><path class="cls-2" d="M35.15,101.81c5.71-.38,8.69,4.5,9.28,8.35.34.61.53.43.66,0,.29-4.94,4.71-9,8.8-8.42,6.66.09,10.71,7.5,9.57,13.77-1.39,7.67-5.52,12.28-8.64,17-3.54,4.92-8.3,12-9.84,15.45,0,0-4.84-7.36-11.13-16-4.21-5.79-7.58-12.07-7.89-17.47-.36-6.17,2.17-11.7,9.19-12.66Z"/><path class="cls-2" d="M35.15,226.68c5.71.38,8.69-4.5,9.28-8.35.34-.61.53-.44.66,0,.29,4.94,4.71,9,8.8,8.43,6.66-.09,10.71-7.5,9.57-13.77-1.39-7.67-5.52-12.29-8.64-17-3.54-4.92-8.3-12-9.84-15.45,0,0-4.84,7.36-11.13,16C29.64,202.34,26.27,208.62,26,214c-.36,6.17,2.17,11.7,9.19,12.66Z"/><path class="cls-2" d="M124.37,226.68c5.72.38,8.7-4.5,9.28-8.35.35-.61.54-.44.67,0,.28,4.94,4.7,9,8.8,8.43,6.66-.09,10.71-7.5,9.57-13.77-1.39-7.67-5.52-12.29-8.65-17-3.54-4.92-8.29-12-9.83-15.45,0,0-4.84,7.36-11.13,16-4.21,5.79-7.58,12.07-7.9,17.47-.36,6.17,2.18,11.7,9.19,12.66Z"/><path class="cls-2" d="M158,200.19c-1.27,2.78-1.4,7.52,2.38,8.16,2.85.37,4-.95,4.24-3,.11-.59.45-.63.55,0a3.39,3.39,0,0,0,3.85,3c4.42-.76,4.16-5.62,2.72-8.93-2.19-4.38-4.48-7.15-6.6-11.56-2.43,4.59-5.2,8.33-7.14,12.27Z"/></g></g></g></svg>