<svg xmlns="http://www.w3.org/2000/svg" viewBox="0 0 178.58 249.45"><defs><style>.cls-1{fill:#fff;}.cls-2{fill:#d41216;}</style></defs><title>6D</title><g id="Слой_2" data-name="Слой 2"><g id="D"><g id="_6D" data-name="6D"><path class="cls-1" d="M8.5,0H170.08a8.48,8.48,0,0,1,8.5,8.5V241a8.48,8.48,0,0,1-8.5,8.5H8.5A8.48,8.48,0,0,1,0,241V8.5A8.48,8.48,0,0,1,8.5,0Z"/><path class="cls-2" d="M27,45.88c7.93-7.75,13.15-16.19,18.13-24.31,4.37,8.93,10.64,16.75,17.43,24.31A106.44,106.44,0,0,0,45.16,69.81c-5-8.63-10.29-16.46-18.15-23.93Z"/><path class="cls-2" d="M27,125c7.93-7.74,13.15-16.18,18.13-24.31,4.37,8.94,10.64,16.75,17.43,24.31a106.49,106.49,0,0,0-17.41,23.94c-5-8.64-10.29-16.46-18.15-23.94Z"/><path class="cls-2" d="M27,203.87c7.93-7.74,13.15-16.19,18.13-24.31,4.37,8.94,10.64,16.75,17.43,24.31A106.66,106.66,0,0,0,45.16,227.8c-5-8.63-10.29-16.45-18.15-23.93Z"/><path class="cls-2" d="M116.23,45.88c7.94-7.75,13.15-16.19,18.14-24.31C138.74,30.5,145,38.32,151.8,45.88a106.13,106.13,0,0,0-17.41,23.93c-5-8.63-10.29-16.46-18.16-23.93Z"/><path class="cls-2" d="M116.23,125c7.94-7.74,13.15-16.18,18.14-24.31,4.37,8.94,10.64,16.75,17.43,24.31a106.18,106.18,0,0,0-17.41,23.94c-5-8.64-10.29-16.46-18.16-23.94Z"/><path class="cls-2" d="M116.23,203.87c7.94-7.74,13.15-16.19,18.14-24.31,4.37,8.94,10.64,16.75,17.43,24.31a106.35,106.35,0,0,0-17.41,23.93c-5-8.63-10.29-16.45-18.16-23.93Z"/><path class="cls-2" d="M157.63,198.27a48.92,48.92,0,0,0,7.42-10,44.48,44.48,0,0,0,7.14,10,43.55,43.55,0,0,0-7.13,9.8,41.46,41.46,0,0,0-7.43-9.8Z"/><path class="cls-2" d="M6.57,49.58a48.44,48.44,0,0,0,7.43-10,44.48,44.48,0,0,0,7.14,10A43.55,43.55,0,0,0,14,59.38a41.51,41.51,0,0,0-7.44-9.8Z"/><path class="cls-2" d="M6.59,28.8a50.93,50.93,0,0,1,0-9.55c.82-5.14,2.82-7.5,6.17-8.27s7.84.09,8.84,4.39l-2.73.05c-1.47-2.91-5.19-2.13-7.28-.87-1.68,1-2.44,5.22-2.12,5.48,0,0,3.17-2.3,5.67-2.13,5.33.54,7.53,5.08,7.34,9.37-.16,5.16-1.83,9.28-7.49,9.56-5.37-.2-7.83-3.08-8.35-8Zm13.26-1.36c0-3.58-1.63-6.26-4.76-6.56S8.8,23.59,9,27.24,10.68,34,14.48,34c4.08,0,5.34-4,5.37-6.53Z"/><path class="cls-2" d="M172,220.65a50.93,50.93,0,0,1,0,9.55c-.82,5.15-2.83,7.5-6.18,8.27s-7.83-.08-8.83-4.38l2.72-.05c1.48,2.9,5.2,2.12,7.3.86,1.67-1,2.43-5.22,2.1-5.47,0,0-3.16,2.3-5.66,2.13-5.33-.55-7.53-5.09-7.35-9.38.17-5.16,1.84-9.28,7.49-9.55,5.38.2,7.84,3.08,8.36,8ZM158.73,222c0,3.57,1.63,6.25,4.76,6.55s6.3-2.71,6.08-6.36-1.67-6.74-5.46-6.73c-4.09,0-5.36,4-5.38,6.54Z"/></g></g></g></svg>