<svg xmlns="http://www.w3.org/2000/svg" viewBox="0 0 178.58 249.45"><defs><style>.cls-1{fill:#fff;}.cls-2{fill:#d41216;}</style></defs><title>7H</title><g id="Слой_2" data-name="Слой 2"><g id="H"><g id="_7H" data-name="7H"><path class="cls-1" d="M8.5,0H170.08a8.48,8.48,0,0,1,8.5,8.5V241a8.48,8.48,0,0,1-8.5,8.5H8.5A8.48,8.48,0,0,1,0,241V8.5A8.48,8.48,0,0,1,8.5,0Z"/><path class="cls-2" d="M9.87,37.21c1.71-8.87,3.53-15.53,8.3-22.76H8.47v3.11H5.89V11.7h14.2l1.75,2.75c-5.07,5.44-9.71,23-8.89,22.76Z"/><path class="cls-2" d="M168.71,212.24c-1.71,8.87-3.53,15.53-8.31,22.76h9.71v-3.11h2.58v5.86h-14.2L156.74,235c5.07-5.44,9.72-23,8.89-22.76Z"/><path class="cls-2" d="M7.06,49.57c-1.27-2.78-1.4-7.52,2.38-8.17,2.85-.36,4,1,4.24,3,.11.59.45.63.55,0a3.37,3.37,0,0,1,3.85-3c4.42.75,4.16,5.62,2.72,8.92-2.19,4.39-4.48,7.16-6.6,11.57-2.43-4.6-5.2-8.33-7.14-12.27Z"/><path class="cls-2" d="M34.55,23.85c5.71-.38,8.69,4.5,9.27,8.34.35.62.54.45.67,0,.28-4.94,4.71-9,8.8-8.42,6.66.08,10.71,7.5,9.57,13.78-1.39,7.66-5.52,12.27-8.65,17-3.53,4.92-8.29,12-9.83,15.45,0,0-4.84-7.36-11.13-16-4.21-5.79-7.58-12.07-7.9-17.47-.35-6.17,2.18-11.71,9.2-12.66Z"/><path class="cls-2" d="M123.77,23.85c5.72-.38,8.7,4.5,9.28,8.34.35.62.54.45.67,0,.28-4.94,4.7-9,8.8-8.42,6.66.08,10.71,7.5,9.57,13.78-1.39,7.66-5.52,12.27-8.65,17-3.54,4.92-8.3,12-9.83,15.45,0,0-4.84-7.36-11.13-16-4.22-5.79-7.58-12.07-7.9-17.47-.35-6.17,2.18-11.71,9.19-12.66Z"/><path class="cls-2" d="M79.69,64c5.72-.38,8.7,4.5,9.28,8.35.35.61.54.43.67,0,.28-4.94,4.7-9,8.79-8.42,6.67.09,10.72,7.5,9.58,13.77-1.39,7.67-5.52,12.28-8.65,17-3.54,4.92-8.3,12-9.83,15.45,0,0-4.84-7.36-11.14-16C74.19,88.29,70.82,82,70.5,76.61,70.14,70.44,72.68,64.9,79.69,64Z"/><path class="cls-2" d="M34.55,104.05c5.71-.38,8.69,4.5,9.27,8.34.35.62.54.45.67,0,.28-4.94,4.71-9,8.8-8.42,6.66.08,10.71,7.5,9.57,13.77-1.39,7.67-5.52,12.28-8.65,17-3.53,4.92-8.29,12-9.83,15.45,0,0-4.84-7.36-11.13-16-4.21-5.79-7.58-12.07-7.9-17.47-.35-6.17,2.18-11.71,9.2-12.66Z"/><path class="cls-2" d="M123.77,104.05c5.72-.38,8.7,4.5,9.28,8.34.35.62.54.45.67,0,.28-4.94,4.7-9,8.8-8.42,6.66.08,10.71,7.5,9.57,13.77-1.39,7.67-5.52,12.28-8.65,17-3.54,4.92-8.3,12-9.83,15.45,0,0-4.84-7.36-11.13-16-4.22-5.79-7.58-12.07-7.9-17.47-.35-6.17,2.18-11.71,9.19-12.66Z"/><path class="cls-2" d="M158.11,202.26c-1.26,2.78-1.4,7.52,2.38,8.16,2.85.37,4-1,4.24-3,.11-.59.45-.63.56,0a3.37,3.37,0,0,0,3.84,3c4.42-.76,4.16-5.63,2.72-8.93-2.19-4.38-4.48-7.15-6.6-11.56-2.43,4.59-5.2,8.32-7.14,12.27Z"/><path class="cls-2" d="M123.77,228.92c5.72.38,8.7-4.5,9.28-8.35.35-.61.54-.44.67,0,.28,4.94,4.7,9,8.8,8.43,6.66-.09,10.71-7.5,9.57-13.78-1.39-7.66-5.52-12.28-8.65-17-3.54-4.92-8.3-12-9.83-15.45,0,0-4.84,7.36-11.13,16-4.22,5.79-7.58,12.06-7.9,17.47-.35,6.17,2.18,11.71,9.19,12.66Z"/><path class="cls-2" d="M34.55,228.92c5.71.38,8.69-4.5,9.27-8.35.35-.61.54-.44.67,0,.28,4.94,4.71,9,8.8,8.43,6.66-.09,10.71-7.5,9.57-13.78-1.39-7.66-5.52-12.28-8.65-17-3.53-4.92-8.29-12-9.83-15.45,0,0-4.84,7.36-11.13,16-4.21,5.79-7.58,12.06-7.9,17.47-.35,6.17,2.18,11.71,9.2,12.66Z"/></g></g></g></svg>