<svg xmlns="http://www.w3.org/2000/svg" viewBox="0 0 178.58 249.45"><defs><style>.cls-1{fill:#fff;}</style></defs><title>7C</title><g id="Слой_2" data-name="Слой 2"><g id="C"><g id="_7C" data-name="7C"><path class="cls-1" d="M8.5,0H170.08a8.48,8.48,0,0,1,8.5,8.5V241a8.48,8.48,0,0,1-8.5,8.5H8.5A8.48,8.48,0,0,1,0,241V8.5A8.48,8.48,0,0,1,8.5,0Z"/><path d="M9.64,37.21c1.7-8.87,3.52-15.53,8.3-22.76H8.23v3.11H5.65V11.7H19.86l1.75,2.75c-5.07,5.44-9.72,23-8.9,22.76Z"/><path d="M168.47,212.24c-1.7,8.87-3.52,15.53-8.3,22.76h9.71v-3.11h2.58v5.86H158.25L156.5,235c5.07-5.44,9.72-23,8.9-22.76Z"/><path d="M124.1,69.7a37.3,37.3,0,0,0,4.28-14.43c.27-1.86-.86-1.89-1-.58-3.26,12.47-20.61,9.1-20-2.64A9.83,9.83,0,0,1,122.2,43.6c1.94,1.15,1.84.46.77-.73-7.32-8.17-2.88-18.69,7-18.88,10.71.64,13.48,11.89,6.92,18.52-.82.79-2.63,3.35.1,1.56,6.63-4.71,15.82.36,15.64,7.62-.35,13.39-16.68,14.39-20.16,3.21-.34-1.25-1.31-1.87-1,.24.48,3.81,1.49,9.56,4.35,14.56Z"/><path d="M124.1,149.9a37.3,37.3,0,0,0,4.28-14.43c.27-1.87-.86-1.9-1-.58-3.26,12.47-20.61,9.09-20-2.64a9.83,9.83,0,0,1,14.87-8.45c1.94,1.14,1.84.46.77-.73-7.32-8.17-2.88-18.69,7-18.88,10.71.63,13.48,11.89,6.92,18.52-.82.79-2.63,3.35.1,1.56,6.63-4.71,15.82.36,15.64,7.62-.35,13.39-16.68,14.39-20.16,3.2-.34-1.24-1.31-1.86-1,.25.48,3.81,1.49,9.56,4.35,14.56Z"/><path d="M42.87,149.9a37.13,37.13,0,0,0,4.28-14.43c.28-1.87-.86-1.9-1-.58-3.26,12.47-20.61,9.09-20-2.64A9.83,9.83,0,0,1,41,123.8c2,1.14,1.84.46.78-.73-7.33-8.17-2.89-18.69,7-18.88,10.71.63,13.49,11.89,6.92,18.52-.82.79-2.63,3.35.1,1.56,6.63-4.71,15.83.36,15.64,7.62-.34,13.39-16.67,14.39-20.16,3.2-.34-1.24-1.3-1.86-1,.25.49,3.81,1.49,9.56,4.35,14.56Z"/><path d="M83.22,109.8A37.3,37.3,0,0,0,87.5,95.37c.27-1.87-.86-1.9-1-.58-3.26,12.47-20.61,9.09-20-2.64A9.83,9.83,0,0,1,81.32,83.7c2,1.14,1.84.46.77-.73-7.32-8.17-2.88-18.69,7-18.88C99.8,64.72,102.58,76,96,82.6c-.82.8-2.63,3.36.1,1.57,6.63-4.71,15.82.36,15.64,7.62-.35,13.39-16.67,14.39-20.16,3.2-.34-1.24-1.31-1.86-1,.24.48,3.82,1.49,9.57,4.35,14.57Z"/><path d="M42.87,69.7a37.13,37.13,0,0,0,4.28-14.43c.28-1.86-.86-1.89-1-.58-3.26,12.47-20.61,9.1-20-2.64A9.83,9.83,0,0,1,41,43.6c2,1.15,1.84.46.78-.73-7.33-8.17-2.89-18.69,7-18.88,10.71.64,13.49,11.89,6.92,18.52-.82.79-2.63,3.35.1,1.56,6.63-4.71,15.83.36,15.64,7.62-.34,13.39-16.67,14.39-20.16,3.21-.34-1.25-1.3-1.87-1,.24C50.7,59,51.7,64.7,54.56,69.7Z"/><path d="M135.86,183.07a37.3,37.3,0,0,0-4.28,14.43c-.27,1.86.86,1.89,1,.58,3.27-12.48,20.61-9.1,20,2.64a9.83,9.83,0,0,1-14.87,8.45c-1.95-1.15-1.84-.46-.78.73,7.33,8.17,2.9,18.69-7,18.88-10.71-.63-13.48-11.9-6.92-18.52.82-.8,2.63-3.35-.1-1.56-6.63,4.71-15.83-.36-15.64-7.62.35-13.39,16.67-14.39,20.16-3.2.34,1.23,1.3,1.86,1-.25-.49-3.81-1.48-9.56-4.35-14.56Z"/><path d="M54.63,183.07a37.3,37.3,0,0,0-4.28,14.43c-.27,1.86.86,1.89,1,.58,3.26-12.48,20.61-9.1,20,2.64a9.83,9.83,0,0,1-14.87,8.45c-1.94-1.15-1.83-.46-.77.73,7.32,8.17,2.89,18.69-7,18.88-10.7-.63-13.48-11.9-6.91-18.52.81-.8,2.62-3.35-.1-1.56-6.64,4.71-15.83-.36-15.65-7.62.35-13.39,16.68-14.39,20.17-3.2.33,1.23,1.3,1.86,1-.25-.48-3.81-1.48-9.56-4.35-14.56Z"/><path d="M10.53,61.11a27.67,27.67,0,0,0,2.38-5.92c.34-2-.34-1.27-.74.06a3.8,3.8,0,0,1-3.66,2.69c-2.69,0-4-2.08-4-4.36-.29-2.4,2.14-4.1,4-4A6.29,6.29,0,0,1,11.83,51c.47.25,1,.37.27-.28-1.34-1.47-2.46-2.37-2.43-4.57a4.19,4.19,0,1,1,8.37.23,4.76,4.76,0,0,1-1.93,3.77c-.76.61-.55,1.07.31.49a4.36,4.36,0,0,1,2.84-1.05c2.79,0,3.88,2.37,3.72,4.61s-1.93,4.27-4.29,4c-2.1-.24-3.21-2-3.85-3.82-.2-.56-.54-.71-.53.12a17.4,17.4,0,0,0,2,6.56Z"/><path d="M168.05,190.71a28.53,28.53,0,0,0-2.39,5.93c-.33,2,.36,1.27.75-.06a3.79,3.79,0,0,1,3.66-2.69c2.7,0,4,2.08,4,4.36.29,2.4-2.14,4.09-4,4a6.29,6.29,0,0,1-3.31-1.43c-.48-.25-1-.36-.27.29,1.34,1.47,2.46,2.37,2.43,4.57a4.18,4.18,0,1,1-8.36-.24,4.72,4.72,0,0,1,1.92-3.76c.76-.61.55-1.07-.31-.49a4.47,4.47,0,0,1-2.84,1.05c-2.79,0-3.88-2.37-3.72-4.62.15-2.1,1.94-4.26,4.29-4,2.11.24,3.21,2,3.84,3.82.22.55.55.7.53-.12a17.61,17.61,0,0,0-2-6.57Z"/></g></g></g></svg>