<svg xmlns="http://www.w3.org/2000/svg" viewBox="0 0 178.58 249.45"><defs><style>.cls-1{fill:#fff;}</style></defs><title>7S</title><g id="Слой_2" data-name="Слой 2"><g id="S"><g id="_7S" data-name="7S"><path class="cls-1" d="M8.5,0H170.08a8.48,8.48,0,0,1,8.5,8.5V241a8.48,8.48,0,0,1-8.5,8.5H8.5A8.48,8.48,0,0,1,0,241V8.5A8.48,8.48,0,0,1,8.5,0Z"/><path d="M9.87,37.21c1.71-8.87,3.53-15.53,8.3-22.76H8.47v3.11H5.89V11.7h14.2l1.75,2.75c-5.07,5.44-9.71,23-8.89,22.76Z"/><path d="M168.71,212.24c-1.71,8.87-3.53,15.53-8.31,22.76h9.71v-3.11h2.58v5.86h-14.2L156.74,235c5.07-5.44,9.72-23,8.89-22.76Z"/><path d="M42.48,56c0-1.61-1.27-1.64-1.26-.46-.11,5.94-5.13,8.87-8.78,8.17-5.63-1.07-7.43-6.66-7.37-10C25.23,43.6,35.45,36.12,44.68,23.1c6.76,11.75,17.92,21,18.58,30.06.88,12.08-14.41,16.59-16.59,2.51-.14-1-1.31-1.44-1.22-.05.33,3.86-.14,5.46,4.21,15H38.28A33.53,33.53,0,0,0,42.48,56Z"/><path d="M131.7,56c0-1.61-1.27-1.64-1.25-.46-.11,5.94-5.14,8.87-8.79,8.17-5.63-1.07-7.42-6.66-7.37-10,.17-10.16,10.39-17.64,19.62-30.66,6.76,11.75,17.91,21,18.57,30.06.88,12.08-14.4,16.59-16.59,2.51-.14-1-1.3-1.44-1.22-.05.34,3.86-.13,5.46,4.22,15H127.51A33.38,33.38,0,0,0,131.7,56Z"/><path d="M87.62,96.1c0-1.62-1.27-1.65-1.25-.46-.11,5.94-5.14,8.86-8.79,8.17-5.63-1.07-7.42-6.66-7.37-10C70.38,83.71,80.6,76.22,89.83,63.2c6.76,11.75,17.92,21,18.58,30.07.88,12.07-14.41,16.58-16.59,2.5-.14-1-1.32-1.44-1.22,0,.33,3.85-.14,5.46,4.21,15H83.43A33.42,33.42,0,0,0,87.62,96.1Z"/><path d="M131.7,136.2c0-1.62-1.27-1.65-1.25-.47-.11,6-5.14,8.88-8.79,8.18-5.63-1.07-7.42-6.66-7.37-9.95.17-10.15,10.39-17.64,19.62-30.67,6.76,11.76,17.91,21,18.57,30.07.88,12.08-14.4,16.59-16.59,2.51-.14-1-1.3-1.44-1.22-.05.34,3.86-.13,5.46,4.22,15H127.51a33.42,33.42,0,0,0,4.19-14.59Z"/><path d="M42.48,136.2c0-1.62-1.27-1.65-1.26-.47-.11,6-5.13,8.88-8.78,8.18-5.63-1.07-7.43-6.66-7.37-9.95.16-10.15,10.38-17.64,19.61-30.67,6.76,11.76,17.92,21,18.58,30.07.88,12.08-14.41,16.59-16.59,2.51-.14-1-1.31-1.44-1.22-.05.33,3.86-.14,5.46,4.21,15H38.28a33.57,33.57,0,0,0,4.2-14.59Z"/><path d="M131.71,196.78c0,1.62-1.27,1.65-1.25.47-.11-5.94-5.14-8.87-8.79-8.18-5.63,1.08-7.42,6.66-7.37,10,.16,10.16,10.39,17.65,19.61,30.67,6.76-11.75,17.92-21,18.58-30.06.88-12.08-14.4-16.59-16.58-2.51-.14,1-1.32,1.44-1.23,0,.34-3.86-.14-5.47,4.21-15H127.52a33.38,33.38,0,0,1,4.19,14.58Z"/><path d="M42.48,196.78c0,1.62-1.27,1.65-1.25.47-.11-5.94-5.13-8.87-8.78-8.18-5.63,1.08-7.43,6.66-7.38,10,.17,10.16,10.39,17.65,19.62,30.67,6.76-11.75,17.92-21,18.58-30.06.87-12.08-14.41-16.59-16.59-2.51-.14,1-1.31,1.44-1.22,0,.33-3.86-.14-5.47,4.21-15H38.29a33.38,33.38,0,0,1,4.19,14.58Z"/><path d="M13.66,56.82c0-.7-.72-.38-.82-.16A2.73,2.73,0,0,1,9.2,58.05a3.38,3.38,0,0,1-2-3.62c.25-2.75,2.43-5.76,3.49-7.46A55.81,55.81,0,0,0,14,41.25c1.35,2.69,2,3.45,3.52,5.91,1.3,2.16,3.12,4.28,3.26,6.9,0,2-.84,3.86-2.72,4.21a2.71,2.71,0,0,1-2.81-1.63c-.23-.33-.68-.16-.67.29a8.42,8.42,0,0,0,2.27,5H11.32a8.06,8.06,0,0,0,2.34-5.07Z"/><path d="M164.71,195c0,.7-.72.37-.82.15a2.72,2.72,0,0,0-3.63-1.38,3.36,3.36,0,0,0-2,3.62c.25,2.74,2.43,5.76,3.49,7.45a56.08,56.08,0,0,1,3.26,5.73c1.36-2.69,2.05-3.45,3.52-5.91,1.3-2.17,3.12-4.29,3.26-6.9,0-2-.84-3.87-2.72-4.21a2.7,2.7,0,0,0-2.81,1.63c-.22.33-.67.16-.67-.29a8.47,8.47,0,0,1,2.27-5h-5.51a8.08,8.08,0,0,1,2.33,5.08Z"/></g></g></g></svg>