<svg xmlns="http://www.w3.org/2000/svg" viewBox="0 0 178.58 249.45"><defs><style>.cls-1{fill:#fff;}.cls-2{fill:#d41216;}</style></defs><title>7D</title><g id="Слой_2" data-name="Слой 2"><g id="D"><g id="_7D" data-name="7D"><path class="cls-1" d="M8.5,0H170.08a8.48,8.48,0,0,1,8.5,8.5V241a8.48,8.48,0,0,1-8.5,8.5H8.5A8.48,8.48,0,0,1,0,241V8.5A8.48,8.48,0,0,1,8.5,0Z"/><path class="cls-2" d="M26.41,47c7.93-7.75,13.14-16.2,18.13-24.32C48.91,31.66,55.18,39.48,62,47A106.21,106.21,0,0,0,44.56,71c-5-8.64-10.29-16.46-18.15-23.93Z"/><path class="cls-2" d="M26.41,127.23c7.93-7.74,13.14-16.19,18.13-24.31,4.37,8.93,10.64,16.76,17.43,24.31a106.49,106.49,0,0,0-17.41,23.94c-5-8.64-10.29-16.46-18.15-23.94Z"/><path class="cls-2" d="M26.41,206.11c7.93-7.74,13.14-16.19,18.13-24.31,4.37,8.93,10.64,16.75,17.43,24.31a106.49,106.49,0,0,0-17.41,23.94c-5-8.64-10.29-16.46-18.15-23.94Z"/><path class="cls-2" d="M71.55,87.13c7.94-7.74,13.15-16.19,18.14-24.31,4.37,8.94,10.64,16.75,17.43,24.31a106.18,106.18,0,0,0-17.41,23.94c-5-8.64-10.29-16.46-18.16-23.94Z"/><path class="cls-2" d="M115.63,47c7.94-7.75,13.15-16.2,18.14-24.32,4.37,8.94,10.64,16.76,17.43,24.32A105.91,105.91,0,0,0,133.79,71c-5-8.64-10.29-16.46-18.16-23.93Z"/><path class="cls-2" d="M115.63,127.23c7.94-7.74,13.15-16.19,18.14-24.31,4.37,8.93,10.64,16.76,17.43,24.31a106.18,106.18,0,0,0-17.41,23.94c-5-8.64-10.29-16.46-18.16-23.94Z"/><path class="cls-2" d="M115.63,206.11c7.94-7.74,13.15-16.19,18.14-24.31,4.37,8.93,10.64,16.75,17.43,24.31a106.18,106.18,0,0,0-17.41,23.94c-5-8.64-10.29-16.46-18.16-23.94Z"/><path class="cls-2" d="M157.77,200.33a48.6,48.6,0,0,0,7.42-10,44.24,44.24,0,0,0,7.15,10,43.65,43.65,0,0,0-7.14,9.81,41.71,41.71,0,0,0-7.43-9.81Z"/><path class="cls-2" d="M6.71,51.65a48.71,48.71,0,0,0,7.43-10,44.48,44.48,0,0,0,7.14,10,43.55,43.55,0,0,0-7.13,9.8,41.24,41.24,0,0,0-7.44-9.8Z"/><path class="cls-2" d="M9.87,37.21c1.71-8.87,3.53-15.53,8.3-22.76H8.47v3.11H5.89V11.7h14.2l1.75,2.75c-5.07,5.44-9.71,23-8.89,22.76Z"/><path class="cls-2" d="M168.71,212.24c-1.71,8.87-3.53,15.53-8.31,22.76h9.71v-3.11h2.58v5.86h-14.2L156.74,235c5.07-5.44,9.72-23,8.89-22.76Z"/></g></g></g></svg>