<svg xmlns="http://www.w3.org/2000/svg" viewBox="0 0 178.58 249.45"><defs><style>.cls-1{fill:#fff;}</style></defs><title>8C</title><g id="Слой_2" data-name="Слой 2"><g id="C"><g id="_8C" data-name="8C"><path class="cls-1" d="M8.5,0H170.08a8.48,8.48,0,0,1,8.5,8.5V241a8.48,8.48,0,0,1-8.5,8.5H8.5A8.48,8.48,0,0,1,0,241V8.5A8.48,8.48,0,0,1,8.5,0Z"/><path d="M4.87,30c.13-3.5,1.42-4.81,4-6.64A6,6,0,0,1,6.12,18c.42-4.35,3.85-6.53,7.59-6.44s7,3,7.21,6.18a5.34,5.34,0,0,1-2.6,5.53c2.36,2,3.87,3.24,3.81,6.69a8.18,8.18,0,0,1-8.25,7.68c-5.21.13-9.13-4.14-9-7.64Zm14.54,0c.22-3.17-2.63-5.3-5.85-5.34s-5.95,2.6-5.95,5.45c0,3.05,3.65,4.71,6,4.72,2.87,0,5.6-2.09,5.79-4.83Zm-1-11.33c.06-2.68-2.45-4.59-5-4.51-2.3.07-4.74,1.79-4.74,4,0,2.79,2.77,4.19,5.14,4.24,2.14.05,4.58-1.74,4.63-3.75Z"/><path d="M172.5,219.41c-.13,3.5-1.41,4.82-3.95,6.65a6,6,0,0,1,2.7,5.35c-.41,4.36-3.84,6.54-7.58,6.44s-7-3-7.22-6.18c-.22-2.75.62-4.08,2.61-5.53-2.36-1.95-3.87-3.24-3.82-6.69a8.2,8.2,0,0,1,8.26-7.68c5.2-.12,9.13,4.14,9,7.64Zm-14.53,0c-.23,3.17,2.63,5.31,5.85,5.34s5.94-2.59,5.94-5.44c0-3.06-3.65-4.72-6-4.73-2.86,0-5.59,2.1-5.78,4.83Zm1,11.34c-.07,2.67,2.44,4.58,5,4.5,2.3-.06,4.73-1.79,4.73-4,0-2.79-2.76-4.18-5.13-4.24-2.14,0-4.59,1.74-4.63,3.76Z"/><path d="M124.83,68a37.4,37.4,0,0,0,4.28-14.44c.27-1.86-.86-1.89-1-.58-3.26,12.48-20.61,9.1-20-2.63a9.83,9.83,0,0,1,14.86-8.46c1.95,1.15,1.84.46.78-.73-7.33-8.16-2.89-18.69,7-18.88,10.71.64,13.48,11.9,6.92,18.52-.82.8-2.63,3.36.1,1.57,6.63-4.71,15.83.35,15.64,7.61-.35,13.39-16.67,14.39-20.16,3.21-.34-1.24-1.31-1.87-1,.24.49,3.81,1.49,9.57,4.35,14.57Z"/><path d="M124.83,148.16a37.25,37.25,0,0,0,4.28-14.43c.27-1.86-.86-1.89-1-.58-3.26,12.48-20.61,9.1-20-2.63a9.83,9.83,0,0,1,14.86-8.46c1.95,1.15,1.84.46.78-.73-7.33-8.17-2.89-18.69,7-18.88,10.71.64,13.48,11.9,6.92,18.52-.82.8-2.63,3.35.1,1.57,6.63-4.72,15.83.35,15.64,7.61-.35,13.39-16.67,14.39-20.16,3.21-.34-1.24-1.31-1.87-1,.24.49,3.81,1.49,9.56,4.35,14.56Z"/><path d="M42,148.16a37.08,37.08,0,0,0,4.28-14.43c.27-1.86-.86-1.89-1-.58-3.26,12.48-20.61,9.1-20-2.63a9.83,9.83,0,0,1,14.87-8.46c1.94,1.15,1.83.46.77-.73-7.33-8.17-2.89-18.69,7-18.88,10.7.64,13.48,11.9,6.91,18.52-.81.8-2.63,3.35.1,1.57,6.63-4.72,15.83.35,15.64,7.61-.34,13.39-16.67,14.39-20.16,3.21-.33-1.24-1.3-1.87-1,.24.49,3.81,1.49,9.56,4.36,14.56Z"/><path d="M82.15,108.06a37.25,37.25,0,0,0,4.28-14.43c.27-1.86-.86-1.89-1-.58-3.26,12.48-20.61,9.1-20-2.64A9.83,9.83,0,0,1,80.25,82c2,1.15,1.84.46.78-.73-7.33-8.17-2.89-18.69,7-18.88C98.74,63,101.52,74.25,95,80.87c-.82.79-2.63,3.35.1,1.56,6.62-4.7,15.83.36,15.64,7.62-.35,13.39-16.67,14.39-20.16,3.21-.34-1.24-1.31-1.87-1,.24.49,3.81,1.49,9.56,4.35,14.56Z"/><path d="M42,68a37.23,37.23,0,0,0,4.28-14.44c.27-1.86-.86-1.89-1-.58-3.26,12.48-20.61,9.1-20-2.63a9.83,9.83,0,0,1,14.87-8.46c1.94,1.15,1.83.46.77-.73C33.55,33,38,22.44,47.89,22.25c10.7.64,13.48,11.9,6.91,18.52-.81.8-2.63,3.36.1,1.57,6.63-4.71,15.83.35,15.64,7.61-.34,13.39-16.67,14.39-20.16,3.21-.33-1.24-1.3-1.87-1,.24C49.83,57.21,50.83,63,53.7,68Z"/><path d="M136.59,181.33a37.3,37.3,0,0,0-4.28,14.43c-.27,1.87.86,1.9,1,.58,3.26-12.47,20.61-9.09,20,2.64a9.83,9.83,0,0,1-14.87,8.45c-1.94-1.14-1.83-.46-.77.73,7.32,8.17,2.89,18.69-7,18.88-10.71-.63-13.48-11.89-6.92-18.52.82-.79,2.63-3.35-.09-1.56-6.63,4.71-15.83-.36-15.65-7.62.35-13.39,16.67-14.39,20.16-3.2.34,1.24,1.31,1.86,1-.24-.48-3.82-1.48-9.57-4.35-14.57Z"/><path d="M93.91,141.89a37.3,37.3,0,0,0-4.28,14.43c-.27,1.86.86,1.9,1,.58,3.27-12.47,20.61-9.09,20,2.64A9.83,9.83,0,0,1,95.81,168c-1.94-1.15-1.83-.46-.77.73,7.32,8.17,2.88,18.69-7,18.88-10.71-.63-13.48-11.89-6.92-18.51.82-.8,2.63-3.36-.09-1.57-6.63,4.71-15.83-.36-15.64-7.62.34-13.39,16.66-14.39,20.16-3.2.33,1.24,1.3,1.86,1-.25-.48-3.81-1.48-9.56-4.35-14.56Z"/><path d="M53.76,181.33a37.12,37.12,0,0,0-4.27,14.43c-.28,1.87.86,1.9,1,.58,3.26-12.47,20.61-9.09,20,2.64a9.83,9.83,0,0,1-14.87,8.45c-1.94-1.14-1.83-.46-.77.73,7.32,8.17,2.89,18.69-7,18.88-10.7-.63-13.48-11.89-6.91-18.52.82-.79,2.62-3.35-.1-1.56-6.63,4.71-15.83-.36-15.64-7.62C25.57,186,41.9,185,45.39,196.14c.34,1.24,1.3,1.86,1-.24-.48-3.82-1.48-9.57-4.35-14.57Z"/><path d="M10.76,61.87A27.6,27.6,0,0,0,13.15,56c.34-2-.35-1.27-.74,0a3.81,3.81,0,0,1-3.66,2.7c-2.7,0-4-2.08-4-4.36-.29-2.4,2.13-4.1,4-4a6.37,6.37,0,0,1,3.31,1.42c.47.25,1,.37.27-.29C11,50,9.88,49.13,9.91,46.94a4.18,4.18,0,1,1,8.36.24,4.76,4.76,0,0,1-1.93,3.76c-.75.61-.54,1.07.32.49a4.35,4.35,0,0,1,2.84-1c2.79,0,3.88,2.37,3.72,4.61s-1.94,4.26-4.3,4c-2.1-.24-3.21-2-3.84-3.82-.21-.56-.54-.71-.53.12a17.73,17.73,0,0,0,2,6.56Z"/><path d="M167.82,190.71a27.47,27.47,0,0,0-2.39,5.93c-.34,2,.35,1.27.74-.06a3.81,3.81,0,0,1,3.66-2.69c2.7,0,4,2.08,4,4.36.3,2.4-2.14,4.09-4,4a6.29,6.29,0,0,1-3.31-1.43c-.47-.25-1-.36-.27.29,1.34,1.47,2.46,2.37,2.44,4.57a4.19,4.19,0,1,1-8.37-.24,4.73,4.73,0,0,1,1.93-3.76c.75-.61.54-1.07-.32-.49a4.45,4.45,0,0,1-2.84,1.05c-2.79,0-3.88-2.37-3.72-4.62.15-2.1,1.94-4.26,4.3-4,2.1.24,3.2,2,3.84,3.82.21.55.54.7.53-.12a17.83,17.83,0,0,0-2-6.57Z"/></g></g></g></svg>