<svg xmlns="http://www.w3.org/2000/svg" viewBox="0 0 178.58 249.45"><defs><style>.cls-1{fill:#fff;}</style></defs><title>8S</title><g id="Слой_2" data-name="Слой 2"><g id="S"><g id="_8S" data-name="8S"><path class="cls-1" d="M8.5,0H170.08a8.48,8.48,0,0,1,8.5,8.5V241a8.48,8.48,0,0,1-8.5,8.5H8.5A8.48,8.48,0,0,1,0,241V8.5A8.48,8.48,0,0,1,8.5,0Z"/><path d="M5.47,30c.13-3.5,1.42-4.81,4-6.64A6,6,0,0,1,6.72,18c.42-4.35,3.85-6.53,7.59-6.44s7,3,7.22,6.18c.22,2.76-.62,4.08-2.61,5.53,2.36,2,3.87,3.24,3.81,6.69a8.18,8.18,0,0,1-8.25,7.68c-5.2.13-9.13-4.14-9-7.64Zm14.54,0c.22-3.17-2.63-5.3-5.85-5.34s-5.95,2.6-5.95,5.45c0,3.05,3.66,4.71,6,4.72,2.87,0,5.6-2.09,5.79-4.83ZM19,18.72c.06-2.68-2.44-4.59-5-4.51-2.3.07-4.74,1.79-4.74,4,0,2.79,2.77,4.19,5.14,4.24,2.14.05,4.58-1.74,4.63-3.75Z"/><path d="M173.11,219.41c-.13,3.5-1.42,4.82-4,6.65a6,6,0,0,1,2.7,5.35c-.41,4.36-3.84,6.54-7.58,6.44s-7-3-7.22-6.18a5.37,5.37,0,0,1,2.61-5.53c-2.36-1.95-3.87-3.24-3.82-6.69a8.2,8.2,0,0,1,8.26-7.68c5.2-.12,9.13,4.14,9,7.64Zm-14.54,0c-.23,3.17,2.63,5.31,5.85,5.34s5.94-2.59,5.94-5.44c0-3.06-3.65-4.72-6-4.73-2.86,0-5.59,2.1-5.78,4.83Zm1,11.34c-.07,2.67,2.44,4.58,5,4.5,2.3-.06,4.74-1.79,4.74-4,0-2.79-2.77-4.18-5.14-4.24-2.14,0-4.59,1.74-4.63,3.76Z"/><path d="M42,54.27c0-1.62-1.27-1.65-1.25-.47-.11,5.94-5.13,8.87-8.79,8.18-5.63-1.07-7.42-6.66-7.37-9.95C24.73,41.87,35,34.38,44.18,21.36c6.76,11.75,17.92,21,18.58,30.07.88,12.08-14.41,16.58-16.59,2.5-.14-1-1.32-1.44-1.22,0,.33,3.86-.14,5.47,4.21,15H37.78A33.46,33.46,0,0,0,42,54.27Z"/><path d="M131.2,54.27c0-1.62-1.27-1.65-1.26-.47-.1,5.94-5.13,8.87-8.78,8.18-5.63-1.07-7.43-6.66-7.37-9.95.17-10.16,10.39-17.65,19.62-30.67,6.75,11.75,17.91,21,18.57,30.07.88,12.08-14.4,16.58-16.59,2.5-.14-1-1.31-1.44-1.22,0,.33,3.86-.14,5.47,4.22,15H127a33.46,33.46,0,0,0,4.19-14.59Z"/><path d="M86.92,94.37c0-1.62-1.27-1.65-1.25-.47-.11,5.94-5.14,8.87-8.79,8.17-5.63-1.07-7.42-6.65-7.37-9.94C69.68,82,79.9,74.48,89.12,61.46c6.77,11.75,17.92,21,18.58,30.07.88,12.07-14.4,16.58-16.59,2.51C91,93,89.8,92.59,89.89,94c.34,3.86-.14,5.46,4.22,15H82.73a33.46,33.46,0,0,0,4.19-14.59Z"/><path d="M42,134.47c0-1.62-1.27-1.65-1.25-.47-.11,5.94-5.13,8.87-8.79,8.18-5.63-1.08-7.42-6.66-7.37-10,.17-10.16,10.39-17.65,19.62-30.67,6.76,11.75,17.92,21,18.58,30.07.88,12.08-14.41,16.58-16.59,2.5-.14-1-1.32-1.44-1.22,0,.33,3.86-.14,5.47,4.21,15H37.78A33.38,33.38,0,0,0,42,134.47Z"/><path d="M131.2,134.47c0-1.62-1.27-1.65-1.26-.47-.1,5.94-5.13,8.87-8.78,8.18-5.63-1.08-7.43-6.66-7.37-10,.17-10.16,10.39-17.65,19.62-30.67,6.75,11.75,17.91,21,18.57,30.07.88,12.08-14.4,16.58-16.59,2.5-.14-1-1.31-1.44-1.22,0,.33,3.86-.14,5.47,4.22,15H127a33.38,33.38,0,0,0,4.19-14.58Z"/><path d="M131.21,195.05c0,1.62-1.27,1.65-1.26.47-.1-6-5.13-8.88-8.78-8.18-5.63,1.07-7.42,6.66-7.37,9.95.16,10.15,10.39,17.64,19.61,30.67,6.77-11.76,17.92-21,18.58-30.07.88-12.08-14.4-16.59-16.59-2.51-.14,1-1.31,1.44-1.22.05.34-3.86-.14-5.46,4.21-15H127a33.42,33.42,0,0,1,4.19,14.59Z"/><path d="M86.93,155.6c0,1.63-1.27,1.66-1.25.47-.11-5.94-5.14-8.86-8.79-8.17-5.63,1.07-7.43,6.66-7.37,9.95.16,10.15,10.39,17.65,19.61,30.67,6.76-11.75,17.92-21,18.58-30.07.88-12.08-14.41-16.59-16.58-2.51-.15,1-1.32,1.44-1.23.05.33-3.85-.14-5.46,4.21-15H82.74a33.42,33.42,0,0,1,4.19,14.58Z"/><path d="M42,195.05c0,1.62-1.27,1.65-1.25.47-.11-6-5.14-8.88-8.79-8.18-5.62,1.07-7.42,6.66-7.37,9.95C24.74,207.44,35,214.93,44.19,228,51,216.2,62.11,207,62.76,197.89c.88-12.08-14.4-16.59-16.59-2.51-.14,1-1.31,1.44-1.21.05.33-3.86-.14-5.46,4.21-15H37.79A33.42,33.42,0,0,1,42,195.05Z"/><path d="M14.26,57.57c0-.69-.72-.37-.82-.15a2.72,2.72,0,0,1-3.63,1.39,3.37,3.37,0,0,1-2-3.62c.25-2.75,2.43-5.76,3.49-7.46A56.08,56.08,0,0,0,14.59,42c1.36,2.7,2.05,3.46,3.52,5.92,1.3,2.16,3.12,4.28,3.26,6.9,0,2-.84,3.86-2.72,4.2a2.67,2.67,0,0,1-2.8-1.63c-.23-.32-.68-.15-.68.29a8.42,8.42,0,0,0,2.27,5H11.93a8.06,8.06,0,0,0,2.33-5.08Z"/><path d="M165.31,195.77c0,.7-.71.38-.81.15a2.74,2.74,0,0,0-3.64-1.38,3.37,3.37,0,0,0-2,3.62c.24,2.75,2.42,5.75,3.48,7.46a55.81,55.81,0,0,1,3.26,5.72c1.36-2.69,2.05-3.46,3.53-5.91,1.3-2.17,3.11-4.28,3.25-6.9,0-2-.84-3.87-2.72-4.21a2.7,2.7,0,0,0-2.8,1.63c-.23.33-.68.15-.67-.29a8.45,8.45,0,0,1,2.26-5H163a8,8,0,0,1,2.33,5.08Z"/></g></g></g></svg>