<svg xmlns="http://www.w3.org/2000/svg" viewBox="0 0 178.58 249.45"><defs><style>.cls-1{fill:#fff;}.cls-2{fill:#d41216;}</style></defs><title>8H</title><g id="Слой_2" data-name="Слой 2"><g id="H"><g id="_8H" data-name="8H"><path class="cls-1" d="M8.5,0H170.08a8.48,8.48,0,0,1,8.5,8.5V241a8.48,8.48,0,0,1-8.5,8.5H8.5A8.48,8.48,0,0,1,0,241V8.5A8.48,8.48,0,0,1,8.5,0Z"/><path class="cls-2" d="M5.47,30c.13-3.5,1.42-4.81,4-6.64A6,6,0,0,1,6.72,18c.42-4.35,3.85-6.53,7.59-6.44s7,3,7.22,6.18c.22,2.76-.62,4.08-2.61,5.53,2.36,2,3.87,3.24,3.81,6.69a8.18,8.18,0,0,1-8.25,7.68c-5.2.13-9.13-4.14-9-7.64Zm14.54,0c.22-3.17-2.63-5.3-5.85-5.34s-5.95,2.6-5.95,5.45c0,3.05,3.66,4.71,6,4.72,2.87,0,5.6-2.09,5.79-4.83ZM19,18.72c.06-2.68-2.44-4.59-5-4.51-2.3.07-4.74,1.79-4.74,4,0,2.79,2.77,4.19,5.14,4.24,2.14.05,4.58-1.74,4.63-3.75Z"/><path class="cls-2" d="M173.11,219.41c-.13,3.5-1.42,4.82-4,6.65a6,6,0,0,1,2.7,5.35c-.41,4.36-3.84,6.54-7.58,6.44s-7-3-7.22-6.18a5.37,5.37,0,0,1,2.61-5.53c-2.36-1.95-3.87-3.24-3.82-6.69a8.2,8.2,0,0,1,8.26-7.68c5.2-.12,9.13,4.14,9,7.64Zm-14.54,0c-.23,3.17,2.63,5.31,5.85,5.34s5.94-2.59,5.94-5.44c0-3.06-3.65-4.72-6-4.73-2.86,0-5.59,2.1-5.78,4.83Zm1,11.34c-.07,2.67,2.44,4.58,5,4.5,2.3-.06,4.74-1.79,4.74-4,0-2.79-2.77-4.18-5.14-4.24-2.14,0-4.59,1.74-4.63,3.76Z"/><path class="cls-2" d="M7.66,50.33C6.4,47.55,6.26,42.8,10,42.16c2.85-.36,4,1,4.24,3,.11.59.45.63.56,0a3.36,3.36,0,0,1,3.84-3c4.42.76,4.16,5.62,2.72,8.93-2.19,4.38-4.48,7.14-6.6,11.56C12.38,58,9.6,54.27,7.66,50.33Z"/><path class="cls-2" d="M35.65,22.11c5.71-.38,8.69,4.5,9.27,8.35.35.61.54.44.67,0,.28-4.94,4.7-9,8.8-8.43,6.66.09,10.71,7.5,9.57,13.78-1.39,7.66-5.52,12.28-8.65,17-3.53,4.92-8.3,12-9.83,15.46,0,0-4.84-7.37-11.13-16-4.21-5.79-7.58-12.06-7.89-17.47-.36-6.17,2.17-11.7,9.19-12.66Z"/><path class="cls-2" d="M123.27,22.11c5.72-.38,8.7,4.5,9.28,8.35.34.61.54.44.67,0,.28-4.94,4.7-9,8.79-8.43,6.67.09,10.72,7.5,9.58,13.78-1.4,7.66-5.52,12.28-8.65,17-3.54,4.92-8.3,12-9.83,15.46,0,0-4.84-7.37-11.14-16-4.2-5.79-7.58-12.06-7.89-17.47-.36-6.17,2.18-11.7,9.19-12.66Z"/><path class="cls-2" d="M79,62.21c5.72-.38,8.7,4.5,9.28,8.35.35.61.53.44.67,0,.28-4.94,4.7-9,8.79-8.43,6.66.09,10.72,7.5,9.57,13.78-1.39,7.66-5.51,12.28-8.64,17-3.54,4.92-8.3,12-9.83,15.45,0,0-4.84-7.36-11.13-16-4.22-5.79-7.58-12.07-7.9-17.47C69.45,68.7,72,63.17,79,62.21Z"/><path class="cls-2" d="M35.65,102.31c5.71-.38,8.69,4.5,9.27,8.35.35.61.54.44.67,0,.28-4.94,4.7-9,8.8-8.43,6.66.09,10.71,7.5,9.57,13.78-1.39,7.66-5.52,12.28-8.65,17-3.53,4.92-8.3,12-9.83,15.46,0,0-4.84-7.37-11.13-16-4.21-5.79-7.58-12.06-7.89-17.47-.36-6.17,2.17-11.7,9.19-12.66Z"/><path class="cls-2" d="M123.27,102.31c5.72-.38,8.7,4.5,9.28,8.35.34.61.54.44.67,0,.28-4.94,4.7-9,8.79-8.43,6.67.09,10.72,7.5,9.58,13.78-1.4,7.66-5.52,12.28-8.65,17-3.54,4.92-8.3,12-9.83,15.46,0,0-4.84-7.37-11.14-16-4.2-5.79-7.58-12.06-7.89-17.47-.36-6.17,2.18-11.7,9.19-12.66Z"/><path class="cls-2" d="M123.27,227.18c5.72.38,8.7-4.5,9.28-8.34.34-.62.54-.44.67,0,.28,4.94,4.7,9,8.79,8.42,6.67-.08,10.72-7.5,9.58-13.77-1.4-7.67-5.52-12.28-8.65-17-3.54-4.92-8.3-12-9.83-15.45,0,0-4.84,7.37-11.14,16-4.2,5.79-7.58,12.07-7.89,17.47-.36,6.18,2.18,11.71,9.19,12.66Z"/><path class="cls-2" d="M79,187.75c5.72.38,8.7-4.51,9.28-8.35.35-.61.53-.44.67,0,.28,4.94,4.7,9,8.79,8.42,6.66-.08,10.72-7.5,9.57-13.77-1.39-7.67-5.51-12.28-8.64-17-3.54-4.92-8.3-12-9.83-15.45,0,0-4.84,7.36-11.13,16-4.22,5.8-7.58,12.07-7.9,17.47-.35,6.17,2.18,11.71,9.19,12.66Z"/><path class="cls-2" d="M35.65,227.18c5.71.38,8.69-4.5,9.27-8.34.35-.62.54-.44.67,0,.28,4.94,4.7,9,8.8,8.42,6.66-.08,10.71-7.5,9.57-13.77-1.39-7.67-5.52-12.28-8.65-17-3.53-4.92-8.3-12-9.83-15.45,0,0-4.84,7.37-11.13,16-4.21,5.79-7.58,12.07-7.89,17.47-.36,6.18,2.17,11.71,9.19,12.66Z"/><path class="cls-2" d="M158.71,203c-1.26,2.77-1.4,7.52,2.38,8.16,2.85.37,4-1,4.24-3,.12-.6.45-.63.56,0a3.36,3.36,0,0,0,3.84,3c4.43-.75,4.17-5.62,2.72-8.92-2.18-4.38-4.48-7.15-6.6-11.56-2.42,4.59-5.2,8.32-7.14,12.27Z"/></g></g></g></svg>