<svg xmlns="http://www.w3.org/2000/svg" viewBox="0 0 178.58 249.45"><defs><style>.cls-1{fill:#fff;}.cls-2{fill:#d41216;}</style></defs><title>8D</title><g id="Слой_2" data-name="Слой 2"><g id="D"><g id="_8D" data-name="8D"><path class="cls-1" d="M8.5,0H170.08a8.48,8.48,0,0,1,8.5,8.5V241a8.48,8.48,0,0,1-8.5,8.5H8.5A8.48,8.48,0,0,1,0,241V8.5A8.48,8.48,0,0,1,8.5,0Z"/><path class="cls-2" d="M25.91,45.3C33.84,37.55,39.05,29.11,44,21c4.37,8.94,10.64,16.76,17.43,24.32A106.21,106.21,0,0,0,44.06,69.23c-5-8.64-10.29-16.46-18.15-23.93Z"/><path class="cls-2" d="M25.91,125.5c7.93-7.75,13.14-16.19,18.13-24.32,4.37,8.94,10.64,16.76,17.43,24.32a106.21,106.21,0,0,0-17.41,23.93c-5-8.64-10.29-16.46-18.15-23.93Z"/><path class="cls-2" d="M25.91,204.38c7.93-7.75,13.14-16.2,18.13-24.32,4.37,8.94,10.64,16.76,17.43,24.32a106.21,106.21,0,0,0-17.41,23.93c-5-8.64-10.29-16.46-18.15-23.93Z"/><path class="cls-2" d="M70.85,85.39C78.79,77.65,84,69.21,89,61.09c4.38,8.93,10.65,16.75,17.43,24.3A106.66,106.66,0,0,0,89,109.33c-5-8.63-10.3-16.45-18.16-23.94Z"/><path class="cls-2" d="M115.13,45.3c7.94-7.75,13.15-16.19,18.13-24.32,4.38,8.94,10.65,16.76,17.44,24.32a105.91,105.91,0,0,0-17.41,23.93c-5-8.64-10.29-16.46-18.16-23.93Z"/><path class="cls-2" d="M115.13,125.5c7.94-7.75,13.15-16.19,18.13-24.32,4.38,8.94,10.65,16.76,17.44,24.32a105.91,105.91,0,0,0-17.41,23.93c-5-8.64-10.29-16.46-18.16-23.93Z"/><path class="cls-2" d="M115.13,204.38c7.94-7.75,13.15-16.2,18.13-24.32,4.38,8.94,10.65,16.76,17.44,24.32a105.91,105.91,0,0,0-17.41,23.93c-5-8.64-10.29-16.46-18.16-23.93Z"/><path class="cls-2" d="M70.85,164.93C78.79,157.19,84,148.75,89,140.63c4.38,8.93,10.65,16.75,17.43,24.3A106.44,106.44,0,0,0,89,188.87c-5-8.64-10.3-16.46-18.16-23.94Z"/><path class="cls-2" d="M158.37,201.09a48.44,48.44,0,0,0,7.43-10,44.25,44.25,0,0,0,7.14,10,43.07,43.07,0,0,0-7.13,9.81,42,42,0,0,0-7.44-9.81Z"/><path class="cls-2" d="M7.32,52.41a49.36,49.36,0,0,0,7.43-10,44.48,44.48,0,0,0,7.14,10,43.6,43.6,0,0,0-7.14,9.8,41.46,41.46,0,0,0-7.43-9.8Z"/><path class="cls-2" d="M5.47,30c.13-3.5,1.42-4.81,4-6.64A6,6,0,0,1,6.72,18c.42-4.35,3.85-6.53,7.59-6.44s7,3,7.22,6.18c.22,2.76-.62,4.08-2.61,5.53,2.36,2,3.87,3.24,3.81,6.69a8.18,8.18,0,0,1-8.25,7.68c-5.2.13-9.13-4.14-9-7.64Zm14.54,0c.22-3.17-2.63-5.3-5.85-5.34s-5.95,2.6-5.95,5.45c0,3.05,3.66,4.71,6,4.72,2.87,0,5.6-2.09,5.79-4.83ZM19,18.72c.06-2.68-2.44-4.59-5-4.51-2.3.07-4.74,1.79-4.74,4,0,2.79,2.77,4.19,5.14,4.24,2.14.05,4.58-1.74,4.63-3.75Z"/><path class="cls-2" d="M173.11,219.41c-.13,3.5-1.42,4.82-4,6.65a6,6,0,0,1,2.7,5.35c-.41,4.36-3.84,6.54-7.58,6.44s-7-3-7.22-6.18a5.37,5.37,0,0,1,2.61-5.53c-2.36-1.95-3.87-3.24-3.82-6.69a8.2,8.2,0,0,1,8.26-7.68c5.2-.12,9.13,4.14,9,7.64Zm-14.54,0c-.23,3.17,2.63,5.31,5.85,5.34s5.94-2.59,5.94-5.44c0-3.06-3.65-4.72-6-4.73-2.86,0-5.59,2.1-5.78,4.83Zm1,11.34c-.07,2.67,2.44,4.58,5,4.5,2.3-.06,4.74-1.79,4.74-4,0-2.79-2.77-4.18-5.14-4.24-2.14,0-4.59,1.74-4.63,3.76Z"/></g></g></g></svg>