<svg xmlns="http://www.w3.org/2000/svg" viewBox="0 0 178.58 249.45"><defs><style>.cls-1{fill:#fff;}.cls-2{fill:#d41216;}</style></defs><title>9H</title><g id="Слой_2" data-name="Слой 2"><g id="H"><g id="_9H" data-name="9H"><path class="cls-1" d="M8.5,0H170.08a8.48,8.48,0,0,1,8.5,8.5V241a8.48,8.48,0,0,1-8.5,8.5H8.5A8.48,8.48,0,0,1,0,241V8.5A8.48,8.48,0,0,1,8.5,0Z"/><path class="cls-2" d="M6.62,31.48,9,30.73a4.29,4.29,0,0,0,4.71,2.95c3.51-.27,4.67-4.12,4.94-7.52a7.08,7.08,0,0,1-5.17,2.07c-5.59-.3-7-4.68-7.07-9.28-.15-3.88,1.48-6.68,4.28-8a9.67,9.67,0,0,1,6.37.12c3.42,1.77,4.69,4.84,4.46,12.15,0,6-1.3,13-7.87,13.18a6.34,6.34,0,0,1-7.07-4.95Zm9.51-6.59a5.64,5.64,0,0,0,2.29-2.37,4.41,4.41,0,0,0,.44-2.94c-.3-4.36-2.63-6.84-6-6.35a4,4,0,0,0-3.5,3.24c-1.09,3.56.29,7.73,2.89,8.69a5.17,5.17,0,0,0,3.9-.27Z"/><path class="cls-2" d="M171.45,218l-2.42.75a4.32,4.32,0,0,0-4.72-2.95c-3.5.28-4.67,4.12-4.93,7.52a7.06,7.06,0,0,1,5.17-2.07c5.59.3,7,4.69,7.07,9.28.15,3.88-1.48,6.69-4.28,8a9.73,9.73,0,0,1-6.37-.11c-3.43-1.78-4.69-4.84-4.46-12.16,0-6,1.29-13,7.87-13.18a6.36,6.36,0,0,1,7.07,4.95Zm-9.51,6.6a5.71,5.71,0,0,0-2.3,2.36,4.47,4.47,0,0,0-.44,2.94c.31,4.36,2.64,6.84,6,6.35a4,4,0,0,0,3.51-3.24c1.09-3.56-.29-7.73-2.89-8.69a5.12,5.12,0,0,0-3.9.28Z"/><path class="cls-2" d="M6.87,46.66C5.6,43.88,5.46,39.14,9.24,38.5c2.85-.37,4,1,4.24,3,.12.59.45.63.56-.05a3.37,3.37,0,0,1,3.84-3c4.42.76,4.17,5.63,2.72,8.93-2.18,4.38-4.48,7.15-6.59,11.56-2.44-4.59-5.21-8.32-7.14-12.27Z"/><path class="cls-2" d="M35.88,22.94c5.71-.38,8.69,4.51,9.28,8.35.34.61.53.44.66,0,.29-4.94,4.71-9,8.8-8.43,6.66.09,10.71,7.5,9.57,13.78-1.39,7.66-5.52,12.28-8.64,17-3.54,4.92-8.3,12-9.84,15.45,0,0-4.83-7.37-11.13-16C30.37,47.28,27,41,26.69,35.61c-.36-6.18,2.17-11.71,9.19-12.67Z"/><path class="cls-2" d="M123.51,22.94c5.71-.38,8.69,4.51,9.27,8.35.35.61.54.44.67,0,.28-4.94,4.7-9,8.8-8.43,6.66.09,10.71,7.5,9.57,13.78-1.39,7.66-5.52,12.28-8.65,17-3.53,4.92-8.3,12-9.83,15.45,0,0-4.84-7.37-11.13-16C118,47.28,114.63,41,114.32,35.61c-.36-6.18,2.17-11.71,9.19-12.67Z"/><path class="cls-2" d="M123.51,75.21c5.71-.38,8.69,4.5,9.27,8.34.35.62.54.45.67,0,.28-4.94,4.7-9,8.8-8.42,6.66.08,10.71,7.5,9.57,13.77-1.39,7.67-5.52,12.28-8.65,17-3.53,4.92-8.3,12-9.83,15.45,0,0-4.84-7.36-11.13-16-4.21-5.79-7.58-12.07-7.89-17.47-.36-6.17,2.17-11.71,9.19-12.66Z"/><path class="cls-2" d="M79.65,101.73c5.72-.38,8.69,4.5,9.27,8.35.35.61.54.44.68,0,.27-4.94,4.7-9,8.79-8.42,6.66.09,10.71,7.5,9.57,13.77-1.39,7.67-5.51,12.29-8.64,17-3.54,4.92-8.3,12-9.84,15.45,0,0-4.84-7.36-11.13-16-4.21-5.79-7.58-12.07-7.89-17.47-.36-6.17,2.17-11.71,9.19-12.66Z"/><path class="cls-2" d="M35.88,75.21c5.71-.38,8.69,4.5,9.28,8.34.34.62.53.45.66,0,.29-4.94,4.71-9,8.8-8.42,6.66.08,10.71,7.5,9.57,13.77-1.39,7.67-5.52,12.28-8.64,17-3.54,4.92-8.3,12-9.84,15.45,0,0-4.83-7.36-11.13-16C30.37,99.55,27,93.27,26.69,87.87c-.36-6.17,2.17-11.71,9.19-12.66Z"/><path class="cls-2" d="M123.51,174.72c5.71.38,8.69-4.5,9.27-8.35.35-.61.54-.44.67,0,.28,4.94,4.7,9,8.8,8.43,6.66-.09,10.71-7.5,9.57-13.78-1.39-7.66-5.52-12.28-8.65-17-3.53-4.92-8.3-12-9.83-15.45,0,0-4.84,7.36-11.13,16-4.21,5.79-7.58,12.06-7.89,17.47-.36,6.17,2.17,11.7,9.19,12.66Z"/><path class="cls-2" d="M123.51,226.8c5.71.38,8.69-4.5,9.27-8.35.35-.61.54-.43.67,0,.28,4.94,4.7,9,8.8,8.42,6.66-.09,10.71-7.5,9.57-13.77-1.39-7.67-5.52-12.28-8.65-17-3.53-4.92-8.3-12-9.83-15.45,0,0-4.84,7.36-11.13,16-4.21,5.8-7.58,12.07-7.89,17.47-.36,6.17,2.17,11.71,9.19,12.66Z"/><path class="cls-2" d="M35.88,226.8c5.71.38,8.69-4.5,9.28-8.35.34-.61.53-.43.66,0,.29,4.94,4.71,9,8.8,8.42,6.66-.09,10.71-7.5,9.57-13.77-1.39-7.67-5.52-12.28-8.64-17-3.54-4.92-8.3-12-9.84-15.45,0,0-4.83,7.36-11.13,16-4.21,5.8-7.58,12.07-7.89,17.47-.36,6.17,2.17,11.71,9.19,12.66Z"/><path class="cls-2" d="M35.88,174.72c5.71.38,8.69-4.5,9.28-8.35.34-.61.53-.44.66,0,.29,4.94,4.71,9,8.8,8.43,6.66-.09,10.71-7.5,9.57-13.78-1.39-7.66-5.52-12.28-8.64-17-3.54-4.92-8.3-12-9.84-15.45,0,0-4.83,7.36-11.13,16-4.21,5.79-7.58,12.06-7.89,17.47-.36,6.17,2.17,11.7,9.19,12.66Z"/><path class="cls-2" d="M157.92,199.35c-1.27,2.78-1.41,7.52,2.37,8.17,2.85.36,4-1,4.25-3,.11-.59.44-.63.55,0a3.36,3.36,0,0,0,3.84,3c4.42-.76,4.17-5.62,2.72-8.93-2.18-4.38-4.48-7.15-6.59-11.56-2.43,4.6-5.21,8.33-7.14,12.27Z"/></g></g></g></svg>