<svg xmlns="http://www.w3.org/2000/svg" viewBox="0 0 178.58 249.45"><defs><style>.cls-1{fill:#fff;}.cls-2{fill:#d41216;}</style></defs><title>9D</title><g id="Слой_2" data-name="Слой 2"><g id="D"><g id="_9D" data-name="9D"><path class="cls-1" d="M8.5,0H170.08a8.48,8.48,0,0,1,8.5,8.5V241a8.48,8.48,0,0,1-8.5,8.5H8.5A8.48,8.48,0,0,1,0,241V8.5A8.48,8.48,0,0,1,8.5,0Z"/><path class="cls-2" d="M26.14,46.13c7.93-7.75,13.15-16.19,18.13-24.31,4.37,8.93,10.65,16.75,17.43,24.31A106.44,106.44,0,0,0,44.29,70.06c-5-8.63-10.29-16.45-18.15-23.93Z"/><path class="cls-2" d="M26.14,98.39c7.93-7.74,13.15-16.19,18.13-24.31C48.64,83,54.92,90.84,61.7,98.39a106.49,106.49,0,0,0-17.41,23.94c-5-8.64-10.29-16.46-18.15-23.94Z"/><path class="cls-2" d="M26.14,151.91c7.93-7.75,13.15-16.19,18.13-24.31,4.37,8.94,10.65,16.75,17.43,24.31a106.66,106.66,0,0,0-17.41,23.93c-5-8.63-10.29-16.45-18.15-23.93Z"/><path class="cls-2" d="M26.14,204c7.93-7.75,13.15-16.2,18.13-24.32,4.37,8.94,10.65,16.76,17.43,24.32a106.21,106.21,0,0,0-17.41,23.93c-5-8.64-10.29-16.46-18.15-23.93Z"/><path class="cls-2" d="M71.29,124.9c7.94-7.74,13.15-16.19,18.14-24.31,4.37,8.94,10.64,16.75,17.43,24.31a106.18,106.18,0,0,0-17.41,23.94c-5-8.64-10.29-16.46-18.16-23.94Z"/><path class="cls-2" d="M115.36,46.13c7.94-7.75,13.16-16.19,18.14-24.31,4.37,8.93,10.64,16.75,17.43,24.31a106.13,106.13,0,0,0-17.41,23.93c-5-8.63-10.29-16.45-18.16-23.93Z"/><path class="cls-2" d="M115.36,98.39c7.94-7.74,13.16-16.19,18.14-24.31,4.37,8.94,10.64,16.76,17.43,24.31a106.18,106.18,0,0,0-17.41,23.94c-5-8.64-10.29-16.46-18.16-23.94Z"/><path class="cls-2" d="M115.36,151.91c7.94-7.75,13.16-16.19,18.14-24.31,4.37,8.94,10.64,16.75,17.43,24.31a106.35,106.35,0,0,0-17.41,23.93c-5-8.63-10.29-16.45-18.16-23.93Z"/><path class="cls-2" d="M115.36,204c7.94-7.75,13.16-16.2,18.14-24.32,4.37,8.94,10.64,16.76,17.43,24.32a105.91,105.91,0,0,0-17.41,23.93c-5-8.64-10.29-16.46-18.16-23.93Z"/><path class="cls-2" d="M157.57,197.43a49,49,0,0,0,7.43-10,44.48,44.48,0,0,0,7.14,10,43.55,43.55,0,0,0-7.13,9.8,41.78,41.78,0,0,0-7.44-9.8Z"/><path class="cls-2" d="M6.52,48.74a48.71,48.71,0,0,0,7.43-10,44.48,44.48,0,0,0,7.14,10A43.24,43.24,0,0,0,14,58.54a41.78,41.78,0,0,0-7.44-9.8Z"/><path class="cls-2" d="M6.62,31.48,9,30.73a4.29,4.29,0,0,0,4.71,2.95c3.51-.27,4.67-4.12,4.94-7.52a7.08,7.08,0,0,1-5.17,2.07c-5.59-.3-7-4.68-7.07-9.28-.15-3.88,1.48-6.68,4.28-8a9.67,9.67,0,0,1,6.37.12c3.42,1.77,4.69,4.84,4.46,12.15,0,6-1.3,13-7.87,13.18a6.34,6.34,0,0,1-7.07-4.95Zm9.51-6.59a5.64,5.64,0,0,0,2.29-2.37,4.41,4.41,0,0,0,.44-2.94c-.3-4.36-2.63-6.84-6-6.35a4,4,0,0,0-3.5,3.24c-1.09,3.56.29,7.73,2.89,8.69a5.17,5.17,0,0,0,3.9-.27Z"/><path class="cls-2" d="M171.45,218l-2.42.75a4.32,4.32,0,0,0-4.72-2.95c-3.5.28-4.67,4.12-4.93,7.52a7.06,7.06,0,0,1,5.17-2.07c5.59.3,7,4.69,7.07,9.28.15,3.88-1.48,6.69-4.28,8a9.73,9.73,0,0,1-6.37-.11c-3.43-1.78-4.69-4.84-4.46-12.16,0-6,1.29-13,7.87-13.18a6.36,6.36,0,0,1,7.07,4.95Zm-9.51,6.6a5.71,5.71,0,0,0-2.3,2.36,4.47,4.47,0,0,0-.44,2.94c.31,4.36,2.64,6.84,6,6.35a4,4,0,0,0,3.51-3.24c1.09-3.56-.29-7.73-2.89-8.69a5.12,5.12,0,0,0-3.9.28Z"/></g></g></g></svg>