<svg xmlns="http://www.w3.org/2000/svg" viewBox="0 0 178.58 249.45"><defs><style>.cls-1{fill:#fff;}</style></defs><title>9S</title><g id="Слой_2" data-name="Слой 2"><g id="S"><g id="_9S" data-name="9S"><path class="cls-1" d="M8.5,0H170.08a8.48,8.48,0,0,1,8.5,8.5V241a8.48,8.48,0,0,1-8.5,8.5H8.5A8.48,8.48,0,0,1,0,241V8.5A8.48,8.48,0,0,1,8.5,0Z"/><path d="M6.62,31.48,9,30.73a4.29,4.29,0,0,0,4.71,2.95c3.51-.27,4.67-4.12,4.94-7.52a7.08,7.08,0,0,1-5.17,2.07c-5.59-.3-7-4.68-7.07-9.28-.15-3.88,1.48-6.68,4.28-8a9.67,9.67,0,0,1,6.37.12c3.42,1.77,4.69,4.84,4.46,12.15,0,6-1.3,13-7.87,13.18a6.34,6.34,0,0,1-7.07-4.95Zm9.51-6.59a5.64,5.64,0,0,0,2.29-2.37,4.41,4.41,0,0,0,.44-2.94c-.3-4.36-2.63-6.84-6-6.35a4,4,0,0,0-3.5,3.24c-1.09,3.56.29,7.73,2.89,8.69a5.17,5.17,0,0,0,3.9-.27Z"/><path d="M171.45,218l-2.42.75a4.32,4.32,0,0,0-4.72-2.95c-3.5.28-4.67,4.12-4.93,7.52a7.06,7.06,0,0,1,5.17-2.07c5.59.3,7,4.69,7.07,9.28.15,3.88-1.48,6.69-4.28,8a9.73,9.73,0,0,1-6.37-.11c-3.43-1.78-4.69-4.84-4.46-12.16,0-6,1.29-13,7.87-13.18a6.36,6.36,0,0,1,7.07,4.95Zm-9.51,6.6a5.71,5.71,0,0,0-2.3,2.36,4.47,4.47,0,0,0-.44,2.94c.31,4.36,2.64,6.84,6,6.35a4,4,0,0,0,3.51-3.24c1.09-3.56-.29-7.73-2.89-8.69a5.12,5.12,0,0,0-3.9.28Z"/><path d="M42.21,55.1c0-1.62-1.27-1.65-1.26-.47-.11,5.94-5.13,8.87-8.78,8.18-5.63-1.08-7.43-6.66-7.37-10C25,42.7,35.19,35.21,44.41,22.19c6.76,11.75,17.92,21,18.58,30.07.88,12.08-14.41,16.58-16.59,2.51-.14-1-1.31-1.45-1.22-.05.33,3.85-.14,5.46,4.21,15H38a33.44,33.44,0,0,0,4.2-14.59Z"/><path d="M131.43,55.1c0-1.62-1.27-1.65-1.25-.47-.11,5.94-5.13,8.87-8.79,8.18-5.62-1.08-7.42-6.66-7.37-10,.17-10.16,10.39-17.65,19.62-30.67,6.76,11.75,17.92,21,18.58,30.07.87,12.08-14.41,16.58-16.59,2.51-.14-1-1.31-1.45-1.22-.05.33,3.85-.14,5.46,4.21,15H127.24a33.42,33.42,0,0,0,4.19-14.59Z"/><path d="M131.43,107.36c0-1.62-1.27-1.65-1.25-.47-.11,6-5.13,8.88-8.79,8.18-5.62-1.07-7.42-6.66-7.37-9.95.17-10.15,10.39-17.64,19.62-30.67,6.76,11.76,17.92,21,18.58,30.07.87,12.08-14.41,16.58-16.59,2.51-.14-1-1.31-1.44-1.22,0,.33,3.86-.14,5.46,4.21,15H127.24a33.42,33.42,0,0,0,4.19-14.59Z"/><path d="M42.21,107.36c0-1.62-1.27-1.65-1.26-.47-.11,6-5.13,8.88-8.78,8.18-5.63-1.07-7.43-6.66-7.37-9.95C25,95,35.19,87.48,44.41,74.45c6.76,11.76,17.92,21,18.58,30.07C63.87,116.6,48.58,121.1,46.4,107c-.14-1-1.31-1.44-1.22,0,.33,3.86-.14,5.46,4.21,15H38a33.44,33.44,0,0,0,4.2-14.59Z"/><path d="M131.44,194.66c0,1.63-1.27,1.66-1.25.47-.11-5.94-5.14-8.86-8.79-8.17-5.63,1.07-7.42,6.66-7.37,9.95.16,10.16,10.39,17.65,19.62,30.66,6.76-11.75,17.92-21,18.58-30.06.87-12.08-14.41-16.59-16.59-2.51-.14,1-1.32,1.44-1.23.05.34-3.85-.13-5.46,4.22-15H127.25a33.42,33.42,0,0,1,4.19,14.58Z"/><path d="M131.44,142.58c0,1.62-1.27,1.65-1.25.47-.11-5.94-5.14-8.87-8.79-8.17-5.63,1.07-7.42,6.65-7.37,9.94.16,10.16,10.39,17.65,19.62,30.67,6.76-11.75,17.92-21,18.58-30.07.87-12.08-14.41-16.58-16.59-2.5-.14,1-1.32,1.43-1.23.05.34-3.86-.13-5.47,4.22-15H127.25a33.46,33.46,0,0,1,4.19,14.59Z"/><path d="M87.37,115.57c0,1.63-1.27,1.66-1.25.47-.11-5.94-5.14-8.87-8.79-8.17-5.63,1.07-7.42,6.65-7.37,9.95.16,10.15,10.39,17.64,19.62,30.66,6.76-11.75,17.92-21,18.58-30.07.87-12.07-14.41-16.58-16.59-2.5-.14,1-1.32,1.44-1.23,0,.34-3.86-.14-5.46,4.22-15H83.18a33.46,33.46,0,0,1,4.19,14.59Z"/><path d="M42.21,142.58c0,1.62-1.26,1.65-1.25.47-.1-5.94-5.13-8.87-8.79-8.17-5.62,1.07-7.42,6.65-7.37,9.94C25,155,35.19,162.47,44.42,175.49c6.76-11.75,17.92-21,18.58-30.07.88-12.08-14.41-16.58-16.59-2.5-.14,1-1.31,1.43-1.22.05.33-3.86-.14-5.47,4.21-15H38a33.46,33.46,0,0,1,4.19,14.59Z"/><path d="M42.21,194.66c0,1.63-1.26,1.66-1.25.47-.1-5.94-5.13-8.86-8.79-8.17-5.62,1.07-7.42,6.66-7.37,9.95.17,10.16,10.39,17.65,19.62,30.66,6.76-11.75,17.92-21,18.58-30.06.88-12.08-14.41-16.59-16.59-2.51-.14,1-1.31,1.44-1.22.05.33-3.85-.14-5.46,4.21-15H38a33.42,33.42,0,0,1,4.19,14.58Z"/><path d="M13.46,53.91c0-.7-.71-.38-.81-.16A2.73,2.73,0,0,1,9,55.14a3.35,3.35,0,0,1-2-3.62c.24-2.75,2.42-5.76,3.48-7.46a55.81,55.81,0,0,0,3.26-5.72c1.36,2.69,2.05,3.45,3.53,5.91,1.3,2.16,3.11,4.29,3.25,6.9,0,2-.84,3.87-2.72,4.21a2.7,2.7,0,0,1-2.8-1.63c-.23-.33-.68-.16-.67.29a8.4,8.4,0,0,0,2.26,5H11.13a8,8,0,0,0,2.33-5.07Z"/><path d="M164.52,192.1c0,.7-.72.38-.82.15a2.74,2.74,0,0,0-3.64-1.38,3.38,3.38,0,0,0-2,3.62c.25,2.75,2.43,5.76,3.48,7.46a55.81,55.81,0,0,1,3.26,5.72c1.36-2.69,2-3.46,3.53-5.91,1.3-2.17,3.11-4.28,3.25-6.9,0-2-.84-3.86-2.72-4.21a2.7,2.7,0,0,0-2.8,1.63c-.22.33-.68.16-.67-.29a8.43,8.43,0,0,1,2.26-5h-5.51a8.11,8.11,0,0,1,2.34,5.08Z"/></g></g></g></svg>