<svg xmlns="http://www.w3.org/2000/svg" viewBox="0 0 178.58 249.45"><defs><style>.cls-1{fill:#fff;}</style></defs><title>9C</title><g id="Слой_2" data-name="Слой 2"><g id="C"><g id="_9C" data-name="9C"><path class="cls-1" d="M8.5,0H170.08a8.48,8.48,0,0,1,8.5,8.5V241a8.48,8.48,0,0,1-8.5,8.5H8.5A8.48,8.48,0,0,1,0,241V8.5A8.48,8.48,0,0,1,8.5,0Z"/><path d="M6.58,31.48,9,30.73a4.29,4.29,0,0,0,4.71,2.95c3.51-.27,4.67-4.12,4.94-7.52a7.06,7.06,0,0,1-5.17,2.07c-5.59-.3-7-4.68-7.07-9.28-.15-3.88,1.48-6.68,4.28-8a9.67,9.67,0,0,1,6.37.12c3.42,1.77,4.69,4.84,4.46,12.15,0,6-1.3,13-7.87,13.18a6.34,6.34,0,0,1-7.07-4.95Zm9.51-6.59a5.64,5.64,0,0,0,2.29-2.37,4.35,4.35,0,0,0,.44-2.94c-.3-4.36-2.63-6.84-6-6.35a4,4,0,0,0-3.5,3.24c-1.09,3.56.29,7.73,2.89,8.69a5.17,5.17,0,0,0,3.9-.27Z"/><path d="M171.41,218l-2.42.75a4.31,4.31,0,0,0-4.72-2.95c-3.5.28-4.66,4.12-4.93,7.52a7.06,7.06,0,0,1,5.17-2.07c5.58.3,7,4.69,7.07,9.28.15,3.88-1.48,6.69-4.28,8a9.73,9.73,0,0,1-6.37-.11c-3.43-1.78-4.69-4.84-4.46-12.16,0-6,1.3-13,7.87-13.18a6.36,6.36,0,0,1,7.07,4.95Zm-9.51,6.6a5.62,5.62,0,0,0-2.29,2.36,4.34,4.34,0,0,0-.45,2.94c.31,4.36,2.64,6.84,6,6.35a4,4,0,0,0,3.51-3.24c1.09-3.56-.3-7.73-2.89-8.69a5.12,5.12,0,0,0-3.9.28Z"/><path d="M124,121.06a37.12,37.12,0,0,0,4.27-14.43c.28-1.86-.85-1.9-1-.58-3.26,12.47-20.61,9.09-20-2.64A9.83,9.83,0,0,1,122.12,95c1.95,1.14,1.84.46.78-.73-7.32-8.17-2.89-18.69,7-18.88,10.7.63,13.48,11.89,6.91,18.52-.81.79-2.62,3.35.1,1.56,6.63-4.71,15.83.36,15.65,7.62-.35,13.39-16.68,14.39-20.17,3.2-.33-1.24-1.3-1.86-1,.25.48,3.81,1.48,9.56,4.34,14.56Z"/><path d="M83.37,142.78a37.3,37.3,0,0,0,4.28-14.43c.27-1.86-.86-1.89-1-.58-3.27,12.47-20.61,9.1-20-2.64a9.83,9.83,0,0,1,14.86-8.45c2,1.15,1.84.46.78-.73-7.33-8.17-2.89-18.69,7-18.88,10.71.63,13.48,11.89,6.92,18.52-.82.79-2.63,3.35.1,1.56,6.63-4.71,15.83.36,15.64,7.62-.35,13.39-16.67,14.39-20.16,3.2-.34-1.24-1.3-1.86-1,.25.49,3.81,1.49,9.56,4.35,14.56Z"/><path d="M42.8,121.06a37.3,37.3,0,0,0,4.28-14.43c.27-1.86-.86-1.9-1-.58-3.26,12.47-20.61,9.09-20-2.64A9.83,9.83,0,0,1,40.9,95c2,1.14,1.84.46.77-.73-7.32-8.17-2.88-18.69,7-18.88C59.39,76,62.16,87.24,55.6,93.87c-.82.79-2.63,3.35.09,1.56,6.64-4.71,15.84.36,15.65,7.62-.35,13.39-16.67,14.39-20.16,3.2-.34-1.24-1.31-1.86-1,.25.48,3.81,1.48,9.56,4.35,14.56Z"/><path d="M124,68.8a37.17,37.17,0,0,0,4.27-14.43c.28-1.87-.85-1.9-1-.59-3.26,12.48-20.61,9.1-20-2.63a9.83,9.83,0,0,1,14.86-8.46c1.95,1.15,1.84.46.78-.72-7.32-8.17-2.89-18.69,7-18.89,10.7.64,13.48,11.9,6.91,18.52-.81.8-2.62,3.35.1,1.57,6.63-4.71,15.83.35,15.65,7.62-.35,13.39-16.68,14.38-20.17,3.2-.33-1.24-1.3-1.86-1,.24.48,3.81,1.48,9.56,4.34,14.57Z"/><path d="M42.8,68.8a37.35,37.35,0,0,0,4.28-14.43c.27-1.87-.86-1.9-1-.59-3.26,12.48-20.61,9.1-20-2.63A9.84,9.84,0,0,1,40.9,42.69c2,1.15,1.84.46.77-.72-7.32-8.17-2.88-18.69,7-18.89C59.39,23.72,62.16,35,55.6,41.6c-.82.8-2.63,3.35.09,1.57,6.64-4.71,15.84.35,15.65,7.62C71,64.18,54.67,65.17,51.18,54c-.34-1.24-1.31-1.86-1,.24.48,3.81,1.48,9.56,4.35,14.57Z"/><path d="M54.56,181a37.3,37.3,0,0,0-4.28,14.43c-.27,1.87.86,1.9,1,.58,3.26-12.47,20.61-9.09,20,2.64a9.83,9.83,0,0,1-14.87,8.45c-2-1.14-1.84-.46-.77.73,7.32,8.17,2.88,18.69-7,18.88C38,226,35.19,214.77,41.76,208.15c.82-.8,2.63-3.36-.1-1.57C35,211.29,25.84,206.22,26,199c.35-13.39,16.67-14.39,20.16-3.2.34,1.24,1.31,1.86,1-.24-.48-3.82-1.49-9.57-4.35-14.57Z"/><path d="M135.79,181a37.13,37.13,0,0,0-4.28,14.43c-.28,1.87.86,1.9,1,.58,3.26-12.47,20.61-9.09,20,2.64a9.83,9.83,0,0,1-14.86,8.45c-1.95-1.14-1.84-.46-.78.73,7.33,8.17,2.89,18.69-7,18.88-10.7-.63-13.48-11.89-6.91-18.51.81-.8,2.63-3.36-.1-1.57-6.63,4.71-15.83-.36-15.64-7.62.34-13.39,16.67-14.39,20.16-3.2.34,1.24,1.3,1.86,1-.24C128,191.7,127,186,124.1,181Z"/><path d="M135.79,128.86a37.18,37.18,0,0,0-4.28,14.43c-.28,1.87.86,1.9,1,.59,3.26-12.48,20.61-9.1,20,2.64A9.83,9.83,0,0,1,137.69,155c-1.95-1.15-1.84-.46-.78.72,7.33,8.17,2.89,18.7-7,18.89-10.7-.64-13.48-11.9-6.91-18.52.81-.8,2.63-3.35-.1-1.56-6.63,4.7-15.83-.36-15.64-7.62.34-13.39,16.67-14.39,20.16-3.21.34,1.24,1.3,1.87,1-.24-.48-3.81-1.48-9.56-4.34-14.57Z"/><path d="M54.56,128.86a37.35,37.35,0,0,0-4.28,14.43c-.27,1.87.86,1.9,1,.59,3.26-12.48,20.61-9.1,20,2.64A9.83,9.83,0,0,1,56.46,155c-2-1.15-1.84-.46-.77.72,7.32,8.17,2.88,18.7-7,18.89-10.71-.64-13.49-11.9-6.92-18.52.82-.8,2.63-3.35-.1-1.56-6.63,4.7-15.82-.36-15.64-7.62.35-13.39,16.67-14.39,20.16-3.21.34,1.24,1.31,1.87,1-.24-.48-3.81-1.49-9.56-4.35-14.57Z"/><path d="M10.53,58.2a27.67,27.67,0,0,0,2.38-5.92c.34-2-.34-1.27-.74.06A3.79,3.79,0,0,1,8.51,55c-2.69,0-4-2.08-4-4.36-.29-2.4,2.14-4.1,4-4a6.29,6.29,0,0,1,3.31,1.43c.47.25,1,.36.27-.29-1.34-1.47-2.46-2.38-2.43-4.57a4.19,4.19,0,1,1,8.37.24,4.76,4.76,0,0,1-1.93,3.76c-.76.61-.55,1.07.31.49a4.42,4.42,0,0,1,2.84-1c2.79,0,3.88,2.37,3.72,4.61s-1.93,4.27-4.29,4c-2.1-.24-3.21-2-3.85-3.82-.2-.55-.54-.71-.53.12a17.31,17.31,0,0,0,2,6.56Z"/><path d="M168.05,189.94a28.67,28.67,0,0,0-2.39,5.92c-.33,2,.36,1.27.75-.05a3.8,3.8,0,0,1,3.66-2.7c2.7,0,4,2.09,4,4.37.29,2.4-2.14,4.09-4,4a6.29,6.29,0,0,1-3.31-1.42c-.48-.25-1-.36-.27.29,1.34,1.46,2.46,2.37,2.43,4.57a4.18,4.18,0,1,1-8.36-.24,4.72,4.72,0,0,1,1.92-3.76c.76-.61.55-1.08-.31-.49a4.41,4.41,0,0,1-2.84,1c-2.79,0-3.88-2.37-3.72-4.61s1.94-4.26,4.29-4c2.11.24,3.21,2,3.84,3.82.22.55.55.7.53-.13a17.6,17.6,0,0,0-2-6.56Z"/></g></g></g></svg>