<svg xmlns="http://www.w3.org/2000/svg" viewBox="0 0 178.58 249.45"><defs><style>.cls-1{fill:#fff;}</style></defs><title>AC</title><g id="Слой_2" data-name="Слой 2"><g id="C"><g id="AC"><path class="cls-1" d="M8.5,0H170.08a8.48,8.48,0,0,1,8.5,8.5V241a8.48,8.48,0,0,1-8.5,8.5H8.5A8.48,8.48,0,0,1,0,241V8.5A8.48,8.48,0,0,1,8.5,0Z"/><path d="M5.78,36.85V34.66H7.91l4.54-23.41H15l5,23.41h1.72v2.19H15.88V34.66h1.58l-.62-3.59H10.92l-.45,3.59h1.58v2.19Zm10.55-8.33L13.76,16,11.35,28.52Z"/><path d="M172.79,212.6v2.19h-2.13l-4.53,23.41h-2.58l-5-23.41h-1.72V212.6h5.86v2.19h-1.59l.64,3.59h5.9l.46-3.59h-1.58V212.6Zm-10.54,8.33,2.57,12.54,2.4-12.54Z"/><path d="M83.41,147.58a37.3,37.3,0,0,0,4.28-14.43c.27-1.86-.86-1.89-1-.58-3.27,12.47-20.61,9.1-20-2.64a9.83,9.83,0,0,1,14.87-8.45c1.95,1.15,1.84.46.78-.73-7.33-8.17-2.9-18.69,7-18.88,10.71.63,13.48,11.9,6.92,18.52-.82.79-2.63,3.35.09,1.56,6.64-4.71,15.84.36,15.65,7.62C111.6,143,95.28,144,91.78,132.77c-.33-1.23-1.3-1.86-1,.25.48,3.81,1.48,9.56,4.35,14.56Z"/><path d="M10.32,60.15a27.6,27.6,0,0,0,2.39-5.92c.34-2-.35-1.27-.74.05A3.81,3.81,0,0,1,8.31,57c-2.7,0-4-2.09-4-4.37-.3-2.39,2.14-4.09,4-4a6.29,6.29,0,0,1,3.31,1.42c.47.25,1,.36.27-.29-1.34-1.47-2.46-2.37-2.44-4.57a4.19,4.19,0,1,1,8.37.24,4.73,4.73,0,0,1-1.93,3.76c-.75.61-.54,1.08.32.49a4.41,4.41,0,0,1,2.84-1c2.79,0,3.88,2.36,3.72,4.61-.15,2.1-1.94,4.26-4.29,4-2.11-.25-3.21-2-3.85-3.82-.21-.56-.54-.71-.53.12a18,18,0,0,0,2,6.56Z"/><path d="M167.5,189.61a28.53,28.53,0,0,0-2.39,5.93c-.33,2,.35,1.26.74-.06a3.81,3.81,0,0,1,3.67-2.69c2.69,0,4,2.08,4,4.36.29,2.4-2.14,4.09-4,4a6.21,6.21,0,0,1-3.31-1.42c-.48-.25-1-.36-.27.29,1.33,1.46,2.46,2.37,2.43,4.57a4.18,4.18,0,1,1-8.36-.24,4.72,4.72,0,0,1,1.92-3.76c.76-.61.55-1.07-.31-.5a4.36,4.36,0,0,1-2.84,1c-2.79.05-3.88-2.37-3.72-4.61s1.93-4.26,4.29-4c2.1.24,3.21,2,3.84,3.82.21.55.55.7.53-.12a17.61,17.61,0,0,0-2-6.57Z"/></g></g></g></svg>