<svg xmlns="http://www.w3.org/2000/svg" viewBox="0 0 178.58 249.45"><defs><style>.cls-1{fill:#fff;}.cls-2{fill:#d41216;}</style></defs><title>AD</title><g id="Слой_2" data-name="Слой 2"><g id="D"><g id="AD"><path class="cls-1" d="M8.5,0H170.08a8.48,8.48,0,0,1,8.5,8.5V241a8.48,8.48,0,0,1-8.5,8.5H8.5A8.48,8.48,0,0,1,0,241V8.5A8.48,8.48,0,0,1,8.5,0Z"/><path class="cls-2" d="M71.39,124.83c7.94-7.74,13.15-16.19,18.14-24.31,4.37,8.94,10.64,16.75,17.43,24.31a106,106,0,0,0-17.41,23.94c-5-8.64-10.3-16.46-18.16-23.94Z"/><path class="cls-2" d="M157,199.23a48.44,48.44,0,0,0,7.43-10,44.25,44.25,0,0,0,7.14,10,43.6,43.6,0,0,0-7.13,9.81,41.82,41.82,0,0,0-7.44-9.81Z"/><path class="cls-2" d="M6.28,50.68a48.81,48.81,0,0,0,7.43-10,44.25,44.25,0,0,0,7.14,10,43.65,43.65,0,0,0-7.14,9.81,41.71,41.71,0,0,0-7.43-9.81Z"/><path class="cls-2" d="M5.78,36.85V34.66H7.91l4.54-23.41H15l5,23.41h1.72v2.19H15.88V34.66h1.58l-.62-3.59H10.92l-.45,3.59h1.58v2.19Zm10.55-8.33L13.76,16,11.35,28.52Z"/><path class="cls-2" d="M172.79,212.6v2.19h-2.13l-4.53,23.41h-2.58l-5-23.41h-1.72V212.6h5.86v2.19h-1.59l.64,3.59h5.9l.46-3.59h-1.58V212.6Zm-10.54,8.33,2.57,12.54,2.4-12.54Z"/></g></g></g></svg>