<svg xmlns="http://www.w3.org/2000/svg" viewBox="0 0 178.58 249.45"><defs><style>.cls-1{fill:#fff;}</style></defs><title>AS</title><g id="Слой_2" data-name="Слой 2"><g id="S"><g id="AS"><path class="cls-1" d="M8.5,0H170.08a8.48,8.48,0,0,1,8.5,8.5V241a8.48,8.48,0,0,1-8.5,8.5H8.5A8.48,8.48,0,0,1,0,241V8.5A8.48,8.48,0,0,1,8.5,0Z"/><path d="M5.78,36.85V34.66H7.91l4.54-23.41H15l5,23.41h1.72v2.19H15.88V34.66h1.58l-.62-3.59H10.92l-.45,3.59h1.58v2.19Zm10.55-8.33L13.76,16,11.35,28.52Z"/><path d="M172.79,212.6v2.19h-2.13l-4.53,23.41h-2.58l-5-23.41h-1.72V212.6h5.86v2.19h-1.59l.64,3.59h5.9l.46-3.59h-1.58V212.6Zm-10.54,8.33,2.57,12.54,2.4-12.54Z"/><path d="M88.26,133.8c0-1.62-1.27-1.65-1.26-.46-.1,5.94-5.13,8.86-8.78,8.17-5.63-1.07-7.43-6.66-7.37-9.95.16-10.16,10.39-17.65,19.61-30.67,6.76,11.76,17.92,21,18.58,30.07.88,12.08-14.4,16.59-16.59,2.51-.14-1-1.31-1.44-1.22-.05.33,3.85-.14,5.46,4.21,15H84.07a33.42,33.42,0,0,0,4.19-14.59Z"/><path d="M14,55.85c0-.7-.72-.37-.82-.15a2.71,2.71,0,0,1-3.63,1.38,3.35,3.35,0,0,1-2-3.61C7.85,50.71,10,47.71,11.09,46a54.74,54.74,0,0,0,3.26-5.72c1.35,2.69,2,3.46,3.52,5.92,1.3,2.16,3.11,4.28,3.26,6.89,0,2-.84,3.87-2.72,4.21a2.7,2.7,0,0,1-2.81-1.63c-.22-.33-.68-.15-.67.29a8.45,8.45,0,0,0,2.26,5H11.68A8.09,8.09,0,0,0,14,55.85Z"/><path d="M164.72,193.91c0,.69-.72.37-.81.15a2.72,2.72,0,0,0-3.64-1.38,3.36,3.36,0,0,0-2,3.61c.25,2.75,2.43,5.76,3.49,7.46a56.08,56.08,0,0,1,3.26,5.73c1.36-2.69,2-3.46,3.52-5.91,1.31-2.17,3.12-4.28,3.26-6.9,0-2-.84-3.87-2.72-4.21a2.7,2.7,0,0,0-2.81,1.63c-.22.32-.67.16-.66-.29a8.37,8.37,0,0,1,2.26-5h-5.51a8.06,8.06,0,0,1,2.33,5.08Z"/></g></g></g></svg>