<svg xmlns="http://www.w3.org/2000/svg" viewBox="0 0 178.58 249.45"><defs><style>.cls-1{fill:#fff;}.cls-2{fill:#d41216;}</style></defs><title>AH</title><g id="Слой_2" data-name="Слой 2"><g id="H"><g id="AH"><path class="cls-1" d="M8.5,0H170.08a8.48,8.48,0,0,1,8.5,8.5V241a8.48,8.48,0,0,1-8.5,8.5H8.5A8.48,8.48,0,0,1,0,241V8.5A8.48,8.48,0,0,1,8.5,0Z"/><path class="cls-2" d="M5.78,36.85V34.66H7.91l4.54-23.41H15l5,23.41h1.72v2.19H15.88V34.66h1.58l-.62-3.59H10.92l-.45,3.59h1.58v2.19Zm10.55-8.33L13.76,16,11.35,28.52Z"/><path class="cls-2" d="M172.79,212.6v2.19h-2.13l-4.53,23.41h-2.58l-5-23.41h-1.72V212.6h5.86v2.19h-1.59l.64,3.59h5.9l.46-3.59h-1.58V212.6Zm-10.54,8.33,2.57,12.54,2.4-12.54Z"/><path class="cls-2" d="M6.63,48.6C5.35,45.83,5.22,41.08,9,40.44c2.85-.37,4,1,4.24,3,.11.6.45.63.56,0a3.36,3.36,0,0,1,3.84-3c4.42.75,4.16,5.62,2.72,8.92-2.19,4.39-4.48,7.15-6.6,11.56-2.43-4.59-5.2-8.32-7.13-12.27Z"/><path class="cls-2" d="M79.65,101.73c5.72-.38,8.69,4.5,9.27,8.35.35.61.54.44.68,0,.27-4.94,4.7-9,8.79-8.42,6.66.09,10.71,7.5,9.57,13.77-1.39,7.67-5.51,12.29-8.64,17-3.54,4.92-8.3,12-9.84,15.45,0,0-4.84-7.36-11.13-16-4.21-5.79-7.58-12.07-7.89-17.47-.36-6.17,2.17-11.7,9.19-12.66Z"/><path class="cls-2" d="M157.33,201.16c-1.27,2.77-1.41,7.52,2.37,8.16,2.85.37,4-1,4.25-3,.11-.6.44-.63.55,0a3.37,3.37,0,0,0,3.84,3c4.43-.76,4.17-5.63,2.72-8.93-2.18-4.38-4.48-7.15-6.59-11.56-2.43,4.59-5.21,8.32-7.14,12.27Z"/></g></g></g></svg>