<svg width="46" height="46" viewBox="0 0 46 46" fill="none" xmlns="http://www.w3.org/2000/svg">
<path d="M16.7457 45.72C19.138 41.2514 20.5911 36.3408 21.0157 31.29C21.2957 29.42 20.1657 29.39 20.0157 30.7C16.7557 43.18 -0.594301 39.8 0.0156993 28.06C0.0125079 26.3209 0.471207 24.6122 1.3449 23.1085C2.21859 21.6049 3.47592 20.3602 4.98836 19.5017C6.5008 18.6433 8.21407 18.2019 9.95302 18.2227C11.692 18.2435 13.3942 18.7257 14.8857 19.62C16.8257 20.76 16.7157 20.07 15.6557 18.88C8.3357 10.72 12.7657 0.2 22.6557 0C33.3557 0.64 36.1357 11.9 29.5657 18.52C28.7557 19.32 26.9457 21.87 29.6657 20.09C36.2957 15.38 45.4957 20.44 45.3157 27.7C44.9357 41.1 28.6057 42.09 25.1257 30.91C24.7957 29.67 23.8257 29.05 24.1257 31.15C24.6057 34.96 25.6057 40.71 28.4657 45.72H16.7457Z" fill="black"/>
</svg>
