<svg xmlns="http://www.w3.org/2000/svg" viewBox="0 0 178.58 249.45"><defs><style>.cls-1{fill:#fff;}.cls-2{fill:#e1cf01;}.cls-3{fill:#262e5e;}.cls-4{fill:#d41216;}</style></defs><title>JC</title><g id="Слой_2" data-name="Слой 2"><g id="C"><g id="JC"><path class="cls-1" d="M8.5,0H170.08a8.48,8.48,0,0,1,8.5,8.5V241a8.48,8.48,0,0,1-8.5,8.5H8.5A8.48,8.48,0,0,1,0,241V8.5A8.48,8.48,0,0,1,8.5,0Z"/><path class="cls-2" d="M50.05,223.28c-.67.95-3.57-5.71-5.42-10.76C43.71,210,42.49,208,43,207.34c1.33-1.34,4.76-.14,7.25,1.77a22.26,22.26,0,0,1,4.55,5Zm-23.38-4.94-.07-3.72a98.26,98.26,0,0,0,8.9-8.9l-8.65.06-.68-3.24-.1-141.27s9.5,9.82,9.74,9.82.1,58.66.07,97.88c.08.19-5,.07-5.34,2.64-.22,1.69,5.51,1.46,5.6,1.57,0,17.63-.25,30.29-.13,30.29a40.54,40.54,0,0,1,5.26.17c-4.9,5.07-10,9.22-14.6,14.7ZM57.6,200.19c-.76-1.52-2-7.37-2.91-7.23-4.28,1.42-5.66-4.89-1.23-5.22,1.67-.12,3.55,2.06,4.6,4.78.5,1.42,0,8.24-.46,7.67Zm1-8.78c-1.27-2.06-2.47-9.58-4.77-9.15a2.65,2.65,0,0,1-3.24-3c1.07-4.52,8.77-.23,10.79.81a51.27,51.27,0,0,0-2.78,11.31ZM42.43,170.78c-.55-.23.86-2.49.87-5.11,0-3-1.34-6.24-1.18-6.71,5-4,11.89-8.2,13.13-5.94a58.44,58.44,0,0,1-.82,22.14l-1,.5a11.94,11.94,0,0,1-2.77-.91l-6.2-3.12Zm81-72.6c-.93-7.4-.25-18.93,1.07-23.49.51-1.54,10.1,4.84,10.87,5.31s1.06.38.63,2.33a17.83,17.83,0,0,0,.28,7.92c.27,1.12.47,1.56-.23,2s-12.37,6.63-12.62,5.88Zm-4.55-30.74c.2-.48,1-6,1.24-6,.8-.07,2,5.44,4,7.25,3.87-.44,4.32,2.17,3.56,3.44.19.55-1.24,1.76-2.59,1.65-3.33-1.3-7.83-2.46-6.24-6.29ZM67.14,62.92c-1.09-.77,1-6.29,6.87-5,2.54-4.77,2.67-15.53,3.9-16.2C79.75,41,98.55,35.81,98,40.35c-.6,4.88-1.57,28.39-8.64,34.17-.71.84,11.2,8.89,11.2,8.89s12.56-7.81,11.84-7.69c-.31.08-.56,6.64-.74,17.26-.18,10.25,1.32,17.59,4.45,28.43-.4,1.31,2.39,7.87,5.5,14.37a160,160,0,0,0,8.32,14.81c-8.22-2.77-15.77-1.69-25-4.85l-.45,36.43s4.77,2.49,5.69,3.63a3.65,3.65,0,0,1,.55,2c.2,2.75-2.13,6-6.55,5-1.39,4.85-3.38,16.26-3.45,16.25-6.76.92-13.61,1.89-20.45,1.52a51.51,51.51,0,0,0,1.42-9.17c.14-2,.24-4.17.48-6.47.86-8.46,3.36-17.72,7.38-18.31-.79.32-10.21-7.8-11.49-8.38-5.3,2.76-12.26,7.39-12.26,7.39a120.11,120.11,0,0,0,1-13.74c0-7.54-.49-15.87-.73-18-1.82-12.42-6.9-23.73-11-32.19-1.65-3.4-4.11-8.84-4.11-8.84,6-.69,12.89-.36,23.58,2.83,0,0-.6-36.77-.61-36.57s-2.74-1.17-5.35-2.82c-1.39-.88-1.25-3.24-1.39-3.34Zm53.34-8.24c0-.38.21-4.53.21-4.53,1.67,2,3,7.71,3.36,7.61,0,0,2.14-.33,2.81.38,2.18,2.31,0,5-2.14,4.54s-4.55-4.26-4.24-8Zm22.21,124.66s-.56-64.89-.55-97.57c2.33-.38,4.74,1.17,6.92-2.15-1.15-2.39-4.45-1.66-6.92-2.14l0-30.14S138,47.27,138,47s2.14-2.26,6.17-6.48c.49-.5,1.31-1.39,1.84-2,2-2.23,5.27-5.92,5.42-5.77,1.27,1.07,1.14,2.83-4.76,8.3-4.3,4-4.46,3.72.29,3.66,4.54-.08,5.11-.46,4.48,1.17,0,.66.53,1.19.4,1.29s0,141.76,0,141.76ZM128.84,28.21a7,7,0,0,1,1.27,1c2.61,4.28,4,9.71,6,13.44-4.25,1.9-10.15-2.3-11.57-6-1.73-4.61,3.33-11,4.28-8.48Z"/><path class="cls-3" d="M25,22.2l.16,205.69,128.65.19L153.2,22Zm42.6,43.25c.17.33.45.8.45.8a2.24,2.24,0,0,0-.52.23c-14.89,5.5-31,17.77-31.27,18.13L36.5,71l-10-10.37,0-36.8H65.27l11.35,19c-.68,5-2.45,14.6-2.45,14.6-1-.25-4.56-.58-6.46,2.14-.9,1.3-1.39,3.07-.16,5.87Zm72.57,42.34,1.47-1.86-2.59.12,1.78-1.93-2.87-.07,2.24-1.9-3,0,2.24-1.87-3.3.15,2.37-2h-3.27l2.44-2-3.2,0,2.08-1.83-2.79,0,3.15-2.21a13.7,13.7,0,0,0,5,1l0,14.9ZM142.39,82c7.37,0,8.94-3.91,0-4.54,0,0-.7-19.54-.5-27.63,0-1,.09-2.1.09-2.1l-4.85-.12s13-14,14.24-15.18c1.11,47.19,1.06,156.78,1.06,156.78l-9.94-9.94-.11-31c-3.33-3.37-5.24-8.29-7.22-11.47l-5.43-2.64,1.27-4.37-.54-1.24-1.7,6.18,5.95,2.83.63,1.27-1,5.82,5.62,1.94,1,1.33-.35,5.69,1.16.36v1.12l-1.17-.1-.42,6.39,1.59.46v1.45s-.93,0-1.38,0a8.51,8.51,0,0,1-1.66-1.68l.56-7.09L132.19,153l-.53-.75,1.31-7.09-7.49-2.29c.77,1.89,1.78,3.66,2.63,5.52-1,.3-2.1.37-3.14.59-.28,9.57,0,19.53-.26,28.54-6,.43-3.19-.14-5.82-.1a1.86,1.86,0,0,0-1,3.42l-1,.37L115,179.16l3.8-3.64,0-1-4.71,4.71,2,2.36-1.21.63-1.87-2s-4,4.11-3.75,4.18a1.5,1.5,0,0,1,.49.45c2.86,6.17-1,9.11-5.74,7.41-1.2,5.66-2.34,10.78-3.28,16.65-3.52,1.33-20.06,2.1-20.24,1.79,0,0-.42-.4-.44-.6s-.48.55-.48.55c0,.35-14.41-.36-21.53-1.71a6.63,6.63,0,0,1-.08-1.59c.11-1.8,0-1.78,1.62-1.52,3.35.22,5.95-.92,7-3.87.57-1.66.3-3.15-.58-7.57s-.87-3.83-.77-4.41a4.91,4.91,0,0,1,1.91-2.3c.8-.65.88-1.87.24-1.19a4.61,4.61,0,0,1-1.91,1.23c-1.63.86-1.58,1.68-.62,5.21.46,1.65.93,3.44.94,3.64.05.65-.18.38-1.15-.28a21.9,21.9,0,0,0-2-1.21c-2-1-1.09.1.79,1.35,1.48,1.1,1.72,1.57.45,1a7,7,0,0,0-4.68.26c-.29.16-.5.14-.55-.13s.19-1.44.3-3.84c.27-6.06,1.7-12.52,5.73-16.25,5.77-5.34,15.25-1.72,20.51,3.23l.57-.86c-3.53-3-9.65-6.67-15.61-6,2.49-2.08,8-5.52,8-5.52,3.77,2.73,6.55,5.46,10.69,8.42l.72-.47-11.39-9L66,175.41s.51-7.76.7-10.6l-5.32,4.71,4.1,6.07-4.35,4.48s.74-.1-.06,1.27c-1.23,2.49-2,6.49-2.54,10.55.11,3-.63,6.4-.86,9.07a23.84,23.84,0,0,0-1.81-6.09c-.85-2.19-1.18-2.17-2.14-1.86-5.21.44-2.85-9.6,3.3-3,.27.28.71.62.73.55a34.52,34.52,0,0,0-2.31-6.91c-.72-1.28-.73-1.47-1.79-1.36-2,.21-2.68-.5-2.89-2.61.27-4,4.58-2.3,7.34-1.08.25.2-1.3-1.4-1.85-2a3.24,3.24,0,0,1-.87-1.26l.16-2.11,4.22-3.85-3.47-5.13.15-1.83L60.1,158l-4-4.29,0-1.53,3.21-4.27L55,144.44l-.21-1.38s2.77-5.11,2.69-5.3-4.66-3.33-4.66-3.33l-.46-2.15,2-5.46-4.79-2.73-.87-2.46L50,116.57l-5-2.29-1.41-2.85.92-5.32L39,104.47l-1.48-2.34.2-4.67-1.37-.14,0-1.16,1.52,0a8.61,8.61,0,0,1,0-2.48c.28-3.93.31-3.78-.63-3.94-2-.34-1.52-1.56.5-1.33.31,0,.57.06.79.1.53.1.94.79.94.79l-.44,7.25,7.11,1.18.68.91-1.19,6.72,6.67,1.93.9,1.63-1.89,7,6.73,2.95.44,1.3-2.86,6.2,6.19,3,.38,1.49-3.43,6.39L66,142.45s-.19-.5-.48-1.35l-5.65-4,2.87-5.46s.22.4.46.32c-.14-.91-.25-1.83-.32-2.72L60,121.6l9.43-6.35c-4-2.43-9.14-2.35-13.82-3.27a6.72,6.72,0,0,0-.56-1.23c-1.37-2.19-2.59-5-4.11-7.83a9.28,9.28,0,0,1,2.81-.7s3-19,5.41-28.35a3.49,3.49,0,0,0,.55.12A2.09,2.09,0,0,0,61,70.31c.26-.08.53-.15.82-.22S63.8,71.8,63.8,71.8l-4,3.92,0,1.3c1.59-1.66,5.08-5.22,5.08-5.22l-2.11-2.21,1-.49L65.51,71l3.82-3.93,1,.67a47.17,47.17,0,0,1-4,4.24c1,1.19,4.9,4.94,4.9,4.94V75.61l-3.84-3.73L71,68.15l.22-.24s3,1.28,3.15,1.27c-1.26-1-3.52-1.92-4.75-2.82-5.57-3.29-.28-10.08,4.86-8.4.15.55,2.83-14.34,2.53-15.16.27-2.31.33-2-.46-3.3-2.4-5.52-9.38-16-9.38-16l62.83-.4a26.19,26.19,0,0,0-1.81,3.8,22.25,22.25,0,0,1,4.83,8.52,15.14,15.14,0,0,0,3.57,7c0,.06-.06.14-.18.22-5,1.75-10.63-2.49-12.36-7.32L121.23,40c1.29.15-19-2.3-23.94-1.68.44.09,1,.45.66,1.85-.5,2.4-1.4,11.09-1.4,11.09-1,8.46-1.77,19.08-7.35,22.6a9.91,9.91,0,0,0,1.59,1.37s-.66-.7-.68-.78a.66.66,0,0,1,.31-.53A14.1,14.1,0,0,0,93,71c4.6,4,11.81,7.44,16.15,6,1.72-.36,2.48-2,3.38-.67a96.49,96.49,0,0,0-.64,21.56c.71,14,3.81,22,6.87,32-1.57.56-9.66,6-9.66,6,0,.69,9.75,2.94,13.6,2.54,0,0,.79.77.8.61s0-.1-.08-.15a1.86,1.86,0,0,0-.9-3.49,1.67,1.67,0,0,0-.55.09l-.9-2.23,5.45,2.37-1.78,6,.6,1.32,2.17-7.75-7-3-.47-1.38L123,124.8l-6.22-3.68-.26-1.17,3.34-6.32-6-4.62,4.41-5.69-5.43-4.55.07-.76,4.49-5.17-4.65-4.77-.12-1.93,5.05-4.5-4.36-6.34a19.38,19.38,0,0,0,4-4l1.07.46-3.88,2.94,4.14,6,4.37-4-2.37-3.86,1.45.66,1.32,2.07-.21,2.12-4.32,3.93L122.57,87l0,1s-2.31,2.65-4,4.63l4.71,5.19-3.86,4.91,4.85,4.13-.14-1.24-3.57-3,2.74-3.32c.2-2-.24-5.44.79-7-1.66-1.61-.79-5.51,0-6.77-1.58-1.88-.68-6,.33-6.15-1.2-1.51-.73-4.58.28-5.57.33-.17-4.3-1.84-7.22-3.85,2.43-4.52,1.86-8.77,2.63-10.3a75,75,0,0,0,3.56,8.58c.12.24.38.18.76.19,4.83.43,4.37,4.41.75,5.43,0,0,7.36,5.48,11.09,6.08,0,.1,0,.23-.12.49a13.91,13.91,0,0,0-.91,4.66,19.78,19.78,0,0,0,.93,6.28l-1.53.94c-.3,1.31-2,1.34-2.18,2.27.37,4,8.19,19.34,9.84,21.07.62-10.94-.57-22.82,0-33.74Zm-1.79,27.9,1.27-1,0,1.66Zm1.24,2.54-.64-.48.64-.71ZM63.19,131.92c.13.76.27,1.5.42,2.24a2.09,2.09,0,0,0,.53,4.12,1.85,1.85,0,0,0,.48-.07c.33,1.16.65,2.16.89,2.89l.43.3c-1.15-4,1.08-6.13-2.21-9.45,0-.16-.29-.11-.54,0ZM131,23.73l20.45.13v7.55L135.64,48.16l6.08.08L141.66,77a27.59,27.59,0,0,0-4.79,2.8l-9.59-5.3-.69-.35a4,4,0,0,0,.83-.45,3.35,3.35,0,0,0,1-3.77c-.81-2.14-2.47-1.76-3.86-1.76-1.15-.89-2.13-3.86-2.94-5.85a12.74,12.74,0,0,1-.83-2,5.63,5.63,0,0,1-.08-.86s.19,0,.46.61c1.53,3.22,5.09,4.77,7,1.73,1-1.87.3-4-1.32-4.59a8.4,8.4,0,0,0-2.17,0c-.1.06-1.22-1.58-2.8-7-.65-2.22-.82-7-.2-7.74,1-1.26,1.32-3,2.21-4.33.4-.81.37-.31,1,.59,2.15,3.06,5.93,5.44,9.4,5.29,2.45-.11,3.21-.94,2.63-1.65a11.5,11.5,0,0,1-2.67-5c-1-3.94-2.12-7.46-4.89-10.53ZM120.57,42.45c.26.24.06.62,0,1.3-.12,1.73-.16,1.75-1.15,1.32a5.82,5.82,0,0,0-6.22,1.65c-2,2.23-2.12,4.51-.84,9,1.47,5.08,1.43,5.75-.32,6.79-1.06.9-2.14,2.78-1.73,2.77a.72.72,0,0,0,.32-.25,20.54,20.54,0,0,1,1.82-1.42c2-1.39,2.68-2.1,1.74-4.67s-1.66-5-1.28-5.17c.18-.07.88.75,1.32,1a20.84,20.84,0,0,0,3,1.45c.32,0,0-.23-.93-.83-2.45-1.6-3.45-3.06-1.09-2.14a5.19,5.19,0,0,0,3.36,0c.88-.29,1.34-.58,1.43-.25a32.76,32.76,0,0,1-.09,4.75c0,.1-.15,1.17-.26,2.37-.45,4.57-1.23,8.43-3.24,10.91-6.72,8.29-14.36,5.88-23-.77,3.2-8.87,3-15.79,3.77-18.61a3.05,3.05,0,0,1,2.15.52,9,9,0,0,0,3.87,1.16c1.21.07,1.42-.1,1.32.25s-2,.86-3.25,1.11c-2.18.45-2,1-.18.79a12.35,12.35,0,0,0,5.78-2.26c1.38-.91,1.43-.91,1.06-2.06-.09-.27-.28-.68.38-.93s.58-.52.19-.83c-.09-.08-.34-.09-.43-.17s0-.53,0-.59c-2.51-2.11-6.91-2.16-10.54,0a.53.53,0,0,1-.19-.74c.38-.83,4.28-1.83,7-1.88,1.26,0,1.51.14,3.41.73.78.23,1.22.3,1.29.18.16-.27-.12-1.08-.72-1.51-2-1.45-5-1.34-9,.26-2.16.86-1.93,1.16-1.24-3.11.2-1.18.42-2.08.42-2.08s18.88.67,22,2Zm-2.9,4a3.57,3.57,0,0,1,2.44.78c.78.86,0,1.13-1.27.66a5.5,5.5,0,0,0-4.77.6c-.9.56-1.09.26-.34-.53a5.54,5.54,0,0,1,3.94-1.51Zm-14.36,1.49c1.74,0,3.34.3,4,1s0,.74-1.47.16a9.34,9.34,0,0,0-7.22.59c-1.19.58-1.56.71-1.4,0,.7-1.09,3.56-1.8,6.1-1.81Zm13.92.54c1.66,0,3.07.38,2.81,1.25-.09.31-.17.12-1.36-.24a7.63,7.63,0,0,0-4.22.21c-1.42.42-1.69.51-1-.1a5.91,5.91,0,0,1,3.82-1.12Zm3.38.83c1.68,2.59,2,6.39,3.77,8.44,3.3-.61,4.87,2.5,2.08,4.57-1.41.78-3.13.19-4.4-1.89A8.47,8.47,0,0,1,120.48,56c.11-2.63,0-4,.13-6.69ZM101.26,50.5l.73.09c.53,1.8,1.72,1.91,2.44,0l.55.09c-.84,2.32-3,2.41-3.72-.2Zm-1.13,0c.3,0,.55.31.69.73.29,1,0,.84-.7.43s-1.19-.67-.8-.84a3,3,0,0,1,.81-.32Zm6.28.62c.26.31.32.55,0,.78a5.8,5.8,0,0,1-.86.38c-.3.09-.48,0-.35-.4a3.14,3.14,0,0,1,.47-1.09.89.89,0,0,1,.75.33Zm8.88-.22.59,0c.6,1.65,2,1.6,2.57.17H119c-1,2.55-3,2.09-3.68-.21Zm-1,.22c.55,0,1.09.8.79,1.2s-1.68,0-1.8-.54c0-.3.45-.66,1-.66Zm5.37.15a.28.28,0,0,1,.25.3c.15.67-.66.91-.84.65s.32-.68.59-1Zm-12.78,7.22a2.62,2.62,0,0,0-1.91,2.86,2.14,2.14,0,0,0,1.43,2.1c1.62.37,2.74-.76,4.4-1.22.71-.19.54-1.11.09-1.51s-1.49-.19-2.71.73c-2.37,1.82-3-1.67-.78-2.29.34-.1.18-.87-.52-.67ZM36.55,139.09l.93.26-.93,1.1v-1.36Zm2.58,3.74L37.22,145l2.59-.19-1.76,1.82,2.7.11-2,2,2.65-.05-1.95,2,2.49.07-1.65,1.8,2.75-.21-2,2.17,3-.06-2.23,2,2.93,0-.88,1,.78.4c.8-.37,5.4-1.81,5.55-2.88-1-.28-4,1.24-4.2,1-1.2-5.3-6.38-17-9.79-20.42l-.24,33.08c-.52.48-1.36.25-1.89.46-1.73-.09-4.62,2.8-3.11,3.38.79.17,5.17.92,5.18,1.14.54,9.59-.33,19.23.07,29.46,1.22.18,5.22.41,5.22.41s-14.67,15.31-15,15c.35-16.41.17-48.48-.12-48.59a26.28,26.28,0,0,1,.34-3l-.32-102a2.52,2.52,0,0,0-.26-.74c-.3-.5-.32-.63-.35-2.16a2.49,2.49,0,0,1,0-1.19l10,10.6L36,101.25s9.32,13.81,11.5,20.29c4.8,9.64,4.28,23.69,7.18,29.07h.18c.07.78.08,1.09.2,1.21.21,1.76.45,4.16.45,4.16l-1,1.67,1.17,1.5v4L54,164.74l1.42,1.82-.39,3.73-1.12,1,.64.85a13.82,13.82,0,0,1-.15,2.89c-.17,1.05-1.21.91-3.35-.19a47.64,47.64,0,0,1-8.57-4.77c.14-1.95,2.55-6.39-.8-11.28-1.24-.94-4.84-.59-5.16-.73l0-15.08m0-1.75,1.62-.28-1.64,1.64ZM113.92,66a1,1,0,0,0-.51.38c-.23.25-.59.18-1.5.13a3.64,3.64,0,0,0-1.87.2c-.74.26-.75.26-1.26,0a2.65,2.65,0,0,0-2-.17,2.62,2.62,0,0,1-2-.09c-.55-.28-.73-.22-.93.29a12.46,12.46,0,0,1-.66,1.32c-.6.92-.46,1.07.8.68a6,6,0,0,1,3.63.06,4.15,4.15,0,0,0,3.25-.3,2.89,2.89,0,0,1,3.31.26c.63.53.59.13.43-1s-.3-1.89-.64-1.85ZM71.34,69.8a2.1,2.1,0,1,0,0,4.19c.54-.46.83-4.11,0-4.19Zm40.47,0a8,8,0,0,1-5,.43c-1.55-.47-1.18.69.5.84,1.17.1,1.1.1.18,1-.77.73.2.67.72.22s2.31-.39,3.26,0c.42.2.46-.59,0-.77-1.26-.44-1-.47.41-.91.51-.12.52-1,0-.8Zm-40.47.68c.66.25.24,2.68,0,2.79a1.4,1.4,0,1,1,0-2.79Zm-11.19.09c.54-.19.91.7.91,1.3a1.4,1.4,0,0,1-1.39,1.4c-.94-.92-1.11-2,0-2.52l.5-.18Zm5.51,2-4.47,4.53,4.39,4.45L70,77.07Zm53.06,1.79a1.17,1.17,0,1,1-1.17,1.17,1.17,1.17,0,0,1,1.17-1.17ZM65.63,76a1.17,1.17,0,1,1-1.17,1.17A1.17,1.17,0,0,1,65.63,76Zm47.61,1.12,3.2,4.32-3.92,3.52.19-2.19a1.87,1.87,0,0,0,1.53-1.83,1.84,1.84,0,0,0-1.2-1.73ZM59.8,77.3l0,1.18,4,4-4,4.16,0,1.15,5-5.31Zm11.43,0-4.94,5.07,4.77,5.21.06-1.32L67.37,82.4l3.82-3.79Zm71.32.81a2.18,2.18,0,0,1,2.13,1c.21.38.32.69.62.83.59.27,1.38.09,1.42-.11a4.58,4.58,0,0,1-1.11-.25c-.78-.71-.65-1.16.47-1.07.36,0,1.36,0,1.38.43.23,1.35-1.58,2.34-3.88,2.16-1.65-.27-1.65.37-1.77,1.24a6.18,6.18,0,0,1-.53,1.13c-.58,1-.78.89-.37,1.3a3.31,3.31,0,0,1,.89,1.74V92s-3.45,0-4.65-.88c-1.26-2.29-2.11-7.23-.27-10a16.59,16.59,0,0,1,2.68-2.06,5,5,0,0,1,3-1ZM123,78.74l-.13,1.59a1.85,1.85,0,0,0-.29,3.58l-.11,1.38L120,81.62ZM113,79.81a1.23,1.23,0,0,1-.2,2.25Zm-53.4.58c-1.78.92-1.17,4.49,0,4.19a2.1,2.1,0,0,0,0-4.19Zm11.56.06a2.1,2.1,0,0,0,0,4.19c1.54-.49.67-4.13,0-4.19Zm51.72.53-.19,2.28a1.23,1.23,0,0,1-.68-1.1,1.22,1.22,0,0,1,.87-1.18Zm-63.28.11a1.4,1.4,0,0,1,0,2.79c-.46.09-.75-2.54,0-2.79Zm11.56.06c.94.07.16,2.45,0,2.78a1.39,1.39,0,0,1,0-2.78Zm47,1.32-4.63,4.61,4.57,5,3.8-4.62Zm-52.59.88-4.43,4.56,4.19,4.33,4.42-4.67ZM36.42,85.84,38,87.56l-1.67,0Zm81.35.18a1.16,1.16,0,1,1-1.16,1.16A1.15,1.15,0,0,1,117.77,86Zm-52.24.62a1.17,1.17,0,1,1-1.16,1.17,1.17,1.17,0,0,1,1.16-1.17ZM71.26,88l-4.9,5.07,4.74,5,.06-1.2L67.37,93.1l3.84-3.94ZM59.74,88l0,1.28,3.93,3.9-4.13,4.16.16,1.12,5.09-5.26Zm52.9,1.39,3.54,3.53-3.53,3.93v-2a1.86,1.86,0,0,0,0-3.51Zm9.77.18,0,1.44a1.86,1.86,0,0,0,.1,3.62l0,1.14-2.81-3.1Zm-82,.65S41.61,91.49,42,92a2.08,2.08,0,0,0,1.59,3.45,2.09,2.09,0,0,0,.93-.22c.21.32,1.16,1.63,1.16,1.63L40.11,96Zm30.82.84a2.1,2.1,0,1,0,0,4.19c2.1-.43,1.69-4.09,0-4.19Zm-11.68.08a2.1,2.1,0,1,0,2.1,2.09,2.1,2.1,0,0,0-2.1-2.09Zm62.9.52.07,2.32a1.23,1.23,0,0,1-.07-2.32Zm-51.22.1c1.35.49.94,2.88,0,2.79a1.4,1.4,0,1,1,0-2.79Zm-11.68.08a1.4,1.4,0,1,1-1.39,1.39,1.39,1.39,0,0,1,1.39-1.39Zm53.08.13a1.24,1.24,0,0,1,0,2.16Zm-70.19.6,1.63,2.1a1.51,1.51,0,0,1-.48.08,1.4,1.4,0,0,1-1.15-2.18Zm75.47,1-3.83,4.6,4.71,4.18,3.34-4.13Zm-52.35.55-4.69,4.78,3.32,3.44-1.84-.2L59.7,99.39l-.06.9L61.09,102l-1.54-.06.27.72c3.8.11,7.42,1.23,11.11,2l.23-.5-1.37-.35,1.3-1.55,0-1.17-2.24,2.39-.76-.17L71.25,100,71,99l-3.9,4L66,102.69l4-4Zm52.55,2.75A1.16,1.16,0,1,1,117,98a1.16,1.16,0,0,1,1.17-1.16Zm-52.71.6a1.16,1.16,0,1,1-1.16,1.16,1.16,1.16,0,0,1,1.16-1.16Zm-26.32.34s-.3,3.81-.47,5.65L44.7,105,45.45,99Zm-2.65.29.85,0-.11,3.51-.85-.84ZM47.68,99.6s.61,1,1.31,2.06a2.07,2.07,0,0,0-.61,1.47,2.1,2.1,0,0,0,2.71,2c.27.52.78,1.34.78,1.34L46.67,105Zm65.15.39,4.08,3.33-3.17,3.9-.21-1.67a1.86,1.86,0,0,0-.46-3.6Zm-70.67.06A1.16,1.16,0,1,1,41,101.21a1.16,1.16,0,0,1,1.16-1.16Zm81.65.36a1.86,1.86,0,1,0,0,3.72c.41.3.52-3.19,0-3.72Zm0,.63c.11.55.25,2.6,0,2.47a1.24,1.24,0,1,1,0-2.47Zm-74.43,1.23c.47.73.95,1.52,1.36,2.24l-.26,0a1.4,1.4,0,0,1-1.4-1.4,1.45,1.45,0,0,1,.3-.86Zm63.78.32a1.24,1.24,0,0,1,1,1.21,1.25,1.25,0,0,1-.69,1.11Zm5.53,1.09-3.45,4.63,5.24,4.08,3-5.06ZM39.9,105.56l3.9,1.15-.73,4a7.24,7.24,0,0,0-.57-1.16,2.13,2.13,0,0,0,.26-1,2.1,2.1,0,0,0-2.09-2.1H40.5l-.6-.88Zm5.78,1-1.27,6.36,5.88,2.37,1.42-6.73Zm73.67,0a1.16,1.16,0,1,1-1.16,1.16,1.15,1.15,0,0,1,1.16-1.16ZM41,107.17a1.39,1.39,0,0,1,1.07,1.36,1.07,1.07,0,0,1,0,.25c-.33-.54-.7-1.1-1-1.61Zm83.35.18-3.15,5.92,5.35,3.74-.36-1.26-3.83-2.81,2.22-4.08Zm-76.05,2.14a1.17,1.17,0,1,1-1.16,1.17,1.16,1.16,0,0,1,1.16-1.17Zm5.54.59,1.25,2.17a2.13,2.13,0,0,0-.85,1.68,2.1,2.1,0,0,0,2.1,2.1,2.07,2.07,0,0,0,.5-.06l.9,1.91-5.45-2.38Zm71.72,0a1.51,1.51,0,0,0-1.29.52,1.87,1.87,0,0,0,1.29,3.2c1.41-.34.65-3.57,0-3.72Zm-11.27.51,4.43,3.17-2.59,5s-.26-1-.59-2.36a1.86,1.86,0,0,0-.79-3.54h0c-.18-.82-.33-1.6-.44-2.26Zm11.27.11c.77.24.51,2.4,0,2.48a1.18,1.18,0,0,1-1.23-1.24,1.24,1.24,0,0,1,1.23-1.24Zm-70.16,2.19,1.13,2.41h-.19a1.4,1.4,0,0,1-1.4-1.4,1.38,1.38,0,0,1,.46-1Zm59.47.59a1.24,1.24,0,0,1,1.12,1.23,1.21,1.21,0,0,1-.6,1c-.17-.72-.35-1.5-.52-2.28Zm5.84.63-3,6,5.6,3.42,2.58-5.8Zm-75.06,1.16,3.45,1.57-1,3.56-.42-.87a2.12,2.12,0,0,0,.32-1.12,2.09,2.09,0,0,0-1.87-2.08ZM51.09,117l-1.69,6,5.39,2.81,2.45-6Zm-4.53.21a1.39,1.39,0,0,1,.76,1.24,1.27,1.27,0,0,1,0,.28Zm75.14.49a1.16,1.16,0,1,1-1.16,1.16,1.16,1.16,0,0,1,1.16-1.16Zm5.12.33-2.57,6.28,5.9,3.25-.45-1.14-4.36-2.52,1.87-4.54ZM53.25,120.1a1.16,1.16,0,1,1-1.16,1.16,1.16,1.16,0,0,1,1.16-1.16Zm75.42.93a1.86,1.86,0,0,0-1.86,1.86,1.83,1.83,0,0,0,1.86,1.86c1.87,0,.92-3.73,0-3.72ZM59,121.24a14.57,14.57,0,0,1,.86,2,2.1,2.1,0,0,0,1,3.83l.23,0,.34,1.26-4.64-2.43A32.06,32.06,0,0,1,59,121.24Zm69.64.41c.54.23.69,2.41,0,2.48a1.24,1.24,0,1,1,0-2.48Zm-11.42.73,4.55,2.6-2.28,4.94-.68-2.26a1.86,1.86,0,0,0-1-3.4Zm-57.11,1.55.72,2.41A1.27,1.27,0,0,1,59.67,125a1.36,1.36,0,0,1,.47-1Zm57.87,1a1.23,1.23,0,0,1,.63,2.11Zm-68,.16,3.52,2.06L52,131.24l-.46-1.49a2.09,2.09,0,0,0-1.07-3.39Zm73.55.08-2.14,5.73,6.18,3.24,1.54-5.85Zm-72.87,2.1a1.38,1.38,0,0,1,.59,1.14,1.51,1.51,0,0,1-.08.48Zm4.61.28-2.5,5.81L58,136.78l2.72-6.06Zm70.19.95a1.16,1.16,0,1,1-1.16,1.16,1.16,1.16,0,0,1,1.16-1.16Zm6.12,2.55a1.9,1.9,0,0,0-.83,1.64,1.85,1.85,0,0,0,1.85,1.86,2.86,2.86,0,0,0,.62-.07c.54-.71-.22-3.46-1.64-3.43Zm-74.75-.17a1.17,1.17,0,0,1,0,2.33,1.17,1.17,0,0,1,0-2.33Zm76.05,3a.61.61,0,0,1-.28.06,1.25,1.25,0,0,1-1.23-1.24,1.23,1.23,0,0,1,.46-1c1.07-.8,1.22,2.3,1.05,2.14Zm-69.18,1c.21.95.44,1.86.68,2.7a1.45,1.45,0,0,1-.3,0,1.39,1.39,0,0,1-.38-2.73Zm64.75.68L126.89,142l6.18,2.25,1.19-6.09Zm-75.37.09,3.28,2.27a30.75,30.75,0,0,1-2,3.92l-.25-1.19a2.09,2.09,0,0,0-.81-3.77Zm69.37.31a1.24,1.24,0,0,1,1.24,1.23.84.84,0,0,1-.5.85c-.27-.61-.64-1.21-1-2a1,1,0,0,1,.24,0Zm-68.94,1.7a1.39,1.39,0,0,1,.47,2.22Zm4.93.94-3,5.17,4.37,3.34,3.41-5.17Zm72.09.17a1.17,1.17,0,1,1-1.17,1.17,1.16,1.16,0,0,1,1.17-1.17Zm5.34,1.61.76,1.18a1.89,1.89,0,0,0-.38,1.12,1.86,1.86,0,0,0,1.87,1.85,1.75,1.75,0,0,0,.4,0l.61,1L135.32,144Zm-76.54,1.38a1.16,1.16,0,1,1-1.17,1.16,1.16,1.16,0,0,1,1.17-1.16Zm77.68.37,1.14,1.78h0a1.17,1.17,0,0,1-1.11-1.78ZM65,142.17l-4.22,5.6,5.6,4.14-.09-1.23-4.09-2.93,3.11-4.14Zm61.59,1.9,5.57,1.74-1.19,5.53-1.31-2.18a1.89,1.89,0,0,0,.58-1.35,1.86,1.86,0,0,0-1.86-1.86,1.63,1.63,0,0,0-.59.1Zm-60.66,1a2.1,2.1,0,0,0,.22,4.18.36.36,0,1,0,0-.7,1.39,1.39,0,0,1-.09-2.78l-.11-.7Zm68.22.6-1,6.39,6.3,1.35.47-5.8Zm-78.86.16,3,2.2L56,151.14l-.12-.91a2.08,2.08,0,0,0-.49-3.68Zm73.09.79a1.24,1.24,0,0,1,1.23,1.24,1.22,1.22,0,0,1-.29.79l-1.2-2a2.06,2.06,0,0,1,.26,0Zm-20,.84c.13.05.51.08.45.2s-1.06,1.21-1.06,1.21l.12,1,1.79-2,.72.27-2.52,2.55-.11,1,3.35-3.29,1.43.39-3.9,3.84,4.49,4.55,4.49-4.58L114.4,149l1.58.15a9.55,9.55,0,0,0,2.62,2.61l-.12-.91c-.07,0-1.49-1.34-1.26-1.56l1.25.09s1.82-.53-.46-.53c-3,0-6.19-1-8.75-1.77a6.22,6.22,0,0,0-.93-.33c-.77.12-.52.44,0,.64Zm-52.88,0a1.37,1.37,0,0,1,.27,2Zm81,1.12a1.16,1.16,0,1,1-1.17,1.16,1.16,1.16,0,0,1,1.17-1.16Zm-76.33.11-3.62,4.61,4.1,3.94,4.21-4.93Zm81.42,1.18.29,0,0,3.14-.47-.1Zm-28.3,1.46a1.16,1.16,0,1,1-1.17,1.16,1.16,1.16,0,0,1,1.17-1.16Zm-52.56.33a1.16,1.16,0,1,1-1.16,1.16,1.16,1.16,0,0,1,1.16-1.16Zm5.6.91-4.68,5.59,5,5.19,0-1.16L62.68,158l3.66-4.26Zm52.38.52-4.82,4.87,4.8,5,.11-1.12L115,158l3.48-3.59Zm-10.6.5v1.32l3,3.08-3.1,3.16,0,1.34,4.39-4.52Zm24.69.58,5.68,1.08-.35,5.36-1.37-1.65a1.82,1.82,0,0,0,.38-1.12,1.85,1.85,0,0,0-1.86-1.85,1.9,1.9,0,0,0-.82.19Zm-76.52,1L59,158l-2.67,3,0-1a2.1,2.1,0,0,0-.09-3.89Zm10.38.74a2.1,2.1,0,0,0,0,4.09v-.74a1.39,1.39,0,0,1-.93-1.31,1.41,1.41,0,0,1,.93-1.31Zm41.14.2c-.86.57-.48,3.77,0,3.72a1.86,1.86,0,1,0,0-3.72Zm11,.3a1.86,1.86,0,1,0,0,3.72c.81-.27.48-3.53,0-3.72Zm16.48.24a1.24,1.24,0,0,1,1.24,1.23,1.28,1.28,0,0,1-.17.62l-1.47-1.78a1.05,1.05,0,0,1,.4-.07Zm-27.48.08a1.24,1.24,0,0,1,0,2.47c.06-.44-.23-2.52,0-2.47Zm-51.48.28a1.4,1.4,0,0,1,.63,1.17,1.42,1.42,0,0,1-.58,1.14Zm62.48,0c.15.5.34,2.56,0,2.48a1.24,1.24,0,1,1,0-2.48Zm-5.62,1.8-4.53,4.51L113.2,168l4.37-4.66Zm-52.2.25-4,4.37,3.9,5.07,4.58-4.56Zm-22,.16c1.25,0,2.41.21,2.88,1,1.91,2.55,1.36,7.8,0,9.61-3,2.69-4.65,3.4-8,2.79.38-1.51-1.23-2.33-1.46-2,0,0-.16.27,0,.29a1.15,1.15,0,0,1,.93,1.53c-1.28,0-2.11,0-2.23-.59-.09-.35.12-.89.86-1.5s4.9-.68,4.9-.68a4.18,4.18,0,0,1,.39-1.8c.35-.58.84-1.23.51-1.49a2.06,2.06,0,0,1-1.06-1.67c-.15-1.57.09-5.36,0-5.4.67-.06,1.45-.13,2.2-.13Zm74.15,2.92a1.16,1.16,0,1,1-1.16,1.16,1.16,1.16,0,0,1,1.16-1.16Zm-52.16.45a1.16,1.16,0,1,1-1.17,1.16,1.16,1.16,0,0,1,1.17-1.16Zm57.69,1.09-4.73,4.82,5,5.22-.16-1.41-3.63-3.74,3.55-3.7Zm-10.68.09-.13,1.34,3.35,3.52-3,3.12,0,1.52,4.47-4.72ZM56.16,165.5l2.68,3.75L55.66,172l.08-1.06a2.1,2.1,0,0,0,.31-4Zm10,.74c-.07.78-.11,1.41-.15,2a2.09,2.09,0,0,0-.28,3.91c-.06.6-.13,1.27-.24,2.1l-3.2-4.67Zm75.59.22.13,13.12,9.47,9.86.11,36.83-39.14.24-10.07-17.09c-.22-.32-.49-.22-.72-.54l3-15.94c4.7,2.16,8.66-3.43,6.09-8,14.48-5.29,31.14-18.51,31.14-18.51Zm-23.11.08a1.86,1.86,0,1,0,0,3.71c1,0,.64-.63.64-1.66s.38-2.05-.64-2.05Zm-10.82.11c-.52.58-.81,3.74,0,3.71a1.88,1.88,0,0,0,1.85-1.86,1.85,1.85,0,0,0-1.85-1.85Zm10.82.51c.68,0,.37.66.37,1.35s.31,1.12-.37,1.12a1.24,1.24,0,1,1,0-2.47Zm-10.82.11a1.23,1.23,0,0,1,0,2.46c.07-.2-.31-2.38,0-2.46ZM56,167.75a1.42,1.42,0,0,1,.66,1.19,1.38,1.38,0,0,1-.85,1.28ZM66,169l-.16,2.36a1.37,1.37,0,0,1-.59-1.13A1.38,1.38,0,0,1,66,169Zm47.06.43-4.41,4.41,4.6,4.77,4.36-4.62Zm-52.47,1.14L56,174.28l3,4.56,1,.62,4.24-3.62ZM42,170.88l10.87,5.8s-2.82,1.18-2.74,3.07c.11,2.1,1.38,3.83,3.88,3.18.57-.08.84.16,1.39,1.45,1.06,2.47,2.11,5.19,1.7,5.11a8.37,8.37,0,0,0-2.71-1.83,3.05,3.05,0,0,0-3.78,4.13c.86,2,2.3,2.15,3.74,1.94a1,1,0,0,1,.53.54,21.68,21.68,0,0,1,1.69,5.11c.84,3.91,1,8.8.41,10-.84,1.71-2,4-2,4-2.27-4.32-7.21-8.11-12.76-6.77-.19.12-.23.73,0,1.08,1.8,2.37,2.11,4.54,2.75,6.86,1.65,6,5,9.36,4.94,8.75l-1.75,3.17s-15.1.07-21.28,0v-7.26l16.19-16.58-6.41-.27.22-28.58c2.34-.49,5.1-2.94,5.1-2.94Zm71.09,1.83a1.17,1.17,0,1,1-1.16,1.16,1.16,1.16,0,0,1,1.16-1.16Zm-53,1.18a1.17,1.17,0,1,1-1.16,1.16,1.17,1.17,0,0,1,1.16-1.16ZM107.93,175l.12,1.15,3.18,3.33-3,3c-.43.59-1.53.46-1.87.5a.75.75,0,0,0,.33.55c.27.12.6.1.74.18a1.5,1.5,0,0,0,.5.19l4.28-4.37Zm0,2.59c-.77.25-.63,3.53,0,3.72a1.86,1.86,0,0,0,0-3.72Zm10.91.51a7.27,7.27,0,0,1,0,2.47,1.24,1.24,0,0,1,0-2.47Zm-10.91.12a1.24,1.24,0,1,1,0,2.47c-.16-.29-.44-2.43,0-2.47Zm-38.26.59a1.94,1.94,0,0,1-.64,0c-.65,0-1.45-.46-1.62-.37s-.14.51-.13.71.51.23.72.36.23.29-.14.38a1.12,1.12,0,0,0-.8.39c-.13.18-.14.51.09.51,1.28,0,2.92-.56,4.46,0,.88.32,1.45.51,1.59.39.3-.25-.74-1.24-1.72-1.42s-1.36-.11-1-.41c.16-.15.39-.09.41-.2a.61.61,0,0,0-.45-.67c-.29,0-.52.26-.74.34Zm5.54,3.09a1,1,0,0,0-.46.25c-.59.38-1.5.91-3.72.3a6.08,6.08,0,0,0-3.39.17,3.31,3.31,0,0,1-2.22,0c-.69-.33-1.45-.84-1.31-.32,0,.14.07.9.08,1.36,0,1.07.1,2,.87,1.12.33-.36.74-.37,1.5-.07.53.22.91.36,1.33.09a2.16,2.16,0,0,1,2.2-.12,1.88,1.88,0,0,0,1.72-.21,1.44,1.44,0,0,1,2.19.67c.34.54.5-.23,1.11-1.84.32-.77.41-1.42.1-1.42Zm-5.22,6c-.59.33-1.42.44-2,.83-1.27.88-.07,1.61.81,1.43a4.31,4.31,0,0,0,1.25-.57c1.59-1.06,2.47-.91,2.62.37s-2,2-1.77,2.66c.27.42,1.3-.16,2-1,1.89-2.57-.19-5.18-2.83-3.69Zm8.26,7.26a17.12,17.12,0,0,0-7,2.52c-1.29,1-1.64,1.25-1.1,1.65s.88.38.2,1.08a3.84,3.84,0,0,0-.66.87c0,.5,3.06,2,4.81,2.22a11.2,11.2,0,0,0,4.71-.5c1.55-.62,1.61-1,.14-.62a11.36,11.36,0,0,1-3.89.49,12.69,12.69,0,0,1-3.18-.73c-1.87-.67-1.55-1.45.35-.79a9.46,9.46,0,0,0,7.51-.2c1-.46,1.3-.82,1.48-.66a1.92,1.92,0,0,1,.18.35c.06.17.07-.42.16-1.36.07-.78.14-1.83.14-1.83a2.72,2.72,0,0,0-.14.65c0,1.37-.65,1.38-2.52.33-2.2-1.21-3.27-1.09-5.36-1.08-.92,0-1-.26.33-.68.61-.21,1.55-.53,3-1,1.16-.37,1.47-.79.93-.73Zm-16.59,2.76c.8,0,1.51.67,1.71,2l-.79-.06c-.26-2-1.69-1.51-2.24-.35l-.7,0a2.49,2.49,0,0,1,2-1.6Zm2,.12a4.65,4.65,0,0,1,1.92.92c.1.25-.47.51-1,.66s-.46.19-.64-.15-.7-1.41-.31-1.43Zm-3.82.09a1.78,1.78,0,0,1-.77,1.08.39.39,0,0,1-.38-.66c.29-.15,1.09-.72,1.15-.42Zm15.42.1a2.23,2.23,0,0,1,2,2.19l-.51,0c-.47-2.5-2.4-1.94-2.83-.15l-.6-.17c.5-1.29,1.22-1.82,1.91-1.85Zm-2,.18c.28,0,.24.21-.09.87-.15.32-.27.5-.54.49a1.06,1.06,0,0,1-.81-.47c-.13-.3.17-.52.82-.73a3.73,3.73,0,0,1,.62-.16Zm4.24.19a3.11,3.11,0,0,1,1,.34c1.3.57,1.45.8.77,1.13-.3.14-.55.25-.75.32-.6.2-.58-.14-.75-.56-.09-.24-.2-.46-.32-.71s-.17-.52,0-.52Zm-19,2.12c.22,0,.68.29,1.62.62a6.8,6.8,0,0,0,4.49-.26c.74-.24,1-.38.7,0a6.1,6.1,0,0,1-2.51,1.22c-1.92.47-4.46-.43-4.46-1.41,0-.15.06-.2.16-.21ZM65,202.29c.19,0,0,.3-.41.75A4.59,4.59,0,0,1,62,204.41c-2.07.36-3.78-.2-3.8-1.36,0-.83.14-.84,1.16-.32a6.67,6.67,0,0,0,4.37.05,7.58,7.58,0,0,0,1.14-.47l.11,0Zm15.87,1.12c-1.56.41-3.23.83-4.75,1.13a9.83,9.83,0,0,1-5.24-.59c-.92-.45-1.24-.18-.84.69a2.77,2.77,0,0,0,1.84,1.58c1.7.6,5.7-.37,8.67-1.91,1.73-.76,1.4-1.23.32-.9ZM55,215.19l2.67-4.55c18.12,3.51,37.72,1,43.72.13,0,0,6.54,10.84,8.9,14.64.22.41.83,1.78.83,1.78l-61.85-.05c.87-1.74,1.69-4,1.69-4-1.89-.76-3.36-3.58-4.26-6-.8-2.09-2.18-7.19-4-9.68,3.17-1.8,11.15,2.22,12.29,7.69Z"/><path class="cls-4" d="M110.63,226.68H49.38l8-16a143.12,143.12,0,0,0,44.08-.33ZM26.93,214l-.18-7.7,8,0Zm66.55-50.54-.09-24.84L104.6,146l-.41,25.22Zm-26.81-5.85c.4-8.89-1.72-17.18-3.36-25.58l11.6-7.63.64,28.05ZM36.11,134.22l.31-32c10.45,15,16.79,30,18.61,50.55-2.83,1.15-5.6,2.41-8.52,3.44-3.35-7.7-6.73-15.15-10.4-22ZM141.91,148c-9.65-12.26-15.47-29.07-18.51-49.19l8.83-4.29c2.93,7.11,5.79,14.33,9.5,20.23Zm-38.1-21.83-.94-26.89,8.84-5.37a139.65,139.65,0,0,0,3.67,25.14ZM84.58,111.83,75,106.28,75.58,82l8.72,6.84Zm59.57-67.38c.68-2.55,5.28-5.8,7.25-7.55l-.08,7.2s-6.82.48-7.17.35Zm-66.88-3.9L67.36,23.66l62.06-.52-8,17c-16.44-3-30.5-1.65-44.18.4Z"/><path d="M21.69,10.32H13.5v2.81h3.05s0-.54,0,5.71c0,4.37,0,7.17,0,9,0,2.45-.39,3.95-1.35,4.85-1.53,1.28-4.51,1.15-5.62-.06-.82-.95-1-2.76-.94-4.89H5.81v1.57c-.49,10.08,13,8.37,13.44,1.34.09-1.5.05-1,0-9.28,0-8.92,0-8.25,0-8.25h2.44Zm84,182.19a7.9,7.9,0,0,0,3.05-3.16c1.08-2.12.1-4.19.42-4.2,2,.59,1.41,4.37.73,5.54a4.18,4.18,0,0,1-2.86,1.9c-1.15.19-1.34-.08-1.34-.08Zm3.22-8.25a1,1,0,0,1-.83-.33,1.7,1.7,0,0,0-1-.61c-.31.05-.46,0-.46-.17s.14-.16.65-.11c.32,0,1-.47,1-.47V146.88a43,43,0,0,0,10.22,2.22l.22,31.8s4.72-2.47,6.44-3.46l.06-28.47,3.35-.37-5.29-10.74c-.74.57-11.15-.4-13.75-2.09l9.5-5.93c-1-2.94-1.84-5.76-2.65-8.74,0-.09-.2-.08-.23-.17-.19-.73-.33-1.05-.51-1.79,0-.13,0-.35,0-.49a108.15,108.15,0,0,1-3.73-24.75c0-.08.33,0,.33,0l-.05-5.11-.34.22,0-2.31.34-.34c0-.45,0-1.29,0-1.29l-.44-.27.23-3.88.46-.07.24-6.13-12,7.79S92.81,76.88,89.38,74c3.78-2.56,4.78-7.58,5.72-11.73a70.19,70.19,0,0,0,1.54-10.95,107.76,107.76,0,0,1,1.43-11c.31-1.45.29-1.61-.13-1.63-.15,0,0-.06.33-.11,7.72-.31,16,.84,23.36,1.8,0,0,1.82-3.39,2.44-4.64a18.42,18.42,0,0,0,.77,1.94,12.63,12.63,0,0,0,4.68,4.46,13.83,13.83,0,0,0,3.79,1.27,6.27,6.27,0,0,0,2.83-.47c.31-.13.55-.29.55-.45s-.24-.32-.55-.62a4.46,4.46,0,0,1-.78-1.07,27.42,27.42,0,0,1-1.8-4.61c-1.28-3.39-2.24-7.47-5.18-9.28l2-4.06h-64l9.9,16.69s.3.49.4.67c.3.53.42.45.42.45a174,174,0,0,1-2.78,17.22s-.13-.45-2-.43c-5.5.09-7.43,6.2-2.83,8.91.44.26,1.18.75,1.9,1.14.21.1,2.85,1.65,2.85,1.65l-3.16-1.42-.23,36.71a57.89,57.89,0,0,0-11-2.17L60,70.38l-6.07,3.28-.28,28.46-3.32.21s1.25,2.68,1.53,3.25c.57,1.12,2,3.64,3,5.22.34.56,1.14,1.81,1.14,1.81A34.5,34.5,0,0,1,69,115.22l-9.54,6.21c4,11.23,8.95,27.66,6.18,54.17l.67-.42.19-2.86,11.87-8.17L93,175.94l-1.3,0c-3.74-.14-6.37,3.69-7.27,6.88-1.59,5.62-1.8,7-2.53,15.93A84,84,0,0,1,80.22,209a7.15,7.15,0,0,0-.32,1.85A89.69,89.69,0,0,0,101,209s2.46-11.7,3.34-16.67a4.31,4.31,0,0,0,2.32.67c5.78-.63,5.28-8.55,2.3-8.77ZM83.21,23.91l3,10.63-7.42.69L72.66,24Zm45.61-.14L121.2,39.94c-16-2.24-25.24-2.46-43.81.17L67.74,24l2.54,0,7.27,12.88,10.82-1.08L85.38,24l2.85-.09,3,11.56,16.73-.09,1.6-11.45,3.08,0-2.06,11.72,9.89,1.24,5.71-13.1Zm-21.46.14-1,9.84-13.84.11-2.22-9.95Zm16.77-.18-4.7,11.67-6.84-.91,1.87-10.6Zm-81.31,19c1.07.84,1.4,1.05,1.22,1.41s-.44.31-1.35-.45a8.76,8.76,0,0,0-8.06-2.16C27.67,44,26.46,52,31.3,57.47c4.82,4.25,13.27,1.69,14.63-5,0-1.23,1.11-1.7,1.11-.11C46.5,58,43.88,62.75,41.66,66.3H54.45C51.35,61.66,50.31,59,49.39,52c0-1.09.75-1.25,1-.23.73,4.91,4.55,8.8,9.61,8,10.29-2.08,10.34-16.06,1.34-18.32a8.2,8.2,0,0,0-7,2c-.76.67-1,.78-1.29.52s.06-.57.92-1.33c4.75-3.5,4.53-9.89.21-13.47a9.7,9.7,0,0,0-12.31.44c-4.46,4.16-3,10.17,1,13.1Zm89.75-7.56c.31,1,.62,2,.69,2.17,1.12,3,1.58,4,2.31,5,.12.17.15.15,0,.29-3.37,1.64-9.45-2.4-10.91-6.11.18-.35,1-1.85,1-1.85.42.82.11,1.64.38,2.38.07.32.77-2.14.77-2.14a7,7,0,0,1,.75,3.19c0,.33.87-1.41.87-1.41a7.53,7.53,0,0,1,1,4c1.22-1.48.46-2.33,2.35,1.44.22-.39.11-.81.4-.7a7.06,7.06,0,0,0,2.41.78c-.56-.69-1.63-1-1.92-2a6.49,6.49,0,0,0,.9,0,6.85,6.85,0,0,1-2.61-2c.22-.08,1.09.07,1,0-1.3-1.18-3.26-2.13-.43-1.86-1.84-1.3-3.89-2.19-.69-2.1-2.28-1.07-2.89-1.74-2.47-1.92a5.25,5.25,0,0,0,2,0c-1.83-.74-2.59-1.09-2.66-1.33s.78-.47,1.37-1.11c0,0-.73.17-1-.17,0,0,.35-1,.63-1.63,2.33,2.12,3.25,5.11,3.85,7Zm19.64-4.11-15.4,16.6,5,.07L142,77.78c1.74.23,4.74,0,5.89,1.16.7,1-2,3.1-3.57,2.67a6.37,6.37,0,0,0-2.3,0l.1,33.47c-3.29-6.1-5.8-10-9.44-20.56,1.05-.74,2.14-1.3,2.32-1.42-1.4-3.38-2.37-8.68-.41-13.31l1.34.81a15.62,15.62,0,0,0,.26,10.84l.38-.38a10.94,10.94,0,0,1-.66-1.62,9.56,9.56,0,0,1-.56-2.75,14.81,14.81,0,0,1,.41-4.77c.15-.47.36-1.17.47-1.38a3.1,3.1,0,0,0,.21-.48c-4-1.6-6.8-4-10.22-5.63l-.33-.16c-.43-.25-.31-.33.36-.6,1.43-.57,2-1.25,2-2.64-.05-2-1.1-2.73-3.4-2.6-.83,0-.89,0-1-.25-.35-.67-1.55-3.33-1.55-3.43a12.4,12.4,0,0,0-.56-1.33,16.34,16.34,0,0,1-1.24-3.28c-.11-.55-.43-.77-.51-.2a32.08,32.08,0,0,1-2.27,9,10.07,10.07,0,0,0-.54,1.42c.1.1,1.93,1,2.79,1.3,3.35,1.38,4.87,2.22,4.35,2.43-.36.14-.49.39-.58,1.1-.24,1.87-.21,2.82.1,3.41s.32.67-.22,1-.36.3-.49,1.86a20.28,20.28,0,0,0,0,3l.84,1.07-.85,1-.19,4.85,1.14.86-1.07,1.06.38,4.42a2.06,2.06,0,0,1-.33.61c1.82,18.68,8.82,37.51,19.31,50.34l.1,30.69,10.28,10.29Zm-.81,2v2.41l-8.72,9.4,8.72.16v2.05L138,47Zm-.13,4.1,0,6.78h-6.53ZM13.46,39.88c-5.45.2-4.56,6.35-2.2,8.17,1.43,1.32,1.45,1.42-.31.42-3.21-2.08-6.6-.63-6.7,2.87-.17,5.65,6.5,6.11,7.87,1.41.11-.62.67-1.39.62-.23-.09,1.9-2.49,6.63-2.69,6.57h6.08c-.45-1.13-2-4-2-6.35,0-1.62.43-.56.66.24a4.12,4.12,0,0,0,8.13-1c.09-3.66-3.4-5.88-6.27-3.71-1.64,1.14-1.65.85-.34-.6,3-3,1.31-7.94-2.84-7.78Zm77.95.67,1.35,0c-.05,1.36-.59,7.67-1.24,13.19-.72,6.23-2.22,11.6-2.51,11.6l-1.31-.8c2.18-7.14,2.76-16.33,3.71-23.94Zm6.17-.19c-.19,3.86-1,6.55-1.25,11.11C96,57,95.07,64,92.57,69.71A8.56,8.56,0,0,1,88,74.32c-3.84,1.5-7.09-3.25-4.5-6.74,2-2.76,5.26-2.73,6.23.07.8,2.31-1.78,5.2-3.84,4.31-1.44-.63-1.07-3.21.54-3.82.67-.25,1.23.59.9,1.36-.26.59-.28,1,.07.71a1.47,1.47,0,0,0-1.45-2.55c-2.41,1.22-2,4.8.42,5,3.08.3,5.45-3.48,7-10.67C95,53.9,94.57,46.7,96.16,40.39Zm-3.93.14,1.62,0c-.13.59-.16,1.23-.27,2-.63,4.22-1,10.38-1.66,15.21-.92,6.81-2.57,10.95-2.61,10.45a7.3,7.3,0,0,0-1.11-2.15,50.83,50.83,0,0,0,2.76-12.53c.5-4.54.64-8.74,1.27-12.89Zm-6.9.39,1.41-.08A149.5,149.5,0,0,1,85.5,61.55c-.24,1.06-.32,1.52-.52,1.6s-.59-.26-1.5-.76c1.38.2,2.48-15.35,3.27-21.5ZM89,40.76l1.54-.16c-.23,3.27-.79,8.4-1.4,13-.75,5.6-1.72,10.55-2.21,10.48l-1.29-.44c.86.26,3-16.43,3.36-22.91ZM86,40.91c-1,6.84-1.11,14.83-3.19,21.22l-1.44-.68c.39.13,1.42-4.15,1.77-9,.3-4.22,1.06-8.81,1.28-11.36Zm-2.38.26c-.57,2.41-.57,6-1,8.93-.53,3.68-1.1,11.14-2,11l-1.48-.75c.78.24,2.13-13.9,2.94-18.92Zm-3.88.6,1.5-.21c-.72,5.52-2,18.39-2.79,18.49l-1.4-.74a168.94,168.94,0,0,0,2.69-17.54Zm-.93.21c-.62,6.07-1.19,12.21-2.49,16.93l-1.53-.69S75.89,53,76.4,49.39s.57-4.12.73-5a10.85,10.85,0,0,1,.44-2.15Zm65.64,6.22-.15,29.14-1.7-.07.07-29.12Zm4,.23a1.16,1.16,0,1,1-1.16,1.16,1.16,1.16,0,0,1,1.16-1.16ZM121.14,59.12c1.2,2.2,2.12,3,3.18,3.43a2.85,2.85,0,0,0,3.59-3.73c-.5-1.38-1.78-1.58-3.41-1.3,0,0-.7-.5-1.52-3a50.31,50.31,0,0,0-2.5-6c-.1,3.7-1,7.55.66,10.58Zm29.08-8a1.17,1.17,0,1,1-1.16,1.16,1.17,1.17,0,0,1,1.16-1.16Zm-3.18,0a1.16,1.16,0,1,1-1.17,1.16A1.16,1.16,0,0,1,147,51.18Zm-26-.28c1.07,2.24,1.3,3.92,2.35,5.94.45.89.87,1.64.87,1.64,3.41-1.6,4.73,2.44,2,3.73s-5.8-3.55-5.5-8.75A18.47,18.47,0,0,1,121,50.9Zm27.56,3a1.16,1.16,0,1,1-1.16,1.16,1.16,1.16,0,0,1,1.16-1.16Zm3.08,2.18v2.48l-6.07,5.89v-2.4ZM71.86,58c1.16,0,1.71.36.94.67A5.45,5.45,0,0,0,69,64.12c0,1.42.17,1.61-.71.81C66,61.8,69.26,58,71.86,58ZM74,59a2.62,2.62,0,0,1,.84.11c.69.22.44.24-.71,1-2.2,1.45-2.86,2.88-3,5.8,0,.44.06.8,0,1S71,67,70.87,67c-.42-.07-.67-.52-.8-.89-1.39-2.78,1.18-7,3.91-7.1Zm2.38,1a1,1,0,0,1,.49.09c.54.27.34.3-.64,1a6.87,6.87,0,0,0-2.82,5.11c-.13,1.31.89,2.87-.9,1.58-1.26-1-1-3.75.33-5.61A5.53,5.53,0,0,1,76.36,60Zm75.28-.57v2.82L145.57,68V65.13ZM78.31,60.9c.69,0,1,.45.19,1a6.8,6.8,0,0,0-3,6c.11,1.48.17,1.75-.78.77-1.53-1.59-.45-5.88,2.51-7.49a2.48,2.48,0,0,1,1.11-.29Zm2,.82c1.13,0,1.29.55.28,1.26a7.42,7.42,0,0,0-3.19,5.88c0,1-.07,1.12-.51.79-2.23-1.71.16-7.65,3.18-7.91l.24,0Zm39.9.19c.28,0,.78,1,1.55,3.06A21.54,21.54,0,0,0,124,69.54a1.81,1.81,0,0,0,.76-.27c2.54-1.33,4.33,2.46,1.83,3.87-1.79,1-3.48-.07-5-3.21-1.83-3.7-2.34-6.45-1.45-7.93,0-.07.08-.09.13-.09Zm-37.83,1a1.82,1.82,0,0,1,.88.19c.66.34.57.59-.45,1.19A6.28,6.28,0,0,0,79.68,70c0,1.49-.44,1.57-1.32.25-1.53-2.28,1.53-7.19,4-7.3Zm2.54,1.33c1,0,1.66.39.7.89-3,1.61-4.32,3.92-3.74,6.76.18.89-.83.14-1.45-1.08-.9-1.77.76-5.19,3-6.24a3.71,3.71,0,0,1,1.45-.33Zm34.34,2.61c.19,0,.42.52.91,1.77.31.81.74,1.79.94,2.16a2.12,2.12,0,0,1,.32.79c-.18.28-1.58-.2-2.06-.71a3.69,3.69,0,0,1-.47-3.55c.14-.3.25-.47.36-.46ZM148.5,69a1.16,1.16,0,1,1-1.16,1.16A1.15,1.15,0,0,1,148.5,69ZM29.38,70.88A1.16,1.16,0,1,1,28.22,72a1.16,1.16,0,0,1,1.16-1.16Zm48,.35c1.27,0,1.66.56,1.88,2.48.14,1.32.43,1.45,2.51,1.1s2.93.22,3.08,2.49c.13,1.81.11,1.79,2.61,1.81s2.72.27,3,2.79c.21,1.87.14,1.82,2.56,1.78,2.68,0,2.92.16,3.1,2.53.14,1.92.27,2,2,1.9a35.63,35.63,0,0,1,5.29,0c1.42.31,1.48.25,1.79-1.67.4-2.53.9-2.85,4-2.53,1.53.15,1.71.12,1.92-1.23.29-1.79.65-2.32.65-.76,0,3.92-.27,4.1-2.89,3.41-2-.53-2-.13-2.2,1.77-.18,1.67-.47,2.35-1.08,2.62a6.61,6.61,0,0,1-2.73-.15,29.5,29.5,0,0,0-3.58-.09c-4.35,0-4.4.06-4.39-3,0-1.29-.29-1.57-2.57-1.5-2.86.09-2.71.16-3.19-3.27-.18-1.19-.27-1.24-2.64-1.21-2.58,0-3.16.08-3-2.09.14-2-.34-2.5-2.5-2s-2.73-.44-3-2.21-.35-1.22-1.45-1.31-1.07-1.46.22-1.58c.22,0,.42-.06.6-.06Zm72.93.59A1.16,1.16,0,1,1,149.14,73a1.16,1.16,0,0,1,1.16-1.16Zm-3.27.07a1.17,1.17,0,1,1-1.16,1.16A1.16,1.16,0,0,1,147,71.89ZM31.12,73.82A1.17,1.17,0,1,1,30,75a1.16,1.16,0,0,1,1.16-1.16Zm-3.26,0A1.16,1.16,0,1,1,26.7,75a1.16,1.16,0,0,1,1.16-1.16Zm60.69,1,12.08,9,11.43-7.65L112,79l-11.35,7.55L86.32,75.44Zm60.11.13a1.17,1.17,0,1,1-1.17,1.17A1.17,1.17,0,0,1,148.66,75Zm-19.79,1.52,2.87,4.66-2.86,2.07,2.6,3.33-2.81,2.88,3.09,1.95-2.88,4-4,1.78,4-5.25-3.31-2.27,3.14-3.38-2.82-3.69,2.91-2.27-3.14-5.16.2-.25Zm-52.94-1L97.15,91.34s2,1.47,2.52,1.83c1.19.76,1.43.45,2.62-.36,2.68-1.59,9.17-6,9.17-6l0,2.29S104.88,94,101.27,96a1.34,1.34,0,0,1-1.45-.27c-7.88-6.24-15.95-12.29-23.93-18.41Zm48.76.25c.09.16.37.22.51.43.94,1.45,2.65,4,2.65,4l-3,2.37,2.74,3.59-3.42,3.48,3.5,2.38a33.51,33.51,0,0,1-3.82,4.84l0-2.58,1.41-1.69-1.61-1.1V87.93l1.64-1.73-1.5-1.51.27-3.88,1.42-1.13-1.18-1.62Zm-95.27.79a1.16,1.16,0,1,1-1.16,1.16,1.17,1.17,0,0,1,1.16-1.16Zm122,4.23L145.5,86.2V83.72l5.91-5.79ZM32.8,78.08v3l-6.31,5.82V84Zm118.61,3.43v3L145.5,90V87.08Zm-6.95.46.13,96.48,6.85,7.25v2.41l-8.67-9-.2-97.07ZM32.8,81.69v3.36L26.49,90.8V87.64Zm43.12.62,8.33,6.48,0,22.62a53.85,53.85,0,0,0-8.65-5.33Zm72.74,7.31a1.16,1.16,0,1,1-1.16,1.16,1.16,1.16,0,0,1,1.16-1.16Zm-61.9,1.11,0,23.08-1.64-1.5-.1-22.9ZM29.83,91a1.16,1.16,0,1,1-1.16,1.16A1.16,1.16,0,0,1,29.83,91Zm120.38,1.64a1.17,1.17,0,1,1-1.16,1.16,1.16,1.16,0,0,1,1.16-1.16Zm-3.3.15a1.16,1.16,0,1,1-1.16,1.16,1.16,1.16,0,0,1,1.16-1.16ZM87.7,92.63l5.08,4.75-5.24,5,0-2.3,2.91-2.8-2.93-3Zm1.93.42,4.24,3.13-.66.8Zm-58.08.7a1.16,1.16,0,1,1-1.16,1.16,1.16,1.16,0,0,1,1.16-1.16Zm-3.4.06A1.16,1.16,0,1,1,27,95a1.16,1.16,0,0,1,1.16-1.16Zm83.33.42c.82,9.23,1.38,15.62,3.77,24.33l-11,7,.1-26.75Zm30.23,21.13-.05,31.71c-10.35-14.73-15.93-31.94-17.73-48.26,0,0,5.56-2.56,8.26-4.13,2.86,6.7,1.62,6.69,9.52,20.68Zm7.09-19.79a1.16,1.16,0,1,1-1.16,1.16,1.16,1.16,0,0,1,1.16-1.16ZM29.88,96.82A1.16,1.16,0,1,1,28.72,98a1.16,1.16,0,0,1,1.16-1.16Zm64.71-.11,4,3.07v2.33l-4.82-4.63Zm-1.38,1.23,5,5L93,108.19l-5.21-4.94Zm37.93.17-4.86,2c1.86,16.84,6.68,29.45,13.17,39.68l.15-23.61c-3.35-5.31-5.89-11.71-8.46-18.06Zm20.41.35v2.65l-6.05,5.54V104ZM93.21,99.92,90,103.05l3.23,3.13,3.11-3.13ZM32.8,99.57v2.82l-6,5.79v-3Zm67.57,1.58,0,26.94-1.34.63.1-28.15Zm-7.23.4L94.6,103l-1.52,1.53-1.44-1.46Zm58.41.29v3l-6.05,5.65-.1-2.91ZM84.66,113.29c6.24,5.39,11,13.59,16.3,18.17a38.79,38.79,0,0,0,10.14,5.61,28.94,28.94,0,0,0,8.88,1.47l2.55.06,1.07,1.91-1.78,0-.11,6.73a31.59,31.59,0,0,0,5.52-.24l.66,1.22a44.74,44.74,0,0,1-33.1-9.38c-3.46-2.85-6.27-6.32-9.69-11.38-6.59-10.27-18.19-15.23-29-15.34l-.9-1.4,1.81.06a29.86,29.86,0,0,0,.2-3.48c0-2.48,0-2.91-.18-3a24.53,24.53,0,0,0-5.14.09l-.81-1.45c12.88-1.33,25.55,3.16,33.57,10.36ZM32.8,103.15v2.76l-6,5.66v-2.76Zm66,.23-.16,2.47-2.86,2.83,3.05,3-.08,2.06-5.36-5Zm-39.2.88c-.27,0-.44,0-.47.08s0,1.18-.27,5c-.09,1.4-.18,1.41,1,1.55,1,0,3.2.6,4.68.77,1.24.17,1-.21,1.33-1.2s.59-2,1.06-3.6.23-1.47-2.56-2a35.35,35.35,0,0,0-4.77-.63ZM87.48,104l4.85,4.84-4.78,4.86-.08-2.35a32.59,32.59,0,0,0,2.83-2.68l-2.82-2.88ZM63.12,105.6l.52.85,1.25.21-.22.87.64.9-.79.59,0,1.09-1,0-.85.61-.67-.86-1,0,0-1.21-.64-.54.76-.68-.1-1.08,1.21.2Zm-7.89,1.46.77.5-.79.54,0,.83-.48.41-1.76-3.44,1.15.46.87-.58Zm14.14-.8c-.62,0-.7,1.15-1.37,3.31-.93,3-1,2.73.79,3.35.8.28,2.32.8,3.13,1.17,2,.93,2,.92,2.7-.33.33-.56.94-1.92,1.37-2.63,1.08-1.76,1.11-1.68-.87-2.63-1.16-.56-1.87-.79-4.31-1.78a4.74,4.74,0,0,0-1.44-.46Zm2,2,.85.53,1-.4.19,1,1,.41-.3,1,.46.76-.89.17L73,113.2l-1-.69-1,.38-.29-.78-1.07-.51.39-.86-.54-1.15,1.23-.1Zm21.53,1.06,5.37,5.25-4.89,4.89L88,114.19Zm55.94,1a1.16,1.16,0,1,1-1.16,1.16,1.16,1.16,0,0,1,1.16-1.16Zm-70.25.26c-.32,0-.49.29-.76.84-.12.23-.78,1.47-1.39,2.43-1.38,2.15-1.38,2,0,2.89a30.39,30.39,0,0,1,3.08,2.51c1.07,1,1,.73,3.25-1.57,1.5-1.5,2.43-1.92,1.84-2.71-1.42-1.22-2.59-2.11-4.13-3.28-1-.76-1.54-1.12-1.89-1.11Zm14.57.58L90,114.21l3.56,3.23,3-3Zm-54.17-1,0,24.24c3.48,5.95,7.05,11.95,8.91,18.63l5.1-2.49c-2.44-19.8-8.11-30.78-14-40.38Zm-9.08,1.53a1.16,1.16,0,1,1-1.16,1.16,1.15,1.15,0,0,1,1.16-1.16Zm63.28,1.29,1.53,1.4-1.41,1.52-1.54-1.59Zm57.07.23a1.16,1.16,0,1,1-1.16,1.16,1.17,1.17,0,0,1,1.16-1.16Zm-3.12.11a1.16,1.16,0,1,1-1.16,1.16,1.15,1.15,0,0,1,1.16-1.16Zm-67.84-.07.88.65,1-.45.07,1.22,1,.47-.59.86L82,117l-1,0-.79,1-.71-.68-1.39.09-.22-1.18-.6-.47.47-.79-.35-1,1.19-.08Zm-51.1,1.29A1.16,1.16,0,1,1,27,115.6a1.16,1.16,0,0,1,1.16-1.16Zm3.34,0a1.17,1.17,0,1,1-1.16,1.17,1.17,1.17,0,0,1,1.16-1.17Zm67.23,2.77L96,119.83l2.72,2.84-.08,2.18L93.76,120l4.92-4.84Zm-27.38-.56L61,123.57l-.63-1.72,9.26-6.06Zm77.3-.56a1.17,1.17,0,1,1-1.17,1.17,1.16,1.16,0,0,1,1.17-1.17Zm-62.3.7c-.48,0-1,.6-1.9,1.59s-2,2.12-2.23,2.28c-.72.51-.68.63.57,2,.38.43,1.1,1.31,1.6,2s1.3,1.45,1.45,1.61c.51.53.79.43,3.14-1.26,2.84-2,2.83-1.74.21-5.12-1.5-1.94-2.22-3.13-2.84-3.09Zm-56.52.72a1.16,1.16,0,1,1-1.16,1.16,1.15,1.15,0,0,1,1.16-1.16Zm61,.42,1.87,2-.17.2Zm60.7.45v3.48l-5.79,5.35v-3.19Zm-64.78,1,.71,1,1.19-.07-.18,1.13.63.47-.61.86,0,1.09-1-.23-.81,1-.79-.92-.93.11,0-1.14-1-.54.67-.73,0-1.28,1.39,0Zm28.62.07.57,1.76-14.46,9.41-1.26-1.46Zm-37.86,1.18,1.15.86L63.43,131.3,63,130Zm-44.4-.38v2.9l-6.4,6.17v-3Zm60.11.7.19-.16,5,4.77-.94,1Zm-13.71,1.4.14,28.14-1.33-.91.11-26.71Zm.82.65,1.08,1-1,1Zm71.2-.24v2.85l-5.79,5.49v-3ZM33.06,124.18v2.68L26.66,133v-2.71Zm59.68.36a1.12,1.12,0,0,0-.61.31c-.24.19-.82.6-1.29.9a26.27,26.27,0,0,0-3.29,2.35c-.13.33,1.62,2.61,4,5.34,1,1.08.92,1.28,1.88.33.76-.87,3.55-3.23,3.47-3.86s-1.11-1.56-3.49-4.77c-.32-.41-.51-.59-.72-.6Zm-10.75.3,3.8,5.45-.5.5-4.67-4.61Zm-7.44.64v26.26l-7.14,5.08c.13.07-.88-15.78-3.61-24.23Zm17.77.93.7,1.3,1.06-.18-.14,1.2.9.71L94,130.66l.12.87-1-.24-.94,1L91.43,131l-1.36,0,.19-1.2-1-.8,1-.62.14-1.09.9.08Zm6.2.2.12,1.07-.64-.55Zm-18.27,1.91V127l4.56,4.4-4.66,4.36,0-2.08,2.64-2.52Zm37.66-.86.64,2-9.36,5.77-1.89-1Zm30.83,3.24a1.17,1.17,0,1,1-1.16,1.16,1.17,1.17,0,0,1,1.16-1.16Zm-59.57,3.78-3.29-3.29.41-.45Zm8.47-3c-1.11.95-3.49,3.7-3.49,4.16s3.3,3.29,5.27,4.55c.62.4.87.41,1.11,0,3.42-5.1,3.56-4.93,2.21-5.93a35.75,35.75,0,0,0-4.08-3.15c-.46-.23-.54-.09-1,.32ZM85.32,132l5.41,5.2-5,4.85-5.22-5.51ZM30,132.36a1.16,1.16,0,1,1-1.16,1.16A1.16,1.16,0,0,1,30,132.36Zm68.5,1,.91.81,1.09-.29.24,1.08,1,.38-.56,1.1.08,1.38-1.06-.2-.73,1.13-1.08-1.08-1.23.1.07-1.2-1.08-.53.68-.79-.43-1.08,1.3.2Zm51.83.48a1.16,1.16,0,1,1-1.17,1.16,1.16,1.16,0,0,1,1.17-1.16Zm-67.82,2.74,3.21,3.28,2.95-2.83-3.13-3.3Zm64.62-2.7a1.17,1.17,0,1,1-1.17,1.17,1.16,1.16,0,0,1,1.17-1.17ZM28.36,135.15a1.16,1.16,0,1,1-1.16,1.16,1.16,1.16,0,0,1,1.16-1.16Zm3.4,0a1.16,1.16,0,1,1-1.16,1.16,1.15,1.15,0,0,1,1.16-1.16Zm53.75.25L87,136.92l-1.35,1.43-1.51-1.56Zm19.84,1c-.75.53-2.78,4.38-3.13,5.23a5.91,5.91,0,0,0,2.2,1.39c1,.49,4.43,1.85,4.74,1.92.68.17.8-.09.91-.53.06-.24.33-1.13.63-2.1,1-3.41,1.36-3.25-.2-3.77a33.26,33.26,0,0,1-3.29-1.24c-1-.48-1.53-.91-1.86-.9Zm43.3.61a1.17,1.17,0,1,1-1.17,1.17,1.16,1.16,0,0,1,1.17-1.17Zm-55.45,1.6.18,22.83-1.79-1.4,0-22.91Zm-8,3.89-4.93,5,0-2.56,2.76-2.5-2.81-2.94,0-2a62.74,62.74,0,0,1,5,5Zm-55.27-4.38a1.16,1.16,0,1,1-1.17,1.16,1.16,1.16,0,0,1,1.17-1.16Zm76.11,0,1,.83.83-.5.48.85,1.2.17-.54,1.3.7,1-1.17.22-.28,1.39-1.15-.68-.87.37-.63-1.17-1.35-.06.74-1.28-.7-1,1-.07Zm-15.22.09v2l-2.14,2.18,2.15,2.34v2.34l-4.46-4.54Zm22.88,1.32c-.44,0-.45.49-.8,2-.07.34-.31,1.24-.52,2-.65,2.31-.73,2.35,1.27,2.75,1.16.17,6.19,1.35,6.29.55.13-1.37.21-4.57.23-5.66,0-.36-.05-.71-.41-.75-2.29-.27-4.84-.88-6.06-.92Zm-19.57.1a99.16,99.16,0,0,0,8.89,5.71l.09,23.48-9-6.7Zm57.27.07v2.87l-6,5.73v-2.75Zm-35.14,1,.52,1.12,1.09-.37v1.34l1,.61-1.17.54-.11,1.62-1.19-.37-1,.61-.87-.91-1.06,0,.39-1.44-.68-.66,1-.49.08-1.28,1.07.64Zm-83.08-.21v2.78l-6.53,6v-2.43Zm91.26,1.74,1.46,2.48-.53,1-1-.48-1.08.4.16-1.33-.83-.66.85-.77,0-1ZM85.77,143l5,5.19-5.1,5.26-5-5.26Zm65.64,3.25-6,5.56v-2.7l6-5.69ZM33.19,144v2.71l-6.53,6.11v-2.5Zm52.59,1-3.25,3.21,3.23,3.24L89,148.29Zm0,1.84,1.39,1.43-1.33,1.38-1.44-1.39Zm-5.58,2,5,5.1-.57.67-4.4-3.42Zm10.65.41.13,2.3-2.71,2.31,2.48,2.6.06,2.39L86.16,154Zm57.84,2.34a1.16,1.16,0,1,1-1.16,1.16,1.15,1.15,0,0,1,1.16-1.16ZM30.08,153a1.17,1.17,0,1,1-1.16,1.16A1.16,1.16,0,0,1,30.08,153Zm23.76.71-3.66,5.48,2.89,1.93-2.73,3.68,2.84,3.42-2.86,2.45,2.9,5a14.09,14.09,0,0,1-3.39-1.53l-2.19-4.16,2.52-2.17-2.56-3,2.68-3.18-2.69-1.88,2.94-4.51Zm96.29.73a1.16,1.16,0,1,1-1.17,1.16,1.16,1.16,0,0,1,1.17-1.16Zm-72-.09,25.28,19.49-.1,2.58L78,157l-10.73,7.58.09-2.76Zm68.94.25a1.16,1.16,0,1,1-1.16,1.16,1.15,1.15,0,0,1,1.16-1.16ZM88.19,157l-.26.05-2.76-2,.6-.68s1.81,2,2.42,2.64ZM31.8,155.92a1.17,1.17,0,1,1-1.16,1.17,1.16,1.16,0,0,1,1.16-1.17Zm-3.13,0a1.16,1.16,0,1,1-1.16,1.16,1.16,1.16,0,0,1,1.16-1.16Zm120.07,1.53a1.16,1.16,0,1,1-1.16,1.16,1.16,1.16,0,0,1,1.16-1.16ZM30.07,158.75a1.17,1.17,0,0,1,0,2.33,1.17,1.17,0,0,1,0-2.33Zm121.34,2.17v2.56l-5.67,5.5V166.5Zm-76.52.77c.84,0,2,0,3.49.08,1.3,0,2.74.08,3.2.07,1.8-.05,2.39.56,2.42,2.51,0,1.73,0,1.72,2.29,1.82,2.73.11,3.45.81,3.49,3.39,0,1,.83,1.4,2.42,1.17,2.5-.35,3,0,3.28,2.32.24,1.95.11,1.85,2.41,1.83,2.47,0,3,.4,3,2.3,0,1.1.28,1.43,1.24,1.52s1.46.61.95,1.13a3.11,3.11,0,0,1-1.31.17c-1.57,0-2.09-.48-2.38-2.28-.21-1.25-.33-1.32-2.42-1.26-2.67.08-2.88-.08-3.17-2.42-.25-2-.58-2.2-2.88-1.77-1.67.32-2.55-.42-2.77-2.29-.24-2.11-.34-2.19-2.7-2.27s-3-.5-3.06-1.93c0-2.21-.31-2.41-3.23-2.32a32,32,0,0,1-3.7-.07c-1.76-.18-1.75-.19-1.93,1.5-.26,2.54-.63,2.77-4,2.53-1.4-.1-1.5,0-1.59,1-.13,1.34-.62,2.16-1,1.66-.2-.26-.2-.29,0-2.24.23-2.19.25-2.2,3.1-2,1.93.14,1.84.21,2-1.54.26-2.14.22-2.63,2.75-2.65Zm-41.6-.2v2.81l-6.63,6.15v-2.72Zm20.58,3.3,1.44,2-.47,3.67-1.22.92.86,1.74-.27,2.14-.35.19-2.4-4.67,2.84-2.5-2.91-3.56L54.14,161l-2.86-2,3.44-5.06c.59-.73.63,2.15.63,2.15l-1.42,2.15,1.59,1.38h0V163Zm1.82-1.65.15-4.6-1.24-1,1-1.59-.07-4.07-.29-.2C52.82,122.6,38.56,105.4,36.33,101.5a1.59,1.59,0,0,1-.41-1.4c0-.44.06-3,0-5.71-.08-13.8,0-23.25,0-23.25L25.51,60l.06,4.08.52.38V83l-.44,0s-.14,5-.1,8.44l.62,0,0,12.78-.54.06,0,8.29h.57s.14,8.68-.07,12.91l-.43,0,0,8.24.49,0,0,11.78-.6.09.16,7.78.49,0c.18,4.81.1,13.11.1,13.11l-.57,0,.14,7.72.41,0L26.27,188l-.37,0,.14,8,.4,0-.07,6.66-.27,0L26,205.23l.29.66,0,8.87-.22.09-.06,4.46,16.25-16.43-6-.18v-5.31c0-8.76.12-15.83-.14-24.39a4.76,4.76,0,0,0-1.32-.2c-3.08-.18-3.92-.43-3.93-1.17,0-.91,1.38-2,2.54-2.06a2.11,2.11,0,0,0,.7-.27l-.37-97.23-7.27-7.62,0-2.42,9,9.49.34,97.18.34-.16,0-32.64c4.59,6.87,7.17,13.67,9.72,20.48l.94-.33a3,3,0,0,0-.32-.11,78.7,78.7,0,0,0-10.18-21.59l.06-31.63c10.95,15.46,16.24,29.37,18.44,49.42l-5.53,2.77-.54.72-4.19,2.09-.4-.67-2.54,1.76c2,3.42,1.89,8.33.29,10.94l.69.42a12.62,12.62,0,0,0-.26-10.92l1.89-1.17c2.73,5.64,1.46,11.71.18,13.27,0,0,2,1.26,3.39,2a26.39,26.39,0,0,0,4.76,2.2,1.87,1.87,0,0,0,1.86-.09l.55-3.15-.88-1.2,1-.82.47-4.82-1.11-1.11Zm95.72,1.28v3.1l-5.67,5.38v-3.06ZM33.29,167.75l-6.63,6.08V171.3l6.63-6.22Zm115.86,4.13a1.17,1.17,0,1,1-1.16,1.17,1.17,1.17,0,0,1,1.16-1.17ZM35.93,173.76v28.65H34.19l.08-29Zm-5.85-.26a1.16,1.16,0,1,1-1.16,1.16,1.16,1.16,0,0,1,1.16-1.16Zm117.42,1.11a1.16,1.16,0,1,1-1.16,1.16,1.16,1.16,0,0,1,1.16-1.16Zm3.13,0a1.16,1.16,0,1,1-1.17,1.16,1.16,1.16,0,0,1,1.17-1.16ZM31.89,176.4a1.17,1.17,0,1,1-1.16,1.17,1.17,1.17,0,0,1,1.16-1.17Zm59.81,0c6,.75,4.45,7.1,1.89,8.41-3.47,1.62-6.25-1.64-4-4.94,1.63-2.42,4.72-.82,3.53,1.84-.68,1.49-2.07,1.32-2.06-.19.5-1.44,0-.93-.35-.42-1.22,1.59,1.24,3.28,2.51,1.71a3.35,3.35,0,0,0,.68-3c-.46-1.56-2.26-2.48-4.3-1-2.44,2.92-3.75,6.71-4.46,10.94-1.54,9-1.62,18.5-2.94,20.9l-1.43,0c2.09-10.31,2.1-19.14,4.32-27.27,1.1-4,3.91-6.9,6.64-6.89Zm-63,.05a1.16,1.16,0,1,1-1.16,1.16,1.16,1.16,0,0,1,1.16-1.16Zm24.55.16a3.08,3.08,0,0,0-3.09,3c.15,2.05,1.37,3,3.37,2.76,1.06-.11,1-.13,1.75,1.16a37.22,37.22,0,0,1,2.37,6.86c-.82-1.09-2.74-3.12-4.5-3s-3.5,1.94-2.07,4.48A2.86,2.86,0,0,0,54.61,193c2.06,3.22,2.45,6.44,3.11,10.18,0,0,.82-8,1.06-11.19.47-4.89,1.14-8.06,3-11.93a35.26,35.26,0,0,0-5-2.28,9.12,9.12,0,0,1-2.06-.7,2.6,2.6,0,0,0-1.52-.43Zm96,.65a1.16,1.16,0,1,1-1.16,1.16,1.16,1.16,0,0,1,1.16-1.16Zm-92.74,2.56A17,17,0,0,1,59,186.38a23.54,23.54,0,0,1-.39,3.94c-.1.66-.35,0-.8-1.41-1.89-5.95-2.38-7.09-3.69-6.79a3.1,3.1,0,0,1-2-.08c-1.66-.92-1.81-4,.6-4.57,1.92-.41,3.15,1.28,3.83,2.39Zm0-1.48c2.41,1,4,2.39,3.51,4.71-.19.88-.32,1.61-.56,1.51s-.64-1.16-1.39-3c-.17-.58-1.89-3.24-1.56-3.25Zm39.91.1c.12,0,.32.11.59.36,1.91,1.87.88,6.09-1.66,7.31-1,.71-3,.6-3-.09,0-.27.06-.35.33-.35,2.12,0,4.39-3,3.76-6.1-.07-.47-.22-1.1,0-1.13Zm-66.28,1a1.17,1.17,0,0,1,0,2.33,1.17,1.17,0,1,1,0-2.33Zm68.27.36a1.45,1.45,0,0,1,.9.54c1.79,2.16.34,5.84-2.48,7.1-1.07.58-2,.18-1.75-.42a5.72,5.72,0,0,0,3.54-5.67c-.07-1-.4-1.53-.21-1.55Zm-38,.39.65.31-.27.56a2.88,2.88,0,0,0-.38-.87Zm40,.23a.93.93,0,0,1,.76.24c1.16,1.13,1.35,4.29.23,5.84a9.16,9.16,0,0,1-2.62,2.2,2.82,2.82,0,0,1-1.89-.27c-.31,0,.14-.31.73-.65,2.1-1.21,3.49-3.37,3.12-5.4-.22-1.26-.6-1.95-.33-2Zm2.12,1a1.84,1.84,0,0,1,1.25,1c1.38,2,.24,6.13-2.58,7-1.88.57-2.57,0-1.06-.86,2.19-1.27,3.32-3.76,2.68-5.73-.3-1-.58-1.34-.29-1.36Zm2.28,1.45a1.64,1.64,0,0,1,1.39,1,5.23,5.23,0,0,1-.25,4.32,4.81,4.81,0,0,1-3.56,2.45,2,2,0,0,1-1-.15c-.66-.28-.43-.32.81-1a5.42,5.42,0,0,0,2.84-5.55c-.11-.89-.47-1.13-.21-1.13Zm-71.55-.44v3.07l-6.45,6.09v-3Zm54.78.4a15.44,15.44,0,0,1,.94,2.23c-1.51,2.17-1.93,5.73-2.17,8.44-.85,7.65-1.73,16.89-2.12,17l-1.68,0c.64.42,1.46-12.7,2.76-21,.1-.65,1.5-7.06,2.27-6.68Zm19.51,1.36c2.21,1.5,1,6.18-2,7.33-1.12.43-1.53.49-2,0-.32-.3-.62-.41.19-.7a4.63,4.63,0,0,0,3.5-5.18c0-.61-.61-2.19.39-1.44Zm15.35.4a26.55,26.55,0,0,1,5.1,11.19,13.07,13.07,0,0,1,.31,3.65c-.24.66-.61.53-.84-.26-2.15-10.25-13.36-10.6-16.88-1.88-3.23,8.39,5.81,16,12.56,10.5.94-.77,1.27-1,1.53-.72s-.26.8-1.1,1.5c-7.69,7.13-.8,15.41,6.47,15,8.62-.49,11.56-10.75,4.38-15.76-.47-.37-.77-.52-.74-.78.05-.55.44-.47,1.32.27,6.92,6.17,15.49-.52,14.25-7.74-2.1-12.26-15.64-9.17-17.71-.59-.33,1.06-.9,1.22-.91.21a12.5,12.5,0,0,1,.23-2.37c.53-4.8,5.3-12.21,5.3-12.21Zm-33.27.89,1,.65A56.12,56.12,0,0,0,88.74,197c-.54,4.47-1,9.07-1.66,13.46l-1.54.06c.8-2.71,1.17-10.29,2-16.65.46-3.21,1-7.63,2.15-8.28Zm1.75,1.06,1.29.75c-.45,1.81-1,3.79-1.26,5.68-.59,4.22-.82,9.33-2.19,17.2l-1.4.12c.36-2.53,1-8.16,1.59-13.34.66-6,1.69-10.55,2-10.41Zm-58.12-.2v3l-6.45,5.94v-2.77Zm60.31,1.15,1.25.7a82.49,82.49,0,0,0-1.66,9.42c-.56,4.06-1,8-1.74,12.47l-1.49.1c.74-3.43,1.59-11.46,2.25-17.13.39-3.3,1.19-5.62,1.39-5.56Zm-35.5,6.76a49.66,49.66,0,0,1-.48,5.79c-.2.11-.8-5.15-2.93-7.53A2.41,2.41,0,0,1,51.63,189c3.45-3,6.47,3.37,6.47,5.39Zm37.44-5.85,1.8.83c-.22,0-.64,1.2-1.06,3.14C95,198.36,93.77,210,93.56,210l-1.39.12c.45-3.12,1.07-8.06,1.72-12.42.73-5,1.41-9.16,1.65-9.19Zm2.5,1.13,1.37.82a7.71,7.71,0,0,0-.85,2.4c-1.24,5.89-1.79,11-2.55,16.75l-1.49.2c-.12.16,1.28-11.24,2.44-17A7.77,7.77,0,0,1,98,189.62Zm2.14,1,1.46.72c-1.59,4.51-1.74,8.83-3.26,17.9l-1.56.28a162.28,162.28,0,0,1,2.79-17.71,2.51,2.51,0,0,1,.57-1.19Zm61.84.21a12.72,12.72,0,0,1,2.17,6c.07.7,0,1.17-.21,1.17s-.29-.14-.45-.72a4,4,0,0,0-7.71-.58c-1.5,3.86,2.29,7.1,5.29,5.41,1-.61,3.23-2,1,.17a4.88,4.88,0,0,0-1.66,2.68,4.49,4.49,0,0,0,4,5.11A4,4,0,0,0,169,206a5.45,5.45,0,0,0-1.8-4c-1.16-1.1-1.24-1.52-.07-.76s2.68,1.5,3.77,1.28c5.21-1.05,4.11-8-.4-8.42a4.1,4.1,0,0,0-4.09,2.9c-.79,1.85-1,1.22-.66-.12a15.82,15.82,0,0,1,2.64-6Zm-59.74.84,1.65.67L100.47,209l-1.39.19c.86-4.8,1.31-10.35,2.49-14.72a23.48,23.48,0,0,1,.71-2.78Zm-71.9,2.64a1.16,1.16,0,1,1-1.17,1.16,1.16,1.16,0,0,1,1.17-1.16Zm1.51,2.72a1.17,1.17,0,1,1-1.16,1.17,1.17,1.17,0,0,1,1.16-1.17Zm-3,.08a1.16,1.16,0,1,1-1.16,1.16,1.16,1.16,0,0,1,1.16-1.16Zm1.45,2.67A1.17,1.17,0,1,1,29.15,201a1.17,1.17,0,0,1,1.17-1.17Zm10.5,3.88L26.89,217.8l0-2.82,9.55-9.38-9.62-.14,0-1.91Zm-6.38,2.69L27,213.5l-.07-7.24Zm8,.52s0,.26.66,1.49c2,3.54,2.5,6.81,4.31,10.6a11,11,0,0,0,3.36,4.29l-2.24,4.1,63.25-.13-10.12-17.68a121.78,121.78,0,0,1-44.09.08,47,47,0,0,0-2.44,4.71c-2-5.45-8.51-9-12.69-7.46Zm2.3.48c3.34,0,6.13,1.54,8.6,4.91.79,1.07,1.1,1.56,1.09,2a11.86,11.86,0,0,1-1.11,2.18,20.62,20.62,0,0,1-.75-2.45c-.9,3.31-1.26-.53-1.6-1.54-1.1,3.2-1.69-1.2-1.64-2.38-1.49,2-1.39-1.32-2.12-1.94,0,1.77-1.06.56-2.42.18.71,1,2.09,1.66.33,1.88,1.76,1.21,2.64,1,.93,1.69,1.32.73,3.48,1.6,1.09,2.08,1.46.92,3.81,1.31,1.28,2.18,1.91,1.17,4.45,1.09.88,2,1.29.76,3.57,1,1,1.7a8.9,8.9,0,0,1,1.08.63l-1.1,1.74a1.15,1.15,0,0,1-.67-.31c-1.18-1.23-2.31-3.48-3.34-6.63a55.71,55.71,0,0,0-2.62-6.81c-.54-1.08-.49-1.13,1.07-1.15Zm56.49,4,8.74,14.95-2.07,0-7.72-12.8-10.41,1.17,3.43,11.45-3.1.09L87,215a137.47,137.47,0,0,1-16.19-.08l-1.64,11.42-3-.1,1.88-11.31-9.77-1.25L53,226.35l-3,.06c2-3.32,6.89-14.06,7.81-15.12,21.28,3.41,32.34,1.57,43.43.07Zm57.58,10v14.86h-2.51v2.9h8.27v-2.9h-2.78c0-5.07,0-10.15,0-15.23-.13-7.05,7.69-5.83,7.78-1.67l0,2.45h2.77a7.41,7.41,0,0,0,0-2c0-4.74-2.55-6.65-6.66-6.61-6.48.34-7.13,5.5-6.94,8.24Zm-59.62-6.55,6.62,11.51-10.64,0-3.57-10.66Zm-39.78.34A27.24,27.24,0,0,0,66,216l-1.94,10.3-9.42,0Zm26.52,1.21,2.5,10-17.74.09,1.47-10c4.65.27,9.2,0,13.77-.13Z"/></g></g></g></svg>