<svg xmlns="http://www.w3.org/2000/svg" viewBox="0 0 178.58 249.45"><defs><style>.cls-1{fill:#fff;}.cls-2{fill:#e1cf01;}.cls-3{fill:#262e5e;}.cls-4{fill:#d41216;}</style></defs><title>JH</title><g id="Слой_2" data-name="Слой 2"><g id="H"><g id="JH"><path class="cls-1" d="M8.5,0H170.08a8.48,8.48,0,0,1,8.5,8.5V241a8.48,8.48,0,0,1-8.5,8.5H8.5A8.48,8.48,0,0,1,0,241V8.5A8.48,8.48,0,0,1,8.5,0Z"/><path class="cls-2" d="M153.67,29l-9.22,6-.13,7c-5.47-2.63-7.85-6.92-8.71-12-1.54,1.95-1.18,11.12-1.18,11.12l-2.88,3.22a26.67,26.67,0,0,0,3.38,4.09s-1.13,9.91.33,11c-.71-3.16,8.91-14,8.91-12.77,0,0,.09,16.35-.3,32.15-2.58-1.78-8.05-5-11.58-8.25,4.54-6.1,0-13.51-6.92-8.48-4.43-2.4-5.11-13.71-6.2-19.64-.21-1.19-1.33-4.64-1.33-4.64s-14.5-4.07-20.77-3.75c3,8.23,5,18.89-2,25.54-5.52,7.19-17.37,8.67-17.06,8C66.87,72.75,54,78.43,41.45,89.06,39.14,104.88,31,112.67,25.22,117c0,6.41,0,12.75.22,19.22,0,0,5.26-3.45,6.09-2.81C35.93,162,52,167.65,50.43,168.44c-.26.13-5.28,5.29-5.28,5.29L25.48,160.78c-.67,19.77-.28,39.93,0,59.73,3.48-2,9.86-6.66,9.86-6.66l.09-6.72c0-.64,9,5.6,9,13,.7.48,2.23-10.7.83-11.91l3.68-3.79-4-3.82s1-6.33-1.05-10a14.22,14.22,0,0,1-8.26,10.95s-.13-30.51-.31-30.54l12.36,7.83c-.92.19-3.28,4.56-.82,8.11,1.5,2.15,6.87,2,7.29-.47,7.59,7.08,4.67,15.54,8,25.6l21.57,4c-8.89-16.49.76-35.28,18.21-33.94a41.9,41.9,0,0,0,6.23-3.33,66.33,66.33,0,0,0-4.91-6.83l-37.36-.62,17.42-32.65-11.45-.37s9.3-19.74,7.29-21.33c-.7-.56-.41-6.93-.41-6.93L89,110.5c.41-4.56-5-21.93-12.5-33.28l42,.38-23.64,33,12.7.37-7.58,15.56,1.22,12.14L89.89,139c2,16.83,14.45,34.56,18.84,40,7.26-1.72,20.82-12.1,29.24-18.55,1.09-11.29,5-20.91,15.15-28.08l.13-18.82s-5.9,4-5.9,3.72c0-4-2.18-12.34-5.94-19.86C137.32,89.28,131,82,128.91,81.85c3.6-5.46,5.1-6.09,5.05-6.17L153.6,88.27Zm-99,39.59A22.79,22.79,0,0,1,47.57,70c-3.86,0-10.43.78-12.9,5.66-.49,1.49.58,2,1.37,2.43.47.22,1.21-2.28,6.53-2.49,2.84.78,8.49-.85,9.89-2.2a6.46,6.46,0,0,0,2.24-4.81ZM28.3,94.11c0,.79.88,2.07,1.33.74a5,5,0,0,0,0-3.44c-1.2-.68-1.34,1.93-1.36,2.7ZM92.7,121l-5.81,0,0,6.81,5.91.28Zm57,33.93c-.13.68-.75,3.72.67,3.19,1.67-1.28.24-7.2-.67-3.19Zm-5.47,17.11c-.68-1-2.81,1.46-4.54,1.58-7.78.55-13.45-.59-14.4,7.47,4.46-2.85,10.71-1.55,14.74-2.47,2.91-1,6.25-3.6,4.2-6.58Z"/><path class="cls-3" d="M24.45,229.77c-.86-71-.45-141-.2-211.18l131,.74c-.47,70-.56,140.27.37,211Zm5.6-136.52c.12-2-.72-2.87-1.44-1.48-.17.34-.73,3.86.6,4,.88.08.8-1.63.84-2.5Zm-2.12,2.38c0-.48-.3-.69.35-4.86C27,90.29,26,88.27,26.87,87c.35-.5.25-.6.1-1a2,2,0,0,1,.79-2.55c.62-.42.65-.53.45-1.09A2.42,2.42,0,0,1,29.55,79c.95-.33.77-.37.87-1,.22-1.35,1-2.17,2.32-2s1.34.12,1.44-.49c.3-1.7,2.36-3.55,5-4.82,1.34-.62,3.56-1.07,7.8-1.06,2.43,0,5.45-.36,7.16-1.85.27-.27.66-1,.8-.86.32.21.24,1.91-.38,3.45-1.81,4.5-4.26,5.74-11.18,5.69-2.06-.09-5.1.19-6.39,1.5-.38.41-.64.79-.5,1,2.87.41,5.82,1.7,7.53,7.36A176.26,176.26,0,0,1,67.84,71.49c-1.24-6.76,4.62-7.8,7.91-6.46a2.35,2.35,0,0,0,0-1,5.47,5.47,0,0,0-.91-2c-.16-.3-1.08-.89-.9-1.35.3-.75.17-1-.46-1.65-.41-.45-.14-1.41,0-1.8.13-.72.6-1.76.18-2.15-.65-.6-2.87-1.62-4-2.43s-1.28-1.74.57-4.77c.84-1.75,1.63-3.64,2.31-4.9,1-1.91,1.12-3.16.5-4.26a5.78,5.78,0,0,1-.65-3.08S64.7,24.9,61.57,20.65L26,20.53l-.35,81.24L32,95.93l-1.66-2c-.23,1.15,0,2.26-1.43,2.33a.89.89,0,0,1-1-.66ZM49.05,204c.2-3.22-1.34-8.48-3.65-12.12a39.63,39.63,0,0,1-.26,8.85Zm56.08,8.38c-.28-.09-2.62-.23-4.08-.31a12.23,12.23,0,0,1-10.12-5.81c-.51-.79-.3-.76.85.14,3.22,2.52,6.24,4,8.89,3.65,3.76-.54,5.79.84,5.26,2.44-.09.28-.12.11-.8-.11Zm-12.72-7.17c-.76-.65-.81-.94.08-.35,2.72,1.82,6,4.78,10.09,3,.84-.54.06-.46-1.35-.32-2.16.23-4.79-.86-8-3.1-1.58-1.09-.89-2,.89-1.15a4.71,4.71,0,0,0,1.46.48c1.75-1.17,5.44-1.15,5.35-1.14.42-.36-1-.94-3-1.71-1.33-.51-1.65-.71-.66-.75a6.45,6.45,0,0,1,3.2,1,12.83,12.83,0,0,0,3,1.71c.8.06,1.62.18.24.81-.62.3-.57.37-.5,1.07a2.17,2.17,0,0,0,.69,1.71c.86.94,1.23,2.7,0,1.6-.27-.12-.29.11-1,.4-4.22,1.19-7.36-.67-10.42-3.33Zm7.78.31a5,5,0,0,0,.63-1.32c-.08-.51-.53-.35-.76-.06-.4.49-1,1.19-.49,1.44.21.11.42.21.62-.06Zm-1.44-.33.93-1.67c-.23-.1-3.4.55-2.9,1a5.68,5.68,0,0,0,2,.67Zm3.57-5.6a2.21,2.21,0,0,1-.79-3.55c.91-.93,2.45-.85,4.29.28.65.4,1.05.6,1.5.44.74-.27,1,.14,1,.73-.14,1.28-2.13,1.59-3.39.13-1.66-1.94-3.48-.58-2.94.82.27.7.79.82,1.39,1.08,0,.14-.6.29-1,.07Zm-6.59-8.62c2.39-.64,6,1.89,7.89,1.55.84-.18.72,1-.15,1.46s-2.46.17-5.52-1.43c-2.53-1.37-4.57.9-2.89,2.58a2.07,2.07,0,0,0,1.54.52c.85,0,1.1.19,0,.47a2.89,2.89,0,0,1-2.38-.67,2.61,2.61,0,0,1,1.5-4.48ZM45,183.53a6.21,6.21,0,0,1,1.49-4.44l-10.77-7.3L35.91,201c5.34-3.39,7.09-7.66,7.39-13.16,10.54,11.79,7.25,26.15.67,34.33-.27-5-1.76-10.92-7.84-13.95l0,6L26,221.31l.06,6.59,23.75.08,11.48-16.77c-2.08-7.61-1.76-13.93-3.17-17.41-1-2.86-3.06-6.56-4.35-6-4.38,3.47-8.67-.58-8.76-4.28Zm9.06,3.37c3.73,2.69,4.73,7.07,5.49,11,0,0,2,13.22,2,13.39a1.72,1.72,0,0,1-.47,2C57.68,218,51,228.13,51,228.13l66,.38c-3.52-5.12-6.27-10.18-9.62-14.39a10.15,10.15,0,0,0-.81-4,2.13,2.13,0,0,1-.32-2.34c1-2.16,2-4.5,2.85-6.48,1.71-3.79,1.9-3.82-.43-5.05-2.77-1.62-3.26-2.14-2.68-4,.21-.67.24-.93-.62-1.11-.39-.08-1.36-.31-2-.48-1.87-.6-1.33-.23-2,.25-.52.26-1-.72-1.58-1.89-.7-1.34-.87-1.37.28-.68,2.15,1.28,6,.78,4.62-.7a3,3,0,0,1-1.19-2.72c.06-1.62.09-2.09-1-2.32a15.43,15.43,0,0,0-6.64.25c-6.23,1.56-11.22,7-13.12,11-.43.7.55.66,1,.66,2-.18,3.49,3.07,2.15,4.53-.62.65-1.23.25-.57-.59a1.86,1.86,0,0,0-2-2.78c-2.07.59-2.13,3.27-2.39,5.13-.7,5.37,2,12.55,2.69,14,0,0,.15.22.1.22s-.38.3-.52.14c-.48-.54-1.69-4.93-2.34-8.07-1.27-8.68,1-16.66,8.2-21.19,6.39-4.62,9.61-3.62,13.24-3.84a43.89,43.89,0,0,0,4.27-1.76c6.4-3.49,11.58-6.47,17-9.43s8.82-7,13.64-9.54c.22-.11.44-.38.67-.49,6-5.22,11.93-10.34,15.51-13.9a6.72,6.72,0,0,0,.79-1l-.61-30.08s-.6-.5-.6-1c0-1-.38-.85-2.52.67-2.7,1.89-2.89,1.8-2.89,1.8C146,103.5,138.57,89.93,129.53,82l.37-.51s3,2,4.54,3V82.5l-3.65-2.28s-.32-.26,0-.74c.2-.26.7-.07.7-.07l2.92,2.15V79.8l-2.36-1.5.75-1,1.27.82c-.54-1.39.22-1.34,1-.42a5.93,5.93,0,0,1,.92,1.48c.06.19.26.67.26.67l2.08,1.54a3.79,3.79,0,0,1,0-1c.35-1.09,2.84,2.43,2.53,2.51L143,84.5c.5-.77,2.39.76,2.47,1.51.17.33,7.3,4.92,7.3,4.92l.08-2.54.77-1L154,28.8l-9.48,6.06-.1,7.09C139.91,40.5,136,34,135.46,30c-.29-.16-1.58,8-.9,11.54a31.87,31.87,0,0,0-3.16,3L135,48.39a72.5,72.5,0,0,0-.55,9c.15,1.42.17,1.57.6,1.57a.73.73,0,0,0,.65-.69c.85-3.58,3.62-9.16,8.41-11.07.32,0,0,31.93,0,31.93L132.18,71c-.59-.51.78-.48,1.61-3.18,2.15-6.94-5.38-9.25-8.21-5.4-.47,0-2.46-2.45-2.76-3.48-2.2-4.43-2.62-9.45-3-13.48a51.78,51.78,0,0,0-1.49-6.65,2.53,2.53,0,0,1,.31-2.56c3-4,5.8-8.16,8.29-12.24,2.26-3,1.82-3.12,1.82-3.12l-66.17-.22L73.12,34.61l1.07.42c-1.83.24-1.21,1.84-.5,3.56.88,2.11.78,2.55-1.44,6.91-3.24,6.38-3.42,5.82-.18,7.8,2,1.28,2.37,1.56,2.07,3.3s-.37,1.2,1.28,1.35a6.58,6.58,0,0,1,2,.41c.45.21.78.49,1.37.3,1-.32,1-.08,1,.63a4.29,4.29,0,0,0,.62,1.18c.38.61.2.72-.49.28-2.13-1.34-5.68-.77-4.38.69A8,8,0,0,1,76.7,65c.08,1.77,1.24,2.4,3.66,2C85,66.72,95.49,61,97.93,54.47c-5.37,1.83-4.26-4.76-2.35-4.56a6.91,6.91,0,0,0-.53,1.84c-.06,2.35,1.91,2.54,3.27.87.6-.88,1.32-4.14,1-7.81-.42-4.46-2.23-9.43-2.56-10.67,7.68,18.33.63,26.39-10.16,31.65-4.13,1.73-4.7,1.71-7.13,1.83-1.67.13-3.18,1-4.77,1.48C65.42,73.51,54.08,79,43.92,87.2a128,128,0,0,0-18.81,16.48l0,32.34s0,.52.65.12c1.66-.6,3.4-2.11,5-2.7.49,0,.58-.37.75.95.54,2.52.82,5.16,1.59,7.61,3.08,9.76,7.75,16.57,14.56,23.67.76.8,1.9,2.23,1.9,2.23s-.06.09-.07.08a49.78,49.78,0,0,0-4.35-2.68L45,166.84l3.46,2.38c.09.37-.59.89-.59.89l-2.86-2,0,1.57,2.21,1.41c.6.6-.72.91-.72.91l-1.32-1a5.4,5.4,0,0,1,.06.89c-.34,1.16-2.24-1.39-2.58-2.67l-1.86-1.1c.26.76-.41.86-.93.67-1.4-.71-1.32-1.9-1.62-2.61l-2.47-1.57c-.43,2.36-3-1-2.55-1.76l-3.18-2.17c.18.07-1.21.36-1.68.05s-.73-1.79-.73-1.79l-1.91-1.18v2.07l19.61,13.68-.29.53-20.45-14,.83,60.72,10-6.89c-.19-2.28.23-4.3,0-6.89,5.13,3.18,6.85,5.35,9.11,12a19.23,19.23,0,0,0,.55-10.85,9.76,9.76,0,0,0,3.24-3.72c-1.24-1.7-2.44-2.17-3.73-3.75-.11-1.92,1-7.63-.49-9.51,0,0-2.76,8.29-8.69,10.79-.18-8.76,0-30.79,0-30.79s6.09,4.2,9.2,5.91c1.47.78,2.48,1.27,2.5,1.83,0,.28-.57.64-.83,1a10.25,10.25,0,0,0-.58,4.47,4.66,4.66,0,0,0,1.38,2.88c2,2.08,5.54,1.1,7-.5Zm11.8-15.51,23.5-32.68a110.1,110.1,0,0,0,13.6,33Zm11.6-34.48s1.64-3.25,2.39-5H77L78.72,130H83l-2.29,4.87h1.82L85,130H91.7l-2.33,4.87h1.54L93.4,130h6.19l-2.18,4.87h1.46l1.27-2.46.31,4.48H94.29l2.44-5h-2l-2.74,5H86.23l2.5-5H86.54l-2.75,5Zm19-17.47L99,114.19H97l-2.75,5.14H88.1l2.42-5.08H89c-1,1.6-2.69,4.86-2.69,4.86H79.78s1.84-3.45,2.57-5.14H80.74l-1.31,2.09c-.46-.78-.16-2.85-.23-3.73h6.14l-2.47,5h2l2.69-5H94l-2.64,5h1.54l2.61-4.77h6.61l-2.32,4.77h2l-.9,2.07Zm-6.07-9.15-1.25.23C87.57,96.91,80,83,76.85,77.3l37.48.53Zm44-78.59A22.44,22.44,0,0,0,130.6,44L134,41.28c-.22-7.82.4-9.58.4-9.58Zm-3.77,12.88A20.47,20.47,0,0,0,134,56.84a57.62,57.62,0,0,1,.62-8.42ZM37.85,154.35,25.73,146v1.83l14.41,9.78Zm-2.18-4.48c-3.25-1.64-9.94-6.68-9.94-6.68v1.67l10.65,7.48a.35.35,0,0,0,.59-.07c-.42-.71-.92-1.68-1.3-2.4Zm-3-7.25-7-4.86v1.51c1.79,1.6,7.66,5.41,7.66,5.41Zm-7-6,6.55,4.23-.4-1.87-4.66-3.17ZM143.43,78l.35-30.17C137,51,135.6,60.44,135.83,60.73c-6.79-7-9.35-22.09.17-32.24.72,3.26,1,8,7.7,12.29l.17-6.39,9.45-6-.08-7.26-22.65-.17c-3.52,4.45-7,9.51-10.5,14.23-1.31,1.78-1.63,2.61-1.38,3.54,2.28,8.21,1.82,18.32,6.62,23.1,6.43-6,12.46,3.06,7.46,8.68ZM45.56,208.42c.87,2.74.27,8.29.21,8.29,1-.57,3.87-8.59,3.16-11.61M81.71,57.78c-1.6-.46-2.8-1.15-4.5-1-1.33.13-1.78-.31-1-1,1.06-.9,2.1-1.27,4.06-.24,5.93,3.1,6.11-1.43,3.44-1.75-.76-.09-.72-.57,0-.45,4.14.16,2.88,5.65-2.06,4.45Zm-6.92-4.52a6.75,6.75,0,0,0-2.08-.67c-.87.23-.91-.25-.8-.82.25-1.38,1.66-1.13,3.53.06,2.68,1.7,3.7-.75,1.27-2.07-.82-.44-.57-.57-.09-.59,1.27-.05,2.46,1.68,2.13,3.09-.86,2.26-2.93,1.38-4,1Zm7.84-4.18c-1.73-.3-4.24-2.63-5.4-2.79-.66-.08-1.43,0-1.63-.26-.64-.8,1.17-.8,1.29-1.09,0-.68,0-1.1,0-1.34-.32-.43-1.58-2.16-1.54-3,0-.05.66.46,1,.47,3.09-1.63,5.2-.91,7.81.24a15,15,0,0,1,3.9,3c.06.57-1.18-.51-2.15-1.16-2.39-1.66-4.53-2.84-7.53-1.86-.46.16-.38.25,1.15.16s2.73.37,4.64,1.62c.48.3,1,.84,1.4,1,2.4,1.15,2.93,2.27,1.4,2-.33-.07-1-.41-1.59-.63-1.11-.39-.71-.27-1.77.22a7.46,7.46,0,0,1-2,.63c-.56.09-2.39.08-1.58.85A10.19,10.19,0,0,0,83.29,49c.7.32.16.25-.66.11Zm.21-3.74c1.12-.42.24-1.37-1.2-1.58-.33,0-1,1.51-1,1.84s1.63,0,2.25-.26Zm-3.12.16a5.5,5.5,0,0,0,1.13-1.61c0-.81-1-.58-1.26.25-.29,1-.32,1.65.13,1.36ZM76.12,39c-.93-.41-2.19-2.2-.75-1.9a26.13,26.13,0,0,0,3,.16,13.51,13.51,0,0,1,9.36,4c1.25,1.3,1.34,2.27.06,1.37-4.51-4-7.28-3.29-11.64-3.6Zm35.12,139.54-1.26.67c0,.69.26.58.82,1.08a8.07,8.07,0,0,1-1.34.09c-.92-.06-1.13-.05-.73.6.19.3.45.74.45.74a2.82,2.82,0,0,1-1.25-.1c-1.14-.31-1.72-.16-1.29.48l.35.5a15.8,15.8,0,0,1-2.36-.93l-1.07.33c2.14,4.19,9.77,1.54,7.68-3.46Zm37.22-6c1.18-1,.6-2.2-1.12-3.1-.71-.37-.64-.37-1.81.31-1.43.84-1.53.89-.51,2,1.23,1.31,2.57,1.55,3.44.82Zm-4.38-2.8c1.08-.48.68-.4.61-1.53-.32-1.31.42-1.4.79-2.62.15-.67-.42-.42-1.51.6-.91.76-1.17.94-1.17.57s-.63-1.1-1.27-1.21-.49-.21,0-.9a3.94,3.94,0,0,0,.69-4.06c-.79-1.68-1-1.93-2.79-.46-.89.82-2.15,1.46-2.76,2.47-.44.74-.18,1.47.5,2.93,1.72,3.67,4.38,5.31,6.87,4.21Zm6.1,0c1.91-.75,1.14-2.81-1.85-4.89-1.81-1.26-2.32-1.24-.79.12,1,.86,1.14,1.17.72,1.8s-.72,1.13-.37,1.61c.54.75,1.48,1.68,2.29,1.36ZM42.5,166.38l-2.09-1.32v1.8l2.09,1.24ZM146.68,168a2.34,2.34,0,0,0,.77-1.46c.1-.84-1.27-.64-1.92.28s.13,1.9,1.15,1.18Zm4.67-2.83c1-1,.49-2.06-1.46-3.32-.76-.49-1.14-.81-1,.17,0,.29-.3.69-.51.92-.67.76-.37.9,1.55,2.12,1,.62.93.67,1.47.11ZM42.5,163.26,40.41,162v1.63L42.5,165Zm-4.56,1.63,0-1.64-2.71-1.8,0,1.83Zm106.21-.66c-.35.93,1,.51,1.13.41.24-.47,0-.51-.09-.57s-1.2.06-1,.16Zm.61-1.19c.48-.15.54-.09.47-1-.1-1.31.09-1.41,1-2,.7-.45.7-.38.69-1.19,0-1,.05-1.38,1.32-1.58.53-.08.82-.2.87-.62.07-.68-1-1.85-2.42-2.52a35.89,35.89,0,0,0-4.15,3.61l-.53.56.63,1.18c1,1.84.82,2.52.24,5-.11.65.39.56.52-.23s.28-1,1.4-1.22Zm4.7-6.5c-.24,1.48.53,2.39,1.25,1.65a8.85,8.85,0,0,0,.46-4.19c-1.49-1.59-1.65,2.18-1.71,2.54Zm-24,24.53c5.53-3.24,12.64-.59,16.65-3.25,1.87-2.06,3.65-3.72,2.59-5.14-.83-1.11-1.1-1.25-1.89-.55-1.43,1.27-2.8,1.6-6.64,1.65-6.66-.24-10.57,2-10.71,7.29Zm9.46-7.72c3.52.13,6.38-.49,7.69-1.51.82-.63.94-.74-.34-.85-2.73-.22-5.5-3.39-6.37-6.47-.18-.63-.39-1.32-.39-1.32-7.29,5.82-23.33,15-23.33,15,1.06,4.95-2.53,7.9-7.39,6.15-.84-.08-.73,1-.57,1.45a4.15,4.15,0,0,0,1,1.45c.73.62.86,1,.75,1.62s-.09.57.32.79c.73.39.69.95.29,2.1-.43,1.61-.46,2,.7,2.79,1.5,1,4.43,2,4,3.46a68.36,68.36,0,0,1-4,9.15,3.14,3.14,0,0,0,0,2.91c.51,1,.45,2.2,1.12,3.12,3.69,5.47,6.86,10.28,10.22,15.22l35.13.33-.88-81s-5.41,5.33-5.4,5.71,1.28,1.15,1.81,1.24c0-.24,0-1.2.07-1.54,0-.49,1.61-.36,2.13.06.36.3.25,2.24-.12,3.81-.3,1.3-.25,1.31.3,2.06a3.65,3.65,0,0,1,.82,2.71,2.88,2.88,0,0,0,.11,1.38,3.12,3.12,0,0,1-.14,2.68c-.6.83-.61,1-.48,1.4.49,1.55.3,2.86-1.42,3.53a1.6,1.6,0,0,0-.6.79c-.75,2.47-2.15,2.47-4.07,1.76-1.37,5.31-6.91,6.64-10.9,6.48-4.16-.16-8.39.15-10.27,2.87.44-6.44,3.32-9.55,10.26-9.31Zm12.54-10.69a.81.81,0,0,0,.2-1.48c-.91-.72-2,0-1.53,1.07.24.59.64.66,1.33.41ZM38.05,160.32l-2.77-1.92,0,1.72,2.76,1.77Zm5.23,1.41-2-2.35c-5.78-3.53-10.79-7.48-15.59-10.67l0,2.19,1.37.69s.11-.48.21-.76c.18-.52,1.76.94,2.27,2.11l.4.95,1.85,1s0-.53,0-.67c0-1.12,2,.42,2.89,2.24.22.44.5.91.5.91L37,158.45c.69-.94,2.44.34,2.89,1.48.57,1.45,1.57,1.57,1.61,1.58Zm-10.43-.32v-1.66L30,157.85l0,1.69Zm118.84.14c.08-.44-.35-2.14-1-2.24-.4-.06-1,.56-1,1s2,1.72,2,1.25Zm-2.35-2c.64-.69-.16-1.59-1.13-1.28-1.14.37-.74,1.41.54,1.43.28,0,.46,0,.59-.15ZM32.7,158.3v-1.59l-2.66-1.77L30,156.5Zm-5.24-.56,0-1.53L25.73,155v1.84Zm.06-4.59L25.73,152v1.66l1.87,1.07Zm7.27-5.05c-.19-.49-.94-2-.94-2l-8.12-5.67v1.75l9.08,6.1ZM31,134.64l-.1-.71-.72.38Zm-1.72.18-1.13.61,3.43,2.23-.28-1.59ZM148.35,116l.88-.64-1.56-1-.12,1.07Zm1.58-1,1.16-1-3.88-2.74.27,1.7Zm2.75-1.44V112.4l-6.3-4.25.44,2.14c1.11.64,2.47,1.58,3.89,2.57.89.64.9.88,2,.71Zm0-2.16v-1.86l-7.29-4.84.59,2.18Zm0-2.79v-2l-8.83-5.83,1,2.57Zm0-4.89-11.12-7.45L143,99.13l9.7,6.49Zm0-2.85-14-9.29,1.57,2.6,12.39,8.38Zm0-3h-.52c0,1.33-1.48.37-2-1.1-.41-1-.5-1.22-.5-1.22l-2.82-1.91c.06.39.22,1.5.22,1.5L145.15,94s-.54-1.83-.56-1.84l-3.24-2.2c.07.37.12,1-.09,1a3.88,3.88,0,0,1-1.43-1.07,3.3,3.3,0,0,1-.54-1.37l-2.64-1.71-.66.07s-.35-.24-.69-.51a4.06,4.06,0,0,0-2.23-1.74s1.86,2.16,2.85,3.44a12.15,12.15,0,0,0,2,2L152.68,100Zm0-3-1.14-.69.09,1.8,1.05.72Zm-115-4c.07-.11-.22-.24-.54-.94a5.07,5.07,0,0,1-.45-4.19c.2-.88-.59-1.25-1-.32-.28.72-.72,1.13-1.15,1.08s-.48.12-.31.67a1.85,1.85,0,0,1-.88,2c-.65.16-.77.57-.59,1.16.31,1-.76,1.82-1.59,1.77-1.29-.07-.79,1.1.77,2.22.57.41.83.63,1.29.43,1.17-1.11,3.35-2.7,4.41-3.91Zm111.82,3.6-.06-1.71-3.25-2.19.4,2.29Zm3.16-.72V92l-1.33-.86.07,1.83Zm-122-2.67c.31.31.62.35,1.12,0s.35-.75-.25-1-1.33.6-.87,1Zm-1-.76a.93.93,0,0,1,.7-.86c.66,0,.54-.4-.22-.86-.35-.21-1-.72-1.22-.88-1.14-.83-2.24.44-1.39,1.52.7.91,1.75,1.44,2.13,1.08ZM149.2,91.39l-.25-1.9L146,87.54l.23,2.1ZM42.77,86.75a1.44,1.44,0,0,0,.2-.84,7.44,7.44,0,0,0-1.55-3.78,7.31,7.31,0,0,0-2.22-2.07C37,78.9,34,79.4,34.41,80.88c.31,1,.23,1.84-.63,2.35-.58.34-.65.8,0,.8a3.12,3.12,0,0,0,2.13-1.19c.7-1.1,1.1-1.74.94.06-.06.75,0,.69,1.2.63,1.58-.08,1.29.22.36.93a3.49,3.49,0,0,0-.93,4.29c.42.92.71,1.41,1.26,1.29a32.19,32.19,0,0,0,4.06-3.29ZM144,89l-2.88-1.9.11,2,3.11,1.83ZM33.44,87.12A.94.94,0,1,0,32,88.23c.58.51,2.05,0,1.49-1.11ZM31,87.3c-.14-.41.63-1.08.75-1.35.35-.77-2.78-2.91-3.75-1.64-.67.87-.21,1.75,1.6,3,1.09.73,1.61.73,1.4,0ZM143.75,86l-2.66-1.67,0,1.76L144,87.82Zm-4.7,1.56V85.79l-2.68-1.87-.05,1.86ZM34.73,85.47c.49-.48.32-.64-.62-.59-.59,0-.77-.07-.81.2-.09.61.93.89,1.43.39Zm-2.23-.68c0-.12-.29-.37-.84-.83-1.05-.88-1.16-1.42-.16-2.11,1.44-1-.07-2.37-1.73-1.8a1.56,1.56,0,0,0-.56,2.69c1.1.73,3.09,2.84,3.29,2.05ZM139.05,83l-2.64-1.8V83l2.64,1.54ZM33,83.12c1.17-.6,1.23-2.1.06-1.55-.49.22-1.12.84-1.13,1.12,0,.54.46.74,1.07.43Zm.86-3.45c1.52-.82,1.29-1.58-.23-2.53-1.85-1.06-3.15,1-1.62,2.36.79.73,1,.64,1.85.17Zm2-1.52c1.4-2.27,4.8-2.35,6.57-2.43,7.79-.34,9.05-1,11.08-4.47.84-2,.76-2.56-.45-2-1.87.76-2.87.9-6.49.94a20.51,20.51,0,0,0-4.29.26c-4.19,1-7.06,2.89-7.73,5.25-.41,1.44-.4,1.3.37,2s.93.75.94.38Zm33.75-9c2.17,0,2.07.08,1.18-1.7,2.11.29,3,1.3,2.27-.8,1.12.4,1.79.71,3,1.08l.74-.42c-4.48-4.36-9.44-.66-8.13,3.73l1.66-.8Z"/><path class="cls-4" d="M157.87,242v-2.87h2.59s0,1,0-9.32c0-9,.09-9.06.34-9.94,1.81-6,12.52-6,13.21.67,0,3.26.05,3.94.08,3.94h-2.87s0-.81,0-1.28c0-3.35-1-4.83-3.68-4.86-2,0-3.14.71-3.77,2.37a5.27,5.27,0,0,0-.4,2.28c0,3.71,0,16.14,0,16.14h2.89l0,2.85Zm-77.3-13.67,1-5,9.29.45s1.07,3.16,1.51,4.59Zm-21.45-.12,4.93-8.15,7,1.91-1.62,6.36Zm13.61.12,2.12-8.69c-4-.88-7.78-1.46-12.2-2.65l-7.18,11.34-4.31-.12c3.72-5,10.51-15,10.51-15a92.35,92.35,0,0,0,47.1,3.43s5.82,7.69,7.91,11.85l-4.11-.2-5.1-8.55c-3.56.39-7,.86-10.76,1l2.54,7.53H95.18l-2.32-7.52c-4.45-.17-8.19.18-13.52-.65l-1.88,8.17Zm29.4,0-1.4-5.34,5-.59s2.33,4.08,3.6,5.93Zm14.69-16c.24-3.72,1-6.64,4.44-11.57,4.41-6.31,12.44-18.6,12.64-19.18,0,0,8.23,12.35,11.92,17.93,3.14,4.78,5.05,10.11,5.16,13.31.19,6.14-3.67,10-8.86,10.62-3.56.44-7.26-2.79-7.54-6.58-.12-1.56-1-2-1.19-.67a7.37,7.37,0,0,1-8.34,7.12c-6.38-.62-8.5-6.91-8.23-11Zm44.7-.56a4.82,4.82,0,0,1-3-4.32c-.23-2.41.64-4.88,3.59-9.39a74.62,74.62,0,0,0,4-6.84c1.73,2.54,2.64,4.5,4.39,7.13,4,6.44,4.78,9.91,2.73,12.37-1.44,1.75-4.48,1.79-5.74.09a3.89,3.89,0,0,1-.73-1.87c-.12-.5-.48-.56-.59-.1a3.56,3.56,0,0,1-4.65,2.93ZM57.14,178.72c6.23-9.48,28.25-40,28.25-40l3.21.31s-19.53,27.25-29,41.09ZM25.57,167.18c-.34-.35-.34-2.45.27-2.45s8.11,4.5,7.07,5.33c-.21.17.46,42.4.46,42.4l-8.16,5.85s.43-51.06.36-51.13ZM57.21,93.54l4.65,9.1C42.11,121.35,46,143.31,56.57,159a30.6,30.6,0,0,1-4.32,7.15C38,156.55,33.66,132,33.66,132c15.77-14.07,17.9-18.55,23.55-38.42Zm80.9,66.89c.9-13.3,7.43-21.91,15.41-29.3l.19,15.13c-5,4.77-10.05,9.52-15.6,14.17Zm-20.8-13.78c6.53-5.05,13.06-18.16,13.87-26.8.63-11.53-1.77-20.14-8.59-29.13l5.16-7.21c7.31,7.83,14.48,16,17.53,35.08a13.79,13.79,0,0,0-1.26.91c-19,16.73-22,36.39-22,36.39ZM93.55,127.91l-.11-6.66,6.47,0-.19,6.59Zm-13.76-.11-.34-6.88,6.85.4-.3,6.62Zm11.09-17.67s21.43-29.95,29.85-40.79l1.79,1.32L94,110.35ZM40.78,89.2c0,11.84-7.61,21.23-15.36,27.35l.11-13.48ZM45.3,67.65S29.87,47,28.22,38c-.55-5.47,2.56-11.2,7.92-11.94a7.84,7.84,0,0,1,8.7,6.75c.09.83.29,1.06.72.86s.37-.31.51-1.76c.4-4.11,4.25-6.39,8.23-6.05,7.15.92,9.64,9.85,7.65,14.35C57.73,49.75,44.43,68,45.3,67.65ZM4.43,43.81c-.59-2.42.32-5.54,2.05-6.32A3.76,3.76,0,0,1,12,40.09c.16.86.52.8.67-.09a3.46,3.46,0,0,1,5.13-2.3C20.5,39.11,21,42.77,19,46.85c-2.29,3.88-7,11.31-7,11.31-.14-.43-6.55-10.07-7.59-14.35Zm149-11.75,0,52.56-7.24-4.37.62-44.07ZM118.9,35.17C102.55,30.92,87.64,29.65,72,33c-2-2.43-8.91-12.57-8.91-12.57l4,.1,5.59,8.93,10.68-1.4-2.75-7.29,4.4,0,2.19,7.15c0-.06,8.69.08,13.53.66.77-2.66,2.2-7.94,2.2-7.94h4.85c-.62,2.53-2.29,8.57-2.29,8.57a115.13,115.13,0,0,1,11.4,2.51c2.59-3.65,5-7.31,7.32-11l4.73,0c-1.39,2.36-9.74,14.54-10,14.42ZM4.55,25h3c-.1,2.15-.07,4.7,1.91,5.62,3.51,1.19,5.84-.93,6.07-4,.16-3.53.07-16.31.07-16.31H12.76V7.41h8.58V10.3H18.52s.2,11,0,16.41-4.25,7.2-7.64,7c-7-.26-6.46-5.3-6.31-8.71Zm111.34,3.86-7.23-1.68,1.89-6.37h10.1Zm-41.5-2.3L71,20.66h6.46l2.14,5.2Zm14.68-1.21-1-4.7H99.82l-1.19,5Z"/><path d="M62.22,20.26,72.66,35.33A84.23,84.23,0,0,1,84.22,33.9a80.78,80.78,0,0,1,12.49.25s1.78,5.38,2.39,8A21.8,21.8,0,0,1,99,52.48c-1.24,4-1.89,5.14-4.65,7.86a25.15,25.15,0,0,1-7.92,5.29c-4.13,1.73-4.55,1.72-7,1.84a4.53,4.53,0,0,0-2.65.59c-.28.09-.45.38-.69.46a1.48,1.48,0,0,1-.59,0A165.1,165.1,0,0,0,43.59,86.82c-.09.07-.16.38-.24.45-.66.53-1.25.93-1.89,1.42-.08.06-.28-.06-.37,0-9.34,7.2-14.63,13-16.58,14.72l.19,33.52s4.26-2.18,6.44-3.51a54,54,0,0,0,18.22,34.34l-4.43,6.11L24.5,159.82l.28,61.84,10.86-7.54V207.6c3.24,2.18,6.4,3,8.7,13,1.84-3.49,1.68-8.68.85-12.16a16.38,16.38,0,0,0,3.6-4l-4-3.58s1-8.67-.86-10.42c-1.51,3.93-2.71,8.1-8.34,11.14l-.07-30.13c2.81,1.78,5.46,3.78,8.24,5.61l.37-.08,2.88,2a11.83,11.83,0,0,1-.59,1c-3.48,5.29,2.32,11.77,7,7.87,1.85-1.53,5.33,4.82,6,10.94.67,3.94,1,8.84,2.1,12.27a1.71,1.71,0,0,1-.51,2.17l-10.9,15.36h5.25l.39-.6H51.87c3.33-4.43,6.51-9.6,10-13.92,12.87,4.85,34,6,46.69,3,2.63,3.69,5.19,7.55,7.71,11.31h-3.66l.51.79h5L107.6,213.8c-7.2,2.13-24.73,1.3-24.41,1.13,0,0,0-.13-.65-1.87-3-9.72-3.29-18.34,4.26-25.31,4-3.57,8.49-5.92,13.49-5.48,2.24,0,2.28-.16,3.21-.58a11.32,11.32,0,0,1,1.58-.47l5.07-2.81.67-.14,1.46-.77.3-.35,2.35-1.2.27,0,3.18-1.83.05-.26,1.25-.77.3.31a156.52,156.52,0,0,0,17.54-12.37l.32.11c5.91-4.78,13.95-12.32,16.33-15.18L154,131.63l-.2-.17-.09-15.89h-.46l0-2c-2.61,1-5.48,3.39-5.68,3.29a55.89,55.89,0,0,0-18-34.94L133.92,76l20,13.46.06-3.93h.25c.24-15.08.38-54.18.38-54.18l-.2,0V28.22l-10.22,6.53-.15,6.6c-4.53-1.48-7.4-6.93-8.36-11.78-1.32.53-1.93,5.64-1.44,12.11a11,11,0,0,0-3.16,2.86,27.1,27.1,0,0,0,3.7,3.72c-.28.61-.88,9.25-.29,10.33.27.79,1.22.67,1.22-.16,1.38-6.74,7.77-11.16,8.13-10.75l-.15,31.07-11.36-8c2.39-2.69,2.89-7.23-.12-9.45a4.47,4.47,0,0,0-6.65,1.07c-3.69-2.4-4.93-11.3-5.47-14.78A42.49,42.49,0,0,0,119,41.55a21.92,21.92,0,0,1-.74-3.71,1.94,1.94,0,0,1,.55-1.48l11-15.66-5.64,0,0,.1h4.43l-10,14.14a96.89,96.89,0,0,0-47.13-2.86L63.32,20.52h3.73l-.14-.25Zm8.66.14.16.28,6.45,0-.1-.24-6.51,0Zm9.56,0,.13.34,4.4,0-.13-.34Zm22.48.12,0,.15h4.85l0-.16Zm-14.86,0,0,.2H99.8l0-.19Zm22.53.11,0,.16h10.1l.09-.15Zm42.62,8.61,0,2.13-6.78,4.31c-.17,9.09-.44,44.07-.44,44.07l-1.62-1.06.32-43.8s6-3.86,8.49-5.65ZM135.41,31h.22l.07.5h-.39Zm.48,1.29.17.66h-1l.17-.64Zm17.12.34V34l-5.85,3.66V36.28Zm-18.07,1.16,1.54,0,.25.76H134.8Zm-37.59.41,1,.15a47.14,47.14,0,0,1,3.36,15.41c.94,6.49,2.82,13,4.14,15.76l-1.51,0a78,78,0,0,1-4-15,26.21,26.21,0,0,1-.16-3.14,48,48,0,0,0-2.85-13.2Zm1.92.23,1.31.13c.91,4,2.24,7.73,2.78,11.72.87,6.39,1.33,12.91,4.41,19.2h-1.22A53.24,53.24,0,0,1,102.78,52c-.59-2.76-.59-4.82-.9-7.31a63.71,63.71,0,0,0-2.61-10.24Zm2,.18,1.31.19c.86,3.95,2.33,8.29,2.72,11.86.8,7.27,1.94,14,4.23,18.84l-.91,0c-3.55-6.86-3.6-13-4.6-19.4-.58-3.78-1.82-7.57-2.75-11.47Zm2.08.31,1.16.17c.8,3.93,2.24,8.37,2.57,12.36a50.92,50.92,0,0,0,4.47,18.08l-1.08,0c-3.17-5.55-3.59-12.35-4.58-19.24-.54-3.81-1.77-7.64-2.54-11.39Zm49.67,0v1.71l-5.85,3.76V38.69Zm-47.78.33,1.21.19c.77,3.78,2.22,7.82,2.56,11.51a58.79,58.79,0,0,0,4.34,18.53l-1.11.07a49.25,49.25,0,0,1-4.47-18.11c-.29-3.82-1.76-8.47-2.53-12.19Zm31.88,0,.42,1-2.8.13,0-1.14Zm-29.9.35,1.44.28c1.52,6,1.92,11.77,3,17.51,1.29,7.13,2.65,10.72,3.77,12.05l-1.19,0c-2.9-6.17-3.92-12.31-4.6-18.67-.39-3.76-1.63-7.46-2.38-11.2Zm2.19.41,1.1.22a106,106,0,0,1,2.46,14c1.05,8.48,3.88,14.94,4.48,15.24l-1.21-.05c-2.62-3.62-3.59-9.78-4.87-18.46-.57-3.82-1.13-7.42-2-11Zm1.76.36,1.23.3s1.11,4.34,1.94,10.1c.69,4.81,1.06,14.26,6.28,19.7,2.61,2.71,7.2,5.07,10.34,2.51a4.24,4.24,0,0,0,1.39-4.93c-1.35-3.27-5.93-2.71-4.41.73.18.82-.9.85-1.65,0a2.09,2.09,0,0,1,0-2.74c1.17-1.9,4.33-2.1,6.18-.4,3,2.9,1.68,7.87-2.07,9.44-4.31,1.84-9.88-1.94-12.08-5.56-3.64-6.29-4.21-12.26-5.06-18.61-.44-3.43-1.27-7-2.06-10.59Zm1.85.5,1.25.3s1.36,6.13,1.81,9.75c.56,4.47,1.18,9.73,3.09,13.8a15.39,15.39,0,0,0,4.67,5.9c1.51,1.06,2.86,1.74,4.87,1.3,2.31-.5,2.41-4.08.2-4.09-1.13,0-.39-1.09.54-1.12,3.33-.11,3.42,5.13.29,6.3-3.58,1.34-7.46-1.18-9.86-4.36-4.2-6.52-4-12.47-5-17.73a98,98,0,0,0-1.9-10Zm25.17.19.76,1-4.22,0,0-1Zm-23.32.33,1.19.42A87.5,87.5,0,0,1,118,48.16c.86,5.4,1.14,9.89,3.94,13.8,1.16,1.62,3.36,3.79,4.74,4,.86.19,1.74,0,2-.65.36-1.07,1.27-.58,1.29.39a1.76,1.76,0,0,1-1.34,1.62c-4.11.71-7.87-4.45-9-7.06-1.55-3.81-2.21-8.07-2.88-13.36-.28-2.24-1.64-9.39-1.81-9.54Zm38.15.19,0,1.72L147.16,43V41.32Zm-36.35.34,1.33.36a78.66,78.66,0,0,1,1.78,9.32c.67,5.22,2.12,11.28,4.82,14.43a7.38,7.38,0,0,1,.52.68c.19.43,0,1.15-.24,1.15-4.81-2.5-6-12.57-6.36-16a80.79,80.79,0,0,0-1.85-10Zm18.72.8,4.25.12,1,1L135,39.8c-.59-.61-.22-.54.37-1.07ZM153,40.12v1.42l-5.85,3.71V43.8Zm-17.49.45,6.22.11,2.18,1.3-9.5-.08ZM153,42.37v1.7l-5.85,3.67V46.15Zm-19.79.32,10.56.11,0,1.15-11.45-.29Zm-1.37,2,11.94,0,0,1.27L133,45.84Zm21.16.2v1.77l-5.85,3.63V48.57Zm-18.92,1.86,9.16,0-1,1.06-6.9-.07Zm18.92.62V49l-5.85,3.68V51Zm-12,1.28-1.11,1.08-4.74-.06.16-1Zm12,1.18v1.8l-5.85,3.57V53.61Zm-17.95.66,3.92.08-.6.82-3.43,0Zm-35.2,1.43c.6,4.52,3.87,13.62,3.87,13.62h-1.29a62.06,62.06,0,0,1-3.21-11.22c-.1-.53.25-2.29.63-2.41Zm35,.26,3,0-.66,1.16h-2.45Zm18.2.27V54l-5.85,3.6V56.15ZM134.71,54l2,.06-.48,1.08-1.54,0Zm18.3.85v1.67l-5.85,3.63V58.54Zm-54.38.35a77.08,77.08,0,0,0,3.28,10.34H100.8c0,.15-2.6-5.92-2.87-8.52-.13-.55.16-1.62.7-1.83Zm36.06.7,1.19.06-.21.61-1,0Zm.11,1.48.61,0-.14.58h-.39Zm18.21,0v1.36l-5.85,3.7V61.19Zm-55.85.15c.89,2.64,1.78,5.33,2.83,7.9l-1.31,0a55.61,55.61,0,0,1-2.16-6,1.88,1.88,0,0,1,.64-1.88Zm-1.3,1.76L98,65.41H96.8c-.51-1.22-1.08-2.59-1.48-3.85s-.37-1.35.54-2.24ZM153,59.7v1.61l-5.85,3.62V63.55ZM95,62.06l1.19,3.37-1.53,0a10.42,10.42,0,0,1-.83-3c0-.5-.14-1,.22-1.21.69-.39.61-.07,1,.9Zm-1.63,1.38.64,2-1.43,0a4.35,4.35,0,0,1-.46-2.58c.86-1,.93-.48,1.25.64ZM153,62.28V64l-5.85,3.52V65.92ZM91.3,63.48l.59,2-1.28,0a3.71,3.71,0,0,1-.09-1.53Zm-1.69,1,0,0c.19.86,0,.91,0,.91h-1.8a9.19,9.19,0,0,1,1.74-.92ZM153,65v1.35L147.16,70V68.62Zm-69.6,2.13,35.18.1,1.17,1.66s-3.42.09-14.63,0c-9.44.13-28.4-.2-28.4-.2l1.84-.87a22,22,0,0,0,4.84-.71Zm69.6.2v1.48l-5.85,3.54V70.9ZM54,68.73a15.62,15.62,0,0,1-7.44,1.4c-4.25-.34-10.74,1.43-12.05,5.51-.41,1.44-.41,1.48.36,2.22a2.5,2.5,0,0,0,.84.61,9.07,9.07,0,0,1,2.56-2.06,13.6,13.6,0,0,1,4.06-.53c4.51-.2,5.53-.39,6.65-.69,2.47-.65,5-3.08,5.1-5.78a2.42,2.42,0,0,0-.08-.68Zm-.12.37c-.48,5.64-6.59,6.38-9.27,6.22-5.45-.33-7.59,1.3-8.46,2.31-.28.26-.45.2-.4,0,.63-3.13,5.68-3.25,8.22-3.21,6.23.28,7.81-2.72,7.64-2.75-.48.21-.83.4-1.31.62-.21.09-.16,0-.7-.35,0,0-.62,1.44-1.42.12,0,.06-.57,1.17-1.65.13,0,.12-.66,1.07-1.72.09-1,.86-1.47.39-1.9-.21-.31.18-1.24,1.44-2,.09-.81.52-1.16,1.09-1.87.75-1.65.29-3.07,2-3.66,3.54-.18.53-.55.62-.59,0-.2-1.62,2.47-4.42,5.14-5.2A20.49,20.49,0,0,1,48,70.38a17,17,0,0,0,5.9-1.28Zm66.73.42,1.65,1.12L93.6,110.2l-2.54-.06Zm-46,0h3.26v5.39H75.06l-1-1.49A1.73,1.73,0,0,0,76.69,72a1.75,1.75,0,1,0-3.5,0,2.29,2.29,0,0,0,0,.25l-1-1.56a15.24,15.24,0,0,1,1.52-.74c.27-.13.93-.35.93-.35Zm10.06,0h5.52v5.39H84.67Zm12.11,0h5.72V75l-5.72,0Zm12.35,0h5.72v5.39h-5.72Zm43.8.13.08,1.68-5.85,3.56V73.26Zm-41.15.56a1.85,1.85,0,1,0,1.85,1.85,1.85,1.85,0,0,0-1.85-1.85Zm-24.33.1a1.85,1.85,0,1,0,1.84,1.84,1.85,1.85,0,0,0-1.84-1.84Zm12,0a1.85,1.85,0,1,0,1.85,1.84,1.85,1.85,0,0,0-1.85-1.84Zm6.23.22a1.56,1.56,0,1,1-1.55,1.56,1.55,1.55,0,0,1,1.55-1.56Zm-24.53,0a1.56,1.56,0,1,1-1.55,1.55,1.55,1.55,0,0,1,1.55-1.55Zm36.77.06a1.39,1.39,0,0,1,1,.37l-1.69,2.29a1.43,1.43,0,0,1,.74-2.66Zm-24.29,0a1.55,1.55,0,1,1-1.56,1.55,1.54,1.54,0,0,1,1.56-1.55Zm-18.74.11A1.16,1.16,0,1,1,73.78,72a1.15,1.15,0,0,1,1.16-1.16Zm-3.55.06A83.54,83.54,0,0,1,88.79,110l-1.65-.07A85.52,85.52,0,0,0,69.87,71.46Zm40.39,0a1.23,1.23,0,1,1-1.23,1.23,1.23,1.23,0,0,1,1.23-1.23ZM87.45,71a1.23,1.23,0,1,1-1.23,1.22A1.22,1.22,0,0,1,87.45,71Zm12,0a1.22,1.22,0,1,1-1.23,1.21A1.22,1.22,0,0,1,99.5,71Zm30.67.87c.65,5-.63,8.18-4.42,8.7-4.83.66-5.45,1-5.48,5.6,0,5.42-.84,7-4.68,7.42-4.32.48-5.32,1-4.93,6.36.28,3.92-1.27,5.59-4.59,6.32-2.61.57-4.86,1.44-5.82,4.06l-2.38,0c.62-4.13,4.77-6.1,7.43-6.24,2.87-.68,3.47-1.64,3-6.67-.35-3.78,1-4.93,5.48-5.8,3.56-.7,4.43-1.72,4.24-4.62-.41-6.24,0-7.18,3.53-7.93,1.81-.43,4.75-.62,5.87-2,1.28-1.57,1-2.9.83-4.83ZM153,72v1.63l-5.85,3.61V75.69ZM67,73c-1.25,5.41,3,6.58,5.67,7.49,3,1.07,3.79,2.6,3.44,8-.26,4.06.19,5,2.82,6.36,4,2.07,5.1,5,3.31,9.34-1.1,2.66-.52,3.41.18,5.73h-2a6.49,6.49,0,0,1-.38-6.07c1.67-3.76,1.62-5.64-2.09-7.33-2.88-1.31-3.76-2.54-3.93-5.23a19.57,19.57,0,0,1,.19-4.16c.34-3.1-.77-4.44-5.36-6.14-2-.76-3.43-2.53-3.85-5.34a7.29,7.29,0,0,1,0-1.69Zm68.63.59L153.06,85.2l-.12,2.58L134.42,75.41Zm-11.25.25a1.53,1.53,0,1,1,0,3.06,1.53,1.53,0,1,1,0-3.06Zm-54.9.67a1.39,1.39,0,1,1-1.39,1.39,1.38,1.38,0,0,1,1.39-1.39Zm83.5.17-.06,1.55-5.74,3.56V78.23ZM61.89,75.76c5.28,6.88,10.47,14,14.47,27.32l-1.71.66A80,80,0,0,0,60.28,76.67Zm13.78-.06h39.76l-1,1.37-38-.39ZM153,77v1.7l-4.4,2.68-1.3-.85Zm-93.46.18.79,1s-.85.65-1.8,1.34c-2.61,1.86-2.95,2.07-3.12,3.28C55,85.7,58,87.13,60.94,85.46c1.06-.49,3.4-2,3.4-2l.67,1S61.66,87,59.7,87.56c-4.31,1.25-7.53-4.21-4.34-7.46a15.69,15.69,0,0,1,2.33-1.69c.84-.54,1.86-1.24,1.86-1.24Zm17.75.68,36.63.22L90.54,110l-1-.06c-1.81-12-6.31-22.41-12.2-32.13Zm-16,1.35,2.14,3a19.1,19.1,0,0,1-3.7,2.6c-1.85,1-3.85-.83-2.69-2.48s4.25-3.11,4.25-3.11Zm91.68.31v1.56l-2.54,1.56-1.16-.75Zm-91.95,1.2a5.17,5.17,0,0,0-3.27,2.2A.89.89,0,0,0,57.85,84c.35.45.76.43,2-.22,2.49-1.33,3-2.12,1.86-2.89a.89.89,0,0,0-.54-.16Zm-.08.64c.16,0,.34,0,.5,0,.43.17.3.71-.15.83-.1-.15-.85-.17-.8.59-.18.43-.17.39-.72.46a.58.58,0,0,0-.67.32c-.38.2-.84.13-.93-.09s.22-.86.49-.86c.12,0,.35-.18.58-.33,0-.42.48-.48.62-.48a.82.82,0,0,0,.83-.34.3.3,0,0,1,.25-.12Zm92,.37v2.41L151.17,83ZM51.37,82A67.74,67.74,0,0,1,65.9,109.89l-1.34.92c-2-8.13-5.13-16.73-14.34-27.91Zm78,.14a54.63,54.63,0,0,1,17.76,34.89l-1.66,1a55.87,55.87,0,0,0-17.17-34.52Zm-6,.71a1.53,1.53,0,1,1-1.53,1.53,1.52,1.52,0,0,1,1.53-1.53Zm-73.94.6s1.4,1.44,1.4,1.78c0,.68-.55,1.07-3.77,2.24-.54.2-2.92.75-2.92.75l-.09-1.16c1.21-.44,4.48-1.22,4.71-1.91.12-.27-.46-1-.34-1Zm22.22.29a1.39,1.39,0,1,1-1.38,1.39,1.39,1.39,0,0,1,1.38-1.39Zm56.16.4a56,56,0,0,1,16.93,34.59c-11.74,9.56-19.72,21.56-22.89,36.59-1.57-2.62-2.9-5.62-4.35-8.55,15.67-13.77,19-38.58,5.42-56ZM66.21,86l.71,1.09s-.15.14-2.34,1.5c-3.21,2-3.74,3.29-2.67,5.33s2.32,2.2,5.77.53c1.21-.59,2.25-1.21,2.25-1.21l.55,1.14A16.79,16.79,0,0,1,66,96.77c-2.8,1-5.44-.72-5.94-4-.36-2.35.67-3.61,4.75-5.93.46-.24,1.44-.85,1.44-.85Zm48.06.52a1.53,1.53,0,1,1-1.53,1.53,1.53,1.53,0,0,1,1.53-1.53ZM52,86.61l.92.87a9.93,9.93,0,0,1-2.67,2c-2,1.23-2.25,1-1.24,1.89,1.9,1.6,4.53,5.15,4.52,6.07s-.81,1.7-2.32,2.38a47.78,47.78,0,0,1-4.61,1.63c-1,.11-1.23.49-.26,1.36,1.62,1.87,3,5.88,2.46,7.1-.63,1.38-1.39,1.61-7.43,1.88-.69,0-1-.16-.64.72a21.81,21.81,0,0,1,1.09,4.24c.48,2.42.4,3.51-.54,4-.54.29-4.75.19-6.48-.16-2-.39-2.2-.41-1.88.88.42,1.79.67,6.58-.68,7.5-.56.36-1.17.27-3.63-.56-1.58-.53-2.94-1.13-2.94-1.13l0-1.49c1.28.53,4.8,2,5.8,1.57,1.18-1.7-.46-7.66-1.09-8.94-.76-1.52,0-1.85,1.78-.91.92.65,8.83,3.77,8.38,1s-1.34-5.66-3-7.55-.78-2.47.94-1.7c3,1.35,9.32,1,9-.39-.41-2.28-2.49-5.39-5.34-7.8-.79-.66-.82-1,.11-1.12,2.66-.21,10.27-1,9.21-2.77a18.56,18.56,0,0,0-3.17-3.95,14.19,14.19,0,0,0-4.19-2.35l.05-1.1c3.46-.28,5.26-1.33,7.82-3.12ZM43.56,87.7c-1.24,13-6.69,23.75-17.94,31.24l-.07-1.46c9.9-7.43,14.64-18,15.93-28.2Zm24,.81h0a38.77,38.77,0,0,1,1.81,3.55c-1.08,1-3.9,2.45-5,2.11-1.78-.57-2.06-2.47-.35-3.59a20.42,20.42,0,0,1,3.56-2.07Zm-14.41-.2.92.83a8.46,8.46,0,0,1-1.57,1.42c-1,.8-.67.49,0,1.44.62.75,1.74,2.26,1.74,2.26l-.33,2A33.3,33.3,0,0,0,50,91.61c-.89-.91-.83-.93.42-1.59.95-.52,1.72-1.16,2.66-1.71ZM78.36,89.6A1.39,1.39,0,1,1,77,91a1.39,1.39,0,0,1,1.39-1.39Zm-11.22.12a11.3,11.3,0,0,0-3.34,2c-.26.19-.06,1.14.2,1.47s.92.35,1.64,0c.31-.17.85-.44,1.21-.61,1-.47,1.45-.82,1.41-1.21s-.58-1.69-1.12-1.65Zm.07.6a.62.62,0,0,1,.52.78c-.63.35-1,.05-.9.53,0,0,.06.76-.87.77a.84.84,0,0,0-.82.12c-.65.27-1.21-.3-.51-.63.19-.09.67-.23.8-.53s.36-.65.69-.45c.18,0,.57,0,.69-.23,0-.31.17-.34.33-.35Zm-26.66-.09c.29,1.46-.59,4-1.09,5.47-3,3.87-7.25,5.85-11.33,7.2a5.77,5.77,0,0,1-2.12.15A100.08,100.08,0,0,1,40.55,90.23Zm-10.3,1.31c0-.32-1.45-.72-1.59-.51s-.72,4.29-.43,4.57,1.49.52,1.59,0a39.27,39.27,0,0,0,.43-4.1Zm25.29-.12,1,1.2c-2,19.43-15.93,36.25-30.76,42.92l0-1.29c17-8.91,27.16-23.73,29.83-42.83Zm67.09.08L124.46,94l-2.63.08ZM29.75,92a11.91,11.91,0,0,1-.34,2.82c-.16.6-.62.46-.8-.09a5.51,5.51,0,0,1,.31-2.88c.37-.63.66-.52.83.15Zm14,.35c.92,0,5.74,3,5.1,4.46-.52,1.18-4.56,1.27-6.41,1.11l.28-1.14a7.79,7.79,0,0,0,2.72,0c2.26-.15,2.09-.93-.5-2.57l-1.37-.87Zm13.39,1.6a69.51,69.51,0,0,1,4.24,8.55c-18.26,17.23-16.84,40.69-5.33,56.1l-5,6.69A56.82,56.82,0,0,1,34,131.79c14.48-10.42,21.28-26,23.19-37.87Zm67.81.76,1.09,2.09-2.62,0Zm-11.31,1a1.53,1.53,0,1,1-1.53,1.52,1.53,1.53,0,0,1,1.53-1.52Zm-42.49.41.52,1.18c0,.15-3.69,1.32-4.89,2.83a3.27,3.27,0,0,0-.38,3.85c1.06,1.43,1.81,1.64,3.6,1.09a23.68,23.68,0,0,0,4-1.79l.23.59s-2.08,1.23-3.67,2.12a3.82,3.82,0,0,1-1.93.46A4.27,4.27,0,0,1,66.1,99a21.86,21.86,0,0,1,3.15-1.85l1.93-1Zm47.76.73c11.91,17.18,3.76,36-3.94,42.66l-.2-2a32.41,32.41,0,0,0,3-39.63Zm7.66.78.94,2.12-2.77-.3Zm-48,.69a1.39,1.39,0,1,1-1.39,1.39,1.39,1.39,0,0,1,1.39-1.39Zm38.92.27c10.44,15.16,4.62,39.34-15.3,46.71l-.1-1.69c20.31-8.49,22.3-31.09,14.14-43.84Zm-45.25.09,1.32,3.56A10.08,10.08,0,0,1,69.42,104c-1.47.33-2.61-2.2-1.48-3.17a11.82,11.82,0,0,1,4.33-2.15Zm-33.86,0c.25,0,0,.59-.64,2.12-1.39,3.36-1.48,3.43-5,4a17.44,17.44,0,0,1-4.47.24c-1.94-.19-2.78-.74-1.52-1a31.66,31.66,0,0,0,10.36-4.55,4.7,4.7,0,0,1,1.25-.79Zm66.35.41a1.72,1.72,0,1,1-1.71,1.72,1.72,1.72,0,0,1,1.71-1.72Zm-51.89.47-.14,1.33s-2.12,1.11-3.13,1.54c-.76.31-.81.37-.57,1.09a27.6,27.6,0,0,0,1.45,3.17l-.88,2a24.11,24.11,0,0,0-2.1-5.38c-1-1.31-1.12-1.48.34-1.75a30,30,0,0,0,5-2Zm18.91.43c-1,0-3.2.92-3.41,1.75-.12.47,0,1.13.41,1.28a4.38,4.38,0,0,0,3.81-1.3c.18-.25-.09-.76-.29-1.09s-.11-.65-.52-.64Zm.06.71h0c.18,0,.81.8.1.73a.83.83,0,0,0-.68.28c0,.39-.58.53-.85.4a.42.42,0,0,0-.51.23c-.4.28-.91.27-1,.06s.27-.73.62-.71a1.68,1.68,0,0,0,.56-.37c.12-.41.54-.34.81-.31s.59-.28.87-.31Zm56.07.06.77,2.13-2.73-.24Zm-11.75,2.45a1.85,1.85,0,0,1-1.91.69,2,2,0,0,1,.31,2.64c-1,1-2.93-.55-2.79-.69l3.47-4.62a1.32,1.32,0,0,1,.92,2Zm-75.25-1.2s4.22,3.63,4.25,5.26a.83.83,0,0,1-.68,1c-1.66.55-6.27-.86-6.27-.86l.6-1.12c.72.19,4.29,1.12,4.6.66s-3-3.69-3-3.69Zm20.91,1.52.5,1.75-1.72-.43Zm67.26.31.45,2.43-2.76-.65Zm-52.58,0,.41,1.42c-18.29,8.48-23.63,28-14.09,44l-1.08,1.49c-12.77-20.7.16-41.7,14.76-46.95ZM60,105.41l.25,2.16-2.13-.12Zm-25.18-.06c.36,0,.43.2.43.42A16.83,16.83,0,0,1,32.83,109c-1.3.52-6.31-1.57-7-3.19-.15-.47.34-.27,1.45,0,2.81.8,5.66-.3,7.61-.37Zm48.74,0a1.39,1.39,0,1,1-1.38,1.39,1.39,1.39,0,0,1,1.38-1.39ZM26,107.09a11.73,11.73,0,0,0,5.25,2.64c1.13.25.8.37-.25,1.45s-.9,1.16-1.89.65c-1.67-.85-3.48-2.76-3.41-3.81,0-.43.11-.93.3-.93Zm103.91.23.34,2.31-2.6-.91Zm-72.44.83.85,2.07L56,110.15Zm58.75,2a7.29,7.29,0,0,1-.07.78c1.36-.87,3.16-.16,3.11,1.24-.08,2-1,2-2.61,1.73.86,1.43-.17,2.81-1.79,2.28-1.47-.48-1.19-2-.5-3a3.58,3.58,0,0,0-.39,7c-.81-1.26-1-2.75.75-3s2.32,1,1.61,2.49c1.53-.54,3,.34,2.52,1.84-.56,1.8-2.16,1.68-3.11.58a1.57,1.57,0,0,1-2.07,2.17c-1.87-1-.95-2.77.3-3.25-4.81-.49-5.92,6.16-2.38,7.11-.91-.57-1-3.19,1.07-2.83s1.55,2.3.24,3.16c1.59-.33,3.06,1,2.1,2.45-1.13,1.64-2.7.47-3.28-.65.19,1.5-.77,2.46-2,1.89-2.11-1-.55-3.38,1.1-3.23-3.35-2-7.9,2.17-5.22,5.6-.1-1.56.67-2.84,1.75-2.66a1.77,1.77,0,0,1,1.5,2,2.56,2.56,0,0,1-1.93,1.45c2.56.28,2.78,2.09,1.72,3-1.8,1.52-2.64-.23-3.06-1.25-.36,2.53-3.36,1.67-3.47-.16-.1-2,2.23-2,2.66-1.86a6.86,6.86,0,0,0-3.78-2.16v-1.17a18.35,18.35,0,0,0,8-21.5l.47-.54c1.27,1,2.55,3,4.89,2.29a9.87,9.87,0,0,1-.81-.65c-1.21-1.19-.53-2.6,1.15-2.68a1.4,1.4,0,0,1,1.52,1.48Zm-52.84,0,.8,1.18c-11.81,13.84-9.66,29.67-2.86,40.15l-1,1.2c-6-7.71-10.92-26.4,3.05-42.53ZM73.4,112a5.58,5.58,0,0,0,0,.56,6,6,0,0,0,.46-.7c1-1.68,3.18-.71,2.82,1.22-.17.91-1.69,1.27-2.11,1,.39,1.08,1.47,1.33,2.77,1.8.46.09,1.25.31,1.25.31l0,.74c-7.09,4.46-11.1,12-8.5,22.38l-.79,1.06c-1.43-3.44-2.73-3.37-5.08-3.5a5.52,5.52,0,0,1,.92.81c.71.84.4,2.31-.59,2.46-2.28.36-2.3-1.27-2-2.36,0,0-.41.34-.61.47a1.4,1.4,0,0,1-2.14-1.19c-.1-1.1.27-1.81,1.41-1.95a4.05,4.05,0,0,1,1,0l-.35-.67c-.54-1.06.65-2,1.74-1.74,1.72.41,1.59,1.9.59,3.06,2.67.2,4.07-1.54,3.87-3.28A3.63,3.63,0,0,0,64.75,129s.34.53.48.79a1.46,1.46,0,0,1-1.36,2.12,1.52,1.52,0,0,1-1.46-2.12c.11-.26.55-.58.48-.61s-.64.17-.81.19a1.53,1.53,0,0,1-1.7-2.23,2,2,0,0,1,2.56-.67c.15,0,.32.25.34.21a3.69,3.69,0,0,0-.12-.53c-.29-1.12.25-1.72,1.47-1.64,1.69.11,2.33,1.49,1.19,2.74l-.75.8c.05.25,2.42.43,3.63-.84,1.4-1.47,1.62-4.52.21-5.52l-.7-.5c.68,1.35-.56,2.9-1.64,2.61-2.18-.53-2-2.31-.56-2.87a5.3,5.3,0,0,1-1.87-1.13,1.45,1.45,0,0,1,.32-2.16,2,2,0,0,1,2.77.64c.37-1.13.89-1.89,2.43-1.28,1.08.52,1.07,2-.11,2.74a6.18,6.18,0,0,1-1.06.48,5.26,5.26,0,0,0,2.26.6,3.72,3.72,0,0,0,3.32-5,5.3,5.3,0,0,0-.68-1,3.86,3.86,0,0,1-.2,1,1.62,1.62,0,0,1-2.58.42,1.32,1.32,0,0,1,0-2,3.48,3.48,0,0,1,1.32-.78c-.64-.21-1.35-.37-1.66-1a1.48,1.48,0,0,1,.68-1.89A1.61,1.61,0,0,1,73.4,112Zm-47.5-1.74a19.53,19.53,0,0,1,2.54,2.16c.7.57.69.67.11,1.21-1.31,1.26-2-.57-2.46-1.31-.52-1-.58-2-.19-2.06Zm104.58.35.16,2.44-2.72-1Zm-74.93.14,1,2.22H54Zm52.76,0c2.38,8.76-1,15.06-7.3,20l-.69-.92c5-4.21,8.65-9.17,7-18Zm-29.09,0,27.84.52-.83,1.46h-2.17l-4.3,7.61h-20Zm-40.73,6.35c-1,1.53-6.76-1.77-6.68-1.94l.73-.7c.91.37,3.77,2,4.41,1.7.21-1.43-1.47-3.29-2.11-4.53l.71-.89s3.67,4.75,2.94,6.36ZM48,111.59l-1,1.74c-.9.27-3.62.32-3.84.5a27.37,27.37,0,0,1,.69,3.52l-1.07,1.37c-.29-1.69-.76-3.82-1.18-5.38-.36-1.33-.26-1,2.56-1.25a27,27,0,0,0,3.81-.5Zm5.71,2.1,1.14,2-2.32,0Zm-27.88.13c.12,0,.84.75,1,1-.06.53-.88.82-1,.63a6.57,6.57,0,0,1,0-1.6s0,0,0,0Zm105,0,0,2.55L128,115.17Zm21.9.57,0,1.65c-10,4.89-24.92,18-29.17,41.52l-.88-1a62,62,0,0,1,30.09-42.21Zm-100.6,2.27,1.24,1.88-2.24.24Zm78.76.72-.22,2.25-2.72-1.5Zm-52.25.47c0,.53.06.92.09,1.46-6.16,4-8.24,10.26-7.22,18.16l-.85,1.27a18.33,18.33,0,0,1,8-20.89Zm71.45.46a19.58,19.58,0,0,0,2.67,1l0,1.5-4.19-1.5ZM29.61,124.72c-.91.74-3-.49-3.94-1l0-1.26s.72.37,1.44.66c1.5.66,1.5-.13.68-2.34-.28-.77-.57-1.67-.57-1.67l1-.93s2.35,5.29,1.43,6.53Zm21-4.74,1.6,1.68-2.24.51Zm97.88.2a15.46,15.46,0,0,1,4.16,1.16V123a36.35,36.35,0,0,0-4.48-1.4c-1.16-.15-1.1.49-1.11,2.14a14.52,14.52,0,0,0,1.62,6.45c.88,1.85.42,2.34-1,1.52-2.58-1.78-8.1-3.12-8.95-2.08s.84,6.35,2.83,8.88c.81,1,.86,1.19.49,1.59s-.8.34-1.68.06c-2.87-.91-7-1.11-8.21-.34s1.9,6.07,4.49,7.78c1.69,1.2,1.36,1.8-1.36,1.86-4.44,0-7.85,1-7.67,2.22.33,2.06,3.2,4.89,6.5,6.39,2,.82,1.18,1.15-.16,1.63a43.15,43.15,0,0,0-6.52,3.1l-1-1.3s2.12-1.35,4.43-2.65c.54-.3.51-.41-.24-1-2.46-2.06-4.27-4.37-4.65-5.92s.39-2.45,2.62-3.31a19.57,19.57,0,0,1,3.11-.95c1.76-.39,1.79-.45,1-1.8-.34-.6-.89-1.61-1.23-2.22-2.62-4.48-1.23-6.1,4.84-6.19,1.5-.08,1.78-.08,1.7-.6-.32-2.11-1.26-4.53-1.12-6.32.27-2.69,3.05-3.35,7.92-2.13,1.13.28,1.2.23,1-.68-.95-4.11,0-7.81,2.66-7.5Zm-17.88.29-.43,2.61-2.59-1.72Zm-97,.61,7.16.48-1.14,1.33-4.32-.08-.17,3.69-1.38,1.19Zm46.39.29h5.89l0,6.23H80Zm7,0H92.5v6.23l-5.43.06Zm6.57,0h5.87l0,6.23H93.59Zm51.35.49a37.87,37.87,0,0,0,.33,5.74c-.09.38-.35.32-1.89,0a23.08,23.08,0,0,0-4-.46l1.24-1.31c1,.12,1.81.11,2.86.24,0-1.05,0-3.05,0-3.05ZM49.72,123.1l1.65,1.65-2.11.54Zm80.37.54-.66,2.66-2.38-2.14Zm22.56,1.41v1.36l-2.34-1a13.5,13.5,0,0,0,1.34,4.35l-1.11.52a9.28,9.28,0,0,1-1.69-4.76c0-.64-.08-1.73.5-1.76a4.59,4.59,0,0,1,3.29,1.34ZM48.92,126.4l1.95,1.16-2.16.88Zm80.42.6-1,2.74-2.09-2.38Zm-103.68.87,5.28,1.79-.94,1-4.38-1.38Zm74,.72.43,9.72-27.87-.23,1-1.37,1.81,0,4.77-8Zm-51.13.76,2.07,1.46-2.16.95Zm104.22.86v1.59c-6.73,5-14,13.54-15.24,28.69L135.72,162c.88-14.79,7.05-25,17.05-31.83Zm-24.55.06-1,2.46-1.93-2.29Zm19,3.35-.64.73c-.19.06-2.75-1.32-4.77-1.64a24.22,24.22,0,0,0,2.44,4.35l-1,.93c-.28-.06-3.94-5.46-3-6.68,1.57-1.06,5.38,1.16,6.89,2.31Zm-10.94-2.9a38.57,38.57,0,0,0,1.15,6,23.06,23.06,0,0,0-5.6.44l.93-1.67s.87-.09,1.62-.24c1.56-.31,1.4-.12,1-1.48a12.16,12.16,0,0,1-.36-1.54,13.85,13.85,0,0,1,1.22-1.53ZM33.37,132.29c2.41,14.59,8.16,24.61,17.24,33.62l-.92,1.21a56.3,56.3,0,0,1-18-33.89Zm15,.62,2,1.07-2,1.17Zm104.36,0,0,2.14-1.22-1.24a7.38,7.38,0,0,1,1.24-.9Zm-25.87.44-1.34,2.45-1.75-2.32Zm25.73,5.55a23.63,23.63,0,0,0-3.84-2.59,7.55,7.55,0,0,1,2.07-1.9c1.79.24,2.35,3.8,1.77,4.49Zm-104.2-2.67,2.22,1.08-2,1.43Zm73.82,0,2.85.27-1.51,2.35Zm26.36,1a2.74,2.74,0,0,1,1.3.44c2,1.12,3.06,2.35,3,3.43-.05.5-.33.6-.66.24a9.5,9.5,0,0,0-4.25-1.84c-1.29-.25-1.41-.36-1-1,.58-.9,1.06-1.32,1.68-1.31Zm-34.31,1a64.78,64.78,0,0,0,15.31,28.06l-1.41,1.21c-5.17-5.93-10.85-12.87-15.5-27.88Zm6.16.62,2.85.43-1.67,2.13Zm-40.19.13c.33,0-1,5-5.51,5.32-2.87.48-3.19,1-3.23,5.42-.06,6-1,7.46-6,7.84-3.27.25-3.7.91-3.15,5.61.53,4.48-1.16,6.75-5.33,6.75-3.61.3-5.11,2-5.1,5.33,0,1.36,0,1.69,0,1.69l-2.33.17a27.79,27.79,0,0,1,.18-3.27c.71-4.33,2.57-6.06,6.47-6,3-.23,3.5-.72,3.39-5.3s-.18-4.63,1-5.85A4.79,4.79,0,0,1,64,155.49c4.94-.47,5.33-.8,5.31-5.86-.45-4.21.71-6.79,3.38-7,5.41-.43,5.28-3.37,5-3.49l2.52,0Zm11.06,0c3.17,17.11,13.21,33.13,18.72,39.05l-1.07.57c-8-10-15.33-21.43-18.94-39.59Zm-5.73,0,2.51,0L59.18,179.82l-1.52-1.15Zm3.51,0c2.71,9.87,4.85,19.51,13.39,32.41l-36.23-.24Zm10,0c.21-.1,1.07,5-.2,7.34-1.14,3.18-.59,5,1.89,6.13,4.26,2,5.34,4,4.8,8.86-.38,3.42.65,5.07,3.87,6.17,3.83,1.31,5.5,3.37,5.48,6.74a4.09,4.09,0,0,1-.2,1.11l-2.13,1.26s0-.46.1-1c.56-3.74-.15-4.75-4.56-6.52-4.18-1.66-5.21-3.59-4.5-8.4a7.12,7.12,0,0,0-.74-4.34c-1.09-1.94-3.5-1.92-5.24-3.7-1.43-1.52-1.59-3.65-.37-7.28.76-2.25.87-3.11.28-5-.39-1.23-.54-1.34-.54-1.34Zm-50.32.54,2.46.69-1.85,1.91Zm97.61.51a9.38,9.38,0,0,1,3.81.94c3.07,1.53,3.63,2.78.94,2.11a12.7,12.7,0,0,0-5.79.22c-2.22.55-2.18.57-1.41-.77,1-1.7,1.22-2.46,2.45-2.5ZM140.82,142l-.55.95a14.7,14.7,0,0,0-4.36-.65,14.81,14.81,0,0,0,2.87,3.49l-.45,1c-.11.12-3.53-2.73-4.22-4.65-.31-.87,0-1.25,1.22-1.28a15.44,15.44,0,0,1,5.49,1.17Zm-45.76-.94a1.66,1.66,0,1,1-1.66,1.66,1.66,1.66,0,0,1,1.66-1.66Zm23.4.45,2.8.5-1.87,2.09Zm-52.46,0c.66-.05,1.69,1.24,1.69,1.24l-3.4,4.7a1.46,1.46,0,0,1,.21-2.85c.34,0,1,.06,1,.06a2.58,2.58,0,0,1-.71-.6c-1-1.2-.06-2.44,1.25-2.55Zm63.45-.41s2.71,5.35,2.54,5.55c-1.68.74-3.51,1.12-5.36,1.79l.36-1.55a11.93,11.93,0,0,0,2.67-.83c1-.37-1.07-3.12-1.07-3.12Zm-18.72,1.57c4,0,4,4.89,3.24,6.49-.55,1.1-1.38,1.71-3.91,2.85-2.19,1-2.43.92-2.43.92l-.53-1.17s1.28-.56,2.65-1.11c2.84-1.15,3.53-2,3.22-4.08-.44-2.91-2.69-3.36-7-1.41-.51.23-1.14.45-1.14.45l-.3-.58a29.27,29.27,0,0,1,5.39-2.29,5.09,5.09,0,0,1,.84-.07Zm-61.08.54,2.24.73-1.63,1.6Zm99.53.62c2,0,3.6.33,3.6,1,0,.33-.08.37-1.85.61-2.7.37-7.2,2.67-9.74,4.81-1.5,1.26-1.11,1-.48-.87s1.57-4,2.08-4.32c1.27-.84,4.16-1.25,6.39-1.26Zm-32.28.25,1.9.42-1.24,1.19Zm-6.37,1c.68,0,1,.32,1.28,1,.58,1.41,0,2.24-2.19,3.18a13.15,13.15,0,0,1-3,1.28l-1.38-3.72s.44-.16,1.87-.76a10.49,10.49,0,0,1,3.41-.94Zm-6.42.45a82.08,82.08,0,0,0,15.46,27.21l-1.37.86a79.09,79.09,0,0,1-15.62-27.87Zm6.09.45a9.13,9.13,0,0,0-2.4.74c-1.55.6-1.68,1.32-1,2.22.3.39.61.3,2.1-.29s2.18-.87,2.27-1.41c.13-.79-.3-1.28-1-1.26Zm42.74.17c0,.51-7.91,8-12.43,11.83-2.06,1.74-2,1.72-2.16,1.5a21.39,21.39,0,0,1,1.29-6.7,24.8,24.8,0,0,1,12.22-6.78c.71-.14,1.15-.13,1.08.15Zm-42.6.24a.57.57,0,0,1,.53.58c0,.24-.35.47-.71.47a1,1,0,0,0-.64.27c-.2.29-.32.56-.68.49a1.06,1.06,0,0,0-.73.08c-.7.6-1.39.1-1.06-.51.07-.15.36-.23.58-.22s.65-.05.72-.29.52-.37.83-.36a.74.74,0,0,0,.69-.27.8.8,0,0,1,.42-.23Zm-59.79.14,2.52.34-1.58,2Zm24,0a1.67,1.67,0,1,1-1.66,1.66,1.66,1.66,0,0,1,1.66-1.66Zm26.22,1.32a1.66,1.66,0,1,1-1.66,1.66,1.66,1.66,0,0,1,1.66-1.66Zm-49.13,1.87,2.73.18L52.85,152Zm14.42.4a1.66,1.66,0,1,1-1.66,1.66,1.66,1.66,0,0,1,1.66-1.66Zm68.22,1c1.14,0,2.46.1,2.46.1l-.32,1.27c-1.39.13-3.17-.25-4.66.37.56.91,3.8,2.19,4.15,2.51a9.84,9.84,0,0,1-.26,1.35c.08.31-5.49-2.26-5.67-4.44,0-.73,2.4-1.13,4.3-1.16Zm-19.16,1.33c3.16,0,4.73,4.44,3.5,6.4a9.1,9.1,0,0,1-3,2.86c-.7.45-2.55,1.35-2.55,1.35l-.83-1.28a15.37,15.37,0,0,0,1.43-.68c1.75-1,5.29-3.08,3.58-5.94-1-1.55-2.4-1.85-5.39-.33a16,16,0,0,1-2.73,1.23l-.57-1c.15.09,4.45-2.51,6.6-2.59ZM53.33,153h2.49l-1.06,2.24Zm72-.3a18.94,18.94,0,0,0,4.8,5.67s-2.57,1.65-4.11,2.7l-.91-1.06,2.22-1.89-2.5-3.47Zm24.26.71a38.06,38.06,0,0,0-.44,4.66,2.11,2.11,0,0,0,1.46.72,11.87,11.87,0,0,0,.6-5,3,3,0,0,0-1.62-.36Zm1.25,1.09a8.16,8.16,0,0,1-.29,3.07c-.23.52-.76.33-.78-.39,0-1,.17-1.76.23-2.64,0-.5.25-.8.54-.68s.29.37.3.64Zm-35.91.66c1.64.12,2.27,1.49,1.67,2.47-1.48,1.88-3,2.23-4.92,3.32l-1.93-3.62s3.75-2.12,5.18-2.17Zm0,.81a7.58,7.58,0,0,0-2.67,1.1c-1.11.54-1.47,1.38-.72,2.15.83.92,3.73-1.29,4.22-1.82a.83.83,0,0,0-.17-1.21,1.07,1.07,0,0,0-.66-.22Zm-59.55.15,2.43,0L56.49,158Zm59.77.38a.51.51,0,0,1-.2,1c-.3.07-.81.08-.82.47s-.45.4-.71.36-.7-.06-.79.26-.39.46-.7.15-.18-.77.47-.85a.8.8,0,0,0,.63-.45c0-.27.18-.44.49-.37a1.18,1.18,0,0,0,1-.58.62.62,0,0,1,.6,0Zm-14.23.05a1.66,1.66,0,1,1-1.66,1.66,1.66,1.66,0,0,1,1.66-1.66Zm-35.46,3.05a1.67,1.67,0,1,1-1.66,1.67,1.67,1.67,0,0,1,1.66-1.67Zm-39.73,1.47,19,13-1.3,1.9-17.66-12Zm95.49.43c1.24,0,2.19.71,3.11,2.15,1.84,2.85.92,5.1-2.87,7.4l-1.78,1.07-.9-1.1,1.82-1.09c3.12-2,4-3.72,2.62-5.68s-2.71-1.74-6.56.71a13.66,13.66,0,0,1-1.71.88l-.85-1.14s2.18-1.12,2.93-1.6a8.35,8.35,0,0,1,4.19-1.6Zm14.18-.49v1.25c0,.06-2.58,1.21-4.12,1.91-.5.27-.31.8-.28,1.35l-.74.5s-1-.75-1.16-1.23c-.37-1.51,4.45-3.32,6.29-3.78Zm-27.46,1.34a1.67,1.67,0,1,1-1.66,1.66,1.66,1.66,0,0,1,1.66-1.66Zm-51.52.47a1.66,1.66,0,1,1-1.66,1.66,1.66,1.66,0,0,1,1.66-1.66Zm64.73,1.33a1.4,1.4,0,0,1,1.36,1c.66,1.61-.23,2.8-3.49,4.62l-.84.46-2.4-3.3s.84-.58,1.64-1.06c1.78-1.16,2.92-1.71,3.73-1.73Zm-.32.79a1.08,1.08,0,0,0-.53.18A9.37,9.37,0,0,0,117.4,167c-.38.53-.21,1.07.52,1.75.62.41,3.81-1.94,3.89-2.63-.27-.71-.53-1.19-1-1.17Zm-95,.17.53.36-.53.42Zm95.47.58a.54.54,0,0,1-.4.87.81.81,0,0,0-.75.48.85.85,0,0,1-.79.44c-.39-.08-.59.15-.61.33a.61.61,0,0,1-1,.07c-.23-.24.18-.94.44-.93,0,0,.34.09.7-.38a.78.78,0,0,1,.77-.55c.29.1.46-.23.59-.41a1,1,0,0,1,1,.08Zm-94.21.26.77.51-2,1.44v-1.16Zm1.48,1,1,.69-3.78,2.71v-1.47Zm1.94,1.23,1.1.72-5.78,3.91v-1.5Zm2.09,1.06v1.26l-6.77,4.72v-1.28Zm.76.9,1.46,1,.36,42.59L26.09,220v-1.87l7.66-5.53Zm110,1.15c-2,2.34-4.79,2.49-7.18,2.43-6.44.09-10.45.43-11.27,8.12,2.62-2,5.41-2.22,8.63-2.12,4.08,0,5.92-.27,7.58-1.1,2.67-1.34,4.35-3.72,4-5.39-.31-.36-1.14-1.85-1.79-1.94Zm-110.77.37v1.48l-6.77,4.54v-1.5Zm77.29.14a1.66,1.66,0,1,1-1.66,1.66,1.66,1.66,0,0,1,1.66-1.66Zm-44.19.17c12,.37,37.36.23,37.36.23l1.35,1.95-39.93-.42Zm77.61,1.28c-1.43,1.41-2.92,2.09-7.62,2-5-.09-6.91.69-8.19,2.91-.38.64-.37.89.17.4s1.49-1.57,1.91-.59c.85-.55,1.58-1.39,2-.33.24-.06,1.68-1.49,2-.22.69-.77,1.28-1,1.6.08,1-.46,1.49-1.33,2-.13.78-.56,1.38-1.26,1.84-.19.67-.2,1.34-1.43,1.73-.45a8.48,8.48,0,0,0,3.17-2.86c.57-1.27,1.08-.43.44.87-1.64,3.17-4.44,4.33-10.87,4.34-3.9,0-5.52.38-6.74,1.1-2,1.15-.91-1.75.47-3.5,1.74-2.21,3.72-2.86,9.15-2.66,3,0,4.87-.39,5.67-1a3.81,3.81,0,0,1,1.53-.95c.37,0,.42.47-.33,1.21Zm-87.88-.54a1.67,1.67,0,1,1-1.66,1.67,1.67,1.67,0,0,1,1.66-1.67Zm-22.83,1.23v1.5L25.86,180v-1.53Zm32.72.72H70.6v5.55H65.35Zm11.77,0h5.65v5.55H77.12Zm12.58.18h5.46v5.37H89.7Zm11.82.11,3.63.12s2,2.57,2.87,3.75l-2.69,1.38h-3.81Zm-33.64.38a1.85,1.85,0,1,0,1.85,1.85,1.85,1.85,0,0,0-1.85-1.85Zm12.08.18a1.85,1.85,0,1,0,1.84,1.84A1.85,1.85,0,0,0,80,175.46Zm12.34,0a1.85,1.85,0,1,0,1.86,1.84,1.84,1.84,0,0,0-1.86-1.84Zm-29.47.37a1.43,1.43,0,0,1-.83,2.6,1.49,1.49,0,0,1-.76-.21Zm5,0a1.23,1.23,0,1,1-1.23,1.23,1.23,1.23,0,0,1,1.23-1.23Zm36.72,0a1.85,1.85,0,1,0,1.85,1.85A1.85,1.85,0,0,0,104.6,176ZM73.87,176a1.49,1.49,0,1,1-1.48,1.48A1.49,1.49,0,0,1,73.87,176ZM98.34,176a1.49,1.49,0,1,1-1.48,1.48A1.49,1.49,0,0,1,98.34,176Zm-65.71.16v1.49l-6.77,4.72v-1.46Zm47.33,0a1.23,1.23,0,1,1-1.23,1.22A1.22,1.22,0,0,1,80,176.08Zm12.34,0a1.23,1.23,0,1,1-1.22,1.22,1.23,1.23,0,0,1,1.22-1.22Zm-6.19.16a1.49,1.49,0,1,1-1.48,1.48,1.49,1.49,0,0,1,1.48-1.48Zm18.49.29a1.22,1.22,0,1,1-1.23,1.22,1.22,1.22,0,0,1,1.23-1.22ZM52,177.86a10.67,10.67,0,0,1,8.48,4.22c2.92,3.89,4.86,8.86,5.74,15.37.44,3.23,1.94,12.92,2.8,15.21l-1.18-.23c-.15.08-1.66-6.09-2.61-14.24a32.21,32.21,0,0,0-2.75-10.47c-2-4.06-5.4-8.36-9.93-8.7-2.64-.2-5.12,1.45-5.39,3.78a3.7,3.7,0,0,0,2.12,4.14c1.39.56,3,.15,3.24-1.75a1.92,1.92,0,0,0-.12-.92,1.25,1.25,0,0,1,1.4.73c.13,0,0,2.75-2.15,3.29-2.59.85-5.59-1.72-5.82-4.34a6,6,0,0,1,3.62-5.66,8,8,0,0,1,2.55-.43Zm-19.33.85v1.52l-6.77,4.67v-1.53Zm19.47,1c3.79-.11,7.48,4.11,9,6.89a33.46,33.46,0,0,1,3.36,11.84c.76,7.38,2.17,13.41,2.47,13.69l-1-.23c-.22.15-1.64-6.51-2.51-13.92a30.88,30.88,0,0,0-3.86-11.46c-1.7-2.93-4-5.12-6.68-5.44-1.7-.17-3.44.32-3.78,2.11a1.74,1.74,0,0,0,1.61,2.16,5.14,5.14,0,0,1,.62.06c.66.11-.37,1.18-1.05,1.09a3.11,3.11,0,0,1-1.63-5.31,5.25,5.25,0,0,1,3.44-1.48Zm8.11,1.08,42.52.43s0,.76-2.61.63a13.59,13.59,0,0,0-5.2.69l-33.4-.07Zm-27.58.49v1.41l-6.77,4.74v-1.56Zm19.76.6a4.57,4.57,0,0,1,2.27.56c5.27,3.05,7.28,10.62,8,15.39.95,7,2,13.61,2.35,13.78l-1.15-.26a94.18,94.18,0,0,1-2.19-13c-.64-5.54-2.53-11.11-6.29-13.44-2.41-1.65-2.89-1.81-4-.86s-2-.41-1.14-1.43a3.22,3.22,0,0,1,2.18-.76Zm-19.76,1.91v1.16l-6.77,4.71v-1.37Zm30.94,0c.09-.08,3.66,6,4.79,15.54.59,5,2.3,13.61,2.57,13.68l-1.24-.13c-1.26-5.06-2-9.85-2.64-14.16-.77-4.89-1.38-9.23-4.43-14.89l1,0Zm.81.05h1.11a46.41,46.41,0,0,1,4.6,14.81A72.44,72.44,0,0,0,73,213.55l-1.19-.32c-1.49-4.17-2-9.2-2.82-14.41-.88-5.77-2.27-10.78-4.64-15Zm6.83,0c1.93,5,3.19,7.4,4.07,13.56a90.25,90.25,0,0,0,3.86,17.11l-1.12,0a67.66,67.66,0,0,1-3.45-15.87,47.89,47.89,0,0,0-4.25-14.74Zm-1.91,0c.11-.15,3.69,7,4.52,14.9a72.62,72.62,0,0,0,3.47,15.44l-1.15,0c-1.32-1.53-2.31-8.77-3.4-15.53a51,51,0,0,0-4.42-14.77h1Zm-2.89,0h1A47.77,47.77,0,0,1,72,198.77c1,7.1,2,13.51,3.13,15.18l-1.24-.09a75.16,75.16,0,0,1-3.09-15.35,44.33,44.33,0,0,0-4.4-14.63Zm5.61,0,1.21,0a44.67,44.67,0,0,1,4.41,15.2A73.89,73.89,0,0,0,81,214.71l-1-.06a74,74,0,0,1-3.82-16.16A52.53,52.53,0,0,0,72,183.92Zm7.43,0a53.77,53.77,0,0,1,2.7,8.81l-.68,1.33A99.48,99.48,0,0,0,78,184ZM74,184l1.47,0a68.49,68.49,0,0,1,4.18,14.14S80,200,80,200.58c-.08,5.12.8,8.77,2.71,14.28l-.88-.06a69.87,69.87,0,0,1-3.37-15.29A44.7,44.7,0,0,0,74,184Zm3.39,0A112,112,0,0,1,81,195a4.13,4.13,0,0,1-.66,2.39c-1.23-4.43-2.27-9-4.16-13.38Zm2.78,0,1.16,0,2.33,6.64-.92,1c-.67-2.2-1.37-4.62-2.57-7.67Zm6.79.05.85,2-.91.78a22.42,22.42,0,0,1-1.18-2.75Zm1.73,0,.43,1.15-.77.58-.6-1.71Zm-6.66,0h1.2c.48,1.39,1.76,4.81,1.76,4.81l-.85.91s-1.63-4.32-2.11-5.73Zm1.85,0h1.06c.32.91,1.32,3.42,1.32,3.42l-.73.7Zm5.56,0,1,.05-.12.26-.66.32Zm-34.48,1.47c4.41,2.32,5.62,9.28,6.1,13.1A104.49,104.49,0,0,0,63,211l-1-.15s-.72-3.43-1.22-6.69c-.42-2.71-.74-5-.85-6-.07-.64-.18-1.4-.24-1.67a18.75,18.75,0,0,0-1.61-5,11.06,11.06,0,0,0-2.3-3.43,8.58,8.58,0,0,1-1.12-1.3c-.24-.5.25-1,.25-1ZM32.63,186v1.31l-6.77,4.78v-1.5Zm0,2.3v1.51l-6.77,4.47v-1.34Zm0,2.57v1.4L25.86,197v-1.45Zm11.3,1.42h.6l0,1-.92-.06Zm-11.3,1.21V195l-6.77,4.47v-1.39Zm10.6.57h1.43v1L42.81,195Zm-.83,1.65,2.35,0v1l-2.91,0Zm-9.77.21v1.57L25.86,202v-1.58Zm8.57,1.63,3.44,0v.82l-4.11,0Zm-8.57.92V200l-6.77,4.34V203Zm7.14.72,4.72.07-.11.79L39,200Zm-7.14,1.68v1.47l-6.77,4.41v-1.42Zm5.37,0,6.21.14,1.31,1.19-9.67.06Zm-1.89,2.18,10.69.13.75.69-11.47,0Zm-3.48.33V205l-6.77,4.44V208Zm3.5,1.38,11.84.06-.86,1-11,0ZM32.63,206v1.43L25.86,212v-1.65Zm3.2.74,10.24,0-1.2,1-7.08.16Zm-3.2,1.78v1.37l-6.77,4.85v-1.54Zm6.19.18,6,0,.11.81-5.17,0Zm1.67,1.66,4.62,0,.21,1.05-4.11-.06Zm-7.86.73v1.27L25.86,217v-1.41Zm12.79,1,.06,1-2.76.11-.77-1Zm0,1.76,0,1-1.92,0-.43-1Zm-1.71,1.86h1.52l-.13.81H43.91Zm.46,1.93h.73l-.12.63h-.38Zm15,10.62-.35.45H69.35l.11-.45Zm13.64,0-.18.61h4.77l.13-.61Zm7.8.12-.15.58H92.63l-.21-.58Zm14.61,0,.24.7h4.11l-.27-.7Zm14.17,0h-7.21l.26.79h7.46Z"/></g></g></g></svg>