<svg xmlns="http://www.w3.org/2000/svg" viewBox="0 0 178.58 249.45"><defs><style>.cls-1{fill:#fff;}.cls-2{fill:#262e5e;}.cls-3{fill:#d41216;}.cls-4{fill:#e1cf01;}</style></defs><title>JS</title><g id="Слой_2" data-name="Слой 2"><g id="S"><g id="JS"><path class="cls-1" d="M8.5,0H170.08a8.48,8.48,0,0,1,8.5,8.5V241a8.48,8.48,0,0,1-8.5,8.5H8.5A8.48,8.48,0,0,1,0,241V8.5A8.48,8.48,0,0,1,8.5,0Z"/><path class="cls-2" d="M23.19,18.05l0,212.72,131.7.28.08-212.84ZM65,19.3l59.67.22s-6.83,8.84-8.25,12.87c-1.1,1.41-1.59,1.15-3.41.79-4.85-1.27-13-1.25-17.08-1.32-7.66-.34-14.55,2-22.22,2.42-2.66-4.44-6.5-10-8.71-15Zm-40.18.39,38.37.11,9,16.42c.33.46,0,1.4-.18,1.93a41.31,41.31,0,0,1-4.34,8.66c-2.12,3.53-2.89,6.77-2.13,8.94a2.22,2.22,0,0,1,.17,1A5.1,5.1,0,0,1,63.46,60c-.84.13-2.59.24-3.6,1.24a5.31,5.31,0,0,0-1.47,4.41A11.56,11.56,0,0,0,58.54,67C47.1,71.72,38.9,77.29,39.17,77.5c-.11,0-10.06-4.63-14.2-5.77Zm102,.29,26.31,0,.16,75.07-10.1-6.54c.83-.58,1.34-.92,2.21-1.51.15,0,.45,0,.64-.09,1.76-.39,3-1.71,2.37-3.07-.41-.93.16-.88.66-1.63a2.08,2.08,0,0,0,.09-2.32c-.18-.35-.08-.49.23-1.15a2.31,2.31,0,0,0-.82-3.23c-.11-.17.11-.41.16-.65A2.21,2.21,0,0,0,147.32,72c-.61-.16-.8-.26-.59-.8.37-.95-.12-1.31-.91-1.62-1.32-.52-.94-.6.69-1.33,3.33-1.5,4.12-6,1.83-10-.3-.52-1.07-1.73-1.61-2.53-.61-1-1.21-1.77-1.21-1.77l4.41-6.15a49.68,49.68,0,0,1-4.16-5.66c.25-1,3.33-4.12,3.73-7.15.63-4.75-3-7.79-6.39-7.43-2.37.24-5.29,1.76-5.07,6.16a10.24,10.24,0,0,0,1.57,4.48c.68,1.29,1.55,2.64,2.39,3.94l-4.44,6.07,4.49,5.69-.16.25a46.27,46.27,0,0,0-2.31,4c-1.65,3.27-2.24,6.87,1.16,9.4a8,8,0,0,1,1.31.93c.33.33.12.58-.41.71a10.71,10.71,0,0,0-1.94.38,21.26,21.26,0,0,0-5.79,3.27,16.72,16.72,0,0,0-3.07,4.64c-.91,1.93-1.16,2.36-1.16,2.36l-15.63-10s-.39-.31-.5-.43c-.29-.33-.19-.52,0-.88a4.39,4.39,0,0,0,.1-1.89,3.14,3.14,0,0,1,.75-2.52,1.75,1.75,0,0,0,.22-1.5c-.24-.74-.27-.5.2-1,.19-.22.4-.33.44-.58s0-.89,0-2c0-2.13,0-2,1.18-2.89,1.48-1.16,2-1.71,2.27-2.23.34-.75,0-1.32-.83-2.83-.38-.69-1-1.61-1.25-2.13A17.88,17.88,0,0,1,115,45.73a3.74,3.74,0,0,1,0-3.37c.64-1.16.82-1.85.8-4.18,0-2.15-.18-2,.37-2.67C120.3,30.07,126.82,20,126.82,20Zm16.72,7.94h.27a5.58,5.58,0,0,1,3.77,1.63c1.62,1.63,1.51,4,1,6.41a8.25,8.25,0,0,1-.92,2.16,5.8,5.8,0,0,0-.51.85,15.8,15.8,0,0,1-.89,1.43c-.47.72-1,1.73-1,1.73a26.54,26.54,0,0,0,2.11,3.08c1,1.51,1.69,2.84,1.77,2.76a5.27,5.27,0,0,1-.62,1.12,48.49,48.49,0,0,0-3.13,4.66c0,.08-.22.15-.21.22,0,.28.4.6,1,1.41,3.57,4.9,4.07,9,1.39,11.46a4.89,4.89,0,0,1-4.06,1.44,5.21,5.21,0,0,1-4.69-5.7,7.11,7.11,0,0,1,.92-3.64,21.31,21.31,0,0,1,1.87-3.46A15.07,15.07,0,0,0,142.62,54a52.18,52.18,0,0,0-3.6-4.7,4.76,4.76,0,0,1-.68-1.18l4-5.92a14.82,14.82,0,0,0-1.25-2.32c-1.6-2.38-2.63-4.92-2.62-6.34,0-3.56,2.35-5.64,5.07-5.65Zm10,84.62s-2.86,2.48-2.66,3.17c.33,1.13,2.49-.6,2.49-.62l.12,2.47c-2.34,3.32-6.91.88-5.75-2.55-3.15.41-3.65-2.79-3.49-4.32-4.14-.9-2.71-5.3-2.71-5.3-2.4-2-2.82-4.1-.87-6.31-2-1.22-2.53-2-4.68-2.89,1.66,14.71,9.6,22.35,18,29.16,0,0,.19,4.74-.77,3.87-11.93-8.92-19.6-19.11-20.92-35.61-.11.27-5.66-4.3-6.58-4.06-1.93,26.71,19.33,44.27,28.18,47.73a31,31,0,0,1,0,3.73c-13.4-5.85-28.3-23-31.17-43.41l-7.91,12.24-3-1.27,12.79-20.14L115.88,83,101.8,105.32s-.37,1.86.65,1.83c19.76,2.11,49.14,25.85,39.3,64.49-.86-.34-2.21-1-2.29-1,1.55-3.32,5.86-24.89-7.1-42.32-5.94-8-15.15-16.47-29.93-19,1.23,2.52.69,8.23.69,8.23l3.45.7a10.36,10.36,0,0,1-2.6-3.57c-.64-2.08.3-3.31,2.6-2.07.91.51,1.14.49,2-.17,1.85-1.38,4,0,3.47,2.33-.07.33,0,.55.9.63a8.08,8.08,0,0,1,5.29,2.73c.64.81.78.69,1.35.2,1.39-1.21,3.69.47,3.28,2.33-.24,1.07-.11,1.33.38,1.53,2.72,1.15,3.39,1.86,4.23,4.24.31.87.56,1.16.72,1.11l.95-.33c2-.77,3.22,1.68,1.78,3.6-.29.39-.07.77.44,1.05a6.87,6.87,0,0,1,3,5.42c.07.88.17.88,1,.85,2.24-.1,3.32,2.93,1.49,4.05-.64.38-.52.89,0,1.47a5.4,5.4,0,0,1,1.5,4.44c-.15,2.35,0,2.31.75,2.6,2.18.83,1.77,4.31-.36,4.3,1.53,3.58-.49,8-.43,8,4.11,2.31.4,4.77-.79,4.33,0,0-.61,1.62.08,2.44-3.6,4.77-8.32,5.56-13.54,7.93L124,161c2.18,1.74,4.33,3.38,6.48,5,0,0,.55-.17.05-.63-1-.88-3.36-2.44-4-3.06a89.89,89.89,0,0,1-7.73-7.41c-.42-.8-1.06-.33-1-.29a37.75,37.75,0,0,0,1.94,3.53c1.78,2.47,3.51,5.22,3.33,7.93a10.5,10.5,0,0,1-.94,3.86c-.25,1-1.92-.18-1.5-1.06.74-2.41,1.35-4.38-1.29-8.25a53.75,53.75,0,0,1-3-5.31l-1.06.26,0,21.9c-.89,0-3.16.62-2.69.64,7.07-1.42,9.24,8.71,2.4,9-1.29,0-2.64,2.28-2.77,3.49.06,2.94.49,6-1.67,8.87a28.23,28.23,0,0,0-1.34,2.85c-2.63,4.65-3.8,7.31-3.54,8.52.07.3.13.71.13.71-8.39,2.06-15.33,1.71-23.07,2.83a100.45,100.45,0,0,1,4.95-12.53c1.58-3.1,2.39-5.23,1.94-5.87-6.68.34-5.4-9.47,1-9.12,0,0,1.6-5.65,3.4-8.2,1.7-.94,5.12.34,7-.92,4.52-1.39,7.48,4,7.48,4l1.22-5.09-40-.19s-4.12,1.54-6.22.67A11,11,0,0,1,60.62,175s15.27-24.54,17.52-28.08c.18-.28-.4-.9-.4-.91C77.65,145.22,60,172.8,60,174a.9.9,0,0,1-1.33.08c-10-6.9-33.93-21.76-33.93-21.76l0-11s.73-1,1.32-1.14c1.2-.81,2.12-1.69,3.35-2.47.68-.4,1.09-1,.93-1.23s-1,0-2.15.83c-.79.55-3.58,2.34-3.58,2.34s-.17-4.13-.17-4.13,3.62-3.19,2.47-3.41a1.84,1.84,0,0,0-1.35.57c-1.59,1.38-1.43,1.55-1.53-.32-.1-1.62.1-1.84.81-2.48,2.56-2.37,5.62-1,5.77,2.48,0,.62,0,.63.53.74A3.43,3.43,0,0,1,34,136.6c0,1,.15,1.18.85,1.37,1.6.44,2.67,2.87,2,4.59-.31.84-.14.78.35,1.25,3.1,3,.68,5.94-.06,5.83.45.3,4.91,3.29,5.3,3.18-.39-15.69-17.67-30.67-18.15-29.88l.36-3.39s21.6,13.82,21.41,36l6.89,4.1c-.61-22.75-10.77-38.1-28.13-47.86l-.37-4.29c14.58,6.79,28.09,20.52,31.24,43L63.78,138l2.84,1.38c-4.55,6.44-8.28,13.1-12,19.39a2.45,2.45,0,0,1-1.21,1.1l8.39,5.62c6.28-8.26,11.51-18.4,14.7-23.22-.08-.44-.26-1.07-.26-1.07C45.35,136.09,28,107.18,36.25,77l2.14.94C32,100.28,42.45,132.49,76,139.07c-.07-2.37-.48-8.23-.48-8.23s-4.41-1.32-3.77-.79c1.09.92,3.51,4.9,2.49,6.32a5.33,5.33,0,0,1-3.33-1.3c-.5-.38-.52-.3-1.09.32-1.58,1.69-3.89.72-3.91-1.61,0-1,0-1.19-1.44-1.2-2.12,0-3.07-.38-4.33-2.07-.9-1.21-.82-1.21-1.88-.85s-1.12.56-2,.12a2,2,0,0,1-1-2.85c.32-.78,0-1-.94-1.18-1.79-.3-3.82-2.55-4.2-4.39-.07-.38-.26-.47-1.32-.44-2.07.08-3.22-1.19-2.41-3,.45-1,.58-1.34-.26-2a6,6,0,0,1-2-2.3,9.29,9.29,0,0,1-.66-2.87c-.08-.56-.27-.65-1-.75-2.14-.28-3-2.48-1.41-3.9.48-.44.48-.42-.25-1.37-1.4-1.82-1.93-4.19-1.32-5.77a.78.78,0,0,0-.5-1.08c-1.95-.48-2-2.65-.11-3.87.54-.36.57-.59.16-1.31-.72-1.25-.69-4.52,0-6.09.45-1,.45-1-.25-1.49a2.28,2.28,0,0,1,.7-4c.85-.21.9-.32.68-1.36-.42-1.84-.49-2.32.6-3,3-2,10.69-5.68,10.69-5.68L54,69.9s.25,15.51.09,17.35c-.1.79.61,1.27,1.43,2.09C57.19,91,58.12,93,60.4,94.45c0,0,1.42-.79,2.3-1.36L62.79,71c.17-.51.3-.56.88-.63s1.71-.23,2.11-.35c1-.29,1.13-.68-.15-.55-.39,0-1,.21-1.62.33-4,1.21-7-5-3.94-8.21a9.53,9.53,0,0,1,3.78-1.5c.29,0,1.15-1.06,1.74-2a2.92,2.92,0,0,0,.5-2.69c-.71-2.07-.07-5.24,2-8.71,1.18-1.92,2.12-3.24,2.16-3.29a47.21,47.21,0,0,0,2.88-7.52c6.55-1,13.14-2.57,19.63-2.63.93,0,1.85,0,2.78.08.28,2.48-8,17.15-6.31,18,6.56,1.57,4.32,9.34-.66,9.09-.75,0-.82.06-1.3,1.71-.9,2.41-1.49,4.25-2.46,6.49,0,.58-.41.52-3.13.5-2.5-.36-4.21,1-6,1.07a5.08,5.08,0,0,1-5.08-2.84c-.36-.82-.69-.28-.7,1.66,0,1.55-.07,2.45-.07,2.45l20.43,0c22,0,19.82.38,21.57-.5,1-.51,1.69-1.06,3.45.09,2.83,1.85,2.73,1.6,1.91,2.78-5.53,8.21-17.76,28-17.76,28l.86.83s12.35-19.51,18-28.65c.26-.3,1.43.08,1.43.08L153.4,96c-.29,3.31,0,10.93,0,10.93,0-.52-6.4,4-6.13,4.6,1.51.57,4.39-2.43,6.07-3.3ZM37.16,149.64l-.16-.11a.23.23,0,0,0,.16.11ZM96.34,33.71a137.15,137.15,0,0,1,14.67.86c4.29.69,4.07.56,4,3.68,0,2.22,0,2.16-.58,3.22-1,2-.87,3.89.78,6.59A31.24,31.24,0,0,1,118.05,53c0,.58-.1,1.28-1.49,2.26-1.65,1.14-2,2-1.94,3.11,0,.94-.16,1.25-.72,1.25a9.73,9.73,0,0,0-1.88.77,4.55,4.55,0,0,1-2.92.7c-.71,0-1-.27-1.24-.19-.38.17-.73,1.44-.72,1.81,0,.13.25,0,.66-.09,2.34-.8,5.81-.44,5.9-.09.48.43.48,1.09-.24,1.77a2.52,2.52,0,0,0-.47,2.22c.26,1.52.06,2.12-.71,2.65-2.38,1.61-5.55,1.81-10.61.83-5.34-1-9-3.06-12-6.7-1.36-1.63-1.7-2.2-1-2.32a11.09,11.09,0,0,0,2.59-.66c3.75-1.62,3.69-8.49-1.37-9.21-2.06-.07,4.26-9.8,6.5-17.39Zm4.82,4.74c-1.82,1-2.76,2.25-2.77,2.92,0,.28.06.23.93-.34,2.52-1.65,9.14-4.05,11.51-2.67,1.71,1,2.37.69,1.38-.68-2.32-3.24-8.57-.59-11,.77Zm6.48,1.08a3.88,3.88,0,0,0-.82.09c-1.75.39-3.68,1.83-5.27,3.1a12.62,12.62,0,0,0-2.08,2.19c-.39.73.48,1.54,1.66.89a1.58,1.58,0,0,1,1.41-.2,13.83,13.83,0,0,0,6,.95c.26.06.24.12.15.36a8.69,8.69,0,0,1-2.36,2.17c-.64.47-1.2.87-1.25.94-.2.31.66.33,1.6-.2a13.66,13.66,0,0,0,3.81-3.77,1.67,1.67,0,0,0,.26-.37c.09-.32-.47-.19-.77-.27-.13,0-.1-.36-.14-.51a6,6,0,0,1,.14-1.61c.06-.45.54-.81.86-1.14,1.41-1.47,1.3-2.13-.59-1a1.92,1.92,0,0,1-.88.33c-2.79.09-4.41,0-6.74,1.94-1,.84-1.65.92-.73,0,1.4-1.14,3.16-2.76,5.11-3.19,1.18-.29,2.29.61,2.81.38,0-.65-1-1.11-2.14-1.1Zm-.4,4a2.9,2.9,0,0,1,.6,1.67c0,.43-.77.25-.87,0l-.4-1.22c-.18-.4.35-.64.67-.5Zm-1.43.25c.35.34.42,1.07.62,1.67-.13.43-2.88-.15-3.22-.64a3.53,3.53,0,0,1,2.6-1Zm4.82,7.83a1,1,0,0,0-.72.34,2.61,2.61,0,0,0,.64,4.12c.73.34,1.83.09,3.45-.4a7.74,7.74,0,0,1,1.46-.35.88.88,0,0,0,.54-1.42c-.52-.52-1.73-.44-3,.56a2.68,2.68,0,0,1-1.66.76c-1.31,0-1.94-1.37-.61-2.78.45-.47.29-.81-.06-.83Zm-9.15,9.28c1.54,1.25,4.46.6,6.43-.7,1.76-1.17,2.49-1.51,3.9-1.27,1.72.3,1.66-.38.91-1.23s-2.94-.68-4.7.49c-3.88,2.58-5.29,3-6.42,1.61s.23-3.42,1.66-2.37c1.17.8,1.15.2.67-.35-2.82-2.38-4.86,1.89-2.45,3.82ZM87.81,62.16a21.09,21.09,0,0,0,6.66,6.06l0,.47-9.12,0a63,63,0,0,0,2.43-6.51ZM56.92,68.64c-.19,3.75.48,6,2.68,8.58,2.33,2.78,2.16,7.13.65,9.81-.66,1.19-2-.27-1.38-1,.91-1.14,1-3.92.54-5.66-1-2.88-3.14-4.29-4-7.32a18.77,18.77,0,0,1-.2-3.63Zm2.86.32c.16,0,.41.14.79.46,1.29,1.12,1.07,4.32-.41,6.37-.45.62-.83.44-1.26-.13S58.52,75,59,74a6.91,6.91,0,0,0,.57-3.63c-.07-.94,0-1.39.2-1.42Zm83.68,1.09c1.14,0,2.56.23,2.69.64s-.15.9-.78,1.17c-1.67.71-3.87-.28-3.32-1.48a2.15,2.15,0,0,1,1.41-.33Zm-2.89.28a1.76,1.76,0,0,1,.79.16c.54.28-.32,2.21,2.4,2.17.65.09,1.13,0,1,.24s-1.3,1.1-2.56,1.29c-3.79.56-3.63.37-3.45,3a9.63,9.63,0,0,1-.24,3.4c-.41,1.83-.58,3.61-.3,3a14.53,14.53,0,0,0,1.3-4.64c0-2.07.74-2.48,1-1,.13,1-.31,1.55.35,2.56.38.57.55.56.3,1.44a1.29,1.29,0,0,0,.2,1.4c.27.4.55.49.32,1a1.71,1.71,0,0,0,1.42,2.43c.52,0,.67.28.51.48a2.36,2.36,0,0,1-1.29.61l-12-7.69s.89-1.79,1.16-2.27c1.73-3.79,3.1-5.51,8.15-7.5a2.31,2.31,0,0,1,.9-.21ZM147,72.82c.34,0,.58.16.86.52.74,1,.1,2.13-1.72,3.15-1.55.89-2,1-2.34-.4a1.88,1.88,0,0,0-.42-.68c-.36-.33-.27-.6.18-.84A16,16,0,0,0,145,73.8a4.76,4.76,0,0,1,2-1Zm-5.12,2.75a2.08,2.08,0,0,1,1.07.28.88.88,0,0,1,0,1.42c-1,.39-2.5-.14-2.37-1,.07-.46.67-.69,1.3-.68Zm6.2,1a.91.91,0,0,1,.81.48c.56.87-.1,1.75-2,2.69-1.25.61-2.86.88-2.75.52a4.92,4.92,0,0,0-.57-2c-.08-.24,0,0,1.61-.52a8.2,8.2,0,0,0,1.59-.68,2.88,2.88,0,0,1,1.32-.53ZM57.79,78.81a7.44,7.44,0,0,0-.61,5.29c.35,1.85.76,2.79,2.66,5.53,1.45,2.09,1.92,2.9,1.57,3.56-.25.35-.8.69-1.15.35-.71-.93-1.13-2.06-1.82-3.09-2.67-3.91-2.85-4.9-3.19-8-.16-1.42.66-4.42,1.35-4.87.77-.3,1.42.72,1.19,1.21Zm61.53-1a.4.4,0,0,0-.2.11,8.25,8.25,0,0,0-1.36,2.3c.08.57.53.2,1.74-1.56.28-.43.09-.88-.18-.85Zm22.92,1c1.06,0,1.44,1,1,1.48a1.15,1.15,0,0,1-1.95-.84c0-.43.21-.65,1-.64Zm5.91,1.36c.61,0,.69.64.36,1.51s-.89,1-2.35,1.41c-1.76.55-2,.47-2.31-1.14-.1-.62,0-.48,1.57-.91a16.6,16.6,0,0,0,1.94-.7,2.08,2.08,0,0,1,.79-.17Zm-103.61.72L45,84.13l.7-2.44ZM142.45,82c.86,0,1.32.78.89,1.24a1.19,1.19,0,0,1-1.17.11c-.69-.5-.56-1.36.28-1.35Zm-26.37,1.7,1.68,1L104.1,106.28l-1.65,0-.16-.35Zm31,.21c1,0,1.09.94-.13,1.81a3,3,0,0,1-1.5.42c-.61,0-1-.13-1.06-.56-.26-1-.42-1.28.53-1.22a2.75,2.75,0,0,0,1.1-.19,2.75,2.75,0,0,1,1.06-.26Zm-4.18.94c.7,0,1.14.76.67,1.13s-1.3.18-1.29-.52c0-.44.12-.61.62-.61ZM44.58,86.35l-3.72,3.29a61.24,61.24,0,0,1,3.69,4.92Zm75.18.21c1.61-.07,2.14.71,1.37,1.24a4,4,0,0,1-3.11.5c-1.56-.29-.31-1.54,1.4-1.72l.34,0ZM118,88.91a4.4,4.4,0,0,1,1.43.29c1.06.35,2.37,1.46,2.31,2.08-.1,1-2,.48-3.48-1-.94-.89-1-1.4-.26-1.42Zm-1.42,0c.91.09,1.83,3.19,1.11,4.14S115.81,92,116,90.4c.09-.62.25-1.45.5-1.47Zm-59.76.68c.51.13,1.17.84,1,1.38-.1.21-.32.15-.55.1a1.25,1.25,0,0,1-.67-1.26c0-.14.09-.21.19-.22Zm69.34.53L128.89,92l-2.69.1Zm-11.14,3.69c2.07,0,2.5.68,1,1.49a4.87,4.87,0,0,1-3,.12c-1.27-.44.26-1.62,2-1.61Zm16.68,1.39.15,1.87-5.18.46-.27-2Zm-17.89.94a3.62,3.62,0,0,1,1.68.52c1.41.72,2.21,1.94,1.48,2.33s-1.83-.07-2.66-.94c-1.1-1.15-1.19-1.87-.5-1.91Zm-1.76,0c.94,0,1.75,2.63,1.13,3.9-.33.7-.76.55-1.38-.6s-.63-3.07.06-3.28a.62.62,0,0,1,.19,0Zm-67.32.73-2.26,4.55,4.1,3.57Zm87.61,3.5.37,1.8-5,1.22-.49-2Zm-21.7.35a2.49,2.49,0,0,1,1.51.44c.45.4.35.58-.72,1-1.9.77-4.25.3-2.89-.85a3.37,3.37,0,0,1,2.1-.61Zm32.41,0c-.5,0-1.13.69-.81,1.09a2.51,2.51,0,0,0,1.91-.09c-.1-.33-.71-1-1.1-1Zm-33.8,2.43c1.36,0,4,1.9,3.45,2.79-.31.49-2.09.08-2.79-.6-.93-.89-1.43-2.08-.91-2.18Zm-1.71.08c.7-.13,1.82,3.14,1,4-.31.32-.4.3-.93-.17a2.93,2.93,0,0,1-.24-3.64.37.37,0,0,1,.2-.16Zm36.74,3.92c.13.19.68.39,2.83-.85,2.4-.93,2.28-1.88,1.47-2-.87.09-4.47,2.28-4.3,2.89Zm-10.67-2,.66,1.82-5,2-.74-2Zm-85.58,3.45-1.7,4.46a12.89,12.89,0,0,1,5.18,1.65ZM135.32,110l1.05,1.79-4.7,2.55-.94-1.89ZM26,113.46l1.93,1.36-2.84,3.52-.25-.5,0-2.92Zm111.91,1.11,1.13,1.64-4.52,3.15-1.12-1.79Zm-107,2.11,2.08,1.6-3.29,4-2-1.52Zm22.9,1-.1,4.78,4.9.19Zm56.61,2.15,5.57,3.21-.84-4.89a45.93,45.93,0,0,0-4.73,1.68Zm30.58-1,1.3,1.62L138,123.94l-1.34-1.68ZM35.09,120.23,37,122l-3.42,3.69L31.81,124Zm109.41,2.62,1.51,1.53-3.81,4-1.51-1.53Zm-105,1.94,1.5,1.75-3.91,3.1-1.45-1.75Zm22.5.41,1.09,4.68c-.08-.34,4.86-1.4,5.5-1Zm57.51.4,4.66,4.92.52-4.74Zm28.83.77,1.69,1.32-3.13,4.46-1.91-1.5Zm-105.48,3,1.39,2-4.1,2.44L39,132Zm109.9.48.26.26v3.18l-1.3,1.91-1.76-1Zm-26.38,3.57,4.13,7.5,1.16-5.59a11.9,11.9,0,0,1-5.29-1.91Zm-80.26,1,1,2.16-4.32,2-1-2.15Zm2.33,5.16.8,2.17-4.6,1.53-.73-2.1Zm-15,1.14-5.74,2.59,1.38,1.17,4.72-2.54Zm36.6.3c.29,0,.61.36.87,1.22.4,1.3.19,2.91-.69,2.89-.6-.07-.82-1.59-.82-2,0-1.3.28-2,.64-2.07Zm4.09.78,1.78.19v.5L61.76,164.93l-1.71-1.09Zm-7.62.52a3.26,3.26,0,0,1,2.12,1.17,3.73,3.73,0,0,1,1,1.8c0,.21-.39.13-.76.08a4.24,4.24,0,0,1-2.76-1.58c-.54-1-.23-1.48.4-1.47Zm65,.8,1.89,9.2c.58-2.31,1.82-3.63,2.72-5.44a12.91,12.91,0,0,1-4.61-3.76ZM50.28,145l.44,2.38L46,148.44l-.49-2.31Zm17.77.83h.2c1.75.2,2,.59.82,1.37-.71.48-2.63.54-2.95,0s.92-1.41,1.93-1.41Zm-32.79.5-1.78.89,1.48.87,1-1.14ZM65.55,148c.53,0,.85,1,1,1.83a2.68,2.68,0,0,1-.09,2c-.4.52-.79.61-1.1.09-.93-1.5-.9-4,.15-4Zm-3.93,1.38a2.64,2.64,0,0,1,.93.19c1.23.47,2.87,2.36,2.18,2.63-1,.38-3.26-.74-3.68-1.88-.21-.57,0-.92.57-.94Zm-10.2,1.53.12,2.35-5,.2-.15-2.34Zm12.28,2a3.44,3.44,0,0,1,1.39.22c.71.31.19.87-1,1.3a3.18,3.18,0,0,1-2.38,0c-1-.75.55-1.51,2-1.55ZM25,153.15c3.43,2.08,10.5,6.72,10.5,6.72a2.83,2.83,0,0,0-1,.59,4.25,4.25,0,0,1-.77.51,6.41,6.41,0,0,1-1,.24c-2.22.48-3.3,1.73-2.61,3.29.27.61.34.51-.13,1-1.32,1.26-1.16,1.63-.69,3.25,0,.22-1.57,2.16-.17,3.62.77.67.81.25.53,1.78-.1.92.15,1.67,1.49,1.93.74.35.73.23.47.86-.18.9.07,1.28.71,1.6s.8.47.4.78c-4.45,2.28-5.83,6.25-1.62,12.1.49.69,1.74,2.63,1.74,2.63-1.42,2.1-2.77,3.83-4.22,5.71l4.21,5.88a42.53,42.53,0,0,0-3.25,5.38c-1.47,3.22-.5,7.72,3.73,9.07a5.49,5.49,0,0,0,5.71-1.64,7.34,7.34,0,0,0,.77-7.19A28.26,28.26,0,0,0,36,205.45l4.5-5.66s-3.1-4.46-4.33-6.08c8.44-10.33,1.54-13.22.22-14.11-.21-.13-.16-.8-.16-.8,7.58-.86,10.17-5,12.4-10.3,4.52,2.91,11,6.83,15.54,9.89.43.41.72.66.66.88a8.24,8.24,0,0,0-.24,1.88c.21,1.37.11,2-.45,2.52s-.41.72-.33,1.25c.14.93.28,1-.13,1.49s-.68.84-.58,2.24a4.62,4.62,0,0,1-.06,1.94c-.28.64-1.06,1-2.07,1.76-1.77,1.39-1.54,1.82.91,6.88,2.09,4.31,2.33,5.3,1.53,6.83a6.92,6.92,0,0,0-.83,4.1c0,.47,0,1,0,1.22,0,.6,0,.53-.34.9a11.87,11.87,0,0,0-1,1.28c-2.92,4.37-10.59,15.49-10.59,15.49L25,229Zm36.16,2c.3,0,.66.51,1.08,1.61a2.52,2.52,0,0,1-.18,2.15c-.76.84-1.82-1.13-1.49-2.69.16-.7.35-1.05.59-1.07ZM133.63,154c0,4-.09,9.15-1.46,13l1.56.7c-.51-3.91.12-7.12,3.71-8.81a12.51,12.51,0,0,1-3.81-4.85Zm-76.39,2.51a1.2,1.2,0,0,1,.43.08,4.18,4.18,0,0,1,1.72.93c.74.76,1.5,1.66,1.31,1.75-1.22.53-4.32-1.11-3.91-2.38a.46.46,0,0,1,.45-.38Zm-5.42.17,0,1.95-3-1.92Zm68.43.93c.49,0,1.24.68,1.12,1.12s-.46.44-.8-.07-.58-1-.32-1ZM59.53,160c.73,0,1.36.14,1.43.52s-.56.82-1.24,1c-1.7.52-3,.19-2.51-.65.29-.55,1.39-.88,2.32-.9Zm59.34,2.21c-.72,1.3-.81,5.42.47,7.11,2,2.18,3.79,5,3.58,8.8L121,179c.11-3.11,0-5.13-2.44-7.81-2.89-3.14-2.21-8.58-1.21-10.18.85-1.58,2.09.65,1.5,1.23Zm-83.12-1.72c.61,0,1.35.33,2.69,1.21,3.44,2.43,5.29,3.37,8.7,5.78.5.47.47.4.39.76a12.56,12.56,0,0,1-10.69,9.66c-.64.09-.31-.32-.7-1.1a2.11,2.11,0,0,0-2-1.16c-2.31,0-.33-1.32,2.49-1.69a5.11,5.11,0,0,0,2.65-.84c.13.07-.49-3.89.15-5.28.32-1.26,0-1.86-.33-1.09a13.06,13.06,0,0,0-.7,3c-.14,1.1-.37,1.25-.63.72a1.9,1.9,0,0,1,.07-1.27c.21-1-1.09-1.82-.83-2.77a1.69,1.69,0,0,0-.45-2,2.07,2.07,0,0,1-.18-1.24,2,2,0,0,0-1.38-2c-.39-.2-.27-.41.14-.62a1.73,1.73,0,0,1,.58-.16ZM32.94,162a2.36,2.36,0,0,1,.65.07c.46.28.82,1.85.32,1.91a10.07,10.07,0,0,0-1.23.23c-1.54.45-2.26.39-2.24-.49s1.3-1.7,2.5-1.72Zm2,.15c.61,0,1.09.72.71,1.09a.68.68,0,0,1-1.14-.46c0-.3.13-.63.43-.63Zm.41,2.46a1.22,1.22,0,0,1,.57.12c.56.27.89,1.23.53,1.59s-1.05.17-1.47-.18c-.74-.64-.38-1.5.37-1.53Zm-1.91.14c.36,0,.61.12.67.36s0,.4.06.69c.14.47.44.82.18,1-1.18-.07-3.63,1.4-4.33,1.33s-.66-.62-.15-1.5a5,5,0,0,1,3.57-1.89Zm.72,2.86c.25,0,.3.12.19.5a2.55,2.55,0,0,0,.17,1.31c.2.44.55.7.36.87s-1.31.29-2.16.61c-1.1.61-4.18,2.44-3.4-.49.25-1,1.38-1.66,3.36-2.35a7.71,7.71,0,0,1,1.48-.45Zm1.61,0a1.26,1.26,0,0,1,1.27.79c.71,1.42-1.34,1.63-2,.44-.39-.7.11-1.18.72-1.23Zm.4,3.32c1.06,0,1.89,1.32,1.11,1.82a2.5,2.5,0,0,1-1.94.12c-1-.43-.53-1.95.83-1.94Zm102,0a77.64,77.64,0,0,0,14.91,5.54L153,229.05l-36.37,0-10-17.38s-.33-.56-.43-.81a1.8,1.8,0,0,1,0-1.35,29.89,29.89,0,0,1,2.26-5.16c2.42-4.44,5.85-9.3,4-13.56-.21-.49,1.93-3.13,1.93-3.13,3.28.26,6-1.88,5-6.94,6.86-2.8,12.51-5.08,18.88-9.82Zm-103.9.27c.09,0-.19,1.14.39,1.85.36.56.31.54-.93,1a7,7,0,0,0-1.18.86c-1.76,1.57-3.51-.49-1.8-2.14a6.38,6.38,0,0,1,3.49-1.59Zm83.8,1.08c.59.11,1.35.89,1.11,1.32a6.32,6.32,0,0,0-1,3.6c-.08,1.61.2,1.85-.42,1.57-.4-.19-1.15-.51-1.32-.92-.39-.95.6-5.74,1.58-5.57Zm-84.38,4.05a2.14,2.14,0,0,1,1.73.7c.32.41.35.77,0,.94-.76.4-3.29.19-3.41-.33-.2-.8.69-1.29,1.65-1.31Zm38.25,1a25.35,25.35,0,0,1,9.47,1.89,17.9,17.9,0,0,1,8.23,6.92c.24.5-.25.5-.67.54a5.14,5.14,0,0,0-2.31,9.35,4,4,0,0,0,2.26.69c1-.08-4.48,10.45-6.67,17-6.76-.27-11.87.77-18.48-1.51-.71-1.18-.54-3.78,0-5.13s1.1-2.16.8-3.57c-.53-2.45-2.76-5.64-3.51-7.66-.66-1.55-.61-2.13.53-3a8.57,8.57,0,0,0,2-1.79c.35-.49.2-.6.21-1.7,0-1.35,0-1.14,1.08-1.34a8.62,8.62,0,0,0,2-.72,3.25,3.25,0,0,1,3.31-.27c.37.1.33-.28.49-.79a4.88,4.88,0,0,0,.21-.69c0-.23-.52-.16-1-.09a11.72,11.72,0,0,1-4.73.05c-.76-.28-.76-.8-.32-1.64a2.63,2.63,0,0,0,.51-2.32c-.2-2,.07-2.39,1-3,1.15-.81,3.23-1.19,5.63-1.18Zm11.15,1.75h10a25.59,25.59,0,0,0-2.7,6.35c-.09.18-.2.36-.43.13a20.41,20.41,0,0,0-6.9-6.48Zm-8.31,7.06a10.49,10.49,0,0,0-4.58,1.69,5.16,5.16,0,0,1-3.69.94c-.77-.14-.87,0-1,.21-.46,1.14,1.23,2.35,3,1.56.5-.21,4.32-2.19,4.53-2.36a7.66,7.66,0,0,1,2.23-.64,1.85,1.85,0,0,1,1.89,2.15c-.21,1.53-2.38,1.61-2.52.25-.11-1.05-.55-.58-.59-.07a2.71,2.71,0,0,0,.69,1.67c1.84,1.15,4.26-1.08,3.1-3.38a3.12,3.12,0,0,0-3-2ZM66.6,191.5a31.1,31.1,0,0,1-3.39.83c-1.11.24-1,1.12-.34,1.58s1.2.14,3.14-1.09a1.64,1.64,0,0,1,2,2.6c-1,.81-.3,1,.36.54,1.68-1.26.72-4.94-1.78-4.46ZM72.49,198a1.57,1.57,0,0,0-.69.18,8,8,0,0,0-3.2,2.26c-.12.2,0,.53-.11.79s-.21.47-.18.61.43.26.49.37a5.54,5.54,0,0,1,0,2.52c-.07.41-.68.53-.93.78-.8.82-.6,1.07.26.75.59-.22.34-.64,1.82-.35a7,7,0,0,0,4.94-1c1.68-.93,2.28-1.45,2.35-1.34s0,.28-1.17,1.27c-3,2.49-5.22,3.07-6.89,2.13-.51-.34-.91-.48-.53.25a2.89,2.89,0,0,0,.74.53c1.73.78,3.89.12,6.64-2.05.6-.48,1.13-1,1.83-1.6,2.28-1.91,1.68-2.78-.9-1.85-.81.29-1,0-2.14-.46a8.11,8.11,0,0,0-3.65-.65c-1.48,0-1.7.11-1.7-.14a4.19,4.19,0,0,1,2.11-1.92c1.09-.47,1.4-1.07,1-1.1Zm2.72,4.71c.27.28-.12.45-1.19,1a7.17,7.17,0,0,1-1.23.52c-.1.17-1.1-2.09-.83-2.21a7.87,7.87,0,0,1,3.25.73Zm-3.87-.24a6.19,6.19,0,0,1,.53,1.55c0,.15.13.38-.11.37s-.5,0-.61-.13a4.4,4.4,0,0,1-.42-1.92c.18-.25.51-.07.61.13Zm8.77,4.08a1.27,1.27,0,0,0-.52.22c-4.24,2.51-9.33,3.81-12.6,2.57-1.1-.41-1.31-.27-.9.49a2.71,2.71,0,0,0,1.67,1.37c2.67.73,7-.34,10.29-2.51,1.34-.88,2.45-2.15,2.06-2.14Zm25,6.71s7.49,15.45,9,16.18l-61-.11,10.27-14.69c.09.82,28.87,3.89,41.77-1.38Z"/><path class="cls-3" d="M53.56,229l9.71-14.37c14.57,2.77,27.68,1.31,42-1.26l9.57,16.13Zm77.28-54.44a66.86,66.86,0,0,1,.1-8.06c.18.18,1.83,1.39,2.57.79-.94-7.66,4-7.51,3.88-8.51-7.67-5.79-1.09-11.7-1.22-11.83-8.39-4.33-4.18-11-4.76-11.58-10.22-2.65-6.23-10.76-7-9.92-6,1.79-9.24-3.2-9.34-7.26-5.15,2.92-13.1-1.21-10.61-5.86,0,0,2.73,1.29,3.21,1,4.21-3,3.88,1.33,4.75,2.29,3.14-.46,5,1.94,5.77,3.11,4.63,0,4.44-1.11,4.48,3.38,3.48.88,3.34,2.77,5.36,5.35,4.39,0,3.66,1.47,2.66,3.91,3.17,2.51,3.43,4.49,3.95,6.78,3.45,1.26,4.07,1.77,1.82,4.68,3,4.57,1.58,7.22,2,7.47,3.8,2.74,1.91,3.73.25,4.79.57,3.64,1,4.18-.3,7.89,4.37,3.1-.7,4.5-1,4.44l-.49,3c.11.59-5.75,4.47-6.16,4.06Zm-106-22.12-.09-10.7L61.8,165.66,57.12,173Zm49.22,15.76,8.76-18.34s-4-20.12-3.15-20c.52.07,25.1.55,25.1.55,2.82,6.41,4.52,11.86,11.75,22.48l-7.64,2.38.27,12.86Zm21.46-4.83a2.24,2.24,0,0,1-.35-1.13c.1-.3.33-.29.63-.13,1.07.52,2.13,1,2.92,0a1.41,1.41,0,0,0,0-1.67c-.6-1.22-2.49-.34-3.13-.29s-.81-.49-.33-1.19a1.84,1.84,0,0,0,.52-1.05c.33-2.81-4.44-1.81-2.79.91.76,1,.32,1.61-.79,1a1.82,1.82,0,0,0-2.86,1.42,1.69,1.69,0,0,0,2.63,1.13c.27-.15.48-.32.67-.41.55-.23,1,0,.77.58-.5.77-1.07,1.88-.59,2.61a1.76,1.76,0,0,0,2.71.3,1.73,1.73,0,0,0,0-2.05Zm57.9-56.21-37.12-24,1.29-2a3.77,3.77,0,0,0,2.28-3.69l1-2.22L153.46,96Zm-57-5.26,2.74,16.56-25.77.24c-1-4.22-9.72-20.23-10.45-20.9,4.35-4.17,4.43-11.3,6.91-17,.2-.26,34-.3,34.39,0-.14,4-10.48,21.95-7.82,21.12ZM85.66,91.78c.66-.6.61-1.52-.11-2.55s-.39-1.73.73-1a2.87,2.87,0,0,0,2.28.29,1.52,1.52,0,0,0,1.07-1.81c-.15-1-1.29-1.32-2.52-.87-.35.07-.57.36-.87.5-.66.29-.92-.5-.32-1.53a1.59,1.59,0,0,0-1.26-2.47,1.56,1.56,0,0,0-1.55,2.2c.76,1.18.21,2-.9,1.21-1.58-1.13-3.66.3-2.8,2,.42.82,1.78,1,3,.51,1-.43,1.33.07.71,1.12-1.27,2.15.82,4,2.54,2.46ZM48.05,72.71l-.27,10.35c-3.87-2.37-3.3-2.4-3.44-2.37a7.44,7.44,0,0,1-3.48,8.85c5.92,5.56,2.72,9.47,1.75,12.11a8.61,8.61,0,0,1,3.76,11.6c7.47,0,7.31,6.57,7.53,9.29,9.23-.58,8,6.8,9.21,7.43,4.48-2,9.7-1.32,11.09,4.7.89,3.41-2.4.12-3.83.27-5.1,3.17-4.12-1.67-4.41-2.35-4.22.4-4.79-1.61-6.64-3-4.57.88-4.19-.63-3.92-3.4-3.58-.72-4.36-3-5.79-5.15-4.94.16-2.93-3.33-2.91-4-.59-.53-3.44-3.32-3.57-6.52-5.08-1.44-1.89-4-1.71-4.88-1.92-2.39-2.42-4.15-1.78-7.17-4.51-2.1-.74-4.07-.43-5.27-1.46-3.92-.39-5.1.19-7.23-2.9-3.39-1.17-3.2,1-5.26.27-.38-.47-2.08-.43-3.09Zm26-38.37L66,19.8h58s-6.31,8.75-8.76,13.15c-14.47-2.28-28-1.2-41.14,1.39Z"/><path class="cls-4" d="M33.58,219.71c-5.09-1.16-5.95-7.55-1.18-12.87a4.16,4.16,0,0,0,.65-1.1s-.85-1.4-3.08-4.49c-.41-.57-1-1.49-1-1.49,1.22-1.76,2.51-3.22,3.87-5.13.19-.26.53-.55.48-.79s-.57-.67-1.16-1.54c-3.44-5.08-3.82-7.09-2.07-10.11a5,5,0,0,1,8-.67c2.58,2.71,2.46,5.16-.89,10.16-.74,1.1-1.27,2.09-1.27,2.09s0,.35,1.18,1.92c1.69,2.18,2.93,4,2.93,4s-.77,1-1.5,1.84a25.94,25.94,0,0,0-2.82,3.86,2.33,2.33,0,0,0,.43.79c5.33,6,4.91,13-1.13,13.57a7.2,7.2,0,0,1-1.38-.08Zm42.9-77.11c-.14-.23-19.2,30.6-19.2,30.6l2.18,1.39,18.22-28.5c.28.21.55.46.49.81,0,0-15,24.46-17.51,28.37a35.84,35.84,0,0,0,3.85,2.36c5.58-2.75,28.87-.38,44.33-1.32.06,0-.24,5.43-.24,5.43s-3.53-4.08-4.24-4.1c-3.51-.12-7.21,1.37-9.86,1.2-1.69.52-3.62,6.68-4,8.23-3.08-.35-6,2.86-5.34,5.86,1,3.33,2.73,3.08,4.6,3.14-.17,3.77-6.83,13.71-6.85,18.61,7-.56,14.66-.69,21.92-2.88,0,0,2.73-7.85,6.17-13a10.55,10.55,0,0,0,1.22-6.82c-.29-2.05.59-2.56,1.38-4,.48-.9,2.26-.86,2.48-.92,4.62-1.35,3-7.32,1-8.38-2.45-1.33-5.92.73-7.25-2s-1-8.73-1-8.73L74,168.14s9.86-18.73,9.61-18.87c-2.7-1.48-7.1-6.62-7.13-6.67Zm-23.34,17c.17-1.89.47-32.67-28.61-48l.15-4c.18-.21,26.46,11.86,31,43.22l8.11-12.71,3,1.17c-4.41,6.62-13.18,22.7-13.6,20.34ZM35.48,148.56c1.2-3.56-.77-1.67-2.56-1.82-1.22-.67-2.42-1.52-3.56-2.27,8.5-4.51,3.44-4.29-1.51-1.13-1.29-.69-2.91-2.22-3-2.09,9.58-6.17,6-6.29-.15-1.83.21-4.19.06-2.62.15-4,5.23-5.61.35-2.56,0-2.49-1.29-5.6,4.87-4.43,5.43-.2,1.09.81,3.22,1.81,3.85,5.27,3,1.89,2.64,3.45,2.51,5.7,1.15,1.15,4.14,3.56.66,5.79ZM24.45,123l.2-3.09c.4-1.26,22.83,14.74,21.21,35.3.27-.14-2.48-1.43-3.27-2.14C42.6,138,24.8,122.28,24.45,123ZM153.1,140.39c-15-6.86-29.18-23.3-29.92-44.67l-8.46,14.16-2.93-1.1c.14.18,6.3-12,13.21-20,1.86,27,12.44,39.52,28.46,48.63Zm-78.38-9.86c-14.5-1.8-35.47-21.55-29.2-48.31.89-2.72,14.87,12.34,14.87,12.34C60.48,93.88,73,114,72.62,117.93c10.55,3,31.13.16,31.13.16,17.11,3.82,35,22.29,28.55,48.53a76.28,76.28,0,0,1-8.35-6.47C112.4,149,108.73,139.81,104.64,129.7c-14.79-1.35-28.65,1.31-29.92.83Zm78.52-22.29c.58,1.3.14,4.09.14,4.09-3.86,4.19-4.26,4.27.57,2.92-.59,4-3.57,4.69-5.34,3.32-.65-.51-.66-3.28-.66-3.28-2.93-.73-3.93-1.62-3.52-4.77-3.37-.4-3.24-2-3-5.47a3.4,3.4,0,0,1-.38-6l1.41,1.42c-.49.44-.25,3.16,2.44,1.13,0,0,2.16,1.79,3.19,2.49-7.79,5-3.07,3.91,1.73.61.9.62,2,1.55,2.65,2-6.09,4.57-8.26,8.39.73,1.58Zm.38,17-.26,3.62c-15.39-9.42-19.55-21.83-20.7-35,0,0,2.07,1.51,3,2.15,1.38,17.06,17,28.57,18,29.28ZM69.32,80.52l36.9.23L95.84,100.07s5,7.09,6.11,5c6.18-9.71,12.47-19.45,18.91-29.91l-2.23-1.33-18.25,28.84-1-.46,18.47-29.37a28.73,28.73,0,0,0-3.34-1.66s-31.43.51-45.08.45c.44-1.88-.17-5.88,1.24-4.9.59,2.73,4.92,5,8.34,2.38.17-.13,5.38.12,5.58-.15a76.69,76.69,0,0,0,3.29-8.46c5.36-.36,4.83-2.95,5.43-3.8-.41-7.61-4.68-3.51-4.31-6.28,1.2-4.93,7.38-16.1,6.6-17.08-1.59-1.06-17.38,2-22,2.62-.42-.16-2.67,7.16-5,10.3C66,49.64,65.1,53.29,66.41,56.74c-1.36,3.79-4,3.41-6.06,4.48-2.38,2.57-1.72,6.51.54,8,1.58,1.06,4,1,6.47-1ZM142.64,54l-4.31-5.8,4.18-6.09c-1.65-2.63-4.37-6.63-3.89-9.81,1.07-6.3,9.57-5.37,10.3.65.41,2.8-1.63,6.23-3.7,9.15,1.37,2.49,2,2.9,3.94,5.75-1.18,2.09-4,6.16-4,6.16,1.79,3,4.28,6.34,4.1,9.42-.19,2.63-3.06,5.3-5.74,4.74-8.33-1.75-3.68-10.66-.83-14.17Z"/><path d="M12.46,6.4V9.18h2.76s.07,2.68.09,8.39c0,5.53.14,8.28-.22,9.85-1,3.63-6.33,3.65-7.39,1a10.58,10.58,0,0,1-.49-4.23h-3s0,.77,0,1.71c0,4.09,1.39,6,4.62,6.81s7.19-.46,8.57-3.24c.82-1.58.73-1.69.75-11.28,0-6.39.11-9,.11-9h2.53V6.4ZM64.59,19.14C66.87,23.43,73.37,35,73.37,35c15.45-3.21,28.45-4,42.11-1l9.75-14.79Zm2,.87h2.79l5.48,11.28,9.46-1.89L82.72,20l2.67,0,1.36,9,13.89-.35,1.8-8.69L105,20l-1.84,8.84,11,1.47L119.55,20h3.69l-8.18,12.78a96.86,96.86,0,0,0-41.13,1.09Zm5.27,0H80l2,7.61a18.06,18.06,0,0,1-6,1.29A97,97,0,0,1,71.87,20ZM87.6,20H100L99,26.49l-10.41.33Zm19.68,0h9.56l-3.77,7.87-7.22-1ZM46.13,22a64,64,0,0,1-6.89,11.14c-6.72,8.78-8.16,11.28-9.49,16.45-2.08,8.09,5.09,14.63,11.3,10.24,1.46-1,3.08-3.9,3.09-5.13,0-.89.61-1.37,1.1-.87a2,2,0,0,1,.1,1.07c-.35,3.66-1.82,9.62-4.67,13.37H52.05a21.38,21.38,0,0,1-4.53-13.5c0-1.87,1.11-1.68,1.36.22,1.21,9.34,13.26,7.59,13.82-1.75C63,48.33,60,43.13,55.92,37.35c-3.27-4.7-7.26-9.78-9.79-15.37Zm97.57,5.91a7,7,0,0,0-1.56.14c-2.48.52-3.78,2.43-3.8,5.54,0,1.43,1,4,2.64,6.34a18.88,18.88,0,0,1,1.3,2.23l-4.16,6.12L142.55,54s-.69.81-1.1,1.39c-2,2.88-3,5.56-2.84,7.77a5.51,5.51,0,0,0,4.13,5.06,5.29,5.29,0,0,0,4.83-1.35,5.11,5.11,0,0,0,1.68-3.82c0-2.18-1-4.82-3.12-7.7a8.76,8.76,0,0,1-.85-1.4s2.94-4.18,4-6.1l-4-5.76c3.19-4.8,3.83-5.86,3.92-8.81a5.5,5.5,0,0,0-5.53-5.43Zm-.4.35h.41c3.65.28,5.57,3,5.09,6.47-.5,3.32-3.49,6.41-4,7.47A66,66,0,0,0,149,47.85c-1.15,2.09-4.12,6.14-4.12,6.14a6,6,0,0,0,.36.6c3.1,4.39,4,6.47,3.74,9.11a4.87,4.87,0,0,1-3.85,4.3,5.26,5.26,0,0,1-6.23-4.8c-.2-2.72,1.56-5.36,2.92-7.43.57-.86,1.07-1.69,1.07-1.69l-4.41-5.79s.31-.5.52-.79c.77-1.13,1.78-2.52,2.29-3.19.93-1.21,1.48-2,1.48-2l-1.27-2c-2.42-3.82-3.09-5.78-2.72-7.89a4.73,4.73,0,0,1,4.54-4.11Zm.33,2a3.59,3.59,0,0,0-3.15,2.46c-.74,2.69,2.09,6.77,3.38,7.87,2.42-2.78,4-5.9,3.07-8.08a3.73,3.73,0,0,0-3.3-2.25Zm.33.87c2.44.05,3.35,3,1.47,6.25a21.12,21.12,0,0,1-1.61,2.3s-.9-1.12-1.43-2c-2.18-3.41-1.62-6.08,1.06-6.56l.51,0ZM95.39,32.58A112.15,112.15,0,0,0,73,35.38a29.13,29.13,0,0,1-4.87,11.27C66,50.11,65.2,53.13,65.91,55.2s-1.15,4.82-3.15,5a4.16,4.16,0,0,0-4,4.4c-.07,3.93,2.65,6.35,6.33,5a.8.8,0,0,1,.62.19l-.21,22.52A14.78,14.78,0,0,0,60.25,94l-.74-.8c-.41-.43-.92-1-1.15-1.25a5,5,0,0,0-.9-.77,3.12,3.12,0,0,1-.82-.84,17.23,17.23,0,0,0-3.29-3.15c-.17-.12-.6-.49-1-.82l-.66-.6V78.33c0-4.11,0-7.52-.09-7.57a7.86,7.86,0,0,0-1.87.79,60.41,60.41,0,0,0-9,5.15c-1.09.73-1.19,1.13-.79,3,.23,1,.18,1.15-.68,1.36-1.75.43-2.3,3.23-.82,4.18.7.44.7.47.25,1.48a8.19,8.19,0,0,0,.06,5.82c.41.71.38,1-.17,1.3-1.87,1.22-1.74,3.83.22,4.31.5.13.62.34.46.77-.61,1.58,0,4,1.35,5.8.73.94.73.93.25,1.37a2.45,2.45,0,0,0,1.42,4.25c.73.1.74.1.83.66a8.48,8.48,0,0,0,.71,2.84,6.15,6.15,0,0,0,2,2.4c.83.64.83.65.39,1.6-.82,1.77.48,3.52,2.56,3.44,1.06,0,1.06,0,1.13.34a6.33,6.33,0,0,0,4.36,4.29c.92.16,1.07.38.75,1.16a1.88,1.88,0,0,0,1.1,2.72,2,2,0,0,0,2,.14c1.05-.37,1.07-.36,2,.84a4.32,4.32,0,0,0,4.21,2.14c1.4,0,1.45,0,1.46,1a2.29,2.29,0,0,0,4.07,1.61c.57-.61.57-.61,1.08-.23,2.23,1.63,4.21,2.05,4,.52a9.71,9.71,0,0,0-3-5.76l3.24.84c.14,3.78.27,8.34,1.06,11.49l-14.42,23s-.87-.54-1.79-1.17c-1.36-.94-3-2-4-2.67a15.68,15.68,0,0,1-1.7-1.17c-.51-.42.31-1,.48-1.41,3.32-5.93,8.51-13.05,12.29-20l-3.66-1.42c-2.8,4.41-4.86,8-7.47,12-2.6-19.05-15.89-35.78-32-42.82l.05,5a52.43,52.43,0,0,1,28.63,47.5,18.71,18.71,0,0,1-3.24-1.94c-1-.64-2.89-1.9-3.14-2C47.05,132,24,118.19,23.91,118.84c0,0-.14,3-.21,4.4,9.84,6.6,17.57,18.6,18.36,29.27,0,.09-4.62-2.88-4.62-2.88a3.33,3.33,0,0,0,0-5.89c-.62-.28-.66-.42-.35-1.26.63-1.71-.53-4.3-2.13-4.74-.7-.19-.82-.37-.85-1.36A3.35,3.35,0,0,0,31.26,133c-.5-.11-.51-.11-.53-.73-.15-3.5-3.57-4.93-6.14-2.56a4.23,4.23,0,0,0-.58.77l0,3.79c.87-.48,2.2-2.13,2.75-2.07s.31.48-1,1.65c-.88.76-1.73,1.56-1.73,1.56l.05,5c1.47-.95,2.93-2,4.29-3,1.18-.82,1.79-1.09,1.93-.85s-.09.62-.77,1c-1.79,1.19-3.89,2.6-5.4,3.78v3.44l.29.43.08,3-.27.07v3.79l35.53,22.7L77.77,146.3l.3.3L60,175a8.81,8.81,0,0,0,1.44,1c.72.41,1.62.94,2.39,1.45a1.87,1.87,0,0,0,1.67,1c.62-.68,3.34-1.4,3.6-1.71,10.12-.15,39.15.05,39.15.05l.16,4.65c-1.3-4.51-5.51-5.44-8.82-3.42H94.15s-3.22,5.78-3.68,8.8c-2.29-.31-5.33,1.92-5.48,4.17-.37,3.22,1.74,5.56,4.5,5.11a15,15,0,0,1-2,5.65,87.64,87.64,0,0,0-4.41,10.53c-.86,2.34-.56,2.76-.41,2.81a77,77,0,0,0,23.25-3.38s-.14-.55-.21-.86c-.28-1.24.77-3.8,3.73-9.06,2.28-4.07,2.94-5.62,3.17-7.54a7.82,7.82,0,0,0-.25-3c0-.17-.15-.42-.11-.6a9.44,9.44,0,0,1,2.14-3.31s.67-.13.94-.15c4.19-.3,5.49-6,2-8.56a4.91,4.91,0,0,0-4.56-.66l0-22.09,2.55.1,2.8-1.39c4.5,3.85,7.44,7.77,12.28,10.73l-.08.2-3.6-2.47v14.47a65.85,65.85,0,0,0,11.8-7.2l-.76-.65,0-2.07c3.52.27,3.86-4.21,1-4.74A3.77,3.77,0,0,1,139,162a6.69,6.69,0,0,0,.35-5.43c-.39-1.16-.37-1.45.09-1.45,2.14,0,1.94-3.78-.24-4.6-.75-.29-.69-.06-.54-2.41a5.67,5.67,0,0,0-1.62-4.52c-.5-.58-.45-.86.18-1.25,1.83-1.12.5-4.33-1.74-4.24-.87,0-.87,0-.95-.84a7,7,0,0,0-3.17-5.42c-.52-.29-.6-.52-.31-.91,1.44-1.93.1-4.55-1.93-3.79-.39.16-.81.3-.92.34s-.29-.18-.6-1.05c-.84-2.36-1.59-3.11-4.27-4.24-.53-.22-.56-.37-.32-1.46.41-1.86-2.16-3.6-3.55-2.39-.57.49-.58.48-1.22-.33a8.38,8.38,0,0,0-5.17-2.67c-.88-.08-1-.15-.94-.48a2.24,2.24,0,0,0-3.58-2.41c-.89.66-1.12.68-2,.17-1.92-1.08-2.76-1.12-3-.14a6.93,6.93,0,0,0,.31,2.36,5.92,5.92,0,0,0,2.4,3.33s-2.2-.61-2.75-.72c0-.06-.16-7.62-1.6-11.91l14-22.34,8,5.3L111.17,108.8l3.74,1.52s5-8.3,7.62-12.38c1.71,20.23,17.35,38,31.51,43.22,0,0,.05-2.91.1-4.32-14.94-6.58-29.15-25-28.26-47l6,3.84c1.74,17.68,9.44,28.05,22.28,36.81V125C145.33,118.5,138,110,136,96.27c0,0,3,1.89,4.35,2.79a6.12,6.12,0,0,0-.58.38c-1.61,1.34-1.12,4.08,1,5.63.35.25.35.25,0,1.11a3.26,3.26,0,0,0,2,4.22c.95.24.95.23,1,1.33,0,2.13.9,3.11,3.17,3.62.32.07.33.1.32,1.06a3,3,0,0,0,4.22,3,26.59,26.59,0,0,0,2.56-1.93v-3.79s-.88.71-1.51,1.31c-1.11,1-1.47,1.16-1.46.53,0-.46.51-1.06,1.58-1.85a15.12,15.12,0,0,0,1.39-1.29v-4.42a3.34,3.34,0,0,1-.46-1.73,10.5,10.5,0,0,1,.15-1.29h.54V99.8l-.65-.51,0-3.39L118.54,73.18l-18.29,29.09-.46-.53,18.32-28.92-4.87-3.11-2.94,1.45S90,70.84,70.14,71.09c0,0,0-.54,0-2.09,0-1.94.1-2.21.46-1.4a5.13,5.13,0,0,0,5.1,2.85,5,5,0,0,0,2.94-.9c.54-.29.64-.3,3.18-.28,2.73,0,3.22-.08,3.22-.66a54.06,54.06,0,0,0,2.42-6.55c.27-.91.38-1.31.6-1.5s.29-.12.69-.14A4.14,4.14,0,0,0,92.2,59c2.51-2.53,1.07-7.68-2.58-7.7-1,0-.3-2.58,1.74-6.75a68.19,68.19,0,0,0,3.5-7.87A18.5,18.5,0,0,0,96,32.58Zm-.19,1.24c.5.43-.76,3.55-3,8.27a50.31,50.31,0,0,0-3.11,7.25c-.12.41-.28,1-.37,1.3a1.59,1.59,0,0,1-.72,1c-.3.22-.73.54-.95.72-.61.49-.76.33-.61-.66.28-1.85,1-3.84,2.7-7.3a73.7,73.7,0,0,0,3.66-8.72c.24-.7.34-1.42.72-1.67a2.49,2.49,0,0,1,1.72-.15ZM92.46,34c.34.24-1.3,4.51-4.16,10.44-3.57,7.39-3.76,12.57-.55,13.84,2.53,1,5.08-1.79,3.51-3.82a1.8,1.8,0,0,0-2.92,0c-.31.55.11,1.19.66.42.79-1.13,2.37.17,2,1.5a2.37,2.37,0,0,1-2.34,1.5c-3.5-.7-2.84-5.64.79-5.92C92.91,51.66,94.5,56.34,92,59A4.09,4.09,0,0,1,88.6,60.3c-2.27,0-4.39-1.87-4.17-3.61a6.82,6.82,0,0,0-.19-4.11,3.08,3.08,0,0,1-.37-1.31c0-1.41,1.18-3.59,3.77-9a51.37,51.37,0,0,0,2.62-7.39c.2-.62.1-.79.33-.88a2.92,2.92,0,0,1,1.87,0Zm-3,.07c.53,0-.69,3.91-2.22,7.22-1.17,2.54-2.76,5.8-4,8.82-.38.63-.63.68-1.41.27s-.6-1.18,1.42-5.2a62.13,62.13,0,0,0,4-10,1.35,1.35,0,0,1,.58-1,3.38,3.38,0,0,1,1.57-.16Zm-2.84.44c.28.37-1.56,5.62-4.43,11.53-.61,1.25-1,2.4-1.63,3.68a5.91,5.91,0,0,1-2,.57c-.58-.08,0-1.18,1.65-4.57C81.57,43,82,42.19,82.68,40.51c.52-1.23,1.28-3.34,2-5.31.06-.16.11-.51.26-.6a2.23,2.23,0,0,1,1.7-.08Zm-2.79.33c0,.12-.06.38-.1.58a44.41,44.41,0,0,1-2.23,6.09c-.09.28-.91,2-1.83,3.82s-1.76,3.56-1.87,3.87-.42,1.12-.68,1.81c-1.64,3.53.13,6.31,2.31,6.51,3.4.28,3.72-4.49,1.32-5A1.53,1.53,0,0,0,78.85,54c-.06.54.61,1.17.6.39,0-1.42,2-1.36,2.19-.15.48,2.35-2.19,3.51-3.78,1.66a2.79,2.79,0,0,1-.53-2.41,3.13,3.13,0,0,1,5-2,4.32,4.32,0,0,1-2,7.76A4.45,4.45,0,0,1,76.23,58a5.24,5.24,0,0,1-1.3-3,8.31,8.31,0,0,1,0-2.34c.32-2.47,2.12-6.07,3.7-9.12,1.21-2.54,2.17-5.88,3.28-8.57.31-.23,2-.44,2-.08Zm-3,.33c.18.06-.75,3-2.07,6.14s-3.36,6.87-4.43,10c-.34.78-.58.75-1.54-.14-.51-.47-.23-1.18,1.55-4.81a77.28,77.28,0,0,0,4.16-9.3c.2-.62.35-1.39.76-1.63a2.23,2.23,0,0,1,1.57-.28Zm-2.74.7a50.26,50.26,0,0,1-2.85,7c-1,2.09-2,4.4-3,6.55-.56,1.33-.58,1.33-1.54,1.52-1.61.34-1.61.33-.18-2.57.42-.85,1.24-2.43,1.81-3.5a59.34,59.34,0,0,0,3.29-7.7A3.11,3.11,0,0,1,76.24,36c.17-.08,1.43-.46,1.86-.08Zm-3.52.35a.87.87,0,0,1,.67.2c.07.66-1.7,4.86-2.79,6.8-.33.6-.66,1.37-1,2.06a37.39,37.39,0,0,0-3.48,8.21c-.69,2.8,2.51,4.91,4.17,2.88,1-1.23,0-3.45-1.56-2.83-.53.22-.31.45.41.51,1.19.1,1.29,1.94,0,2.35a2,2,0,0,1-2.44-2,2.76,2.76,0,0,1,4.57-2.1c1.75,1.46,2,4.92-.62,6.26s-5.77-.46-6.41-3.57c-.49-2.37,0-4.53,2.32-8.19a45.1,45.1,0,0,0,4.39-8.91,4.75,4.75,0,0,1,.57-1.21,2.06,2.06,0,0,1,1.22-.42Zm-62.26.65s-1,2-2.46,4.34c-1.73,2.94-4.29,5.83-4.66,9.11a6.19,6.19,0,0,0,.24,2.44,3.1,3.1,0,0,0,5.45.75c.36-.61.49-.73.84-.54.15.09.21.32.21.66a9.9,9.9,0,0,1-2.34,5h5.77a8.85,8.85,0,0,1-2.37-5c0-.76.43-.82,1.13,0,2.25,3.11,5.78-.38,5.49-3.28-.32-3.23-3.7-7.4-4.62-9-1.41-2.08-2.68-4.38-2.68-4.38Zm131.52,6.81-3.46,4.41c1,1.45,3.37,4.29,3.37,4.29L147,48.15Zm0,2.47L145.31,48,143.67,50l-1.54-1.81Zm.13,9.59s-4.19,4.6-3.23,8c.86,3,5.44,3.78,6.55-.67a5.39,5.39,0,0,0,0-1.43c-.1-1.81-3.29-5.91-3.29-5.91Zm0,.91s1.21,1.74,2.06,3.29,1.2,5.59-2.18,5.46c-1.83.19-3.57-2.22-2.12-5.17A41.73,41.73,0,0,1,144,56.66Zm-69.24.74c.23,0,.47.46.61.83a4,4,0,0,1-1,2.65,18.83,18.83,0,0,0-2,.77,8.51,8.51,0,0,1,.54-2.24c.78-.77,1.44-1.69,1.75-2a.19.19,0,0,1,.1-.05Zm-8.36.26c.51.58,1,1.09,1,1.45,0,.53-.65,1.18-1.12,1.64s-1.77.24-1.77-.52a10.24,10.24,0,0,1,1.89-2.57Zm17.76.75A2.82,2.82,0,0,1,85.22,60a33.93,33.93,0,0,1-3.34,8.56,5.38,5.38,0,0,1-2.36-.06,30.42,30.42,0,0,0,3.87-8.37c.36-1.14.52-1.71.77-1.72ZM82.62,59c.28,0,.39.21.16.81-1.07,4.35-3.48,8.92-5.37,9.75a4.6,4.6,0,0,1-6-1.68c-1.15-2-.94-5.21,2.88-5.91,2.25-.23,4.56,1.54,3.36,4.39-1.34,2.12-4.93.94-3.88-1.79.8-1,2.46-.13,1.92,1-.28.57,0,.93.4.53,1.31-1.28-.85-3.46-2.3-2.37-2.37,1.78.56,5.71,3.31,4,.84-.52,2.36-3.4,2.93-5.5a4.85,4.85,0,0,1,1-2.3,3.33,3.33,0,0,1,1.55-1Zm-6.28.17a1.28,1.28,0,0,1,.52.18c.27.13.6.38.56.7a2.94,2.94,0,0,1-.68,1.57c-.26-.09-1-.37-1.45-.5-.3-.09.1-.74.29-1.1.3-.58.46-.83.71-.85Zm-7.81.15c.36,0,.92.39,1.3.44.07.54-.62,1.69-1.74,3.06-.92,1.12-.91,1.12-1.52-.11-.39-.8-.41-.78.73-2.19.6-.76.9-1.1,1.16-1.2Zm3.55.39a4.47,4.47,0,0,1-.26,1.3c-1.26,3.79-4.23,7.54-6.67,8.46C62,70.48,59,68.8,59,64.93c.09-4.57,5.52-5.83,7.16-1.67.74,1.88-1.28,4.71-3,4.23s-2.5-3.22-1.05-3.9a1.19,1.19,0,0,1,1.73,1.31c-.07.35-.05.4.15.36.91-.17.43-2-.64-2.44-2-.86-3.54,1.86-2.18,3.89,1.63,2.43,4.2,2,5.68-1a9.53,9.53,0,0,1,1.06-1.63,14.19,14.19,0,0,0,2-2.81,12.11,12.11,0,0,1,.89-1.48,5.16,5.16,0,0,0,1.37-.08Zm7.15.2c.39,0,.68.25.67.78A10.09,10.09,0,0,1,79,63.43c-.11.17-.37.77-.41.64a7.08,7.08,0,0,0-1.14-2c-.11-.38.23-.75.38-1.09a1.73,1.73,0,0,1,1.44-1.14Zm6.75.59c.46,0,1.12.21,1.25.55.42.75-2.43,7.64-2.54,7.66l-2.13-.09a68.68,68.68,0,0,0,3.24-8.1l.18,0Zm28.61,10.92L117.3,73,99.42,101.4l-2.59-2ZM70,72c16.69.06,39.68,0,39.68,0l-1,1.84S83.6,73.6,70,73.63ZM47.46,73.14l0,9.33s-.13,0-1.72-1.11c-1.91-1.27-4-2.58-4.68-2.93-1-.5-.87-.75,1-2s5.38-3.33,5.38-3.33Zm71.48.93,1.67,1.06L101.84,105l-1-2.06ZM70,74.48h2.62v3H70Zm6,0h3.17v3H76Zm6.93,0h3.26v2.95H82.92Zm6.8,0H93v3h-3.3Zm6.86,0h3.25v3H96.58Zm6.86.06h3.33v2.09l-.51.87h-2.82Zm17.94,1,31.85,20.61,0,2.84L120.05,77.59ZM119.29,78l.28.2-1.36,2.06-.27-.16Zm-49.2.31h35.75l-1.08,1.8L70.09,80Zm-29.35.92a3.59,3.59,0,0,1,1.44.6c1.76,1,2.87,3.07,2.11,3.82s-2.26-.76-3.24-2.81c-.52-1.08-.66-1.59-.31-1.61ZM104,81,92.46,99.43c-2.6-3.58-5.52-6.66-11.91-4.58-3.32-2.57-6.84-3-10.59-.78l.05-13ZM44.63,81l.9.78a9.46,9.46,0,0,0-.56,1.9A10.59,10.59,0,0,0,44.63,81Zm73.11.19,35.54,23.38v2.17L116.5,83Zm-77.83.53a1.58,1.58,0,0,1,1.25.6,1.68,1.68,0,0,1-.44,2.33,1.57,1.57,0,0,1-2.11-2.28,1.8,1.8,0,0,1,1.3-.65ZM45.8,82l1.94,1.55c-3.37,19.21,6.25,38.6,27,44.42l.24,2.46c0,.11-8.8-2.63-12.66-5.52a39.85,39.85,0,0,1-12.83-14.46l-.47-.88a42.1,42.1,0,0,1-3-8.33c-.17-.79-.39-1.73-.48-2.07a81.34,81.34,0,0,1-.68-10,54.62,54.62,0,0,1,1-7.15Zm-2.21,2.61c.75,0,.83.56.23,1.59a7.2,7.2,0,0,1-3.79,3c-1,.44-1.29.24-1.17-.85.17-1.66,1.32-2.86,3.31-3.5a5.23,5.23,0,0,1,1.42-.27Zm5.72.2.77.66a1.62,1.62,0,1,0,2.12,1.8c.28.25.56.48.77.66a2.55,2.55,0,1,1-3.66-3.12Zm1.29,1.28a1.09,1.09,0,0,1,.26,0l.56.48a.86.86,0,0,1,.09.39.91.91,0,1,1-.91-.91Zm-6.11.59a67.22,67.22,0,0,0-.07,7.66,6.92,6.92,0,0,0-3.32-4.65,15.82,15.82,0,0,0,3.39-3Zm9.33,1.94,1.73,1.49c-1.48,20.34,16.34,28.05,16.82,27.71l.75,2.3c-12.31-4.19-20.82-16.9-19.3-31.5Zm99.26,48.75-.09,2.56c-14-5.42-29.88-25.41-29.67-44.56-3.59,5.49-5.6,9.16-8.68,14.11l-2.45-1.16c4-6,7.86-12.43,11.9-18.32.46-.67.83-1,.86.48,0,6.59,2,33.7,28.13,46.89ZM39.55,90.21a3.37,3.37,0,0,1,1.9.73c1.28.86,2.71,3.5,2.21,4.09s-2.33-.1-3.27-1.09c-1.87-2-2-3.66-.84-3.73Zm10.89.26A2.55,2.55,0,1,1,47.89,93a2.55,2.55,0,0,1,2.55-2.55Zm5.7.25,1.66,1.94C58.12,109.73,71.59,115,71.47,115l.4,1.83c-.75.1-16.66-7.14-15.73-26.15Zm-5.7.68A1.62,1.62,0,1,0,52.06,93a1.61,1.61,0,0,0-1.62-1.62Zm0,.71a.91.91,0,1,1-.91.91.9.9,0,0,1,.91-.91ZM59,93.66c.21,0,1.17,1.39,1.17,1.39s-1.05.37-1.51-.09-.21-1.31.34-1.3Zm73.76.63,2.5,1.7c1.16,11.51,7.76,22,17.7,29.3l-.06,2.85c-12.12-8.18-18.84-19.3-20.14-33.85Zm-93.52.19h.13a1.6,1.6,0,1,1-1.72,1.81,1.72,1.72,0,0,1,1.22-1.74,1.61,1.61,0,0,1,.37-.07ZM60.11,96a1.74,1.74,0,0,1,1.25.7c1.1,1.23,1.08,1.59-.07,2.06-1.63.65-3-.26-2.43-1.65.28-.74.74-1.11,1.25-1.11Zm-16.63.06a.76.76,0,0,1,.37.06c1.2.46-1.4,5.21-3.12,5.7-1.09.31-1.31-.12-1-1.79.4-1.85,2.44-4,3.71-4Zm7.64.11a2.55,2.55,0,1,1-2.55,2.54,2.54,2.54,0,0,1,2.55-2.54Zm0,.92a1.62,1.62,0,1,0,1.62,1.62,1.62,1.62,0,0,0-1.62-1.62Zm-6.37.14a28.39,28.39,0,0,0,1.66,7.43,10.91,10.91,0,0,0-3.72-3.23c.94-1.41,2-2.81,2.06-4.2Zm6.37.57a.91.91,0,1,1-.91.91.91.91,0,0,1,.91-.91Zm14.41.28A4.23,4.23,0,0,1,70,102.32a61.41,61.41,0,0,1,0,7l-2.15-4c0-1.12.16-2,.07-3.08A2.38,2.38,0,0,0,64.51,100l-.92-1.51a5.48,5.48,0,0,1,1.94-.42Zm9.35.3a3.64,3.64,0,0,1,4,3.89c.14,4.78-.11,15.68-.11,15.68H73.4l-2.94-7.28a6.55,6.55,0,0,1-.09-1.21c.18-2.34.07-4.94.15-7a4.54,4.54,0,0,1,4.36-4Zm-12.45.76a1.22,1.22,0,0,1,.91.34c1.25,1.27,1.24,2.09,0,2.66-1.68.76-2.55.61-3.12-.5s1-2.49,2.23-2.5Zm78.48.34,1.36.88s-.29.45-.44.71c-.78,1.34.54,2.12,2.36,1.41a3.36,3.36,0,0,0,.62-.3l1.12.76s-.81.44-1.7.88c-2.27,1.11-3.91.64-4.46-1.29a2.8,2.8,0,0,1,.43-2.29c.22-.28.71-.76.71-.76Zm-57.75.16a4.75,4.75,0,0,1,4.59,3.74c.21,1,0,14.57,0,14.57H79.43l.14-14.21a3.64,3.64,0,0,1,.48-2.42,4.13,4.13,0,0,1,3.11-1.68Zm-8.58.62c-1.67.08-2.62,2.78-.9,4.06.72.53.73.63.35,2.43a9.6,9.6,0,0,0,1,6.45c.78,1.32.63.64.22-.52-.52-2.2-.26-3.8,1-6.36,1.14-2.14,2.23-5.44-1.36-6l-.35,0Zm68.6.62.75.51s-.11.09-.27.25-.9.33-1.08.11.6-.87.6-.87Zm-59.55,1c-1.79-.06-3,3.26-.68,4.07a.94.94,0,0,1,.29,1.4,9.72,9.72,0,0,0-.81,3.65,13.91,13.91,0,0,0,.65,3.29c.6,1.49.48.89.32-.82a8.51,8.51,0,0,1,1.44-5.15c1.33-2.2,3.16-5.77-1-6.42a.55.55,0,0,0-.18,0Zm-30.87,0a2.55,2.55,0,1,1-2.55,2.54A2.54,2.54,0,0,1,52.76,102Zm11.8.26c.44,0,.77.29,1.17.88,1.1,1.64,1,2-1.14,3.14s-3.75-1.87-1.61-3.31a3.76,3.76,0,0,1,1.49-.71Zm-23.31.12c2.37,0,6.07,3.41,4.26,3.89a2.11,2.11,0,0,1-.71.11c-3-.18-6.39-4-3.55-4Zm11.51.54a1.62,1.62,0,1,0,1.62,1.62,1.62,1.62,0,0,0-1.62-1.62Zm93.81.48,1.18.8s-.72.34-1.57.79c-2.31,1.23-3,2.14-2.18,2.94a1,1,0,0,0,1.23.19,35.06,35.06,0,0,0,4.58-2.58l.89.6s-3.53,2.51-5.45,3.57c-3,1.54-4.73-1.61-3.05-3.72,1.29-1.29,2.68-1.71,4.37-2.59Zm-93.81.23a.91.91,0,1,1-.91.91.9.9,0,0,1,.91-.91Zm95.66.86.64.43L147,106c-2.14,1.24-2.24,1.26-2.36,1.07s0-.57.7-1a27.32,27.32,0,0,1,3.06-1.65Zm-55.84.06a4.21,4.21,0,0,1,3.8,2.15,8.75,8.75,0,0,1,.47,3.36l0,8H88.49a74.59,74.59,0,0,1,0-9.93,4.12,4.12,0,0,1,4.09-3.53Zm-25.86,1.17c.53,0,.92.48,1.42,1.61s.13,1.74-1.44,2.42a1.84,1.84,0,0,1-.5.14,1.78,1.78,0,0,1-1.09-3.08c.71-.69,1.2-1,1.61-1.09Zm84.62.82.72.45s-.37.34-3.06,2.3c-2.17,1.58-2.48,2-2,2.9.37.71,1.16.62,2.26-.22,1.52-1.17,3.91-3.15,3.91-3.15l.08,1.35c-1.58,1.27-3.48,3.43-5,4.25-2.92,1.44-5-2.51-2.35-4.46a60.8,60.8,0,0,1,5.46-3.42Zm-58.45,0c-2.17,0-3,3.21-.64,3.9.68.36.62.55.17,2.16a7.17,7.17,0,0,0-.21,2.93c.17,1,.39,1,.3-.09a8.63,8.63,0,0,1,1.18-3.05c2.17-3,1.6-5.82-.8-5.85Zm-50.7,0a1.62,1.62,0,0,1,1,2.87c-.89.61-2.73-.13-2.73-1.1a1.85,1.85,0,0,1,1.44-1.74l.29,0Zm4.13.17c.46,0,.72.66.72,2a5.8,5.8,0,0,1-1.83,4.48c-1.66,1.38-2-2.39-.48-4.89.65-1,1.2-1.56,1.59-1.56Zm106.54.5c.41,0,.35.31-.13.63s-1,.77-2.93,2.41c-.36.3-.86.68-1.12.86-.64.43-1.19.32-.88-.18a30.61,30.61,0,0,1,5.06-3.72Zm-97.56.08a2.55,2.55,0,1,1-2.55,2.55,2.55,2.55,0,0,1,2.55-2.55Zm0,.92a1.62,1.62,0,1,0,0,3.24,1.62,1.62,0,1,0,0-3.24Zm-30.46.05c17.23,8.71,28,25,30.62,43.56l8.36-13.27,2.27.85-12.2,19.88-.53-.17c0-19.41-9.72-37.78-28.56-47.86Zm30.46.67a.91.91,0,1,1-.91.91.91.91,0,0,1,.91-.91Zm-7.11.11a30.8,30.8,0,0,0,3.09,5.4c-1.44-1.35-3-1.29-4.56-1.49Zm20.48.35a.84.84,0,0,1,.74.39c.71,1,.84,1.87.35,2.35a1.38,1.38,0,0,1-2.22-.54,1.57,1.57,0,0,1,1.13-2.2Zm84.47,1.35,0,1.51a9.62,9.62,0,0,1-.66.7,14,14,0,0,0-2.37,2.7c-.3,1.18.87,1.62,2,.75l1-.76v1.85c-1,.83-1.94,1.65-3.28,1.38a2.26,2.26,0,0,1-1.6-1.63c-.56-2.33,1.71-3.64,3.46-5.2.57-.5,1.42-1.3,1.42-1.3Zm-94.25,1.31H59a2.48,2.48,0,1,1-.12,0Zm51.14.58a1.68,1.68,0,0,1,1,2.92,1.81,1.81,0,0,1-2,.32c-1.54-1.08-.41-3.17,1-3.24Zm-2.77,1.47c.8.86,1.41,3.33.93,3.8-1,1.08-4.08-2.51-3.9-4.86.32-1.41,2.67.75,3,1.06ZM70,112.76a.58.58,0,0,1,.56.83c-.13.29-.58.32-.95.17-.61-.25-.32-1,.39-1ZM59,113a1.62,1.62,0,0,0,0,3.24A1.62,1.62,0,1,0,59,113Zm-12.12.71c3.07,0,6.31,2.42,3.5,2.9a5.28,5.28,0,0,1-5.08-1.54c-.83-.76-.53-1.16,1-1.33.2,0,.41,0,.61,0Zm12.12,0a.91.91,0,1,1-.9.91.91.91,0,0,1,.9-.91Zm4.26,2.3h.13a2.49,2.49,0,1,1-.13,0Zm50,.13a2.6,2.6,0,0,1,1.73.46c.45.42-.23,1.21-1.61,1.88-1.61.79-4.42.68-4.42-.17,0-1.13,2.44-2.14,4.3-2.17ZM52,116.79c1.41,0,1.79,4.39.56,6.48-.63,1.09-1.49.36-2.1-1.79-.5-1.76.46-4.69,1.54-4.69Zm11.39.13A1.62,1.62,0,1,0,65,118.54a1.62,1.62,0,0,0-1.62-1.62Zm52.77.28a1.47,1.47,0,0,1,.48.16c1.54.76,2.66,4.29,1.85,5.87s-2.74-1.54-2.73-4.59c0-1,.07-1.4.35-1.43ZM48,117.43h.1c1.4,0,2.41,2,1.1,2.95a1.9,1.9,0,0,1-2,.16,1.7,1.7,0,0,1,.1-2.91,1.62,1.62,0,0,1,.7-.2Zm15.4.2a.91.91,0,1,1-.9.91.91.91,0,0,1,.9-.91Zm-9.51.3a32.85,32.85,0,0,0,4.28,4.39,9.36,9.36,0,0,0-4.18-.06,10.84,10.84,0,0,0-.1-4.33Zm49.65.26c20.94,4.9,33.73,27.13,28.67,48a9.28,9.28,0,0,1-2-1.45,44.43,44.43,0,0,0,.27-15.07,37.2,37.2,0,0,0-26.78-28.95,12.64,12.64,0,0,1-.12-2.5Zm11.28.15a40.64,40.64,0,0,0,.82,4.15,26.44,26.44,0,0,0-4.86-2.71,11.78,11.78,0,0,0,4-1.44Zm6,.46a1.57,1.57,0,0,1,1.66,1.6,2.16,2.16,0,0,1-.86,1.45,1.59,1.59,0,0,1-2.21-2.08,1.55,1.55,0,0,1,1.41-1Zm-52.61.55a2.55,2.55,0,1,1-2.55,2.54,2.54,2.54,0,0,1,2.55-2.54Zm0,.93a1.62,1.62,0,1,0,1.62,1.61,1.62,1.62,0,0,0-1.62-1.61Zm-43.34.24c10.41,6.14,19.74,19.2,20.43,34l-2.52-1.65c-1.08-9.94-6.18-20.77-18-29.64,0,0,0-1,.08-2.68Zm57.62,0H96v2.9l4-2.08v6.41l-4-2.44v2.8H82.53v-2.94l-4.12,2,0-6.38,4.07,2.29ZM68.25,121a.9.9,0,0,1,.9.9.91.91,0,1,1-.9-.9Zm5.29.51h0l.16.92h-.08a1.62,1.62,0,0,0,0,3.24,1.58,1.58,0,0,0,.61-.12l.15.93a2.68,2.68,0,0,1-.76.11,2.54,2.54,0,0,1-.13-5.08Zm30.38.32h.13a2.54,2.54,0,0,1,.58,5l-.16-.92a1.62,1.62,0,0,0-.42-3.18h-.11l-.16-.92Zm17.86.86c3.14,0,4.44,1.82,1.86,2.59a6.49,6.49,0,0,1-4.29-.52c-1.28-.57.49-2.08,2.43-2.07Zm-65.66.17a5,5,0,0,1,2,.37c1.32.62,1.28,1-.12,1.86-1.95,1.13-6.57,0-5.17-1.29a5.34,5.34,0,0,1,3.25-.94Zm17.55.28.2,0,.28,1.65a.87.87,0,0,1-.48.14.91.91,0,1,1,0-1.81Zm30.39.32a.91.91,0,0,1,.29,1.77Zm5.54.65a2.55,2.55,0,1,1-2.55,2.54,2.54,2.54,0,0,1,2.55-2.54ZM60,124.75a.65.65,0,0,1,.5.21,5.92,5.92,0,0,1,1.69,5.85c-.57,1.87-3-1.46-2.94-4.11,0-1.22.3-1.93.75-2ZM126,125c.21,0,.43.16.65.53,1,1.57.91,4.83-.08,5.85-.55.58-.76.47-1.34-.71-1-2-.24-5.68.77-5.67ZM109.6,125a1.62,1.62,0,1,0,0,3.24,1.62,1.62,0,1,0,0-3.24ZM62,125.46A46.93,46.93,0,0,0,68,128.7a6,6,0,0,0-4.79,1.06,5.84,5.84,0,0,0-1.15-4.3Zm57.78.35a13.55,13.55,0,0,0,4.52.12,13.81,13.81,0,0,0-.28,4.31,27.26,27.26,0,0,0-4.24-4.43Zm-10.22-.07a.91.91,0,0,1,0,1.82.91.91,0,1,1,0-1.82Zm-52.51.62a2.24,2.24,0,0,1,.89.24,1.52,1.52,0,0,1,.07,2.75c-1.44,1-3.32-.7-2.42-2.12a1.68,1.68,0,0,1,1.34-.86Zm57.62,1.07a2.55,2.55,0,1,1-2.55,2.54,2.54,2.54,0,0,1,2.55-2.54Zm14.9.42a1.64,1.64,0,0,1,.75.19,1.48,1.48,0,0,1,.37,2.38,1.47,1.47,0,0,1-2.42-.3,1.53,1.53,0,0,1,1.3-2.27Zm-24.57.38c12.53,4.27,20.93,18.21,18.9,31.64l-1.56-1.48c1.19-7.61-3-22.15-16.95-28.11Zm9.67.12a1.62,1.62,0,1,0,1.62,1.62,1.62,1.62,0,0,0-1.62-1.62Zm0,.71a.91.91,0,1,1-.91.91.9.9,0,0,1,.91-.91ZM67,129.22c.64.06,1.72-.06,2,.55s-1.28,2.08-3.27,2.33c-.8.06-2.54.26-2.9-.32s2-2.53,4.19-2.56Zm-39.79.45c1.69-.08,3.6,2.19,1.89,4A36.65,36.65,0,0,1,25,137.07v-1.25s2.75-2,2.79-2.91a1.11,1.11,0,0,0-1.82-1c-.19.13-.95.74-.95.74l.06-2.08a3.23,3.23,0,0,1,2.21-.88Zm43.29.53c1.25.05,4.17,4.54,3.42,5.46-.58.73-2.95-.89-3.84-2.62-.47-.94-.33-2.59.25-2.81a.47.47,0,0,1,.17,0Zm19.37.55s.13,10.45-.46,11.43c-2.35,4.26-7.43,2-7.87-1.15-.31-1.93-.12-10.26-.12-10.26Zm.75,0h8.12s0,14.7-.37,15.55a5.6,5.6,0,0,1-2.18,2.19c-2.39,1-4.94-.44-5.57-3.22-.46-2,0-14.52,0-14.52Zm8.8,0h5.39s.18.78.4,1.41c.37,1.13,1.64,4.33,1.79,4.52.66.88.69,10.5,0,11.59-2.38,3.57-6.34,2.53-7.78-1.42-.37-1.26.16-16.1.16-16.1Zm6.28.36c9.67,4.59,17.07,14.33,16.15,26.82l-1.78-1.77c.65-8.62-5.92-19.4-13.58-22.6Zm13.32.29a2.55,2.55,0,1,1-2.55,2.54,2.54,2.54,0,0,1,2.55-2.54Zm9.53.26a5,5,0,0,1,3,1.06c1,.85,1.18,1.52.38,1.76a4.72,4.72,0,0,1-4.58-1.13c-1.08-1.07-.15-1.71,1.23-1.69Zm-9.53.67a1.62,1.62,0,1,0,0,3.24,1.62,1.62,0,1,0,0-3.24Zm-50.95.2a1.67,1.67,0,0,1,.94,2.88,2.15,2.15,0,0,1-2.1.16,1.7,1.7,0,0,1,1.16-3ZM86,133a22,22,0,0,1-1.77,3.74c-1.6,2.67-1.39,4.46.3,5.36a2,2,0,1,0,1.84-3.63c-.86-.49-.86-.5-.55-1.82.39-1.65.46-3.62.18-3.65Zm33,0a.91.91,0,1,1-.91.9.9.9,0,0,1,.91-.9Zm-24.31.52c-.12,0,0,.66,0,1.84,0,1.9-.17,2.48-1.39,5-1.55,3.25-1.34,5.48.58,6.2a2.24,2.24,0,0,0,3-2.33,1.59,1.59,0,0,0-.93-1.64c-.52,0-1.09-.28-1.05-.53.32-1.94,2-5.6-.13-8.57Zm32.12.26a8.51,8.51,0,0,0,4.42,1.64,13.57,13.57,0,0,0-.85,4.83,30.86,30.86,0,0,0-3.57-6.47Zm-95.9.3.3,0A2.52,2.52,0,0,1,33.16,137c-.28,1-.36,1.17-4.23,3.76a20.59,20.59,0,0,1-2.37,1.49l-1.15-.78,2.51-1.68c3-2,3.41-2.47,3.1-3.36s-1.44-.77-3.2.58c-2.59,2-2.86,2.14-2.86,2.14V138s1.14-.91,1.63-1.34c1.2-.85,2.87-2.49,4.38-2.51Zm76.84.52a.41.41,0,0,1,.41.53.45.45,0,0,1-.44.21.37.37,0,0,1,0-.74ZM133.88,136c.55,1.88-.63,5-1.35,5.42-.77.77-1.25,0-1.42-1.93,0-1.6,1.83-6.6,2.77-3.49ZM103,135c.24,2.71.33,5-.94,7.16-1.65,2.86-1.23,5.3.54,5.85a2.2,2.2,0,0,0,3-2.43,2.5,2.5,0,0,0-1.25-1.49c-.54-.14-.61-.48-.3-1.55a10,10,0,0,0-.5-6.63c-.09-.28-.42-.92-.55-.91Zm5.92.9a1.7,1.7,0,0,1,1.07,3c-.61.57-1,.31-1.66-1.08s-.41-1.87.59-1.87Zm13.81.39a2.55,2.55,0,1,1-2.55,2.55,2.55,2.55,0,0,1,2.55-2.55Zm0,.93a1.62,1.62,0,1,0,1.62,1.62,1.62,1.62,0,0,0-1.62-1.62Zm0,.71a.91.91,0,1,1,0,1.81.91.91,0,0,1,0-1.81Zm-10.92.67a1.23,1.23,0,0,1,.59.12c1.34.64,1.2,2.5-.28,3.61-.94.7-1.33.46-2.21-1.35-.47-1,.77-2.33,1.9-2.38ZM34,138.79a1.21,1.21,0,0,1,.38.06,2.8,2.8,0,0,1,1.92,3.22C35.54,144,33,144.59,31,145.39l-1-.75s1.44-.82,2.84-1.46,1.52-.84,1.42-1.6c-.19-1.48-.91-1.43-4.16.32-1.32.71-2.29,1.35-2.29,1.35l-.72-.59c1.07-.71,1.72-1.11,2.89-1.91,2-1.34,3.09-1.92,3.91-2Zm103.3,1.1c.47,1.43-.49,2.7-1.95,2.13a1.62,1.62,0,0,1-.85-2.25c.65-1,2.48-.85,2.8.12Zm-29.15-.5,2.28,4.11s0,1.14.06,1.78c.09,2.67.66,3.55,2.22,3.29.11,0,.67-.18.67-.18l1,1.68s-1.07.47-1.35.53c-1.84.38-4.39-1-4.79-2.85s-.08-8.36-.08-8.36Zm-75,1.69c.7,0,.4.58.08.75-1.34.68-2.61,1.43-4,2.24l-.95-.59s.73-.4,1.23-.71a12.33,12.33,0,0,1,3.65-1.69Zm92,.53a2.54,2.54,0,1,1-2.55,2.54,2.54,2.54,0,0,1,2.55-2.54Zm-10.77.34a1.52,1.52,0,0,1,1.39.77c.68,1.13,0,2.51-1.69,3.24-.92.41-1.08.33-2.06-1.13-.66-1-.66-1.16.08-1.79a3.92,3.92,0,0,1,2.28-1.09ZM25,142.18l36.48,23.61-1,1.77L25.07,144.41Zm108.38.3c2.21,0,5.11,2.61,4.08,3.63a.8.8,0,0,1-.47.18c-3.16-.19-6.65-3.86-3.61-3.81Zm-8.22.05a1.62,1.62,0,1,0,1.62,1.62,1.61,1.61,0,0,0-1.62-1.62ZM76.45,143l1,2.51-18.15,28.9-1.78-1.15Zm48.71.26a.91.91,0,1,1-.91.91.91.91,0,0,1,.91-.91Zm6.66.3a7.81,7.81,0,0,0,4.06,3.38,5.91,5.91,0,0,0-2.33,4.79,43.75,43.75,0,0,0-1.73-8.17Zm-96,.87a1.87,1.87,0,0,1,1,.28c3.41,2.33.28,4.63,0,4.45l-1.16-.73c.4-.66,1.3-1.55-.15-2.39a2.72,2.72,0,0,0-2.55.63l-1.21-.83a10.27,10.27,0,0,1,4.06-1.41Zm80.23,1.32a2.31,2.31,0,0,1,.37,0c1.92.37,1.79,2.41-.22,3.35-1.14.54-1.34.43-2.33-1.28-.47-.8.94-2.06,2.18-2.1Zm-80.84.75a.58.58,0,0,1,.5.35c.1.54-.89,1.08-.89,1.08l-1.14-.76a4,4,0,0,1,1.53-.67Zm102.3.49a.5.5,0,0,1,.56.44c.39,1.59-1.37,4.52-3,5-1,.28-1.22-.17-.91-1.48.43-1.84,2.34-3.88,3.34-4Zm-58.83.12,3,2.14L64,177.25l-3.07-1.83Zm48.22.23a2.55,2.55,0,1,1-2.54,2.54,2.54,2.54,0,0,1,2.54-2.54Zm0,.92a1.62,1.62,0,1,0,1.62,1.62,1.63,1.63,0,0,0-1.62-1.62Zm0,.71a.91.91,0,1,1-.9.91.91.91,0,0,1,.9-.91Zm-40.72.1c1.92,2.17,4.08,7,11.63,4.73a8.91,8.91,0,0,0,10.49,1l0,13.06-33.49,0Zm-61.17.33,33,21.71-1,1.82L25,152.47Zm92.6,0h.08c1.69.41,1.88,2.09.31,2.74-.84.35-1,.26-1.81-.92a2,2,0,0,1-.46-1,3.61,3.61,0,0,1,1.88-.85Zm21.16,1.78a1.68,1.68,0,0,1,.78,3.14,1.65,1.65,0,0,1-2.25-2.23,1.6,1.6,0,0,1,1.47-.91ZM118.16,153c.78,0,1.43.74,1,1.19-.25.3-.57.22-1-.26s-.52-.94-.07-.93Zm9.46.32a2.55,2.55,0,1,1-2.55,2.54,2.54,2.54,0,0,1,2.55-2.54Zm7.17.14c1.92,0,4.58,3.22,4.13,5-.15.57-1.22.26-2.51-.72-1.72-1.33-2.84-4.27-1.62-4.26Zm-7.17.78a1.62,1.62,0,1,0,1.61,1.62,1.62,1.62,0,0,0-1.61-1.62Zm6.17.33a6.13,6.13,0,0,0,3.46,4.29c-3.71,1.74-4.42,4.65-3.86,8.38l-.87-.53a45.59,45.59,0,0,0,1.27-12.14Zm-6.17.38a.91.91,0,1,1-.91.91.9.9,0,0,1,.91-.91Zm-.48,4.09a2.55,2.55,0,0,1,1.4,4.68l-.82-.62a1.62,1.62,0,1,0-2.19-1.64l-.82-.62a2.54,2.54,0,0,1,2.43-1.8Zm11.59.33c1.21,0-.67,3.37-2.4,4.28-1.32.7-2.53.75-2.52.12,0-1.67,3.07-4.41,4.92-4.4Zm-11.59,1.31a.91.91,0,1,1,0,1.81,1,1,0,0,1-.91-.9.91.91,0,0,1,.91-.91Zm11.2,3.06a1.6,1.6,0,0,1,1.44.77,1.44,1.44,0,0,1-.4,1.83,1.57,1.57,0,1,1-1-2.6Zm-4.68,1.37a3.74,3.74,0,0,1,3.21,4c-.32.38-2.57-1.32-2.81-1.5a6.92,6.92,0,0,1-.4-2.53Zm-2.78,1.57,6.39,3.84-6.38,4.1ZM74,168.54l34.34.13v1.44l-35.27,0Zm-1.4,2.26h2.31v2.81H71.69v-1.55Zm33,.06h2.77v2.82h-2.77Zm-27.26,0h3.16v2.82H78.29Zm6.58,0h3.42v2.81H84.87Zm7,0h3.28v2.81H91.86Zm7,0H102v2.82H98.87Zm-28.58,3.47,38.08.09v1.69l-39.18-.09ZM102.78,178a4.21,4.21,0,0,1,3.1,7.33c-2.78,2.79-7.43-.78-5.11-3.92,1.3-1.75,4.48-.34,3.69,1.53a1.16,1.16,0,0,1-2.19-.68c0-.53-.39-.17-.44.4a1.58,1.58,0,0,0,1.55,1.53c2.25,0,2.58-3,.42-4.08-1.94-1-4,.27-4.45,2.75a7.94,7.94,0,0,1-.62,1.42,13.74,13.74,0,0,0-1.3,3.91,3.8,3.8,0,0,1-1,.71c-1.11.56-1.06.32-.65-1.48,1.2-5.17,3.14-8.51,5.53-9.19a5.68,5.68,0,0,1,1.49-.23Zm11.47.27a4.72,4.72,0,0,1,4.51,3.45c1.37,4.63-4.78,7.47-6.93,3.27-1.2-2.4,1.29-5.27,3.56-4.15,1.86.92,1.74,3.76-.16,3.75-1,0-1.66-.88-1.09-1.63.29-.29.65-.06.8-.55.06-.21-.23-.37-.94-.23-1.16.24-1,2.59.31,3.06,2,.7,3.74-1.43,2.78-3.53-1.16-2.53-4.28-2.54-5.71.11a13.22,13.22,0,0,1-.71,1.17c-2.13,2.9-2.3,3.33-2.94,4.94a.34.34,0,0,1-.36.26,4.58,4.58,0,0,0-1.56.28c-.27-.07.09-1.09.11-1.16,1.46-4.49,5.18-8.93,8.33-9ZM95.7,179.5a32.26,32.26,0,0,0-3.09,8,10.77,10.77,0,0,0-1.56-.67c-.21-.07,0-.31,0-.67a19.52,19.52,0,0,1,3-6.93c.29-.22,2.14-.28,1.73.3Zm2.16.85c-1.3,1.66-2.65,6.07-2.94,8.34a6.37,6.37,0,0,1-.14.85c-.2.68-1.48-.78-1.47-1.69,0-1.53,1.71-6.21,2.93-8,.42-.63.47-.73,1.38-.76,1.46,0,.82.53.24,1.26Zm-63.59-1.1a4.35,4.35,0,0,0-1,.13c-1.89.46-4.13,2.46-4.35,4.58a5.21,5.21,0,0,0-.19,2.29c.62,2.85,2.28,4.78,4.31,7.59a51.54,51.54,0,0,1-4.3,5.79l4.13,6c-1.14,2.27-3.13,4-3.63,6.76-.78,3.68,1.14,7.26,5.24,7.58,3,.1,5-2,5.43-5.1.16-2.07-.7-4.68-3.77-8.8-.16-.2-.46-.62-.46-.62s.35-.41.53-.68c1.08-1.46,3.9-5,3.9-5l-4.21-6a5.45,5.45,0,0,1,.51-.84c3.44-4.69,4.08-7.07,3.47-9.41a5.46,5.46,0,0,0-1.59-2.41,5.56,5.56,0,0,0-4.07-1.84Zm-.1.58A5.22,5.22,0,0,1,38,181.52c2.58,2.71,2.35,5-1,10-.74,1.1-1.46,2.31-1.46,2.31l4.23,5.85a21.82,21.82,0,0,1-1.4,1.87,46.34,46.34,0,0,0-3,3.91c.74,1.12,1.93,2.33,2.68,3.68a11.65,11.65,0,0,1,1.6,4.47c.34,2.94-1.57,6.08-4.85,6.15a5.57,5.57,0,0,1-5.52-5.94,9.09,9.09,0,0,1,1.38-4.19c.76-1.36,2.55-4,2.55-4l-4.1-6,4.34-5.81s-3.16-3.86-4.12-6.65a5.92,5.92,0,0,1,.88-5.25,4.92,4.92,0,0,1,4-2.11Zm91.42.33c2.43,2.77,3.75,6.75,4.32,10.17a12.88,12.88,0,0,1,.07,4.06.67.67,0,0,1-1.2-.38c.44-4.81-4.74-8.27-9.23-6.18-3.47,1.61-5.32,5.36-4.45,10,1.63,8.79,9,15.22,14,24a20.9,20.9,0,0,1,2.17,4.6,28.53,28.53,0,0,1,2.14-4.22c3.55-6.52,8.37-10.73,12-17.25a21.76,21.76,0,0,0,2.93-8.84c0-6.36-6.18-11.16-11-7.82a8.44,8.44,0,0,0-3.81,5.34c-.11.81-.25,1-.61,1-.83,0-.84-.32-.17-4.1a32.52,32.52,0,0,1,4.43-10.47Zm-94.1,8.07a11.57,11.57,0,0,0,2.81,4,18.52,18.52,0,0,0,2.94-4.49c3.17-7.61-9.08-8.23-5.75.46Zm2.77,3.28c-1.56-1.81-2.66-3.31-2.76-5.7a2.89,2.89,0,1,1,5.7,0c-.35,2.3-1.55,3.76-2.94,5.67Zm76.57-7.43c.12.67.77,1.79.72,2.06-.3.7-.75,1-1.35,2.19-.13.25-.07.3-.42.24s-.88-.23-1.18-.31-.37-.15-.3-.36c.59-1.35,1.25-3,2.53-3.82Zm-10.24,2L99.86,188c-.06.2-.07.23-.29.19a5.83,5.83,0,0,0-1.18-.05c-.91-.11.79-3.48,1-4,.36.06.91,1.5,1.15,2Zm.69.44h0a5.86,5.86,0,0,1,1.33.43c.23.09.24.09.14.38s-.47,1.61-.74,2c0,.06-1.29-.75-1.65-.91,0-.23.4-1.86.88-1.92Zm10.82.22a2.71,2.71,0,0,1,1.23.62c.13.27,0,.53-.46,1.34s-.85,1.49-1,1.41a5.51,5.51,0,0,1-1.19-1c-.22-.29.19-1,.47-1.47.44-.65.65-.89.9-.93Zm-6.89-.09c.4.09-.22,2.09-.34,2.34a6.23,6.23,0,0,1-1.4,1.58c-.23.15-1-.28-.93-.78a15.48,15.48,0,0,1,.92-2.64,6.12,6.12,0,0,1,1.75-.5Zm-15.92.77h.26a4.57,4.57,0,0,1,4.11,2.4c.47.8.47.83.36,1.58a7.14,7.14,0,0,0,.3,4c.53,1.22.45,1.65-.84,4.37s-2.86,6.09-4.06,9.18a31.86,31.86,0,0,0-1.31,4.07c-.21.77-1.15.53-2.09.5-.48.1.69-3.12,2.42-7,1.39-3.07,3.27-6.55,4-10,.62-2.81.42-4,.08-5.15-1.29-3.43-5.81-2.59-5.8.57.1,2,2.47,3.15,3.34,1.14.14-.92-.31-.39-.69.06-.82,1-2.22-.1-2-1.53a2.18,2.18,0,0,1,3.86-1c1.27,1.61,1,3.27-.85,4.52a3,3,0,0,1-4.56-.84,4.59,4.59,0,0,1,3.45-6.93Zm9.37,1.35c1.88,0,3.92,1.62,4.25,2.87.18.85-.09,1.84.21,2.66.25.65.49,1,.31,1.62-1.55,5-5.2,10.29-7,16.18-.21.41-.39.47-.86.6-.72.2-1,.18-1.08-.19a7,7,0,0,1,.59-2.32,44.61,44.61,0,0,1,2.28-5.38c1.52-2.87,2.38-4.83,3.49-7.28.2-.45.26-.73.59-1.39,1.39-2.83-.19-5.62-3.08-5.64-2.29,0-3.32,3.58-1.31,4.63s3.43-1.67,1.68-2.62c-.42-.24-.53,0-.19.39.78.93.08,2.19-1,1.69-1.67-.77-.82-3.63,1.14-3.46,3,.25,3.41,4.64.33,5.75-4.23,1.53-6.45-5.28-2.46-7.57a4.11,4.11,0,0,1,2.12-.54Zm8.91.14a4.49,4.49,0,0,1,3.24,1.29c2.37,2.28,1.74,5.78-2.26,12.56a45.47,45.47,0,0,0-3.28,7,1.42,1.42,0,0,1-.71,1c-.69.39-1.48.43-1.58.16-.26-.68,1.72-5,5.24-11.7.93-1.79,2.1-3.87,2-6a2.68,2.68,0,0,0-3.53-2.36,1.92,1.92,0,0,0-.85,3.07,1.75,1.75,0,0,0,1.18.55c.59,0,1.25-.56.12-.63a1.17,1.17,0,0,1-.59-2.19c1.45-1,3.12.18,3,2.07-.24,3.83-5.82,3.26-6-.68a3.92,3.92,0,0,1,3.94-4.09Zm55.27,1.65a6.8,6.8,0,0,1,2.61,4.48c.08.52.15,1.06-.08,1.18s-.48-.07-1.05-.83c-1.34-1.77-4-1-4.89,1.41s0,4.91,3.59,10.08c1.28,1.91,2.41,3.49,3.47,5.36a34,34,0,0,1,3.11-5.52c4.07-6.16,4.81-9.36,2.6-11.43-1.42-1.29-3.68-1.33-4.44.32-.51.68-.82,1-1,.6a2.66,2.66,0,0,1,0-1.12,7.49,7.49,0,0,1,2.44-4.53Zm-71,4.47c.84-.07-.61,4.47-3.14,9.57a89.08,89.08,0,0,0-3.51,8.8c-.29.39-2,.47-2,.06,3.09-9.93,5.28-11.64,6.34-15.42.18-.65.32-1.6.34-1.68.79-.22,1.45-1.16,2-1.33Zm-57.36.67L31.18,200l3.21,4.54,3.32-4.34Zm71.08,1.32a22.23,22.23,0,0,1-1.72,4.46c-3.22,6.49-4,8.24-4.57,10a.85.85,0,0,1-.46.59c-.41.16-1.52.37-1.62.22.69-3.79,5.89-12.42,6.9-16.2.4,0,1.44.59,1.47,1Zm2.57-.4c.22,0,.31.08.25.37a25.08,25.08,0,0,1-1.64,3.5c-2.71,5.32-4.13,8.47-4.58,10.09-.11.38-.18.68-.35.78-.38.2-1.68.72-1.74.15.4-2.4,2-4,6.09-14,.19-.33.36-.49.54-.52.5-.09.94-.32,1.43-.37ZM97,198.3a28.58,28.58,0,0,1-2,4.32,61.55,61.55,0,0,0-4,9.59,2.27,2.27,0,0,1-.46,1,5.23,5.23,0,0,1-1.74.15c-.21-1.09,1.5-5.16,3.42-9.43,1-2.33,2.24-4.64,3-6.73.56.08,1.63.61,1.7,1.1Zm2.9-1c.58,0,.13,1-1.26,3.71a60.48,60.48,0,0,0-4.08,8.94c-.3.79-.65,1.77-.79,2.18s-.32.79-.54.9a2.05,2.05,0,0,1-1.61,0c-.28-.34,1.21-4.38,2.67-7.48,1.29-2.6,2.2-4.69,3.31-7.1.31-.48.32-.51.63-.58a9.57,9.57,0,0,0,1.67-.55Zm-65.38.52,1.69,2.26-2,2.47-1.66-2.4Zm-.25,9.76a13.87,13.87,0,0,0-1.46,2.13c-2.16,3.6-2.22,6.25.33,7.82a3.1,3.1,0,0,0,3.36-.34c2.88-2.51.74-6-1.12-8.32a12.92,12.92,0,0,0-1.11-1.29Zm.1.92A14.84,14.84,0,0,1,37,212.3c.83,2.16.3,3.85-1.3,4.65-2.54,1.25-4.84-1.57-3.64-4.59a15,15,0,0,1,2.35-3.89Zm71,4.25c.24.46-24.13,6.09-42.1,1.25L52.32,229.8l63.15-.11Zm-.92,1.12L113.19,229h-4l-5.77-12.35a65.39,65.39,0,0,1-9.21,1.87l2,10.48h-3l-1.72-10a128.63,128.63,0,0,1-13.52.33L76,229H72.78l2-9.61c-3.49-.47-7-.91-10.51-1.49L58.35,229H53.87L63.21,215c13.94,2.8,26.79,2.14,41.23-1.2Zm63.08,2.33a6.46,6.46,0,0,0-6.5,4.67c-.29,1-.29,1-.3,10,0,7.43-.07,9.23-.07,9.23h-2.54v3h8.28v-3h-2.75s0-9.26,0-15.09a8.37,8.37,0,0,1,.43-3.77c1.46-3.38,6.61-2.64,7.24.24a13.52,13.52,0,0,1,.18,3.64h2.87a26.74,26.74,0,0,0-.2-4.12c-.38-3.39-3.31-4.9-6.34-4.81Zm-65.29,3.13,4.58,9.68H98.14l-1.59-8.64Zm-37.11.7,7.58,1-2,8H60.51Zm24.74,1.2,1,7.78H77.84l1.45-7.63Z"/></g></g></g></svg>