<svg xmlns="http://www.w3.org/2000/svg" viewBox="0 0 178.58 249.45"><defs><style>.cls-1{fill:#fff;}.cls-2{fill:#262e5e;}.cls-3{fill:#e1cf01;}.cls-4{fill:#d41216;}</style></defs><title>JD</title><g id="Слой_2" data-name="Слой 2"><g id="D"><g id="JD"><path class="cls-1" d="M8.5,0H170.08a8.48,8.48,0,0,1,8.5,8.5V241a8.48,8.48,0,0,1-8.5,8.5H8.5A8.48,8.48,0,0,1,0,241V8.5A8.48,8.48,0,0,1,8.5,0Z"/><path class="cls-2" d="M24.77,230.41,24.36,20l130.51.24L155,230.33ZM71.55,55.09c-4.66-1.27-4.55,3.36-1.13,3.54,3.83.32,5.47-6.2,3.64-8.77,0,0-1.59,4.91-2.51,5.23ZM41.27,81.3l-5.61,2.5,0,4.18a22.87,22.87,0,0,0,5.63-6.68ZM79.53,207c-1.11-.55-2.44-1.75-2.23-2s.7.09,1.24.33c4.38,1.85,7.78,1.73,13-.17.4-.14,1,.61.77,1-2.31,3.42-9.8,2.2-12.78.77Zm-2.31-5.13c-1-1.51.33-.36.78.06,3.23,3,7.63,4,11.39,1.2a.49.49,0,0,0,.15-.51c-.1-.28-.11,0-1.72.58-3.62,1.35-6.66.24-9.64-2-1.22-.94-1.79-1.41-1.79-1.65s.23-.37.64-.3,1,.19,1.48.24c.91.07.84,0,1.77-.4a9.45,9.45,0,0,1,5.88-.88,10,10,0,0,0,1.16.22c.47-.16-.22-.76-2-2.16a4.58,4.58,0,0,1-.92-.74c-.22-.37,0-.47.27-.47.72,0,4,2.72,5.08,4.33.34.49.57.54.57,1a2,2,0,0,0,.42,1.78,7.74,7.74,0,0,1,.82,1.43s-.09.31-.46.06c-.17,0-.25-.21-.57-.17a5.79,5.79,0,0,0-1.21.48c-4.54,2.93-8.72,1.5-12.13-2.11Zm10-.2a5,5,0,0,0-.78-2.17,2,2,0,0,0-3.11-.15,9.06,9.06,0,0,0-1,2.13,6.72,6.72,0,0,0,.93.21A2.53,2.53,0,0,1,84,199.8a1.42,1.42,0,0,1,1.42,0c.59.29.84,1.47.85,1.93a2.14,2.14,0,0,0,.91,0Zm-5.5-2.42c-.64.28-1.47.48-1.67.9-.25.57.64.74,1.11.93.64.31.65.2.86-.3l.46-1.08c.48-.92,0-.79-.76-.45Zm6.93,1.61c.37-.38.44-.62.11-1a2.6,2.6,0,0,0-1-.54c-.6-.2-.86-.44-.48.37l.53,1.15c.27.55.51.4.87.06ZM28,161.63a24,24,0,0,0,3.25-1.09c.79-.3.89-.29.57-.72a2,2,0,0,1-.15-1.14l.06-.7a4.85,4.85,0,0,0-4.15,1.45c-.5.61-.45,2,.42,2.2Zm-.29,3.44c.42.42.54.43,1.8,0a5,5,0,0,1,2-.7c1.52-.41,1.52-.25,1.09-1.22a2.1,2.1,0,0,1-.2-1.23c.07-.49.13-.55-.15-.64-.72-.23-4.09,1-4.69,2a1.31,1.31,0,0,0,.15,1.8Zm79.14,29.77a8.8,8.8,0,0,0-.76,1.31c-.28.68-.11.81,0,2.14.06.78.08,2,.08,2.63,0,1.23,0,1.62.37,1.69s.48-.18.64-.83c.08-.32.27-.66.33-.86.24-1.4.68-3.72,1.68-4.7a2.75,2.75,0,0,1,1.29-.19c.91,0,1.2,0,1.48-.25a1.85,1.85,0,0,0-1.08-3.31c-1.64-.14-3.9,2.12-4,2.37Zm6.29-.58a2.4,2.4,0,0,1-3.1,2.31c-.66-.16-.86,0-1.29.92a33,33,0,0,0-1.59,6.83c-.11,1.52-.66,5.46-.26,6.72,4.61,5.69,9.46,11.57,14.78,17.44l31.61,0,.19-37.21-9.18-8.68V168.86c-9.82,4.63-19.62,9.33-29.43,14,2.14,6.86-5.11,8.29-6.7,3.7-1.38,1.26-2.5,8.07-2,8.4,0,0,.19.25.49-.3a5.49,5.49,0,0,1,1.86-2c2-1.26,4.47-.64,4.61,1.58ZM88,193.56a2.12,2.12,0,0,1,.57-3.67,4.35,4.35,0,0,1,3,.16,4.32,4.32,0,0,0,2.78.29c.72-.08.59,1.43-.17,1.82-.52.27-1.74.14-3.22-.7-2.55-1.46-3.68.43-2.09,2.13.87.94-.63.19-.85,0ZM35.42,171a1.42,1.42,0,0,0-.47-2.68A1.45,1.45,0,0,0,34,171c0,.24-.61,0-.94-.2-.51-.39,0-1.88-.52-1.94a30.71,30.71,0,0,0-4.27,1.51c-1.59.9-.1,2.93.82,2.7,1.92-.49,4.52-.91,6.3-2.07Zm-7.89-2.9c0,.9.28,1.31.88,1.31A25.17,25.17,0,0,0,32,168.25c.91-.3,1.28-.63.58-1.2a1.37,1.37,0,0,1-.29-1.23c.24-.75.06-.79-.26-.82a11.49,11.49,0,0,0-2.89,1c-1,.37-1.16.54-1.42,1.07a3.11,3.11,0,0,0-.16,1.08Zm10.3,11.69a7.2,7.2,0,0,0,.69-2.22c-.09-.65-.58-.8-1-.38s-.38,1.17-.69,1.71a1.09,1.09,0,0,0-.19.55.74.74,0,0,0,1.2.34Zm4.06-8.6c15.84-16.87,25.65-40.21,8.48-72.4-1.92-.83-2.52,2.3-2.7,2.43l-2.19,1.91c11.62,20,9.6,43.09-4.61,59.48l0,1c0,2.29.69,2.19,1.65,1.12s.34-.2-.08.24-.93,1.14-1.08,1.34c.19,1.37,1,3.93.51,4.84Zm-1-5.06a11.77,11.77,0,0,1-.46-3.35,23.85,23.85,0,0,0-1-4.33,3,3,0,0,0-2.24-1c-.84-.06-.91,0-1.09.23-.31.48-.1,2.86.21,3.73a3.6,3.6,0,0,1-.14,2.6c-.1.37-.13.39,0,.42.79-.05,1-1,1.36-.74.11.11-.16.9-.53,1.71a4.72,4.72,0,0,0,0,3.45,2,2,0,0,1,0,1.55,9.34,9.34,0,0,0-.3,2.3,2.62,2.62,0,0,1,0,2.21,5.57,5.57,0,0,0-.58,3.28c.11.35.4.05.61-.55.34-1.19.72-1.46,1.7-1.46.71,0,.78.25,1-.07a13.78,13.78,0,0,0,1.86-4,8.83,8.83,0,0,0-.39-6Zm7.57,11.94a2.49,2.49,0,0,0,1.09-1.39c0-.35-2.65-2.93-3.76-3.64-.5-.33-.74-.09-1.62,1.1s-.89,1.07-.75,1.27a35.78,35.78,0,0,0,3.78,2.5,1.64,1.64,0,0,0,1.26.16Zm5-4.6c-.4-.3-3.58-3.83-4.52-4-.36-.07-1.51,1.24-1.51,1.54a25.58,25.58,0,0,0,3.39,3.45,2.86,2.86,0,0,0,1,.64c.44-.23,1.59-1.16,1.65-1.63Zm3.37-3.32c0-.21-.35-.64-1.2-1.48-2.18-2.14-3.4-3.12-3.78-3.12a3.54,3.54,0,0,0-1.22,1.85c.15.26,3.79,3.57,4.26,3.89.59.57,1.86-.75,1.94-1.14Zm3.42-3.42c.1-.31-.09-.58-.55-1l-2.58-2.54c-2.29-2.25-2.3-2.26-3-1.2s-.76,1.1,1.48,3.28,2.94,2.79,3.31,2.79a2.42,2.42,0,0,0,1.37-1.31Zm-25.55-2a1.13,1.13,0,0,0-1.08.2c-1.69,1.44.7,3.29,1.69,2.14a1.38,1.38,0,0,0-.61-2.34Zm29.07-1.5c0-.24-.5-.78-2.2-2.41-4.22-4-4-3.87-4.5-3.62a3.17,3.17,0,0,0-.86,1.64c0,.3.41.72,3.53,3.64,1.84,1.71,2.38,2.14,2.7,2.14.5-.25,1.3-.78,1.33-1.39Zm-29,.15a1.28,1.28,0,0,0,.52-2,1.29,1.29,0,0,0-2.18.88,1.22,1.22,0,0,0,1.66,1.08Zm32.43-3.53c0-.48-7.22-7.23-7.73-7.23-.35,0-.6.28-.93,1s-.26,1.06.1,1.4c.52.51,1.91,1.79,3.24,3,.78.7,1.68,1.55,2,1.88a4.62,4.62,0,0,0,1.87,1.35,3.12,3.12,0,0,0,1.45-1.43ZM34.35,159a1.06,1.06,0,0,0-.25-.76,1,1,0,0,0-1.65.45c-.21,1.65,1.84,1.72,1.9.31Zm5.35-52.55,1.41-4.31,4.32-.12L46,97.7l4.44-.65.07-4.43L54.79,92l-.26-4.75,3.94-.93-.2-4.4,3.58-1.09L61.71,77l.61-.48L60.77,75l-1.33.44,0,3.93L55.84,80.5l.38,4.35-3.62.83,0,4.73-4.15.46-.3,4.18-4,.79-.61,4.09-3.93.27-1.2,3.59-2.59,0v2.41Zm46.94,77.24c-.14-.32.22-.27.84.12a4.87,4.87,0,0,0,2.25.74,15.62,15.62,0,0,0,2.21-.39,5.56,5.56,0,0,1,3.28-.19c.87.12,1.74.22,1.94.22A2.61,2.61,0,0,0,99,183.06c.71-1.22.54,1,.54,1.25,0,1.13.16,2.43-.65,1.83a2,2,0,0,0-2,0,1.65,1.65,0,0,1-2,.07c-.65-.26-1-.31-1.48.14s-1.85.32-2.55.09c-1.2-.2-1.88-.37-2.69.26-.43.25-.54.07-.87-.89s-.58-2-.63-2.14Zm3.07-.8c-.07-.12.57-.76,1-1a8.14,8.14,0,0,1,5.66,0c1,.35,1.1,1,.17.82-1.92-.4-4.34-.73-6.2.15a1,1,0,0,1-.64,0Zm1.63-3c-1.32-.49-2-1-2-1.17s.28-.14,1.32.14a6.87,6.87,0,0,0,4.46.31c1-.37,1.5-.6,1.5-.38a2,2,0,0,1-1.1,1.2,6.37,6.37,0,0,1-4.22-.1Zm28.57-3.65,1-.14-.34-4.07,3.6-1.07-.25-4,3.83-1.32L127.5,161l4-.79.52-4,3.76-.27.78-4.34,4-.14.83-3.61,2.69,0v-2l-4.19,0-.88,3.91-4,.11-.84,4.29-4.14,0-.53,4.63-3.9.63v5l-3.77,1,.3,4.26L118.43,171l.43,4.06ZM145,80.56a1.66,1.66,0,0,0-.57,1.76,1.39,1.39,0,0,0,2.61-.06,1.12,1.12,0,0,0-.69-1.25c-.09,0-.41,0-.57-.17s.62-.5,1.06-.36a1.72,1.72,0,0,1,1,1.53c0,.24-.06.6,0,.72a13.49,13.49,0,0,0,2.9-.78c1.63-.45,2.22-1.39,1.86-2.49-.3-.91-1.24-1.28-2.47-.81-1.68.63-3.66.94-5.14,1.91ZM75.32,180.62c5.53-3.89,8.78-6.11,15.88-6.49-2.53-1-3-2.41-3.66-3.72a36,36,0,0,0-17.63,6.26,14.61,14.61,0,0,1,5.41,4Zm30.82-5.39A28.79,28.79,0,0,0,97,171.3l-2.54,2.63a52.88,52.88,0,0,1,11.72,1.3Zm25.74-24.93c-17.29-26.57-5.68-50,6.35-64.85.38-.49.48-.51.39-.9a27.9,27.9,0,0,1-.17-4.59c-22.22,22-22.79,50.72-8.85,73.49,1-.89,3-2.07,2.28-3.15Zm2.59-2.28c-2.84-4.72-18-30.32,5.13-58.87a12.54,12.54,0,0,0-.24-2,3.13,3.13,0,0,0-.8-1.38c-9.7,14.56-23.79,32.78-6.18,64.41ZM121.25,99.85a3.33,3.33,0,0,0,.85-1.72c0-.38-.28-.7-2.88-3.34-3.47-3.52-4.07-4.06-4.52-4.06a2.61,2.61,0,0,0-1.51,1.44c0,.18,1,1.29,3.43,3.7,4.48,4.46,4.27,4.28,4.63,4Zm3.2-6.49c0-.21-.32-.63-1.08-1.41a43.64,43.64,0,0,0-5.12-4.69,2.84,2.84,0,0,0-1.43,1.16.51.51,0,0,0,0,.68c.35.55,4.83,4.8,6.11,5.87.76.71,1.45-1.07,1.49-1.61Zm1.73-2.63a3.13,3.13,0,0,0,.95-1.77,28.3,28.3,0,0,0-2.53-2.72c-2.67-2.66-2.83-2.75-3.49-2.16s-1,1.08-.91,1.3a65.76,65.76,0,0,0,4.91,5c.64.52.72.54,1.07.36Zm20.39-.2a1.13,1.13,0,0,0-1.2-1.92,1.24,1.24,0,0,0-.57,1.27,1.29,1.29,0,0,0,1.77.65Zm2.48-.31c2.13-.55,3.15-.93,3.59-1.59.31-.46.35-.74,0-1.49s-.69-.9-2-.17c-.92.5-3,.74-3.67,1.16-.28.25-.14.25.09.39.51.33.76.55.7,1-.12.94,0,1.08,1.31.72Zm-2.25-3.33c1-.53.83-1.8-.32-2.3a1.33,1.33,0,0,0-1.26,2.32,2,2,0,0,0,1.58,0Zm3.43-.51c1.5-.52,2.07-.91,2.5-1.74a2.25,2.25,0,0,0,.15-1.58c-.06-1-.55-.84-1.94-.35-.68.27-3.93,1.18-4,1.51,1.57.9,1.17,1.37,1.18,2.52.08.26.82.07,2.08-.36Zm-20.34-1.53c0-.43-4.17-4.51-4.61-4.51-.69,0-1.67,1.07-1.53,1.65a46,46,0,0,0,4.47,4.49c.68.41,1.63-1,1.67-1.63Zm2.4-2.54a4.75,4.75,0,0,0,.71-.82c.45-.65.41-1-.12-1.36a25.38,25.38,0,0,1-1.94-1.76,17.2,17.2,0,0,0-1.84-1.62c-.72-.09-2,1.06-1.88,1.65a31.59,31.59,0,0,0,4,3.92.75.75,0,0,0,1.09,0Zm5.65-6.09A7.12,7.12,0,0,0,136.05,75c-3.55-1.93-3.61-1.94-4.72-1-.38.31-.69.66-.69.78a11.1,11.1,0,0,0,1.75,1.88c2,1.93,2.53,2.34,2.82,2.34.58-.43,2.63-2.21,2.73-2.75Zm5-1.81a4.37,4.37,0,0,0,.69-2.71.88.88,0,0,0-1,0,8,8,0,0,0-.85,2.81c.11.28.81.15,1.19-.15Zm-38.8,77.44a5.5,5.5,0,0,0,2-1.28c1-.88,4.26-2.83,4.61-3.62.16-.45,0-1.09-.29-1.13s-.32.16-2.47,1.71c-1.45,1-4,2.92-4.39,3.31a.81.81,0,0,0,.58,1Zm-.3,12.51c2.22-1.54,4-3.13,6.91-4.91a1.16,1.16,0,0,0,.12-1.09c-.17-.45-.4-.27-1.28.34-2.13,1.43-4.32,3.12-6.15,4.38-.59.4-1.09.62-1,.84s1.07.39,1.36.44Zm2.16.95c1.46-1.19,3.2-2.33,4.76-3.49a1.24,1.24,0,0,0,0-1.25c-.17-.24,0-.19-.46.05-.63.36-4.4,2.93-5.11,3.51-.41.34-.75.51-.64.63a3.64,3.64,0,0,0,1.4.55Zm1.83.92c.3-.2,2.9-1.85,3.11-2.08s.16-1.38-.07-1.47c-.65.53-4.11,2.63-4.12,3a1.92,1.92,0,0,0,1.08.58Zm2.78.24c.39-.37.47-.43.48-.84,0-.74-.17-.71-1.22,0-.74.48-1.19.81-1,1.1.52.82,1.26.17,1.79-.3Zm.28,1.51c.21-.08.21-.19.18-.44s-.08-.28-.39-.28c-.84,0-.08.79.21.72Zm-10.09-4.15a7.73,7.73,0,0,1,1.78-3.19c3.49-3.1,2.43-6.9.22-10,2.85-4,5.7-8.21,8.15-12.09v-6.29l.33,0c-.11,13.74.51,36.27.51,36.27l2.84,2.16-.39.19c.47-.07-8.25-5.53-13.43-7.08Zm2.56-1.57c2.41-1.82,4.76-3.25,7.15-5.19.25-.21.4-.22.41-.69,0-.91-.17-.92-1.06-.28-.4.28-1.85,1.29-3.23,2.22a34.21,34.21,0,0,0-3,2.15c-1.35,1.56-1.84,2.29-1.71,2.52s.42,0,1.47-.73Zm2.63-4.41c1.24-.81,4.2-2.87,4.47-3.13.47-.44.55-1.15.13-1.23a28.37,28.37,0,0,0-4.44,3c-.94.71-1.16.88-1.16,1.55,0,.41.25.33,1-.16Zm1.24-3.2c3.8-2.71,3.7-2.48,3.62-3.49,0-.34-.11-.49-.26-.52a8.14,8.14,0,0,0-1.54,1c-.76.53-1.67,1.25-2.12,1.57-1.32.91-1.76,1.16-1.76,1.68s.14.85.37.85a12.58,12.58,0,0,0,1.69-1.08Zm-.55-2.1a45,45,0,0,0,3.94-3c.32-.41.27-1.28-.15-1.28-1.75,1.17-3.87,2.72-5.35,3.94a1.51,1.51,0,0,0-.52.55.84.84,0,0,0,.49.67c.29,0,.74-.32,1.59-.92Zm-1.14-4.18c1.34-.91,2.55-2,3.88-2.9,1-.68,1.28-.89,1.22-1.75,0-.5-.47-.21-2.16.91a9.47,9.47,0,0,0-2.25,1.72c-.31.71-1.32,1.38-1.37,2.19,0,.31.2.16.68-.17Zm4.1-5.45c1-.68,1.13-.69,1-1.6-.15-1.13-.26-1.06-1.24.44-.65,1-.87,1.27-.77,1.45s.35.14,1-.29Zm-3.73-8.32c-.11-.5-.27-.39-.79.06-1,.84-1.1,1.44-.5,1.76.31.17.55.15.74-.26a5,5,0,0,0,.55-1.56Zm-5.33,7.91a2.6,2.6,0,0,0-1.12-1.31c-.42-.22-.68-.18-1.08.34s-.2.75.36,1.46c.41.52.58.69.9.69.39-.15,1-.68.94-1.18ZM79.93,162.33c-.27-.53-.85-1.08-1.11-1a1,1,0,0,0-.56.75,1.1,1.1,0,0,0,.88.88c.64-.09,1-.2.79-.64Zm2.52-.8a15.57,15.57,0,0,0-1.8-1.83,1.6,1.6,0,0,0-.93,1,4.31,4.31,0,0,0,1.3,1.82c.83-.08,2.33,0,1.43-.95Zm3.1.16a25.56,25.56,0,0,0-3.34-3.53c-.29,0-.87.64-.87.94a10.45,10.45,0,0,0,1.9,2.48c.46.47.49.54,1.05.45s1.4,0,1.26-.34Zm5.39-.72c0-.66-.33-1-1.72-2.51l-1.88-2.1c-1-1.17-1.47-1.54-1.88-1.54a1.11,1.11,0,0,0-.82.87,63.85,63.85,0,0,0,4.84,5.6c.51.55.74.7,1.23.44.28-.19.23-.51.23-.76Zm-4-7.81c-.52.43-.71.6-.71.88,0,.44,4.38,5.25,4.77,5.25.23,0,.2,0,.33-.55.27-1.57-.16-2-1.29-3.07-.76-.69-2.3-3.08-3.1-2.51Zm7.73-3.22c-1.22-1.46-1.9-2.13-2.15-2.13a1.2,1.2,0,0,0-.7.46c-.46.43-.41.42-.12.93a7.7,7.7,0,0,0,.93,1.18c.68.69,1,.91,1.35.58s1-.65.69-1Zm-.64-3.65a1.14,1.14,0,0,0-.8.83A7.82,7.82,0,0,0,95,149.23c.56.5.82.63,1.21.31a1,1,0,0,0,0-1.14c-.5-.56-1.58-2.09-2.15-2.11Zm3.44.36a5.47,5.47,0,0,0-1.65-2.22c-.33,0-1,.77-1,1.12a2.83,2.83,0,0,0,.72,1.14c.89,1,1.12,1.27,1.31,1.11a1.68,1.68,0,0,0,.65-1.15Zm1.42-1.84c.08-.35-.14-.72-.64-1.35-.63-.78-.94-.84-1.53-.23a1,1,0,0,0-.31.53,5.66,5.66,0,0,0,1.55,2c.56-.07.74-.48.93-.92Zm-2.31,4.13a1.47,1.47,0,0,1-.86,1.14c-4,2.89-3.88,7.59-4.73,11.93-6.49-.06-16.74,2.6-16.68,2.74L108.8,130s.43.1.17.41c-2.79,2-2.61,5.9-4.45,7.86-3.06,3.7-5.91,6.91-7.91,10.69ZM77.9,163.15c.06-.4-.31-.51-.62-.19s-.19.55.25.5c.23,0,.34-.12.37-.31Zm10.62-1.47c.13-.33-.17-.64-2-2.69s-2.29-2.56-2.62-2.56a1.62,1.62,0,0,0-.94,1,2.65,2.65,0,0,0,.65.93c.36.39,1,1.15,1.52,1.69a11.15,11.15,0,0,0,1.52,1.6,1.51,1.51,0,0,0,1,.2c.67,0,.81,0,.87-.13Zm3.2-6.52c.12-.41.31-.77.31-.92a17.42,17.42,0,0,0-2.76-3c-.48-.31-1.38.7-1.15,1.28a13.83,13.83,0,0,0,1.55,1.84c1,1.08,1.53,1.59,1.69,1.56s.19-.28.36-.81Zm1-2.53a1.8,1.8,0,0,0,.31-.74,4.23,4.23,0,0,0-1-1.3c-1-1.18-1.33-1.32-1.9-.76s-.38.8.63,1.94c1.26,1.44,1.41,1.61,1.92.86Zm9-11.3c.4-.47.4-.7,0-1.13l-.49-.59c-.32-.38-.75-.32-1.19.18a1.62,1.62,0,0,0-.36.57,2.77,2.77,0,0,0,.51.74c.62.72,1,.8,1.49.23Zm1.38-1.79c.27-.4.15-.85-.35-1.31s-.71-.45-1-.08-.37.66.1,1.19,1,.68,1.29.2Zm1.11-1.48a.7.7,0,0,0,0-1.1c-.3-.4-.62-.5-1-.33-.57.3-.51.83,0,1.41.34.36.5.4.87,0ZM77.85,212.23c7.06.79,14.64,1.34,28-.73l.07-4.54c-4.17,3.25-9.65,1-10-2.72a38.64,38.64,0,0,1,1.6-9.93c.56-2,.72-2.83.2-3.22-1.15-.65-3.2-.73-3.72-2.09-.25-.71-.28-1.48.09-.93a6.77,6.77,0,0,0,2.54,1.1c1.81.4,2.1.54,2.3,1.28a9.78,9.78,0,0,1-.64,3.55,20,20,0,0,0-.74,3.05c0,.36.28.41.59.32a15,15,0,0,0,1.17-1c1.74-1.55,2.24-1.51.76,0-.59.61-1.41,1.44-1.41,1.5,0,.32.3.29,1,0a7.7,7.7,0,0,1,4.52.21c1.33.67,1.38.64,1.35-1.39a46.28,46.28,0,0,0-2.09-11.79c-1.89-5.35-5.8-10.31-11.59-10.08-7.06.36-11.32,3.17-16.11,6.54,2.9,6.43-1.29,11.35-2.81,12-.15.07,1.9,6.54,2.77,9.83.8,3,2.13,9,2.13,9Zm30-155.1c-.17-.42-4.09-13.21-5.18-18.56-10.61-.61-18.46-1.5-27.8,1.16,0,0-.2,3.6-.1,3.77.09.45.41.44.67.29,4.32-2.37,9-1.3,9.32,4.55.12,2.23-.63,3.81-.76,5.92-.12,1.85-1.58,4.31-.7,5.72a5.48,5.48,0,0,0,1.59.88c1.58.68,2.2,1.3,2.32,2.34.17.71-.27,1.19-.4.46-.08-.47-.17-.88-2.12-1.55S82.3,60.7,82.11,60.3a2.26,2.26,0,0,1,0-1.81,20.78,20.78,0,0,0,1-4.67c0-.32-.37-.16-.83.23a24.44,24.44,0,0,1-3.14,2.06,5,5,0,0,1,1.11-1.36,13.47,13.47,0,0,0,1.89-2c0-.31-.12-.09-.94.15a6.66,6.66,0,0,1-4.17-.15c-.94-.41-1.6-.65-1.74-.43-.35,5.7.5,11.57,2.89,16.15,2.14,4.16,6.59,9.37,13.28,8.2,6.91-1.2,13.64-6.77,13.39-6.77-2.57-5.84.36-10.19,3-12.8ZM53.09,212.61l-1.5-1.17A65,65,0,0,0,37,204.67c-.43-.09-.85-.29-.85.21l-.06,10.53-9.48,8.89.16,4.33,20.12-.09L60.25,209s.64-.12.71-.24a92.65,92.65,0,0,0-8.49-22.86,4.48,4.48,0,0,1-6.37-.61c-1.68-1.89-.65-5.2.95-6.41a23.92,23.92,0,0,0-6-3.31c-.38-.1-.95.67-1.14,1.37-.33,1.14-.89,2.15-1.26,3.29-.41.95-.8,1.1-1.42.83l-1.21-.38,0,12.37a26.1,26.1,0,0,1,17,19.6ZM83.51,80.35,85.68,78a60.11,60.11,0,0,1-11.24-2.36,36.89,36.89,0,0,0,9.07,4.71ZM71.59,73.73C75.42,75,80.26,78,86.3,76.86c-5.51-2.19-9.69-7.29-11.48-17.69-.38,2-1.19,6.22-2.46,6.67-1.78-6.9-9-2.89-6.07,2.74-7.65,4.94-16,7.81-23.92,11.65,0,0-1.19,3.66-7.12,8.68-1.1-5.87.67-14.43-.49-20.5l-9.3-8.79a32.92,32.92,0,0,1,0,4.67,3,3,0,0,0,1,.73c.61,33.86-.2,67.32-.2,98.07-.09,18.84.41,38.48.13,56.27L26,220v4.25l9.5-9a80.72,80.72,0,0,1,.06-11.32c6,1.21,11.58,4,16.59,7.11.63.18-3-12.34-16.44-17.89,0,0-.13-3.88-.13-12.36,0-8.19-.13-9.05-.31-9.19-.55.6-7.45,2.92-7.79,2.53.18.06-2-14.49-.11-16.7l6.6.14c1.89,1.53,1.13-.33,2.23-.64.65-.17,3.7,1,3.7,1,12.58-14.85,11.32-39.26,2.3-53-2.31,1.88-4.77,4.42-7.09,5.52,0-.09,0-7.58,0-7.58,12-7.71,25.09-30,24.25-30.13a59.66,59.66,0,0,1,5.17,5.67L52.66,95.57C55.37,101,58.12,106,59.9,110.82c.24.65,1,.63,1.17,1.31s-.55,1.4-.45,2.05c2.51,9.57,3.07,19.73.6,28.93-.52,2.07.43,3.75,1.71,5.31.11.14-1.19-1.12-1.3-1.19-.45-.26-1.19.67-1.35,1.85.11.72.5.85,1,1.44.91.76,4.55,4.33,6.15,6,1.43,1.45,1.8,1.52,2.75.49.27-.25.55-.6.81-.81.06.08.41-.29.53-.41L93,134.86c2.49-2.43-21.39,21.93-21.39,21.93L57.15,171c-2.93,2.9-3.33,3.53-3.44,3.75-.21.38.94.37,1.46.29a3.74,3.74,0,0,1-.92.11c-3-.68-4,2.66-6,3.33-5,3.57-1.64,9.31,3.16,7.41l1.17-.56a107.44,107.44,0,0,1,9.08,23.83l-.79.36-12.67,19h71.86c-5.16-5.13-9.55-11.44-14-16.17-7.17,2.15-28.84,1.71-28.5.78,0,0-3.28-13.28-5.13-19.81,5.89-5,5.28-13-3.27-16.57a32.08,32.08,0,0,1,18.6-7c2,5,6.65,5.36,8.85.75,0,0,8.26,2.53,11.3,5.33-4.51-.47-9-1.37-13.47-1.58a16.62,16.62,0,0,1,9.31,10.35c.63,1.67,1.6,7.19,1.86,7.21,0,0,1.5-6.38,2.67-6,3,6.21,8.11,1.53,6-3.41,7.58-3.62,16.1-7.66,23.08-11,2-3.07,7-8.9,7.36-8.92,0,0,9.21-52.73,9.21-70.36-.31-21.19.42-44.78-.49-64.6V21.78H134l-13.88,20.4a2.53,2.53,0,0,0-.1.47,97.39,97.39,0,0,0,8.14,22.84c5.26-4,9.69,2.57,5.75,6.37-.74.72-.54.9.19,1.39s5.73,3,6,3c.91-1.35,1.17-3.33,1.77-4.84.16-.58.59-.65,1.47-.55,1.11.14,1.11.6,1.07-6.52l0-6.11c-6.75-3.11-15.68-11-16.1-19.22,3.9,2.84,12.87,7,15.26,7.33,1.05.3.89-1.54.92-2.27.29.19.39,3,.39,3-4-1.2-6-1-15.92-6.68,1.7,8.08,9.79,14.45,15.66,17.36,0,0,.24,3.84.23,8.14,0,13.11.09,13.69.09,13.69A41.27,41.27,0,0,0,149,78.35c1.6-1.28,4.17-.3,4.52.64.53,5,0,9.54-.09,14.26-2.73.2-4.23.78-5.58.83C147,94,146.41,94,146,93.46c-1.3-2.82-1.22-1-1.38,1.09-.12.62-3.39-.47-3.71-.65-14.12,16.25-12.92,35-3.33,52.29a60.17,60.17,0,0,1,7-4.45c.06,2.21.1,6.74.1,6.74-11.05,8.11-24.29,29.6-23.84,29.66l-4.49-5.36s2.82-4.49,3.82-5.68a7.76,7.76,0,0,0,.19-1.53l6.86-9.93a129.49,129.49,0,0,1-7.43-15.6,12.83,12.83,0,0,1-.54-2.58c-4.58-20.68.38-31,0-31.76a1.44,1.44,0,0,0-.16-.49c-.15-.12,0-.24.2-.54.33-.57.85-1.75.67-2.1s-3.84-4-7-7c-1.68-1.61-1.61-1.8-2.48-.92-.32.33-1.11,1.25-1.11,1.25-11.5,10.64-20.63,20.34-32.17,31.66l-.55-.5C93.44,110.35,110.38,93.83,127,77l-2.92,0a.76.76,0,0,1,.37-.47,9.16,9.16,0,0,0,4.34-1.13c2.38-1.77,5.78-4.13,6-6.45-.17-4.47-3.94-5.12-6.67-2.93a83.62,83.62,0,0,1-8.39-22.62c-.07-.38-.61-1-.69-1.47.81-2.54,13.67-20.06,13.67-20.06H60.56L74.3,38.27c0-.66,19.59-3,28.56-.24l5.46,19.41c-5,4.79-6.43,12.69,2.7,16.79.18.39-.86,1-.86,1,.14-.24.39-.48.29-.7a20,20,0,0,1-5.09-3.8C99.87,75,94.73,77.43,89.71,77.64c0,0,2.65,1.8,3.16,3.78a.67.67,0,0,1-.31-.11c-.54-.66-1.79-2.82-2.85-3.45a4.62,4.62,0,0,0-4.26.85l-1.92,1.85c-4.38-1.34-9.25-3.52-11.94-6.83Zm-.73,47.49,2-2a10.19,10.19,0,0,1,2.32-5.36c1.87-2.26,3.95-4.37,5.48-6.38,1.83-2.41,2.83-4.59,2.35-5.6,2.73-.49,5.24-2.91,5.32-7.28A17.87,17.87,0,0,1,89.56,89s19.08-.65,32.21-13.17c0,0,.93.2.71.37a45.76,45.76,0,0,1-16.52,11L71.47,121.66Zm3.81-4c.52-.52.64-.68.35-.93-.45-.37-1.31.39-1.31,1.16,0,.49.39.34,1-.23Zm1.79-1.75c.41-.4.4-.68.06-1s-1.15-.18-1.37.57.67,1.06,1.31.45ZM78,113.93a2.09,2.09,0,0,0,.38-.55c0-.27-.66-.87-1-.87a1.41,1.41,0,0,0-1,1c0,.29.66.88,1,.88a1.38,1.38,0,0,0,.61-.43Zm1.48-3c-.47-.4-.78-.4-1.17,0s-.4,1,.13,1.42.59.38,1.14,0,.54-.91-.1-1.44Zm1.73-.27c.51-.43.44-.78-.11-1.33s-1-.59-1.45,0a1.09,1.09,0,0,0-.18.53A2.66,2.66,0,0,0,80.72,111a1,1,0,0,0,.53-.31Zm1.67-1.65c.44-.45.38-.77-.24-1.41s-.88-.58-1.34-.15-.37.9.16,1.44,1,.62,1.42.12Zm1.9-1.92c.32-.33.23-.31,0-.67A4.37,4.37,0,0,0,83.18,105c-.36,0-.68.58-.68,1.15s.28.8,1,1.36c.48.38.34.41.7.2a2.35,2.35,0,0,0,.62-.55Zm1.5-1.37c.68-.78.55-.92-1.08-2.65-.56-.58-.67-.65-1.07-.62s-.41.13-.6.53c-.36.73-.09,1.1.94,2.19s1.22,1.23,1.81.55ZM88,104a1.16,1.16,0,0,0,.44-.67,6.54,6.54,0,0,0-1.8-2c-.34-.2-.68-.09-1.12.29-.26.22-.26.27-.19.52a7.47,7.47,0,0,0,2.08,2.2A1.07,1.07,0,0,0,88,104Zm1.67-1.62a1.75,1.75,0,0,0,.5-.79,7.14,7.14,0,0,0-1.87-2.21c-.37-.19-.59-.11-1,.41s-.27.88.58,1.85,1.06,1.21,1.22,1.21a2.53,2.53,0,0,0,.53-.47Zm1.57-1.69c.36-.22.83-.69.64-1.06a28.48,28.48,0,0,0-3-3.18c-.53-.28-.52.12-.52,1.43v.69l1.16,1.12c1.68,1.65,1.3,1.25,1.69,1Zm2-1.87a1.39,1.39,0,0,0,.38-.66c-1-1.27-4.06-5.26-4.61-5.12,0,0-.07,0-.11.14a4.94,4.94,0,0,0-.1,1.9c1,.91,3.2,3.9,3.71,4.09.31.11.44-.06.73-.35Zm1.62-1.7a1.1,1.1,0,0,0,.35-.55,3.81,3.81,0,0,0-.7-1L93,93.67c-2.85-3.55-3-3.81-3.49-3.45a1.6,1.6,0,0,0-.21,1.38,51,51,0,0,0,4.36,5.26c.64.61.76.68,1.24.22Zm1.64-1.57a1.37,1.37,0,0,0,.44-.68A5.58,5.58,0,0,0,96,93.55l-1.78-2.14C93,89.84,93,89.78,92,89.68c-1.45-.14-1.25.17.39,2.08.39.46,1.14,1.38,1.66,2,1.21,1.53,1.75,2.09,2,2.09s.24-.14.49-.37Zm1.67-1.64c.74-.62.59-.82-1.82-3.31-.78-.82-.84-1-1.46-1s-.81.13-.81.43a38.91,38.91,0,0,0,3.36,4c.31.13.35.15.73-.17ZM100,92.08a1.35,1.35,0,0,0,.36-.61A4.55,4.55,0,0,0,99,89.78a2,2,0,0,0-.91-.54,2.11,2.11,0,0,0-1.24.43,9.28,9.28,0,0,0,1.77,2.24c.61.64.84.7,1.34.17Zm1.54-1.53c.39-.39.39-.74,0-1.26s-.38-.42-1-.42c-1.12,0-1.15.29-.28,1.22.64.68.82.9,1.26.46Zm1.65-1.62c.44-.56.06-.86-.65-.54a.7.7,0,0,0-.3.38c-.22.57.53.69,1,.16ZM75.62,93.61c-1.6,1-4.27,2.91-6.09,4.18a5.77,5.77,0,0,0,0,1.51c1-.7,4.34-2.81,5.85-4,.08-.44.19-1.23.24-1.68ZM78.54,89c-.06-.28-.24-.1-.71.3-.62.52-5.85,4.4-7.24,5.37a6.16,6.16,0,0,0-1.08.82,2.8,2.8,0,0,0,.09,1.44c1.14-.86,6.52-4.47,6.6-4.6.56-.89,1.8-2.44,2.34-3.33Zm-.6,11.69s-6.42,7.72-8.49,11.56c0,0,0,4.4-.08,6.94l-.34.09s0-6.79-.12-14.15c-.22-18.42-.4-22.89-.4-22.89L66.42,80.7,66.34,80s9.25,6.48,13.77,7.51c-3.3,5.17-6.35,7.17-2.17,13.19Zm-7.62,9.23c.13-.31,0-.29-.23-.28a.36.36,0,0,0-.31.38c0,.23,0,.28.18.25a.68.68,0,0,0,.36-.35Zm1.54-2.29c.93-1.14,1.69-1.87,1.82-2.71a18.94,18.94,0,0,0-4.05,2.74c0,1.26-.25,1.42.79.86.45-.25.82-.56,1.44-.89Zm.29-2.81c1-.83,4.62-2.78,5-3.74a.7.7,0,0,0-.43-.81c.06,0-5.19,3.2-7.11,4.85a.92.92,0,0,0,0,.87c.21.56.63.11,2.52-1.17ZM71,103.29c1.08-.72,3.63-2.49,4.26-2.93,1.09-.75,1.3-1,.91-1.56a.53.53,0,0,0-.72-.2c-3.13,2.18-3.4,2.55-5.77,4.08a1.41,1.41,0,0,0,.12,1.29c.18,0,.49-.21,1.2-.68Zm0-2.36a47.59,47.59,0,0,0,4.49-3.33c.12-.24.15-1.22,0-1.33-1.06.8-3.9,2.54-5.83,4.11,0,.32-.11,1.05,0,1.21.39.16.51,0,1.33-.66Zm-.34-7.43c2.08-1.54,4-2.88,6.15-4.32,1.83-1.22,2.14-1.49,1.44-1.85a1.62,1.62,0,0,0-1-.22c-2.43,2-5.14,3.84-7.71,5.75a8,8,0,0,0,0,1.09c0,.39.49.06,1.18-.45Zm-.28-2.2c.17-.15,1.26-.87,2.41-1.71,3.1-2.24,3.47-2.46,3.47-2.7,0-.65-.89-.79-1.71-.12C73,88,69.41,90.2,69.41,90.52a2.59,2.59,0,0,0,0,1.12c.17.26.43,0,.86-.34Zm.9-3c3.15-2.2,3-2.1,3-2.49s-.31-.2-.79-.23-.47.1-1.33.75c-1.85,1.39-2.52,1.77-2.71,2.18-.06.13-.11.64,0,.76s.47,0,1.79-1Zm.2-2.19a10.11,10.11,0,0,0,1.16-1c.09-.23-.38-.65-.73-.65s-.68.19-1.62,1-1,.56-.94,1a4.21,4.21,0,0,0,.12.85c.21.24.63,0,2-1.18Zm-1.27-1.42c.66-.56.81-.68.32-1.17s-1-.55-1.23-.28a6.57,6.57,0,0,0,0,1.6c0,.37.47.23.93-.15ZM84.43,72.53a3.71,3.71,0,0,1,2-1.28,5.62,5.62,0,0,1,3.49.37c.84.42,1.74,1.43.4.81a8.13,8.13,0,0,0-4.87-.11c-.71.36-1,.45-1,.21Zm-.86-4.25a8,8,0,0,1,1.89.38,8.61,8.61,0,0,0,4.92-.34c.42-.12.63.17.37.39a6.77,6.77,0,0,1-3.12,1.09c-2.24.21-4.66-.94-4.06-1.52ZM72.55,65c1-.47,2.13-7,1.76-8.18-1.18,1.79-2.49,2.6-4.37,2.28-3.06-.5-3.17-4.28-.81-4.66,1-.15,2.11.47,2.3.33,1-.48,1.8-3.87,2-5s.44-4.06.48-5c.09-2,0-5,0-5L59,21.9l-32.69-.14s-.11,25,0,37.81l9.26,8.89.11,14.36C46,78.3,56.05,73.56,65.86,68.44c-1.14-1.36-1.11-4.78,1-6.08A3.65,3.65,0,0,1,72.55,65Zm8.2,3c.07-.81.67-1.48.71-2.3,0-.19.15-.4.64-.14s.83.1,1.55-.23a2.56,2.56,0,0,1,2.62-.18,1.16,1.16,0,0,0,1.42,0,2.74,2.74,0,0,1,2.39-.46c1.07.37,1.44.57,2,.28.31-.15.69-.7.76-.66.43.65.35,1.67.62,2.25.5,1,.31,1.68-.28,1.2-1.22-1-2.18-1-3.94-.6a6.34,6.34,0,0,1-2.69.32c-3.54-.42-3.78-.32-4.49.16s-1.24.52-1.36.33Zm9.5-6.42c-1-.25-2.19-1.18-3-.93a1.2,1.2,0,0,1-1.1-1.83c.92-.89,2.34,0,2.89.42,1.2.91,1.37,1,1.85,1,2,0,1.61-1.89.65-2.57-.57-.6-.62-1-.5-1.13s.76,0,1.38.62c1.19,1.12,1.22,3.34-.24,4a2.34,2.34,0,0,1-1.89.42Zm4.15-6.44a23.36,23.36,0,0,1-3-2.71c-.73-.91-1-1.49-.93-2.21.07-.57.15-.91-.21-1.1a1.79,1.79,0,0,1-.68-1.5c0-.12.46-.05.72.28.33.06.27-.14.63-.38,3.78-2.54,6.82-2.05,10.41-.31,1,.5,3.76,2.56,2.3,1.89-.09,0-1-.45-2-.93-3.12-1.5-6.59-2.4-9.41-.48-.48.34-.78.6-.4.6,1.59-.31,3.16-1,4.79-.87,2.43,0,3.9,1.23,5.72,2.06,2,.89,2.36,1.19,1.64,1.92-.2.22-.36.22-1.32.14s-1.11,0-1.69.33a8.75,8.75,0,0,1-5.23,1.35c-2.06-.17-2.28-.34-2.33,0s.42.52,1,1.08a12.84,12.84,0,0,1,1.14,1.14c.17.3-.61.15-1.18-.26Zm-.58-3.3a4.33,4.33,0,0,0-.73-1.57c-.25-.26-.46-.16-1,.23s-.46.52-.08.86c.81.73,1.83.91,1.82.48Zm3.11.15c.83-.4,1.67-1.83,1.29-2.29-.23-.28-.43,0-.86.76a4.24,4.24,0,0,1-.73,1c-.68.48-1.57,0-1.95-1-.23-.63-.47-1-.74-.8-.47.44.07,2,1,2.41a2.54,2.54,0,0,0,2,0Zm2.58-.23c.84-.26,1.25-.64,1.17-1s-.66-.66-1.07-.66c-.19,0-.55,0-.68.16a8,8,0,0,0-.76,1.67c.1.25.38.13,1.34-.16Zm2.91-6.29c-4.2-1.6-7.52-2.25-11.52-.54-1.28.55-2,.61-2.08.16s.87-1.52,1.87-2a10.65,10.65,0,0,1,9-.05,22.68,22.68,0,0,1,4,2.8c0,.21-.26,0-1.21-.33Zm49.21,47.11c1-.53,1.46-1.56.85-2.18a.85.85,0,0,0-.64-.18,20.21,20.21,0,0,0-3.49,1c-.33.18-.21.49.11.78a1.17,1.17,0,0,1,.27.73c0,.4,0,.76.22.69a11.58,11.58,0,0,0,2.68-.82Zm-3.74,1a1.21,1.21,0,0,0-.58-1.67c-.39-.21-.7-.1-1,.35-.74,1.36,1.11,1.94,1.6,1.32Zm-3.75.63c.16-1.73.08-6.86.08-6.86a3.66,3.66,0,0,1-1.52.81,10.47,10.47,0,0,1,.79-1.75,12.21,12.21,0,0,0,.24-2.94c-.06-.87-.66-.89,0-2.44a3.19,3.19,0,0,0,0-2.6,1.19,1.19,0,0,1,.23-1.38c.44-.57.26-.85.26-2,0-1.64,0-1.91-.5-.58-.75,1.1-1.09.89-2.23.76-1.09,2.46-2.37,5-2.43,7.16,0,1.33,0,1.53.79,4.32a7.79,7.79,0,0,1,.43,2.65,7.1,7.1,0,0,0,.29,2.29c.32,1.18,1.64,3.13,3.65,2.61ZM106,204.8v-2.47s-4,1.22-6,.47c-2.06-.56-2.06-.66-2-.44.07.4,1.61,1.21,3,1.54a10.13,10.13,0,0,0,4-.29c.55-.16.61,0,.39.16-2.43,1.89-5.5,1-7.43-.55-1-1-1.73-1-1.17.34,2.66,5.38,9.24,2.21,9.18,1.24Zm-2.67-3.67.9,0a5.43,5.43,0,0,0-.74-2,2.13,2.13,0,0,0-3.16.13,5.83,5.83,0,0,0-.69,1.9l.72,0c.27-.7,1.41-3.95,3,0Zm-3.6-2.38a4.05,4.05,0,0,0-2.18.73c-.2.22-.2.25,0,.57.52.69,1.32,1,1.38.76a8.41,8.41,0,0,0,.76-2.06Zm5.94,1.75a1.65,1.65,0,0,0-1-1.6c-.31-.07-.61-.13-.52.2a9.42,9.42,0,0,0,.51,1.42c.14.31.23.46.54.34s.43-.15.51-.36Zm38.6-32.78v-4.19a55.33,55.33,0,0,0-5.72,7.09ZM79.64,52.3c.9-.39,1.55-1.56,1.33-2.15-.14-.37-.51-.07-.89.47-.6.88-.76,1-1.29,1s-.79-.14-1.18-.91-.46-.83-.71-.52c-.12.15-.1.35,0,.88a1.8,1.8,0,0,0,2.69,1.26Zm2.45-.44c1-.34,1.19-.45,1.14-.78s-.84-.81-1.29-.72a4.37,4.37,0,0,0-1.11,1.76c.12.18.45,0,1.26-.26Zm-5.74-.58a1.72,1.72,0,0,0-.16-.71.58.58,0,0,0-1,.38c0,.37.53.79,1,.79s.25.08.19-.46ZM82,48.78c1.41.53,2.13.59,1.36-.13-1.06-1.17-5.9-2.51-8.5-.6-.19.27-.15,1.28,0,1.22A7.77,7.77,0,0,1,82,48.78Zm-4.84-4c-1.19.39-2.3,1-2.45,1.59-.23.93.19.94,1.75.45a7.51,7.51,0,0,1,5.94.63c1.29.94,1.68.63,1.46-.16-.72-2.62-4.78-3.09-6.7-2.51Z"/><path class="cls-3" d="M153.38,27.92l-8.74,8.66.13,10.24c.87,1.61-13.48-4.59-15.75-6.47.26,6.85,9.6,14.65,15.68,17.5l.16,21.73s2.44-1,3.79-1.42c1-.34,3.27-.31,4-.67,1.2-14.9,2.21-34.28.71-49.57ZM104.79,38.64c-.85,0-1.36.25-1.35.79-.26,0,3.23,12.8,4.81,18.16-3.08,3.11-6.3,8.54-1.7,13.55a22.28,22.28,0,0,0,4.51,3c.76.74-9.38,7.28-18.4,7.29-2.9-6.35-6.94-2.84-9.17-.63-1.74-.15-8.24-4-11.56-6.24a6.7,6.7,0,0,1,0-1.12c.23,1.51,13,4.77,13.61,3.26-.37,0-5.74-3.63-7.29-7.22a69.32,69.32,0,0,1-3.54-9.59c-.72,2-.47,4.9-2.44,5.92-.59-6.68-10.14-3.28-5.39,3.26-2.66.78-5,2.16-7.54,3.31A44.41,44.41,0,0,0,80.08,87.55c-1,2.21-7.17,7.2-2.13,13.07.22.18-4.82,5.68-7.3,10-1.87,3.24-1.31,5.73-1.09,5.81A103.62,103.62,0,0,0,80.23,102c-.06.91,8.11.42,8-6.93a21,21,0,0,1,1.31-6c12.46.59,23.18-3.86,32.24-13.18,0,0,1.84.53,3,.71a3.69,3.69,0,0,0,1.55-.33,4.59,4.59,0,0,0,2-.53,26.27,26.27,0,0,0,3-2.31c1.35-1.1,2.7-2.16,3.18-3.29s.12-2.77-.34-4.11c-2.91-3.43-4.84.25-6.13-.23-4.47-6.08-8.2-23.28-8.81-23.41-2.5-.51-11-3.77-14.38-3.72ZM74.09,50.38c-.34,0-1.54,5.37-2.6,5.33-4.5-2.9-4.59,3.1-.72,2.83C74,58.31,75.86,53,74.1,50.39ZM26,60.56c.15,32.51.74,65,1.5,97.52,2.94-.72,5.07-1.28,8,0,.27-9.24-.55-32.56-.35-55.14,11-8.54,18.7-18,24.12-30.28L42.46,80.5S37,88.35,35.23,88.85c-.25-1.11-.53-14.41-.31-20.11ZM63.27,80.67,60,85.43s.08,16.38.27,24.27c.13,1.57,1.56,3,.42,4.42.7,0,3.74,21.24.85,29.85-.52,1.55,0,2.63.78,3l6.28,6.37a9.94,9.94,0,0,0,5.57,0c5.94-5.43,14.38-15,14.38-15L66.2,117.27c-1.91-5.12-2.93-36.6-2.93-36.6ZM144.62,149c-16.16,12.09-23.11,29.28-23.21,29.16,0,.2-.09.91.93.35,4.18-2.26,14.93-7.15,14.93-7.15,2.56-3.07,4.52-6,7.45-8.95,0,0,.32,13.32.06,20,2.63,2,8.9,8.09,8.9,8.09s1.73-94.66-2-97.07c-3.62.71-5.44,2-6.79-2.17-1,19.27,0,38.61-.26,57.73Zm-35.1-53.27c-3.9,3.19-17.3,16.33-17.27,16.47,3.55,6,17.59,17.9,24.32,24.58l1,34c1-1.33,1.7-2.58,2.78-3.91,0,0-.18-17.22-.59-25.29-.13-2.39-.67-4.27-.5-4.49-1.9-9.8-2.68-20.62,0-31.13-6.36-5.47-8.38-9.11-9.72-10.23Zm1,38.84,0,0c-3.28,4.68-9.58,14.86-10,14.83-.13-.3-6.5,0-7.71,4-1,3-1.08,5.73-1.82,8.81-12.78-.42-22.13,3.62-32,12.7a24.84,24.84,0,0,0-7,1A11.82,11.82,0,0,0,48.89,178c-2.5,1.81-3.17,3.36-3,5.25.22,3.43,6.28,3.91,6.59,1.5.31,0,5.93,12.84,6.48,15,1.32,3.54,2.75,10.16,2.91,10.17,2.27.15,15,3.71,15,2.42,1.2-.52-4.42-18.9-4.42-18.9,9.82-8.23-1-17-3.55-16.71a35.89,35.89,0,0,1,19.08-7c1.1,3.93,6.18,5.95,8.73.72,0,0,11,3.94,10.95,5.24-4.53-.68-8.25-1-12.78-1.47,8.69,4.71,9,10.93,10.72,17.11.25-1.09,2.53-5.88,2.53-5.88,3,6.53,8.56,2,6.24-3.27l7-3.23c.8-.41-10.43-13-20.63-14.83.51-.94.71-1.82,1.24-2.59,2.57-2.51,4.55-6.19.64-10.59,2.58-3.61,8.57-12.32,8.19-12.48,0,0,.11-4.07-.19-4ZM26.63,174.68s-.14,30.22-.07,45.22a27.85,27.85,0,0,0-.41,3.93l9.3-8.73.27-11.28c2.43-.59,17.56,7.09,16.35,7.05,1.15-.48-7-15.85-16.48-17.56-.17-8.71-.26-18.56-.51-21.21a70,70,0,0,0-8.45,2.58Zm82.53,18.17c-2.6.78-3.69,6.25-2.84,8.91.15.49.05.6.47.12,1-1.49.69-4.46,2.48-6,4.74,1.43,4.27-4.72-.11-3Z"/><path class="cls-4" d="M158.31,241.54v-2.79h2.51v-15a36.76,36.76,0,0,1,.18-4.07c1.93-6.58,12.63-6.12,13.16-.25a33.07,33.07,0,0,1,.16,4.32h-2.83s0-1.06-.06-1.84c.37-6.24-7.2-4.94-7.58-.75a19.36,19.36,0,0,0-.17,2.59v15h2.92v2.79Zm-109.37-13L61.25,209.9c14.69,4.91,29.68,5,44.84,2.58l13.55,16H114.1l-8.53-12.17c-3.09.71-6.3,1-9.5,1.46l4,10.71H95.72L92.59,217.9a100.93,100.93,0,0,1-17.47-1l-1.84,11.56H68.86l3-11.94A87,87,0,0,1,62,214.41l-9,14.08ZM63,217.56l5.11,1.38-2.5,9.55H56.3Zm13.2,10.93,1.44-8.44a66.74,66.74,0,0,0,12.63.77l2.22,7.67Zm24.18-7.82,4-1.07,6,8.89h-7.34ZM132.3,227c-4.25-8.56-10.07-16-16.39-23.1a121.22,121.22,0,0,0,16.38-22.52,109.34,109.34,0,0,0,17,22.85,102.15,102.15,0,0,0-17,22.77Zm34.33-15.42a68.49,68.49,0,0,0-7.53-10.05,72.5,72.5,0,0,0,7.32-9.88,74.57,74.57,0,0,0,7.69,10,99.31,99.31,0,0,0-7.48,9.94Zm-125-44.65c19.65-22.86,17-46.86,6.18-66.21l2.31-2.38c12.55,20.63,15.23,50-7.92,72.71-.24-1.37-.57-4.12-.57-4.12ZM120,141.3c2.82,4.81,4.55,9.68,7.54,14.51l-7.08,9.57ZM35.43,156.44c-.18-15.08,0-45.64,0-45.64l6.63-5.08c7.93,9.64,12.26,35-2,51.93-1-.76-3.87-.45-4.7-1.21Zm94.16-3c-18.18-30.68-8.93-53.05,8.6-72.92.05,1.53.16,3.06.3,4.58-15.05,17.24-21.07,42.72-6.31,65.78Zm-32.93-4.46,8.28-11.28s1.57-4.49,2.89-5.82l1.52-1.34c.51.48,1.47,1.1,1.44,1.66s-.81,3.34-.81,3.34l-9.69,14.16s-2.94-.51-3.63-.72Zm44.06-54.78c.26-.3,3.55,1.07,3.55,1.07l.21,46.39-6.58,4.23c-1.91,1-16.84-29.47,2.82-51.69ZM71.37,113.69c3-4.08,6.15-7.61,9.06-11.36a13.56,13.56,0,0,0,2.72.3c.21.11-.67,3.11-2.81,5.18S73,116,72.88,119.08c0,.94-2.15,2-2.15,2l-1.5-1.57a19.57,19.57,0,0,1,2.14-5.83ZM52.67,95.9l6.6-8.56.66,22.74ZM30.13,45.48A166.61,166.61,0,0,0,47.2,23.19C52,31.06,57.3,39.11,63.94,45.64A165.24,165.24,0,0,0,47.16,68.11c-4.8-7.68-10.17-15.63-17-22.63Zm-25.06,2a44.59,44.59,0,0,0,7.5-9.58c2.32,3.52,4.51,7.15,7.61,10a61,61,0,0,0-7.68,9.78A63.51,63.51,0,0,0,5.07,47.48Zm69.19-9.25L61.2,21.9h6.32L75.3,33.45l9.32-1.06L81.34,21.9H85.2l2.73,10.32c5.71.14,11.3.58,16.72,1.12l2.78-11.44h3.94l-3.57,12,10.52,2.76,9.37-14.74h4.66l-13.28,19c-17.37-5.22-31.32-4.62-44.81-2.7ZM4.42,29.89a12.89,12.89,0,0,1,0-4.25H7.25s0,1,0,1.92c0,5.59,6.68,4.87,7.67,1.35a13.8,13.8,0,0,0,.3-3.23V10.8H12.39V7.92h8.49V10.8H18.23V25.64a1.08,1.08,0,0,0,0,.32,10.72,10.72,0,0,1-.4,4c-2.68,6.68-12.49,5.17-13.41-.11Zm107.5,1.51,3-9.51h8.9L117,32.75ZM90.38,29.08,88.49,21.9h15.7l-2,8a69.84,69.84,0,0,0-11.78-.85ZM71.56,21.9h6.26l2.45,7.43-3.62.41Z"/><path d="M59.15,20.85,74.28,38.94c3.15-1.12,19-2.94,28.56-.76,1.66,6.5,3.42,13.07,5.27,19,0,0-.59.7-1,1.14-6.09,7-1.78,13.78,3.79,16-1,2.09-11.67,7.28-18.17,6.66,0-.06-2-4.77-6.07-3.17-1.38.54-2,1.59-3,2.61-3.88-1.17-9-3.73-11.68-6.53,5,2.48,9.9,3.81,14.83,3.16a6.78,6.78,0,0,0-1.3-.83,21.44,21.44,0,0,1-2.24-1.34,15.41,15.41,0,0,1-5.38-6.59c-1.81-3.23-2.1-6.7-3.09-9.76-.52,1.57-.75,5.71-2.12,6.57-.35.24-.42.17-.68-.71-1-3.19-4.87-2.78-6.13-.52a5.17,5.17,0,0,0,.26,4.62l-2.32,1.29v.38l-1.43.68-.29-.2c-6.64,3.2-13.14,6.54-19.91,9.61,0,0-3.59,6-6.88,8.33l-.13-20.25-9.74-8.79,0,4.81.69.74c.14,33.9,0,67.25,0,98l0,28.33-.59,0,0,3.3.67.15-.1,4.67-.34,0-.06,3,.54.08,0,16.67-.52.68v4.76l10.17-9.66.23-11c8,1.51,16.4,7.28,16.4,7.28-1.41-9.21-11.16-16.79-16.77-18.31l0-21.81a35.83,35.83,0,0,1-6.22,2c-1,.14-1.42,0-1.9-.75-.36-.54-.36-1,0-2.14a1.45,1.45,0,0,0-.05-1.17,3.56,3.56,0,0,1,0-2.36,2.23,2.23,0,0,0-.14-1.87c-.3-.75-.32-.89-.19-1.32.34-1.14.36-1.33.18-1.84a2.89,2.89,0,0,1,0-2.36c1.5-2.52,4.86-1.9,6.68-1.81.93,1,1.48,1.61,1.57.12.64-1.78,3.15,0,4.33.8,10-13.38,14.9-31.48,2.38-54.14l-7,5.57,0-7C44.57,97.09,55,83.6,59.46,73c1.5,1.76,3.22,3.48,4.84,5.25L63.24,80l-.31-.18A129,129,0,0,1,52.16,95.5a158,158,0,0,1,7.62,16.18l.57-.26.51,1.64-1,.3c3.4,11.18,3.51,21.53,1,31.07l.6,2.54s3.6,3.49,4.58,4.52l5.37,5.2,3.29-3.22-.19-.27,28.84-28.64,1.8,1.72c-17.66,17.79-48.35,48.51-48.35,48.51l-1.06.15a11.19,11.19,0,0,1-2.07.09,2.61,2.61,0,0,0-1.81.31,7.29,7.29,0,0,0-2.48,2.13,2.52,2.52,0,0,1-1.2.9c-6,3.59-.58,10.81,4.54,7a94.94,94.94,0,0,1,8.67,23.76,3.23,3.23,0,0,1-.67.29l-13.48,20h5.18l.54-.92H49l12.4-17.91a100.62,100.62,0,0,0,44.95,2.35l12.79,15.56H114.1l.72.92,6.57.11-15-17.74c-5.39,1.43-19.59,2.59-28.5,1.08-1.36-6.61-3.61-13.81-5.27-19.53,8.5-6.65,2.12-15.43-3.13-16.66-.25-.48,10.65-7.1,18.4-6.64,2.23,5.33,7.09,4.54,8.84.57,3.22,1.19,7.39,2.37,10.71,5A72.74,72.74,0,0,0,93.65,174c8,3.11,10.27,9.66,11.26,15.84a13.06,13.06,0,0,0,.72,2.35,22.12,22.12,0,0,1,2.58-6.45c.62,2.19,2.9,3.88,5.19,2.58,1.33-1,1.8-2.61,1.38-4.9-.12-.64-.18-1-.18-1l1.78-1,.23.2s2-.84,2.92-1.31c.16-.07-.17-.38-.17-.38l18-8.49a69.63,69.63,0,0,1,7.18-8.76c.08,7.54.06,10.64.06,19.59l1,1c.9.89,2.87,2.72,7.3,6.79a15.41,15.41,0,0,0,1.7,1.37L154.5,59.62h-.15V57.08h.21v-6.6l-.19-.11V48.28l.25-.18,0-17.81-.29-.06V26L144.29,36.58l.08,10c-4.48-.58-10-3.45-13.84-5.76-1.24-.75-1.92-1-1.89-.52.54,6,9.17,15.08,15.81,17.47V80.22S146,79.44,147,79l.15.39,2.13-.88.18-.46,1.85-.24c0,.38.08.33.08.33,1.66.46,2.39,1.59,1.72,2.86-.23.42-.27,1-.08,1.18.71,1.13.9,2.12,0,3.19a1.12,1.12,0,0,0,0,1.43c.89,1.81.39,1.69-.29,2.76-.15.81.74,1.34.44,2.11a3.05,3.05,0,0,1-1,1.36c-.42.31-.77-.26-.77-.26a14.06,14.06,0,0,1-2.3.75c-1,.31-2.58.86-3.14-.41a5.48,5.48,0,0,1-.09-2.22l-1.39-.15-.05,3.7c-.79.43-3.95-1.18-3.95-1.18-13.55,17.56-13.17,37-3.12,53.35.1.26,7.08-4.77,7.08-4.77s0,4.12,0,6.36a92.34,92.34,0,0,0-23.58,29.4l-3.8-4.5a2.72,2.72,0,0,0,.67-2.19l2.75-4.11,0-1.07,7.17-10c.11.6-7.4-13.44-8.4-18l.5-.14c-3.37-12.75-2.68-21.68-.25-32.07l-.69-.68-9.46-9.44c-.77.71-1.54,1.42-2.3,2.14-.11.1-.69,0-.81.15-5,4.67-9.76,9.35-14.5,14.22-.12.12.08.64,0,.77-4.74,4.89-9.66,9.52-14.46,14.4l-1.75-1.67c17-17,49-48.57,49-48.57a.52.52,0,0,1,.36-.26,10.06,10.06,0,0,0,2.57-.49c1.06-.24,1.22-.32,1.67-.78a9.64,9.64,0,0,1,1-.87c.46-.34,1.53-1.23,3.18-2.67A4.53,4.53,0,0,0,135,68.47a4,4,0,0,0-3.13-4,5.11,5.11,0,0,0-2.86.76c-.55.37-.81.53-1,.37-3.46-7-6.84-15.89-8.27-23.19-.08-.46,0-.59.34-1.17l1.13-1.77c3.1-4.49,6.7-9.93,10.07-14.85l1.65-2.39.82-1.35h-5.35l-.66,1h4.41L119,40.75C94.86,32.86,75.08,37.86,74.61,38l-13-16.07h6l-.72-1Zm11.75,0,.67,1h6.25l-.35-1Zm10.44,1H85.2l-.22-1H81Zm6.91-1,.24,1h15.69l.28-1Zm19.18,1h3.94l.29-1h-4Zm7.78-1-.33,1h8.91l.67-1Zm38.13,7.28.14,2.92-6.43,6.77v9.46l-1.87-.44-.08-9.77Zm-1.8,6.22c.05,2.9-.42,5.68.35,8.63a25.88,25.88,0,0,1,1.24,4.87L151,47.8c-.27-.86-.37-1.82-.69-2.89a16.76,16.76,0,0,1-.84-8.19Zm-46.27,4.73c.07.14.33,1.36.56,2.5A110.94,110.94,0,0,0,110,57.14c1.93,5.93,4.79,13.39,7.58,16.85.37.43.55.92.42,1.14s-1.37-.15-2.13-.95a12.32,12.32,0,0,1-1.35-2.08c-1-1.81-2.28-4.46-2.41-4.88,0-.17-.57-1.48-1.14-2.91-1-2.5-1.6-4.21-2.45-7-.66-2.21-1.28-4.51-2-6.84a83.84,83.84,0,0,1-2.6-10.32,5.31,5.31,0,0,1-.21-1.23,1.56,1.56,0,0,1,1.62.15Zm.68.24c-.12-.1,1.1-.12,1.49.2a6.23,6.23,0,0,1,.51,1.79,127.41,127.41,0,0,0,4.71,17.27A66.38,66.38,0,0,0,118,70.88a25.56,25.56,0,0,0,2.69,3.75c.64.75.69.86.52,1.07s-.58.22-1.29-.12a5.7,5.7,0,0,1-2.05-2l-.79-1.11a80,80,0,0,1-6.7-15.67A115.14,115.14,0,0,1,106,39.93c0-.2,0-.41,0-.61Zm3.91.8a4.43,4.43,0,0,1,.66,1.92c1.29,5.31,2.36,10.06,3.88,14.42.82,2.35,1.54,4.7,2.42,6.91a37.66,37.66,0,0,0,5.25,9.42,12.64,12.64,0,0,0,3,2.61c.74.44.85.55.8.8s-.78.32-1,.3a6.66,6.66,0,0,1-3.38-1.77c-3.56-3.85-6.11-10.15-8-15.32-3.19-8.9-5.76-20-5.27-19.67,0-.26,1.28,0,1.6.38Zm1.53.32a2.19,2.19,0,0,1,.39.06c.66.19.75.28.91,1,1.14,5.08,2.34,9.56,3.69,13.82a78.76,78.76,0,0,0,5,12.72,14.09,14.09,0,0,0,5.84,6.4,12.24,12.24,0,0,1,1.25.67c.06.05,0,.22,0,.36s-.24.26-.78.25a4.65,4.65,0,0,1-2.76-1c-2.8-1.93-5.25-6.3-6.33-8.79a97.52,97.52,0,0,1-3.62-9.6,105.91,105.91,0,0,1-4.08-15.41c0-.3.2-.46.55-.46Zm42,8.31,0,1.8c-7.05.47-14.29-2.51-20.1-5.19,4.38,5.8,9,11,20.1,12l0,1.86c-14.39-.2-24.52-14.77-24-18.4,5.91,3.82,16.6,8.24,24,7.91Zm-39.7-7.63a1.76,1.76,0,0,1,1,.35c1.17,4.38,2,9.25,4,14.14,2.39,6,3.71,11.31,8.14,16.27,1.38,1.41,4.08,1.37,4.08,1.37s-.34.76-.8.89a5,5,0,0,1-2.33,0c-2.56-1.08-4.53-3.82-5.54-5.67-1-1.4-3.26-7.13-5.17-13-2.08-6.36-3.79-13-3.59-14.31a.78.78,0,0,1,.24,0Zm2.37.74a1.64,1.64,0,0,1,.67.19c.29.14.41.23.56.77.1.35.08.9.26,1.79a82.94,82.94,0,0,0,3.74,11.93,73.15,73.15,0,0,0,4.42,9.87A22.07,22.07,0,0,0,128,69.94c1.49,1.48,4,1.55,4.74.08a2.48,2.48,0,0,0-.48-2.84c-.64-.61-2.06-.35-2.1.37,0,.2.35.11.87,0,1.44-.17,1.89,2.38,0,2.8-2.34.54-4-2.62-1.89-4.56,3.5-2.38,6.17.87,5.34,4a4.25,4.25,0,0,1-3.9,2.85c-2.29.07-3.23-.64-5.58-4-2.68-4.31-3.84-8.51-5.74-13.23a57.4,57.4,0,0,1-3.54-13.36.32.32,0,0,1,.33-.19Zm2.22.73a2.31,2.31,0,0,1,.84.24,2.59,2.59,0,0,1,.28.23c3.15,11.49,5.77,18.37,8.45,23.23a3.55,3.55,0,0,1-.23,1.15c-.31.45-.47.34-.88-.38-1.69-3.25-3.29-6.85-4.78-10.55a61.79,61.79,0,0,1-4-13.17c0-.56-.09-.71.29-.75Zm21.25,6.57a.81.81,0,0,1,0,1.62.81.81,0,0,1,0-1.62ZM74.06,49c-.93,1.27-1.7,5.82-2.67,5.88s-2.37-.63-3.2.33c-1,1.18-.4,2.48.86,3.19a4.36,4.36,0,0,0,2.55.14c3.06-1,4.22-6,2.46-9.54Zm68.49,1.19a1.17,1.17,0,1,1-1.16,1.17,1.16,1.16,0,0,1,1.16-1.17Zm-68.43.56a6.66,6.66,0,0,1-1.39,6.82,3.23,3.23,0,0,1-4.06.15,1.54,1.54,0,0,1,1.15-2.65,2.36,2.36,0,0,1,1.57,1c1.06.11,2.28-5.28,2.73-5.37Zm72.49.64a1.32,1.32,0,1,1-1.31,1.31,1.32,1.32,0,0,1,1.31-1.31Zm4.66.93a1.34,1.34,0,1,1-1.34,1.34,1.33,1.33,0,0,1,1.34-1.34Zm-43.33,6.1c.2,0,.34.19.47.57.27.8.27.9-.16,1.43-4.13,5.72-.36,11.56,5.62,12.19.5,0,.75.6,1,1.27,0,.31,0,.31-1.39.33a7.82,7.82,0,0,1-2-.16,10.88,10.88,0,0,1-5.72-4.21c-1.21-2-1.41-4.11-.66-6.89a8.38,8.38,0,0,1,2-3.95c.37-.39.63-.58.83-.58Zm39.13.63.06,19.6-2.08.76.08-20.84Zm4,.76q3.9,9.69.36,17.76l-2.37.34c3.25-7.59,1.87-13,0-18.26ZM26.26,60.9l8.44,8,.3,88.79-1.35-.48-.54-87.33-6.85-6.28Zm82.47.26h0c.23,0,.43.31.62.85a1.25,1.25,0,0,1,0,1.29c-1.16,2.84-.21,5.54,2.65,6.39.68.22.79.33,1.19,1.17.26.55.38.74.28.87s-.52.16-1.59-.08a6.86,6.86,0,0,1-3.87-9.8c.24-.42.46-.66.67-.69ZM74.82,60.8a22.8,22.8,0,0,1,.81,3.86C75.4,66,73.45,68.24,71.73,69c-1.58.61-4,.3-5-.75C63.1,64,69.9,59.74,71.61,64.18c1,2.91-3.15,3.61-3.34,1.37,0-.58.19-.76.73-1.14s.42-.62,0-.62a1.8,1.8,0,0,0-.9,2.94c1.42,1.49,3.18.62,4.39-.47,1.63-1.47,2-3.58,2.32-5.46Zm35.27,3.25c.08,0,1.75,4,2,4.56-.06.4-.49.37-1.24-.15a2.94,2.94,0,0,1-1.3-2.13c-.1-.43-.26-2,.57-2.28ZM76.18,65.73c.37,0,.75,1.35.58,2-.3,1.2-3.44,3.23-5.64,3.64l-1.05.2a1.87,1.87,0,0,1-1.55-.74c-.39-.4-.57-.79-.48-.89s1.09.1,1.94.09c2.41,0,4.26-1.69,5.68-3.75.22-.32.45-.59.52-.59Zm-47.73,1s1.62,1.47,2.48,2.32c-.09,3.91-1.54,8.16-1.54,11.65,0,3,2,5.59,2.21,8.23a14.88,14.88,0,0,1-1.23,6.19,13.9,13.9,0,0,0-1.2,5.57c.1,4.32,3.21,9,2.11,13.33-1,4-2.19,6.34-1.88,8.48.6,4.12,2.79,7.77,2.2,11.19-.54,3.19-2,6.38-1.82,9.25.18,3.33,1.42,6.1,1.77,9.13a21.87,21.87,0,0,1-.33,5.05l-2.28.18c1.26-4.66-.61-8.88-1.33-13.37-.61-3.81,1.1-6.85,1.61-10.11a12.13,12.13,0,0,0-1-6.53c-2-4.75-1.27-7.86.16-12,1.76-4.41-.67-7.91-1.27-12.13a18,18,0,0,1,1.3-9.46c1-3.12,1.31-4.93-.21-7.92a10.09,10.09,0,0,1-1.22-5.5c.5-4.94,1.83-7.71,1.51-13.55Zm48.82,2c.36,0,.53.25.53.76,0,.92-1.37,2.09-3.81,3.23-1.26.59-2,.68-2.72.33s-.66-.61.09-.83a11.35,11.35,0,0,0,4.79-2.69,3.9,3.9,0,0,1,1.12-.8Zm-11,.64c6.27,6.71,12.42,10.16,17.12,11.78l-.74,1.75C76.48,80.48,70.17,77.15,64.84,70Zm12.08,1.09a2.17,2.17,0,0,1,.81,1,2.5,2.5,0,0,1-.52.89,4.8,4.8,0,0,1-1.82,1.38c-1.4.77-2.25,1-2.86.63s-.4-.59,1.11-1.47a17.49,17.49,0,0,0,2.32-1.65,8.65,8.65,0,0,1,1-.81Zm-16.61,1A38.23,38.23,0,0,0,81.27,85.61l-1.22,1.66c-7.11-2.45-14-6.88-20.4-14.68Zm17.94.86c.26,0,.84.66.84.95a1.12,1.12,0,0,1-.25.57A12.3,12.3,0,0,1,78,75.56a1.33,1.33,0,0,1-1.36,0c-.62-.31-.51-.57.5-1.22A13,13,0,0,0,78.75,73a3.61,3.61,0,0,1,.93-.73ZM59,72.8C58.87,73,51.46,90,35.75,102l-.08-2.82c8.71-6.91,15-16.36,19.8-24.61ZM81.18,74c.23,0,.4.16.57.48s0,.71-.9,1.38a1.62,1.62,0,0,1-1.21.48c-1.17,0-1.14-.3.14-1.45.67-.59,1.09-.88,1.4-.89Zm30.33.84,3.28.25c.89.62-12.8,9.57-22.29,8.77l.25-2.15c8.34.24,19-6.48,18.76-6.87Zm-28.09.84c.76.42,1.69.92,1.46,1.09a6.85,6.85,0,0,1-3.08-.2c-.39-.21-.36-.32.16-.91s.76-.37,1.46,0Zm-29.19-.53c-5.2,9.15-11.37,17.51-18.53,23l-.09-4.84c6.8-5.25,12-14.82,12-14.86Zm65,.58,1.59.93C110.92,85.84,100.23,89.79,90,88.8l.83-1.86c16.67,1.32,27.74-11,28.44-11.19Zm2.41.32s.53-.06.47.05a77.13,77.13,0,0,1-10.75,8.58c-14,14.36-26,25.71-38.16,38.51l-2-2L73,119.3c0-3.69,4.52-7.82,7.19-11,1.12-1.26,3.22-4.5,3-5.86a3.06,3.06,0,0,1-.09-.43c4.24-.84,5.25-4.28,5.34-7.31a19.8,19.8,0,0,1,1.15-5.55c19.17,1.54,31.52-12.57,32.05-13.07ZM88.23,78.2a3.86,3.86,0,0,1,3.82,4.15c0,1-.38,1.8-1.76,4.49-1.34,2.31-1.52,3.71-2,6.37L86.88,92l-2.47,2.24,0-3.26s.86-1.08,2.24-2.64c1.75-1.94,3.34-4.45,3.26-5.85a2,2,0,0,0-3-1.64c-1.32.93-1.93,2.6-2.71,7.59-.14.89-.27,1.92-.34,2.16A13.15,13.15,0,0,1,81.74,93a29,29,0,0,1-.92-3.67l-1.93.32A25.56,25.56,0,0,0,84,81.24c1-1.89,2.35-3,4.24-3Zm-42,.77s-3.85,8-10.59,13.18l0-3.13a32.93,32.93,0,0,0,6.9-8.27Zm92.49.21c-13.34,13.81-30.75,39.24-9.14,75l2.86-3.29c-17.4-32.32-5.08-49.07,6.38-65.87ZM66.6,80.31c3.91,2.78,8,5.54,13.26,7.29-.29.94-7.53,7-2.33,12.68.22.29-.34,1-1.19,2-2.48,3.39-5,5.81-7,9.64l-.08,7.18-2.08-1.84Zm71.62.67.09,4.09c-19.82,24.09-17.59,45.78-6.38,65.76L129.78,153c-18.37-31.6-6.91-55.43,8.44-72ZM89.32,83.4c-.87,2.31-4.7,6.26-4.7,6.26s.51-3.85.83-5.07a7.53,7.53,0,0,1,1.34-2.77c1.54-1.7,3.08.22,2.53,1.58ZM63,81.23l.37,32.28-2.79-2.81L60.2,86Zm-3.77,6.32.56,21.91a133.15,133.15,0,0,0-6.77-13.68l6.21-8.23Zm22,6.86a12.48,12.48,0,0,0,1.09-1.12c1.44-1.47,1.57-1.48,1.44.49,0,.76,0,1.73,0,1.73.85-.49,2.84-2.85,3.4-2.42a3.57,3.57,0,0,1,.8,2.59,6,6,0,1,1-10.11-4.36c.44-.47,1.71-1.34,2.31-1.16.75,1.37.73,2.89,1.08,4.25ZM145,92.08a3.57,3.57,0,0,0,2.15,2.49c-.2,31.38,0,86.93,0,86.93l6.31,5.93,0,2.58L145,182.35s-.45-65.51,0-90.27Zm6.27,1.45c.22,3-.29,6.23.23,9.35.51,2.16,1.29,4.1,1.35,6.22a14.74,14.74,0,0,1-.89,5.75,13.19,13.19,0,0,0-.77,4.09c-.31,2.63.54,5,1.19,7.12.87,2.78.63,6.14-.76,10.57a8.58,8.58,0,0,0-.52,3.72c.19,3,1.27,5.92,1.82,8.9.3,1.71,0,3.95-1,7.74a24.87,24.87,0,0,0-.81,4.8,13.89,13.89,0,0,0,.63,3.68c1.46,3.83,1.53,4.52,1.61,6.82a13.86,13.86,0,0,1-1.11,5c-1,2.43-.35,4.93,0,7.67l-2.52-2.15a9.32,9.32,0,0,1,.21-6.28c1-2.74,1.22-3,1.21-4.56,0-2.08-1.21-4.55-1.7-6a12.18,12.18,0,0,1,0-7.91,43.24,43.24,0,0,0,1.18-5.08c.27-2.07.07-3.7-1-7.86a16.76,16.76,0,0,1-.65-4.82,21.84,21.84,0,0,1,.83-6.07,14.06,14.06,0,0,0-.26-9,14.82,14.82,0,0,1-.93-6.79,10.69,10.69,0,0,1,1.06-3.64,11.31,11.31,0,0,0,.44-7.83,37.16,37.16,0,0,1-1.22-12.68Zm-7.07,1.72c-.22,21.51,0,46.13,0,46.13s-6.37,4.46-6.34,4.22c-8.21-13.53-11.34-33.47,3-51.46a18.7,18.7,0,0,0,3.34,1.11ZM47.3,100.38c11.62,21.69,13.12,43.6-6.08,66.09a11.83,11.83,0,0,1,.21,5.65c3.74-2.92,33.78-32.91,8.48-74.68Zm59.2-1.77,5.71.34.38,4.9-1.84,1.83s0-1-.06-1.92a5.15,5.15,0,0,0-.29-2,13.47,13.47,0,0,0-.28,2.73l-.09,2.11-.64.64c-.85.85-1,.78-1-.41-.07-2.61-.07-2.79-.26-2.59a9.25,9.25,0,0,0-.19,2.34,13.73,13.73,0,0,1-.17,2.27,3.74,3.74,0,0,1-1.5,1.35c-.26,0-.25-.38-.25-2,0-1.37-.15-2.12-.36-1.61a19.36,19.36,0,0,0-.17,2.58,12.53,12.53,0,0,1-.16,2.23c-.23.45-1.36,1.39-1.55,1.32s-.36-.92-.34-2.28c0-.66.1-1.22-.15-1.4s-.3.59-.23,2.54l0,2.11-.72.78c-1.13,1.17-1.21,1.12-1.21-.9,0-1.6,0-2.3-.32-2.17s-.19.9-.13,2.47a8.1,8.1,0,0,1-.06,2.29,5.67,5.67,0,0,1-.82.92,12.31,12.31,0,0,1-.88.87c-.09-1.69-.23-5.34-.23-5.34l-6-.26a11.94,11.94,0,0,1,1.73-1.73c.27-.15.69-.16,2.18-.1a16.48,16.48,0,0,0,2.51-.08c.45-.18-.48-.33-1.8-.42a20.42,20.42,0,0,1-2.08-.18l.87-.89.65-.65,1.9.06a10.4,10.4,0,0,0,2.14,0c1.12-.22.07-.47-1.22-.47s-2,0-2-.29a4.89,4.89,0,0,1,1.79-1.62,20.84,20.84,0,0,1,2.27-.1c1.78,0,2.43,0,2.33-.33s-1.28-.22-2.07-.25c-2.19,0-2.29-.09-.79-1.39l.72-.64,1.37,0c2.06.06,3.07,0,3.07-.22a5.82,5.82,0,0,0-2.49-.35c-.68,0-1.24,0-1.24,0a17.6,17.6,0,0,1,1.65-1.8l1.85,0c1.35,0,2.17.07,2.2-.18s-.49-.24-1.1-.24a6.3,6.3,0,0,1-2-.21c-.14-.15.12-.54.71-1.06ZM50,98.68c16,26.07,10.2,54.25-7.6,71.78L41.89,167c16.8-20.43,19.74-41.53,6.14-66.35Zm29.68,3.5c-2.86,4.31-7.24,8.56-8.9,12.07-.34.4-.45,1.29-1,1.47-.27,0-.35-.49-.28-1.65a4,4,0,0,1,.55-2c2.26-4.12,4.88-7.09,7.77-11Zm.67.41,2.65.17a13.58,13.58,0,0,1-2.31,4.43c-1.21,1.56-2.65,3.13-4.34,5-2.44,2.78-3.66,5.61-3.55,6.85A20.34,20.34,0,0,1,71,120.84l-1.54-1.43c1.14-5.87,6.69-11.27,10.9-16.82ZM112.77,105l.86,0a27.57,27.57,0,0,1,4.88.48,3.46,3.46,0,0,1,.19,1,8.57,8.57,0,0,1-.37,2.9,12.8,12.8,0,0,1-.62,2.22c-.34.34-.48,0-.63-1.6-.1-1-.13-1.66-.26-1.59a6.93,6.93,0,0,0-.16,1.85c.1,2,.09,2.49-.54,3.1-1.09,1-1.14,1-1.23-.93a10.29,10.29,0,0,0-.27-2c-.24-.24-.32.84-.32,2.67v2l-.52.56c-.67.74-.89.85-1.14.6s-.1-.49-.1-1.6c0-1.31-.23-2.06-.47-1.81,0,0-.06,1.31-.07,2.41s0,2.07,0,2.16a4.7,4.7,0,0,1-1.5,1.51c-.26,0-.47-1.44-.47-2.61,0-.78-.16-.92-.33-.49a21.5,21.5,0,0,0-.07,2.2v1.79l-.73.75c-1,1-1.13,1-1.13-.43,0-1.18-.08-1.81-.32-1.81s-.17.56-.17,1.89a10.83,10.83,0,0,1-.13,2,4,4,0,0,1-.71.94,2.75,2.75,0,0,1-.72.59c-.14,0-.33-1.13-.28-1.61,0-.1,0-.81,0-1.58,0-1.82.1-1.74-2.81-1.83-3.41-.11-3.46-.13-2.44-1.12s.84-.91,3.1-.76c1.82.12,2,.11,2.22-.07s.18-.23.14-.27a11,11,0,0,0-1.53-.14c-2.25-.13-2.45-.29-1.5-1.24l.54-.54h2.3a11.07,11.07,0,0,0,2.67-.16c.15-.24-.47-.3-1.95-.39a16.07,16.07,0,0,1-1.65-.15c-.38-.11-.24-.49.39-1.08l.61-.57h2c1.89,0,2.81-.12,2.81-.37s-.37-.25-1.34-.26c-1.37,0-2.28-.15-2.34-.34a6,6,0,0,1,1.33-1.54l2.06.07c2.08.07,2.73,0,2.73-.37,0-.18-.89-.32-2-.25-.74,0-1.63-.13-1.63-.39a2.47,2.47,0,0,1,.66-.87l.67-.66,2,.08a14.78,14.78,0,0,0,2.42,0c.34-.23-.44-.41-1.71-.49-2-.11-2.09-.26-1-1.24Zm-70.51,1.08c10.47,18.76,8.91,36.44-2.25,51.48a10.33,10.33,0,0,0-4.11-1.31l-.28-45.3Zm74.93,7.34c.21,0,.21.31.15,1a7.56,7.56,0,0,1-.2,1.37c-.12.31-.21.33-1.23.18s-1.14-.38.13-1.63c.62-.6,1-.93,1.15-.95Zm-56.25.84s1.38,0,2.07,0c0,0,.11,3.52.39,5.54l4.49.21-1.74,1.82-3.4-.11s-1-5-1.81-7.47Zm53.52,2.12a7.32,7.32,0,0,1,2.48.47c.15.15.16.52,0,2.79,0,.82-.09,2.57-.1,3.9,0,2.4,0,2.41-.3,2.45s-.41-.08-.51-1.66a4.48,4.48,0,0,0-.28-1.71c-.12,0-.11.75-.11,2.38v2.09a6.19,6.19,0,0,1-1.1.9c-.25,0-.38-.39-.51-1.49s-.24-1.86-.39-1.62a18.73,18.73,0,0,0,0,2.22l.13,1.78-.79.79c-.81.82-.91.88-1,.67-.3-.8.13-4.51-.6-5a18.41,18.41,0,0,0-2.21-.13c-1.9-.08-3-.11-3.24-.34s.74-1.18,1.2-1.39.71-.16,2.27,0c1.81.12,2.72.11,2.48-.13a11.33,11.33,0,0,0-1.7-.26c-1.46-.15-2-.29-2-.56a6.92,6.92,0,0,1,1.25-1.47l.71.07,2,.22c.73.09,2.21.1,1.61,0,.2-.19-.56-.39-1.61-.52-2-.25-2.15-.47-1.16-1.45l.61-.6c1,.08,2.09.11,3.12.26.75.12,1.16.08,1.16-.17s-.38-.17-1.29-.35c-.33-.07-2,0-2-.55.39-.55,1.11-1.56,1.84-1.61Zm-46,4.26c.3,0,.32.72.35,2.65,0,2.13.07,2.5.25,2.68s.61.23,2.48.32c2.85.15,2.92.19,1.92,1.16-.7.68-.73.59-1.31.52a14.19,14.19,0,0,0-3.8,0c-.15.24,0,.29,1.39.39,1.68.13,2.14.19,2.14.47a2.19,2.19,0,0,1-.63.82l-.64.59-1.77-.07c-1.86-.07-2.81-.1-2.81.16s1.06.32,2.74.48c.44,0,.89,0,.91.13s-.79,1.23-1.31,1.62-.57.15-2.44.11-2.07,0-1.71.38a3.26,3.26,0,0,0,1.11.14c1.16.08,1.72.26,1.72.55a4.32,4.32,0,0,1-1.54,1.59c-.43.21-.62.22-1.58.09-.76-.11-.9-.27-.88-1,0-.32.06-2.39.12-4.61.12-4.28.15-4.5.72-4.42.24,0,.29.32.36,1.78s.13,1.85.39,1.85c.09,0,.11-.62,0-2.1-.09-2.32-.1-2.66.61-3.33.31-.3.56-.54.71-.32a12.88,12.88,0,0,1,.3,2.82c0,.92.35,1.12.43.24,0-1.4,0-2.64-.06-4.13l.86-.85c.45-.45.74-.73.92-.74Zm-5.57,1.73a16.43,16.43,0,0,1,2.54,0,8.47,8.47,0,0,1-2.21,2.18,6.54,6.54,0,0,1-.33-2.22ZM117,126.56l.41,2.85-3.13-.21ZM75,127H75c.22.09.29.64.38,3.3a11.31,11.31,0,0,0,.2,2.32c.09.11.48.16,1.2.16s1.7,0,2.46.08c1.67.1,1.71.17.72,1.15l-.67.66-2.09-.08c-2.15-.09-2.5-.06-2.5.24s.36.3,1.05.28c.27,0,.95,0,1.51.08,1.26.12,1.28.21.35,1.22l-.67.72-.66-.09a16.47,16.47,0,0,0-4,.05c-.26.26.08.37,1.33.45,1.95.12,2.29.17,2.29.4a2.49,2.49,0,0,1-.61.81l-.6.6-2.48-.13c-1.73,0-2.33,0-2.37.12s.22.25,2,.44,2,.35,1.32,1.17-1,1-2.34.86a11.16,11.16,0,0,0-3.23,0c-.35.22,0,.36,1.06.44,1.6.12,2.54.29,2.54.53a3,3,0,0,1-1,1.34l-.43.31L68,144.25c-1.82-.19-2.76-.1-2.5.16a5.62,5.62,0,0,0,1.51.24c1.37.1,2.05.28,2.05.56a3.8,3.8,0,0,1-.78.92,5.42,5.42,0,0,1-.91.72l-5.63-.51a9.06,9.06,0,0,1,.27-3.73c.51-2.46.72-3,1-2.56a6.06,6.06,0,0,1,.17,1.13c.12,1,.36,1.61.51,1.61s.16-.58,0-2c-.3-1.92-.33-2,.4-2.77s1-.82,1.18-.52a13.64,13.64,0,0,1,.2,1.69c.14,1.29.21,1.58.38,1.42s.19-.48.07-2.39l-.15-1.86.82-.84c.75-.76.84-.82,1-.62a7,7,0,0,1,.28,1.89c.08,1.4.19,1.86.39,1.66a27.83,27.83,0,0,0-.05-4c-.07-.48,0-.55.57-1.23s1.11-1.16,1.31-1.16.41.79.41,1.86a4.07,4.07,0,0,0,.19,1.73c.28.37.31-.92.25-2.18l-.08-2.32.75-.75c.71-.71.77-.74,1-.54s.15.56.22,1.73c.1,1.61.41,2.39.51,1.27a4,4,0,0,0,0-1.09,13.9,13.9,0,0,1-.1-1.77,2.51,2.51,0,0,1,.28-1.57A4.15,4.15,0,0,1,75,127Zm32.53,1.76s1.25,1.07,1.25,1.38a5.9,5.9,0,0,1-1.17,1.39c-1.24,1.22-1.36,1.42-1.5,2.73a7.64,7.64,0,0,1-.88,2.29c-.44.89-1.07,1.92-1.07,1.92A109.67,109.67,0,0,0,96.78,148c-.2.45-.21.91-.42,1.3a1.58,1.58,0,0,1-.66.58,5.68,5.68,0,0,0-1,.63,6.69,6.69,0,0,0-2.51,3.92,41.72,41.72,0,0,0-.68,4.37c-.15,1.12-.64,3-.64,3-7.47-.1-14.46,1.19-20.7,4.71Zm10,1.15,1.66,7.55-1.71,0-.17-5.48-5.35-.51,1.91-1.85Zm-8.11.69a20.12,20.12,0,0,1,1.44,1.48c-1.42,4.78-6,11-10.44,17.12l-3.3-.36a94.57,94.57,0,0,1,6.78-9,16.78,16.78,0,0,0,2.16-3.49,21.44,21.44,0,0,0,1.12-3.42c.77-.93,2.25-2.3,2.24-2.31Zm1.78,1.67,2.49,2.53.61,35.75a45.69,45.69,0,0,0-13.2-6.94l.84-1.93.93-1c3.29-3.55,2.55-7.37,0-10.07,3.05-4.44,5.8-7.75,8.12-12.08l0-3a11.89,11.89,0,0,1,.19-3.29Zm-29.8,1.5c.26,0,.29.63.36,2.5a11.09,11.09,0,0,0,.25,2.77c.16.24.31.26,2.38.33s2.64.13,2.64.36a3.57,3.57,0,0,1-.63.75l-.62.62-1.95,0c-1,0-2.26,0-2.29,0s.48.38,1.42.38a10.33,10.33,0,0,1,1.64.15c.37.14.2.5-.6,1.27l-.81.78-1.76,0a18.15,18.15,0,0,0-2.31.06c-.54.18-.27.33.62.34,1.49,0,2.51.14,2.56.37a2.32,2.32,0,0,1-.62.92l-.66.71-2.6-.11c-2.46,0-2.79.2-.74.41.78.08,2,.27,2.06.27s.11.11.15.21-.9,1.34-1.43,1.61a1.14,1.14,0,0,1-.93,0,11.89,11.89,0,0,0-3.19.06c-.21.12.25.27.91.28,1,0,2.19.31,2.19.55a3.54,3.54,0,0,1-1.05,1.29c-.24.22-.83,0-2.48.07A6,6,0,0,0,72,151a2.46,2.46,0,0,0,1.27.34,8,8,0,0,1,1.76.29c.16.17-1.1,1.66-1.1,1.66l-5.4-.08-.5-5.72.46-.53c1-1.19,1.25-1,1.46,1.12.15,1.57.27,2,.49,1.83a9.67,9.67,0,0,0,0-2.3c-.07-1.09-.13-2.08-.13-2.2,0-.3,1.23-1.59,1.47-1.54s.37.58.49,2c.11,1.21.16,1.54.4,1.3a5.83,5.83,0,0,0,0-2.27l-.15-2,.52-.62c1-1.24,1.26-1.1,1.38.92.09,1.35.22,2.07.47,2.07a10.6,10.6,0,0,0,0-2.55l-.08-2.31.65-.66a3.22,3.22,0,0,1,.81-.66c.26,0,.41.58.57,1.95.17,1.53.23,1.79.38,1.64a10,10,0,0,0,0-2.18L77,138.24l.79-.81a3.07,3.07,0,0,1,1-.77c.24.05.39.74.42,1.72a3.65,3.65,0,0,0,.37,1.89c.1.1.13-.46.11-2.09,0-2.5-.11-2.69,1-3.87.3-.31.49-.51.63-.52Zm29.17,1,0,3.49c-1.4,3-4.64,7.4-7.92,12.11l-1.72-.92a92.88,92.88,0,0,0,9.61-14.68Zm-46.89,1.1h.26c.88.05.91.36.08,1.13a2.14,2.14,0,0,1-.89.59c-.25,0-.27,0-.19-.71s.2-1,.74-1Zm53.52,2.52,2.42,2.38.61,25.61-2.55,4.15Zm3,3.38a95,95,0,0,0,7,13.85l-6.47,9.13Zm-21.77,8c3,0,5.72,2.31,6.06,4.7a5.77,5.77,0,0,1-3.09,6.62,4.86,4.86,0,0,1-1.28.31c-.28-1.66-.16-3.26-.54-4.94A20.78,20.78,0,0,1,97.37,159c-.41.23-.59.29-.54-.24,0-.93.1-3,.1-3l-3.44,3.56a5.94,5.94,0,0,1-.61-1.28,6.18,6.18,0,0,1,2.53-7.29,5.44,5.44,0,0,1,3-.92Zm45.74-.22.06,3.13c-5.39,4.18-13.09,13-19.68,24.48l-2.91,1.23c4.47-10.69,13.92-21.58,22.53-28.84Zm.05,4.11.06,4.67a71,71,0,0,0-12.49,15.39c-2.11,1-6,2.93-6,2.93-.49-.12,10.61-17.39,18.43-23Zm-48,4c.22,0,.21.42.14,1a4.33,4.33,0,0,1-.82,2.54c-1.74,2.06-4.51,4.86-4.89,7.47-.19,1.39.89,2.69,2,2.56,3.32-.42,3.67-6.31,4-9.21a8.54,8.54,0,0,1,.29-1.55,13,13,0,0,1,2.39-2.47l.41,4.5,1.87-.62c-5.27,7.16-3.76,7.61-6.54,10.54-2.58,2.72-7.58-.38-6.3-4.52,1.11-2.79,2.84-5.59,3.3-8.57.13-.89.2-1.5.2-1.5l1.2,2.49a20.65,20.65,0,0,1,2.84-2.69Zm48.22,1.54v3.22a65.78,65.78,0,0,0-7.08,8.71l-4,1.82c2.6-5,6.87-9.59,11.08-13.75ZM95.7,162.06a12.37,12.37,0,0,1-.32,4.23c-.28,1.29-1.52,5.06-3.49,4.17-1.67-1.48.37-4.21,1.39-5.5.79-.93,1.65-1.93,2.42-2.9Zm-5.25.38-1.09,2.33c-9.76,0-19.24,3.53-27.68,10.66l-2.13-.7a43.32,43.32,0,0,1,30.9-12.29Zm10.26,1.79c11,3.68,16.09,9.06,20.25,14.7l-1.74.89c-4.37-5.64-9.75-10.81-19.77-13.79Zm-12.6,3.48-.47,2c-6.16.18-12.66,2.37-19,6.76l-2.28-.36a38.73,38.73,0,0,1,21.74-8.39Zm28.16,13.45-2,.92c-5.83-7.56-11.1-9.72-17.09-11.64l.64-1.68a31.57,31.57,0,0,1,18.41,12.4ZM35,172.24l.17,20.19-1.41-.28-.2-19.52Zm-3.26,1.1c-2.68,10-.6,12.64.37,18.5l-2.22-.36a26.77,26.77,0,0,1-.56-17.64Zm67.44,1.54c.16.16-.14.65-.55.89s-.32.2-1,0-1.42-.81-1.42-1a15.6,15.6,0,0,1,2.92.17ZM101,175c.36,0,1.43,0,1.49.36,0,.19-.39.52-1.24,1.1-1.3.88-1.74,1.06-2.12.64s-.25-.81.35-1.37A2,2,0,0,1,101,175Zm-44.2.22a4.9,4.9,0,0,1,2.87,2c.81,1.27,1.75,2.57,2.5,3.86A54.3,54.3,0,0,1,66.34,190a119.39,119.39,0,0,1,6,21.15c0,.59-.54.58-1,.44a.87.87,0,0,1-.48-.33c-.59-1.7-.8-3.44-1.26-5.15a111.17,111.17,0,0,0-3.75-12.74,90.23,90.23,0,0,0-4.61-10.83,25.19,25.19,0,0,0-4.25-5.87,13.1,13.1,0,0,1-1-1c0-.3.29-.46.81-.46Zm47,.23c.68.17,2.35.37,1.72.91a13.1,13.1,0,0,0-4.33,2.86,2.5,2.5,0,0,1-.92-1.14c1-1.23,2.27-1.75,3.53-2.63Zm-43.65,0c1,0,1.93,1.22,2.38,2,3,4.41,5.57,10.7,7.68,16.86a99.54,99.54,0,0,1,4.34,17.55c0,.14-.33.19-.66.19-.61,0-.7-.15-.85-.63a144.57,144.57,0,0,0-6.21-21.79,63,63,0,0,0-5.09-10.53,22.88,22.88,0,0,1-2.26-3.49c0-.11.29-.17.58-.17Zm-6.7.13c1.32,0,3.5,1.56,5,3.56,3.13,4.3,4.93,9.31,6.79,14.18A100.52,100.52,0,0,1,69.85,210c.16.7.42,1-.24,1.22-1-.28-1-.25-1.26-1.47s-.51-2.62-.88-3.95c-2.11-7.6-4.48-16-8.41-22.9-4.72-7.55-6.09-5.45-6.85-6.78.06-.31.59-.52,1.29-.52Zm11.36,1.85c4.06,7,5.84,11.39,7.08,15.65,1.87,6.46,4.08,11.62,5.06,19.16a5.43,5.43,0,0,1-1.5-.16,4.31,4.31,0,0,1-.47-1.54A126.09,126.09,0,0,0,70.78,194a70.9,70.9,0,0,0-7.17-15.86c-.84-1.36-1-1.9-.48-1.93.91.07,1.31.77,1.73,1.28Zm42.26-.76a1.39,1.39,0,0,1,.6.09c.54.19.71.31.74.52s-.28.41-1.32.65a10.85,10.85,0,0,0-3.52,2,7.07,7.07,0,0,1-1.08.89c-.25,0-.86-.67-.86-.95a8.74,8.74,0,0,1,5.44-3.16Zm-55.89.18c3.43.1,6.12,4.09,7.53,6.78.55,1.05,1.26,2.2,1.8,3.4a115.45,115.45,0,0,1,6.3,19c.56,2.41,1.2,4.17,1,4.64a1.2,1.2,0,0,1-1.16-.19,6.48,6.48,0,0,1-.59-1.7c-.8-2.58-2.12-9.93-5.58-17.66a55.23,55.23,0,0,0-4.64-9.7A7.88,7.88,0,0,0,51.05,178c-.87-.14-1.13,0-1.07-.51,0-.3.13-.38.59-.53a2.39,2.39,0,0,1,.66-.1Zm21.46,15.93c-.23,0-.44-.45-.6-1.18-.07-.36-.18-.62.5-1,4.26-4.52.59-11.18-4.76-11.76-.5-.07-1.13-.07-1.32-.14a6.29,6.29,0,0,1-1-1.5c7.4-1.8,15.25,8.79,7.17,15.63ZM109.55,178c.43.12,1.4,1,1.27,1.2s-1,.24-2.16.45c-2.55.45-3.64,2.11-4.82,3.34-.27.08-.5-.1-.73-.5a2.21,2.21,0,0,1-.32-.79c1.33-1.92,4.87-3.87,6.76-3.7Zm-60.06.57A6.91,6.91,0,0,1,55,181.34c4.44,6.64,9.43,21.41,10.62,28.7-.12.24-.44.26-1.05.08-.35-.1-.3-.21-.52-.88a151.44,151.44,0,0,0-4.72-15.19c-.93-2.44-2-4.82-3-7-.66-1.35-2-3.76-2.46-4.5a4,4,0,0,0-5-2.12,2.24,2.24,0,0,0-.56,3.7,2.14,2.14,0,0,0,3.07-.49,1,1,0,0,0,0-1,.25.25,0,0,0-.39.05c.08,1.29-1.57,1.37-2.28.86-1.15-.85-.39-3.57,2.74-2.48a2.25,2.25,0,0,1,1,3.11,2.85,2.85,0,0,1-2.89,1.89,3.54,3.54,0,0,1-3.65-3.37A4.39,4.39,0,0,1,48.08,179a2,2,0,0,1,1.41-.39Zm18.32,1c5.24.24,7.66,6.42,4.9,10.15-.71.89-1.15.72-1.45-.43-.15-.47-.31-.54.11-.9,2.46-2.36.44-6.94-3.61-7.12a5.73,5.73,0,0,1-.83-1.69,2.61,2.61,0,0,1,.88,0Zm43.76.42c.4.1,1.25.91,1.25,1.19s-.17.28-1.1.12c-2.21-.4-4.42.88-6.27,3.67-.89,1.67-1,1.51-1.47.07-.25-.74-.25-.72.69-2.09a7.55,7.55,0,0,1,6.9-3Zm2.06,2.84c1.85,1.68,1,5.37-1.51,5.75-2.2.26-4.16-2.12-2.77-3.74.9-1,2-1.08,2.72-.24s.41,2-.61,2.18c-.12,0-.21.13-.21.2s.9.16,1.21-.09a2,2,0,0,0,.08-2.48,2.21,2.21,0,0,0-2.38-.85c-1.48.53-3,2.54-3.85,5.07-.24.71-.38,1.38-.49,1.53-.21.33-.2.32-.39.19a6.48,6.48,0,0,1-.48-2.24,8.3,8.3,0,0,1,.89-2.65c1.6-3,5.21-5,7.79-2.63Zm-45-.75c2.15.13,3.85,3.17,2.91,5.29-.28.39-.7.66-.89.41-.07-.09-.4-1.08-.86-2.14s-.88-2.08-1-2.34c-.34-.73-.59-1.23-.15-1.22ZM54,183.85A88.27,88.27,0,0,1,60.21,198a77.56,77.56,0,0,1,3,10.77c0,.34.14.51,0,.65s-1.41-.35-1.41-.35c-2-7.06-3.7-14.13-8.58-23.12a2.75,2.75,0,0,1-.26-.59,2.34,2.34,0,0,1,.44-1.67c.14-.15.32-.16.59.14Zm-27.48,8.2c11.59.77,20.54,5.65,25.32,18.54a49.38,49.38,0,0,0-25.19-8.45l0-1.79c10.66-.08,21.05,5.46,20.84,5.38-4-8.17-13.93-11.48-21-11.7Zm80.34,2.6a6.87,6.87,0,0,0-1,2.08c0,.32.1,2.32.15,3.49a7.48,7.48,0,0,0,.22,2.27.53.53,0,0,0,.77.07,3.13,3.13,0,0,0,.28-.72c1-3.61,1.4-5,1.78-5.41s.34-.29,1.39-.17a2.12,2.12,0,0,0,1.62-3.74c-2.06-1.15-4.25.78-5.16,2.13Zm2.49.77c-1.69,1.38-1.74,3.39-2.25,5.23-.27,1.23-.66,1.89-.82,0-.28-2.59.08-4.52,1.2-6a4,4,0,0,1,2.86-1.94c2.21-.16,2.44,1.59,1.82,2.53a2,2,0,0,1-2.81.21Zm-79.76.83a1.51,1.51,0,1,1-1.51,1.51,1.51,1.51,0,0,1,1.51-1.51Zm4.8,1a1.35,1.35,0,1,1-1.34,1.34,1.34,1.34,0,0,1,1.34-1.34Zm4.38,1.47a1.1,1.1,0,1,1,0,2.2,1.1,1.1,0,0,1,0-2.2Zm3.11,2a.85.85,0,1,1-.85.85.85.85,0,0,1,.85-.85ZM31,203.44a9.25,9.25,0,0,0,.31,4.47c.85,2.5.47,7,.47,7l-2.52,2.51a52.54,52.54,0,0,0,.33-6.78c-.09-1.3-.68-2.52-.83-3.84a25.43,25.43,0,0,1,.07-3.64Zm4.07.75.09,10.66-8.6,8.33,0-2.2,7.34-7.27-.15-9.87Zm21.22,24.3-.57.92h9.71l.2-.92Zm12.56,0-.23.92h4.5l.15-.92Zm7.37,0-.15.92H92.76l-.24-.92Zm19.49,0,.27.92h4.44l-.37-.92Zm7.43,0,.32.92h7.64l-.63-.92Z"/></g></g></g></svg>