<svg xmlns="http://www.w3.org/2000/svg" viewBox="0 0 178.58 249.45"><defs><style>.cls-1{fill:#fff;}.cls-2{fill:#e1cf01;}.cls-3{fill:#d41216;}.cls-4{fill:#262e5e;}</style></defs><title>KC</title><g id="Слой_2" data-name="Слой 2"><g id="C"><g id="KC"><path class="cls-1" d="M8.5,0H170.08a8.48,8.48,0,0,1,8.5,8.5V241a8.48,8.48,0,0,1-8.5,8.5H8.5A8.48,8.48,0,0,1,0,241V8.5A8.48,8.48,0,0,1,8.5,0Z"/><path class="cls-2" d="M128.61,24l-64.43.31,8.18,15.5c16.75-1.51,31.42-.17,46.71.33Zm-44,54.49c-.07.09-2.68.76-2.42,1.35,6.82,14.61,9.87,26.49,12.72,41.5a6.64,6.64,0,0,1,3.77-1.12c-1.15-5.57,5.88-6.27,5.93-.44,1.34.31,2.73.32,4,1.68.58-16.44,6.59-33.75,13.92-45.14-8.67,3.43-21.26,12-21.26,12S90.64,84,84.61,78.5Zm52.65,1.74c-11.53,11-16,41.32-15.21,41.74-14.86-.5-19.37,15.88-6.48,24.71-.52,1.72-1.77,3.11-2.75,4.63a10.51,10.51,0,0,0,4.23,1.08c1.1,1.3,2.18,2.81,3.37,2.93a22.17,22.17,0,0,0,3.3-3,23.86,23.86,0,0,0,4-1.31c-1.13-1.58-2.47-3.17-2.5-4.65,11.19-7.9,9.66-18.63-.44-24.13,3-18.07,7.4-29.62,12.49-37.83Zm-79.4,14c-1.47.72-2.27,2.22-3.33,3.41a11.72,11.72,0,0,0-4.25,1.18s3.34,4.61,3.13,4.86c-10.83,7.09-10.74,17.46-.34,24.29,1.76,14.76-10.78,38.1-11.41,37.43l0,4.82c8.73-9.65,13.67-27.18,14.53-41.59,17.83-1.18,18.46-18.4,6.19-24.87-.94-.87,3.09-4.87,3.09-4.87-1-1-2.74-1.12-4.24-1.24a17.71,17.71,0,0,0-3.34-3.42Zm75.39,11.92c2.52,5.6,11.73-1.23,13.32,1.75,1.3,1.69,4.13,1.87,4-1-.53-2.83-2.38-3.45-9.76-2.22-2.8.47-3.94.74-3.92-.53-1.94-2.34-3.6.84-3.61,2Zm8.55,8.17c-2.07,0-2.42,8.08-2.39,10.5-6,9.45,12.28,8.38,4.38-1.91.28-1.35-1-3.54-1-4.51-.65-.08-.93-3.73-1-4.08ZM36.53,119.16c-3.24.08-6.8,3.06-1.61,7.33.34.12-.17,1,0,2.4,1.47,3.16,1.07,7.84,2.16,7.12,1.26-.83,2.31-4.32,2-9.19,0-.32-.44-.66-.36-1,2.91-4.81.45-6.73-2.23-6.66Zm33.13,9.05C68.83,144,65,159.47,56.2,172.9c7.55-3.51,14.87-8.05,22-11.93l16.56,10.24A6.55,6.55,0,0,0,97,170c-7.62-11.16-10-27.22-13.31-41.74A11.55,11.55,0,0,1,80,129.58c-.16,5-5.45,6.67-6.53.1ZM29.71,140.52c-1.77.11-3.1,4.48,1.9,5.13,3.53.5,8-1.24,10.3-.43,2.6,4.16,5-2,1.46-3-3.74-1.08-11.37,1.72-12.21-.65-.43-.82-1-1.12-1.45-1.09Zm30,68.35-10,17.64,63.85-.38-8.35-16.83c.14-.18-27.89,3.33-45.52-.43Z"/><path class="cls-3" d="M73.59,41.33l1,2.47c13.71-1.65,28.07-3.37,42.43.28,0,0,1-2.29,1-2.45-13.39-3.41-43.32-2.53-44.51-.3ZM87.47,76.07l13,8.45s6.25-4.42,8.92-6.29l-1.62-2.38C102.3,88,92.6,78.4,89,72.68c0,0-1,2.21-1.49,3.39Zm35.06,4.09a1.82,1.82,0,0,1,1.86,1.25c.51,1,.71.78.38-.52-.52-2,1.65-3.37,3.69-2,1.48,1,1.42,3.37-.2,3.81-1.3.36-1.34.7-.19.64,2.05-.1,2.6,2.64,1.14,4a2.33,2.33,0,0,1-4-1.48c-.09-.55-.21-.54-.39-.23a5.18,5.18,0,0,0-.46,3.1l-3-1.89a7.68,7.68,0,0,0,2.52-1.66c.11-.11.18-.19.18-.23s-.34,0-1,.09c-1.83.19-3.24-1-2.86-2.72.32-1.47,1.07-2.11,2.35-2.14Zm-13.39,47.62c3.31-3.78,7.4-6.2,13.1-5.86.72-15.82,6.21-29.89,15-42.57l-9.67-5.81-3.87,2.34c-9.33,13.23-15.06,30-14.56,51.9Zm-72.47-37s-6.54,4.9-9.58,7.26l.15,43.64.84.29c.06.09-.07-.65.32-1a4.05,4.05,0,0,1,1.12-.7c.84-.31.87-.86.09-1.35a1.83,1.83,0,0,1-.77-1.92,1.61,1.61,0,0,0-.27-1.3,2.27,2.27,0,0,1-.08-2.06c.14-.35.13-.44-.12-.91a2.38,2.38,0,0,1-.12-2,4.78,4.78,0,0,0,.14-1.3c0-1.74,1.41-2.89,4.06-3.26,1-.14,1.07-.18.59-1-2.68-4.9,3.35-7.45,3.8-6.67Zm82.58,2.43a4.43,4.43,0,1,1-4.37,4.5,4.45,4.45,0,0,1,4.37-4.5Zm0,.79a3.55,3.55,0,1,0,3.6,3.5,3.55,3.55,0,0,0-3.6-3.5Zm.09,1.13A2.41,2.41,0,1,1,117,97.6a2.4,2.4,0,0,1,2.37-2.44ZM31.35,97a1.6,1.6,0,0,1,.56.09,1.42,1.42,0,0,1,.9,2.24c-.47.73-.42.79.4.48a1.19,1.19,0,0,1,1.49.34c1.53,1.52-.75,4.07-2.24,2.52-.75-.76-.82-.54-.3.78.16.42.44,1.08.44,1.08l-2.2,0s.35-.88.5-1.29c.38-1,.4-1.14-.4-.51a1.69,1.69,0,1,1-2.16-2.59c.33-.32.87-.33,1.61,0,.55.22.61.07.2-.44A1.61,1.61,0,0,1,31.35,97Zm45.51,3.91c-.89,5.85-.11,14-.13,18.44,2.38.45,2.41,2.07,2.77,4.09,1.16-.4,3.69,1.31,4,1.15.26-5.93-2.83-23.15-6.68-23.68Zm39.51,5.86c3.38.27,2.73,2.88,1.73,4-.48.55-.39.8.13.48,1.43-.86,2.56-.23,3,1.25.79,2.54-2.55,4.73-4,2.45-.5-.78-.81-.6-.69.21a11.12,11.12,0,0,0,.84,2.39l-3.32-.3s1-1.68,1.19-2.14c.37-.94.18-1.19-.53-.43a2.38,2.38,0,0,1-3.61-3,2,2,0,0,1,3.19-.65c.89.57,1.08.32.29-.38-1.48-1.31-.19-3.94,1.8-3.78Zm-84.86,2.07h.11a2,2,0,0,1,.88.25,1.48,1.48,0,0,1,.54,2.18c-.3.45-.22.74.13.44a1.44,1.44,0,0,1,1.88.49c1,1.6-1,3.7-2.25,2.37-.57-.59-.78-.62-.71-.23.18.72.66,2,.66,2l-2.3,0a13.54,13.54,0,0,0,.6-2c.09-.52-.12-.45-.67.17a1.12,1.12,0,0,1-1.69.22c-1.68-1.11-.34-4,1.41-3,.6.33.69.14.22-.48a1.51,1.51,0,0,1,1.19-2.44Zm119.25-1c-3.72,3.84-2.55,1.57-.83,4.5,0,1.92,1.14,3.44.24,6.48a1.81,1.81,0,0,0-.16,1.48c-.26,3.37-3,3.32-5.59,3.85.44,0,4.16,6.84-2.78,7.38l.08,27.93,10.88-8,0-43.6ZM69.1,122.55c-3.08,2-7.42,7-12.87,5.88A76.43,76.43,0,0,1,41.69,171a92.07,92.07,0,0,0,8.8,5,27.94,27.94,0,0,0,6.2-3.75C66.5,157,69.61,140.43,69.1,122.55Zm25.62,3.19c.55,9,2,17.43,6.66,24.23l.32-19c-1.66-.4-3-1.47-3.5-4.51ZM61.06,131l3.11.08s-.7,1.4-1,2.19c-.37,1-.19,1.16.52.49a2.36,2.36,0,0,1,3.17-.18c2.05,2.06-.1,5.42-2.53,4-1-.63-1.22-.42-.39.47,1.61,1.5-.07,3.64-2,3.65a2.39,2.39,0,0,1-2.34-2.29,2,2,0,0,1,1-1.87c.68-.38.19-.63-.55-.23-2.42,1.29-4-2-2.21-3.94,1-1.1,2.16-1,3.23,0,.75.73,1,.66.8-.2a10.8,10.8,0,0,0-.83-2.17Zm84,2.63h2.23c-.22.55-.51,1.11-.68,1.65s-.06.68.53.1c1.54-1,3.18,0,2.85,1.64a1.54,1.54,0,0,1-2.27,1.19c-1-.44-.65-.25-.1.41a1.48,1.48,0,0,1-.38,2.3,1.73,1.73,0,0,1-2.52-2.26c.59-.92.32-.82-.22-.38-.81.6-2-.24-2.06-1.41-.1-1.67,1.6-2.62,2.79-1.43.57.48.71.42.45-.28a11.68,11.68,0,0,0-.62-1.53Zm.11,12.17,2.34,0a3.86,3.86,0,0,1-.39.85c-.42.8-.36,1.62.08,1.06a1.72,1.72,0,0,1,2.85.47c.61,1.34-.57,2.83-1.8,2.26-.79-.36-.84-.28-.32.48a1.5,1.5,0,0,1-.54,2.19c-1.65,1-3.61-1-2.25-2.38.37-.36.25-.53-.19-.3-1.81,1-3.15-1.46-1.58-2.89.67-.61,1.18-.57,2.27.19.34.23.41,0,.16-.61a6.22,6.22,0,0,0-.63-1.3Zm-86.73,1.47a4.71,4.71,0,1,1-4.64,4.78,4.7,4.7,0,0,1,4.64-4.78Zm.05.84a3.87,3.87,0,1,0,3.93,3.81,3.86,3.86,0,0,0-3.93-3.81Zm0,1.49A2.38,2.38,0,1,1,56.19,152a2.38,2.38,0,0,1,2.35-2.41ZM52.62,161l2.72,1.32s-1.29,1.05-1.8,1.59c-.66.69-.61,1,.27.69a2.36,2.36,0,0,1,3.4,2.06,2.29,2.29,0,0,1-4,1.69c-.39-.53-.86-.74-.68-.32a2.47,2.47,0,0,1-.6,2.9,2.69,2.69,0,0,1-2.35.26c-2-1-2.09-3.31-.19-4.22.95-.45,1-.87,0-.64-2,.48-3.1-1.88-1.69-3.51s3.94-1.36,4.21,1.19c0,.45.36.12.49-.57a15.62,15.62,0,0,0,.21-2.44ZM78,164.86s-10,5.67-9.66,5.91c.06,0,2.21,3,2.21,3,4.94-11.19,16.77-1.92,18.66,3.79a5.49,5.49,0,0,0,.93.38c0-.4.86-4.37.86-4.37ZM62,206c-.5.63-2.17,2.4-2,2.47,14.62,3.14,29.71,2.89,45.07,1.22L103.94,206C88.77,209.87,62,206,62,206Z"/><path class="cls-4" d="M25.05,22.54,26,228.2l128.39-.45L153.57,22.3ZM64.1,24l64-.26c-3,7.79-11.65,20.11-11.24,20.14-13.32-2.2-27-3.31-42.41,0Zm-37.56.5,35.93-.05L74.32,45.71a4,4,0,0,1,.28,2.71,13.61,13.61,0,0,1-1.25,3c0-.45-3.42-.88-3.13,2.08A2.76,2.76,0,0,0,74.84,55c.3,0,.3.25.23.74-.17,1.15-1.39,4.79-2.22,5-4.26-3.49-5.78,2.88-2.91,4.15a4.49,4.49,0,0,0,5.41-1.87c.91-1.53.81-1.27,1.1.58.11.69.26,1.49.34,1.85.24,1.12,0,1.34-1.89,1.85a30.66,30.66,0,0,1-4.64,1.26,5.1,5.1,0,0,0-4.4,5.26c0,.57,0,.83-.12,1a135.51,135.51,0,0,0-38.54,22ZM108,75a43.51,43.51,0,0,1-2.33-6.27c-1-7.9-1.25-17.27-2.37-24.61l1.48.16a60.46,60.46,0,0,1,1.15,7.88c.3,2.84.61,8.77.86,11.49.37,4.05,2.2,10.51,3.33,12.15,1.85,2.66,5.56.94,4.32-2.22-.64-1.64-3.14-1.38-2.79.32,0,.31.24-.21.6-.53a1.41,1.41,0,0,1,1.66,2.06c-.79,1.73-3.11.94-3.88-1.24-.92-2.59,2.18-4.54,4.5-3,2.59,1.77,2.6,6.24.51,7.65-3.5,1.28-5.89-1.27-7-3.88Zm8.67,3.29c-.14-.09,0-.36.18-1a6,6,0,0,0-1.32-6.08c-.87-1-1.19-1.16-.74-1.34,1-.38,3.1,1.17,3.69,2.7a5.67,5.67,0,0,1-.09,4.73c-.57.36-1.45,1.09-1.72,1Zm2.65-1.61c0-.28.18-1.17.23-1.61a5.9,5.9,0,0,0-2-4.73c-1.17-1.12-1.28-1.24-.17-1.25,2.85-.06,4.67,4.56,3.36,6.84-.34.35-1.38,1.09-1.41.75Zm2.41-1.56c.84-3.94-3-6.56-3-6.44.19-.88,1.7-.37,2.22,0,1.92,1.3,3,4.67,1.85,6.59a1.31,1.31,0,0,1-.49.5c-.4.25-.64.45-.72.27s.16-.7.18-.89ZM88.25,62.3c.4-.39.52-.4,1.28-.11,2.4.9,4.31-.81,3.75-2.62a2.48,2.48,0,0,0-1.65-1.42c-.91-.09-.93.39.05.75a1.2,1.2,0,0,1,.26,2.28c-1.24.84-3.26-1.28-4.75-1.1a1.14,1.14,0,0,0-.75,1.69c.31.56,1.38.91,1.81.53Zm-2.65-.25c-.83-.39-1.15-.38-1-1.29.1-.6,1-4.61,1.36-6.16,1.21-4.65.07-7.22-3.35-8.26a8.23,8.23,0,0,0-6.69.91l-.43-1.31c9.92-2.6,26.86-2,26.8-1.92a27.71,27.71,0,0,1,.59,4A48.41,48.41,0,0,0,98.06,46c-2.55-.78-6.58.08-7.29,1.54-.41.83-.2,1.39,1.52.46,2.8-1.51,8.53-.36,10.55,1.25.46.36.44.45.45.88,0,.65,0,.69-.87.21-4.81-2.47-8.92-2.18-10.34,1.05-.33-.1-1.58-.31-1.58-.31l1.34,2,.26,2.07s2.19,1.22,3.39,1.73.51,0-.95-1.05c-1.07-.74-.22-1,.49-.69a7.27,7.27,0,0,0,6-.81,3,3,0,0,1,2.54.15s.23,1.82.47,5.61c.11,1.78.32,4.12.45,5.09.38,2.89.49,3.06-1,1.67a15,15,0,0,0-1.38-1.19c-.19.89,2.06,2.47,2.59,3,.79.83,1.43,2.94,1.11,3.06s-2.34-1.73-4-3.37a15.78,15.78,0,0,0-1.6-1.4c-.35.23,1.07,1.83,2.39,3,1.55,1.39,1.73,1.52,1.21,1.73-1,.39-1.83-.1-4.16-2a6.88,6.88,0,0,0-1.14-.77c-.22.28,1.93,2.32,2.42,2.49.9.33,1.17,1.2.45,1.55-.47.23-2.25-.75-3.68-2a2.93,2.93,0,0,0-1-.55c-.28.18,1.31,1.56,2.83,2.48s1.73,1.11,1.35,1.85-3.62-1-5.26-2.83c-.35-.39-.62-.56-.55-.43.71,2,3.06,3.39,4.8,3.95a3.7,3.7,0,0,1,1,.39c.5.39.39.8-.15,1-1.86.52-4.79-1.73-6.88-4.08-.25-.1-.1.21,0,.31,1.75,2.79,5.1,4.91,7.11,4.51,1.18-.23,2.13.13,2.14.52s-.64.84-1.91.93c-2.87.21-7.35-2.93-10-6.92-.08-.13-.18-.18-.18-.1-.07.85,1.55,2.92,2.8,4.11,3.72,3.53,7.23,4.73,10,2.74,1.54-1.2,3-3.82.73-4.69-1.21-.46-2,1.21-1,.74,1.38-.17,1.68.56,1.5,1.24a1.61,1.61,0,0,1-2.45.87c-1.64-.89-1.29-3.94.84-4.48a3.28,3.28,0,0,1,3.81,2.71c.34,2.39-2.36,5-4.53,5.63-7.39,2.19-13.16-8.07-13.19-8.3-.37-.72-.82-1.09-1.1-.26-.3,1.2-2,4.73-2.86,4.71.27-1.25,1.45-3.34,1.16-5.17-.49,1.5-1.53,4.72-3.52,6.43-.52.47-2,1-1-.19,1.26-1.77,2.9-4.18,2.57-6.45-.34.51-.52,1.8-.9,2.65-1,2.13-3,4.67-4.42,5.08-1,.3-.92,0,.12-1.14s3.09-4.63,3-6.11c-.06-.66-2,5.68-5.8,7.42a1.66,1.66,0,0,1-1.59-.1c1.48-.85,5.55-4.86,5.16-9.42l-.54,1.69C78.32,76,75.35,78.89,73,79.13c-1.84.19-3.13-.56-2.68-.89a6.46,6.46,0,0,0,5.9-3.14c1.56-2.37,2.14-6.17,1.19-10.2a68.23,68.23,0,0,1-1.33-10.4c2.62.9,5.26,1.49,7.81.5-.26,1-.69,1.16-1.36,2-.49.58-.32.71,1.59-.63.55-.39.75-.71.85-.61s-.09,1.25-.65,3.38c-.83,3.2-.61,3.43,2.46,4.63a2.17,2.17,0,0,1,1,.68c.09.12.6,1,.64,1s.09-.92,0-1.17a2.36,2.36,0,0,0-.84-1.38,6.21,6.21,0,0,0-2-.85Zm57.94,41.66,0-3.32,3.22,2.29,0,1.09Zm-5.51.72-.12-61.34s2.47-1.65,3.71-2.46c.77,2.43.77,7.65.48,10-.49,1.51-.7,8.24-.16,11.67a34.62,34.62,0,0,1-.05,9.4,59.11,59.11,0,0,0,.27,8.47,25,25,0,0,1-.18,6.79,28.31,28.31,0,0,0,.13,6.84,57.76,57.76,0,0,1,.33,10.18c-.53.6-4.69.68-4.41.48Zm4.89-64.2s2.5,1.65,3.7,2.47l0,2.64L143,43ZM105.75,44.5l1.54.1a88.9,88.9,0,0,1,1.12,10.47c.08,5.61.77,11.53,2.09,15.41l-1.13,1.19c-1.93-4.45-2.08-11.46-2.51-16.21a91.59,91.59,0,0,0-1.11-11ZM143.23,44l3.35,2.26,0,2.88-3.37-2.24ZM108,44.71l1.35.15c.41,3.79,1.05,6.37,1.29,10.55.31,5.4,1.24,9.84,1.83,14.06l-1,.33c-.67.32-1.8-4.67-2.3-14.78-.15-3.06-.67-6.5-1.15-10.31Zm2,.14,1.61.3a185.22,185.22,0,0,0,3,23.78l-1.41.09c-1.74-7.38-1.85-15.93-3.23-24.17Zm2.33.35,1.49.25c1.78,22,2.88,21.68,3.23,22.54l-1.61.65c-1.73-6.31-2.08-15.2-3.11-23.44Zm6.74,21.56c-.25.74-.85.67-1.51.75a32,32,0,0,1-1.47-6.78c-.68-5.17-.93-10-1.63-15.13l1.77.19c-.06,0,1.26,18,2.84,21ZM81,47.47c2.34.11,4.28,1.16,4.47,2.69,0,.34-.24.18-.56-.07a6.93,6.93,0,0,0-7-1c-.6.22-1.09.56-1.36.51a.63.63,0,0,1-.13-.84c.65-1.08,3.48-1.33,4.63-1.27Zm-5.41,3.07c.05,2.42-.53,3.75-1.8,4.31-1.54.68-3.5-.77-2.54-2.38.72-1.22,2-.86,2.19.43l2-4.33s.2,1.37.2,2Zm71.07-.38,0,2.49L143,50.25l.24-2.4ZM83,49.83c1.77.7,2.42,1.56,2.48,1.94-.1.28-.28.09-1.57-.61a6.19,6.19,0,0,0-6.86.13c-.57.11-.63-.21,0-.82a6.16,6.16,0,0,1,6-.64Zm13.43-.47a11,11,0,0,1,5,1.14,9,9,0,0,1,1.77,1c.36.2.39,1,.12,1.08s-.62-.15-1.2-.56c-3.73-2.42-6.42-2.12-8.58-.63a1.4,1.4,0,0,1-.64.15c-.41,0-.43-.19-.25-.42a5.4,5.4,0,0,1,3.79-1.72ZM143,51.11l3.6,2.52V56.1l-3.83-2.66Zm-64.95,1,.53,0c1.22,3,2.76,1.44,3.4.25l.64.1c-1,4-5.08,1.9-4.57-.37Zm-.89.4c.59.07.57.74.76,1.23.41,1.1-1.17.17-1.44-.09-.45-.49.2-1.09.68-1.14ZM95,52.39c1.56,2.36,2.45,1,3.34-.06l.42.14c-.12,1.69-3,3.5-4.32,0Zm4.78.27a2.79,2.79,0,0,1,.8.25c.85.34.81.59-.13,1-1.51.67-2,.75-1.58-.19.26-.43.43-1,.91-1.07Zm-5.9.36a1.42,1.42,0,0,1,.67,1.08c0,.36-1.14-.05-1.14-.61,0-.36.23-.65.47-.47Zm-10.4.14c.78.28.68.65.15,1-1,.54-1.38.43-.75-.41.28-.39.34-.57.6-.57ZM142.8,54.4l3.9,2.74,0,2.51L142.77,57a10.06,10.06,0,0,1,0-2.6ZM75.46,58.29c.18,0,.25.62.3,1.51.07,1.49-1.44,3.55-3,4.26-1.84.86-3.81-.34-3.48-2.12S72,60.23,72,61.74c-.23.4.09.74.22.7a5.67,5.67,0,0,0,2.59-2.86,5.49,5.49,0,0,1,.52-1.25.12.12,0,0,1,.09,0Zm67.23-.46,3.9,2.84,0,2.5-3.87-2.66a13.7,13.7,0,0,1-.05-2.68Zm-47.25,4c-.29.49,0,1.37.56.62a1.6,1.6,0,0,1,2.59,1.89c-1.09,1.3-2.43.88-5.27-.2-2.06-.79-2.39-.52-2.9.05s-.2,1.41.34,1.4c1.68.38,3.13.75,4.86,1.11,3.66.75,5.89-4,2.55-5.7a2.46,2.46,0,0,0-2.73.83Zm-16.15.54C77.86,63.61,79,67,81.13,67.27A4.33,4.33,0,0,0,83,67.1c1.48-.42,3.1-1.29,3.16-1.8.3-2.3-3.13-.24-3.58,0a2.05,2.05,0,0,1-2.8-.21c-1.3-1.76,1-3.77,2.44-1.63.36.55.23-.37-.16-1a1.92,1.92,0,0,0-2.74-.17ZM143,61.6l3.66,2.59,0,2.4L143,64Zm.28,3.53,3.46,2.49.06,2.5-3.64-2.4c.07-.9.09-1.74.12-2.59Zm-19.44,1.43c3,0,4.77,4.55,3.16,6.42-.48.56-.86.71-1.08.5a9.84,9.84,0,0,1,.07-1.11,5.26,5.26,0,0,0-1.62-4.44c-1-1-1.37-1.35-.53-1.37Zm-37.52.72c-.58.2-1.19.62-1.66.52a.72.72,0,0,0-.87.49c-.7,1.4-.48,1.85.9,1.06.66-.38.89-.25,2.64.09a6.7,6.7,0,0,0,3.22-.08,3.81,3.81,0,0,1,2.88,0c.7.38,1.17.9,1.19.48s-.51-1.78-.61-2.2c0-.21-.39,0-.71,0-1.14.08-2.5-.94-3.38-.4-.7.43-.8.55-1.76,0a1.85,1.85,0,0,0-1.84.06Zm36.7.31c2.07,1.72,2.6,3.25,2.4,4.51-.11.91-.17,1.92-1.07,2.47a2.6,2.6,0,0,1-.64.16c.7-2.59-.12-4.91-3-7.39a2.1,2.1,0,0,1,2.35.25Zm-46.54,0a.82.82,0,0,1,.3,0c.36.11.41,1,.13,1.34s-.51.06-.84-.69c-.24-.41,0-.7.41-.7Zm-1.9.73c.75,0,1,.67,1.17,1.22s0,1.87-.43,1.38a4.41,4.41,0,0,0-.84-1.5c-.73-.55-.65-1.09.1-1.1ZM72.41,69a2.52,2.52,0,0,1,.42,0c1.17.2,2.08,2.07,1.8,3.13-.62,1.14-.85.38-1.06-.66a6.29,6.29,0,0,0-.93-1.45c-.62-.72-.71-1-.23-1.06Zm70.71-.55L146.71,71v2.75L143,71.26c.09-1,.13-1.88.16-2.8Zm-73,1.12a3.15,3.15,0,0,1,2.7,4c-.69,2-4.11,1.61-3.54-.43a.94.94,0,0,1,1.39-.65c.87.53.77-.34.23-.64a1.53,1.53,0,0,0-2.28.77c-.91,3.34,3.39,4.48,5.73,1,.86-1.26,1.79-2.61,2.3-3.19s.56-.47.49.2c-.3,3.11-2.47,7-6.53,6.78-3.95-.37-5.18-4.56-2.2-7.18a2.63,2.63,0,0,1,1.54-.69ZM91,69.75a4.71,4.71,0,0,1-4.18.34c-1-.45-1,0-.58.45,1.32,1.13,3.73.62,4.75,0,.34-.2.45-.8,0-.77Zm55.71,5v2.5l-4-2.68a11,11,0,0,1,.14-2.45Zm-3.86.83,3.81,2.51.1,2.48-3.7-2.3Zm.27,3.47,3.63,2.52.06,2.7-3.61-2.37ZM54.45,81.87l-2.23,6.72,1.45.09,1,1.77,1-1.82,1.53-.11Zm88.83.89,3.5,2.41.06,2.5-3.64-2.52Zm-.14,3.06,3.59,2.59.07,2.66-4.07-2.71Zm-80.4,1.5-2.2,7.2,1.24-.17L63,96.28l1.17-1.73,1.11.06Zm-16.59.53L44.05,95h1.41l1.19,1.8,1-1.74,1.6,0Zm96.52,1.32,4.22,3,0,2.82-4.08-2.74Zm4.17,6.69,0,2.47-3.55-2.52L143,93.07Zm-75.28.43L69,103.56h1.73l1.05,1.75.84-1.75H74Zm72,.72,3.29,2.26,0,2.53-3.24-2.17ZM81.18,126.44l-1.88-1.8a2.69,2.69,0,0,1,2.5-.42,2.61,2.61,0,0,1,.5,4.11,2.68,2.68,0,0,1-2.89,0Zm-1.67-3a3.81,3.81,0,0,0-2.64-4.07s-.21-17.64-.18-18.17c0,.08-.31-1.91-.35-2l-.29-.08c.06,1.79.17,20.12.14,20.24-2.27.26-2.9,1.8-3.11,3.86a3.45,3.45,0,0,0-3,1.11c-.65-.9-.12-2.09-.64-3-2.25,7.12,4,9.27,4.11,8.34.42,5.26,6.23,6.22,6-.17,7-.41,4.64-6.87-.11-6Zm-33-22.15L44,108.44l1.78-.2.65,1.32c2.86-2.52,4.29,1.36,2.84-2ZM143.13,114a.91.91,0,0,1,.85.68c.06,1.2-1.55.93-1.61.17a.84.84,0,0,1,.76-.85Zm1.06,7.83c.7-.58,1.81-.25,1.82.61s-.85,1-1.54.59a.79.79,0,0,1-.28-1.2Zm.1,2.12c3.82.29,6.66-2.31,5.44-4.17,1-1.29.2-2,.48-2.77a2.31,2.31,0,0,0-.08-2.63c-.16-2.4-.86-2.71-1.9-4-.31-.36.73-.73,1.13-1.36a1.88,1.88,0,0,1-2.09-.56l-.45-.56c-7.07.33-13.43.82-13.19,10.42-1,4.07.71,7.7,5.65,6.58,1.08-1,.36-2.37.23-3a8.39,8.39,0,0,1,.2-3.92c.43-2.68,2.39-5.17,2.6-1,.35-.53.19-.61.76-.83,1.35-.48,1.35.89,1.07,1.44-.18.28-.44.26-.72.23s-.91-.19-.92-.34c-.11.44.71,1.25.63,1.66s-.11.4.18.09c1.73-1.19,2.77,1.51.31,1.2,1.21.65-.59,2.55.67,3.52Zm-2.52-14.65c1.34-.06,1.66-.08,1.6.63.26,1.29.58,1.9,2.27,1.76s2.25-.33.54.71a3.41,3.41,0,0,1-2.18.36c-1-.09-1-.2-1.55.16a4.41,4.41,0,0,1-1,.49c-.39.06-1.09.22-1.09.22a7.74,7.74,0,0,1-1.85,4c-1.18,1.35-1.78,1.58-.33,1.48.54,0,.26-.24.49,1.94A12.45,12.45,0,0,0,139,123c.38,1,.43,1.48-1,1.55-3.58.28-4.42-3.21-3.94-5,0-.29.2-1.21.24-2,0-.4-.07-.74-.05-1.15.08-3.32.86-4.19,3.81-6.35a7,7,0,0,1,3.67-.8Zm3.14.18c1.65,0,3.25.76,2.45,1.28a4.1,4.1,0,0,1-2.88-.18c-.67-.47-.42-1.08.43-1.1Zm-73.66,2.82-.65,1.16-.69,5.4L70,120l1.36,1.76,1.07-1.83,1.68,0Zm77.23-.54a1.2,1.2,0,0,1,.85,1.79c-.6,1.32-4.6,2-4.6,2a3.06,3.06,0,0,0-.37-1.75,13.54,13.54,0,0,0,3.23-1.21c.37-.35.6-.78.89-.79Zm.8,3c.38,0,.59.28.7.85a1.18,1.18,0,0,1-.32.91,6.89,6.89,0,0,1-4.9,1.58,9.65,9.65,0,0,1,.18-1.77c1.37,0,3.68-1.18,4.34-1.57Zm-40.71,6.8c-1.37-2-4.39-1.68-4.07-1.55,0-1.68-.27-4-2.83-4.24s-3.9,3.21-2.92,4.64c-1.59-.66-4,1-4,1.16-.21,0-2,4.83,3.49,5.07a5.56,5.56,0,0,0,3.13,4.32l0,18.59.63.84,0-19.48c2.83-.12,3.18-3.35,3-4.1a5,5,0,0,0,3.35-.93l.34,3.17s.66-1.12.51-1.71c-1.23-18.25,5.38-38,14-50.8.47-.53.61-1.18.84-1.18,2.11-1.14,3.44-1.91,3.44-1.91,3.49,1.68,9.72,5.72,9.72,5.72l.1,26c-.1-.25,11.59-1.3,11.42-1,0,0-1-.4-1-1.09l-.3-60.85-5.12-3.35s-4.21,2.75-5.38,3.69l.12,35.83-9.06-5.31s.15-1.26.16-1.67c-.14-4.89-2.55-6.53-7.11-5.09-.62.2-1,.37-1.35.12C117.84,60.85,117,46.06,117,46.06l12.9-21.84,21.88-.13.38,83.48.61,44.32s-6.35,4.77-9.72,7c-.69.45-1.18.35-1.27.1s-.16-11.71-.21-18.67c0-5.83,0-9,0-9s-1.6-.36-2-.41c-.16,0-.36,0-.08.22a10.68,10.68,0,0,0,1.42.63l.24,27.78s-4.34,2.92-6.29,4.14c-1.44.9-6,3.2-8.73,4.53-1,.51-2.11.93-2.21,1-3.7,1.58-7,2.7-10.1,4.33-2.13.87-2,0-2.48-.67a13,13,0,0,0-14.79-2.62,10.9,10.9,0,0,0-2.21.91,2.41,2.41,0,0,1-.67.32,3.27,3.27,0,0,0-1.23.57A5.84,5.84,0,0,0,91,174.31a24.89,24.89,0,0,0-1,3.73c0,.12.24.09.24.11s.72-3,1-3.56a4,4,0,0,1,1.69-2.07c.17,0,.32.24.09.67a13.16,13.16,0,0,0-1,3.5c-.1.75-.12,1.36,0,1.39s.69-2.29,1-3.11c.79-2.14,1.29-3,2-3.47s1-.41.81.09A15.82,15.82,0,0,0,94,178c0,.47.2.49.4-.31.63-2.51,1.5-5.92,3.55-6.94.87-.39,1.26-.38,1.17-.09a13.65,13.65,0,0,0-3,7.62c0,.37.16.29.47-.51.83-3,2.06-5.63,3.51-6.89a3.3,3.3,0,0,1,1.82-.7c1.73-.22,1.79.42.28,1.3-1.71,1-3.69,4.62-3.9,7.34-.08.94.25,1,.49-.21,1-5.41,5.65-9,9.37-7.33,1.67.75,2,1.78.52,1.32-3-.93-6.22,1.16-7.57,4.07-1.22,2.63-1.2,4-.34,7.54.59,3.27,1.72,7.43,1.35,10.62-.41.62-1.68-.26-3.19-.44a5.73,5.73,0,0,0-3,.15c-.83.31-1.3.4-1.45-.05-.06-.15.63-.85.94-1.24.49-.62.21-.72-.48,0a7.83,7.83,0,0,1-1.27,1.14c-.43.09-.45-.4-.1-1.66,1.24-4.87.91-4.95-1.22-5.93-2.1-.8-1.43-1.21-2.37-2-.65.52.86,2.87,2.57,3.39,1.41.41,1.23,1.13.62,3.06-.62,2.69-1.68,6.26-1.07,8.66,1.29,5,6.4,4.93,10.32,2.9l.47,1.28c-3.3,1.34-20.75,2.48-26.62,1.81a16.4,16.4,0,0,1-.68-3.87A31.36,31.36,0,0,0,81,203.86c2.26.35,5.74.37,6.64-1.71.27-.62,0-1.13-.79-.78a14,14,0,0,1-5.87,1A13.74,13.74,0,0,1,75.9,201a1.15,1.15,0,0,1-.52-1.59c.34-.07.78.3,1.05.44,3,1.51,4.65,1.8,6.61,1.23,1.48-.44,3.48-2,3-2.5-.51.17-2.17,1.57-3.32,1.88-2.36.62-4.88-.34-7.33-1.93-.76-.65-.41-1.13.51-.61,3.68,1.85,5.21,3.08,8.73.48.79-.58,1.22-.51,1.68-.15,1.83,1.63,1.83.71.49-1a4.59,4.59,0,0,1-.76-1.5,3.27,3.27,0,0,0-.41-1.12,5.73,5.73,0,0,0-2-1.09c-1.23-.54-1.64-.28-.73.16,1.59.78,2.37,1.61.39,1.16a7.58,7.58,0,0,0-6.49.83c-1.33.65-1.92,1.34-2.23-.13-.66-3.06,0-7.22-.9-12.57-.17-1-.38-1.67-.16-1.81s1,.48,1.8,1.67c.39.55,1.16,1.59,1.15,1.37,0-1.13-1.73-3.26-3.18-4.09-.8-.47-1.35-2.59-.43-2.12a26.69,26.69,0,0,1,5.07,4.72c.33.53.6.19.26-.44a14.17,14.17,0,0,0-1.91-2.3c-1.49-1.45-1.66-1.39-1.37-1.68.56-.59,1.77.17,3.93,2.12.55.7,1.28,1.33,1.19,1,.22-.54-1.94-2.86-3.22-3.48a.55.55,0,0,1-.25-.6c.12-1.1,2.61.51,4.66,2.39.77.71.13-.62-.76-1.52a9.29,9.29,0,0,0-2.6-1.89c-.76-.31-.81-1-.21-1.26,2.06-.08,4.19,2,5.46,3.68.35.46.67.81.31,0a7.74,7.74,0,0,0-5.32-4.35c-1.37-.24-1.34-1.49,0-1.35s3.75,1.44,5.72,3.43c.58.57,1.54,1.89,1.34,1.12a6.73,6.73,0,0,0-1.31-1.82,11.75,11.75,0,0,0-5.48-3.44c-.93-.27-3.69.27-3.7-.22s.29-.56,1.17-.85c3.41-1.14,8.4,1.79,11.13,6.3.2.32.57.46.59.39-1.32-3.69-5.42-7-8.67-7.6-2.22-.35-4.46.21-5.52,1.71-1.19,1.68-.73,3.93,1.07,3.75.94-.09.86-.62.85-.64s-.61.19-1,.12c-1.23-.23-1.1-2.46.7-2.24,2.06.26,2.35,3.51,0,4.2-2.14.63-2.92-.34-3.5-1.49-.86-1.7.06-4.43,1.57-5.47,4.21-2.93,9.54-.48,12.56,2.43a13.26,13.26,0,0,1,3.26,5c.18.43.49.4.38,0-4.24-10.81-16.88-12-18.76-3.69,0,0-.06.26-1.28-1.47-2-2.8-4.92-3.43-8.54-1.52a52.35,52.35,0,0,0-7.44,3.57c-.37.13-2.72,1.75-3.09,1.41-3.6-2.39-6.74-3.2-8.44-4.94.05-.33-.25-5.17-.25-5.17l.08-20.9c0-.21-1.9.14-5.12.64-8.54,1.7-7.79-2.79-8.92-3.11-.6-.11-.55.14-.72-16,0-4.68-.14-12.91-.2-18.28s-.09-9.86,0-10a5.94,5.94,0,0,1,1.08-.89c2.08-1.48,3.25-2.37,7.8-5.84a13.72,13.72,0,0,1,1.29-.93c.53,9.68.06,19.85.32,28.17h.38l-.15-27.94c-.79-.21,18-11.18,28.24-14.74.19-.07.67.15.67.15,5.9,7.23,21.41,5,22.66-3.76,2.57,5.37,13.87,15.79,19,3.22,0,0,1.87,3.61,3.47,3.85,3.61.48,4-.09,12-3.94a86,86,0,0,0-14.72,46Zm-4.83-3.44a3.75,3.75,0,0,1,.1,2c-.23.48-.58.48-.58.48l-1.76-1.51-1.71,1.6a2.43,2.43,0,0,1-.48-2.53,2.47,2.47,0,0,1,4.43-.06Zm45.42-.24c1.13-.07.55,1.23-1.12,2.1a3,3,0,0,1-2.29.51,1.88,1.88,0,0,1,.1-1.41,27.78,27.78,0,0,1,3.31-1.2Zm-72.64,2.44a2.31,2.31,0,0,1,2.37,2.43,3.14,3.14,0,0,1-.32,1.29l-2.09-1.54-1.59,1.69c-.27.1-1.25-1.12-.58-2.44a2.49,2.49,0,0,1,2.21-1.43Zm30.18.72a2.36,2.36,0,0,1,.35,4.2c-.81.45-2.09.7-2.68-.21l1.72-1.88-2-1.67a3,3,0,0,1,2.59-.44Zm42.16-.64c.3,0,.37.11.46.4.25.8-.38,1.6-1.46,1.86s-.9.35-1.38-.54c-.37-.7-.47-.67.11-.89s1.45-.5,2.27-.83Zm-50,1.2s-1.25,1.27-1.8,1.8L99,125.35c.09.24-2.16,1.26-3.35-.28a2.67,2.67,0,0,1,.76-3.55c1.11-.67,2.71-.11,2.51.08Zm2.68-.22a2,2,0,1,1-2,2,2,2,0,0,1,2-2Zm-27.4,3.37-1.8,1.89,2,2.11a10.15,10.15,0,0,1-2.09.15c-2.64-.49-2.39-3.6-.34-4.42a2.41,2.41,0,0,1,2.28.27Zm-35.29.65s.35,4,.67,5.34c-.21,1.56-1.21,2.62-1.66,4.21-.25.71-1.15,1.66-1.33.66-.65-1.23,0-2.76-.57-3.64a16.63,16.63,0,0,1-.37-2.15c-.4-.71-.72-1-.67-1.67-.1-2.82-.81-2.26-2.06-2a12.47,12.47,0,0,0-3.24,1.08c-1.77,1.25-.81,2-1.48,3.85a4.75,4.75,0,0,1,.17,1.83c-.69,3.37.58,3.09.54,3.14-.53.77.12,2.51.37,2.42,1.54.38,1,1.5,1.48,2.1s.48.87,2.59.92c3.81.3,9.87-.26,11.17-4.91.82-6.55,2-12.33-5.61-11.15Zm37.88-.65a1.94,1.94,0,1,1-1.9,2,1.94,1.94,0,0,1,1.9-2Zm-36.21,1a3.12,3.12,0,0,1,2.27.81c1.49,1.43,1.55,2.73.89,8.25a5.28,5.28,0,0,1-1.46,3.42,13,13,0,0,1-4.71,2.31,7.86,7.86,0,0,1-2,.19c-.57,0-.9-.27-.94-.74.13-1.28-1.19-1.41-1.95-1.34-1.35.06-1.49.2-.65-.46s3.19-.75,3.61-.32a4.28,4.28,0,0,1,2.88-1.09,2.4,2.4,0,0,1-.29-1.82,11.15,11.15,0,0,1,2.54-3.46c1-1.3.16-.71-.47-.69-.35,0-.32-.1-.38-.34a21.36,21.36,0,0,1-.6-4.06c0-.55.51-.65,1.23-.66Zm-6.38,1.41a.75.75,0,0,1,0,1.2.86.86,0,0,1-1.42-.6.89.89,0,0,1,1.45-.6Zm67.53,2.76a2.5,2.5,0,0,1-2.34-3.38c.33-.47.47-.41.47-.41l1.85,1.65,1.78-1.85a2.38,2.38,0,0,1-1.76,4Zm-69.51-2.69a3.21,3.21,0,0,0,.06,1.26c-.32.23-1.69.63-2.42,1a.63.63,0,0,1-.81-.74c.19-.82,1.39-1.35,2.26-1.6a1.13,1.13,0,0,1,.91.09Zm.3,2.34c.5-.06.35,1,.16,1.57-.18.39-.73.38-1.21.4-.87.05-2,1.05-2.43.89-.15-.07-.26-.48-.28-.74.1-1.44,2.49-2,3.76-2.12Zm2.62,1.5a1.18,1.18,0,0,1-1.15.23.89.89,0,0,1-.2-1.6c1.13-.37,1.81.69,1.35,1.37Zm71.76-2.38-1,1.5-1.5,0,2.42,7.43,1.12-2.9c.15-1.33.33-2.67.47-4ZM75,129.34,77,130.9l1.64-1.68c1.23,2.73-.18,4-1.68,3.94s-3.41-1.61-1.87-3.82Zm-42,2.81c.6-.11.34,1.53.26,1.58a8.7,8.7,0,0,0-2.76,1c-1.5,1.17-2.14.46-1.45-1,.66-.82,3.08-1.56,3.95-1.58Zm1.9.08a.87.87,0,0,1,.73,1.38.9.9,0,0,1-1.52-.59.8.8,0,0,1,.79-.79Zm-1,4.16c.09.38,0,.27-.75.47a11.32,11.32,0,0,0-1.62.69c-.93.47-1.19.72-1.52.67s-.57-.17-.65-.43c-.32-1.06.54-2.15,2.55-2.89a8.36,8.36,0,0,1,1.43-.3c.68,0,0,1,.56,1.79Zm1.18-1.59c1,0,1.16,1.27.43,1.5-1.7.44-1.56-1.5-.43-1.5Zm-1.19,4.75a.58.58,0,0,1,0,.91c-.56.28-2.72,0-2.73-.56,0-.4.71-.53,1.38-.54s1.13,0,1.35.19Zm97.32.66-1.78,2.38,2.39,6,2.17-7.23-1.71.67Zm-100.5,6.13c.41,18.38.34,60.48.34,60.48l5.23,3.56,5.51-3.95c-.06-13.26-.11-22.4-.16-34.68l8.07,4.44a4.29,4.29,0,0,1,.21,2c-.56,4.58,3.87,7.55,6.81,5.75,1.13-.48,1.22-.56,1.46-.21.66,1,1.41,5.21,1.53,7.9C59.92,195.7,61,204,61.25,204L48.11,226.27l-20.47.1-.23-82.76c1.06,1.26,1.54,2.08,3.32,2.73Zm76.21-1.77-1,1.5h-1.19l2.09,7.69,2.52-7.52-1.39-.17ZM41.18,205.9s-2.55,1.83-3.37,2.36c-.43.16-.64.19-.74-.22a13.7,13.7,0,0,1,.25-3,10.6,10.6,0,0,0-.08-3.61,18.94,18.94,0,0,1-.08-5.13,46.94,46.94,0,0,0,0-8.23,54.43,54.43,0,0,1-.06-8.32,29.35,29.35,0,0,0-.22-7.41c-.66-3.68-.77-5-.08-7.73a9.4,9.4,0,0,0,.33-3.32,39.88,39.88,0,0,0-.78-6.84c-.4-2.46-.43-2.8-.06-6.69.07-.79.1-1.31.4-1.56a22.1,22.1,0,0,1,4-.51Zm-9.59-59.49,4,0a13.84,13.84,0,0,0-.41,3.09l-3.53-2.32Zm.06,1.59,3.49,2.28a20.72,20.72,0,0,0,.07,2.84l-3.54-2.35Zm0,3.61,3.73,2.56c.15,1,.45,2,.57,2.89l-4.23-2.86Zm120.82,1,.19,73.38-37.19.16-11.79-22.64a21.37,21.37,0,0,1,.42-3.15c.35-1.29.44-1.56.94-1.63a2.48,2.48,0,0,0,3.25-1.22c.55-1.24-.57-3.11-2.3-3.52a3,3,0,0,0-2.43.81c-.49.4-.6.45-.7.1-.22-.8.49-3,1.76-4.84.71-1,.9-1.34,1.12-.94a2.28,2.28,0,0,0,3.66.36,2.77,2.77,0,0,0-1.34-4.24c-4-1.29-5.88,2.76-5.83,2.75l-.86-4.85c4.85-1.19,7.65-1.61,9.19-3.08a6.32,6.32,0,0,0,1.64-4.94s13.48-5.48,19.79-8.88a151.53,151.53,0,0,0,20.48-13.63Zm-20.53.53-1,1.76h-1.42l2.86,7.4,2.19-7.73-1.36.12ZM31.84,155.28l4.28,2.95a12.58,12.58,0,0,1,.08,2.9l-4.5-3Zm83.52-.91-1.07,1.42-1.23-.13,2.41,7.33c.73-2.12,1.4-5,2.12-7.12l-1.14.06Zm-83.6,4.68L36.19,162a5.33,5.33,0,0,1-.26,2.4l-4.18-2.68Zm91.9.42-1.08,2.07-1.43-.2,2.56,7,2.8-7-1.73.09Zm-91.89,3,3.84,2.82a19.29,19.29,0,0,0-.16,2L31.8,165Zm.1,3.48,3.58,2.46a15.13,15.13,0,0,0,.22,2.61l-3.88-2.53Zm-.06,3.56L36,172.45l.22,2.37-4.39-2.75Zm34.08,1c4,1.48,7.7,9,7.59,18.81-.08,6.79,2,16.49,1.93,16.37s-1.15.16-1.48-.09A64,64,0,0,1,71.7,191a77.66,77.66,0,0,0-.63-8c-.65-2.92-1.36-6.33-3.23-8.55-1.45-1.68-3.11-2-4.11-.09-.81,1.55.9,4.09,2.32,3.24.34-.19.55-.51.1-.5a1.77,1.77,0,0,1-1.53-2.8c1.64-1.71,4.52,2.11,3.18,4.2-.59.91-2.12,1.07-3.35.74a5.28,5.28,0,0,1-2.5-6.69,3.14,3.14,0,0,1,3.94-2Zm-4.8,1c.32,0,.1.61-.2,1.53-.7,2.23.62,5.69,2.44,6.38.55.37.52.51.15.72-1.19.67-3.35-1.34-3.92-3.58-.42-1.62-.31-3.53.47-4.34a2.06,2.06,0,0,1,1-.71Zm-29.32,1.31,4.42,2.89a7.93,7.93,0,0,1,0,2.83l-4.42-3.08Zm26.68,0c.32,0,.2.54.11,1.55a5.86,5.86,0,0,0,2.15,5.4c.69.6.88.78.58,1.09s-1.63-.15-2.58-1.14c-1.74-1.81-2.32-5.24-1-6.48a1.31,1.31,0,0,1,.7-.42Zm49.17.4c1.89-.07,3.48.66,3.66,3,.26,3.38-2.89,5.23-5.09,3.29-2-2,0-5,2.31-3.57,1.15.72-.22,2.37-1.15,1.52-.42-.38-.6-.14-.3.3.9,1.34,2.66.23,2.54-1-.25-2.32-3.11-2.29-4.18-1.38a25.1,25.1,0,0,0-3.74,4.42c-.79,1.15-1,1.12-.84-.31.31-3.78,3.84-6.16,6.79-6.28Zm-51.45.74c.3,0,.18.42.21,1.54A6.62,6.62,0,0,0,59.23,181c.51.57-.14,1-1.11.7-2.19-.68-4.43-5.39-2.57-7.42.26-.28.46-.43.62-.44Zm-2.13.94c.3,0,.13.61.16,1.8a6,6,0,0,0,2.7,5.24c.61.5.69.45.44.72-.63.74-2.8-.3-3.72-1.8-1.1-1.79-1.26-4.49-.24-5.51.29-.28.5-.44.66-.45ZM51.92,176c.25,0,.11.45.15,1.53.09,2.63.69,3.93,2.36,5.14,1,.77,1.3.54,1,.84-.56.53-2.09.07-3.25-.89-1.72-1.46-2.2-5.05-.8-6.28.25-.22.43-.34.56-.34Zm-20.08.37,4.25,2.94L36,181.83,31.74,179Zm74.29,4.66a2.5,2.5,0,0,1-2.18-3c.07-.47.35-.74.64-.12.26,1,.91,2.34,1.8,2.6.37.11.07.61-.26.54Zm-37.2-2.93c1.95,4.91,1.92,10.27,2.24,15.34.43,6.74,1.62,11.28,2,12,0,0-1.9,0-2-.26,0,0-1.8-8.93-1.53-13.35a41.22,41.22,0,0,0-1.53-11.24c-.62-1.73-.65-.59.81-2.53ZM31.82,180l4.09,2.68c-.06.91-.07,1.82-.06,2.74l-4-2.84Zm55-.23c0,.15.59.28,1.51.05a5.85,5.85,0,0,1,2.83,0c.84.22.93,0,.17-.37a3.82,3.82,0,0,0-1.83-.51c-.88,0-2.69.49-2.68.81Zm16.56-.1a7.68,7.68,0,0,0,.68.92c.53.61.68.61.44.86-.55.58-1.71-.26-1.84-1.32-.11-.77.28-1.26.72-.46Zm-36.6.21c1.9,2.72,2.19,9.1,2.23,13.64a66.82,66.82,0,0,0,1.53,11.53,1.69,1.69,0,0,1-1.42,0c-.49-.64-.79-2.43-1.37-7.29-.14-1.25-.43-5.23-.5-8.44,0-2.83-1.63-8.95-1.63-8.95a2.5,2.5,0,0,1,1.16-.45Zm-2.13.68c1.74,3.88,2,7.74,2.1,12.41a86.74,86.74,0,0,0,1.43,11.9c-.59.06-1.21.11-1.45-.16a2.4,2.4,0,0,1-.36-1,85.17,85.17,0,0,1-1.21-11.51c-.34-5.45-.43-6.8-1.2-9.52-.44-1.54-.59-1.51-.26-1.81a1.65,1.65,0,0,1,1-.33Zm19.56.89c0,1.81.28,1.07.92.78.48,0,.87.23,1.77.55,1.13.42,1,.56,1.83.17.49-.24.89-.33,1.12-.13a2.18,2.18,0,0,0,2.82-.29,2.71,2.71,0,0,1,1.56-.08c.65.06.47-.35.56-1.17s-.21-.79-1-.55a3.62,3.62,0,0,1-2.2.08,7.49,7.49,0,0,0-3.79,0c-2,.31-2.11.11-2.56-.18a4,4,0,0,0-1.08-.59c-.2,0-.13.67,0,1.45Zm17.7-.83c.19-.09.28.16.54.51.45.57.58.85.21.9-1,.14-1.23,0-1.19-.57s.13-.68.44-.84Zm-39.31.86c1.44,1.45,1.81,9.58,2,11.33.52,9.48,1.42,10.84,1,11.56-.54,0-.73.19-1.09-.29-1.23-3.47-1.16-7-1.35-10.67a42.86,42.86,0,0,0-1.44-9.77c-.45-1.59-.44-1.61.37-2.05a1.8,1.8,0,0,1,.59-.11Zm-1.94,1.14a44.35,44.35,0,0,1,1.67,10.91,84.87,84.87,0,0,0,1.12,10.64,1.5,1.5,0,0,1-1.4-.45c-1.57-6.92-1.07-13.62-2.89-20.58a1.07,1.07,0,0,1,1.5-.52Zm-28.74.86,4.24,3,.09,2.6-4.33-3.07Zm63-.33c-2.4.93-3,1.69-2.64,2.36s1.27.36,3.82-.7c1.9-.8,2.5-.45,2.89.75,0,1.78-1.74,2-2.71,1.74-.42,0-.35,0,.09.58,2,1.55,4.4-1.48,3.19-3.4-1-1.75-2.58-2.25-4.64-1.33Zm-15,.72c-2,1.55-1.27,4.34.37,4.76a1.66,1.66,0,0,0,1.41-.06c.24-.16.24-.43-.26-.51-1.53-.25-2.4-1.37-1.66-2.51s2-.89,4.59.21c2.21.95,3.17.66,3.43-.48.11-.5,0-1-1.08-1-2.94-.11-4.89-1.89-6.8-.39Zm26.43,4.27c-.14-.8-1.44,0-2.31,1.45s-.94,1.6-1.11.14c-.26-2.17,2-3.86,3.39-3.92,1.7-.19,2.81.76,2.85,1.85a1.43,1.43,0,1,1-2.82.48ZM31.78,186.9,36.27,190a18.15,18.15,0,0,1,.06,2.54l-4.51-2.88Zm53.9,1a2.23,2.23,0,0,0,.56,4c1.44.28,1.55-.72.11-1a1.11,1.11,0,0,1-.66-1.59c.68-1.11,1.94-.39,2.68,0,1.63.77,2.47,1.06,3,.52.91-.95.09-2.65-1.11-2a1.5,1.5,0,0,1-1.27.14,5.31,5.31,0,0,0-3.3,0Zm-53.86,2.63,4.42,3-.14,2.67-4.14-3Zm.09,3.67,4.16,3a14.25,14.25,0,0,0,0,2.3l-4.2-2.71Zm73.45.57c3.33.32,2.22,4.15-.1,3.12-.62-.47-.81-.43-1.5,1.25-.88,2.14-1.1,2-1-.51s1.2-3.84,2.57-3.86Zm-26.24.58a.39.39,0,0,1,.18.05c.22.25-.45,1.25-1,1.83-.42.28-1.44-.47-1.2-.83a4.66,4.66,0,0,1,2.05-1.05Zm4.44,2-.6.09c-.89-2-2.76-1.55-3.34.31l-.82-.09c.83-2.28,3.79-3.68,4.76-.31Zm16.77.46-1,.06c-.9-2.17-2.18-2.5-3.27-.35l-.78-.23c1.34-2.74,3.59-3,5.06.52Zm-5-2.48c.52,0,.45.21-.09.94s-.57.74-1,.39c-.77-.57.5-1.29,1.13-1.33Zm4.78.07a1.55,1.55,0,0,1,.34,0c1,.26,1.52.75,1,1.38-.31.4-.62.55-.83.29-.7-1.16-1.09-1.75-.51-1.71Zm-15.69.68c.11.43-.23.73-.61.38a.81.81,0,0,1-.27-.58.64.64,0,0,1,.88.2Zm-52.51,1.48,4.27,3.06a17.9,17.9,0,0,1,.16,2.64l-4.39-2.91Zm62.24.93c2.46,1.68,5.35,1.66,7.15.18.4-.33.76-.35.76,0-.26,1.18-3.39,2.7-5.84,1.84a6,6,0,0,1-3.34-2.2c-.52-.82.56-.29,1.27.21Zm-1,.82c3.6,3.1,6.45,2.23,8.62.67.32-.08.33.21.4.74.09.69-.48,1-2,1.5-3,.9-6.54-.09-7.18-2.11-.07-.4-.23-.91.2-.8Zm-61.21,1.85,4.32,3-.13,2.26-4.22-2.85Zm.06,3.48L36,207.42v1.88l-4-2.84Zm29.69.88c17.43,3.95,29.79,2.07,41.92-.06l10.74,21.07-64.74.08c4.23-6.85,7.74-14.33,12.08-21.09Z"/><path d="M5.85,11v2.3H8.19v20H5.85v2.48h6.82V33.25H10.86V27.58l2.74-3.79,4.11,9.46H15.09v2.48h7.45V33.25H20.76L15.3,21.08l5.18-7.85,1.93,0V11H15v2.3h2.13l-6.28,9.64V13.27h1.87V11ZM63.24,23.31l3.22,6v.29l1.78,3.48.27.17.41.76,0,.37L70,36v.34l4.22,7.85c3.48-1.29,32.1-3.64,42.7.2l1.54-2.62h.37L121.51,37l0-.4.91-1,.14-.48,3-4.69v-.76l3.76-6.26Zm64.79.9s-2,3.77-3,5.29c-.81-.65-3.18-.21-3,2.29-3.86-1.47-4.79,3.14-1.81,4.18-1.53,1.33-3-.18-4.16-1.2-1.13.28-3.49,1.11-4.82-1.34,0,0,.56.3,1.11.63,3.16,1,3.41-3.31,1.06-4a5.43,5.43,0,0,0-.85-.11c.79-3.28-4.28-4.42-4.37-.48a3.83,3.83,0,0,0-1.06,0c-2.69.49-2.07,4.45.67,4.26a3.58,3.58,0,0,1,.72,0c-.05.64-3.37,1.85-5.76-.33-1.14.86-2.94,1.95-5.28-.21,1.54-.06,3-.5,3-2.25A2.41,2.41,0,0,0,98,28.75a2.68,2.68,0,0,0-2.26-2.57,2.44,2.44,0,0,0-2.28,2.57,2.32,2.32,0,0,0-2.19,2.55c.37,1.76,1.73,2,3.28,1.64-1.88,3-5,1.45-5.89.49-1.13,1-3.09,2.46-5.51.52,1.29-.22,2.72-1,2.48-2.77a2.3,2.3,0,0,0-2.47-1.76,2.24,2.24,0,0,0-2.37-2.32c-1.82.17-1.72,2.47-1.7,2.49a2.23,2.23,0,0,0-2.16,2.78c.52,1.37,1.61,1.79,3.62,1.42-2.34,2.2-3.83,1.35-5.11.89a3,3,0,0,1-4.19.51c3.47.17,2.91-6-1.19-3.73-.36-1.15-.89-2.56-3-2.24l-2.45-4.73ZM48.71,28.13l-.54,0c-6.63.42-9.08,5-8.77,9.12a8,8,0,0,0,3.9,6.38c.94.72,1.13,1,1,1.32s-.46.36-1-.13C35.69,37.58,25,46.11,29.73,55.52,33.49,63,44,61.28,46.3,52.85c.18-.67.47-1,.78-.78s.05,1-.13,2.32c0,4.77-5,12.28-5.23,12.54l13,0A24.36,24.36,0,0,1,49.64,53c0-1.76.62-1.39,1.18.61,2.54,9.11,14.13,9,16.75.15C70,45.5,60.8,38.58,54.7,44.16c-.88.8-1.48.94-1.49.36a5,5,0,0,1,1.57-1.75,7.71,7.71,0,0,0,2.81-5.68,8.72,8.72,0,0,0-8.88-9Zm-7,38.8h0Zm54-36.68a1,1,0,0,1,.52.11c.54.28.64.76.31,1.47a1.76,1.76,0,0,0-.26.8c3.82,7,12.23,3.89,13,.62a1,1,0,0,0-.15-.66.94.94,0,0,1,.14-1.34,1,1,0,0,1,1.65,1.2,1.29,1.29,0,0,0-.17,1c2.16,4.9,6.46,5.27,10.07,3.33-1.67,3-8.11,4.79-10.81-2.37-4.32,5.84-11.18,5.73-14.28-.86-2.8,6.74-11.24,6.9-14.31,1.3-2.8,6.41-9.28,4.95-11.11.94,6,4.36,10-.19,10.7-2.13a2.74,2.74,0,0,0-.33-.41c-.77-.76-.75-1.65.05-2a1.08,1.08,0,0,1,1.45,1.49c-.15.27-.28.33-.18.56,1.88,4.37,11.11,5.64,13-.49a1.35,1.35,0,0,0-.14-.94,1,1,0,0,1,.85-1.58ZM68.8,32.72c1.46.08,1,1.34.76,1.43Zm54.07.78s-.9,1.62-.9,1.62c-.48-.77-.36-1.72.9-1.62Zm-4.93,8.07a11.7,11.7,0,0,1-1.23,2.24c-17.25-4.42-41.31-.58-41.9-.16l-1.06-2c15.12-3,30.2-2.38,44.19-.09ZM13.6,40.88a4.1,4.1,0,0,0-1.68.39c-3,1.36-3.26,4.8-.56,7.52a5,5,0,0,1,.78.91c0,.31-.3.25-1-.19C7,47,3,50,4.64,54.3c1.35,3.48,6.7,3,7.52-.74.11-.49.47-.79.63-.52a9.43,9.43,0,0,1-.66,3.14A18.58,18.58,0,0,1,11,58.83c-.38.68-.41.91-.11,1A38.81,38.81,0,0,0,16,59.67a7.21,7.21,0,0,0-.43-1c-.94-1.95-1.65-5.33-1.21-5.71.25-.22.33-.11.67.89,1.67,4.94,7.89,3.75,7.76-1.49-.08-3.57-3.34-5.13-6.28-3-.67.49-.87.51-.93.14,0-.15.1-.32.33-.48,3.73-2.52,1.47-8.15-2.27-8.1ZM88.81,72.13c-1.66,6.43-5.69,7.08-10.56,7.86-6,1-10-1.23-11.8-4.59,0,0-8.63,3.26-11.77,5.15,6.54,3,15.19,9.64,20.1,17.18,1.75,2.3,1.67,1.78,1.66,6.82,0,10.93,0,15,0,15,2.7.41,2.85,2.26,2.7,4.35,2.17-1,4.25.21,4.24,2.26,0,3.76-3.71,2.74-4.47,2.32,1.2,3.32-.21,4.69-1.65,4.85-1.78.2-3.81-.65-3.22-4.44a3.63,3.63,0,0,1-4.72-2.9l-.09-3.87c4.78-9-1.23-16.32-6.87-18.72,0,0,1.6-3.3,3.66-4.23.21-.06-1.25-2.2-3.7-1.74-1.14,0-.87,0-1.93-1.36-2.11-2.73-3.1-2.92-5.15,0-.9,1.29-1.12,1.32-2.18,1.34A4.85,4.85,0,0,0,49.71,99c-.08.17.38.35,1,1.06.88,1,2.24,2.44,2,3.88-4.65,1.89-12.35,10.18-4.25,20.8l-5.86.07-.28-37.78-4.07,2.26.18,29.6-1.16-.39c.09-9.44-.06-18.87-.35-28.31L26.19,98.05l.48,44.38,1.15.24c.84,6,12.82,1.81,13.52,2.34l.14,24.66L41,170.89l9.53,5.21,8.74-4.53a8.67,8.67,0,0,0,1.62-.45c3.63-1.91,6.33-1.48,8.31,1.32,1.21,1.73,1.42,2,1.42,2,.73-5,5.15-6.83,9.44-5.53,3.16,1,7.47,4.1,8.79,7.94a3.91,3.91,0,0,0,.47.84l.18.08c0-.1-.21-.58-.28-.81-4.43-10.16-16.89-11.72-18.81-3.42l-1.77-2.47,9.28-5.69,12.69,8.34s-.6,2.94-.67,4.2l.22.11c.06-.17.15-.77.21-1.15a10.19,10.19,0,0,1,1.06-3.44,4.47,4.47,0,0,1,1-1.3c.76-.44,1.46-.4,2.23-1.12l-1.85-1.38,0-4.45,3.72,5.22c1.17-.27,5.73-1.63,8.44-.13.3.1,4.27-1,6.73,4.5l11.89-4.94s.76-.42.77-.54c-11.86-4.37-23.82-19.86-22.67-20.11,0,0,0-1.59,0-5.49.1-4.34,0-8.78.12-13.14-4-1.29-3-4.54-3-4.54-2.43.53-2.81.06-3.43-.37L95,121.53a3.89,3.89,0,0,1,4.12-1,4,4,0,0,1-.08-3.25,3,3,0,0,1,3.87-1.09c1.84,1.25,1.25,3.87,1,4.24a3.54,3.54,0,0,1,4.81,2,102.8,102.8,0,0,1,1.89-16.69,94.6,94.6,0,0,1,9.67-25.21c.69-1.2,1.58-2.41,2.29-3.54a14.65,14.65,0,0,0,1-1.67,9.94,9.94,0,0,1-1.86.77,11.1,11.1,0,0,0-2.58.89A13.93,13.93,0,0,1,115.64,79c-3.8,1.48-6.36-.72-7.94-4.1-.88,4.29-4.81,7.91-10.61,5.66-3.27-1.74-4.3-2.85-7.36-7.38a4.48,4.48,0,0,0-.92-1Zm.13.71c2.17,4.28,5.41,7.31,8.56,8.52a7.89,7.89,0,0,0,10.39-5.06L109,78.13l-8.52,6.05L87.59,76a22.26,22.26,0,0,0,1.35-3.17Zm38.69.29-3.82,2.25s-2.53,4.09-3.39,5.63a86.53,86.53,0,0,0-9.53,24.91,112.51,112.51,0,0,0-1.7,11.51,68.6,68.6,0,0,0-.27,10.14l.3.32s-.47.82-.8,1.51a9.3,9.3,0,0,0-1.08,5.12,13.52,13.52,0,0,0,7.48,11.78l.57.25a11.31,11.31,0,0,1-2.08,3.4c-.9.94-1.09,1-.77,1.44.44.65,1.86,1.2,3.62,1.18.62,0,.62,0,1.77,1.24,2.25,2.46,2.93,2.4,5-.37a1.92,1.92,0,0,1,1.84-1.05c1.31,0,3.7-1.09,3.69-1.58-1.61-.71-3.48-4.39-3.18-4.43,8.81-4.66,10.67-14.31,4.24-21.41l6.14-.1.23,38.52c1.2-.8,3.92-2.51,3.92-2.51l-.09-30a14,14,0,0,0,1.68.51l.24,28.35a9.82,9.82,0,0,0,1.49-.78c3.43-2.26,10.15-7.49,10.15-7.49L153,107.81h-.89l.14,43.66-10.43,7.62L141.78,132l1.13-.17c3.05-.43,4.47-4.31,2.45-6.86-.73-.9-.22-.84,1.31-1.13,2.72-.24,4.22-2.29,3.43-3.75-.34-.63.1-.56.39-1.15a2.88,2.88,0,0,0,.07-1.51,1.88,1.88,0,0,1,.29-1.26,2,2,0,0,0-.39-1.85,2.57,2.57,0,0,1-.31-1.64c0-.88-.34-1-1.28-1.87-.71-.65-.14-.79.91-1.32,1.64-.85,1.76-3.85-.43-5.12-1.17-.68-3.3-.63-7.91.1-1.75.27-3.8.46-3.8.46s0-17.08-.14-25.88Zm0,.6s9.37,5.48,9.29,5.63c-3.14,4.31-14.87,21.47-15,42.23-8.6-1.09-12.12,5.64-12.54,5.61a84.54,84.54,0,0,1,14.46-51.28Zm-5.91,3.34,0,.62-1.85,2.78,0-2.78Zm-2.86,1,.06,4.47-3.79,2.9-.23-4.66Zm-35.24,1,1.95,1.35-.07,4.43-2.94-5.35Zm53.48,1.49,0,3.21c-7.5,10.58-11.43,22.65-12.64,37.94l-1.82,0a72.37,72.37,0,0,1,14.44-41.1Zm-50.76.33,4.62,3-.2,5-4.2-2.69-.39-1Zm28,.22,0,4.7-3.57,2.65-.17-4.66ZM71,82.33c.53,0,.95.39,1,1.12.39,3.12,2.77,2.23,3.33,3.16.22.32-.29.6-1.92.47-3-.22-5.15-2.64-3.63-4.23A1.77,1.77,0,0,1,71,82.33Zm20.61,2,3.95,2.52v5.19l-3.88-2.36Zm18,0L110,89l-4.32,2.87-.15-4.56Zm8.22,0-2.48,5.28-14.48,10.42-12-7.78-2.23-5.1,14,9.14Zm-39,2.09c3.85,0,6.8,4,7.82,7.62.73,2.36.84,3.22.92,7s.2,4.49.92,5c.44.33.57.24.62-.43.13-1.51,1.92-.58,1.95,1,0,1.76-1.9,2.33-3.33,1-.76-.72-.77-.71-1,.7-.16,1-1.26,6.88,1.56,8.35.53,0,.66-.37.26-.87-.79-1,.79-2.14,2.08-1.51,1.56.77,1.4,3.28-.26,4.17-1.91,1-4.37-.14-5.52-2.6-.84-1.8-.84-4.31,0-8a24.83,24.83,0,0,0,.65-4.12,8.59,8.59,0,0,1,.12-1c.09-.4-.11-.42-.79-.07-1.87.94-3.9.27-4.4-1.45-.59-2,1.69-4.17,3.1-2.87.54.49.48,1-.16,1.29-1.12.55-.74,2,.44,1.71,3.89-1.17.34-12.08-4-12.84-2.89-.5-5.16,2.8-3.07,4.56.82.7,1.66.32,1.48-.65-.25-1.36,1.56-1.22,2.23.18,1.09,2.27-1.72,4.12-4.35,2.86-4.72-2.8-1.49-8.85,2.77-8.94Zm17.45.87L100.17,90l0,5.06-3.85-2.28Zm8.55.44,0,4.65-3.75,2.72v-5Zm10.09,3L113,96.16l-12.09,8.27L91,98.18l-1.72-4.94L101,100.85Zm-78.46.39v27c-3.92.17-6.17,4-3.23,7.7l-1.11.15c-2.65.37-4.43,1.77-4.08,3.48a2,2,0,0,1-.15,1.3,2.15,2.15,0,0,0,.15,1.84,1,1,0,0,1,.06,1,2,2,0,0,0,.13,1.92c.43.42.31.77.26,1.45-.08,1,.1,1.36.71,1.73.78.49,1.08,1.28.18,1.22-.44,0-2,1.47-2,1.47l-.15-43.36Zm21.24,3.46c.7,0,1.42.88,2.46,2.37.63,1.06.64.92,2.07.86a4.13,4.13,0,0,1,2.74.93c.14.17-.24.22-1.17,1.16a9.31,9.31,0,0,0-1.73,2.44.55.55,0,0,1-1,.08c-.19-.29.29-1.23,1.2-2.35,1.29-1.24,1-1.36-.85-1.17-1.31.14-1.45.07-1.95-.72-1.49-3-2.27-2.85-3.7.09-.38.83-.23.77-1.91.64-1.32-.1-1.65.23-.91.93a5.85,5.85,0,0,1,1.56,3.19l-.9.08s-.27-.51-.39-.83A8.85,8.85,0,0,0,51.65,100c-1-1.09-.46-1.69,1.8-1.93,1.26-.14,1.28-.16,1.86-1,1-1.49,1.7-2.38,2.4-2.38Zm54.83,2.69-1.3,4.61-10.31,7.23-8.39-5.6-1.11-4.33,9.64,6.1ZM77,101a70.1,70.1,0,0,1,4.06,9.57c1,3.27,2.25,12.75,1.91,13.33-.73-1-3.16-.77-3.19-.77A3.66,3.66,0,0,0,77,119.36Zm33.93,2.12-1,4.54L101.11,114l-7.25-5-1-4.39,8,5.36Zm-51.05.26,1.14.39.22,8.2L70,113.45l.2,1.4L60,113.21c-.11-3.5-.17-9.81-.17-9.81Zm-4.46.24.25,9.53c-.09,0-7.32,1-10.09,1.73l.16-1.31s5-1.09,8.66-1.51c0-2.67,0-5.47,0-8.19Zm81.73,1.75a15.54,15.54,0,0,0,3.75-.33c6.59-1.16,8.38-.69,9.22,1.34.93,3.16-2.53,3.23-3.15,1.23-.39-1.3-1.8-1-6.53.11-4.05,1-6.61.19-6.56-2.1s2.73-2.57,3.27-.25ZM83,103.67a1.48,1.48,0,1,1-1.46,1.5,1.48,1.48,0,0,1,1.46-1.5Zm-21.42.26,1,.32s.15,6.21.18,6.22c2.24.5,6.95,1.38,6.95,1.38l.24,1.23c-2-.46-8.24-1.49-8.24-1.49-.2-2.69-.17-7.66-.17-7.66Zm-7.6.12s0,5-.08,7.63c0,0-5.33.85-8,1.41l.21-1c2.15-.49,4.5-1,6.87-1.47,0-1.95,0-6.23,0-6.23Zm3.83,1.07a1.19,1.19,0,1,1,0,2.37,1.19,1.19,0,0,1,0-2.37Zm89.2,3.09a1.77,1.77,0,0,0,2.06,1c-.18,0-1,.55-1,.72s-.36,1.44.22,1.5c2.19.21,1.08,2.48,1.35,2.83.59.68,1,1.11.61,2s-.87.72-.47,1.36c.87,1.31-.33,1.58-.23,2.47a3.55,3.55,0,0,1,.07,1.7c-.6,1.26-2.72,2-5.07,2.08-.34,0-.08-.54-.24-.88-.58-.37-.26-1-.06-1.39s.19-.54-.17-.81c-1-.63-.95-.91-.87-1.37.22-1.33,0-1.46-.39-1.66s-.44-.81-.21-1.53c.15-.5,0-.62-.2-1.08a1.17,1.17,0,0,1-.19-.57c.07-.69-.54-.69-1.41,0a32.37,32.37,0,0,0-1.44,4c-.35.81-.41,1.65,0,3.5.82,2.83.21,3.3-3,2.69-2.4-.59-3.11-3.14-2.44-6.27a4.1,4.1,0,0,0,0-1.39,6.51,6.51,0,0,1,1.8-5.64c2.51-2.35,3.75-2.71,8.93-2.38a7.66,7.66,0,0,1,2.19.27,5.56,5.56,0,0,1,.07-1Zm-37.35.65-.6,4.39-4.87,3.43c-2.29-1.8-4.06-1.2-5.68.74-1.27-.65-3.83-2.42-3.83-2.42L94,110l7.08,4.91Zm-51.75,1a1.19,1.19,0,1,1-1.17,1.21,1.19,1.19,0,0,1,1.17-1.21Zm50.93,4.49-.26,4.23-1.73,1.3-1.74-.18-.42-2.61Zm-51,0a1.19,1.19,0,1,1-1.17,1.21,1.19,1.19,0,0,1,1.17-1.21Zm4.77.13a1.19,1.19,0,1,1-1.16,1.2,1.18,1.18,0,0,1,1.16-1.2Zm-9.49.23a1.19,1.19,0,0,1,0,2.37,1.19,1.19,0,1,1,0-2.37Zm88.18.19c.33,0,.83.47.59,1.21s-.1,1.13.44,1.82.37.67.3,1c-.1,2.43,1.47,1.38.79,3.15a3.07,3.07,0,0,0,.12,1.39c-.16-.41-3-.38-3.29,0-.41-.06-.93-2.78-.52-3.14a3.36,3.36,0,0,1,.51.73c.39.66.47.64.35-.13-.48-3-.19-6.1.71-6.12Zm-73.9.21a1.21,1.21,0,0,1,1.21,1.17,1.19,1.19,0,1,1-1.21-1.17Zm-19.21.22a1.19,1.19,0,1,1-1.17,1.2,1.19,1.19,0,0,1,1.17-1.2Zm46.5.34,3.56,2.31a6.69,6.69,0,0,0,.2,2.12,4.22,4.22,0,0,0-3.49,1.1Zm-36.46,1.91a37.18,37.18,0,0,1,11.15,1.78l-.27,1.25a44.57,44.57,0,0,0-22.3.08l-.58-1.31a39.57,39.57,0,0,1,11.22-1.8Zm-22,1.7A3.62,3.62,0,0,1,39,120.54a3.57,3.57,0,0,1-1.23,5.32,3.5,3.5,0,0,1-4.71-4.55,3.39,3.39,0,0,1,3.15-2Zm72.15.37,0,1.25-.89-.74Zm-18.55,0a2.33,2.33,0,1,1-2.29,2.36,2.33,2.33,0,0,1,2.29-2.36Zm-53.54.08a1.87,1.87,0,0,0-1.07.35c-.62.57,0,.59.82.74,1.46.27,1.86,1.52,1.73,2.87s.29,1.21.62.75a3,3,0,0,0-2.1-4.71Zm67.54.62-.06,0s0,0,.06,0Zm-46,.73c1.74,0,1.92,2.83.38,6-.46,1-.69.85-1.2-.6-1.25-3.59-1-5.38.82-5.42Zm4,.08a1.14,1.14,0,0,1,.93.41c.93,1.07.21,2.8-2.28,5.46-.61.64-.92.89-1.14.9-.63,0-.62-.09.08-2.4.32-1,.62-2.14.69-2.48a2.14,2.14,0,0,1,1.72-1.89Zm-6.3,2.56a25.34,25.34,0,0,0,.66,2.45,4.21,4.21,0,0,1,.28,1.18c-.15.42-1.26-.16-2.06-1.08-1.59-1.85-2.23-3.47-1.9-4.34a1.63,1.63,0,0,1,2.29-.39,4.46,4.46,0,0,1,.73,2.18Zm11-1.85c1.69,1-.25,3.27-4,5.15-1.62.8-1.5.44-.27-1.15a17.93,17.93,0,0,0,1.4-2.2c.68-1.34,1.36-2.67,2.9-1.8Zm-16.82,0c.54,0,1.09.57,2.1,2a23.37,23.37,0,0,0,1.63,2.07,3.37,3.37,0,0,1,.78,1.07c-.17,1-5.43-2.23-5.81-3.61a1.36,1.36,0,0,1,1.3-1.57ZM125,125c1,2,1,3.16.25,3.6a1.83,1.83,0,0,1-2.58-1.72,14.5,14.5,0,0,0-.93-3.15c-.36-.87-.41-1.4-.11-1.44A6.44,6.44,0,0,1,125,125Zm-6.29-1.48a16.83,16.83,0,0,0-.75,3.36,2.78,2.78,0,0,1-.26.91c-1,2-3.24.36-2.41-1.71.76-1.86,2.68-3.81,3.44-3.87.52,0,0,1.14,0,1.31Zm1.54-1.07c.37,0,.69.79,1.18,2.19.67,1.89.64,3.36-.07,4-1.54,1.34-3.15-.61-2.52-3.06.49-2,1-3.08,1.41-3.12Zm-51.39.35c1.91,28.05-12.47,49.64-13.5,50.22l-4.89,2.68L41.88,171A73.43,73.43,0,0,0,56.5,128.61a13.33,13.33,0,0,0,12.36-5.81Zm47.17.08c.6-.16.18.36-.42,1.22s-1.46,3.41-2.11,3.81c-1.47.7-3.13-.64-2.24-1.81a11.89,11.89,0,0,1,4.77-3.22Zm8.73.19a3.86,3.86,0,0,1,1.28.46c3.06,1.49,4.56,3.46,3.26,4.4-.92.66-1.9.15-2.82-1.59a15.18,15.18,0,0,0-1.26-2c-.69-.88-.85-1.32-.46-1.32Zm17.18,1a3.56,3.56,0,1,1-3.51,3.61,3.56,3.56,0,0,1,3.51-3.61Zm-1.08.93c-2.32,1-1.62,4.65.37,5.17.84.24,1.86-.11,1.45-.52-2.64-.82-2.65-2.76-1.59-4.18.17-.23-.06-.55-.23-.47ZM44.6,130c-.09,2,.35,4.42-.62,6.65-1.49,3.42-6.26,5-8.81,4.68a2.24,2.24,0,0,0-1.67-.2,1.35,1.35,0,0,1-1,0c-.33-.15-.64,0-1-.07s-1-.81-.9-1.24c.12-.59.07-1-.62-1.22-1-.28-1.16-.8-.88-2.32.06-.33.14-.48-.08-.62a1.7,1.7,0,0,1-.51-2.29c.31-.53.54-.91,0-1.33-.21-.49-.18-.67.29-1.3s.58-.65.26-1.16c-.71-1.14.1-2,1.06-2.45a13.47,13.47,0,0,1,3.77-1c.51,0,.49.47.79.9.45.69-.18,1.7.18,2.06a1.14,1.14,0,0,1,.72,1.14,2.65,2.65,0,0,0,.31,1.7,2.05,2.05,0,0,1,.12,1.83c-.23.5-.21.46.1.76a2.88,2.88,0,0,1,.36,1.72l1.32-.12a12.89,12.89,0,0,1,2-5c-.08-1.74-.75-3.33-.69-5.63,3.27-1.17,5.63,1.6,5.5,4.45Zm50.71-3.91a10.26,10.26,0,0,0,2.9,1,4.11,4.11,0,0,0,3,4c0,3.13,0,17.54,0,17.54-3.4-5.69-5.5-13-6-22.51Zm-56.82.51a8.08,8.08,0,0,1,.24,1.22c.21,1.64,0,1.86-.45.74-.51-1.31-.53-.29,0,2.72a2,2,0,0,1,0,1.38c-.12.31-.31,1-.47,1.59-.46,1.65-.73,2.12-1.2.81-.24-.67-.44-.78-.27-1.3a1.81,1.81,0,0,0-.27-1.78,1.79,1.79,0,0,1-.25-1c.13-1.52-.55-1.54-.68-1.93,0-.6-.26-2,.15-2a6.88,6.88,0,0,0,2.14-.15c.26-.09,1.06-.27,1.06-.27Zm50.63.19a2.28,2.28,0,1,1-2.25,2.32,2.28,2.28,0,0,1,2.25-2.32Zm-35.27,1.39,1.74.33c.38.13.1,24-13.76,41.22l-.12-4c6.59-9.54,11.34-21.24,12.14-37.56Zm29.36.5.31,5.71c-1-.83-3.45-2.39-3.43-2.42l0-2.11s2.12.17,3.1-1.18Zm-13.35.08a5.56,5.56,0,0,1,1.14.87l-1.13.76Zm39.67.29a43.35,43.35,0,0,0,22.11.53l.5,1.4a40.89,40.89,0,0,1-23.55-.48ZM73.32,130.1l.41,2.46-4.22,2.73.2-3.73,2.2-1.43Zm37.35,2.05a1.24,1.24,0,0,1,1.25,1.22,1.24,1.24,0,0,1-2.47,0,1.25,1.25,0,0,1,1.22-1.26Zm19.21.1a1.24,1.24,0,1,1-1.22,1.26,1.25,1.25,0,0,1,1.22-1.26Zm-36,3.84c.55,1.95.43,6.35-.29,9.34a40.17,40.17,0,0,0-.34,4.08c-.13.17,4.24-3.62,5.64,1.34a2.42,2.42,0,0,1-2.79,2.85c-.26-.09-.18-.94.06-1.43.73-1.48-1.34-2.25-2.53-.94-2.73,3,.08,10.72,4.37,11.46,3.55.62,6.41-2.92,4-5-1-.92-2.7.35-1.93,1.53s-.69,1.75-1.82.59c-2-2,.24-5.08,3.22-4.38,4.76,1.09,3.78,8.53-1.21,8.95a7.74,7.74,0,0,1-8-4.29c-1.52-2.84-1.63-5.1-.94-10.07.41-2.94.07-5.43-.75-5.41a.8.8,0,0,0-.87.75c-.14,1.08-.27,1.28-.94.89a1.91,1.91,0,0,1,.06-3.19c1.44-1.11,3.31.62,3.24.92a5.23,5.23,0,0,0,.37-1.6c.63-4.12-.77-8.47-2.5-7.77-.38.15-.33.32.17.6,1.14.65.13,2.31-1.31,2.14-2-.24-2.51-3.09-.71-4.35,2.84-1.53,5.15.86,5.77,3Zm-14-3.43s3.63,2.22,3.82,2.78c.13.37.28,3.55.28,3.55l-6.31-4-9,5.59c.15-1.23.8-4.38.8-4.38l4.8-3.05c0,.19,3.33,2.37,5.64-.54Zm45.12.21a1.24,1.24,0,1,1-1.21,1.26,1.24,1.24,0,0,1,1.21-1.26Zm-9.62,0a1.24,1.24,0,1,1-1.21,1.25,1.23,1.23,0,0,1,1.21-1.25Zm4.84.28a1.24,1.24,0,1,1,0,2.47,1.24,1.24,0,0,1,0-2.47Zm-12.11,1.75c3.27.68,6.55,1.38,9.69,1.73l.13,9.62-.92-.05-.13-8.6a47.35,47.35,0,0,1-8.57-1.57Zm24.33.31-.17,1.14s-5.66,1-8.62,1.36c0,1.93,0,8.41,0,8.41l-1.13.21v-9.8c3.36-.37,6.71-.74,10-1.32Zm-54.78.55,6.67,4.4.78,4.67-7.77-5.16s-7,4.74-9.68,6.5l.81-4.4Zm30.77.87a68.11,68.11,0,0,0,8,1.39l.11,7.75-1.23-.33-.1-6.29a54.76,54.76,0,0,1-6.41-1Zm23.73.23-.22,1.05s-4.3.65-6.51,1c-.2,0-.13,6.81-.13,6.81l-1.06.17-.12-7.91Zm-12,.87a1.24,1.24,0,0,1,0,2.47A1.24,1.24,0,0,1,119,139a1.22,1.22,0,0,1,1.21-1.25Zm-42.57,2.79,7.88,5.32a32.54,32.54,0,0,1,1.11,4.3l-9.07-5.85-11.34,7.52,1.31-4.65Zm-47.76.16a1.31,1.31,0,0,1,1.18,1c.34,1,1,1.31,2.66,1.28,3.29-.18,6.75-1.73,9.86-.56,1.52.56,2.05,2.78.79,3.36s-2,.24-2.44-.84c-.44-.46-1-.39-3.94.12-1.3.21-2.83.4-4.12.5-3.3.27-5.11-.76-5.52-2.72a1.77,1.77,0,0,1,1.53-2.18Zm90.27,1.8a1.24,1.24,0,1,1-1.22,1.25,1.24,1.24,0,0,1,1.22-1.25ZM96,144a1.61,1.61,0,1,1-1.58,1.63A1.6,1.6,0,0,1,96,144Zm-18.36,1.12,9.49,6.34,1.66,4.76-11-7.18-13.51,8.79,1.62-4.9Zm46.82,1.49a12.35,12.35,0,0,0,2.78,4s-.63,1.19-2.87,1.12c-1.22,0-1.29.15-1.71,1a9.12,9.12,0,0,1-1.69,2.08c-.79.61-2.26-.29-3.47-2.13-.44-.67-.62-.83-2-.8-2,0-2.78-.53-1.72-1.45.93-1.12,1.59-2.37,2.42-3.55l.92.1a7.54,7.54,0,0,1-1.78,3.35c-.53.61.22.82,1.53.55.84-.25,1-.16,1.67,1.12,1.29,2.44,2,2.32,3.49-.15.53-1.1.51-1.21,2-.9s2,0,1.4-.58a9.19,9.19,0,0,1-2-3.73Zm-46.76,3.26s11.73,7.68,11.7,7.51l2.34,5.54L78,153.78,61.15,164.72l2.51-5.49Zm.45,5.05,4.09,2.68v4.84L78,159.65Zm-1,.14.08,4.77L73.49,162l-.2-4.48Zm-4.65,3.07,0,.19.08,0h0l.14,4.3-4.22,2.92v-4.86Zm10.8.06,3.84,2.56.16,5.12-4.17-2.73ZM88,161.32,91.83,164l.13,5.11L88,166.47Zm-20.41,0,0,4.73-3.83,2.68-.18-4.83Zm40.57,6.1c-.76.79-1,.7-1.69-.62a3.2,3.2,0,0,0-3.16-2c-1.86,0-.65-1.19,1.32-1.33,3.4-.15,5.13,2.13,3.53,3.91Zm-45.47-2.77.11,4.74-3.82,2-.12-2.25,2-3.44ZM57.75,171l.14.87-.71.27Zm65.82,11.88h0Zm0,0a25.89,25.89,0,0,1,5.19,13.58c.17,1.82-.62,2.16-1,.43a10.09,10.09,0,0,0-4.71-6.56c-11.62-4.31-16.59,10.27-8.93,16.17,2.73,2,8,1.75,9.84-1,.57-.85,1.15-.76,1.23-.23,0,.27-.1.45-.81,1.09-2.87,2.58-4.59,6.22-3.68,8.89a10.24,10.24,0,0,0,8.33,6.56,9.25,9.25,0,0,0,9.61-6c1.14-3.43.13-6.33-3-9.22-1.5-1.36-1.58-1.46-1.27-1.79s.5-.23,1.25.48c2.28,2.21,6.55,3.4,9.36,2.1,4.51-2.08,6.44-9.09,3.36-13.68-1.86-3.73-6.94-5.12-11.19-3a9.78,9.78,0,0,0-4.85,6.23c-.26,1.16-.93,1.37-1,.33.31-4.19.9-6.93,5.5-14.31Zm38.67,7.19a25.62,25.62,0,0,1,1.93,5.27c.18,1.34.21,1.89-.16,1.89-.12,0-.4-.64-.51-1.15a4,4,0,0,0-7.8.07c-.88,4.21,2.93,7.19,6.25,4.57,1.37-.94,1.44-.51.08.87a4.18,4.18,0,0,0,1.82,7.23c4.46,1.32,7.21-4.11,3.42-7.57a5.25,5.25,0,0,1-.92-1.1c0-.26.33-.28.58,0,2.18,2.28,6.55,1.58,7.22-1.34,1.26-5.48-5.81-7.82-7.76-2.93-.48,1.22-.4,1.39-.65,1.16s-.1-.64,0-1.33a49.18,49.18,0,0,1,2.29-5.59Zm-58.58,15.1c-16.07,3.43-31.46,2.22-42.52.17L56.12,214h-.34l-1.3,2.23.13.26s-4.19,8-6,10.59c20.65-.2,66-.3,66-.3l-2.76-5.55.15-.15-2.73-5.8-.89-1a20.12,20.12,0,0,1-.94-2.18c-.38-1-2-3.87-2-3.87l-.22,0Zm-41.94,1.21c.22.17,20.58,4,41.68.06l1.16,1.94c-18.47,4.25-45.2.18-44.14-.21Zm.36,3.8a6.17,6.17,0,0,1,5,2.6,14.22,14.22,0,0,1,1.07,2.1A10.62,10.62,0,0,1,70,212.68a7.76,7.76,0,0,1,5.52-2c2.28.08,4.79,1.32,7.06,4.89.58-2.06,8.08-9.06,14.26-.33.71-2.32,4-7,9.37-3.71.37.78.75,1.64.75,1.64-3.16-2.22-8.37-.73-9.61,2.73a1.39,1.39,0,0,0,.2,1c1.63,2.33-2.62,2.28-1.36.39A1.1,1.1,0,0,0,96,216a8.87,8.87,0,0,0-6.18-3.3A8.5,8.5,0,0,0,83.57,216a1.49,1.49,0,0,0-.13,1.62.94.94,0,0,1-.22,1.22,1,1,0,0,1-1.55-1.17c.27-.47.23-1-.33-1.83a8.29,8.29,0,0,0-6.1-3.23c-3.3.08-6.63,2.45-6.42,4.41.09.86-.15,1.18-.85,1.08s-1-.92-.34-1.58a1.18,1.18,0,0,0,0-1.09c-3.49-4.72-8.71-3.35-9.9-2.29a5.33,5.33,0,0,1,4.43-2.94ZM59,213.46a4.2,4.2,0,0,1,3.16,1.77c.33-.33,3.29-1.74,4.73.28-3.77-.29-3.82,3.71-1,4.1-1.27,3.86,4.42,4.09,4.06.46,4.25.63,3.73-4.76-.28-4.19,2.1-1.53,3.53-1,6,.72.85-1.11,4.31-2.14,5.15-.21-4-.24-3.29,4.34-.32,4.38-.88,3.18,4.94,4.35,4-.4,3.69.26,3.16-4.73-.38-4.31.26-.92,3.85-1.31,5.44.43,1.46-1.33,3.07-2.25,6-.34-4-.66-4,4.49-.33,4.18-.35,3.41,4.86,3.46,4-.48,4-1.06,1.79-5.31-1.13-4.14,1.3-1.54,3.5-.81,4.37-.5,2.7-3.09,5-.51,5-.51-4.7-.49-3.67,6.21.91,3.78a2.48,2.48,0,0,0,2.45,2.76l2.22,4.6-62.95.41,3.47-6.1a2.28,2.28,0,0,0,2.79-2.06c4.14,1.31,4.42-3.51,1.33-4.27a2.11,2.11,0,0,1,1.23-.36Zm97.46.57v2.34h1.85l5.25,11.79-5,8.23h-1.94v2.09h7.34v-2.09h-2.44l6.73-9.71v9.71h-2v2.09h6.7v-2h-2.2V216.37h2.2V214h-6.7v2.34h2v5.93L165.36,226l-4.29-9.61h2.86V214ZM56.55,215.2c.41.67.06,1.1-.64,1.11a7.34,7.34,0,0,0,.64-1.11Zm51.79.86.4.85c-.44-.18-.49-.36-.4-.85Z"/></g></g></g></svg>