<svg xmlns="http://www.w3.org/2000/svg" viewBox="0 0 178.58 249.45"><defs><style>.cls-1{fill:#fff;}.cls-2{fill:#e1cf01;}.cls-3{fill:#262e5e;}.cls-4{fill:#d41216;}</style></defs><title>KH</title><g id="Слой_2" data-name="Слой 2"><g id="H"><g id="KH"><path class="cls-1" d="M8.5,0H170.08a8.48,8.48,0,0,1,8.5,8.5V241a8.48,8.48,0,0,1-8.5,8.5H8.5A8.48,8.48,0,0,1,0,241V8.5A8.48,8.48,0,0,1,8.5,0Z"/><path class="cls-2" d="M65,208.85l42.73.92c3.79,5.2,11.39,15.79,11.39,15.79l-69,.91ZM47.1,212.47c1.85-3.7,2.2-7.27,1.85-12.41-.27-3.94,2.21-7,4.77-5.84,2,.91,1.07,4.65-1,3.85-.78-.3-1.47,0-1.37,1.75.18,4.37,1.36,9.29.35,13.48-.7,4.07-6.33,2.2-4.62-.83Zm-17.3-5.7A3.27,3.27,0,0,1,34,202c1.16.54,1,1.71-.46,1.08-2-.87-4.23,2.22-2.46,3.46.82.57,1.13.49.51-.23-1.65-1.9,2.57-2.75,2.45-1.49a22.52,22.52,0,0,1-.47,2.48c-.86,1.33-2.51.65-3.73-.51Zm6.07-13.64a10.51,10.51,0,0,1-1-2.79c.69-1.92,1.64-2.46.49-4.66-1.34-4.9-4.84-9.82-4-10,8-.85,16-.4,23.92-.15,0,0-4.76,7.47-5.94,11.35-.48,1.59.91,3.3.25,4.42-1,1.78-1.77,2.47-1.49,2.81.59.71-.49,2.06-.56,2-3.59-.46-7.14-1-11.12-.25-.29,0-.32-1.67-.6-2.75Zm34.42-81.08c3.92,21-1.94,42.1-15.5,56.16-1.92-1.83-3.39-5.31-5.3-7.58-5.31-1.58-9.14.28-12.86,2.11a21.14,21.14,0,0,0-10.67-3l-.11-3.15c3.67-.08,7.56.26,10.83,2.27l5.12-2.06-16-16.47.22-2.82,14.22,14.69c6.9-14.21,6-30.4,29.48-40.4a2.74,2.74,0,0,1,.54.21Zm27,25.54,2.81,13.29s-14.81,15.85-24,23.39l-6.9-.63s9.42-16.66,7.7-15.39ZM153,155.81c-6.57,7.32-14.43,12-23.16,17.11-3.49-3.88-7.73-8.14-10.17-12-.12-.2,5.54-2.7,11.17-6.19A98.11,98.11,0,0,0,142,146.7c-.41.46-9.52,3.53-9.48,3.18l-.6,2.57-1,.27c-1.75-2.43-3.45-4.41-6.21-5.5a6.38,6.38,0,0,1-2.7-.66c.78-.16.43-9.5,0-9.61,0,0,.23-.27,2.26-.23,3.61-.25,6-4.6,8.19-6.09,7-.57,13.23.12,20.13-.07-.05,8.32.43,16.94.43,25.25Zm-44.53-21.06c-.17-.35-1.94-14.13-.26-22.77.31-2,3.52-2.71,4.13-4.22,1-3.29-.51-7.34.3-11s2.61-5.84,4.16-8.63c1.69-3,4.1-6.77,6.78-9,.78-.77,3.53,1.7,5.58,6,.72,1,5.24,1.75,8.21,1.34,4.16-.78,5.28-3.77,7.63-1,2.82,1.78,7.41,2.27,7.41,2.27l-.21,2.89s-9.43-1.71-9.5-2.41c0,0-5.15,1.67-5.15,2,0,1.45,14.77,15.07,14.77,15.07l.09,3.36c-2.21-3.07-19.55-17.82-19.55-17.82,3.84,22.44-5.34,36.41-24.39,44Zm-24.79-4.39-.34-13.21,12.63.14.52,13.36Zm-57.8-14.29c.34-.47-.48-24.62-.44-24.62,8-8,15.9-12.41,23.79-17.24,3.56,3.51,6.53,6.39,9.15,10.64L47.65,91.69c-.68,1.08,3.51,7,6.27,7.7.29.08,1.37-.35,1.87-.33.68,0,1,.83.94,1.28-.95,4.07.43,7.52.61,9.7,0,.41-.72.3-.89.64-.26.53-1.49-.5-2.43-.69-1.51-.32-3.11,1.19-3.79,1.82-1.84,1.66-.66,4.73-4.35,4.59-6.76-.25-20.4.2-20-.33ZM102,73c.09-.08,6.87.06,6.78.3-1.23,3.3-4.3,9.15-7.11,15.91-3.24,5.75-7.73,9.15-11.56,12.92-3.06,3-5.79,7.77-7.89,6.54-1.28-4.09-1.57-7.72-3-12.24C78.54,93.73,82.46,92,102,73Zm29.69-22.65c2.49,1.06,9.47.5,10.58,0,1.42,1,.53,2.23.35,3,1.46,1.83,2.26,2.48.61,5.45-.13,0,4.26,10.39,4.26,10.39a10.69,10.69,0,0,1-1.74.72c-1,.35-4.61-3-4.61-3-.2-.93-4.48,4.85-4.48,4.85l-4.63-6c0,.53-8.93,6.42-9,6.13-.28-.28,8.13-9.29,6.46-14.59-.4-1.27.52-2.57,1.15-3.69.43-.77-.15-2.26,1.08-3.29ZM126,52.88c-1.73-.86-1.81-3.51.43-3.38.84,0,.84-.32.41-4.55-.6-5.84-.23-10.27.79-11.69,1.16-1.63,3.27-1.71,4.15-.38.67,1.85-1.33,4.43-1.73,5.69-1.31,3.5.55,8.13-.39,11.45-.72,2.25-2.31,3.54-3.66,2.86Zm19.88-8.56c-1.53-.19-.48-4.58-.2-5.64,0-.26,2.73-.89,3.72.86,1.59,2.6-.33,5.89-3.52,4.78ZM128.07,21.94,114,39c-14.22-1.63-28.48-2.66-43-.45L59.33,22.28Z"/><path class="cls-3" d="M153.57,20.7l-130,.4L25,227.51l129.73-.77ZM123.66,22h4.27L112.37,41l-.39.12a87.28,87.28,0,0,0,3.94,9.66c2.25,4.63,7.91,13.14,4.38,19.95-.35.58-.67.87-1.1.86-.6,0-.59-.35-.24-1a14.51,14.51,0,0,0,1-7,26.74,26.74,0,0,0-2.15-5.86c-5.91-10.88-7.76-16.68-7.43-16.68a1.3,1.3,0,0,0-.42-.16l-.58-.2c2,6.88,5.38,12.66,8,18,2.16,5,2.39,6.91,1.26,10.53-.44,1.4-1.23,2.3-2,2.3-.58,0-.55-.12-.15-.83,2.07-3.71,1.59-7.75-1-12.46-3.74-7.76-6-12.68-7.32-17.66,0,0-.69-.22-.92-.28,1.11,5.19,4.21,11.17,7.1,17.29,2.38,4.72,3.07,8.16,2.21,10.87-.28,1.18-1.18,2.93-2.32,3-.44,0-.52-.23-.09-.84,1.76-3,2.08-5.8-1.08-12.14-2.91-5.83-5.83-12.35-6.83-18-.07-.47-1.33-1-1.06-.25,1.56,6.73,4.67,13.62,8,20.35,1.86,4.16,2,6.83.66,9.17-.79,1.3-1,1.6-1.57,1.61s-.68,0-.29-.75c1.68-3.51,1.41-6.6-.85-11.67-3.09-7-5.7-12.71-6.81-18.82-.2-.06-1.25-.46-1.1-.16a99.37,99.37,0,0,0,6.08,16.71,54.71,54.71,0,0,1,2.79,7.44c.89,3.52-1.1,8.36-3.7,8.6-1,.1-.86-.39.23-1.39,1.86-1.73,2.22-4.48,1.59-7.67a39.9,39.9,0,0,0-2.42-7.78c-2.27-5.42-4.74-11.1-5.52-16.1,0-.44-1-.45-.72,0A56.56,56.56,0,0,0,104.94,51c1.61,4.07,4,8.63,4.78,13.63.64,4.09-1.92,7.95-5,8.18a3.55,3.55,0,0,1-3.58-5.14c1.47-2.59,5.73-1.11,4.46,1.53a1.48,1.48,0,0,1-2.86-.55c0-.15.21-.61.17-.63s-.41.25-.51.44c-.75,1.35,1.52,3.16,3.1,2.07,5.29-2.85,1.72-11.58-.59-16.9a55,55,0,0,1-4.59-14c-.19-.14-1.06-.35-.94-.2.64,2.45.94,4.52,1.57,6.58,1,3.23,2.8,6.85,4.26,10.48s2.67,6.59,2.06,10.31a2,2,0,0,1-.43,1c-.24.25-.44.21-.51-.74,0-.13-.19-.3-.21-.46a11.49,11.49,0,0,0-.33-4.1,20.06,20.06,0,0,0-2.14-4.36c-.49-.8-1.78-3.23-1.33-1.55a22.92,22.92,0,0,0,2.06,4.6,9.29,9.29,0,0,1,1,4c-.19.48-.62.51-.82.34s-.19-.84-.23-1.27A13.31,13.31,0,0,0,101,58.24c-.9-1,2.12,4.27,2.35,5.67.09.6.28,1.08.07,1.37s-.4.2-.67.13-.24-.24-.52-1.15a9,9,0,0,0-2.22-3.72c-.41-.48-.68.12,0,.89a9,9,0,0,1,1.8,4.14c-.58.83-.87.67-2.09-1.42-.8-1.38-1.29-1.73-1.5-1.72-.53,0,0,.68,1.47,3,.78,1.26.8,2-.09,2a9.57,9.57,0,0,1-2.39-2.63c-.35-.67-.78-1.17-.78-.37a10.3,10.3,0,0,0,1.75,2.84c1.12,1.3,1.44,1.55,1.58,2.13.07.27.21.75.3,1.06.29.93.14,1.2-.44.71-.26-.69-.47-.76-1.2-1.29a12.09,12.09,0,0,1-2-2.43c-.21-.31-.38-.71-.6-1-.54-1-1.27-1.1-.74-.08a15.52,15.52,0,0,0,1.07,1.83c.7,1,.56,1.52-.28,1.52-.36,0-1.36-1.31-2-2.34-.41-.66-1-1.14-1-.48a7.68,7.68,0,0,0,1.25,2.26c.8,1,.91,1.52.13,1.52-.53,0-1-.51-1.67-1.54s-1-1.33-1.23-1.22.92,2.09,1.87,3.15.24,1.58-.79.69a11.66,11.66,0,0,1-2-2.62c-.56-1.23-.92-.89-.56.08a8.92,8.92,0,0,0,1.78,3c.4.41,1.21.72,1.61,1.06,1.13,1,1.85,1.87,1.75,2-3.21.18-5.85-3.24-6.58-5.31-.51-1.36-1.09-1.56-.54.36,1.57,4.78,6.46,7.26,9.84,5.12,2-1.3.23-4.66-1.44-3.57-.45.29-.47,1.13.11.68,1.08-.84,2.17,1.23,1,1.84-1.66.87-3.51-.82-2.38-2.87s5.6-.89,4.73,2.5a6.16,6.16,0,0,1-4.86,3.46c-3.7.07-6.26-2.76-7.69-5.56-.34-.67-1.18-2.54-1.23-2.54.42,3.4,3.68,7.63,6.59,8.32,4.85,1.14,6.17-1.74,9.34-4.72,0,0,2.31.31,2.39.26a27,27,0,0,1,4.63-.2,102.82,102.82,0,0,0-1.1,96.72c1,2.06,1.15,1.67-.48,1.25s-3.22.24-4.59-.08c-2.83-.57-3.43,1.36-5.61,2.38-2.72,1-2.1,2.91-2.75,4.73-.2.28-.36.49-.25.46a1.69,1.69,0,0,0,.81-1.05,4.35,4.35,0,0,1,1-2.64c.46-.46.79-.69.9-.49a1.63,1.63,0,0,1-.2,1.13c-.66,1.24.21,5.39.27,2.44a7.33,7.33,0,0,1,3.46-6c1.59-.78,2.09-.7.79.5a8.43,8.43,0,0,0-2.54,5.67c0,.94.35,1.73.48.88,0-4.32,4.29-9.15,9-6.75.23.16.42.48.36.66-4.52-.76-8.44,1.7-7.86,7.51a17.79,17.79,0,0,0,.63-2.27c.71-3.56,4.75-5.12,7.58-4.15.54.23,1,1,.88,1.08-3.46-1.09-7.27,2.18-7.48,5.71-.08,1.15,0,2.14.54.06,2.24-7.85,9.14-4.29,8.29-3.65-5.34-.63-7.27,3-7.15,7.09.08.38.27.51.43.86a12.83,12.83,0,0,1,1.1,5.73c-.06.73.55,5.38-.07,5.18-1.93-.71-3.41-1.56-6.77-.05-.3,0-.41-.15-.3-.41a10,10,0,0,1,1.58-2.08c2.07-2.19.88-1.6-.82-.08-1.1,1-.86.31.18-3.05.42-1.35.15-1.52-1.65-2.43s-3.13-1.08-1.56-.1a13.78,13.78,0,0,0,2,1c.82.44.72.63.12,2.59-1.18,3.81-1.59,5.21-1.53,7.77.15,6.23,6.11,5.61,9.51,4.21l.13,4.11,12.79,17.93s-44.67,0-68.57.35c1.36-3.27,15.81-17.1,16.67-19.57.08,0-1.6-5.06-2.49-7.26-4.18-10.42-9.67-14.79-6.49-21.64.69-1.35.81-1.81,1.33-1.81.7,0,.93.47.14,1.8C56.22,183.1,63.51,193,66,199.22a72.16,72.16,0,0,1,2.33,7.31c0,.49,1.18.65.86.08-.91-3.2-2-6.71-2.57-8-2-4.64-4-7.8-5.89-12.34-1.06-2.86-1.63-6.17,0-9.14.6-1.08.77-1.68,1.16-1.73s.54.11.56.39a3.13,3.13,0,0,1-.61,1.56c-2.87,4.87,2.23,12.74,4.76,18.35a44,44,0,0,1,3.64,11,.57.57,0,0,0,1,.44c-1.09-6.49-4.3-12.77-7.12-18.82-2.41-4.73-3.31-8.86-.1-12.75.29-.27.88-.22.93.17a5.18,5.18,0,0,1-.69,1.82c-2.83,5.91,1.55,10.7,3.61,16.33,2,4.7,3.87,8.66,4.62,13.67.57.21.86.48.91-.23-1.47-7.08-4.63-13.45-7.38-19.59-1.26-2.66-1.71-3.94-1.8-5.72-.11-2.46,1.13-5.56,2.23-6.38a.59.59,0,0,1,.74-.11c.36.19.29.33-.43,1.67a9.63,9.63,0,0,0-.21,8.51c2.18,4.69,4,8.53,5.32,12a40.93,40.93,0,0,1,2.55,10s1,.43.83-.22a54,54,0,0,0-3.46-12c-1.39-3.43-3.14-6.72-4.56-10.12a8.61,8.61,0,0,1,3.23-10.75l1.62,0c-.09,0-3.7,1.38-3.89,6.52C68,186,70.28,189,72,193.16c2.05,5,3.88,9.38,4.32,14.73a1.55,1.55,0,0,0,1,.14,51.19,51.19,0,0,0-3-11.21c-1.6-4.46-3.19-6.44-4.67-11.12-1-3.17-.86-7.47,1.37-9.43,3.34-3.36,8-1,6.84,2.89-.9,2.71-4.63,2.17-4.61-.37a1.45,1.45,0,0,1,2.69-.85c.16.24.26,1.3.33,1.34a2.87,2.87,0,0,0,.28-1,2.28,2.28,0,0,0-3.19-1.79c-1.88.93-3.09,3.09-3,6,.13,3.07.69,5.06,3.21,9.87,2.94,5.61,3.91,11.68,4.54,15.77.27-.11.59,0,.7,0A46.7,46.7,0,0,0,74.28,192c-2.78-5.77-3.56-9.3-2.63-11.88.14-.38.26-.67.43-.69s.41.45.7,1.48a3.59,3.59,0,0,1-.09,1.2c-.24,2.37,1.42,7.29,3,9.48.45.62,1,.6.53-.5a18.6,18.6,0,0,1-2.69-8.93c0-1,1.15-.57,1.18,0a11.59,11.59,0,0,0,1,5c1.61,2.76,2.52,2.88.86-.2-.37-.71-1.42-3.73-1-4.77.23-.21.52-.24.66,0a12,12,0,0,0,2.26,4.71c.6.68.7.37.38-.48-.52-1-2.17-4.29-1.41-5,.24-.2.1-.09.76,1a12.26,12.26,0,0,0,1.89,2.54c.59.59.74.19.12-.84-1.24-2.05-1.94-3.76-1.5-4.2s.53-.22,1.51,1.43c.43.74,1.06,1.83,1.28,2.08s.4.33.41.11a8,8,0,0,0-2.65-4.67,11.12,11.12,0,0,1-.06-1.77c2.59,1.33,2.69,2.83,4.41,5.14.18.17.43,0,.35-.36a13.58,13.58,0,0,0-1.71-3.19c-.5-.67-.52-1.05-.1-1.24.69-.31,1.65.71,2.67,2.52.47.84,1.1,1.33,1.11.89a10.29,10.29,0,0,0-1.49-3c-1-1-.51-1.78.66-.81a5.24,5.24,0,0,1,2,2.37c.44.93.81,1.05.81.3a6.39,6.39,0,0,0-2.36-3.44c-.73-.44-1.14-.93-.94-1.26.64-.94,3.25,1.47,4.14,3.71.26.66.72,1,.83.7s-.32-1.76-.87-2.51c-.89-1.7-3-3.35-4.25-3.15-.25,0-.91-1.36-.91-1.36,3.19-.51,6.29,3.3,6.84,4.72,1,2.7,1.58,2.39.67,0-1.79-4.64-7.35-7.23-10.44-5-1.75,1.28-.7,4.33,1.11,3.81.71-.27,1.41-1,.15-.76a1.23,1.23,0,0,1-.42-2.41c2.3-.69,2.83,3,1,3.78a2.51,2.51,0,0,1-3.68-2.52c.35-4,5.27-5.14,10.13-1.91,1.37.9,3.06,3.86,3.63,5.74.2.62.84.84.92.76s-1.35-3.48-1.86-4.32c-2.11-4.82-9.77-5.06-9.77-4.81a28.32,28.32,0,0,0-5.67,5l-6.84-.63c17.43-27.86,18.81-68.83.92-97.84.23.15,3.44,1,4.55.11a1.9,1.9,0,0,1,2-.2,3.1,3.1,0,0,0,3.19-1c.83-.75.85-1,1.38-.92,1.59.2,2.64-.72,3-3,.13-.89.22-1.82.09-1.69A8.75,8.75,0,0,0,84,70.52a3.6,3.6,0,0,1-1.14,2.27c-.86.72-1.36.31-1-.78A4.78,4.78,0,0,0,82,68.67c-.09-.15-.11.42-.22.87-1,3.56-1.93,5.38-3.64,5.8-.81.19-1.18.07-.91-.39,3-3.19,2.8-6.73,2.58-6.43-.64,2-1.83,5.1-3.79,6.36a5.54,5.54,0,0,1-5.53.27c-.78-.51.4-.67,2.17-.69,3,0,5.75-4,5.29-7.33-.11-.62-.27,0-.52,1.06-1.09,3.61-3,6.14-7.28,5.39a1.84,1.84,0,0,1-.75-.41c-.7-.48-.44-.82,1-.63,3.11.4,5.83-2.5,5.8-6,0-1.69-.24-1.67-.51-.41-.38,1.77-1.77,7.19-6.8,5.42-.9-.49-1.4-1.12-1.08-1.21,2.94.59,5.63,0,6.68-3.89a8,8,0,0,0-.12-4.63c-.14-.92-.46-1.62-.56-2.56a53,53,0,0,1-.57-8c.25-.23.29-.18,1.13.37,1.66,1.1,2.92.85,4.6.2,2.17-.78,2-.64-.29,1.91a16.05,16.05,0,0,0-1,1.29c-.57,1.07.51.28,1.32-.73,1.13-1.41,1.36-1.74,1.59-1.74a18.36,18.36,0,0,1-.77,4.63c-.37,1.39-.37,1.71.52,2.06.38.16,1.12.46,1.54.66,1.86.88,1.68.16.2-.67-2-1.13-2-1.07-1.44-2.94A45.71,45.71,0,0,0,82,50c.9-5.36-3.16-8.31-8.55-6.43-.31.15-.67-2.82-.62-3.61,0-.28-.81-.22-1.52-1.08.21-.19-7.95-10.38-11.76-16.56,21.33,0,42.76-.39,64.15-.38ZM110.39,41.1l.09.06s-.07-.06-.09-.06Zm18.49-18.66h22.87l.34,49.28-2,0s-3.82-6.54-4.83-9.63c-.25-.78-.69-1.84-.86-2.25-.39-1-.66-1.07-.14-1.64a3.89,3.89,0,0,0-.18-4.63c-.31-.37-.47-.24-.45-1.13a3.83,3.83,0,0,0-.12-1.65c-.34-.66-.57-.7-.09-1.43a12.24,12.24,0,0,0,1.48-3c.45-1.56.13-1.86,1.16-1.48a3.5,3.5,0,0,0,4.66-3.6,3.67,3.67,0,0,0-4.48-3.52c-.55.13-.65.09-1.5-.44a6.32,6.32,0,0,0-.92-.59c-.39-.15-.71-.14-.88-.41a3,3,0,0,0-2.52-1.36,5.09,5.09,0,0,1-2-.37c-.42-.21-1.6,0-3.11-.26a5.68,5.68,0,0,0-1.53.16c-.93,0-.55-.1-.73-.8-1.16-3.66-4.55-3.23-6.11-.48a13.91,13.91,0,0,0-1.2,4.34l-9.14-.14Zm-70.74.11c3.41,4.33,6.68,9.18,10.12,13.59,4.24,5.35,4.38,6,3.24,11.35-.64,3-.91,3.74-2.2,3.51a2.13,2.13,0,0,0-2.4,1.93c-.31,2.26,1.87,3.64,4.06,2.52,1.16-.6,1.2-.66.81,1.3-.55,2.82-1.65,5.24-2.36,5.16-1.84-3.88-6.31-1.12-4.82,2.92-.47.7.14,1.6.37,2.33a12.44,12.44,0,0,1-2.54.93c-12.53,3.7-28.05,13.34-36.53,22.39l-.57-67.74Zm71.91,9.25a2,2,0,0,1,1.45.52c1.09,1,.84,2.35-.68,4.92-1.58,3.58-1.15,6.41-.78,10.17,0,2.18-.76,4.26-1.94,5.16a2.09,2.09,0,0,1-3.28-2.47c.51-1,1.59-.41,1.84-1.34.09-.55.09-1.42.14-1.84-.22-1.65-.7-6.68-.7-8.42a12.54,12.54,0,0,1,1.2-4.82,3.43,3.43,0,0,1,2.75-1.88Zm3,5.84c-.43.36-1.15.37-1.24-.08a5,5,0,0,1,.63-2.14c1.56-.37,1.07,1.83.61,2.22Zm2.35-2.34c1.29,0,2.14,3.25,1,5.18-.21,0-1.78,0-1.79.06a8.34,8.34,0,0,1,.19-1.69,3.21,3.21,0,0,0,0-1.6c-.43-1.51-.7-1.8.59-2Zm2.46,0H138c1.32,0,2.07,2.54,1.66,5.31-.06.39-.1.81-.24.91a6.39,6.39,0,0,0-2.1.38,2.81,2.81,0,0,1,.1-1.64,5.43,5.43,0,0,0,0-3.54c-.3-1.17-.31-1.4.39-1.42Zm3.28.73c1.44.25,1.54,4.23.94,5.53-.14.19-.68.15-.88.22-1.23.35-1,.53-.81-1.42a13.25,13.25,0,0,0-.08-3.48c-.1-.49-.14-.82.22-.85a1.39,1.39,0,0,1,.61,0Zm-7.21,1.56c.58.79.11,2.61-.33,3.28s-.7.81-.43,1.14a1.57,1.57,0,0,1,.21,1.14c-.27.54.43.64,1.08,1,1,.54,1.55,1.54,2.32,3.36.28.64.83.44.56-.24s-.32-1.45-.48-2,0-.88.7-.71c1,.26.89,0,1.26-.12.83-.46,1.38.19.88.54a5.78,5.78,0,0,1-1.57.52c-.57.16-.44.71.14.71a18,18,0,0,0,3.06-.74c2.85-.86,2.95-1.32,2.68.31a4.93,4.93,0,0,1-3.46,4.29,17.57,17.57,0,0,1-7.32-.17c-1.65-.74-1.76-1.26-2.25-2.71-.69-2-1.09-5.34-.3-7.29.69-1.65.62-1.48,1.28-1.39a1.44,1.44,0,0,0,1.56-.39c.09-.17.31-.48.41-.48Zm10.94,1.19a4.42,4.42,0,0,1-.13,2.47c-.18.32-1.18.3-1.57.31-.23,0-.21-3,0-3.31.58-.87,1.33-.17,1.66.53Zm-29-.52,2.83,0V39l-3.34,0Zm9.9.11v.9h-4.26V44.9l4.77,0,0,1.16-6.37,0,0-7.64Zm21.65-.17c4.36,1,2.41,5.78.78,6.07-2,.37-3.77.14-3.21-1.66.57-1.21.18-2.73.34-3.83a2.83,2.83,0,0,1,2.09-.58Zm-32.92,1.69,4.2,0v.93l-4.8,0Zm9.33.85A1.22,1.22,0,1,1,122.65,42a1.22,1.22,0,0,1,1.21-1.22Zm11.86.48c.78.09.85,1.28.53,1.63a.88.88,0,0,1-1.41-.39,1,1,0,0,1,.88-1.24Zm-22.37.52,5.38,0v.75l-5.43,0-.14-.48Zm30.26.32c.75,0,1.21.62.74,1.15-.7.78-2.14-.41-.74-1.15ZM86.34,43.74c-1.21,1-.24,2,1.36,1,3.43-2.07,8.5-.43,11.81,1.29.65.33.73-.44.1-1-3.06-2.69-9.56-4.23-13.27-1.37Zm52.08-1.42c.84,0,.83,1.06.29,1.43a1,1,0,0,1-1,0c-.49-.19-.13-1.45.7-1.46Zm3,0c1,0,.89,2-.61,1.33a.76.76,0,0,1,.61-1.33Zm-27.78,1,5.23.05v.85L114,44.22Zm-33.75,2c1.42,1.12,1,1.19-1.39.36a7.34,7.34,0,0,0-4,.26c-1.15.45-1.41.32-.92-.45,1.34-1.49,5-1.19,6.36-.17Zm6.86,1.87c-.15.35-.63-.29-1.29-.16-1,.18-.68.22.32,1.36s1.32,1.4,1.27,1.84c-.09.64.08,1,.73.92.3,0,.67.33,1.14.76a16.2,16.2,0,0,0,3,2.44c2.16.94,1.18-.11-.2-1.07-2.3-1.59-3.1-2.65-1.47-2.08a8.26,8.26,0,0,0,5.87-.56c.68-.41,1.1-1,2-.73,1.32.43,1.84-.35,1.47-.79-.61-.39-2-.85-3.29-1.73a8.2,8.2,0,0,0-7.7-.23c-1.16.67-1.56.19-.42-.47,4.54-2.45,8.13-.1,11,1.65.5.31.85.28.86.07-.08-.71-1.37-1.15-1.9-1.47-4-2.47-8.31-3.25-11.48.25Zm27.58-2.17h4.54V46l-4.21,0ZM77.36,46.22c1.26,0,4,1.13,3.94,2.06,0,.36-.73,0-1.33-.33a6.77,6.77,0,0,0-4.58-.57c-1.27.23-1.68.44-1.86.29-.44-1,2.66-1.44,3.83-1.45Zm49.09.67V48.5c-2.46.18-3,2.91-1.39,4.44,1.3,1.25,3.44.76,4.52-1,.19-.32.21-.51.33-.36a2.75,2.75,0,0,1,.19.69c.17.84-.07,1.06-.63,1.78a3.51,3.51,0,0,0-.46,3.73c.15.3.48.74.42.93.32,0-2.79,8.71-7.34,13.1-.76.5-1.32-.09-.92-.9,3.7-8.47-3.38-16.34-6.14-23.91l11.42-.1ZM93.51,48.35l.65.06c-.52,3.9-4.31,3.27-4.46.09l.55,0c.74,3,3.27,1.75,3.26-.13Zm-21.38.08a1.93,1.93,0,0,1,.27.68c0,.91,0,2.22,0,2.62-.22,3.75-5,4.45-4.62,1.24a1.25,1.25,0,0,1,2.43-.28c.62,1.55.73-.38.74-1a17.94,17.94,0,0,0,1.22-3.28Zm23,.27a1.44,1.44,0,0,1,.82.47c.31.33.19.5-.54.88s-1.15.37-.86-.45c.17-.51.33-.91.58-.9Zm35.63.2c.1,0,.38.14.31.55-.1.68-.69,1.07-.85.9.1-.35.22-1.31.54-1.45ZM89.39,50.22c-.09.27-.25.15-.67-.2s-.43-.64,0-.92c.68-.41.72.86.63,1.12ZM75,49.2c.8,2.51,2.42,2.19,3.14.12l.69,0c-.15,3.24-4.24,3.18-4.28.05Zm-1.43.31c.24,0,.06.8.06.8s-.67-.35-.27-.72a.46.46,0,0,1,.21-.08Zm6,.21a1,1,0,0,1,.41.17c.39.26.33.42-.13.8-.7.58-1,.25-.63-.53.14-.29.24-.43.35-.44Zm52.28.55a6.3,6.3,0,0,1,1.59.35,17.32,17.32,0,0,0,8.42-.14c.87-.25,1.52,1.28,1,2.4-.21.48-.17.55.46,1.21a3.3,3.3,0,0,1,.36,3.81c-.49,1-.46.91.13,2.62.27.78.62,1.57.68,1.79.74,2.51,2.58,5.48,3.71,8,1.11,1.75-2,0-2,0a11.72,11.72,0,0,0,2,2c1.09.82,3.22.26,4.2,1.26a37.7,37.7,0,0,1-.46,7.17c-9.63-.45-25.69-.1-25.69-.1l3,4.7A14.27,14.27,0,0,0,142.82,84c-.11.39,5.27,3,9.69,3.31l0,3.15c-3.27-.36-6.59-.44-9.64-2.35,0,0-2.79,1.17-5.59,2.05L153,106.38v2.71s-6.7-6.25-13.6-13.3l.15,34.66,13.58.26c-.43,9-.26,14.76-.17,25.09a89.65,89.65,0,0,1-23.4,17.13,67.53,67.53,0,0,1-9.81-12c-.06-.09.28-.26.22-.35s-.56-.18-.65-.32c-1.7-2.52-5.64-9.53-5-9.69,1.21.08,6.8-.61,7.91-4a5.25,5.25,0,0,1,0-1.51,12.79,12.79,0,0,0-.08-6.33c-1.2-3.16,2.42-2.15,2.54-1.93v-12c-4.7,3.78-9.45,7.49-15.73,9-3.92-19.71,2.29-44.23,20-60.86L128,73c-18.17,18.8-22.93,39.47-19.83,61.24,0,0,.11.68.13.91,0,.54-.09.75-.57,1.14s-.87.62-.83,1c.08.7-.6.73-1.48.72-.4-.35-1,.1-1.27.26s-.68-1.8-1.27-.43c-.22.86-.64.92-1.61.5-.61-.18-.62.12,0,.82.82.88,1.5,2.18,1.37,2.57a1.62,1.62,0,0,0,1.07,2.26c-.07,0-.75,2.68,1.17,2.6a19.14,19.14,0,0,1,2.16.32,1,1,0,0,1-.3,1l-1.34-.67L105,148.8l-1.78-.13,4.33,5.35.51-4.17,5.06.64c.81,2.11,5.93,13.84,15.71,22.57,0,0-5.35,2.33-6.85,3.06l-.92-3.33-.85,1.21-1.49-.38-.18,1.36-1.33.43,2.33,1.75-6,1.82C96.49,151.47,88.77,113.25,110,72.84l5.37.07-1,1.78,1.53-.24.43,1.31,1.12-.53,1.13,1.42,1.28-3.78s3.8.09,4.27,0,8-6.47,7.87-6.72-8.34,5.84-8.62,5.61c0,0-.82.19-.18-.58a28.32,28.32,0,0,0,3.14-4.42,20.94,20.94,0,0,0,3.27-8,1.6,1.6,0,0,0-.08-.75c-.74-1.47-.58-2.43.75-4.16.46-.61.49-.76.36-1.13a1.89,1.89,0,0,1,.6-2.12,1,1,0,0,1,.63-.34ZM86.6,56.12c3.37,1.38.67,4.45-1.83,1.78-1.32-1.4-2.35-1.31-3.07-.29-.32.46.15,1.27.56,1s.79-.52,1.35,0c4.26,3.92,7.32-1.57,3.65-2.94-.46-.21-1.1.26-.66.44ZM72.73,56a.14.14,0,0,1,.11,0,4.24,4.24,0,0,1,0,2.07c-.53,2.95-2.63,9.82-6.95,6.46-1.72-1.34-.16-4.68,1.9-3.55,1.6.89.52,3-1.22,1.8-.84-.59-.57.62.14,1,1.2.63,3.39-.45,4.41-2.38a17.8,17.8,0,0,0,1.23-4.08c.21-1,.23-1.33.37-1.33Zm.36,5.11c.36,2.13-1.27,5.87-3.58,6.43-1.77.42-4-.73-3.81-1.8,0-.31.17.1,1.78.36,2.24.37,3.67-.84,5-3.63a10.07,10.07,0,0,1,.65-1.36Zm5.58,1a8.36,8.36,0,0,1-.22,1.3c-.24,1-.39,1.38.71.89A3,3,0,0,1,82,64.25a4,4,0,0,0,3.79-.06c1.23-.41,1.84-.42,2.53,0,1.26.72.83.26.66-1.56-.11-1.29-.46-1.12-.91-.63a1.3,1.3,0,0,1-1.57,0,2.41,2.41,0,0,0-2.28.08c-.37.3-.91.34-1.64-.15-.48-.33-.75-.16-1.34.11a1.5,1.5,0,0,1-1.89-.21c-.48-.35-.71-.24-.71.28Zm-4.85,1.54c.13,0,.14.48.05,1.48-.41,3.66-3.28,5.7-6.65,3.93-1.48-.85-1.28-1.44.18-.91,2.32.84,4.66-.34,5.81-3.35.29-.77.49-1.15.61-1.15Zm8.23,2.61c1.67.69,3.52.47,4-.14s-.28-.58-.7-.47a4.9,4.9,0,0,1-3.06,0c-1.73-.67-1.62.06-.23.66Zm-17.41,2A41.42,41.42,0,0,1,69,74.5c13.63,23.12,18,52.35,9,78.89a94.66,94.66,0,0,1-9.81,20.78l-4.66,0,1.6-1.82-2.17.16-.14-1.21-1.64.54-.8-1.83-1.49,4.17-8.65,0c20.26-19.68,24.24-43.54,20.47-62.68,0,0,1.69-1.06,1.93-1.68a4,4,0,0,1,.3-.89c.75-.49,1.25-1,1.62-.87a.75.75,0,0,1,.48.38c.71,1,.87,1.2,1.26.15.27-.75.16-1,1.07-.88.54.28,1.26.28,1.19.17s-.81-1-1.17-1.48c-.85-1.21-1.1-1.42-1-2a2.14,2.14,0,0,0-.92-1.89c.11-2.16-.72-2.38-3.07-2.86a1.94,1.94,0,0,1,.22-1L74,99.86l.5-2,1.88.1L70.9,92.66a38.07,38.07,0,0,1,0,4.41c-2.54-.14-5.06-1-5.1-.8A68,68,0,0,0,50.3,74.2l6-2.89L58,74.55l.41-1.83,1.5.26.25-1.18,1.64-.23L60,69.84Zm35.81,3.8c.23.29.41.31.72.57l-.62.44a2.44,2.44,0,0,0-.1-1Zm-40,1.09a.92.92,0,1,0,.93.92.92.92,0,0,0-.93-.92Zm5,.14a.93.93,0,1,0,.93.93.93.93,0,0,0-.93-.93ZM49.3,74c3,2.47,5.71,5.7,9,10.74l-.07.68,1,.38s5.52,7.27,5.23,10.5c-1.9.39-3.37-.31-6.76,2.86l-2.17-.47-2.29.56a1.11,1.11,0,0,0,.59,1c.25.11.66-.89.93-.86,1.11.13,2.24.14,2,.49-.23.1-.83,7.33.33,8.86.65,1.57.19,1.56-.4,1.85s-2.62-.46-2.62-.46l.46,11.46c5.25-6,16.35-10,15.56-9.55,5.57,29.41-7.67,49-21.53,63.41l7.26,0s-6.26,10-6.73,12.81c.36.93,1.35,2.84-.32,4.18-.56.62-.62,3.42-.62,3.42-3.82.13-7.13-1.2-11.53.34-.46.16-.56-2.39-.58-2.85a4,4,0,0,1-.4-5.18c.44-.49.25-.23-.11-1.9a32.19,32.19,0,0,0-4-8.64,16.71,16.71,0,0,1-1.08-1.95c-1.05-1.24-3.82-.67-4.15-1s-.51-7.06-.2-7.22c10.89.86,27.92-.13,27.92-.13L49.55,161c-5.63-2.2-13.37,1.55-13,1.75,0,0-6.17-3.39-10.48-2.9l.14-3.34A20,20,0,0,1,36.64,159l5.23-2-16-16.81.18-2.78s4.1,4.39,8.55,9.07c3.82,4,5.25,4.69,5.25,4.69V116.37l-13.78,0-.37-7.12-.36-.63-.16-5.11.38-.52-.13-2.19-.13-.31-.17-5.22.29-.44.05-3.29C32.1,85,49.3,74,49.3,74Zm11.77,1,1.6,7,1.08-1.34,1.66.52.11-1.62L67,79.1Zm54.76,1.17a.93.93,0,1,0,0,1.85.93.93,0,0,0,0-1.85Zm-4.34.58a.93.93,0,0,0,0,1.85.93.93,0,1,0,0-1.85Zm-53.09.82a.93.93,0,1,0,0,1.85.93.93,0,0,0,0-1.85Zm56.42.56-6.45,6.06,1.81-.08.32,1.77,1.62-.74,1.31,1.21Zm2.74,2a.93.93,0,1,0,.92.93.93.93,0,0,0-.92-.93ZM66.3,81.38a.93.93,0,1,0,.93.93.92.92,0,0,0-.93-.93Zm4,.77a.93.93,0,1,0,0,1.85.93.93,0,0,0,0-1.85Zm-3.64,1.38c.18,2.48.47,5.41.53,7.9l1.23-1.21,1.41.58.5-1.53,1.53-.07Zm39.69,2.07a.93.93,0,1,0,.93.92.93.93,0,0,0-.93-.92ZM64,85.76a.93.93,0,1,0,.92.92.92.92,0,0,0-.92-.92ZM110,86a.93.93,0,0,0-.92.93.93.93,0,1,0,1.85,0A.93.93,0,0,0,110,86Zm-.55,2-5.34,5.5,1.75.16.55,1.56,1.12-1,1.36,1Zm2.93,1.18a.93.93,0,1,0,.93.93.93.93,0,0,0-.93-.93ZM70.29,90.88a.93.93,0,1,0,0,1.85.93.93,0,0,0,0-1.85Zm-22.7.56-1.74,1.33.43-.06a16.69,16.69,0,0,1,1,1.31c0,.08.65,0,.65,0Zm27.08.81a.93.93,0,1,0,0,1.85.93.93,0,0,0,0-1.85ZM68,93.57a.93.93,0,1,0,.93.93.92.92,0,0,0-.93-.93Zm38.26,1.87a.93.93,0,0,0,0,1.85.93.93,0,1,0,0-1.85Zm-3.65,1.36a.93.93,0,1,0,.93.92.93.93,0,0,0-.93-.92ZM140,97l1.93,2.1v30.6l-1.88,0ZM65,97.24c1.57,0,3.32.23,3.88,1.18.86,1.07-1,.66-2.53.89s-.6.47,1.42.59c2.79.16,3.88.23,4.29.87a4.76,4.76,0,0,1,.12,1.65L69,102.27a17.69,17.69,0,0,0-3.09.1c-.38.1-.27.4-.14.54a23.76,23.76,0,0,0,2.8.13c4,.1,4.83.23,5.11,1.5s-.74,1-4.81.55a5.86,5.86,0,0,0-3,.41c-.44.22,1.29.43,1.86.34a29.28,29.28,0,0,1,3.93.41c.8.12.09.09-.32.59s-.18.87-.6,1.1a9.55,9.55,0,0,1-3.39.27c-2.11,0-3.09.51-.2.64,1.87.08,2,.05,2.13.59.43,1.33-.48,1.56-2.38,1.86a15,15,0,0,1-3.28,0c-4-.28-5.43-1.24-6-3-2-6.64.48-10.68,6.35-11,.33,0,.68,0,1,0Zm40.76.3-4.55,6.62,1.75-.68.84,1.79,1.4-1,1.4.87Zm-34.07.8c.24.29.13.51-.26.72A1.7,1.7,0,0,1,70.2,99c-.49-.22-.54-1.09-.14-1.18a1.87,1.87,0,0,1,1.66.57Zm-33-.34-2.49,2.39.07.09,3.28-1.29Zm69.89,1a.93.93,0,1,0,.92.93.93.93,0,0,0-.92-.93Zm33.91.8,3.27,3.25h-.87l0,1.81,2.74,0,1.51,1.48-4.19,0v1.84h5.19l0-.78,2.05,1.85.24,20.53-9.89,0c0-10.1,0-19.84-.05-30ZM74.7,102.05c-.15.44-.46.44-1,.22-.8-.32-.68-1.21-.08-1.3,1.15-.13,1.37.39,1.09,1.08Zm3.11.38a.93.93,0,1,0,.92.93.93.93,0,0,0-.92-.93Zm-3.26.71a1.58,1.58,0,0,1,.93.42c.5.51.32,1-.25,1.28s-1.08-.12-1.26-.87a.61.61,0,0,1,.58-.83Zm29.08,2.43a.93.93,0,1,0,.92.93.93.93,0,0,0-.92-.93ZM73,106.7a.77.77,0,0,1,.62,1.28A.89.89,0,1,1,73,106.7Zm27.28.38a.93.93,0,1,0,.93.92.92.92,0,0,0-.93-.92Zm3.29.61-4.14,7,1.68-.66,1,1.34,1-.91,1.59.77Zm-32.52,1.16c.74,0,1,.59.41,1.12a.82.82,0,0,1-1.21,0c-.64-.51-.15-1.16.8-1.16Zm35.43.09a.93.93,0,1,0,.93.92.93.93,0,0,0-.93-.92Zm-30.18.73a.89.89,0,0,0-.89.92.93.93,0,0,0,1.86,0,1,1,0,0,0-1-.92Zm68.68.21v2h5.22v-2Zm-68.61,1.74-2,7.31,1.67-1,1,1.06,1-1.2,1.74.46Zm3.56.79a.93.93,0,1,0,.92.93.93.93,0,0,0-.92-.93Zm-6.52.38a.93.93,0,1,0,.92.92.92.92,0,0,0-.92-.92Zm71.56.57v1.77h5.22v-1.75Zm-43,2.31a.93.93,0,1,0,0,1.85.93.93,0,0,0,0-1.85Zm43,1v1.9h5.22v-1.9Zm-107.7.23,1.83,0,0,33.15-1.79-1.89Zm-.77.06-.09,30.3L33,143.59h.92v-2.06l-3,0-1.29-1.26h4.3v-2l-5.1,0v1.23l-2.5-2.68,0-19.78Zm65.61.93-2.78,7.21,1.75-1,.91.89.93-.84,1.6.77Zm-73.35.35,0,1.93h5.14v-1.93Zm76.51.39a.93.93,0,0,0,0,1.85.93.93,0,1,0,0-1.85Zm-6.3.1a.93.93,0,1,0,.93.92.93.93,0,0,0-.93-.92Zm-21.8.34a.93.93,0,1,0,.93.93.93.93,0,0,0-.93-.93Zm67.8.75v2h5.22v-2ZM77.09,121l-.78,1.2-1.77-.6L77,128.87l3-7.63-1.74,1Zm-48.3.53v1.94h5.12v-1.94ZM145,123.23v2h5.21v-2ZM28.79,124.92v1.93h5.12v-1.93Zm73.29.36a.93.93,0,1,0,.93.93.93.93,0,0,0-.93-.93Zm-27.89,1a.93.93,0,0,0,0,1.86.93.93,0,0,0,0-1.86Zm6,.18a.93.93,0,1,0,0,1.86.93.93,0,0,0,0-1.86Zm64.86.13v1.82h5.21v-1.82Zm-42.93.84L101,128.57l-1.59-.45,3.61,6.72,1.82-7.23-1.59,1Zm-73.28.69v2.2h5.12v-2.2Zm48.33,1a.93.93,0,1,0,.93.93.93.93,0,0,0-.93-.93ZM77.06,131c-.4.29-.57.78-1,1l-1.69-.72,1,9.16,4.7-8.65-2.15.36Zm-48.27.3v2.29h5.12V131.3Zm76.91,1.06a.93.93,0,1,0,0,1.86.93.93,0,0,0,0-1.86Zm-6,.11a.93.93,0,1,0,.93.93.93.93,0,0,0-.93-.93Zm-70.9,2.16v2.29h5.12v-2.29Zm74.26.51a.93.93,0,1,0,.93.93.93.93,0,0,0-.93-.93Zm13.12.07c5,.16,5.71,1.76,5.74,7.29,0,4.41-1.29,6.14-4.5,7a22,22,0,0,1-6.79-.37c0-.38-.64-1.26-.78-1.93a18,18,0,0,1,3.21.23c1.53.14,1.93-.1,1.44-.4-2.88-.69-4.85-.5-7.63-1a4.29,4.29,0,0,0-.71-1.79c.15-.06,4.28.38,6.46.31,1,0,.38-.49,0-.57-2.54-.36-4.19-.3-6.87-.64a2.56,2.56,0,0,0-.71-1.84s1.35,0,4.15,0c1.48,0,2.76.08,3.41.06,1.08,0,1-.5,0-.57-1.15-.13-5.66-.16-5.66-.16a3.74,3.74,0,0,0,.6-2.19s1.17,0,1.91,0c3.61-.13,4.23-.07,4.3-.21.48-.43-.8-.6-2.14-.6-.57,0-1.41.13-1.41-.19a3.12,3.12,0,0,0-.3-1.48,15.44,15.44,0,0,1,6.24-.92Zm-42.94,1.13a.93.93,0,0,0,0,1.86.93.93,0,1,0,0-1.86Zm35.53.2c.61,0,.81,1.1.23,1.28-.88.26-1.36.05-1.33-.47,0-.3.7-.81,1.1-.81Zm-29.45,1a.93.93,0,1,0,.93.93.93.93,0,0,0-.93-.93Zm26.48,1c2.11,0,1,2.84-.6,1.81-.8-.51-.24-1.8.6-1.81Zm-33.28,2.29s-.06,0-.06.14l.49,8.71L78,141.55l-2,.75L75.12,141l-1.08.86c-.45.35-1.3-1-1.53-1Zm31.33.89c1,.13,1.58,1.08.92,1.53-1.47.65-2.26-1.46-.92-1.53Zm-2.27,1.91a.93.93,0,1,0,.93.93.93.93,0,0,0-.93-.93Zm3.58.79a.81.81,0,0,1,.39,1.52,1.18,1.18,0,0,1-.9,0c-.94-.69-.45-1.42.51-1.49Zm-34.82,1.43a.93.93,0,1,0,.93.93.93.93,0,0,0-.93-.93Zm71,1.17-3.45,1.16v1.62c1.51-.47,2.37-1.7,3.45-2.78Zm-32.3.79c.6.24.76,1.05.25,1.33a2,2,0,0,1-1.78-.17c-.69-1.12.8-1.44,1.53-1.16Zm-32.5.32a.93.93,0,1,0,.94.92.93.93,0,0,0-.94-.92Zm-3.8,1.6a.82.82,0,1,0,.82.82.82.82,0,0,0-.82-.82Zm38.65,1.39a.93.93,0,0,0,0,1.86.93.93,0,1,0,0-1.86Zm-41.65,0,0,8.22,5.49-6.73-1.91.41-.81-1.66-1.17.76Zm34.79,1.89a.93.93,0,1,0,.93.93.93.93,0,0,0-.93-.93Zm27.43,0-.9,1.54,2.55-1.42Zm-23.72,1.09a.93.93,0,0,0,0,1.86.93.93,0,1,0,0-1.86Zm3.14,1-1.11,1.58-1.47-.47-.43,1.51-1.76-.06,5.71,5Zm-44.53.63a.93.93,0,1,0,.93.93.93.93,0,0,0-.93-.93Zm85.66,1.34L153,225.3l-32.48.07-13.38-18.26a24.36,24.36,0,0,1,1.14-10c1.31.9,4.17.41,4.07-3.1-.06-2.3-3.6-3.48-5.37-1.75.09-2.22,1-5.56,2.3-6.55.89.82,1.09,2,3.1,1.68a2.75,2.75,0,0,0,2-3.71,5,5,0,0,1-.25-1.43,8.9,8.9,0,0,0,0-1.46,9.86,9.86,0,0,1-.14-1.05,98.17,98.17,0,0,0,38.62-22.56Zm-79.15,1.17a.93.93,0,1,0,.93.93.93.93,0,0,0-.93-.93Zm-4.39.9a.93.93,0,0,0,0,1.86.93.93,0,0,0,0-1.86Zm46,.45a.93.93,0,1,0,.94.93.93.93,0,0,0-.94-.93Zm-49.35,1-1.45,8.66,6.33-6.48-1.72,0-.34-1.47-1.61.52Zm43.05,1.84a.93.93,0,1,0,.93.93.93.93,0,0,0-.93-.93Zm4.1,1a.93.93,0,0,0,0,1.86.93.93,0,1,0,0-1.86Zm-51.09,1.13a.93.93,0,1,0,.93.93.93.93,0,0,0-.93-.93Zm54.79.7L115,166.51l-1.39-.85-.33,1.84-1.19.63,5,3.49Zm3.69,2.48a.93.93,0,1,0,.93.93.93.93,0,0,0-.93-.93Zm-52.59.31a.93.93,0,1,0,.93.93.93.93,0,0,0-.93-.93Zm-4.13,1.22a.93.93,0,1,0,.93.93.93.93,0,0,0-.93-.93Zm54.33,2.46a.93.93,0,1,0,.93.93.93.93,0,0,0-.93-.93Zm-3.89.83a.93.93,0,1,0,.92.93.92.92,0,0,0-.92-.93Zm-36,1.32h0a1.63,1.63,0,0,1,.14,1.39c-.15-.07-.82-.69-.65-.9s.41-.5.49-.5Zm-21.1,1.46a6.94,6.94,0,0,1,1.09.13,5.09,5.09,0,0,1-.45,1.3,11.42,11.42,0,0,0-.17,9c1.93,4.12,7.4,13.86,7,14.76l-12.07.05,0-1.84c3.39-.13,3.93-2.21,3.08-3.92a2.93,2.93,0,0,0-3.73-1.24c-2.17.9-2.31,2-3.08,3.63l-.34-.44a3.8,3.8,0,0,0,.81-2.64c0-.94-.08-.68.25-1.19a4.43,4.43,0,0,0,.65-4.67c-.23-1.62,5.65-12,6.92-12.93Zm-27.61.27c3.44,2.73,6.41,11.93,6.23,12.07a4,4,0,0,0,0,5.83,5.36,5.36,0,0,0,.37,2.62c-1.24,2.57-1.46,2.77-1.57,4.88,0,0-.21,0-1.36,0-5.69,0-6,7.21-.27,7.6.77.06,1-.12,1.51.34s.91,1.19,1.72.88a1.51,1.51,0,0,1,.83.49,2.41,2.41,0,0,0,2.47,1.06,5,5,0,0,1,1.24.31,2.2,2.2,0,0,0,2,.4,1.22,1.22,0,0,1,.9,0,2.11,2.11,0,0,0,2-.09c.76-.4.92.24.89.82A2.59,2.59,0,0,0,48,216c2.73.84,4.11-.84,4.7-4.17.14-.73.27-1.6.27-1.6l9.15.24L49,225.69,26.63,226l-.12-50.28c1-.05,1.72,0,2.7,0Zm82.23,2.71c1.67.64,1.8,1.82.14,1.31a5,5,0,0,0-6.21,3.18,3.06,3.06,0,0,1-.3.84c-.37.46-.36,0-.25-1.27a4.6,4.6,0,0,1,4.36-4.45,7.24,7.24,0,0,1,2.26.39Zm-.83,1.8a3,3,0,0,1,2,.68c.62.69.44,1.14,0,1.12a4.85,4.85,0,0,0-6.26,3c-.69,1.75-.82.81-.51-.54a5.18,5.18,0,0,1,4.82-4.31Zm-15.72.68a3.66,3.66,0,0,0-2.39.64c-.91.86-.16.87,1.48.3a6.26,6.26,0,0,1,3.32.19c.82.29,1.11.41,1.06.15,0-.77-1.82-1.29-3.47-1.28Zm18.43,2.86c.41,1,.14,2.62-1.31,2.79-1.71.2-2.6-2.67.53-2.16-.4-1.15-1.81-.84-2.5-.54-1.41.61-2.37,2-3.24,4.55-.25.75-.44,1.15-.54,1.07a4.63,4.63,0,0,1,.14-2.71c.68-2.55,2.33-4.09,4.09-4.14a2.76,2.76,0,0,1,2.83,1.14Zm-24.5-1.11c-.16,0,.11.57.53,1.4a4.31,4.31,0,0,1,.38,1.17c0,.46.35.57.86.28s.68-.59,1.51-.22a2.31,2.31,0,0,0,2.27.26c.4-.23.65-.22,1.4,0,.9.23,1,.27,1.69,0a2.32,2.32,0,0,1,2.09.13c.2.23.08-.09.55-1.17.21-.5.52-1.11.44-1.28s-.9,0-1.75.25a3.23,3.23,0,0,1-1.77-.16,5.43,5.43,0,0,0-4.19.17c-.65.31-2.28-.11-3.92-.78a.18.18,0,0,0-.09,0Zm3.64,5a2.15,2.15,0,0,0-1.94,1.24c-.4,1,.28,2.81,1.33,3s.9-.43.43-.58c-.71-.24-1.55-1.25-1-2.13.37-.61,1.49-.61,2.27.14,1.57,1.51,3.37,1.61,3.71.3.11-.52-.29-1.22-.91-1a3.16,3.16,0,0,1-2.49-.43,2.48,2.48,0,0,0-1.39-.48ZM109,192.4c4-.24,2.29,5.24,0,3.83-.82-.5-.46-2.35,1.74-2.31-2.15-1.68-3.62.37-3.09,2.65a18.21,18.21,0,0,0-.94,3c-.49.92-.87-1.5-.38-3.83s1.29-3.24,2.7-3.33Zm-22.66.19c-.83,0,0,.9.15,1,2.49,2,3.72,3.17,1.71,2.52-3.26-.77-4.1.15-6.59,1.24-.46.22-.58.09-1.13-.07-2.19-.65-2,.72.25,2,3.45,1.86,6.29,2.29,9,.89,1.72-.9,1.8-.31.21.68-2.74,1.6-5.63,1.36-10-1.4-1.43-.89-1.63-.29-.17.64,3.34,2,7.84,3.85,11.52.88.72-.65.86-1,1.42-.7,1.47.73,1-.55,0-1.75-.36-.42-.62-.77-.6-1.06.08-1-.49-1-1-1s-.56-.18-1.33-1c-1.13-1.24-2.5-2.57-3.33-2.79ZM53,198.14c-1.39.11-1.71.17-1.37,3,.07.53.3,2.13.37,2.73.83,7.45.16,10.74-1.92,11.65a2.56,2.56,0,0,1-2,0c-1.32-.53-1.86-2.12-.9-4a12.75,12.75,0,0,0,.69-1.76c.12-.45.4-1.45.62-2.22a21.11,21.11,0,0,0,.5-7.42,4.93,4.93,0,0,1,.29-3.23c1-1.84,1.66-2.78,3.78-2.81,2.37.25,3,3.84,0,4.07Zm51-.16-.65,0c-.78-2.6-2.41-1.76-2.68.06h-.55c.09-3.47,4.43-2.53,3.88-.09ZM43.07,196c4.43.43,5.23,1.53,5.59,6.89,0,2.58-.15,4.15-.54,4.73-.67.32-1.3-.27-2.24.33-.52.31-.43.35-.65,0a5.72,5.72,0,0,1,.37-2.78c.33-1-.22-1.64-1.69-3a5.06,5.06,0,0,1-1.1-1.57c-.77-2-1.15-1.15-.52.61.31.77.39,1.14-.56.81a1.82,1.82,0,0,0-1.49.27C39,202.66,38,202,39,201.59a10.43,10.43,0,0,1,2.15-.59c.26,0,.38-.06.38-.18,0-.51-2.34-.46-4.13.16-2.2,1-2.32.83-2.12-.74.52-4,4.23-4.47,7.76-4.2Zm43.32.34a2.11,2.11,0,0,1,2,2.35l-.54,0c-.26-2.07-2.22-2.16-2.74.16l-.78,0c.5-1.79,1.31-2.46,2.09-2.5Zm13.17.05c.44.26.14,1-.34,1.12-.18,0-.75-.35-.61-.59a2,2,0,0,1,1-.53Zm5.07.35a.73.73,0,0,1,.78.57c0,.62-.45.49-.61.44-.31-.29-.42-1-.17-1Zm-15.52.49c.83.1,1.13,1.14.19,1.21-.42.08-.44-1-.19-1.21Zm-5.06.11c.1,0,0,.86-.26,1-.41.24-.93,0-.91-.28,0-.62.79-.71,1.17-.71Zm14.49,2.08a8.25,8.25,0,0,0,5.58.51c.7-.27,1.27-.59,1.26-.29s-.56.79-1.57,1.08a5.28,5.28,0,0,1-5-.72c-.4-.3-.54-.58-.25-.58Zm-.65.89c2.57,1.5,4.88,1.65,7,.56.84-.29.87,0,.87.52-3.76,3.3-8.46-.13-7.84-1.08Zm-63,2.29c-.63,1.28-1,4.44-2,5.38-7.09-.41-2.53-9.76,2-5.38Zm43.93-1c-.4.21,0,1.21.59,1.49,5.42,2.33,8.2,2.61,11.28,1.53a3,3,0,0,0,2-2c.07-.61-.75-.67-2.2,0-4.39,1.73-7.15.38-10.7-1a1.46,1.46,0,0,0-1,0Zm-20.76.07,0,7.9-5.16-.09L53,208.3l3.86.12-.06-5.65-4.48,0v-1Zm1.2,0h5.15l.26.8H59.28ZM38.5,204.19a1,1,0,0,1-1.18.12c-.54-.54,0-1.56.88-1.55s.95.84.3,1.43Zm2.37-1.29c.78,0,1,.73.45,1.32-.41.37-.61.39-1,.12a.86.86,0,0,1,.52-1.44Zm-5.08.2a.49.49,0,0,1,.51.22c.48,1-1.08,1.64-1.4.91-.24-.58.36-1.11.89-1.13Zm29.13.11.3,1-5.94,0v-1Zm-21.25.29c.88.1.75,1,.33,1.39-.7.65-1.39.44-1.21-.44.12-.54.47-.94.88-.95Zm-4.78,2.91c-.31,1.12.36,3.37.16,3.6-.43.52-1.13.25-1.44.08-1.07-.69-1.14-4.73-.1-5,.66.33,1.11-.27,1.42-.35s.1.46,0,1.64Zm15.7-1.66a1.06,1.06,0,1,1-1.06,1.06,1.06,1.06,0,0,1,1.06-1.06Zm4.69.14h6.07a1.21,1.21,0,0,1,.23,1.2h-6.3ZM41.44,205c.28,0,.42.59.23,1.27a7.94,7.94,0,0,0-.08,3.61c.15.5.3.84.21,1-.31.5-1.27.16-1.68-.49-1-1.85-.84-5.31.35-5,.45.23.7-.13,1-.33Zm-5.35.47c-.29.46-.08,3.09-.11,3.31s-.79.13-1.21-.06c-1-.48-.75-1.71-.55-2.7.22-.78.72-.84,1.33-.91.34,0,.79,0,.54.36Zm8.26.14c.33,0,.38.23.3,1.2a8.39,8.39,0,0,0,0,2.13c.26,1.53.29,1.94-.09,2.24a1.18,1.18,0,0,1-1.54-.17c-1-.77-1-4.56-.27-4.89.71.18,1.16-.38,1.56-.51Zm21,1.15L64.46,208H59.28v-1.19Zm-18.46,1.6c.8,0,.67,1.44.23,2.33-.36.55-.64.6-1.19.09s.12-2.42,1-2.42Zm17,.4-.73.67h-3.8v-.66Z"/><path class="cls-4" d="M157.45,238.44v-2.37h2.42l5.12-7.86L159.47,216h-2v-2.59h7.8V216h-2.51l3.86,9.54,2.81-3.7V216h-2.07v-2.59h7V216H171.9v20.07h2.43v2.37h-7v-2.37h2v-9.28l-6.53,9.28h2.46v2.37ZM123.32,220c-5.74-2.07-8.08-9.23-4.82-16.29,4.36-9.46,10.86-15.54,15.19-24.47-.05,0,8.51,12.57,11.92,17.23,7.33,10.58,7,19.28-.13,22.71-5.1,2.47-10.33-.36-10.93-5.7-.09-.83-.15-.94-.54-.94s-.5.3-.61,1.52c-.41,4.75-5.55,7.57-10.08,5.94Zm35.3-18.43c2.22-5.23,4.81-8,7.52-13.57,2.19,4.28,6.23,8.92,7.59,13.25,1,3.35.23,6.08-2,6.89-2.54.95-4.44-.12-5-2.5-.2-1-.68-.87-.71-.14-.09,2.33-2.78,3.36-4.93,2.73-1.24-.35-3.46-2.88-2.56-6.66ZM38.4,180.27l-6.29-4.93c7.48-.16,15,0,22.45.14l-7.47,5.32c-1.53-1.67-2.44-3.92-4.61-5-1.62.66-2.72,3-4.08,4.47Zm55.21-1.71a1.07,1.07,0,0,1-.31-.08c-.17-.11-.28-.35-.41-1.14-1.87-8.72-11-8.1-11-7.85-.07-.34,11.42-10.7,18.17-18.84,2,6.21,8.22,20.42,8,20.37,0,0-1.68,0-6.32-.14-4.22,1.91-7.26,3.8-7.13,6.48,0,.95-.25,1.35-.56,1.27a2.5,2.5,0,0,0-.41-.07Zm20.62-28.05c6-.09,7.1-3,7.78-3.36a3.64,3.64,0,0,0,2.07,0c1.21-.43,4.4,2.1,6,4.64a19.12,19.12,0,0,0,1.78.75l.6-2.71,5.47-1.6V150a27.71,27.71,0,0,0-4.19,3.24l-1.67-.1-1,1.27c-3.8,2.05-7.52,4.5-11.53,6.09,0,0-4.79-6.2-5.34-10Zm-74.32.72,0-34.66c2.48-.17,6.43.61,7.5-1.16,1.78-2.9,6.57-5.84,6.57-5.84a114.5,114.5,0,0,1,.43,12.55c-7.08,8.64-11,19.28-6.65,35.17L45.1,157Zm39,1.76a119.89,119.89,0,0,0,4.23-22l13.47-.19.27,4.61Zm45.89-15.69-.25-12.89c9.83-11.75,10.41-22,6.77-34.95,3.24.75,4.92,3.28,8,6.77v33.61c-2.14.32-7.48.63-7.48.63-.16,1.58-4.67,5.34-7.05,6.83ZM83.16,117l-.6-5.69L99.89,94.78c-1.45,7.25-3.21,14.74-3.72,22.45ZM56.26,99a2.27,2.27,0,0,0-2.16.27c-1.24.82-5.85-4-6.6-7.19,1.15-1.56,11.29-6.53,11.29-6.53s5.92,7.61,5.68,10.78c-2.63.7-4.72.65-6.72,2.79-.29.32-.81.24-1.49-.12ZM46.11,92.81l.7.51-.41,3-7.47,2.21c2.56-2.18,4.39-4.05,7.18-5.73ZM70.37,76c1.54,0,3.13.58,4.31.11A4.35,4.35,0,0,1,77,75.84c2.23.7,3-1.76,4.43-1.77,1.84,0,2.86-1.28,2.87-3.85,0-1.12.1-1.24.31-1.36a1,1,0,0,1,1.38.75c1.32,4.74,4.64,9,9.89,8.66C91.67,82.53,79,95.63,79,95.63A126.45,126.45,0,0,0,70.37,76Zm54.07-4.08,7.66-5.56,4.58,5.58,4-5.31C143,68.29,148.26,72,148.26,72s-15.87.24-23.82-.09ZM44.62,69.07c1.61,1.14-15.34-19.43-17.3-26.71-1.46-4.28-.36-9.52,2.83-11.77,5.4-3.8,11.75-2.28,13,4.13.34,1.81.91,1.59,1.11,0,.72-8.15,10.73-8.75,14.59-3.06,2.63,3.89,2.65,10.08-1.17,16.28-.92,2-13.1,20.56-13,21.13ZM12.25,61.23C10,56.8,6.6,52.33,4.82,48.2c-1.34-3.38-.21-6.88,2.29-7.53s4.26.37,4.72,2.68c.16.78.47.84.63.12.92-4.36,7.07-3.42,7.49,1.14.27,2.91-.49,4.83-4.07,10.34-.87,1.78-3.22,4.36-3.63,6.28Zm1.2-28H16L12.25,24,9.37,27.92l0,5.33h2V36H4.3V33.25H6.64V13.41H4.3V11h7.21V13.5h-2l0,9.67,6.3-9.76H13.55V11h7.68v2.39h-2l-5.19,8,5.07,11.86h2.26V36H13.47Z"/><path d="M128.78,21.54,58.41,22,72.09,40.26c14.52-3,27.17-1,40.3,1.25Zm-1.8.93-4.68,5.82c-1.29-1.18-4.19-.75-3.78,1.81-3.59-1.87-4.35,3.25-1.3,3-.38,1-3.46,1.27-4.33-.56-3.16,1.77-4.12.06-5-1.06,4,2.72,6-2.88,1.55-3.19,1.73-3.52-4.46-5.11-4.09-.54-4.09-.92-3.15,4.83-.15,3.64-1.95,2.94-5.15,1-5.79.4-1.65,1.23-4.76,1.27-5.63-.7,4.55.91,4.06-5.07,0-3.69,2.15-4.6-5-4-3.27-.22-4.07-.15-3.17,4.87.4,4-3.17,3-5.56.2-6.06.14-1.88,2.07-5.18.94-5.64-.29,3.24,1.28,4.31-4.17.22-3.84,1-3.51-4.83-3.93-3.54,0-3.24-.73-3.41,4.46.22,3.65.22,1.42-2.63,2.78-4.39,1.41-1.29.7-2.7,1.8-4.38.18,2.56-.41,3-4.73-1.15-3.8.2-2.65-1.33-2.79-3.2-2.12l-3-4.08ZM78.44,29c-.23.49-.6.82-.52,1.2a4.86,4.86,0,0,0,.83,1.32c3.53,4.59,10.66,4.43,12.81-.3.44-.88.35-1.07-.18-1.82a1.1,1.1,0,1,1,1.67.07c-1.21,1.53,2.12,5,5.45,5.53,4.28.7,8.33-2.3,7.76-5,0-.15-.11-.29-.14-.46-.46-2.25,3.12-1.17,1.83.27-.48.51-.74.67-.68,1.24,1,4.77,6.84,5.27,9.6,3.8-3.56,5.82-9.21,1.33-10.2-2.73-5,7.23-11,5.72-14.37-.62.4.39-6.6,11.38-14.54.11-3.36,9.07-9.49,2.94-9.07,2.57,2.81,1.57,7.93,1,8.42-3.85.07-.6-.38-.63-.65-1.11-1.33-2.4,3-2.41,2-.22Zm-13.24.59c.64.06.75.33.64,1Zm54.62,1.7-.93,1.16c-.22-.56-.22-1.08.93-1.16Zm10,.39c-2.19.09-3.88,3.12-3.77,7.15,0,2,.4,6.87.53,7.6.19,1,0,2.4-.38,2.55-.94.38-1.3.63-1.55,1.08a2.15,2.15,0,0,0,1.28,3.1c1,.42,2.27-.16,3.13-1.45a6.7,6.7,0,0,0,1-2.81,9.76,9.76,0,0,0,0-3.44c-.5-2.85-.12-6.4.85-8.07,1.76-3,1.73-4.94-.09-5.57a3,3,0,0,0-1-.14Zm-.12.45c2.55,0,2.48,2.55,1.07,3.34a1.91,1.91,0,0,1-1.89-.14c-.75-.43-.64.06.13.63.92.66,1.31.62.81,2.18a18.9,18.9,0,0,0-.44,6.36c.68,4.87.1,7.29-2,8.14a1.88,1.88,0,0,1-2.38-1c-.48-1.77.51-2.2,2.28-2.06,0,0,.13-.4-.37-4.63-.7-5.88-.42-10,.66-11.41a3,3,0,0,1,2.08-1.43ZM147,38.18a3.8,3.8,0,0,0-1.89.53s-.07,2.64-.15,3c-.43,2.24-.31,2.51.73,2.82A3.35,3.35,0,0,0,150.23,41,3.13,3.13,0,0,0,147,38.18Zm.34.35c1.38,0,2.64,1.57,2.5,3.1a2.75,2.75,0,0,1-3.38,2.5c-.46-.08-.94-.17-1.09-.51-.31-.48.19-.66,1.24-.65s1.37-.16,1.75-.8c.76-1.28-.21-2.9-1.45-2.59-.42.1-.48.29,0,.43,1.51.68.94,1.64.42,2s-1.66-.17-1.83-.55l.1-2.47a2.62,2.62,0,0,1,1.72-.48ZM131.77,50a4.84,4.84,0,0,0-.85.53,2,2,0,0,0-.44,2.26c.13.38.11.44-.35,1-1.33,1.73-1.5,2.59-.82,4.14.31.71.31.71,0,1.64A36.52,36.52,0,0,1,123,71.26a3.28,3.28,0,0,0-.57,1,3.19,3.19,0,0,0,1-.21c2.71-1.35,5.58-4,8.25-5.69-4.22,3.43-8.71,6.49-8.71,6.49l5.74.31c-1.45,1.48-26.61,22.8-19.93,61,7.86-1.95,11.51-5.2,15.7-8.95,0,3.09.11,11.38.14,11.38s-3.64-1.4-2.76,1.66a16,16,0,0,1-.14,8.32c0,.1.4.27.36.36s-.6.11-.6.11c-1.42,2.66-5.1,3.24-6.91,3.16-.67-.06-.39.85-.31,1.19.34,1.36,1.91,4.3,4.86,9l.78.1-.45.42a21.1,21.1,0,0,0,1.28,1.83l0,.4s1.62,2.25,2.49,3.31c.06.07.19-.1.25,0,.48.58,1.06,1.22,1.55,1.8,0,0-.08.21,0,.26.92,1,2.74,3,2.74,3l.36-.08,1.42,1.6c11.83-5.38,24.18-17.27,24-17.24l.1-25.6-14-.05,0-33.9,14,13.82-.09-4c-3.18-3-15.92-15.87-15.92-15.87A16.2,16.2,0,0,0,143,88.46a15.9,15.9,0,0,0,10,2.18l0-3.76a12.43,12.43,0,0,1-8.75-3.1l-2.61-.09c-4.82,3.67-8.23,2-11.9,1.24l-2.54-3.65,26-.13-.19-8.86-3.94.09-2.56-1.9,3,1.25a3.82,3.82,0,0,0-.64-1.41,59.48,59.48,0,0,1-4.85-9.82c-.59-1.71-.59-1.64-.1-2.64a3.56,3.56,0,0,0-.36-4c-.63-.66-.61-.8-.41-1.29a1.72,1.72,0,0,0-1.2-2.53c-4.35,1.67-10.18,0-10.08-.11Zm10.12.71c.87,0,1,.37,1,1-.07,1.19-1.62,1.61-2.31,1.78-3.34.76-9.16.31-9.54-1.24-.28-1.15.44-1.78,2.81-1.21,3.81.81,6.16-.07,8.08-.35ZM131.12,54a1.06,1.06,0,0,1,.88.93,3.64,3.64,0,0,1-.84,2.27c-1.06.83-2-.46-1.31-1.85.41-.81.83-1.35,1.27-1.35Zm11.39.16a1.26,1.26,0,0,1,.62.17c.85.6.92,2.65.14,3s-1.55-.53-1.54-1.84c0-.8.3-1.29.78-1.28Zm-2.67.43a1.22,1.22,0,0,1,.54.11c.7.33,1,2.48.34,3.17a1.21,1.21,0,0,1-2-.6c-.4-1.33.22-2.63,1.15-2.68Zm-5.92.06c1,0,1.26,2.29.26,3.23-.84.78-2.13,0-1.72-1.55.2-.78.66-1.62,1.46-1.68Zm2.92.36c1.5.26,1.37,3.93-.59,3.57-1.12-.78-1.09-3.51.59-3.57Zm-6.57,3.94,2.12.2s-2.74,5.94-5.25,8.21c-.94,1-1.48,1-.77,0,1.58-2,3.9-8.39,3.9-8.39ZM143,59a102.78,102.78,0,0,0,4.2,10c-2.57-2.48-4.84-6.29-6.94-9.87Zm-10,.32h1.4A10.6,10.6,0,0,0,136.65,64a21.36,21.36,0,0,0,1.85-4.55h1.12c.42.25-1.32,6.7-3,7.49-1.81-1.47-3.33-5.43-3.58-7.62Zm-.6,1.52c-.11.16,2.19,5.68,4.13,7.45a14.92,14.92,0,0,0,3.79-6.91l6,8.46-5.88-4a29.34,29.34,0,0,1-3.92,5.36,68.83,68.83,0,0,1-4.47-5.79c-2.27,1.69-3.86,3.48-6.81,5.05,0,.07,5.78-6.21,7.13-9.6Zm-.56,6,4.1,5L125,71.68Zm8.89.08,6.89,4.75-10.27.1ZM85.82,69.23a3.67,3.67,0,0,0,.13.49c1.22,5,4.6,9.13,9.68,8.64L78.93,95.05a96.91,96.91,0,0,0-8.34-18.94l1.82.36a4.42,4.42,0,0,0,1.87-.06c.43-.07.75-.35,1.13-.43a3.81,3.81,0,0,1,1.88.25c1.15.22,1.93-.43,3.37-1.69.38-.34.52-.26,1-.26,1.79,0,2.94-1.54,2.74-3.93l-.09-1.06-.23,1.19c-.43,2.25-.73,3.23-3,3.32-.54,0-.74.39-1.6,1.12-1.19,1-2,1.12-2.89.71s-.94-.16-1.76.22a5.27,5.27,0,0,1-3.52.05c-1.71-.49-1.51-.33-1.51-.33C79.78,93.22,83.26,110.16,83,125.2a96.16,96.16,0,0,1-14.39,49.15s1.13-.12,2.14-.26a2,2,0,0,1,1.34.16,2.4,2.4,0,0,0,1.21.1,8.86,8.86,0,0,1,1.72.08c1.22.18,1.3,0,2.63-1.27,3.77-3.67,3.53-3.53,6.26-3.44,4.1.13,7.38,2.84,8.75,7.22.17.56.4,1.33.43,1.33l-.27-1.16c-1.2-5.88-6.23-8-10.43-8l17.72-17.77c-.09,0,4.11,13.52,7.76,19.54a7.12,7.12,0,0,0-3.14-.22,10.81,10.81,0,0,1-3-.12,3.52,3.52,0,0,0-2.56,1.16A5.87,5.87,0,0,1,97.38,173c-2.16.91-3,1.85-3,4.21,0,.43-.06,1-.06,1.19,0,.06,0,.13,0,.13s.09-.06.13-.12a4,4,0,0,0,.49-1.58,3.37,3.37,0,0,1,2.35-3.16,15,15,0,0,0,2-1.25c1.54-1.23,2-1.51,3.31-1.22a5.7,5.7,0,0,0,2.27.13,4.57,4.57,0,0,1,2.42.12c.82.21,1.84.42,1.84.42C92,137.35,92.53,105.38,109.49,73c0,0-5,.06-5.23.19A4.92,4.92,0,0,1,102.9,73c-1.37-.24-1.06-.08-4.29,3.16-4,4-10.36.81-12.27-5.91a3.68,3.68,0,0,0-.34-.82c0-.07-.18-.21-.18-.21Zm16.24,4c.74.08,1.29.27,1.19,1L79.6,97.3l-.37-1.49Zm5,.14c-.3.58-1.09,1.29-1.43,1.84l1.29,1.6-.72,1.29-2-1.66-3.76,3.71,3.14,3.53-3,3-1-1.13,1.58-1.64-2.45-2.29-4.3,4.18L98,89.32l-2.57,2.46-1-1,1.35-1.49L93.42,87l-4,4.08,3.17,3.53L90.14,97l-1.08-1.1,1.17-1.23L88,92.3l-4.08,4,3.3,3.59-2.42,2.18-.86-.91,1.17-1.26-2.22-2.38-2.53,2.29-.42-1.57,25-24.88Zm1.44.37-1.06,2.11-.81-.89,1.06-1.09Zm-59.08.13c-.64.16-15.56,8.47-24,17.59l0,3.39-.32.41.15,5.26.22.28.07,2.15-.34.56v5.89l.45.07.07,7.21,14,0,0,34.43s-8.19-9-14.09-14.32l0,4,15.6,16.11a12.24,12.24,0,0,0-4.58,1.57,17.37,17.37,0,0,0-10.91-2.19l0,4.1a15.53,15.53,0,0,1,11,2.78c3.22-2.18,7.09-3.51,12.88-1.77a38,38,0,0,0,3.82,5.44l-27.63.21,0,8.3c1.22,0,4.29,0,4.29,0,1.55,3,4.6,7.2,5.87,12.43-1.74,2.09-1.6,3.77.09,5.88,0,.94-.3,2,.77,3.05,3.52-1.71,7.48-1,10.44-.08,1,.3,1.38-.84,1.34-2.28-.09-.81-.09-1.17.55-1.71,1.5-1.3.5-4.28.33-4-.09-2.35,7.44-14.1,7.44-13.89l-1.5.54-6.43,0c16.92-16.3,24-34.91,22.5-55.91a33.28,33.28,0,0,0-1.15-7.72c-6,2.65-10.85,4.57-15.61,9.67l-.31-10.95a2.39,2.39,0,0,0,2.82.33c.54-.35.59-.73.09-2.06-.73-1.93-.9-6.07-.35-7.47a7,7,0,0,0,.16-1c.06-.57-.07-.61-.12-.6.14,0,.72.09.79,0a10.92,10.92,0,0,1,6.88-3l.07-1.3c-2-5-3.66-7-5.46-9.77a2.11,2.11,0,0,0-.83-.11l.42-.43c-2.52-4-6.11-7.64-9.41-11.09,0,0,0,0,0,0Zm-.11.68,1.79,1.66A94.67,94.67,0,0,0,25.86,94.41l.11-3A107.59,107.59,0,0,1,49.3,74.5Zm54.8,3,1.08,1.07-1.49,1.73,1,1-.54,1.32L101.64,80Zm-53.26.14a1,1,0,1,1-1,1,1,1,0,0,1,1-1Zm73,1.4c17.39,19.36,8.46,47.49-14.76,54.25l-.25-1.6c23.42-7.88,28.91-34.28,13.71-50.87Zm-70,.13L55,80.45C45,85.18,35.37,92.28,26,102.52l-.09-2.59A99.38,99.38,0,0,1,53.85,79.17Zm-6.4.39a1,1,0,1,1-1,1,1,1,0,0,1,1-1Zm-3.09,1.92a1,1,0,1,1-1,1,1,1,0,0,1,1-1Zm10.31.67a1,1,0,1,1-1,1,1,1,0,0,1,1-1Zm44.18.7,1,1.07-1.62,1.62,2.3,2.4,2.21-2.13L101.65,89,82.17,108.44l-.4-2,1.53-1.54L81,102.52,80.54,101l2.31-2.16,1,1-1.35,1.56,2.17,2.14,4-3.64-3.26-3.57L88,93.66l.93.91-1.28,1.32,2.26,2.46L94,94.47,90.66,91l2.68-2.64,1,1L93,90.9l2.3,2.22,4-3.92L96,85.77Zm-57.53.68a1,1,0,1,1-1,1,1,1,0,0,1,1-1Zm16,.2L58.14,85c-11.81,6-20,11.93-32,25.66V109A94,94,0,0,1,57.36,83.73Zm-5.93.15a1,1,0,1,1-1,1,1,1,0,0,1,1-1Zm91.34.39c2.08,1.86,6.45,3.7,9.27,3.5l.08,2.23c-4.92.47-9.21-2.68-9.21-2.68a14.57,14.57,0,0,1-11.66,1.6l-1.55-3.31c6,2.76,11.55.13,13.07-1.34Zm-23.53.61a3.47,3.47,0,0,0,1,.86c4.59-1.19,6,3.54,3.88,6.24l.61,2a5.16,5.16,0,0,1,2.12.84,3.79,3.79,0,0,1,1.59,3.52c.16,1.52-2.12,2.94-2.25,2.83l0,2.18a8.59,8.59,0,0,1,1.91,1.81,3.41,3.41,0,0,1-1,4.86,3.48,3.48,0,0,1-2.14.69l-1.06,2.48a2.91,2.91,0,0,1,1.34,2.06,4,4,0,0,1-1.88,3.86,5.21,5.21,0,0,1-3.64.1l-1.5,1.5a5.06,5.06,0,0,1,.28,2.84,3.74,3.74,0,0,1-4.08,2.49,4,4,0,0,1-2.19-1l-1.67.64s0,2.11-.81,2.75a12.09,12.09,0,0,1-1.21.88l-.22-1.45a2.8,2.8,0,0,0,.94-2.47l3.6-1.76a3.57,3.57,0,0,0,1.66,1.22,2.37,2.37,0,0,0,2.83-2.07c0-.74-.43-1.24-.55-1.84l3.06-3.16c1.26.44,2.15.51,2.71.18a2.49,2.49,0,0,0,1.16-2.65,3.64,3.64,0,0,0-1.11-1.58l1.7-4.31a3.1,3.1,0,0,0,1.91-.53,2.33,2.33,0,0,0,.56-3.21,2.51,2.51,0,0,0-1.68-1.08l.12-4.47s1.73-.83,1.92-1.83c.27-1.47-.35-2.4-2.16-2.82-1-.23-.95,0-.95,0l-1.42-4c2.26-1.39,1.54-3.58.4-4.31A3.56,3.56,0,0,0,120,87s-.78-.77-1.36-1.4Zm-60.53.82a47.15,47.15,0,0,1,5.41,9.58,5.38,5.38,0,0,1,0,1,10.5,10.5,0,0,0-6.81,3c-1.11-.57-1.58-1.24-3.58,0,0,.06-5.1-3.08-6.07-7.35a115.29,115.29,0,0,1,11-6.23Zm-20.37,0a1,1,0,1,1-1,1,1,1,0,0,1,1-1Zm9.64.2a1,1,0,1,1-1,1,1,1,0,0,1,1-1Zm69.62,1.25c1.75,2.31,4.4,6.67,5,10.54.88,5.43.3,11.14-2.2,15.13-4.52,8.51-12.36,10.33-12.37,10.63l-.08-1.75c.07.39,6-2.1,10-7.74a22.25,22.25,0,0,0,3.43-13.52c-.3-6.13-4.66-11.79-4.69-11.81ZM35.16,88a1,1,0,1,1-1,1,1,1,0,0,1,1-1Zm9.64,0a1,1,0,1,1-1,1,1,1,0,0,1,1-1Zm86.86,1.71c2.26.25,5,4.34,7.53,6.68l0,33.36-7.51.16c-1,2.34-3.24,4.66-6.85,6.95v-12.5c12.32-13.19,9-27.63,6.81-34.65Zm-99.26.38a1,1,0,1,1-1,1,1,1,0,0,1,1-1Zm9.27.18a1,1,0,1,1-1,1,1,1,0,0,1,1-1Zm95.28.09,15.34,15.46,0,2.27L135,90.55ZM47.3,91.83l.41,1.94c-.5-.78-.52-1.07-1.38-1.2ZM39,92.4a1,1,0,0,1,0,2,1,1,0,1,1,0-2Zm-9.2.28a1,1,0,1,1-1,1,1,1,0,0,1,1-1Zm86.33,0,3,2.14-1,3.87-3.1-2.78Zm-70,.31.54.32L46,96l-7,2.52A51.44,51.44,0,0,1,46.13,93Zm1.14,1.23a34.8,34.8,0,0,0,2.89,7.32c-.9.46-4.11,2.28-4.11,3.13.46,1.53,3.86,2.94,3.86,2.94A38.83,38.83,0,0,0,46.39,115c-.58-1-.64-4.89.61-6.52a15.63,15.63,0,0,1-4.21-2.74c.83-2.93,4.36-4.68,4.51-4.7-.06.14-1-6.12,0-6.82ZM36,94.72a1,1,0,1,1-1,1,1,1,0,0,1,1-1Zm77.67.08c4.52,8.43,1.83,15.76-5.39,21l.17-2c5-3.62,8.21-10.73,4.57-17.52ZM27.36,95a1,1,0,1,1-1,1,1,1,0,0,1,1-1Zm72.41.06a102.19,102.19,0,0,0-3.63,21.41l-12.89.11-.5-4.46Zm-51.52.34s2.8,2.6,5.31,4.86l-.3.59-2.44.33a47.6,47.6,0,0,1-2.57-5.78ZM45.93,96.8h0l.16,1.84c-.84,0-9.91,3.76-16.87,9.81a21.56,21.56,0,0,1,4.48-5.08c3.6-3.53,12.21-6.57,12.21-6.57ZM33,97.22a1,1,0,1,1,0,2,1,1,0,0,1,0-2Zm5.71,1.16.52.53-2.41,1.24Zm16.78.54h.1a1.36,1.36,0,0,1,.75.4A5.53,5.53,0,0,0,55,99.2a.73.73,0,0,1,.53-.28Zm-9.21.38.22,1.38c-5.22,3-11.42,5.77-20.45,14.31v-2.84A64.93,64.93,0,0,1,46.32,99.3Zm7,.13a1.76,1.76,0,0,0,.91,0s-.19.38-.41.39-.5-.4-.5-.4Zm2.21.08c.66,0,1.11.56,1,1.33a16.16,16.16,0,0,0,0,7.13c.42,1.44.53,2,.18,2.19-3.08,2.13-4.76-7.44-2.19-10.15a1.62,1.62,0,0,1,1-.5Zm-25.11.33a1,1,0,1,1-1,1,1,1,0,0,1,1-1Zm88.39.24,1.92,3.21-2.67,3-1.62-3.46ZM53,101.82l-.11,1.11a10,10,0,0,0-3.6,1.88c-.2.17,3.19,1.7,3.54,1.35v1.18c0,.39-5.59-1.38-6-2.69.62-.87,4.14-2.91,6.14-2.83Zm-25.24.59a1,1,0,1,1-1,1,1,1,0,0,1,1-1Zm15.12,1.17a8,8,0,0,0-1.08,2.83c-3.81,2.3-7.71,4.46-12.46,9.75l-2.56,0-.05-.67a70,70,0,0,1,16.15-11.89Zm9.8.32,0,1.39a3.83,3.83,0,0,1-2-.61,3.73,3.73,0,0,1,2-.78Zm28.63.15.71.75-.44.41Zm-38.54,2.89,1.4.88a39.25,39.25,0,0,0-10.75,8.34H30.64c3.52-3.82,7.32-7.25,12.13-9.22Zm75.12,1,.28,3.79-3.53,1.94.07-4Zm-67.27,0,2.43.26.25,1a38,38,0,0,0-5.51,4.4A20.88,20.88,0,0,1,50.62,108Zm-5.84.4,1,.48-.41,1.78a27.46,27.46,0,0,0-7.9,5.53H34.65a40.63,40.63,0,0,1,10.13-7.79ZM53.84,110h0l.38,11.68c-10.52,12.3-9.94,24.2-6.88,35l-2-.09a72.37,72.37,0,0,0-5.43-5.85v-34l7.25,0c1.71-4,6.41-6.76,6.68-6.8Zm-8.56,1.64.09,1.56a21,21,0,0,0-3.87,2.92H38.78a18.49,18.49,0,0,1,6.5-4.48Zm24.7.77.41,1.84C46,123.11,41.58,148.76,56,166.37l-1,1.09c-16.53-17.75-9.28-46.75,15-55Zm-24.51,1.84s.13,1.4.18,1.87H42.91a4.75,4.75,0,0,1,2.56-1.87Zm68.65.59-1.57,3.66-4.2.06,1.91-3.66Zm-26.55,2.5h3.82V121H87.57ZM71,117.74l.07,1.61c-1.7.86-1.27,2.24-1.7,2.22a29.16,29.16,0,0,0-3.8,1.72,2.41,2.41,0,0,0-2.9-.23A2.81,2.81,0,0,0,61.9,126L59,129.41c-1.41-.6-2.79-.56-3.47.38s-.48,2.37.79,3.85l-1.59,4.08c-.18-.24-2.84.54-2.88,2.12S54,142.6,54,142.73l-.1,4.5c-.11-.21-2.29.68-2,2.84.27,2,3,1.74,3,1.91l1.47,4.31a2.66,2.66,0,0,0-.84,3.47c1,1.46,3.78.51,3.76.42l.78,1.09-.87.94s-.37-.45-.58-.41a4.22,4.22,0,0,1-4.33-1.36c-1.19-1.84.14-4.72.56-4.69l-1-2.49a3.69,3.69,0,0,1-3.48-3,4.26,4.26,0,0,1,2.2-4.07l.06-2.69a3.94,3.94,0,0,1-2.28-3.18,4.4,4.4,0,0,1,2.49-3.46l1-.47.92-2.21a5.75,5.75,0,0,1-1-3.75c.62-2.86,4.34-2.67,4.93-2.39l1.73-2.16a3.51,3.51,0,0,1,2.54-4.64,13.75,13.75,0,0,1,3.24.43l2.22-1.14c0-1.21,1.28-2,2.5-2.74Zm12.59,4h3.27v3.65H83.61Zm8.72,0H96v3.65h-3.7Zm-21,.92,0,1.39c-21.15,10.26-12.5,31.49-9.48,34l-.68,1.5c-3.72-2.26-13.29-26.76,10.2-36.85Zm16.28,3.69h4l0,3.75h-4Zm-17.2,1.83-1.26,3.42-3.88.33,1.43-3.42Zm79.35,2.5,2.66,0c-5,5.8-10.33,9.76-15.62,11.93a2.66,2.66,0,0,1,.14-.92,2.81,2.81,0,0,0-.08-1.15,37.61,37.61,0,0,0,12.9-9.88Zm-13.61,0a8.75,8.75,0,0,1-2.44,2.08l-.38-2.11c.81,0,2.82,0,2.82,0Zm4.67,0c.27.68-7,4.59-7,4.26l0-1.3,3.91-2.9Zm1.56,0h0l2,0c-1.84,2.9-11.58,8.17-11.18,7.43l.4-2.13a43.59,43.59,0,0,0,8.72-5.32Zm3.44,0,2.68,0c-4,5.12-8.13,7-12.05,9.19a2,2,0,0,0-.87-.1l-1.34-1c.25.23,9-4.92,11.58-8.07Zm-75,.19-.09,1.54c-5.65,4.86-7.91,11.06-5,18.26l-.7,1.54c-3.16-7.68-2.23-15.15,5.76-21.34Zm25.71.24.29,4.18L79.21,152.35a123.75,123.75,0,0,0,4.12-21.22Zm56.12,1v2.32c-6.91,7.61-13.87,11-19.89,12.4l-.14-.89,2.78-1.72c9-3.91,12.91-7.84,17.24-12.11Zm-21,.06c.12,1.68-1.37,4.85-3.08,6.63h-2.92l-.32-1.27a18.68,18.68,0,0,0,6.32-5.35Zm.88.5c1.08,1.73-.54,6.2-.6,6-.13.3,9.18,2.27-.39,6.88.21,1.35,1.11,4.24.42,6-.22-.69-1.88-5.32-3.17-6.51,3-.85,5.14-2.68,4.91-3.28-.49-.86-1.83-1.91-4.08-2.68a16.3,16.3,0,0,0,2.91-6.47Zm-68.38.85.3,3.52-3.41,2-.26-3.87Zm59.17,3.27a.9.9,0,0,1,.63.21c1.69.68,1.81,8.87.28,9.71a1.22,1.22,0,0,1-1.85-.62,24.13,24.13,0,0,0,0-8.74c0-.39.53-.56,1-.56Zm29.3.12v2.92c-9.88,10.24-20.52,18.31-31.39,22.84l-1-1.68a98.56,98.56,0,0,0,32.38-24.08Zm-1.74.27c-4.57,6.37-10.15,10.52-17.78,12.41l-.14-1.8c9.51-2.17,18.17-10.61,17.92-10.61Zm-124.5,1c6,6.09,12.06,12.13,18.12,18.38l-2.4.13L26.25,140.31Zm70.93.31.21,1.5-1.73,1.9,2.74,2.95.14.69L96.25,148,95.19,147l1.3-1.46-2.2-2.33-4.1,3.94,3.37,3.67L91,153.19l-1-1,1.3-1.5-2.27-2.39-4.17,4.15L88,155.9l-2.1,2.33-1-1L86,155.94l-2.29-2.35-4,3.86L83,161.1l-2.68,2.67-1-1,1.51-1.63-2.48-2.36-2,1.87s.75-1.86.86-2.18.81-.82,5-4.94c5-5,10.09-9.61,15.06-15Zm28.57,1a14.22,14.22,0,0,1,5.14,1c2.23,1.17,1.53,2.1.08,2.79a11.68,11.68,0,0,1-5.11,1.29l0-1a13.65,13.65,0,0,0,3.32-1.11,2.2,2.2,0,0,0,.87-.69,5.24,5.24,0,0,0-1.74-1.08,14.3,14.3,0,0,0-2.52-.38Zm-65.16,1.27,1.83,2.75-2.17,3.63L58.23,144Zm37,.29c.06.52.72,2.53.37,2.14l-1.21-1.37Zm28.3.27a8.52,8.52,0,0,1,2.82.48,6,6,0,0,1-2.8,1Zm25.43,1.38a1.11,1.11,0,1,1-1.1,1.1,1.1,1.1,0,0,1,1.1-1.1Zm-57.2,1.92,1,.91L93.89,147l2.22,2.33,2.75-2.57.36,1.63L73.5,173.66l-1.42-.1,1.63-1.93-1.85-1.9.76-1.37,2.19,1.95,4-3.84L75.57,163l2.79-2.86,1,.91-1.6,1.73,2.33,2.37,4.21-4.14-3.3-3.57L83.68,155l1,.92-1.21,1.29,2.39,2.5L89.37,156l-3.23-3.56L89,149.64l.88.88L88.57,152,91,154.49l3.87-4-3.19-3.46Zm54.63.66a1.11,1.11,0,1,1-1.11,1.11,1.11,1.11,0,0,1,1.11-1.11Zm-20.9.05a12,12,0,0,1,3,6.79,20.66,20.66,0,0,0-5.5-5.63l.4-1Zm24.66.16V148a84.41,84.41,0,0,1-26.95,20.11l-1.66-2c11.49-5.13,19.8-11.49,28.61-20.58Zm-11.46,1.73-3.16,2.45v-1.06Zm-16.28.18a12.74,12.74,0,0,1,6.29,6.82,118.42,118.42,0,0,1-11.54,6,53.46,53.46,0,0,1-5.16-9.57c5.93-.05,7.55-3.28,7.59-3.31,1.43.54,1.73.6,2.82,0Zm21.28.49a1.13,1.13,0,0,1,1.12,1.06,1.11,1.11,0,1,1-1.12-1.06Zm-8.2.73v1.06c-1.51,1.33-4.45,3.47-4.45,3.47l-1.21-.06.39-3a50.23,50.23,0,0,0,5.26-1.43Zm-77.35.12,2.9,2.38-.88,3.7-2.86-2.17Zm39,.7.27,1.07L75.94,174.07l-1.35-.22Zm44,.91a1.11,1.11,0,1,1-1.11,1.11,1.11,1.11,0,0,1,1.11-1.11Zm8.8,0c.13,0,.28,0,.28.12v2a1.11,1.11,0,0,1-.37.07,1,1,0,0,1-1-1.11,1.11,1.11,0,0,1,1.11-1.11Zm-2.69,2.47a1.11,1.11,0,1,1-1.11,1.11,1.11,1.11,0,0,1,1.11-1.11Zm-9.32,0a1.11,1.11,0,1,1-1.11,1.11,1.11,1.11,0,0,1,1.11-1.11Zm-8,.35,1.14,0-2.12,1.26a9.58,9.58,0,0,0,1-1.29Zm20.31.51,0,2.28a88.63,88.63,0,0,1-22.86,16.55l-1.33-1.36a85.55,85.55,0,0,0,24.17-17.47Zm-15.47,1.25A1.11,1.11,0,1,1,136,156a1.11,1.11,0,0,1,1.11-1.1Zm9.85.08a1.11,1.11,0,1,1-1.11,1.11,1.11,1.11,0,0,1,1.11-1.11ZM36.55,159.47c3.76-2.18,6.78-2.44,11.09-1.78l1.29,2.54c-4.2-.75-8.62-.68-12.4,2.24-3.91-2.48-6.89-3.19-10.11-2.79L26.37,157a14.43,14.43,0,0,1,10.18,2.47ZM134,157.05a1.11,1.11,0,1,1-1.11,1.11,1.11,1.11,0,0,1,1.11-1.11Zm10.14.46a1.11,1.11,0,0,1,0,2.22,1.11,1.11,0,1,1,0-2.22Zm-13.47,1.65a1.11,1.11,0,1,1-1.11,1.11,1.11,1.11,0,0,1,1.11-1.11Zm10.33.65a1.11,1.11,0,1,1-1.1,1.1,1.1,1.1,0,0,1,1.1-1.1Zm-13.75,1.32a1.12,1.12,0,1,1-1.12,1.12,1.13,1.13,0,0,1,1.12-1.12Zm10.79.93a1.11,1.11,0,1,1,0,2.21,1.11,1.11,0,1,1,0-2.21Zm-14.07.76a1.11,1.11,0,1,1-1.11,1.11,1.11,1.11,0,0,1,1.11-1.11Zm-49,1,2.76,2.53-2.86,2.86-1-1,1.59-1.66-1.08-1.45Zm60,.25a1.11,1.11,0,1,1,0,2.22,1.11,1.11,0,0,1,0-2.22ZM131.81,166a1.11,1.11,0,1,1-1.11,1.1,1.11,1.11,0,0,1,1.11-1.1Zm-3.47,1.88a1.11,1.11,0,1,1-1.1,1.1,1.1,1.1,0,0,1,1.1-1.1Zm-57,3.13.9.74-1.41,1.7-1.08,0Zm-17.41,4.59A27.52,27.52,0,0,0,47.1,180L44,175.64Zm-21.38,0,8.37.12-2.78,3.93a17.06,17.06,0,0,0-5.59-4Zm10,.43c.9.29,3.28,3.67,4.39,5.51,2.38-1.89,4.71-4,7.25-5.14a56.53,56.53,0,0,0-7.56,9.68c-.53-1.43-2-5.56-3.91-7.35a17.23,17.23,0,0,0-4.15,6.13,52.45,52.45,0,0,0-5.75-8c-.37-.5,2.71,1.42,5.76,4.39.86-2.17,3.16-5.13,4-5.21Zm-10.05,2.12c1.44,1.14,5.34,6.16,5.79,9.17l-1.87.12c-1-3.1-2.66-6.19-3.92-9.29Zm20.81.52c-1.42,2.9-3.17,5.86-4.43,9.07L47,187.64c2-4.43,2.76-5.23,6.28-9Zm-10.61,1.29a0,0,0,0,1,0,0,17.31,17.31,0,0,1,3.11,7.56l-1.36,0a25.62,25.62,0,0,0-1.6-3.85c-.42-.62-.76-.54-1,0a16,16,0,0,0-1.3,3.72L39,187.19c-.29-2.15,3.18-7.2,3.72-7.25Zm-.25,8.26c.64,0,1.31.7,1.3,1.9.05.57-.39,1.83-.87,1.9-.89.47-1.93-1-1.67-2.21.23-1,.69-1.6,1.24-1.59Zm-3.07.23c1.26.11,1.53,2.92,1,3.5a1.51,1.51,0,0,1-2.28-.83c-.5-1.28.42-2.66,1.26-2.67Zm6.19,0c1.37.19,1,3.28.32,3.74-1.1.58-1.94-.39-1.57-1.85.3-1.16.75-1.86,1.25-1.89Zm3.16.52c1.57.17.66,2.89,0,3.45-1,.77-2-.39-1.48-1.77.37-1.07,1-1.69,1.5-1.68ZM36.06,189c1.14.18,1.8,2.76,1.12,3.49-.35.43-1.38-.19-1.86-.9s0-2.6.74-2.59Zm12.13,5.62c.13,1.35-.89,1.35-3.83.69a17.23,17.23,0,0,0-5.47.12c-2.26.41-2.58.25-2.58-.67,0-1.07,1.28-1.68,4.22-1.77,2.1-.06,7.33-.08,7.66,1.63Zm4.58-.8c-3.51.33-4.44,4.72-4.06,6.34a21.22,21.22,0,0,1-.34,7.42,23.79,23.79,0,0,1-1.31,4c-.92,1.84-.68,3.2.68,3.93a2.8,2.8,0,0,0,3.37-.53c1.57-1.69,1.75-5.26.8-13.36-.34-2.86-.16-3.43,1.23-3.27,2.91,0,2.79-4.51-.37-4.51Zm-.43,3.69c-.78-.3-1.31.41-1.21,2.18,0,.79.17,1.68.27,2.38,1.13,7.77.71,13-1.68,13.23-2.08.34-3.49-1.19-2.47-2.77.57-.9,1.07-1,2.18-.55,1.54.95,1.16-.43-.23-1.46-.88-.63-1-.63-.47-2.59a22.65,22.65,0,0,0,.62-7.88c-.33-2.37.46-5.51,3.47-5.69a1.67,1.67,0,1,1-.48,3.15ZM30.83,207.76a3.46,3.46,0,0,0,2.9,0,18.14,18.14,0,0,1,1.5-5.28,3.7,3.7,0,0,0-5.84.82,3.24,3.24,0,0,0,1.44,4.45Zm3-5.74c1.12.24,1,1.42-.1,1-2.52-1.18-4.57,2.39-2.54,3.73,1,.58,1.5.25.47-.55-.42-.48-.32-.68-.06-1.17.52-1,2.44-.82,2.31-.11-.44,2.26-.73,2.91-1.41,2.92-3.91.2-4.65-7.12,1.33-5.85ZM67,206.09S55.38,219.26,49.77,226l70.36-.33-13.39-18.47c-11.49,2.65-25,1.89-39.71-1.12Zm-.34,4.21c1.75,0,3.76,1.29,5.48,5.55.1,0,7.74-11.61,14.36.45,1.08-2.71,7.31-9.77,14.52-.71,2.56-6.06,8.46-4,9-1.89-.12-.46-5.62-1.77-8,2.25-.44.86-.47,1.66,0,2.14a1.17,1.17,0,1,1-1.46,1.82,1.14,1.14,0,0,1-.19-1.65c1.19-.89-1.26-3.66-3.27-4.66-2.77-1.37-6.62-.77-8.47,1.2A6.43,6.43,0,0,0,87,217.56a.75.75,0,0,0,.18.78c.81,1,.28,2.29-.81,2.13-1.43-.21-1.24-1.54-.28-2.27.29-.15.18-.32.09-.56-2.6-7.33-12.3-5.94-13.35-.86a1.36,1.36,0,0,0-.08.56c.11.49.39.9.28,1.28a1.26,1.26,0,0,1-2.48-.18c0-.59.59-.76.9-1.3a1.23,1.23,0,0,0,.1-1.12c-2.63-5.5-7.14-4.35-9.38-3.11,0,0,2-2.64,4.57-2.61Zm-2.92,3.19a3.31,3.31,0,0,1,2.65,1.39c2.76-1.46,4.72,1.06,4.39,1.3-3.9-2.53-5.17,3.37-1.32,3.15-1.69,3.49,4.34,5,3.67.52,3.72,1.3,4.33-3.81.56-3.73,1.22-2.11,4.38-1.53,5.72-.21,1.58-1.92,5.44-.09,5.82,1.56-4.33-2.23-4.77,4.56-.57,3.11-1.25,4.32,5.43,3.71,3.58,0,4.16,1.37,3.59-4.84-.49-3.58-.25-.32,3.22-3.91,5.75-.54.35-.59,4.29-2.54,6.45.52-4.68-1.58-3.79,4.71-.44,3.46-.9,4.17,5.15,3.49,3.6-.06,4.69,1.18,2.61-6-.68-3.32.54-2.87,4.48-1.68,4.43-1.24,0,0,2.09-2.26,4.44-.6-3.66.3-2.42,5.24,1,3.84,0,1.67,1.36,2.78,3.24,2.21l3,4.14-67.45.42,5.39-6.42c1.8,1.49,3.67.78,3.9-1.55,3.92,2.4,4.94-3.31,1.26-3.56a4,4,0,0,1,2.1-.79ZM60,215.34c.23.17-.08,1-.6.73ZM112.59,217c.2.29.34.48.55.76s-1.06-.13-.55-.76Z"/></g></g></g></svg>