<svg xmlns="http://www.w3.org/2000/svg" viewBox="0 0 178.58 249.45"><defs><style>.cls-1{fill:#fff;}.cls-2{fill:#262e5e;}.cls-3{fill:#e1cf01;}.cls-4{fill:#d41216;}</style></defs><title>KS</title><g id="Слой_2" data-name="Слой 2"><g id="S"><g id="KS"><path class="cls-1" d="M8.5,0H170.08a8.48,8.48,0,0,1,8.5,8.5V241a8.48,8.48,0,0,1-8.5,8.5H8.5A8.48,8.48,0,0,1,0,241V8.5A8.48,8.48,0,0,1,8.5,0Z"/><path class="cls-2" d="M23.73,20.63H154.55l.24,209.09-131.17-.34s0-136.45.11-208.75Zm92.62,207.28s-7.52-13.83-11.46-21.39a4.27,4.27,0,0,0-.89-1.37c-.45-.34-.59-.17-2.3.2a100.19,100.19,0,0,1-43.33,1.28c-.64-.08-.89.22-.89.6-4.39,6.25-7.8,12.52-12.12,19.13a17.57,17.57,0,0,0-1,1.55Zm-44.28-26c-.73,0-1.55.46-1.4.07.09-.22.29-2.47.38-3.28.22-.36.53.58.5,1.46,0,.5.22.14,1.87.22a24,24,0,0,1,3.86.56c2.12.46,6.21.13,8-1.14,1-.69,1.31.06.33.79-4.42,3.33-7.92,2.06-11.76,1.5a10.07,10.07,0,0,0-1.74-.18ZM74,198.77a.69.69,0,0,0-.81,0c-1.36.63-1-.27,0-1.19.45-.41.44-.62.1-1.06-.17-.22-.46-.25-.39-.58.29-1.43,2.31-3.58,4.56-4.55.94-.39,1.08,0-.1.73-1.82,1.07-2.41,2-1.38,1.61,2-.72,3.82-.22,6.37,1.05a2.51,2.51,0,0,0,1.69.37c.46-.38.87.08,1.16.31s.21.21.42.17c1.45-.34.58.58-1.41,2-3.56,2.51-7.44,3.68-10.18,1.15Zm5.48.62a13,13,0,0,0,4.31-2.3c1.33-1.15.58-1-.94-.25a12,12,0,0,1-6.22,1.3c-2.07,0-2-.13-2.08.13-.27.9,2.59,1.82,4.93,1.12Zm-4-3.52a2,2,0,0,0,.11-1.07c-.19-.31-.61-.08-1.13.58-.33.4-.28.46,0,.78a3.54,3.54,0,0,0,.38.24c.44.19.51-.22.6-.53Zm.91.53c.64-2.15,2.07-2.11,3.08-.05h.72c-1.48-4-4.33-2-4.43,0a1.2,1.2,0,0,0,.63,0Zm5.33-.36c.67-.38.57-.63-.28-1.07-.61-.31-.94-.37-1-.17a2.75,2.75,0,0,0,.29,1.43c.27.16.64,0,1-.19ZM72.2,189.9c-.13-.2-.1-.57.37-.79,2.88-1.32.78-4.13-1.45-2a2.67,2.67,0,0,1-2.57.5c-.77-.34-.78-1.26.24-1.46a6,6,0,0,0,1.5-.46c3.87-2.06,5.93,2.42,3.18,3.91-.56.33-1.16.51-1.27.32Zm-10.86-4.07a2.43,2.43,0,0,1-.32-4.12c.94-.64,1.9-.81,4.49.46,1.82.9,2.87-.07,2.82,1,0,.63-.06,1.27-1.13,1.42-1.72.25-2.9-2.07-5.12-1.85a1.24,1.24,0,0,0-.24,2.44c1.54.51.6,1.13-.5.67Zm28.93.36c-.29.13-.42-.49-.3-.83.79-1.85,1.51-3.32,2.23-5.06.56-1.38.94-2,1.2-2s.38.2-.06,1c-.66,1.72-3.07,7-3.07,6.81Zm-12.92-.48c-.69-.49-.58-1.22.21-.67,1,.71,2.69-.59,2.35-1.82-.41-1.48-2.39-1.84-4.06-.51-2.62,2.09-5.49,2.2-5.49.56,0-.47-.06-.57,1-.64a8.72,8.72,0,0,0,3.41-1.09c3.18-1.94,6.58-.6,5.87,2.62a2.34,2.34,0,0,1-3.32,1.55ZM65.66,181c-.26,0-.74.25-.87.15s-.22-.77-.44-1.38c-.39-1.08,0-.75.67-.45a3.69,3.69,0,0,0,2.58,0,8.46,8.46,0,0,1,3.56,0,7,7,0,0,0,3.36-.23c1.34-.41,1-.26.76.56a5.3,5.3,0,0,1-.5,1.43,2.08,2.08,0,0,0-2.24,0,3.39,3.39,0,0,1-2.53.27,1.56,1.56,0,0,0-1.85,0c-1.06.51-1.54-.33-2.5-.38Zm20-2.26c.19-.32.46-.77.72-1.28,2.07-4.09,2.21-5.23.75-6.6-2-1.85-3.64-1-5.53,2.64-.45.9-.72,1.58-.91,1.85s-.46.08-.58-.05,1.85-4.16,2.67-5a3.46,3.46,0,0,1,5.87,2.6c-.12,1.53-.42,2.38-1.83,5.19-.35.69-.65,1.28-.84,1.57-.66.44-.51-.57-.32-.91Zm-19.52-.16c.32-1.45,5-2.13,6.26-.22.12.19,0,.18-.48,0-2.39-.79-2.86-.75-5.15.15-.35.14-.59.19-.63,0Zm17.92-.27a4.35,4.35,0,0,1,.43-1.2c1.57-3.07,2-3.82,1.53-4.39-.94-1.12-2.19-.15-3.33,3.06-.43,1.2-.73.95-.93.76-.41-.37,1.37-4.1,2.23-4.66,1.94-1.22,3.47.2,2.61,2.7-.67,1.14-1.22,2.88-1.85,3.8-.29.41-.7.29-.69-.07Zm-7-5c-.09-.15.09-.36.77-1.79.92-2,1.21-2.7.83-3.82a3,3,0,0,0-4.73-1.18A4.17,4.17,0,0,0,72.82,168a28,28,0,0,1-1.35,3.13c-.29.28-.69.34-.66-.16a16.85,16.85,0,0,1,1.4-3.44c2.14-4.64,8.34-2.49,6.89,2.39a12.69,12.69,0,0,1-1.53,3.55c-.2.24-.54,0-.55-.22Zm-1.43-.85a7.88,7.88,0,0,1,.48-1.19c1-2.58,1.05-3.37-.48-3.4-.91.12-1,.49-1.85,2.52a7.59,7.59,0,0,1-.56,1.33c-.16.22-.47.09-.6,0-.33-.33,1.1-3.66,1.86-4.29a2,2,0,0,1,2.93,2.55,13.86,13.86,0,0,1-1.21,2.66c-.25.36-.58.31-.57-.14Zm-37-30-5.28-.36a46.56,46.56,0,0,1,0,16.16,31.66,31.66,0,0,0-.57,9.75c.28,3.78,1.89,7,2.29,11,.3,2.9-.35,5.93-.93,8.82-1,4.83-.76,5.33-.62,11,.13,5.25-.36,5.06-.67,4.75a15.11,15.11,0,0,1-.08-2.07c0-1.11-.06-3.81-.12-5.68a38.39,38.39,0,0,1,.59-8.43c.62-2.77,1.32-5.61.89-8.68-.87-3.87-2.09-7.74-2.52-11.47-.53-4.61.77-9.23,1.2-12.57s0-8.81-.88-11.14a5.91,5.91,0,0,0-.84-1.78,18.07,18.07,0,0,0-2.71-.22c-.06,22.17,0,44.35,0,66.52l4.92,4.55,5.06-4.78ZM39,167.85s7.51,4.3,15.79,8.53c-.79-4.84,1.71-5.57,4-6.13-.56-9.34,8-7.43,9.36.69H69c1.49-4,3-6.84,6.36-7.51,2.63-.52,5.22,1.14,5.88,5-.11-.27,8.72-5.16,9,5.17,4-2.49,6.88-.34,8,2.81,1.69-2.57,5.93-2.69,7.29-2.87.47-.55,1.3-.86,2.82-.84,1.3-.07,3-1,3.94.14,1.36.22,2.4,0,3.57.86.93.71,2,2.27,3.51,1.19,2.94-1.41,6.25-2,8.89-3.75,0,0-.7-.89-.5-.76a3.39,3.39,0,0,0,.9.66,9.63,9.63,0,0,0,1.79-.89c-11-12.58-20-37.13-14-59.85.16-.39-.5-.54-.83-.67.1-.18,1.72,0,1,1.5-.69,4.35-1.47,9.07-1.64,12.67a6.31,6.31,0,0,0,0,.84c24.6,11.29,21.58,35.75,15.26,44.26l1,1.32c.44.3,19.35-10.68,18.72-11.13l3.58-1.77-.58-48-14.15-1.08a1.29,1.29,0,0,1,.33-.51c.13-2.92-.14-7.25,0-10.88.05-10.35.16-13.88,0-14.16-4.36-2.87-10.87-7-16.35-9.08a18.21,18.21,0,0,1-.26,4.54c-5.12,1.63-2.74,3.71-4.64,5.94a4.1,4.1,0,0,1-5.69,0c-1.71-1.66-2.52-5.45-2.52-5.45-2.71,2.88-2.15,6.37-5.78,7.68-5.84,2.88-7.69-5.73-7.35-5.53-2.24,2.14-8.51,3.89-9.19-5.17-2.82,2.58-6,1.3-7.33-1.88-1.72.06-3.65,1.4-5.39,2.13a13.56,13.56,0,0,1-5.22,1.1,12.38,12.38,0,0,1-5.24-.29,3.47,3.47,0,0,1-3.21-1.65,2.21,2.21,0,0,0-2.45-.89c-2.8,1.47-5.81,1.82-9.12,3.36-.2.15.29.41.13.36s-1.74.81-1.74.81C64.63,100.69,65.54,122.83,62,138.53a1.32,1.32,0,0,0,.15,1.36c-.53-.09-.54.07-.64-.27l1.74-13.18c.06-1.59.26-1.47-1.15-2.06a26.78,26.78,0,0,1-3.6-1.74c-4.09-3-8.71-6.72-11-11.35-6.42-10-4.31-21.82.51-31.23l-1.2-1.24A107.18,107.18,0,0,0,24.53,93.38l.06,47.07L39,142.1Zm-7-31.43a1.87,1.87,0,0,0-2.13-.21c-.11.1-.36.59-.43.58-.65-.17-1.11-.31-1.19-.85l.69-1.05c.55-.82,1.34-1.12,2.68-1.43.47-.11,1.19-.21,1.44-.32,1-.43,1.35-1.36.34-.94-.75.2-1.78.13-1.92-.54a.92.92,0,0,0-1.11-.71,10,10,0,0,0-2.74,1.25c-.39.23-1.12.76-1.12.76-.11.18-.54-1.13-.14-1.51a2.75,2.75,0,0,0,1.39-.13c1.19-.47,2.34-1,3.55-1.5.77-.3.84-.28.63-.82a2.19,2.19,0,0,1-.05-1.21c.14-.37.12-.56-.11-.71-.55-.36-1.85,0-3.68.85a6.2,6.2,0,0,0-1.27.65c.23-.57.09-.68.09-1.28a3.48,3.48,0,0,0,2-.52,6.27,6.27,0,0,1,2.4-.68c.36,0,.19-1.39-.22-1.78a2.52,2.52,0,0,0-2.25-.08,3.84,3.84,0,0,0-2.64,1.39c-.79.73,0-1.23,1.45-2a17,17,0,0,0,2.32-.38c.56-.12.65-1.41-.16-2-.5-.44,1.83-.45,1.78-.32s-.05.63.13.77a1.54,1.54,0,0,1,1.08,1.46c1.15,1.88,1.71.7,2.5,0-.16,4.09,1.27,4.55,1.46,4.81-2,3.67-.48,3.75,1.37,4.6a3.55,3.55,0,0,1-1.18.25,5.8,5.8,0,0,0-2.75,1.34c-.34.28-.36,0-1.71,0a3.18,3.18,0,0,0-2,.31c-1.15.51-1.15,1,0,.8A2.12,2.12,0,0,1,33,136.87a.67.67,0,0,1,0,.51c-.25,0-.81,0-.81-.07a1.55,1.55,0,0,0-.22-.89Zm1.75-4.95a.69.69,0,0,0,.1-1,2,2,0,0,0-1.66.17c-.7.55.58,1.46,1.56.86Zm.7-2.46a1.15,1.15,0,0,0,.11-1.5,1.34,1.34,0,0,0-2.22.63c-.09,1,1.27,1.52,2.11.87Zm-.5-3.38a1,1,0,0,0-1.48-.94c-.93.48-.37,1.49.79,1.44.65,0,.65,0,.69-.5Zm-2.72-3.31a.59.59,0,0,0,0,1.05c1.63.9,1.14-1.5,0-1.05Zm113.83,4.87c-.72-2.62-2.69,0-2.69,0-.08-2.69.44-3.89-1.59-4.8,2-3.07,1.61-3.49-.55-4.67.2,0,2.87-.58,3.32-2.09.1.07,4.18,1.07,4.69-1.15-1.23.56-3.65.64-3.68-1.74.23-.06.8,0,.75.13-.32,1.52,2.48,1.9,2.94.7a7.17,7.17,0,0,0,1.35.72,5.36,5.36,0,0,1-2.47,2.12c-2.17.72-2.92.91-2.92,1.34,0,.17.35.19,1,.32,1.34.1,1.32.38,1.49.83s.31.47.76.43a7.12,7.12,0,0,0,3.37-1.84c.13,0,.29,1.12.37,1.16,0-.19-1.09.13-2.78,1.12a22.13,22.13,0,0,0-2.09,1.14c-.13.16.2.66.24,1.21s-.29.69-.06.83a1.62,1.62,0,0,0,1.22,0,10.28,10.28,0,0,0,3.14-1.41c-.23.43.16,1.52.16,1.52a1.16,1.16,0,0,0-1-.18,24.58,24.58,0,0,1-2.56.95,1.54,1.54,0,0,0-.65.24c-.17.15-.14.5-.14,1s-.11.69.12.8a4.62,4.62,0,0,0,2.54-.25c.44-.19,1.37-.7,1.37-.7l-.29,1.51c-.39-.44-1.52-.11-2.27.18a.83.83,0,0,0-.58.68.93.93,0,0,0,.6,1.14,1.65,1.65,0,0,0,.7.07c-1.94.73-1.55,1-2.69.45a4.38,4.38,0,0,1-1.15-1.78Zm2,0a1.21,1.21,0,0,0-1.21-.44c-.29.15-.19.48-.1.72.25.68,2,.46,1.31-.28ZM146,125.32c.45-.59,0-1.39-.89-1.4a.79.79,0,0,0-.89.82c0,.86,1.39,1.08,1.78.58Zm-.94-2.26a1,1,0,0,0,.52-1.64,1.94,1.94,0,0,0-2.07-.09c-.89,1,.11,2.11,1.55,1.73Zm.7-3c.5-.26.59-.68.15-1.15-.79-.68-2.18-.15-1.73.83a1.18,1.18,0,0,0,1.58.32ZM44.16,97.46a16.82,16.82,0,0,0,2.07-1.29c.52-.28.36-.24-.31-.63s-1.6-1.32-1.7-1.07a7.8,7.8,0,0,0-.06,3ZM63,123.72c0-.51.09-1.29.08-1.85.1-1.08-.1-.76-.68-.41s-1.13.7-1.4.84c-1.08.53-1,.56.56,1.28,1.27.57,1.42.51,1.44.14Zm-1.48-2.53c1-.64,1.37-1,1.42-1.69s-.09-1.14-.82-.56c-2.5,2-5.07-1.89-2.79-4a4.77,4.77,0,0,0,1.07-1.3c0-1.24-1.37,0-2.52,1.68-1.27,1.55-2.06,3.48-.94,5.35.89,1.36,2.87,1.63,4.58.55Zm-5.67-2.5a4,4,0,0,1,.2-1.49c.28-.71.27-.8-1-.21a5.91,5.91,0,0,1-1.35.3c-1,0-.78.32.71,1.56s1.55,1.35,1.44-.16Zm3.54-6c.16-.37-.17-.51-.49-.44,0,0-.57.41-1.21.91-1.94,1.52-3.37,1.7-4.33.54s-.57-2.57,1.62-4.17c1-.7,1.19-.75.73-1.06s-.38-.2-1.76.74c-2.79,1.88-3.63,3.16-3.35,5a1.9,1.9,0,0,0,.86,1.46c2.66,2.35,6.35-.89,7.93-3Zm2.81,1.11L62,111.25a22.44,22.44,0,0,1-6.46-10c-.95-3.07-.19-9.45,0-9L54,89.35a18.69,18.69,0,0,0-.47,12.51c1.23,4,3.7,9,8.67,12Zm-12-1.5c.91-1.73.93-1.54-.8-1.55-2,0-1.77-.26-.65,1.43.9,1.35.75,1.47,1.45.12Zm1.2-2.37a6.46,6.46,0,0,0,2.4-1.26c1.75-1.13,1.82-1.75.07-.88-2.25,1.12-4.23.83-5-.62-.65-1.3.72-2.92,3-3.56.76-.21,1.17-.4,1.17-.73,0-1-3.81.34-5.39,1.88-3,3-.38,6.49,3.75,5.17Zm-4.91-4.62c.1-.15.37-.53.62-.91,1.08-1.25.18-.87-.78-1.21a3.32,3.32,0,0,0-1.32-.33c-.57.09.19,1.19.38,1.89.51,1.59.45,1.53,1.1.56Zm4.07-2.85c1.92-.18,2.12-.37,2.12-.77s-.23-.32-1.2-.18c-2.57.35-4.26-.3-4.62-1.65s1.35-2.74,3.66-2.66c1.25.05,2.09-.39,1.32-.8a16,16,0,0,0-4.62.06c-2.29.66-3.22,1.93-3,3.68.31,2.17,1.5,2.8,4.4,2.64.56,0,1.26-.25,2-.32Zm1.48-7.06c0-.34-.54-.38-2.36-.65-2.42-.36-3.5-2.59-2-3.94a3.74,3.74,0,0,1,2.6-.59c1.6.29,2.57.62,2.59.08s-.46-.52-3.46-1.15c-4.53-1-7,3.47-3.39,5.64,1.38.82,6.06,1.29,6.06.61Zm1.13-6.33c0-.17-.15-.3-.49-.43a6.94,6.94,0,0,1-2-1c-1.49-1-2-3-1-4s-.77-2.22-2.16-1.07-1.32,3.07.34,4.55,5.21,2.78,5.22,2Zm-7.34-.26c1.58-.74,2.71-.31,1.5-1.33-.67-.62-1.25-2.39-1.72-.89A13.83,13.83,0,0,0,45,89.26c.1.11.08-.08.85-.41ZM101.53,85A3.82,3.82,0,0,1,99,80.53a19.69,19.69,0,0,1,1.53-3.94c.8-.63.69.2,0,1.64s-1.18,2.66-1,3.54a2.87,2.87,0,0,0,2.1,2.52,3,3,0,0,0,2.36-.57c.78-.55,1.51-1.94,2.38-3.87.28-.54.65-2.21,1.12-1.19.22.52-1.64,4-2.34,4.91A3.72,3.72,0,0,1,101.53,85Zm10.81-1.18a3.73,3.73,0,0,0,3.31,1c2.36-.83,3.44-3,2.54-6.62-.45-2-.84-3.25-1.23-3.5-.19-.12-.4.11-.58.38s.08.61.35,1.55c1.13,4,.84,5.76-.54,6.52-2,1.1-3.72-.16-4.3-3-.09-.44-.36-1.33-.36-1.33-.16-.39-1.4-.31-.94,1a9.63,9.63,0,0,0,1.75,4Zm10.14-10.4c0-1.39-3-7.46-3.19-6.81a15.2,15.2,0,0,0,.1,2,2.55,2.55,0,0,0,.33.63c2.57,4.55,2.17,7.76-.06,8.47-.75.34-.92.68-.58,1,.68.74,2.4-.73,2.74-1.26.84-1.2.72-3.38.66-4Zm-43-1a28.88,28.88,0,0,0,3.74-6.73c2-5.79,4.12-12.45,4.71-18.61.06-.77.1-2,.14-2.05-.16-.18-1.15-.09-1.49.09-.16.2-.05.66-.11,1.26a84,84,0,0,1-5,19.65,31,31,0,0,1-3.38,6.56c-.23.34-.51.69-.63.89-.33.47-.09.78.3.58a8.24,8.24,0,0,0,1.74-1.64Zm-3.3,1.69a47.68,47.68,0,0,0,7-15.29A92.47,92.47,0,0,0,85.8,47c.11-.85.21-1.42,0-1.68a2.2,2.2,0,0,0-1.46.17c-.17.24-.06.74-.21,1.89a83.16,83.16,0,0,1-2,9.87C79.55,65.94,77.13,70.79,74,75c-.26.36-.49.59-.46.74s.34.2.84-.11a13,13,0,0,0,1.88-1.53Zm-4.7,2.24c1.51-.85,4.17-4.56,6-8.56a93.18,93.18,0,0,0,5-14.66,52.84,52.84,0,0,0,1.11-7.4c-.12-.4-1.6-.07-1.39.21a107.74,107.74,0,0,1-3,12.59c-2.92,8.3-5.45,13.94-8.17,16.65l-1.06,1s0,.31.24.36a1.79,1.79,0,0,0,1.25-.24ZM69.21,76c3.41-1.9,7.39-10.76,10.65-21.88.56-1.91,1.57-8.28,1.57-8.28s-1.35.05-1.61.33-.22,1.37-.61,3.7a74.79,74.79,0,0,1-7,19.8c-1.44,2.81-3.82,5.46-5.33,6.21-.84.42-1.09.89-.47.92,1,0,1.13.26,1.88-.15Zm46.66,99.11c-2.56,0-4.73,2.43-6.66,5.5-4.11,6.29-6.87,16.79-7.54,22.38l1.55-.29c-.24.11,2.9-14.87,7.67-21.28,2.57-4,2.46-4.11,3.91-4.47,1.84-.48,3.3,1.5,2.39,2.69-.32.4-.69.11-.58-.47.32-1.83-2.36-2.18-3.11-.38-.86,2.07,1.43,3.91,3.67,3.1,2-.7,2.83-3.49,1.43-5.55a3.86,3.86,0,0,0-2.73-1.23Zm-13.45-.26c-3,3.83-4.56,7.76-6.44,13.13a69,69,0,0,0-3.81,16.64l1.65-.21c-.06-3.88,4.19-22.31,10.17-29.22.34-.43.61-.8.58-.9-.33-.93-1.75.19-2.15.56Zm6.76-1.43c-4,3.24-7.13,10.31-9.22,16.85-2.25,7.06-3.26,13.54-3.09,13.54l1.57-.24c-.12-.4,4.42-25.3,12.85-29.83.73-.37.88-.73.26-.89a3.46,3.46,0,0,0-2.37.57Zm4.44,0c-8.66,1.14-14.31,27.61-14.5,29.81,0,0,0,.2,0,.2l1.72-.35,0-.13a68.09,68.09,0,0,1,5-17.61c2.1-4.54,5-10.33,9.33-10.89.35-.05.68.1.56-.31-.26-.65-1.56-.73-2.15-.72Zm-51.57-8.33c-3.13.8-3.23,4.54-1.14,9.32.16.36.12.55.29.7.35.31.63-.13.67-.42a4.15,4.15,0,0,0-.46-1.86c-1.28-3.31-1-5.21.3-6.05,3.27-1.69,4.15,1.77,4.65,3.35.12.39.16.92.37,1a1.34,1.34,0,0,0,1-.14,42.88,42.88,0,0,0-1.4-4.09,3.52,3.52,0,0,0-4.24-1.76Zm-22.68,3.53,0,39.4-6,5.62c-2.57-2.2-5.94-5.64-5.94-5.64l.1-66.62-1.92-.15c-.48,28.62-.14,57.66-.16,86.34l17.7.13,14.65-22.83a3.28,3.28,0,0,0,.24-.42c.18-.44.16-1.09.07-3.52a9.5,9.5,0,0,0-.07-2c-.15-.23-.46-.06-.75.06s-.48.09-.32-.26c.09-.2.39-.63.64-1,.82-1.35,1-1.78.75-3.27a3.72,3.72,0,0,0-.7-1.11c-2.47-3.63-3.47-9-2.25-13A3.43,3.43,0,0,0,54.8,177Zm77.48-42.37c-1.61-.83-1.58-.81-1.59.76,0,1.17,0,1.45.47,1.29.63-.32,1.41-.62,2-.87,1.12-.38-.3-.87-.87-1.18Zm6.37,4.06c-1.25-1-.79-.88-1.15,1.37-.21,1.35-.48,1.38.92.94.8-.28,2.44-.11,1.7-1,0,0-1.23-1.06-1.47-1.27ZM73,164.8c-1.91,1.16-3.87,6.77-3.87,6.77-6.69.79-9.5,7.37-9.79,12.85-.24,4.33-.53,9.38-.1,9.83,4.39-2,6.08.3,6.5-.31.19-.27-1-1.16-2.43-2a9.16,9.16,0,0,1-1.07-.68c-.53-.44,1.07-.06,2.07.63,1.29.87,1.51.69,1-1.87-.61-2.78-.71-3.12,1.43-4.22a5.85,5.85,0,0,0,2-1.5c.5-.55.62-.68.44.12-.31,1.4-1.56,2-2.68,2.58a1.51,1.51,0,0,0-.79,1.35,30.63,30.63,0,0,0,.85,4.09c.24.82.33,1.65.53,2.49a8.32,8.32,0,0,1,.28,4.19,8.1,8.1,0,0,0-.18,2l.12,1.21s-1.19-1.23-3.82-.2a5,5,0,0,1-4.44-.58,9.72,9.72,0,0,0-.16,2.78,96.7,96.7,0,0,0,28.05.9A89.15,89.15,0,0,1,90.14,189a43.07,43.07,0,0,1,2.94-7.62A8.5,8.5,0,0,1,94.87,179c.08-.05.09-.08.09-.11a1.41,1.41,0,0,0,0-.21,2,2,0,0,0-.5-1.39c-.9-.72-2.34.21-2.82,1.81a51.36,51.36,0,0,1-2.45,5.06c-.11-.07-.37-.07-.28-.4.73-1.68,1.72-3.47,2.29-5,.77-2.18,2.46-3.34,3.72-2,.44.47.61.91.81,1.05s.35,0,.47-.14c.48-.72-.62-2.34-1.81-2.67-1.71-.48-3,.77-4.91,4.81-1.12,2.32-1.32,2.91-1.5,2.73,0,0-.33,0-.22-.44a32.63,32.63,0,0,1,2.78-5.57c1.59-2.65,4.54-2.86,5.79-.57.19.32.19.72.41,1,.38.49,1,.39,1.16-.42-.17-.53-1.21-2.47-1.93-2.8a4.18,4.18,0,0,0-5.37.6c-.38.33-.79,1-1.91,3.32-1.66,3.66-1.7,3.67-2.15,3.08.66-1.78,2.42-4.67,3.12-6.45a1.48,1.48,0,0,0,.15-.82c0-1.29.17-3.57-2.56-5.19a4.81,4.81,0,0,0-6.45,2.53c-.8,1.89-1.38,3.19-1.79,3.46-.57.38-.46-.15-.41-.34.81-1.71,2-3.44,2.13-5.16a4.71,4.71,0,0,0-7.69-4ZM48.64,77.5a63.85,63.85,0,0,1,10-3.68c.51-.22.59-.27,0-1.34C56.28,67.77,62.81,64,65,68.64c.3.62.36,1,.66.66a29.08,29.08,0,0,0,1.86-2.89c2.5-3.87,3.64-8.28,5-12.18a49.68,49.68,0,0,0,1.54-7.14c-5-8.62-8.41-16.92-13.67-24.6l-34.71,0L25.55,91.8c9.7-8.09,16.31-11,23.09-14.3ZM87.7,75c.43-.45.79-1.18,2.3-4.28.27-.55.7-1.41.88-1.8.22-.74,1.07-1.19.66.11A9.39,9.39,0,0,1,91,70.16c-.5.9-1,2-1.33,2.73-1.93,3.86-1.84,6.12.31,7.79a4.65,4.65,0,0,0,6.8-.77,7.42,7.42,0,0,0,.59-1.1,17.62,17.62,0,0,1,1.5-3c.81-1,.93.25-.26,2.18a5.7,5.7,0,0,0-.21,6.32,4.66,4.66,0,0,0,7.19.57,14.64,14.64,0,0,0,2.64-5c.16-.46.32-.8.43-1.07.17-.42.43-.57,1.08-.7,4.45-.85,8.2-5.42,8.73-10.41.07-.68.26-1.87.33-2.58.14-1.42.14-8.75,0-9.18a.45.45,0,0,0-.5-.36,3.38,3.38,0,0,0-1,.24,4.28,4.28,0,0,1-3.56.15,3,3,0,0,0-1-.21c-.63.06.2,1,2,1.94.78.42,1.39,1,.76,1a28.79,28.79,0,0,1-2.68-1.33c-1-.61-.73.16-.22,2.19.69,2.72.29,3.48-1.86,4.55a5.56,5.56,0,0,0-1.2.88c-1.14,1.68-.85.44-.27-.45,1-1,.37-1.38-1.63-.67-2.3.81-3.33.22-4-1.06a2.39,2.39,0,0,1,1.78-3.25c.37,0,.3.14-.24.51a2,2,0,0,0-1,1.65c-.13,1.55,1,2.22,2.54,1.17a6.26,6.26,0,0,1,1.87-1c.56-.13,1.39.08,1.38.52a4.2,4.2,0,0,0,0,.73c.14.49.93-.21,1.28-.46,1.17-.87,1.13-1,.81-2.47-.52-2-.79-3.81-1.29-5.83a8.68,8.68,0,0,1-.15-3.33c.08-.54.29-1.65.34-2.41s0-1.84,0-1.84c1.16.89,1.64,1,2.78.61a4.69,4.69,0,0,1,4.35.06c.55.27,1,.45,1,.45l.07-2.28s-1.37-.29-3.91-.62c-7.64-1-23.31-1.22-23.89-.29-.15.23-.3,1.86-.72,4.13-.92,4.72-2,9.42-3.34,14-.29.93-.56,1.31-.41,1.34s.34-.35.47-.5c.74-.86.18,1.17-1,3.63a1.94,1.94,0,0,0-.18.54,27.78,27.78,0,0,1-1.2,2.88c-.29.65-.55.84-.55.43C85,69.78,85.87,68,86,66.69c-.79,1.14-1.94,3-2.81,4.14-.16.31,0,.4.15.77.52,1.4,1.79,1.53,2.52.26A49.23,49.23,0,0,0,88,67.34a5.89,5.89,0,0,1,.92-1.9c.3-.16.36.52-.18,1.65-1.63,3.43-2.33,5.35-3.13,6.06a1.49,1.49,0,0,1-2.29-.46c-1-1.66-1.87-1.11-.94.59a2.47,2.47,0,0,0,4.29.34,53.34,53.34,0,0,0,2.71-5.29,4.54,4.54,0,0,1,.75-1.41c.6-.23-.08,1.53-1.79,5-.55,1.36-1.45,2.78-2.65,3.22-2.94.64-3.33-.9-4.35-2.67-.5-.44-.94.26-.76,1a3.65,3.65,0,0,0,1.78,2.38,4.21,4.21,0,0,0,5.36-1Zm13.08,7.35a2.61,2.61,0,0,1-.09-1.74A14.63,14.63,0,0,1,102.1,77c1-.45.23,1.36.11,1.62-1.16,2.42-1.27,3.36-.19,3.64s1.43-.33,2.3-2.5c.46-1.11.64-1.6.79-1.67.34-.13.51,0,.49.34a15.74,15.74,0,0,1-2,4.1c-.93.78-2.34.79-2.83-.26Zm-8.71-1.85a4.66,4.66,0,0,1-1.57-1c-1.64-1.5-1.37-3.57.66-7.47.16-.3.75-1.48.94-1.87.34-.69.68-.43.67,0a16.61,16.61,0,0,1-1,2.21c-2.25,4.39-2.17,6.18,0,7.22s3.08.44,4.78-2.91C97.53,74.1,98,74.06,98,75a18,18,0,0,1-2,3.88c-1.11,1.63-2.07,1.92-3.93,1.56Zm.16-2.12a2.3,2.3,0,0,1-.68-2.86c.45-.87,1.6-4.19,2.15-4.38.87,0,.4.7-.68,2.74-1.27,2.71-1.23,3.44-.24,3.85s1.34-.4,2.68-3.57c.21-.5.51-1,.68-.9.22,0,.59.14-.12,1.57-.16.35-.45,1.07-.77,1.74-.91,2-2,2.46-3,1.81Zm15.1-5.76c-.37-.18-2.09-.86-1.83-1.42,0-.06.13,0,.18,0a4.62,4.62,0,0,0,5.59-.14c.34-.31.6-.1.41.28-.62,1.23-3.38,1.75-4.35,1.26Zm-5.07-1.78a7,7,0,0,0,.31-.94c.2-.71.15-1.23.32-1.14a3.15,3.15,0,0,0,2.62,0,3.2,3.2,0,0,1,2.59-.22,1.13,1.13,0,0,0,1.6-.14c.57-.45.59-.26,1.62.1.77.27,1.07.45,1.39.39.13,0,.38-.31.46-.29.25,0,.27.75.5,1.56s.09.88-.55.45a4.61,4.61,0,0,0-3.26,0,3.28,3.28,0,0,1-2.07.06c-1.92-.32-3.31-.57-4.75.26-.76.44-1,.67-.78-.07Zm-4.79-3.52c-.93-1.87,1.21-4.34,3.1-3.47.63.29,1.18,1.39.25.89-4.28-.87-3.22,5.4,1.39,2.09,3.07-2,5.23-2.34,5.41-.38-.09.72-.73.61-1.21.67a10.51,10.51,0,0,0-3.21,1c-2.24.71-4.42,1.29-5.73-.81Zm16.79.86c-1.05-.26-2-.67-3.05-.87s-1.57-.75-1.37-1.51,1.28-.87,2.91.12c1.8,1.1,3.11,1.36,3.77,1,1.33-.84.61-2.2-.66-2.55-1-.27-.26-.64.78-.33,1.65.62,1.69,3.62,0,4.24a4.64,4.64,0,0,1-2.36,0Zm-14.62-9.9a19.23,19.23,0,0,0,2.82-1.87c.22-.24.83-1,.35-.79-2.48,1.49-5.36.25-7.46-.77-1-.46-.75-.25-1.52-.2-.52,0-.94.14-1-.23,0-.17-.33-.1-.52-.12-.77-.07-.28-1.1,1.34-2.22a14.88,14.88,0,0,1,5.24-2.55,5.08,5.08,0,0,1,4.76,1.08c.5.47.45.79.9.5,1-.67,1,.21.17,1-.59.56-.38.72.36,1.25.34.26.06.5-.14.87a5.57,5.57,0,0,0-.05.65c-.16.8-3.8,3.62-5.12,4.1-.91.17-.43-.51-.09-.73Zm2.53-5.19h-.6c-.69,2.1-2,2.81-3,.29l-.48.06c0,2.13,3.65,3.47,4.1-.36Zm-4,2c-.25-.42-.53-1.38-.79-1.39-.71,0-1.7.1-1.46.53.36.7,2.53,1.34,2.25.86Zm4.86-.38c.66-.39.8-.66.37-1.09s-.84-.28-1,.62,0,.89.64.47Zm-8.87-1.47c4.38-2,6-2.24,7.83-1.75a4.78,4.78,0,0,0,1,.33c.85,0,.31-1-1.23-1.55-1.75-.62-2.85-.34-6.21,1.41-2,1-3.57,2.54-1.4,1.56Zm12.7-2.4c-.06-.12-.32-.91-.4-1.2s-.14-.58-.23-.59a11.65,11.65,0,0,1-4.3-.16,14.13,14.13,0,0,0-8.26.28,7.18,7.18,0,0,0-1.28.62c-.18.16-.44,0-.44-.23a6.67,6.67,0,0,1,2.23-1.74,11.45,11.45,0,0,1,8.39-.7,5.42,5.42,0,0,0,4.5.08c.62-.27.18.4,0,1.28a4.66,4.66,0,0,0,0,1.49c.08.84,0,1.26-.23.87Zm45.84,177.14V158.43c-11.54,8.5-33.35,17.36-33.35,17.36,2.74,5.59-3.31,10.37-6.78,4.7-3.57,4-8.49,18-8.67,22.68,0,0,9.5,16.57,14.14,24.74ZM89.2,205a69.94,69.94,0,0,1,3.39-16.29,53.85,53.85,0,0,1,3.81-9.16c.67-1,.71-1.44,0-1.07a16.63,16.63,0,0,0-2.75,3.1c-3.12,6.57-4.56,14.47-5.71,20.49a26.91,26.91,0,0,0-.33,3Zm2.28-.29c.74-8.47,3.86-19.91,8.55-27.37.44-.71,1-1.33,1-1.58-.06-.72-1.87.53-3.27,2.67a71.82,71.82,0,0,0-4.34,10.06A64.74,64.74,0,0,0,90,205ZM96,204c.48-4.88,2-9.36,3.27-13.85a44.7,44.7,0,0,1,6-13.16c.78-1.17,1.69-2.26,2.56-3.37a.74.74,0,0,0,.2-.48,2.05,2.05,0,0,0-1.43.32,8.34,8.34,0,0,0-2,1.82c-3.44,4.39-5.3,9.52-7,14.7a55.14,55.14,0,0,0-3.08,14.25ZM65,200.3c.7-.05,1.15.08,1.35-.11s.13-.67.19-1.3c.14-1.35,0-1.27-.84-.4-1.4,1.44-3.94,2-5.45,1.12-.76-.44-1.29-.74-1.36-.38a.88.88,0,0,0,.35,1c1.84.83,3.57.26,5.76.09Zm-1.63-1a4.88,4.88,0,0,0,2.49-1.62c.53-.75.52-.85.12-.71-2,1-3.24,1.45-5,1.19-2.37-.37-2.47-.06-.9.92a3.48,3.48,0,0,0,3.29.22Zm-3.49-3c.37-.27.47-1.38.17-1.44s-.74.49-.85.93c-.11.59.32.74.68.51Zm3.68-.05.63-.06c-.32-2.76-3.33-2.88-3.88.28l.47.07c.62-2.52,2.44-2.45,2.78-.29Zm2-.45c.92-.51.6-1.14-.64-1.38-.81-.19-.77.47-.35,1.37.21.45.36.37,1,0Zm-7.08-3.38a3.13,3.13,0,0,0-.28-1.1,16.2,16.2,0,0,1-1.52-7.91c.08-2.28.11-3-.36-3-.67.31-1.06,4.55-.21,8.08.59,2.5,2.42,5.59,2.37,3.91Zm0-3.45c-.07-1.19.19-3.86.06-4.44a3.18,3.18,0,0,0-.88-1.64c-.4-.29-.5.26-.36,1.69.32,3.35.86,5.9,1.18,4.39Zm.33-6.11c.26-.48.16-1-.42-2.1-2.27-4.42-2.56-7.44-.19-8.54.27-.12.43-.14.61-.24.75-.41.46-1.17-.66-.86-3.09.86-3.7,3.75-1.09,9.09,1.33,2.66,1.53,3,1.75,2.65Zm.56-2.51c0-.19.12-.91.16-1.06a13.75,13.75,0,0,0-.62-1.42c-.87-2.23-.89-3.15.06-3.8.31-.18.63-.19.67-.39s.07-.86-.12-1a2.19,2.19,0,0,0-2.24,1.56c-.36,1.19,0,2.94,1.09,5.1.52.68.79,1.92,1,1Zm1-2.88c.72-1.47,0-3.37-1-2.72-.65.42-.69.86-.28,2.08.48,1.49.77,1.6,1.25.64Zm2.55-3.93c.29-.29,0-.7-.5-2.33-.47-1.38-.26-2.33.63-2.61,1.26-.31,1.7,1.75,2,2.62.14.67.58.85,1,.39.11-.13.14-.24-.05-1-.81-3.2-1.87-4.21-3.59-3.41s-1.38,2.38-.23,5.85c.15.46.26.81.37.86s.27-.24.43-.4Zm1.41-1.08c.38-.38.36-.21-.08-1.54-.49-1.52-.75-1.84-1.27-1.32-.33.33-.16.68.21,1.92.43,1.45.54,1.53,1.14.94Zm65.93-5.2c2.52-1.73,1.48-4.83-1.82-6l-1-.36c-1.52-.73-2.7-1-2.7-.39,0,.34.45.5,1.91,1.21,2.15,1,2.64,2.26,1.58,3.78-.77,1.1.66,2.36,2,1.74Zm2.28-3.78c.22-.88.55-1.64.7-2.16.21-.81-.06-.62-.6-.49-1.38.71-2.37.33-1.7,1.31.75,1.31,1.36,2.32,1.6,1.34Zm-.17-3.09a3.14,3.14,0,0,0,.5-5,6,6,0,0,0-1.85-1,11.51,11.51,0,0,0-4.85-.46c-.19.22-.19.56,0,.66a6,6,0,0,0,1.3.21c2.4.25,3.59,1,3.47,2.66s-1.52,2.42-4,1.86c-1.36-.29-2-.15-1.45.17a12.87,12.87,0,0,0,3.42,1.14,5.33,5.33,0,0,0,3.52-.29Zm-8.27-.45c1.93-4.34,3-15.73-8.13-24l.36,2.28a19.89,19.89,0,0,1,6.75,19.65Zm9.89-7.78a15.42,15.42,0,0,1-2.16,1.31c-.53.24-.55.29.18.69a5.3,5.3,0,0,1,1.14.78c.39.41.84.57,1,.42,0-.65.21-2.78-.17-3.2Zm-3.28.82c2.25-.71,3.45-1.79,3.19-3.59-.37-2.64-2.59-3.2-6.75-2.17-2,.5-2.17,1.44-.27.95,2.39-.6,4.27.31,4,2.06-.15,1.51-1.37,2.39-3.5,2.39-1.13,0-1.48.1-1.33.5s3.72.15,4.64-.14Zm-3.7-6.28c3.67-1.26,5.38-3.21,4.54-5.39-1-2.57-4.2-2.6-7.42-.21-1.5,1.1-1.27,1.51.19,1,1.89-.86,3.1-1,3.87-.31,1.4,1.24.46,3.41-1.66,4.18-1,.43-1.35.66-1.35,1,0,.49.18.37,1.83-.19Zm6.19,0c.09-.76-.77-3.4-1.14-2.79a5.22,5.22,0,0,1-.88,1.29c-1.26,1.13-1,.7.23,1.05.7.19,1.69.68,1.79.45ZM123.51,141c3.71-2.14,5.13-5.2,3.2-7.23-1.73-1.83-4.59-.77-7.25,2.55-1.23,1.53-.31,1.34,1.34-.11,1.91-1.69,4.35-.87,4.34,1.24,0,.89-1.29,2.41-2.49,3.11-.38.22-.44.56-.3.78s.44.08,1.16-.34Zm6.51-2.23c-.2-.58-1.59-3.05-1.9-3-.31.64-.33,1.47-.71,2.15-.52,1-.46.85,1.19.84,1.23,0,1.38.17,1.42,0ZM119.11,136c3.11-3.22,3.39-7,.47-7.87-1.62-.48-4.21.68-4.22,1.89,0,.75.14.88.8.61,2.75-1,4.93,1.62,2.4,4.66-.61.88-.69,1.1-.52,1.28s.39.13,1.07-.57Zm33.59-27.59V22.85H134.44L120,45.43l0,5.59c0,.19.32.31.54.07.82-.64.51,0-.44,1.46s-.67,2.66.38,4.21c2.22,3.29,3.38,9.33,2.43,12.52a3.46,3.46,0,0,0-.2,2.37,2.58,2.58,0,0,0,1.2,1.67,132.81,132.81,0,0,1,15.07,8.31l0-40.18,5.6-5.35,5.91,5.65.21,66.32c0,.7,1.37,1,2.12.29Zm-3.2-66.43-5-4.59-4.89,4.53c0,21.6.12,65.94.12,65.94l4.87.35a8.14,8.14,0,0,0-.1-3.63c-.68-3.92-.64-8.71.46-16a30.06,30.06,0,0,0-1-12.44,19.26,19.26,0,0,1-.76-7.67c.34-3.88,1.41-6.81,1.54-12.39.08-3.19-.07-6.3,0-10.23.05-.52.27-.46.31.08.15,3.56.29,6.93.32,10.4-.11,4.52-1.21,9.16-1.33,13.29a15.34,15.34,0,0,0,1.07,7.34c1.9,5.47.65,13.88.63,14-.81,5.39-1.39,12.28,1.33,17.44l2.64.23ZM115.44,82.69c1.46-.67,1.75-1.85,1-4.7-.14-.5-.3-1.11-.35-1.34-.17-.7-.49-.77-.91-.22-.25.34,0,.41.37,2,.58,2.36.24,3.15-.64,3.14s-1.39-.65-1.61-2.18a3.21,3.21,0,0,0-.31-1.09c-.22-.35-.47-.29-.68.1s.23,2.57.9,3.57,1.22,1.22,2.27.74Zm-.4-2.12c.31-.59-.07-2-.27-3-.19-.52-.4-.65-.75-.56-.52.12-.49.69-.3,1.62.38,1.89.58,2.13,1.32,1.9Zm4.44-3.42c1.67-1,1.83-2.59.71-5.56-.46-1.23-1-2.09-1.35-2.09-.13.77-.24,1.19-.1,1.49s.35.72.51,1.08c1,2.2.69,3.46-.23,4.15s-.31,1.18.46.93ZM64.79,76c3.92-.84,7.46-7.12,9.69-12.72,2-5.64,4.18-11.84,4.52-17,0,0-1.48.06-1.66.37a7.74,7.74,0,0,0-.4,1.87,74.5,74.5,0,0,1-3.62,12.84A48.1,48.1,0,0,1,67.38,72.7a6.11,6.11,0,0,1-3.94,2.35,6.6,6.6,0,0,0-1.25.1c-.3.21,0,.69.74.89a4.39,4.39,0,0,0,1.86,0Zm54-.74c.6-.63.66-1.38,0-3-.19-.44-.27-.7-.5-.63-.47.13-1,1.37-.69,2.41.42,1.37.67,1.77,1.2,1.2Zm-55.37-1a6,6,0,0,0,3.66-2.48,41.94,41.94,0,0,0,4.76-8.51c.88-2,2.48-6.34,2.91-7.91.92-3.34,1.42-5.48,1.85-7.87a1.56,1.56,0,0,0,0-.68,2.44,2.44,0,0,0-1.76.25,79.58,79.58,0,0,1-2.76,10.86C70.51,63.36,66,72,63.56,72.44c-1.31.23-2.83-.92-2.58-2.09.15-.72.25-1,.6-1.17.85-.3,1.35.28.42.66-1.09.94.86,2.37,2.06,1.37,2-1.7-1-5-3.4-3.46-2.71,1.66-2,4.54-.31,5.9a3.75,3.75,0,0,0,3.07.62Zm19.2-3.89a17,17,0,0,0,3.85-6.7,103.37,103.37,0,0,0,4.22-19s-1.43-.15-1.75.15,0,.41-.62,4.51a79.23,79.23,0,0,1-4.66,17,20.21,20.21,0,0,1-1.76,3.4c-.87,1.52-.54,1.91.72.61Zm37.16-13c-.16-.08-.14,0-.21,0-.23.16-.08,1,.44,2.19,1.36,2.19,1.53,6.45,1.44,8.06a2.58,2.58,0,0,0,.07,1.18c.14.42.39.91.8.09a16.74,16.74,0,0,0-1.12-9.13,7.09,7.09,0,0,0-1.42-2.4Zm1,9.3a13.69,13.69,0,0,0-.75-5.39c-.22-.48-.62-.52-.58,0,0,1.17-.12,3.39,0,4,.59,1.37,1.06,2.24,1.32,1.32Zm-3.09-13.6h-.65c0,2.2-1.93,2.81-2.66.17l-.58.13c.77,3.74,4.26,2,3.89-.3Zm-3.92,1.66c-.34-1-.19-1.33-1-.9-.64.34-1,.7-.12,1.14s1.38.38,1.17-.24Zm4.91-.56c.27-.54.23-1-.17-1s-.4.25-.49.78c-.16.94.23,1.11.66.26Zm.34-3.66c.25-.08.18-.43.11-.87-1.06-1.47-3.69-1-4.63-.73a2.21,2.21,0,0,1-2.11-.12c-.61-.11-.7,0-.85.33a5,5,0,0,0-.19,1.59c0,.72,0,1.06.24.83a6,6,0,0,1,3.74-2,7.56,7.56,0,0,1,3.69,1Zm-7.23,2c0,.29.25.11.9-.3a5.86,5.86,0,0,1,5.74-.53c.45.15.73-.32.24-.72-2.4-2-5.35-.71-6.88,1.55Zm8.54-9.05L133.17,22.4l-71.26,0L74,44.73a109,109,0,0,1,46.37-1.25Z"/><path class="cls-3" d="M57.18,208.43c1.51-2.24,9,1.76,9.38,3.34,4.43-3.47,9.8-3.72,14.12.62,4.45-4.84,9.2-4.51,14.15-1.71-.55-1.09,6.33-5.92,10.51-2.85l11.32,20.08-72.47.24c4.28-6.41,8.07-14.06,13-19.72ZM26,103.66c-.5-.34-.29-.59-.51-1.2-.39-1.09-1.93-11,2.1-11.31,6.52,2.88,14.84,13.19,18.7,19.49,4.78,7.81,9.61,25.76,6.94,25-.38-.11,8.23,8.49,8.83,9.33,1,1.38-14.53,27.12-17.09,26.2-.77-.28-5.93-3.35-5.93-3.35l.15-8.59s8.11-16,8.56-21.31c.17-2-5.58-5.46-5.85-6.16-.65-1.73-.57-8.18-3.92-11a5.15,5.15,0,0,0-3.38-.81c-.72,0-1.47.33-2.09.29a3.09,3.09,0,0,1-2.7-1.57c-3.41-7,.05-12.46-3.81-15Zm126.74,5.74,0,3.17c-5,1.09-13.86-3.14-16.54,3.67.34,7.36,2,10.66,3.14,12.89.87,2,7-.29,9.11,1.72,4.47,3.44,5.13,11.27,5.16,17.36,0,3.62.27,7.13-.91,9.67-2.37,3.87-13.85-6.37-18.66-15-21.53-39.1-16-26.74-18.08-38.12-.13-6.16,16.92-25.95,16.92-25.95s6.21,3.74,6.21,3.74c.15.06-.13,26-.13,25.87,4.88.25,9.65.82,13.74,1ZM115.25,85.71c-9.46,13.54-12.67,33.76-12.06,47.87,1.23,21.07,16.28,39.84,15.27,41.62-.17-.13-.56.08-.72,0a9.88,9.88,0,0,0-7.66-2.56c-3.39-.06-4.32.95-6.27,1.14-5,.49-4.56.62-8.77-1-2.14-.81-3.33-3.21-5.37-4-5.64-2.28-8.09-3.95-12.73-5.34-4.54.41-11.46,2.55-14.08.81,16.89-34.09,15-55.19-3.37-90.12,1.56.46,1.8,1.92,3,2.27,3.88,1.5,9.22.93,12.42-.46,3.48-1.56,6.76.72,6.71.65,6.85,4.81,15.13,7.93,19.44,10.07,1.27.66,2.88-.38,4.29-.66,2.88-.58,5.35-1.81,7.5-1.1a25.29,25.29,0,0,1,2.43.86ZM72.72,41.84c-.92-1.72-10.29-19.71-10.29-19.71l70.43.42L122.28,39.91c-1,.94-6,3.57-11-2.38.91.56-7.52,6.14-13.91-.23A12.22,12.22,0,0,1,90.07,41c-3.48.28-6.9-1.68-7.11-2.1.7.36-5,6-10.24,3Z"/><path class="cls-4" d="M80.44,212c-5.82-6.06-13.89-.6-13.79-.26C64,209,61.07,207,57.51,208.1c0,0,.22-1.22.25-1.24,12.17,1.46,28.9,2.12,46.5-1.4l.44,1.91c-4.56-1.39-7.65.7-10,3.48-8.39-4.63-10.23-.53-14.25,1.14Zm16-74.34,4.83-.1c.91,14,12.66,35.55,12.94,35.55-.81-1.14-8.57-.25-8.51-.1-4.27-11.37-9-22.72-9.26-35.35ZM68.18,171s-1.56-4-2.48-5.75c5.07-8.66,9.24-17.62,11.37-27.59l3.46,0c-1,13.77-12,34.66-12.35,33.31Zm62.21-1.84c7.36-14.19,6.36-33.5-15.2-44.34,0,0,.46-14.61,2.07-14.64.36.11,9.78-.12,9.78-.12,3-6.75,6.65-13.63,12-18.3l.14,16.21c-4.1.4-6.61,1.71-7.85,4.92l-5.69,1.27c.42,16.28,6.55,31.32,24.75,44.84-4,3-15,9.86-18.9,11-.75.23-1.08-.86-1.08-.86ZM39.22,158.9,39.38,142c2.76-.6,4.93.2,7.21-4.74,0,0,3.82,1.81,5.1,2.48C48.11,146.15,45,153,39.22,158.9ZM75.45,129l.18-8.57,8.15.24a15.91,15.91,0,0,0,0,8.71Zm18.58-.1c.56-2.81,1-5.62-.2-8.6l8.82.15-.2,8.53ZM77.25,112.15c-1.46-16.81-13-35.83-13.16-35.43,1.36.22,3.75.89,5.07.27a6.31,6.31,0,0,0,3-.06c.11-.59,10.72,24.4,9.3,35.18-.16.37-3.91.39-4.26,0Zm20.39.15c1.25-7.77,4.46-22,12-33.49a42.44,42.44,0,0,0,2.77,6.06c-5.72,8.31-9.25,17.82-11.39,27.52Zm-52.75-4.19C41.43,101,27,89.9,27.72,91c6-5.35,12.65-8.75,19.3-12.18,0,0,1.19,1.12,1,1.4-4.1,6.44-6.08,20.09-2.12,27.92,3.81,8.35,10.57,13.29,17.45,17.17a90.62,90.62,0,0,1-2.08,14.19s-4.32-2.27-7.87-3.73c-.57-9.87-2.61-18.69-8.52-27.68ZM83.16,38.78c5.09,3.1,9.64,2.78,14.07-1.43a10.34,10.34,0,0,0,14.08.42A9.71,9.71,0,0,0,121.19,41l-1.11,2.32c.27-1.23-30.84-3.25-45.88,1a14.53,14.53,0,0,1-.79-1.77c1.31-.08,5.67,1.53,9.75-3.74Z"/><path d="M4.43,8.8v2.36L6.71,11V31.46H4.25V33.9h6.82V31.47H9.29V25.6l3-3.87,3.91,9.74H13.71V33.9h7.46V31.47H19.11L13.9,19l5.33-8H20.9V8.8H13.71V11H16L9.29,20.79V11h1.78V8.8ZM61.27,21.57,73.85,45l.55-.1c17.42-3.4,31.23-3.87,46.05-1.27l13.18-21.78c-24-.27-72.36-.24-72.36-.24Zm1.4,1,69.92.08-3.93,6.44c-2.36-.72-3.67.36-4,2.61a3.6,3.6,0,0,0-.84-.19,2.39,2.39,0,1,0-.66,4.72c.82.14,1,0,1,0-2.87,2.4-4.5.78-5.85,0a3.42,3.42,0,0,1-5-.09c3.42.34,4-3.09,2.32-4.39-.35-.33-.69-.6-.69-.6a2.09,2.09,0,0,0,.46-2.7c-1-2.14-4.29-2-4.79.33-.19.91-.2,1.07-.2,1.07a2.61,2.61,0,0,0-2.25,4,3,3,0,0,0,2.68.9c-1.41,2-4.62,1.31-6-.33-2.28,2.68-4.87,2.35-6.16.92a2.8,2.8,0,0,0,2.28-.77c1.39-1.27.71-3.54-1.24-4.17a3.4,3.4,0,0,0-.67-.15,4.6,4.6,0,0,0,.13-.82c.49-3.95-5.43-3.56-4.86.32a2.56,2.56,0,0,0,.19.69,2.76,2.76,0,0,0-1,.13c-3.28,1.51-1,5.68,1.52,4.61.24-.1.9-.42,1-.42-3.14,3.9-5.78,1.14-6.48.71-2.12,3.15-5.81,1-5.88.78a3.1,3.1,0,0,0,1.58-.42,2.49,2.49,0,0,0-.14-4.47,4.34,4.34,0,0,0-1.77-.13,5.06,5.06,0,0,0,0-.95,2.41,2.41,0,1,0-4.58,1.3,2,2,0,0,0,.37.57,7.33,7.33,0,0,0-.92.64,2.4,2.4,0,0,0,2.67,4c.34-.18.67-.56.77-.53-1.24,2.26-3.12,3-5.8,1.17a2.94,2.94,0,0,1-5.11.22c2.52.24,4.15-4.59-.69-4.75-.38-1.31-.36-3.31-3.43-3ZM46.32,25.38c-2.63,7-10.06,13.28-14.36,21.13-4.86,8-3.33,16.08,3.28,17.49,3.47.73,8-2.6,8.39-6.19.08-.73.36-1.12.85-1.06s.35,1,.2,2.13c-.53,3.73-2.55,9.65-5.17,12.38H51.68a18.59,18.59,0,0,1-4.59-12.84c0-1.23,0-1.64.55-1.63s.45.2.57,1.41c.82,7.64,10.33,8.47,13.31,1.16,1.5-3.68-.07-10.24-4.05-15.86-3-4.93-8.15-10.67-11.15-18.13Zm5.36,45.89s0,0,0,0ZM96.82,30.84a1,1,0,1,1-1,1,1,1,0,0,1,1-1Zm15.62.13A1.06,1.06,0,1,1,111.38,32,1.05,1.05,0,0,1,112.44,31ZM81.82,32.13a1,1,0,0,1,0,2,1,1,0,1,1,0-2Zm43.86,1.26L124.79,35c-1-.86-.3-2,.89-1.58ZM69.59,35.57l-.89-1.63c1.59.1,1.12,1.24.89,1.63Zm27.1-.89c6,6.84,11.38,4.82,14.9.27,1.51,3.87,4.87,6.55,10.66,3.95A17.8,17.8,0,0,1,121,40.61c-5.12,1.38-7.66-1-9.63-3.32-5.2,4.32-10.1,3.27-14.14-.54-3.46,4.34-9,5.28-14.22,1.73-2.36,3.49-5.75,4.9-10,3.16,0,0-.91-1.43-1-1.52.61.52,8.47,3.78,10.39-4.06,2.73,4.64,11.7,4.89,14.27-1.38Zm.6,2.81c6.75,6.32,13.83.86,14,.47.11.35,4,4.95,9.52,3.22l-.91,1.55c-10.45-1.77-20.06-2.9-42.08.33a10.46,10.46,0,0,0,5.29-3.84c1,.64,8.63,4.91,14.17-1.73ZM12,39.28a32.65,32.65,0,0,1-2.45,4.4C5.56,49.81,5.33,50.4,5,52.56c-.88,4.23,4.12,5.95,5.71,3.06.72-1.23,1.17-.43.85.73A9.39,9.39,0,0,1,9.3,60.69l6.06,0S12.76,58.09,12.8,56c0-1,.52-1,1.15-.12,1.81,2.49,5.18.48,5.2-3.06,0-2.18-.65-3.4-4.58-9.25-.86-1.28-1.81-2.89-2.61-4.25Zm61.68,3.44s2.93.35,3.16.41-2.47.94-2.48.89Zm6,30.11c-.18,0-.4.21-.77.57-.79.78-1,.89-1.75,1a6.58,6.58,0,0,0-2.56,1.48,2.25,2.25,0,0,1-1.05.41l-1.22.21a2.88,2.88,0,0,0-.66.19,2.43,2.43,0,0,1-1.75.11,2.07,2.07,0,0,0-1.56.07,2.82,2.82,0,0,1-2.38,0,2.69,2.69,0,0,0-2-.3c-.82.27-2.93-1-2.92-1.74a3.65,3.65,0,0,0-1.5-1.06c-1.06-.17-10.44,3.54-10.4,3.75C60.63,91.75,70.32,113.42,63,139.94l-1.29-.62a94.17,94.17,0,0,0,1.85-14.6C42,115.39,40.1,93.69,48.49,80l-1.42-1.51C42,81.18,36.82,82.72,24.25,93.27l0,17.06c0,15.43,0,30.46,0,30.46,4.55.5,9.55.91,14.49,1.34,0,0-.06,15.26-.17,21.22-.1,5.05.09,4.73.09,4.73l16.36,8.63c-1.15-4.55,1.68-6.35,4.06-6.16-1-4.38,1.56-6.39,4.53-5.82,2,.38,2.71,1.49,3.87,5.15.18.59.44,1.39.44,1.39l1.15,0c1.43-3.08,2.39-7,5.76-7.52,4.43-.66,6.07,2.38,6.07,5.41,4.28-3.77,9.41-.85,9.08,4.79,2.15-1.39,5.8-2.64,8.1,2.7.86-.18,1.31-1.15,2.52-1.45a8.32,8.32,0,0,0,1.49-.65v-.18a15.22,15.22,0,0,1,2.24-.54c1.1.41.78.39,1.37-.34a5.17,5.17,0,0,1,2.56-.48,3.26,3.26,0,0,0,1.76-.09c.78-.34,1.52-.43,2,.09s.83.2,1.35.17a3.13,3.13,0,0,1,2.87,1.33,9,9,0,0,0,2,1.32l1.13-.27.13-.42,9.26-3.53c-18.89-20.69-18.4-48.14-14-62l1.71.82a55.18,55.18,0,0,0-1.8,14.48c17,7.59,25.48,27.2,15.16,44.32l1.09,1.41c4.3-1.81,15.09-7.87,18.82-11.16l.8.07s2.26-1.47,3.25-2.25l.14-45.42-.79.21-.14-2.66-14-1.11c.18-.13.31-.19.35-.45l-.08-25.15c-.52-.8-12.26-7.68-16.64-9.29-.17,0,0,.3,0,1,.22,2.46-1.45,4.66-3.38,4.66-.69,0-.81.3-.78,1.71a3.79,3.79,0,0,1-2.8,4.14c-2.51.9-4.21-.41-5.61-5.58-.37-1.36-1.08-1-1.78.83a43.14,43.14,0,0,1-2.1,4.34,4.51,4.51,0,0,1-2.41,1.79,5.15,5.15,0,0,1-3.76-.19c-1.93-1-2.68-2.16-3.24-5.08-.07-.38-.32-.34-1,.13-3.4,2.56-8.19-.09-8.16-4.53,0-1.3-.05-1.35-.81-.72-2.31,1.88-5.45.92-6.71-2-.29-.7-.45-1-.68-1ZM60,74.41c.24,0,1,1,1,1a10.16,10.16,0,0,0,2.58,1.71C63.68,77,74.87,92,76.77,112.69l5.21,0c-1-20.12-6.52-29.78-9.07-36l1.87-.59c4.18,8,9.29,24.29,9.12,38.54H75.3A78.09,78.09,0,0,0,60.78,75.94c-.54-.81-1-1.37-.81-1.52Zm-3.29,2.12.87,2.74a1.92,1.92,0,0,1,.37-.89c1.7-1.53,3.32.49,2.56,3.22-.18.85-.52,2.5-.52,2.5s-1.71-.87-2.56-1.16c-2.37-1-3.16-3-1.35-3.21.3,0,.92-.06.92-.06-.75-.59-2.41-2-2.41-2Zm7.94.31a5.45,5.45,0,0,0,3.62.44,4.87,4.87,0,0,1,2.4-.06A7.18,7.18,0,0,0,72.22,77a96,96,0,0,1,9.17,35l-4,0A83.66,83.66,0,0,0,65.05,77.91c-.27-.41-.63-1.06-.38-1.07ZM81.39,77c1.55,0,3.17,1.57,4,4.09.49,1.41.68,1.32,1.34,1.1,1.69-.58,3.49,1.27,1.22,1.58s-1,4.72-1.14,5.1c-.9.16-2.59-3.54-2.55-4.64.11-2.69-2.42-5-4-3.82-.74.54-.66.92-.89.73a2.46,2.46,0,0,1,0-3.17,2.62,2.62,0,0,1,2-1Zm46,.93s.09,3.55,0,4.33c-.26,2.36-3.35,2.61-3.47.72a7.91,7.91,0,0,0-1.05,2.54L120.66,84a11.71,11.71,0,0,0,2.23-1.86c-1.62.12-2.52-1.29-1.44-2.48,1.21-1.37,4.54-1.52,6-1.75ZM46.94,79.07l1,1.09c-8.62,15.29-5.58,34.83,15.24,45.1a64.46,64.46,0,0,1-1.86,13.83l-7.68-3.72c0-17.28-9.74-33.76-25.36-44.59a91.83,91.83,0,0,1,18.7-11.71Zm62.88.13c.37,2,2.28,5.68,2.41,5.47,0-.12-7.94,10.16-11.39,27.35l-3,0A96.08,96.08,0,0,1,109.82,79.2Zm24.45.48,1.57.95c-8.22,6.89-13.64,15.61-17.61,25l-2.08-1c6.16-13.64,12.26-19.71,18.12-25Zm2.19,1.53c.43,0,.94.57,1.73,1s.59.64-.87,1.76c-1.72,1.32-1.89,1.26-1.87-.62,0-1.25.32-2.09.93-2.15Zm-1.89,1.94a.22.22,0,0,1,.21.1,8.09,8.09,0,0,1-.09,2.77c-.16.74-2.37,2.61-3.16,3.34-.32.21-.46.14-.52-.23,0-.59.08-1.37.1-2.16,0-.25-.05-.5.17-.69,1.08-1.28,2.66-3.1,3.29-3.13Zm4.11.61h0a7.79,7.79,0,0,1,0,2.85,6.37,6.37,0,0,1-2.8-.34c-.1-.3,2.33-2.54,2.75-2.52Zm-77,.83.6,2.51.21-.41c1.2-1.81,2.64-.75,2.62,1.78a40,40,0,0,1-.73,4s-4.47-2.15-4.82-3.09a1.24,1.24,0,0,1,1-1.81,3.28,3.28,0,0,1,1,0l-1.92-2Zm51.16.33,2,.75c-4.22,6.88-8.59,13.67-11.76,29.17h-8.5A90.49,90.49,0,0,1,102.48,87l2.61-.82s-7,16.07-7.84,26.41l4.11.08c2.19-10.07,6.29-20.5,11.47-27.75Zm-16.09.25a1.85,1.85,0,0,1,1.92,2.18c0,1.31-.14,1.5-1.06,1a2.68,2.68,0,0,0-3.25.07c-.6.43-1.18.78-1.18.78a7.64,7.64,0,0,1,1.32-3,3.63,3.63,0,0,1,2.25-1Zm-4.36,3.35a7.63,7.63,0,0,1-.51,1.77s.66-.26,1-.41A2.22,2.22,0,0,1,95.91,92a2.41,2.41,0,0,1-2.36,2.25,2.32,2.32,0,0,1-1.41-.49c.34,1.86.41,2.73-1,3.66a2.34,2.34,0,0,1-3.41-2.19L87.85,94l-1.15.15A2.26,2.26,0,0,1,86,89.64a3.07,3.07,0,0,1,2.18.6,3.53,3.53,0,0,1,.16-3.42,2.3,2.3,0,0,1,4,1.7ZM120.57,86c.18,1.48.77,3.11.6,4.5-.25,1.77-1.76,2.82-3,1.67-.14-.14-.41-.44-.41-.44a8.23,8.23,0,0,0-.86,2.59l-2.1-1.29a10.69,10.69,0,0,0,1.86-1.6,1.45,1.45,0,0,0,.16-.47A1.51,1.51,0,0,1,115,89.13c.64-1.73,3.77-2.36,5.54-3.09Zm14.62,1.07a28.82,28.82,0,0,1,3,.3c.74.13.33.55-1.32,2.15s-1.47,1.34-2.63,1.32c-2.73,0-3.21,0-1.62-1.7a10.27,10.27,0,0,1,2.15-2,2,2,0,0,1,.46-.07Zm-4.91.32a.14.14,0,0,1,.09,0c.18.17.12.94.1,2.08s0,1.21-.52,1.84c-.64.81-1.18,1.63-1.85,2.41-.58.63-.56.57-.92-1s-.14-1.94,1.76-4.08c.64-.83,1.1-1.35,1.34-1.33Zm8.51.84,0,3a50.45,50.45,0,0,0-12,18.5l-2-.78a56.69,56.69,0,0,1,14-20.71ZM90,90.07a1.69,1.69,0,1,0,1.68,1.68A1.68,1.68,0,0,0,90,90.07Zm0,.54a1.16,1.16,0,1,1-1.16,1.16A1.16,1.16,0,0,1,90,90.61Zm-62.49.7C45.07,102.57,52.94,120,52.91,135l-1-.44c-1-21.19-12.54-34.21-25-42.64Zm103.88.17a17.06,17.06,0,0,1,1.72.15c1.45.08,1.63.17.63,1.32-.28.31-.8,1-1.17,1.46a4.2,4.2,0,0,1-1,1.09,22.84,22.84,0,0,1-3.58-.12c-.24,0,.07-.27,1.31-2,1-1.36,1.06-1.81,2-1.85Zm7.31.57s.35,9.66.09,15.81c-4-.14-6.35,1.37-7.33,4.25l-4.2-2.08a54.45,54.45,0,0,1,11.44-18Zm-12.39.22q.33,0,.42,1.41c.27,1.66.24,1.85-.46,2.91-.34.54-.81,1.29-1,1.67-.41.68-.69.88-.79.55-.55-1.79-.72-2.9-.53-3.26.32-.59,1.82-2.71,2-3s.27-.29.37-.29Zm-100.09.18c14.1,8.74,24.42,23.65,24.85,41.67,0,0-3-1.41-4.86-2.44l-.1-1.75,1,0,.32,2,2.15-.07L49,126.87l-3.37.32L45,124.4l1-.22.56,1.8,2.19-.58L47.57,121l-3.39.93-1.08-3,1.12-.4.91,1.77,2.06-.71-1.94-4.4-3.12,1.46-1.58-2.87,1.22-.64,1,1.7,1.92-1-2.38-4-3,1.65-1.48-2.23.91-.64,1,1.17,1.69-1.2-2.59-3.49-2.83,2.22L34,104.89l1-.81,1.44,1.29L38,104l-3.09-3.37-2.69,2.46-2-1.75,1-1.08,1.25,1,1.34-1.57-3.36-2.77-2.51,2.49-2.42-1.6V96.55a20.68,20.68,0,0,1,2.36,1l1.25-1.89-3.61-2.43Zm39.28.75.53,3.08c.51-.84.91-1.42,2-1.09,1.31.53,1.33,2.52.22,5.55-.21.56-.46,1.05-.46,1.05a6.25,6.25,0,0,1-1-.51A9,9,0,0,1,64,99c-.72-1.14-.74-2.75.59-2.61a4.58,4.58,0,0,1,.79.13l-2-2.55Zm-40.06.92,2.45,1.57-.51.92-1.94-.87Zm61.23.72c.71,1-1.78,3.91,1.48,5.07a1.17,1.17,0,0,1-.6,1.08c-1.6,1.16-3.88-.95-3.18-3.13.46-1.39,1.77-3,2.3-3Zm6.76.09s1,.72,1.18.91c1.81,1.74,1.83,4.23.19,5.1a2,2,0,0,1-2.76-.72.56.56,0,0,1,.55-.8c.78,0,1.37-1.49,1.14-3.07-.09-.63-.3-1.42-.3-1.42Zm21.4.59a20.56,20.56,0,0,0,.52,3.07c.95,2.65-.26,4.26-2,3.38a3.68,3.68,0,0,1-.7-.71l-.18,3-2.53-.74c.55-.88,1.34-1.5,1.92-2.5h-.71c-1.51,0-2.06-1.62-.48-3a29,29,0,0,1,4.2-2.54Zm13.23.7c.3,0,.68,0,1.21,0,1.6,0,2-.22,1.31.78-.28.39-.95,1.47-1.15,1.84-.4.75-.49,1-1.16,1.13a23.49,23.49,0,0,1-3.2.12c-.24,0,.26-.85.54-1.36.68-1.27,1.09-2.14,1.68-2.41a1.83,1.83,0,0,1,.77-.13Zm-5,1c.2,0,.34.34.53,1.06.43,1.67.54,1.72-.16,3.09l-1.19,2.36c-.63,1.25-.66,1.24-1.06.12-.77-2.15-.83-1.92.43-4.33.78-1.51,1.17-2.28,1.45-2.3Zm-92.55.59,2.27,1.82-.64.62-1.26-.92-1.85,2,3.05,2.78,2.58-2.54,2.21,2.31-.68.58-1.3-1.26L33,104.82l2.9,3.43L38.82,106l1.83,2.4-.74.47-1.2-1.16-1.9,1.32,2.37,3.33,3-1.71,1.69,2.79-.94.45-1-1.53-2.14,1.23,2,3.9,3.22-1.34,1.29,3-1,.4-.83-1.79-2.16.86,1.45,4.09,3.26-.93.79,3-1,.28-.5-1.69-2.08.5.87,4.11,3.32-.21.4,3.32-1,0-.26-2-2.12,0c0,.7.1,2.13.1,2.13l-1.28-.6a45.6,45.6,0,0,0-18.78-30.48l-.05-1.51,2.46,1.56s2.25-2,2.64-2.52Zm97,2.94c.7,0,.39.54-.47,2.18-1,1.82-1.12,1.86-2.91,2.29-2.18.53-2.12.65-.94-1.86a6.72,6.72,0,0,1,1.2-2.14c.55-.42,1.6-.26,2.76-.43a2.81,2.81,0,0,1,.36,0Zm-101.94.54C36.07,108,42.69,122,43.52,130.5a9.58,9.58,0,0,0-.86-.45c-.8-.36-1-.6-1.22-1.76a43.17,43.17,0,0,0-15.81-25.38ZM120.12,103c.44-.09,1.25,3.09,1,3.76-.17.48-1.73-.65-2.3-.89-.28-.12,1-2.8,1.29-2.87Zm-50.55.15-.06,3.3a5.4,5.4,0,0,1,.61-.62c.78-.57,2,.22,2,1.19.06,1.36-.15,1.91-1.23,3.78-.34.58-.84,1.33-.84,1.33a24.86,24.86,0,0,1-2.68-2.31c-1.51-1.51-1.22-3.51.1-3.52a3.33,3.33,0,0,1,1.1.24,20.76,20.76,0,0,0-1.35-2.86Zm41,2.47A12.1,12.1,0,0,1,112,108.9c.76,2.26-.4,4-2,3.11a3,3,0,0,1-.58-.49,18.72,18.72,0,0,0,.11,3.09l-2.53-.44a19.9,19.9,0,0,0,1.5-2.75s-.16.12-.86.12c-2.54,0-2-3,.93-4.7.43-.26,1.93-1.22,1.93-1.22Zm14.58,0c.55,0,.29.51-.32,1.75s-.5,1.26-1.93.53c-2-1-1.87-1.12.65-1.8a6.65,6.65,0,0,1,1.6-.48Zm-36.09.4c2,0,3.46,2,3.17,4.78-.51,4.79-.22,4.5.31,5,.95.87-.34,1.39-1.48.56-.78-.58-1-1.15-1-3.79,0-3-.13-3.82-1.21-3.56-.68.17-.9.74-.82,2.8.1,2.88-.09,3.6-1.18,4.52s-2.45.1-1.37-.5c.49-.55.58-1.26.39-3-.21-1.48-1.07-6.81,3.19-6.79Zm49.27,2.42h.76c3.83.14,13.53.93,13.53.93l.08,2.87c-.43.27-7.67-.84-13-.74-1.24,0-2.13.58-3,.11.86.36.78,4.68-3,3.64-3.22-1.17-1.65-5.53,2.48-6.63a19.38,19.38,0,0,1,2.19-.19ZM117,110.4l8.29,4.09c1.16,15.56,6.53,32,24.82,44.45a101.32,101.32,0,0,1-18.89,10.9l-.7-.75c10.09-17.16,2.47-36-15.2-44.58A68.44,68.44,0,0,1,117,110.4ZM146.11,113c1.59-.06,2,.12,2.14.84s.64.84,1.23.62c1.46-.53,2.35,2.06,1.14,3.21-.75.71-.61,1,0,1,1.52,0,1.48,2-.07,3.13-.64.47-.63.68,0,1,1.12.56.9,1.66-.53,2.56-.77.49-.8.61-.16.79,1.61.44,0,2.74-1.8,2.33a2.63,2.63,0,0,0-2.11.44c-1.89.79-2.21.95-4.26.7-1.79-.33-2.59-.92-3-2.5-1.06-3.2-2.19-6.75-2.21-10.25-.15-2.15,3.45-4.09,5.15-4.18,1.39-.21,3,.3,4.49.31Zm-113.34,0a3.45,3.45,0,1,1-3.45,3.45,3.45,3.45,0,0,1,3.45-3.45Zm38.32,1-.31,3,.63-.49a1.24,1.24,0,0,1,2,1.25,13.72,13.72,0,0,1-2.59,4.73,47.07,47.07,0,0,1-3.15-3.71c-.68-1.35.25-2.75,1.48-2.16.17.09.68.46.68.46l-.9-2.86ZM33,114.32c-1.22,0-2.38.79-2.22,1.79.1.42.75-.19,1.39-.59a1.73,1.73,0,0,1,1.64-.12c.5.17.71.63,1,1s.52.54.66.39a.61.61,0,0,0,0-.53A2.36,2.36,0,0,0,33,114.32Zm92.86.47,1.23.63c1.66,22,12.78,34.91,24.46,42.61l-.93.56a54.26,54.26,0,0,1-24.76-43.8Zm1.87.9s3.09,1.58,4.71,2.32l.06,2-1.08,0-.37-1.88-2.25.16.7,4.61,3.63-.45.51,2.78-1.23.26-.63-1.71-2.08.51,1.35,4.47,3.27-1.06,1,2.92-1.09.4-.71-1.71-2.15.75,1.67,4.36,3.4-1.09,1.38,2.73-1,.46-1-1.7-2,1.05,2.4,4.07,3.08-1.61,1.43,2.18-1.13.75-1-1.33-1.65,1.09,2.64,3.62,2.65-2,2,2.29-.88.77-1.35-1.37-1.61,1.43,3.16,3.47,2.74-2.39,1.95,1.82-.58.6-1.3-.82-1.74,1.85,3.31,2.88,2.64-2.88,2.23,1.64v1.21l-2-1-1.34,2,3.34,2.52,0,1c-19-11.34-24-28.93-25-42Zm-38.91.22c.82,0,1.68.75,3.12,2.41,4,4.64,2.94,11.81-2.3,15.56-.76.54-1.07.5-2-.31-5.38-4.61-5.68-10.78-.9-16.2.83-.94,1.43-1.44,2.08-1.46Zm19.19.64c1,1.51,2.24,3.07,2.38,4.91-.07,1.82-1.3,2.15-2.57,1.09a8.82,8.82,0,0,0,.39,2.82l-2.3-.25a7.68,7.68,0,0,0,.94-2.56,1.58,1.58,0,0,1-2.6-1.5c.46-2,2.09-3.33,3.76-4.51Zm-19.12,1.18a1.45,1.45,0,0,0-.69.39,9.93,9.93,0,0,0-3.07,4,8.39,8.39,0,0,0,2.3,9.18c1.38,1.36,1.86,1.26,4-1.55a8.15,8.15,0,0,0,1-8,8.91,8.91,0,0,0-2.66-3.46c-.44-.35-.67-.51-.91-.5Zm44.17.57,1.78.87c2.28,15,9.64,24.14,17.9,30.45V151l-2.22-1.72-2.66,2.78-2.14-1.76.8-.79,1.23.78,1.56-1.75-3.08-2.75-2.69,2.33-2.24-2.3.68-.57,1.55,1.35,1.73-1.54-3-3.35-2.68,2-1.87-2.48.81-.49,1,1.35,2.07-1.29-2.19-3.36-3.12,1.6-1.59-2.88.91-.43,1,1.61,1.94-.93-2-4-3.18,1-1.17-3.12.91-.33.8,1.84,2.15-.69L134.65,127l-3.29.93-.81-3.13,1-.22.54,1.69,2.26-.45-.83-4.07-3.37.43a30.41,30.41,0,0,1-.6-3.25l1-.09.32,1.79,2.27-.08ZM89,118.63c1.24.16,2.75,2.54,3.09,3.41a7.55,7.55,0,0,1,.11,5.21,11.84,11.84,0,0,1-2.86,4.11c-.75.4-1.37.1-2.43-1.34-2.1-2.86-2.51-6.29-.85-8.64,1.26-1.8,2.2-2.76,2.94-2.75Zm46.45.74.89.42c1.1,8.69,6.25,20.61,16.39,27.74v1.09c-7.89-5.65-15.12-15.41-17.28-29.25Zm-46.6.59c-3.53,2.66-3,6.82-.3,9.63,2.88-1.91,3.9-7,.3-9.63ZM35,120.13c2,0,3.25.65,3.86,2a12.66,12.66,0,0,1,1.26,3.68c.11.64.28,1.61.38,2.15,1,5.83.27,8-3.26,8.93a8.25,8.25,0,0,1-3.56.11c-.27-.06-1.26-.07-2-.1a3.69,3.69,0,0,1-2.78-.84,1.91,1.91,0,0,0-.89-.46c-1.76-.28-2.29-1.9-.95-3.09.76-.68.84-.77.77-.89a1.51,1.51,0,0,0-.73-.12c-1.78,0-1.76-1.84,0-3.15.85-.62,1.24-1.2.67-1.06-1.62.38-2.19-2-.49-2.73.9-.5,1.55-.92.68-1s-1.33-.47-1.11-1.11a2.57,2.57,0,0,1,2.62-1.21c.66.2,1.31.39,1.73.09a4.81,4.81,0,0,1,2.35-1.18,12.82,12.82,0,0,1,1.46-.08Zm59.16.45,8.18.16-.24,8-7.7-.15a10.33,10.33,0,0,0-.24-8Zm-18.33.18,7.84.1a12.3,12.3,0,0,0-.34,7.88l-7.66-.12Zm13.09,0c2.1,1.23,2.68,5.7-.24,8-2.78-2.86-2.23-6.34.24-8Zm-19.33,3.49,2.1.2-.75,3a2.36,2.36,0,0,1,.45-.4c2.7-1.26,2.89,1.61.15,4.2-.61.57-1.59,1.36-1.59,1.36s-.76-1.16-1.37-2.2a4.9,4.9,0,0,1-1-2.78c.17-.86,1.21-1.44,1.87-.91a8.19,8.19,0,0,1,.71.66Zm37.5,2.21s.88.9,1.42,1.49c1.85,2,2.17,3.92,1.23,4.5a1.64,1.64,0,0,1-2-.41,13.08,13.08,0,0,0,1.11,3.12l-2.76.44a17.65,17.65,0,0,0,.62-3.47,6.51,6.51,0,0,1-.82.55c-1.81.66-2.71-1.4-1.22-3.44a21.47,21.47,0,0,1,2.38-2.78Zm37.82,3.8a3.37,3.37,0,1,1-3.36,3.36,3.35,3.35,0,0,1,3.36-3.36Zm1.66,1.54c-.14,0-.26.36-.28,1.1a1.77,1.77,0,0,1-2.79,1.42c-.56-.29-1-.7-1-.39a3.71,3.71,0,0,0,.76,1.38c1.16,1.05,4,.8,3.93-1.64,0-1.14-.35-1.93-.59-1.87Zm-61.07,1.26a1.5,1.5,0,0,1,1.12.43c.92.63,1.1,1.43,1.16,4.46,0,2.67,0,2.74.43,3.06,1.08.8,1.73-.42,1.42-3.12s.65-4.5,2.22-4.49c.77,0,.92.46.33,1s-.77,1.37-.58,2.87c.5,3.86.07,5.76-1.55,6.54a3,3,0,0,1-4.26-2.26,18,18,0,0,1-.07-4.71c0-1.67,0-1.86-.59-2.82-.41-.64-.1-1,.37-1Zm-42.57,1.25a2.79,2.79,0,0,1,2.49,1.74c1.4,2.9-1.63,5.28-4.42,5.46a111.73,111.73,0,0,1-15.43-1.27l.08-2.73c4.45.25,9.47.62,14.88.87-.62-2.54.84-4.07,2.4-4.07Zm25.43.56,2.69.6-1.71,2.8a1.64,1.64,0,0,1,1.37-.19c1.1.39,1.11,1.79.31,3.08a12.6,12.6,0,0,1-3.65,2.76c-.68-1.47-2.2-4-1.6-5.45a1.48,1.48,0,0,1,2-.71c.27.17.79.43.79.43Zm6.36.08,8.21.1c-1.19,8.29-3.53,19.36-8.12,28.39l-1.94.5a93.31,93.31,0,0,0,8-26.79h-4.1c-2.36,10.1-5.85,19.45-11.21,27.57L63.17,164c5.74-9.09,10.28-19.24,11.54-29Zm18.71.14h9.15c1.68,16.89,7.38,28.42,15.88,39.81a1.7,1.7,0,0,1-.86,0,5.29,5.29,0,0,0-3-2.11c-7.14-10.27-11.93-24.64-13.08-35.63H96.07c.62,13.8,4.44,25.12,9.53,36.08l-2.76.51c-4.09-9.81-8.57-18.34-9.42-38.65Zm14.23,2.09c.75.58,1.56,1.15,2.33,1.71,2.06,1.44,2,4.17,0,4.16l-.71,0s.82,1.79,1.34,2.7c-.84.22-2.58.55-2.58.55a21.92,21.92,0,0,0,.2-3.22,2.45,2.45,0,0,1-.61.51,1.7,1.7,0,0,1-2.28-2c.22-1.85,2.28-4.4,2.28-4.4Zm-61.08.33,4.5,2.24c-3.07,7-6.58,13.51-11.66,18.48l.13-16.13c2.77-.08,5.62-.11,7-4.59Zm30.77.25h2.77c-1.23,12.88-9.74,30.3-11.34,32.41l-.52.39s-1.09-3.95-2.37-5.36c4.8-6.48,9.83-18.92,11.46-27.44Zm19.47,0H101c1.31,10.27,4.48,21.36,12.52,34.82a2.66,2.66,0,0,1-1.43-.29c-1.37-.86-2.32.27-3.14.23a6.9,6.9,0,0,0-2.81.17,94.57,94.57,0,0,1-9.32-34.93Zm-45.17,2.31,1.49.7c-3.21,7.43-6.08,13.33-13.69,20.58l0-2.16c5.34-5.18,9-12,12.23-19.12Zm2.17,1A18.25,18.25,0,0,1,56,142.18c.22.09.17.29.17.5-.29.7-1.53,1-2,1.15s-1.14.27-1.24.3c-.65.15-.44-.5.26-1.93.32-.64.45-1.07.63-1.08Zm3,1.57A7.82,7.82,0,0,1,59.44,144c.13.42-.26,1.09-.83,2.32-.87,1.9-1,1.94-1.31.38,0-.27-.3-1.15-.46-1.74-.37-1.37-.41-2.15,0-2.29Zm3.27,1.53s1,.51,1.39.74c-4.69,14-17.17,25.63-17.1,25.36l-2-1.14c8.3-7.51,14.39-16.37,17.66-25Zm-5,.2c.46,0,.06.57-.55,1.92s-.77,1.79-1.31,2a20.13,20.13,0,0,1-2.89.46c-.43.08-.25-.25.4-1.57.77-1.56.81-1.89,2-2.21a17.72,17.72,0,0,1,2.33-.6Zm1.64,2.79c.49,1.74.48,2.08.16,2.68-.61,1.14-1.4,2.46-1.62,2.81-.55.9-.7.71-1-1.46A7.31,7.31,0,0,1,54,148.7c.27-.67,1.08-2.24,1.54-3.15.66-2,1,1.49,1.17,1.66Zm8.63-1.52,2.46.81-1.93,2.33a5.4,5.4,0,0,1,.9-.11c1.94.13,1.62,2.05.12,3.21a26.83,26.83,0,0,1-3.68,2c-.33-1.72-1-2.82-.84-4.58.11-.95.2-1.81,1.36-1.84.61,0,.86.6,1.26,1.1Zm44.55,2.09a20.89,20.89,0,0,1,2.85,1.82c1.79,1.38,2.1,3,.31,3.62a3.37,3.37,0,0,1-.79,0A16.22,16.22,0,0,0,114,155.4a8.45,8.45,0,0,1-2.33,1s-.23-2.13-.45-3a1.83,1.83,0,0,1-.53.65c-1.72,1.08-3.07-.95-2.15-3.5a14.37,14.37,0,0,1,1.43-2.82Zm-19,.36c4.31-.11,1.78,6.94-.37,6.49,0-.07,1.78-4.18-.66-4.83-1.12-.3-.16-1.68,1-1.66Zm-7.06.49c1.34,0,2.31.94,1,1.53-2,.94-.82,3.17-.77,4.44,0,.78-1.79-.67-2.18-2.25-.5-2-.27-3.54,1.91-3.72Zm-31.83.75a1.28,1.28,0,0,1,.59.08c.13.33-.47,1.37-1.35,2.7-.47.71-.67.91-.95,1.07a5.74,5.74,0,0,1-2.43.34c-1.18,0-1,0,.34-2a8.68,8.68,0,0,1,1.3-1.9,16.18,16.18,0,0,1,2.5-.25Zm1.55,1.47c0,2.54.86,3.38.23,4.19a35.64,35.64,0,0,1-2.13,3.05c-.61.73-.55.59-.7-1.32A8.35,8.35,0,0,1,51,154c.52-1.25,1.13-1.85,1.78-3.18.5-1.07.88-.89.88,0Zm34,1.28a2.29,2.29,0,0,1,2,2.56l0,1.17c1.61-.62,3.62,0,3.7,1.57.16,2.68-1.82,2.37-3.5,2.26.17.06.42,2.42-.58,3.33-1.56,1.75-4.47,0-3.74-2.61a5.26,5.26,0,0,0,.18-.86,6.18,6.18,0,0,1-1.41.36c-3.17-.14-2.93-4.62.26-4.09a7.71,7.71,0,0,1,1.09.26s-.07-.28-.18-.68c-.46-1.72.51-3.3,2.26-3.27Zm63.41.79,1.71,1v1.9L150.29,154ZM48.58,154.2c.68,0,1.2.05,1.1.21a14.4,14.4,0,0,1-2.34,3.32c-.75.8-.85.68-2.67.6-.71,0-1.18,0-1.16-.23.84-1.1,2-2.51,2.79-3.69a12.11,12.11,0,0,1,2.28-.21Zm1.67.89c.12,0,.16.27.16.87,0,.45.06,1.83.12,2.43.12,1.09.12,1.09-.35,1.75s-1.15,1.51-1.88,2.21c-1.11,1.23-1,1.3-1-1.32,0-2.05-.14-2.05.27-2.53.23-.26.93-1.12,1.4-1.79.7-1,1.07-1.61,1.26-1.62Zm10.54.36,2.27,1.22L60.78,159a5.73,5.73,0,0,1,.76,0c1.46.28,1.35,1.83-.12,3a36.07,36.07,0,0,1-4,1.7,30.44,30.44,0,0,1-.33-3.9,2.8,2.8,0,0,1,.58-1.9,1.22,1.22,0,0,1,1.72-.08,3.1,3.1,0,0,1,.64.79Zm26.82.79a1.62,1.62,0,1,0,1.61,1.61,1.61,1.61,0,0,0-1.61-1.61Zm25.41.38a17.08,17.08,0,0,1,4.32,2.35c1.25,1,.66,2.76-.58,2.8-.09,0-.62-.08-.62-.08.42.64,1.83,2.21,1.83,2.21l-2.3.94s-.37-1.77-.65-2.77c-.8,1.85-2.78.65-2.91-.51-.32-1.69.4-3.34.91-4.94Zm-25.41.14a1.13,1.13,0,1,1-1.12,1.13,1.13,1.13,0,0,1,1.12-1.13Zm-43.92,2.3c.81,0,1.81,0,2.25.05.35.27-.37,1.08-1.75,2.53-1.1,1.16-1.26,1-2.6,1-2.25,0-2.31,0-1.27-1.13a12.28,12.28,0,0,1,2.31-2.38,5.18,5.18,0,0,1,1.06-.07Zm2.74,1.12c.24,0,.18.56.14,1.94l-.07,2.33-1.75,1.68c-2,1.8-1.77,1.92-1.76.23a7.54,7.54,0,0,1,.29-2.89c.88-1.07,1.8-2,2.81-3a.91.91,0,0,1,.34-.27Zm44.42.59c.49-.05,1.73,2.08,2,3.86.71,4.06,3.15,6,4.86,4.36.69-1,.77.08.74.58-.36,5.15-6.2,3-6.86-2.11-2,1.33-4-1.35-2.74-1.31,2.89-.92,2.1-3.56,2-5.38Zm-6.76,0c.29,1.79-2.92,4.83-4.73,2.7-.92-1.09-.08-3.34,1.09-2,1.29,1,2.54-.15,3.64-.74ZM40,163.25c.66,0,1.61.11,2,.05.59.06.17.35-1.11,1.5-1.1,1-1.41,1.45-1.53,1-.06-.68,0-1.49,0-2.44a1.09,1.09,0,0,1,.64-.13Zm15,1.18,2,1.42L55,167.65c1.74-.09,1.9,1.54,1.24,2.46-.43.63-2.08,1.3-3.74,1.57l-1.8.28s0-.76-.06-2c-.06-2.6.11-3.62,1.12-4.13a1.94,1.94,0,0,1,2.23.87,4.55,4.55,0,0,0,.35.6Zm-12.6.14h0c.11.15-.29,4.39-.29,4.39l-2.84-1.6s2.88-2.74,3.11-2.79Zm75.11.5c2,1,3.53.77,4.89,2a1.56,1.56,0,0,1,0,2.7,3.37,3.37,0,0,1-1,.06,14.42,14.42,0,0,0,2.28,2l-2.49,1a26.53,26.53,0,0,0-.66-2.6,1.79,1.79,0,0,1-2.86.69c-.62-.47-.88-2.06-.58-3.44.08-.36.48-2.4.48-2.4Zm9.09,13.81a20.86,20.86,0,0,1,4.4,11.18c.23,2.79.15,3.32-.51,3.32-.43,0-.61-.22-.61-.7.05-7.59-9.31-9.38-12.78-2.82-2,3.85-1,8.95,3.35,15.89,4,6.57,9.23,11.57,12.19,18.64,2.93-7,8.81-12.93,13-19.7,6.07-8.71,4-17.88-3.53-18.85-3.43-.44-7.2,3-7.64,6.57-.09.8-.27,1-.7,1-.59-.09-.37-1.66-.11-3.76a26.61,26.61,0,0,1,4.4-10.74Zm36.28,10a16,16,0,0,1,2.16,3.5,4.4,4.4,0,0,1,.25,1.93c-.17.41-.55.09-1-.54-1.31-1.74-3.88-1.18-4.93,1.08-.76,1.63-.34,3.73,1.07,6.12,1.68,3.1,5.79,8.7,5.92,9.21a78.26,78.26,0,0,1,4.84-8.34,11.41,11.41,0,0,0,2-6c-.26-3.13-4-4.41-5.67-2-.54.79-.86,1-1,.39a8.55,8.55,0,0,1,.45-2.37,11.82,11.82,0,0,1,1.83-3ZM104.16,204.5c-24.54,5.82-44.47,2.22-46.45,1.54l-1.56,2.33c-.19.39-.31,1.58-1.37,1.9l-1.59,2.37.31.33-1.41,1.23.34.41-1,1.49-.4,0-2.38,3.6.37.41-5.45,8.52,73.71,0c-4.28-8.08-8.87-16-13.1-24.12Zm-.45,1.05.44,1.22c-1.22-.15-2.64-.23-4.09-.29a36.6,36.6,0,0,0,3.65-.93Zm-4.28,1.06a12.58,12.58,0,0,0-4.83,3.73,12.82,12.82,0,0,0-5.08-2.24ZM58,207.2l1,.12s-.35.27-.6.22a1.35,1.35,0,0,1-.45-.34Zm47,.61.67,1.31c-1.6-.84-8.43-2.78-10.37,4-2-2.76-10.44-6.75-14.71,1.74-1.21-2.3-8.27-8.93-14.71-.48-2.54-5.25-4.66-5.69-9.32-5,3.32-3.18,8,.13,9.95,2.83,5.55-4.6,10.2-3.21,14.26.53,5.23-5.7,10.45-4.33,14.13-1.46,2.58-3.8,5.1-4.94,10.1-3.51Zm-42.89,0c3.31.45,6.6.65,9.91.81a15.68,15.68,0,0,0-5.43,2.72,12.73,12.73,0,0,0-4.48-3.53Zm23.82.53a24.76,24.76,0,0,0-5.3,3.46,16.64,16.64,0,0,0-5.29-3.14,72.89,72.89,0,0,0,10.59-.32Zm80.37,1.84s0,0,0,0v0Zm-59.24.86-.88.16a2.48,2.48,0,0,0,.72,4.88c.29,0,1-.11,1-.11-.06,2.79.79,3.46,3.63,3.3l4.81,8.61-71.23-.3,4.52-7.23c2.28.26,3.71-1,3.2-2.93a13.39,13.39,0,0,0,1.8.43c2.57,0,3.24-3.94.77-4.63-.28-.07-1-.15-1-.17,1.13-2.82,4.23-1.16,5.12,0a3.13,3.13,0,0,1,5.16,1.22s-.38-.21-.49-.29c-2.34-1.71-4.52,1.84-2.23,3.47a2.74,2.74,0,0,0,.7.3,2.63,2.63,0,0,0,2.51,4.47c1.78-.69,1.8-2,1.8-3.5,0,0,.62.05,1.17.06,2.12,0,2.74-2.71,1.43-4a3.33,3.33,0,0,0-2.08-.72c2.46-2.42,4.12-.75,5.86.36.26,0,3-3.3,6.28-.06a2.48,2.48,0,0,0-3.23,2.26c0,1.06.79,2,2.43,2.08a4.47,4.47,0,0,0-.3,1.45,2.55,2.55,0,1,0,5-.63,1.88,1.88,0,0,0-.55-.84,2.39,2.39,0,1,0,.79-4.69,2.49,2.49,0,0,0-2,.89c1.76-3.6,5-2.87,6.19-1.4,1.65-1.2,3.93-2.84,6.66.08a3.61,3.61,0,0,0-1.63,0,2.23,2.23,0,0,0-.46,4.15,3.47,3.47,0,0,0,1.71.35A2.59,2.59,0,0,0,98,221c1.29-.79,1.63-2.66.23-4.37,2.37-.1,2.6-3,1.23-4.09-1.07-.81-2.33-.42-3.25.65-.29-.85,2-3.79,5.35-1.67,1.75-1.47,3.49-1.92,5.47-.45Zm1,2.3.92,1.68a1.06,1.06,0,0,1-.92-1.68Zm-11.94,1.71a1,1,0,1,1-1.05,1,1,1,0,0,1,1.05-1Zm-43.24.06c.14.56.2,1.13-.82,1.23Zm104.72.49V218h1.92L165,230.46l-5.21,8.11H157.6v2.08h7.45v-2.08h-2.17l6.62-10.11v10.11h-1.91v2.08h6.74v-2.08h-2.46V218h2.46v-2.34h-6.74V218h1.91c0,2,.05,3.76,0,5.78-.95,1.27-1.93,2.81-3,4L162.34,218h2.71v-2.34Zm-92.68.52a1,1,0,1,1-1,1,1,1,0,0,1,1-1Zm16,.3a1,1,0,1,1-1,1,1,1,0,0,1,1-1Z"/></g></g></g></svg>