<svg xmlns="http://www.w3.org/2000/svg" viewBox="0 0 178.58 249.45"><defs><style>.cls-1{fill:#fff;}.cls-2{fill:#262e5e;}.cls-3{fill:#e1cf01;}.cls-4{fill:#d41216;}.cls-5{fill:#0f0f0c;}</style></defs><title>KD</title><g id="Слой_2" data-name="Слой 2"><g id="D"><g id="KD"><path class="cls-1" d="M8.5,0H170.08a8.48,8.48,0,0,1,8.5,8.5V241a8.48,8.48,0,0,1-8.5,8.5H8.5A8.48,8.48,0,0,1,0,241V8.5A8.48,8.48,0,0,1,8.5,0Z"/><path class="cls-2" d="M23.28,19.87c.07,63.3.74,141.1.79,210l131,0-.87-209.7ZM62,21.22c22.59.61,45.33-.06,68.09.12,0,0-8.27,14.41-10.77,18.94-.55,1-.61,1.7-.32,2.12a2.07,2.07,0,0,1-.09,2.35,1.16,1.16,0,0,0-.33.6c0,.16.12.33.24.62.41,1.38-.64,2.34-1.73,2.78a10.43,10.43,0,0,1-3.57.44C106,48.83,91.14,42.45,85,42c-4.24-1.18-9.71-.77-14.22-.51-.86.05-.7-1.94-.7-1.94-.71-6.56-5.36-12.27-8.12-18.28Zm69.32.59,21.35,0,.1,3.45-9,9.21c-.84.85-1.51,1.57-1.51,1.57l-.05,8.31c-6.13-3.29-7.35-7.22-8.47-11.55-10.24,7.55-10.71,24.08.46,32.6.09-3.7,2.91-11,7.9-11.5l.07,28.79-6.14-6-13.35.18c2.2-3.57,2.26-6.41.83-9.76-2.4-5.46-6.1-18-5.82-17.91a.62.62,0,0,1,.41-.33,2.05,2.05,0,0,0,1.5-2.6c-.07-.41-.06-.32.22-.85a4,4,0,0,0-.21-3.87ZM60.5,22l8,14.48a5.62,5.62,0,0,0-.06,1.06A3.69,3.69,0,0,0,69,39.11a3.25,3.25,0,0,1,.42,1.25c.07.72.07.72,1.13,1.67.22.2.26.33.18.53-.35.88-.15,2.68.54,4.83.87,2.71,1.1,2.68-.52,6.31-.34.75-.75,1.76-1.19,2.7-2,4.1-2.31,5.21,1.13,7.4a1.9,1.9,0,0,1,1,2.38c-.19,1-.23,1.59.24,2.13.3.35.57.41.5.68a4.85,4.85,0,0,0-.2,1.67c.2,1.82-1.9,4.5-3.82,5.44-.39.27-.5-.06-.71-.44-2-3.48-6.94-2.07-7.27,2.08-.08,1.1-.05,1.57-.33,1.81a4.26,4.26,0,0,1-.39.24s-7.4,4.82-12.11,7.29c-.31.16-.58.43-.8.47a.58.58,0,0,1-.59-.15c-1.74-3.31-.78-7.21-.63-8.6,0-.49-.46-.57-1.09-.58a3.67,3.67,0,0,0-2.94,2.08c-.29.86-.47,1.42-.73,1.42s-.38-.35-1-1.59A17.65,17.65,0,0,0,37,75.72c-1-1.2-1.86-1.35-2.84-.46-.68.62-.65.08-1.24-.24-1-.68-2.51-.07-2.54.89s0,1.41-.85,1.47-1.31,1.23-1.05,2.9c.14.88.16,1-.11,1.35a2.81,2.81,0,0,0-.51,3.24c1.38,4.19,3.37,7,5.25,10.81,0,0-4.77,2.71-7.59,4.28l-.08-77.9Zm92.57,4.14.12,67.66L143,83.74s-.2-13-.19-18.26.09-10.61.07-11.59,0-5.18.08-9.49c.07-9-.76-7.91.92-9.64Zm-20,8.11.57,1.63c-4.29,2.46-9.53,16.14.09,26.19l-.19,2.07c-10.09-9.16-8.22-22.28-.47-29.89Zm.73,1.93c1.48,3,3.15,5.72,5.43,7.37a11.85,11.85,0,0,0,.32,10.53c-1.45.8-3.48,2.93-5.58,7.28-7.6-7.67-5.9-18.8-.17-25.18ZM77.33,41.91A44.68,44.68,0,0,1,90,43.81c2.54,12.84,7,21.47,7,26.5a3.22,3.22,0,0,1-1.1-.6,4,4,0,0,0-5.53,1.1c-1.22,1.6,0,3.82-.62,4.76-1.19,1.73-4.24,5-4.75,4.84s-.31-.24,1-2.25,2.4-4,2-4.45c-.19-.19-.29.22-1.3,2-2.39,4.14-4.49,6.71-5.32,6.37-.39-.15-.19-.5,1.58-2.83,2-2.64,2.55-4.29,2.35-5s-.46.34-1.29,2a53.37,53.37,0,0,1-3.77,5.46A3.33,3.33,0,0,1,78.54,83a4.38,4.38,0,0,1-1.76.51c-.24,0-.07-.17.25-.49a30.07,30.07,0,0,0,6-8.35c.19-.37-.09-.89-.4-.5-1.9,3.35-4.56,7.53-7.43,9.38a4.2,4.2,0,0,1-2.39.66c-1.42,0-.92-.36.37-1.19,2.77-1.77,6.64-6.88,7.27-8.68.15-.43,0-.67-.29-.64-2.27,3.63-5.28,7.64-8.77,9.31-1.88.9-4.25,1.08-5.42.51-.86-.42-.64-.56.87-.66,3.66-.36,7.93-3.79,10.06-7.42,1.23-2,.36-1.54-1,.4-2.42,3.3-7.22,6.47-10.2,6.22s-4.74-2.51-4.35-4.51a3.45,3.45,0,0,1,2.77-2.8c2.89-.6,4.77,4,2.13,4.83-.89.29-1.23.07-.91-.29a1.8,1.8,0,0,0-.56-3.45A2,2,0,0,0,62.41,78c0,1.2,1,2.37,3,2.4,2.35,0,6-1.66,8.14-4.77,1.56-2.38.13-1.58-1,0A13.82,13.82,0,0,1,68,78.93l.11-1.62c0,.28,5.08-3.16,4.79-5.72-.19-1.86.08-2.43,2-2.41,1.44,0,3.28.53,3.82,1.19s1.17.86.89-.24c-.44-1.8.09-2.09-1-1.75-.72.23-1.36-.35-2.08-.86a4.76,4.76,0,0,0-3-.76c-.89,0-1.3,0-1.15-.87a2.93,2.93,0,0,0,0-1.52c-.28-.63-1.4-1.29-2.66-2.22-1.5-1.1-1.22-1.17,2-8.5,1.34-3.08,1.34-3.71.54-6-1.27-3.59-1.47-5,.91-5.53a35,35,0,0,1,4.13-.22ZM90.8,44l1.24.36s3.84,13.13,6,19.54A27.69,27.69,0,0,1,99.39,71c-.07,3.42-2,5.87-4.34,6.14a4.19,4.19,0,0,1-4.29-2.52A3.32,3.32,0,0,1,92.6,70c3.47-1.24,6,3.19,2.61,4.56-1.76.7-3.44-.57-2.64-2a1.38,1.38,0,0,1,2.49.15c.3,1.14.8.6.58-.17a2.06,2.06,0,0,0-4.06.38c0,2.82,3.08,3.48,4.91,1.9,1.42-1.26,1.58-3.54,1.22-5.52-.49-4.11-2.82-9.44-4.46-15.52A82.26,82.26,0,0,1,90.8,44Zm49,.15,2.31.92-.06,7.62-2,.68c-2.56-3.92-.43-9.21-.29-9.22Zm-46.89.5,1.7.65c.93,5.38,5.3,15.67,6.85,23.34.43,4.61.5,6-2.63,8.43v0H97.16s0-.1.73-.65c4.1-3.06,1.66-9.81.11-15-2.7-8.28-5.1-16.75-5.07-16.74Zm-15.84.53-.65,0c-2.56.13-3,.3-3,.85,0,1.05.42,1.52,2.79,1.26a15.91,15.91,0,0,1,7.1,1c2.34,1,2.9,1.25,3.74,1.68,2.11,1.09,1.74,0-.17-1.25-3.9-2.57-6.6-3.58-9.82-3.55Zm18.44.38,1.6.6s.42,1.24.57,2C99.25,55,103.46,62.68,104,70.72c.11,2.63-.34,5.08-2.27,6.27h-1.46c1.56-1.55,2.6-2,2.16-7.37-.69-6.91-5.24-15.55-6.85-24.08Zm2.83,1.11,1.46.54c1.7,9.27,10.07,23.13,4.74,29.82h-1.33a8.8,8.8,0,0,0,1.5-6c-.52-8.43-4.82-16.61-6.37-24.37Zm2.46.85,1.58.48c2.14,9.4,10.38,24.81,4.51,29.06l-1.16,0c4.43-8.27-2.29-16.83-4.93-29.51Zm2.75.88a8.33,8.33,0,0,0,1.71.55C106.94,56,110,63,111.36,69.64c.46,3.63-.33,6.34-2.61,7.37h-.48c2-3.08,1.65-7,.57-11.18-1.47-5.65-4.32-11.87-5.27-17.45Zm-24.88.12a7.57,7.57,0,0,0-2.32.37c-.83.31-.73,1,0,.83l1-.18c1.89-.33,4.23.35,7.06,2.07.68.41,1.42.81,1.61.95.52.38,1.07.38.88-.11a8.31,8.31,0,0,0-2.13-1.59c-2.06-1.24-4-2.32-6.18-2.34Zm27.56.62,1.6.24c3,13.76,9.56,22.3,3.94,27.41h-1.41a7.79,7.79,0,0,0,1.73-6.94c-.52-3-2.06-7.67-3.33-11.81-1.48-4.8-2.66-8.86-2.53-8.9Zm2.29.39,1.35.25c1.57,5.59,4.25,12.52,5.87,18.29,1,3.55.59,7.92-1.62,8.73l-1.14,0c1.88-2.51,2.14-5.13,1.28-8.52-1.76-6.94-4.42-13-5.74-18.77Zm8.32,0a164.86,164.86,0,0,0,5.8,17.68c1.56,3.12,1.09,7.74-1.26,9.57l-1.11,0a6.64,6.64,0,0,0,1.59-5.57c-.6-6.19-5-14.79-6.58-21.39Zm-5.92.27,1.39.13c1.4,6.06,4.1,11.95,5.86,18a14.77,14.77,0,0,1,.5,4.28c-.24,2.58-1.31,4.61-2.25,4.61h-1c2-2.33,1.86-5.51,1-8.93-1.38-5.64-4.73-12.44-5.57-18.1Zm-36.19,0c-.58,0-.59.53.34,1.34.56.5.52.34.48.65-.13,1.34.08,2.57.63,1.19.15-.37.37-.79.58-.73.41.12.2.87.4,1.25.33.67,0,.83-.83.63-.58-.15-.62.16-1,.57-.63.69-.53,1.12.45.9a.78.78,0,0,1,.41,0,3.8,3.8,0,0,1,1.31.81,9.49,9.49,0,0,0,3.1,1.8c1.37.23,1.06-.43,0-.86S78.43,56,78.44,55.74s.3-.08,2-.56a18.79,18.79,0,0,0,2.25-.87,2.9,2.9,0,0,1,1.92-.3c2,.06,2.26,0,.89-1-2.78-2.06-6.48-3.4-8.44-2.55-.6.27-.59.1-1-.14a2.86,2.86,0,0,0-1.32-.47Zm39.72.18c1.92,7.41,5.64,14,6.55,21.08a6.61,6.61,0,0,1-1.81,5.67l-1.12,0c-.17,0,1.57-2.68,1.42-5a12.88,12.88,0,0,0-.44-3.85c-2.18-6.25-4.34-11.91-6-17.87ZM79.73,52.44h0c.52.08.54.29.39.56s-.63,1.18-.63,1.18-.53.11-.64,0,.51-1.67.84-1.71Zm1.34.24a.93.93,0,0,1,.24.07c.5.2,1.38.61,1,.93a3.55,3.55,0,0,1-2.1.38L80.79,53c.12-.23.18-.31.28-.31Zm-5.31,6.47-.12,0c-.1.07.13.47.47.92,1.53,2.07-.6,2.69-2.1,1.58s-3.63-1-3.31.16c.11.41,0,.61.8.62A2.08,2.08,0,0,1,73,63c2.44,1.66,5.59-.57,4-3a2.08,2.08,0,0,0-1.32-.83Zm6,3.24c-.89,0-1.44.66-.33.86,4,.71,1.3,4.82-1.5,2.7-2.52-2.27-5.89-2.26-5.93-.65,0,.41,0,.43.61.54a21,21,0,0,1,4.31,1.31,10.26,10.26,0,0,0,1.1.49c1.68.61,3.84-.18,4.26-1.6s.08-3.65-2.52-3.65ZM32,75.61a2.05,2.05,0,0,1,1.5,1.16c.93,1.57,2.06,4.21,2.78,5.66a1.66,1.66,0,0,1,.18.87c.06.86.34,1.18.85.79s1.19-1,.38-1.11c-.82-.61-1.27-1.51-.77-2.06s.23-.67-.07-.69c-1.14,0-2.84-3.41-2-4.14,1.08-1,2.28.23,4.83,5.29,1.12,2.23,1.18,4.68.21,3.47-.32-.31-.26-.15-.64.81a5.27,5.27,0,0,1-1.63,2.13,10.52,10.52,0,0,0-2.18,2.53c-.06.42.72,0,1.29-.72C38,88.36,38.05,88,38,89.68c0,1.48-.08,1.76.18,1.75.42,0,.65-1.2.84-2.62a3.73,3.73,0,0,1,2-2.64c.31-.2.31-.33.25-.9-.2-1.81.82-5.18,1.29-4.35.07.19.27.63.38.93.09.48.39,1,.85,1.06.57.42.57.65.76,2.21a8.75,8.75,0,0,0,.45,1.68c.29.76.56,1.2.4,1.43l-.33.32-9.28,5.5s-.73.4-1,.51a1.08,1.08,0,0,1-1.54-.46,62.52,62.52,0,0,1-4.7-9.26c-.83-1.8,0-3,1.06-1.54.41.57.2.93,0,2,0,.2.15.12.49.18.54-.06.81.42.78,1.24-.34,1.18.14.55.36.49.43,0,.52.26.77.75.14.69.45.49.89,0s.37-.37-.37-1.25a18.65,18.65,0,0,1-3.5-6.4,2.12,2.12,0,0,1,0-1.22c.57-1.29,1.37-1.3,2.25.51A10.66,10.66,0,0,0,32,80.77a2.55,2.55,0,0,1,.53,1.67c-.26.65-.3.66-.08.75A3,3,0,0,1,34,85.31c0,.91.2,1.39.91.85s.47-.86-.34-1.65c-.84-1-.89-1.88-.39-2.6.08-.24,0-.31-.26-.28a1.38,1.38,0,0,1-1.25-2.09c.31-.56.28-.7-.17-.71a2.32,2.32,0,0,1-.8-.07,5.16,5.16,0,0,1-.89-1.92c.29-.88.73-1.23,1.2-1.23Zm58.18,0a18.91,18.91,0,0,0,5,2.49A27.7,27.7,0,0,1,78.66,91.32a3.35,3.35,0,0,0,1.26,2.52,11.13,11.13,0,0,1-.35-2.21c7.77-2,14.61-9.6,16.36-13.53l34.14-.37c-25.31,24.29-26.32,58.46-5.67,87.1L122,166.22c-15.91-23.84-15.75-46.81-11-62.18a61.67,61.67,0,0,1,14.07-24s-18.51-.25-27.72.09A40.92,40.92,0,0,1,93,85.78s4.67-4.52,4.55-5.31c8.54,0,17.35-.49,25.88.1-10,11.94-14.9,24.27-15.75,35.87,0,1.51-.13.66-.63,1.22l-1.57,2.44-1.27-2.54c-.85-.27-2.54.17-3.26-.09-3.51,15.67,0,34.57,4.66,46.91a5.1,5.1,0,0,1-2.59.53c-1.56-.34-1.94.09-3.29.36-1.56.3-2.11.3-2.45.69a3.77,3.77,0,0,1-.93.74c-3.79,1.38-8.24,6.54-8.24,6.47L84,171.29c3.84-7.55,8.36-10.27,16.29-13.62l-.74-3.37c-8.45,3.15-13.83,6.92-18.07,14.24-5.15-.07-26-.22-26-.16,8.5-9.66,15.2-24.25,15.94-35.62.18-2.22-.13-1.16.84-1.82l1.55-1.83,1.2,1.81s.88,1.11,1.43.19c1.56-15.86-.09-34-7.73-46.55a6.56,6.56,0,0,1,4,.64,80.27,80.27,0,0,1,5.51,21.4A102.7,102.7,0,0,1,78,131.08l.51.07a102.41,102.41,0,0,0-.38-29.56,76.16,76.16,0,0,0-4.52-15.74c-.43-.95-.76-1.2-.35-1.34,9.31-.78,13.59-3.89,16.93-8.85Zm-25.81.84a1.29,1.29,0,1,1-1.3,1.29,1.29,1.29,0,0,1,1.3-1.29Zm70,.65a77.19,77.19,0,0,0-7.22,7.75c6.81,9.37,14.38,19.52,20.74,27.63a16.77,16.77,0,0,0,2.19-1.47c0-.09-.17-.52-.21-.42a11.22,11.22,0,0,1-1.78,1.17L128,85.38l1.43-1.72c1.56-.51,5.92-5.91,6.13-5.79,3.41,2.61,13.7,13.69,17.66,17.08l.05,30.75c-.41,1.23-11.38,6-19.12,23.66-3.9,2.18-8.22,3.36-12.23,5.26a15.08,15.08,0,0,0,1.52,2c-.61-1.32-.72-1.57.67-2.14l29-11.82-.06,2.39-.47,4.12c-7.89,4.86-14.54,6.9-25.4,14.24-.78.18-1.4.93-2.22,1-27.74-40.85-10-71.63,6.16-87.09ZM44.07,79.24c.75,0,.56,1.77.28,2.38-.56.43-1.12,0-1.1-.78,0-.27,0-.52-.12-.56-.42-.27.28-1,.94-1ZM61,80.34a3.49,3.49,0,0,1,1.1,1.77C61.25,82,59,81.32,60,80.8Zm-4.19,2.28c20,30.26,19.11,62.39-3.22,86.74l28.25,0c3.59-7.09,9.58-11.42,17.25-14.08l.67,2.23C91,160.29,86.5,165,83,171.48H49.27c12.94-13.93,18.87-25.69,19.8-41.61.89-15.15-3-29-14.68-45.65Zm5.63.35,4.72,2.22L66.47,90l-4.94-2.28ZM54,84.33c25.22,38.16,14.4,65-5.74,87.35l-3.71.06-8.65-8L36,212.54s-8.43,8.26-9.4,9.25-1.68-.5-1.68-.5l0-64.73.37-2.53.11-13.95,5.38-2.84L51,163.66a7.15,7.15,0,0,1-1.19,1.41c-.24.14-.06.37.14.35.57-.08,2.18-1.88,1.84-2.17-7.31-9.06-20.9-26.8-20.9-26.8l-5.66,3s.16-11.58.06-16c.21-1,1-.77,1.53-1.24a42.13,42.13,0,0,0,14-14.26c.21-.37,1.46-2.59,1.59-2.8.44-.72,1.54-3,2.17-4.41a15.12,15.12,0,0,1,.88-1.9c3.93-1.27,8-3.09,12-4.72L51.7,85.54Zm-15.46.48a3,3,0,0,0-1.49.91C35.65,87,33.87,89,33.86,89.35c.36.13.68-.08,1-.37,1.13-1.68,2.88-2.33,3.91-3.79.16-.27,0-.38-.25-.38Zm12.7,1.78s3.92,5.7,4.92,7.21c-10.31,4.09-21.11,9.48-30.67,13v-2.29l1.51-4.1Zm15.35,3.76,3.86,2L69.31,96.7l-3.89-2.18Zm3.18,7.24,3.17,2.31-1.45,3.69-3.19-2.19ZM43.86,100.3a18.7,18.7,0,0,1-1.32,3.25c-3.92,6.81-7.76,12.87-15.69,18.13a14.22,14.22,0,0,1-1.16-1.78l-.08-2c4.2-3.38,7.83-5.86,13.4-15.77l1.62-.66,1.37.6.93-1.66Zm16.5,0c-3.66,7.75-7.26,15.75-13.08,21.79l15.93,22.24c5.25-15.7,3.3-30.42-2.85-44ZM40.3,102l-.76,1.32,1.32.77.77-1.33Zm-2.16.14a33.38,33.38,0,0,1-12.91,15L25,107.67Zm1,1.93-.77,1.32,1.32.77.77-1.33Zm32.57.27,2.87,2.73-1.71,3-3-2.44Zm44,1.35h0c-5,15.7-3.53,30.69,3.39,43.73A91.16,91.16,0,0,1,132,126.31c-4.09-5.35-15.8-20.78-16.21-20.61ZM38,106l-.81,1.3,1.3.8.81-1.3Zm22,1.83A42.77,42.77,0,0,1,61.78,137L50.42,122.61a104,104,0,0,0,9.63-14.83Zm-23.2,0L36,109.08l1.26.86.87-1.26Zm-1.27,1.8-.94,1.21,1.2.94.95-1.2ZM73,110.91l2.58,2.44L74,116.52l-2.61-2.39Zm-38.93.59-1,1.16,1.16,1,1-1.16Zm83,.35,11.47,14.79a77.87,77.87,0,0,0-9.87,15.75c-3.2-10-4.64-19.85-1.6-30.54Zm-84.65,1.49-1.06,1.11,1.11,1.06,1.06-1.11Zm26.8,1.48L54,122.41l6,7.68a37.24,37.24,0,0,0-.77-15.27Zm-28.51.25-1.12,1,1,1.12,1.13-1Zm-1.65,1.48-1.19,1,1,1.18,1.19-1Zm44.82.79,2.15,2.51-2.18,2.59-2-2.3Zm27.39.45,1.47,0c-2.41,23.68,2.31,35.65,6.49,46.07,0,0,0,.42-.15.54A3.17,3.17,0,0,1,106,164c-5.62-14.43-6.84-32.21-4.65-46.18Zm-74.14.3L26,119l.9,1.24,1.24-.9Zm91.73.84c-.38,0-.7,9.74.71,14.5l5.27-7.15Zm-13.65,1.61,1.77,2.37-1.88,2.55-1.91-2.41Zm-79.51.64c.09,0,.23.24.52.43s.22.26-.07.49c-.46.37-.6.31-.59-.26s.07-.65.14-.66ZM74,123,76,125.76l-2.15,2.77L72,125.61Zm31.08,3.53,2,2.5-1.76,2.75-2.25-2.62Zm47.56.53.18,2.88-.71-1-1.3,1,.91,1.21,1.14-.89.07,1.16c-7.24,5.23-10.36,11.24-13.29,15.74l-1.31.56-1.49-.48-.72,1.29-1.27.3a60.38,60.38,0,0,1,7-11.14A78.38,78.38,0,0,1,152.68,127Zm.84,4.51.06,10.26-13,5c3.36-5.72,7.33-11,12.89-15.26Zm-3.22-1.24-1.18,1,1,1.17,1.18-1Zm-1.82,1.54-1.14,1,1.07,1.14,1.14-1Zm-43.23.57,2.44,2.6-1.79,3.07-2.54-2.44Zm41.39,1.09-1.06,1.09,1.17,1.13,1.07-1.09ZM145,135.23l-1,1.13,1.25,1.08,1-1.14Zm-1.69,1.93-1,1.2,1.29,1,1-1.2ZM106.09,139l3,2-1.5,3.63-3-2.32Zm35.71,0-.9,1.24,1.38.94.91-1.28Zm-1.38,2-.83,1.29,1.39.89.83-1.33Zm-1.23,1.94-.77,1.33,1.44.82.77-1.34Zm-1.12,2-.76,1.32,1.6.7.63-1.27Zm-30.33.82,3.12,2.11-1.38,3.81-3.3-2.33Zm45.3,3.74.15,78.26-34.39.12s-1.61-2.83-5-9.37c-1.42-2.76-2.63-3.94-2.75-6.13a3.52,3.52,0,0,0-1.52-3.34c-.35-.19-1,0-.75-.51s-.45-1.54-.63-1.73c-.21-.36-.08-.44-.1-1.75a9.15,9.15,0,0,0-.36-2.74c-.69-2.4-.84-3.61-.45-4.85a69.71,69.71,0,0,1,3.45-8.55c.79-1.73.67-2.4-1.77-3.66-1.83-.94-2.07-.93-1.84-2.3a2.85,2.85,0,0,0,.07-1.36,2.3,2.3,0,0,0-.57-.6c-.23-.21-.16-.63.08-.94s.24-.75,0-1.48c-.5-1.54.63-3.58,2.77-5,.94-.63.92-.5,1.9.53,2.88,3,7.16,1.13,7.17-3.13,0-1.33-.45-1.26.8-1.88,4.26-2.71,13-7.64,13-7.51a18.81,18.81,0,0,1,1.12,3.4c.31,1.07.27,1.16.15,3.24-.1,1.89-.16,2.33.29,2.45,2.52.28,3.1-.62,3.58-2.24.21-.72.61-.58.86-.27,1,1.74,2.18,3.56,3,4.8,1,1.59,2.68,2.38,3.56,1.63.19-.62.34-.64,1.45-.38a1.68,1.68,0,0,0,2.25-1.45c.06-.4-.23-.38.49-.77,1.8-1.33,1.11-3.14.84-4.24a1.6,1.6,0,0,0,.79-1.47c.08-5.31-4.52-13-4.42-12.76Zm-43.43,3.06,3.65,1.76-.86,4.37L108.65,157Zm35.55,1.62c2.1,2.44,3.62,6.51,4.41,9.15.38,1.33.43,2.83.08,3s-.5,0-.43-.81.07-1.16-.21-1.15c-.82.21-.85-1-.76-1.32a2.33,2.33,0,0,1,.2-.44c.2-.48-.33-.41-.87-.42s-.61-.28-.59-.74-.68-.4-1.07,0-.27.77.2,1.06c.68.41,1.33,1.43,2.9,5,.92,2,.65,3.49-.44,3.47-.76,0-1.65-2.1-2.36-3.63-.19-.39.28-.83.44-1,.42-.55.35-.72-.27-.73s-.82,0-1.18-.68a1.78,1.78,0,0,1-.18-.94c.3-.79-.32-1-.91-.68-.76.32-.75,1,.4,2.09.74,1.21.55,1.13-.16,1.95-.14.29-.06.47.25.47.89-.27,1.86,1.33,1.6,1.88-.27.24-1,1.09-.3.93a1.56,1.56,0,0,1,1.5,2.47c-1.29.65-1.6.45-3.58-3.51-.62-1.23-1.36-2.56-1.45-2.69a1.88,1.88,0,0,1-.13-.79c.09-.72-.21-.88-.84-.6-.46.11-.89.5-.29.86.69,1.2.93,1.39.55,1.69-.86.69-.49.66.48.85a1.22,1.22,0,0,1,.85.68c.5,1.13,1.38,2.71,1.47,3,.29.82-.24,1.19-1,1.15s-1.11-.58-1.47-1.09c-1.38-1.92-2.38-3.81-3.79-6l.2-2a1.1,1.1,0,0,0,.57,0c.41-.19.64-.83.87-1.67.38-.74,2.56-2.41,3.4-3.31a.61.61,0,0,0,.28-.37c0-.33-.94-.11-1.57.6-.91.81-1.3.53-1.27-.5-.09-1.28-.86-.64-.9.61a2.87,2.87,0,0,1-1.13,2.14c-1.31,1-1.09.77-1,2.22.11,2.51-.87,4.59-1.5,3.21-.23-.48-.49-1-1.06-1.06-.4,0-.6-.42-.82-1.39-.33-1.58-.79-2.59-1.21-4Zm-32.38,5.42,4.2,1.68-.78,4.4L112,164.08Zm32.09.41-.1,0a39.1,39.1,0,0,1-3.57,2.68,2.68,2.68,0,0,0-1,1.22c0,.19.57.19,1.14-.06a21,21,0,0,0,3.59-3.36c.21-.23.19-.51,0-.5Zm-38.65,5.34c1,0,.42.3-1.76,1.8s-5.61,6.13-6,7.85c-.18.78.32.85.88-.23,2.57-4.95,7.44-9.47,11.9-9.27,2.18.1,3.36.69,1.55.95-5,.6-8.66,3.43-11.9,9.06,0,.13.3.13.63-.09,3-3.63,6.32-8.44,12.19-8,4.24.26,5.44,5.3,1.92,7-3.06,1.5-5.89-2.16-3.35-4.32.83-.7,1.34-.4.55.32-1.7,1.55.38,4.29,2.45,3.25a2.35,2.35,0,0,0,.66-3.7c-2.47-3-7.79-.72-11.5,4.17-.39.52-.73,1.64-.4,1.52a2.92,2.92,0,0,0,1.26-1.2,11.14,11.14,0,0,1,4.14-3.74c1.38-.77,1.47-.62,1,.7a1.87,1.87,0,0,1-.93,1.09c-2.26,1.54-3.66,3.61-3.72,4.93,0,1,.67,2.21-.1,2.47-1.29.61-4.82.11-5.78-1.1-.68-.88-1-.37-.43,1,.34.94.32,1.47.84,1.37.64-.34,1.09-.26,2.35.43a10.85,10.85,0,0,0,2.33.79c1.2.28,1.45.16,1.42.68a8.15,8.15,0,0,1,0,.88c-.19,1.56,1.11,2.09,2.88,3.11,1,.6.63,1.21-.57,4.17-.62,1.34-1.15,3.15-1.92,4.51a7.43,7.43,0,0,0-.32,5.11c.86,3.54,1.48,5.33-.06,5.65-3.94.6-12.64.57-17.39-1.25-1.22-9.12-7.66-22.66-6.84-26.16,1.65,2.48,8.57,1.83,6.49-5.12a14.56,14.56,0,0,1,1.69-2c2.89-2.94,3.61-3.43,2.23-.84a36.91,36.91,0,0,0-2.44,5.1c0,.4.29.49.54.17a7.91,7.91,0,0,0,.58-1.25c1.73-4.05,4.68-7.7,6.72-8.58.53-.22.5,0,.14.46a31.35,31.35,0,0,0-5.53,9.34.33.33,0,0,0,.63.18,32.77,32.77,0,0,1,5.69-9.1c1.08-1.31,2.1-2,2.91-1.9s.48.18-.16.87c-.49.52-1.22,1.26-2.4,2.74-2.08,2.62-4.18,6.88-3.41,6.65.14.36.79-.77,1.35-1.86,1.52-2.55,3.13-5.92,6.74-8.14a6.54,6.54,0,0,1,2.31-.5Zm-69.82.83,6.43,6.42,12.93-.16c-2.14,3.31-1,8.45.18,11.45,2.31,5.89,5.68,15.6,5.43,15.74,0,0-1.88.49-2,1.68-.25,1.77.52,1.63-.59,3.23a1.77,1.77,0,0,0,.18,1.58,1.47,1.47,0,0,1,0,1.45l-11.4,20.35-21.65.1v-4.07l10.84-11-.13-8.07c5.91,1.75,7.94,7.85,8.45,12.37,10.68-9.75,10.41-24.42.32-33.62-2,9.73-9,11.75-8.86,11.55Zm80.42,1.15a6.09,6.09,0,0,1,2.26.5,4.47,4.47,0,0,0-1,.88,6.41,6.41,0,0,0-1.24-1.38Zm17.93.07c.57,0,1.28,1.68.87,2.08a1.38,1.38,0,0,1-1.23.13c-.34-.24-.17-2.21.36-2.21Zm-20.4,2.92a1.35,1.35,0,1,1-1.35,1.35,1.34,1.34,0,0,1,1.35-1.35Zm-56.88,1.92,1,0c-1.76,2.36-2,4.39-1.37,7.32.7,3.31,6.06,15.74,6.4,19.16,0,.15,0,.59,0,.59l-1.31.09-.14-.49c-1.84-6.2-3.68-10.92-5-14.54-1.28-3.89-3.23-9.66.38-12.15Zm7.08,0h1A16.61,16.61,0,0,0,64,177a18.43,18.43,0,0,0,1,6.32c1.56,4.65,3.85,9.82,5.12,15.69l.16.63L69,199.41l-.16-.68c-.94-5.16-3.6-10.52-5.18-15.6a17.09,17.09,0,0,1-1.09-7.31,6.8,6.8,0,0,1,2-3.57Zm11.26,0a11.26,11.26,0,0,0-2,4.94,22.31,22.31,0,0,0,1.57,7.61,140.29,140.29,0,0,1,5,17.69l-1.32-.57a3.4,3.4,0,0,0-.09-.44c-.7-3.81-.75-3.48-4.92-16.3-1-3.08-1.91-5.78-1.72-8.34,0-1.46,1.31-4.35,2.65-4.58Zm1.6,0h1.23s-.68.72-.88,1c-2.16,3-1.53,6.22-.46,10.06,1.48,5.29,4.21,11.2,5.65,19.25,0,.16,0,.93,0,.93l-1.48-.59c-1.34-7.39-4.65-15-6.24-21.69-.93-3.9-.67-6.37,1.5-8.49a3.66,3.66,0,0,1,.68-.47Zm-15.13,0h.93s-1.55,2.55-1.55,4c-.26,2.68.71,5.64,1.82,8.75,1.72,4.77,4,10.54,4.68,13.58l.12.66-1.62-.08s-.09-.74-.18-1.08c-1.87-6.53-3.69-10.75-5.83-16.71a15.4,15.4,0,0,1-.24-6.79,3.54,3.54,0,0,1,1.87-2.38Zm-2.48,0,1,0-.53.92c-1.83,3.31-1,6.32.12,9.69,1.51,4.48,3.87,10,5.36,15.14.08.29.19,1.17.19,1.17l-1.44,0s-.3-1.06-.32-1.17c-.81-4.8-5.2-12.81-6.34-18.9-.63-3.27-.09-5.29,2-6.86Zm13.39,0a15.2,15.2,0,0,0-1.72,4.26c-.28,3,.67,5.46,1.75,8.83,1.87,5.82,4.51,12.64,4.74,15.76l.05.48-1.62-.58s-.08-.33-.11-.44c-1.41-5.64-3.09-11.27-5.34-17.6-.56-2.14-1.29-4.29-1.22-6.12a6.11,6.11,0,0,1,2.21-4.57Zm7.15,0,1.31,0a6.67,6.67,0,0,0-1.32,1.21c-5.17,4.72,3.21,18,5.15,30.17,0,.13.08.58.08.58l-1.44-.51c-.14-.61-.24-1.34-.41-2-1.57-6.2-3.65-12.58-5.57-18.36-1.08-4.22-1.47-7.93.46-10a4.69,4.69,0,0,1,1.74-1.12Zm-13.46,0,1.39,0a8.88,8.88,0,0,0-1.65,5,18.94,18.94,0,0,0,1.18,6.21c1.4,4.37,3.4,9.12,4.77,15,.07.39.14.64.18.82a5.19,5.19,0,0,0,.21.69l-1.47-.29s-.15-.38-.26-.59a6.43,6.43,0,0,1-.4-1.14c-.71-3.07-3.33-10.05-4.93-15-1.27-3.08-1.61-8.47,1-10.78Zm17.4.06a4,4,0,0,1,3.78,2.87,3.45,3.45,0,0,1-1.76,4.05c-2.7,1.36-5.6-2.26-3.47-4.26,1.61-1.52,4-.4,3.47,1.54a1.34,1.34,0,0,1-2.56.07c-.09-.42-.3-.85-.45-.61-1,2.32,2.34,3.41,3.72,1.25a2.63,2.63,0,0,0-3-3.55c-3.15.58-3.51,4.58-2.2,9.25,1.82,7.37,6.17,17.28,6.17,21.83,0,.06,0,.25,0,.25l-1.38-.41s0-.08,0-.14c-.83-6.36-5.55-16.88-6.91-25-.58-3.69.86-6.37,4.09-7.1a2.59,2.59,0,0,1,.55-.07Zm-13.67.05A9,9,0,0,0,69,177.07a21.74,21.74,0,0,0,1.31,6.14c1.52,5.23,5.09,14.9,5,16.71,0,.2.14.8.14.8L74,200.31a2.1,2.1,0,0,1-.16-.34c-.46-1.79-2.65-9.49-5.09-16.15a18.29,18.29,0,0,1-1.34-6.54,7.61,7.61,0,0,1,2-4.83Zm26.25,8.68c-3.57.21-3.23,4.56-1,5.3.79.22,1.26,0,1.38-.14s0-.5-.53-.57c-1.51-.5-2-2.26-.69-3,.74-.38,1.92-.14,3.35.92,2.55,1.89,5.68,2,5.27.1-.1-.46-.3-.53-2.17-.78a7.15,7.15,0,0,1-2.86-1,5.48,5.48,0,0,0-2.74-.78Zm-51.15,4c9.23,9,7.86,23.15,0,30.22-.16-.57-.5-2-.54-1.93,5.93-6.17,8.72-16.28.14-26.65,0,0,.19-.75.43-1.64Zm57.85.24a.85.85,0,0,0-.23,0c-2.39.65-2.88,3-1.33,4,.94.59,1.68.23.49-.49a1.22,1.22,0,0,1,.72-2.22c.54,0,.9.23,2.27,1.24,1.12.83,2.18.9,2.41-.23.15-.67-.07-1-.79-.79-.32.08-.5-.11-.93-.4a5.52,5.52,0,0,0-2.61-1.14Zm-58.81,1.77c8.32,9.66,5.65,19.73,0,25.63a17.2,17.2,0,0,0-5.31-7.38c1.42-3.15,2.27-6.45-.39-10.62a20.53,20.53,0,0,0,5.66-7.63Zm54.07,3.53c-.39,0-.27.37.65,1,2.2,1.49,2.39,1.76.26,1.73a6.25,6.25,0,0,0-1.86.5c-2.78.93-2.91.86-4.24.54-.44-.1-.89-.28-1.08-.1s-.64.45-.26.85a6.43,6.43,0,0,0,1.41.89c3.22,1.84,3.51,2.28,7.3,2.38.43,0,.66-.21.91-.21a2,2,0,0,1,1.57.71c1.15,1,1.19.29.52-1.09-.36-.71-.67-.89-.5-1.43.4-1.25-.17-1.5-.91-.39-.56.86-.63.84-1.15-.27-.71-1.39-.38-2,.69-1.12.8.68,1,.18,1.32-.37.41-.71.35-1.35-.38-1.29a1.45,1.45,0,0,1-1.16-.53,6.15,6.15,0,0,0-3.09-1.81Zm.91,3.75a.18.18,0,0,1,.18.13,5.51,5.51,0,0,1-.57,1.89c-.08.21-.22.24-.42.28-.66.12-.71-.08-.59-.5.24-.63.45-1.53,1.3-1.79Zm-1.69.32c.27,0,.28.09.17.33a5.93,5.93,0,0,1-.78,1.13c-.53.34-1.4-.71-1-1a4.52,4.52,0,0,1,1.49-.46.32.32,0,0,1,.13,0Zm-59.61.69a1,1,0,0,1,.44.09,8.46,8.46,0,0,1,.31,9.14.31.31,0,0,1-.43.14,11.76,11.76,0,0,0-2.16-.78v-8c.66-.14,1.22-.64,1.84-.63Zm53.07.64c-.16,0-.22.12,0,.32,2.94,2.12,7,4.58,10.71,3.63.34-.07.62-.26.55-.61s-.42-.41-.83-.3a10.47,10.47,0,0,1-3.17.14c-2.56-.42-4.82-2.06-6.79-3a.79.79,0,0,0-.44-.16Zm-.86,2c-.13,0-.12.13,0,.37.42,1.23,4.57,4.1,7.85,5.05,2.82.81,6.87,0,6.63-1.33-.12-.69-.64-.86-2.43-.63-4,.77-7.77-.85-10.66-2.65a7.34,7.34,0,0,0-1.35-.81Zm-25.93,1.69a28.65,28.65,0,0,1,5.3.42,47.32,47.32,0,0,1,11.33,3.37c6,2.26,13.57,4,20,3.77a27.8,27.8,0,0,0,4.94-.28c1.43-.31,1.83,0,2.17,1.76.06.39.18.5.68.83.75.52.63,1,.53,2.16-.07,1,.5,1.5,2.82,5.77,2.63,4.86,5.2,10.52,5.2,10.52-23.09,0-45.13-.88-68.76-.14,2.12-5,7.92-14.13,11.55-21.43-.88-2.24.21-2.62-.25-3.16A2.28,2.28,0,0,1,61.55,200a31.36,31.36,0,0,1,3.16-.2Z"/><path class="cls-3" d="M49.17,228.15s7.56-15.3,10.76-19.88c4.58-5.82,25.29,2.52,35.59,4.61,4.19.81,13.89.43,13.89.43l8.12,14.62ZM33.45,210.77l-.32-47.64,2.37,1.48L36,212.46,25.8,222.27l-.06-2.88Zm6.2-5.44c2.44-4.91-.29-10.91-.29-10.9,1.42.34,5.36-7.14,5.71-6.92,6,7.4,7.09,18.43-.29,25.26a19.45,19.45,0,0,0-5.13-7.44Zm4.5-33.69C48.74,167,52.37,163.3,56,158.06c.3-.43-19.35-25.38-19-25.82,3-3.35,7.09-5.81,10.25-9.85,0,0,16.11,21.09,16.48,20.9,1.64-6.6,2.83-12.58,2.52-19.47-1-17.65-8.54-28.46-8.6-28.25-2.55,16.22-27.61,40.78-32.55,39l0-11.33c.3.57,15.88-10,20-24,.29-1,12.38-4.88,12.3-5-.52-1.31-5.8-8.79-5.8-8.79a23.56,23.56,0,0,1,2.37-1A68.29,68.29,0,0,1,67.7,114.89c2.14,11.51,3.51,33.17-19.58,56.82Zm69.25-29.8a63.53,63.53,0,0,1-1.86-30.94c2.54-14.7,11.83-25.22,19.28-33.24h3.23l-5.27,5.45a81,81,0,0,0-5.91,8.54l19.28,25.2,11-2.38s-.33,11.28,0,11.28c-8.53,7.06-14.67,13.46-19.08,23.76-2.7,1-11.65,4.86-11.65,4.86-4.25-1.05,12.66-27.57,9.45-28-1.33-1.09-16-20.88-16.29-20.84-6.77,20.7-.16,42.45,11.73,57.65-1.35.87-2.57,1.55-2.46,1.34-5.09-7.07-9.56-15.51-11.44-22.66ZM78.18,131.46c.76,1.18,4.19-25.28-4.82-46.46.86-.65,8.3-2.07,8.3-2.07l2,6.34-5.07,2.15.93,3C83.46,92.48,92,89.66,97.23,81c0,0,25.49-.22,26-.17s-5.2,5.53-10.63,16.64a50.48,50.48,0,0,0-4.87,19.35c-.08,1.52-5.83-7.16-5.83-7.16,1.44-7.34,5.27-14.55,9.09-21.77,0,0-5.86-.34-10-.22-6.37,7-10.37,10.63-20,13.95,3.51,11.22,24.92,16.61,20.16,15.58-1-.23-2.21,10.32-1.17,22.19.19,9.5,5.3,25.32,5.48,25.2,0,0-3.4.76-3.68.22l-5.06,1.29-2-5.9,5.46-2.51-.88-3.33s-12,3.63-17.94,14.13l-26.34,0c10.16-11,14.3-21.93,16.5-36.34,2.16.38,6.57-.67,6.57-.67ZM143,36.28c3.31-2.76,10-10,10-10L153,30l-7.54,7.84.08,48.44L143,83.84ZM139.48,54c-1.35.64-4.07,3.83-5.36,7.41-8.74-7.81-5.14-22.16-.35-25.15,1.39,3.13,5.4,7.29,5.31,7.2-.92,3.28-1.63,6.61.4,10.54ZM62.09,21.5l67.41.11c-3.84,7.58-7.37,13.69-11.46,21.15-2.12,2.56-48.16-8.28-48.37-7.2Z"/><path class="cls-4" d="M157.1,241.3v-2.22h2.22l5.29-8-5.48-12.66H157v-2.5h7.95v2.5h-2.8l4.17,9.87,2.78-4-.06-5.91h-1.95v-2.5h7.25v2.5h-2.59l.13,20.69h2.19v2.22h-6.89v-2.22h1.9l-.19-9.73-6.33,9.73h2.24v2.22Zm-25.23-14.43a97.68,97.68,0,0,0-16.6-23.14,125.44,125.44,0,0,0,16.49-22.41A112.35,112.35,0,0,0,149,204.09a102.87,102.87,0,0,0-17.17,22.78ZM25.66,218.51,25.2,154.9l7.67,7.45.45,48.84Zm132.73-17.69a55,55,0,0,0,7.42-9.77c2.63,3.9,5.42,7.88,7.73,9.87a98,98,0,0,0-7.48,10,57.42,57.42,0,0,0-7.67-10.11Zm-97.57,5.36c-1.59.25-.69-1.22-.4-2.62.16-.77-.6-1.51-.59-1.74,0-1.39,1.05-2,5.74-1.91,11.05.77,16.77,4.3,23.1,5.94,6.07,1.58,12.09,1.55,18.79,1.4.65.25,2.52,4.86,2,5.36-15.15,3-34.49-8.13-48.59-6.43Zm27.31-32.93a9.73,9.73,0,0,0-4.58-1.62c2.6-4.58,5.75-8.74,11-11.35L97,166.34a25.4,25.4,0,0,0-8.87,6.91ZM56.2,157.54a28.25,28.25,0,0,1-4.41,5.51c-6.36-8.54-20.59-26.71-20.59-26.71l-6,3.06s0-3.51.11-3.76c16.32-8.41,27.5-24.29,32.43-39.16,0,0,2.63,2.68,2.28,3.81a75,75,0,0,1-23,32.32Zm20.34-17.31,20.59,0,.91,7.16c-7.88,2.65-14.39,8-20.47,14.28l-9.77-.17c3.21-7,7.65-14.13,8.74-21.29Zm76.23-30.16c.67,2,0,4.2.25,4.1-24.66,12.2-31.71,39-31.71,39s-2.34-3.71-2.23-4.28c12.76-28.37,21.3-29.22,22.94-32.3L122.61,91.44l4.39-6,20.82,27.09c2.07-1,3.25-1.75,5-2.49Zm-12.16,36.7c4.18-7.52,8.5-11.89,12.8-14.89l-.22,9.92ZM25.31,117.25l.11-9.62,12.7-5.47c-3.51,7.66-8.28,11.76-12.81,15.09Zm56.6-8.65-.75-6.78a56.68,56.68,0,0,0,20-14c5.91-.29,9.95.11,9.91,0a80.83,80.83,0,0,0-9.35,21.25ZM145.8,37.45l7-7.09L153,93.65,146,87ZM84.11,89l-2.23-6.28c3.5-1.31,6.15-4.17,8.63-7A12.61,12.61,0,0,0,95.09,78c1,.25-7.1,10-11,11ZM29.81,45.65c7.52-7.34,12.4-15.07,17.12-22.77,4.15,8.47,10.14,15.87,16.57,23C56.87,53.11,51.84,60.82,47,68.58c-4.75-8.18-9.75-15.85-17.2-22.93ZM12.48,58.29A61.68,61.68,0,0,0,5,48.16a50.48,50.48,0,0,0,7.41-9.72c2.41,3.5,4.7,7.17,7.66,10a101.7,101.7,0,0,0-7.58,9.87ZM71,41.47s-.88-.51-.78-1.23c.29-.92-.94-3-.94-3,15-4.53,36.72,8.23,49.64,5.55a10.23,10.23,0,0,1-.33,2.82c.41,1.81.69,1.87-1.07,3C108.39,51.13,98.83,45.66,90,43c-7.23-2.28-13.1-1.7-19-1.57ZM4.25,33.52v-2.7H6.79V10.5H4.25V8.15h7V10.5H9.45l.18,9.77L16,10.5H13.52l0-2.35h8V10.5H19.24l-5.08,8,5.08,12.28h2.27v2.7h-8V31l3,0L12.3,21.38,9.45,25.3v5.57h2.08v2.65Z"/><path class="cls-5" d="M61.32,20.6l2.73,5.15-.47.32c.74,1.23,1.38,2.63,2.13,3.86l.56-.07c.89,1.72,1.25,2.36,2.43,4.39h-.53c.27.91,1,1.51,1,2.16,0,.8-.21,1.63.29,2.17s.66.83.54,1.21a1.6,1.6,0,0,0,1.52,2A46.63,46.63,0,0,1,91.36,43.7c4.79,1.5,9,3.2,13.06,4.38a32,32,0,0,0,6,1.14c6.12.45,9.56-.8,8.52-3.34-.08-.21-.26-.36-.28-.46s0-.4.35-.69c1-1,.45-1.77-.17-2.91l11.79-21Zm68.07,1.27-5.74,9.9a3.06,3.06,0,0,0-3.83,2.39c-4-1-3.38,4.14-1.38,4.49.13.75-3.27,1.68-5.06-.08,2.75.37,3.73-3.27.36-4.08,4.44-3.3-3.89-8.24-4-1.42-3.91-.69-3.4,4.49-.92,4.89-1.27,1.4-5,1.44-7-1.51,3.32,1.72,5.12-2.73,1.67-4,4.26-3.73-4.08-7.17-3.88-1.14-3.15-1.86-5.31,2.89-1.11,3.62-.24.85-5.74.86-7.13-1.35,3.9.89,4.08-3.86.63-4.24,3.46-4.38-5.3-6.59-3.83-.62-3.39-1.34-4.67,2.88-1.37,4.24.19.67-5.34,1.24-7.27-1.18,4.24-.64,2.76-4.75,0-4.42,0,0,0-.12.19-.52,1.3-4.13-5.67-4.47-4.71-.1.16.41.33.94.33.94-1.92-.39-3.1.39-3,2.2.48,2.39,1.74,2.22,3.36,1.74.68.71-3.9,3.08-6.78,1,3.52-1,1.74-5.14-1.21-4.58-.12-1.32-1.56-3.17-3.42-2.27l-2-3.89Zm5.76,55L131,77c-2.9,3-24,22.37-20.42,51.68,1.52,12.54,5,23.38,14.37,36.19l2.5-1.46.39.25,25.94-14.92v-4.53L123.69,156.8a13.64,13.64,0,0,1-1.45-2.12l12.06-5.13s.29-.74.39-1.07c4-10,12-17.3,19-22.92,0-9.88-.09-30.56-.09-30.56L135.5,76.93a79.82,79.82,0,0,0-6.45,6.69L149.88,111,148,112.23,127.43,85a103.7,103.7,0,0,1,7.72-8.06Zm18.51,17.82s-.1-47.07-.24-69.79L142.61,36l0,47.7Zm-.92-65.31-7.64,7.88.09,48.49-2-1.94V36.66l9.53-10ZM78.42,28.24a1.29,1.29,0,0,1-.24,1.42c-1.56,1.93,3.35,5.3,6.87,4.72,2.69-.45,5-2.06,4-3.29-.8-1-.27-2,.69-2s1.79.79.93,1.88c-1.91,2.41,1,5.23,5.48,5.29,3.16,0,4.21-.74,4-3-.08-1.05.13-1.34.86-1.5,1.17-.26,1.76,1.08.79,2.11-2.1,2.21.29,5.46,4.26,5.67,1.45.08,1.74,0,3.36-.91,1.26-.72,1.71-1.8,1.09-2.64a1.22,1.22,0,0,1,1.52-1.84c.89.39,1.33,1.07.35,2.22-1.3,1.52-.68,2.77,1.8,3.62,1.94.66,3.28.57,4.19-.25.28-.26.91-.8.9-.64-.61,1.06-1.15,2-1.15,2a6.1,6.1,0,0,1-7.12-1.7c-4.18,2.41-7.89,1.9-11-2.15a10.64,10.64,0,0,1-10.85-3.1C84.91,36.32,81,35.42,77.45,33a7.09,7.09,0,0,1-8.17,1.66L68.44,33c.22-.08,1.13,1.69,5.57.87,1.5-.28,4.06-2.79,2.63-4-.66-.93-.68-1.35-.1-1.92a1.28,1.28,0,0,1,1.88.29ZM67.53,30.46c.25.48.28,1.28,0,.8-.15-.26-.9-1.38-.86-1.42.35,0,.69.33.85.62Zm85.21.38,0,62.58L146.29,87,146,38Zm-75.31,3,2,1.28-3.67,0ZM88.94,35l1.72,1.67L87,35.86Zm32.21.87-.77,1.57c-.44-.49-.57-1.54.77-1.57Zm13,26c1.3-2.93,3-6.66,5.88-7.85-2.11-4.17-1.84-8.35-.34-10.65A21.19,21.19,0,0,1,134,35.54c-6.75,6-7.83,18.19.15,26.29ZM134,36.69l.46,1.14c-6,7.35-4.15,17,.2,22.15l-.63,1.3c-5.32-5.61-7.64-17.46,0-24.59ZM98,40.84c7,2,12.54,5.23,20.59,2.39l0,1.57c-5.12,3.29-15.32-.18-22.22-2.73a57.7,57.7,0,0,0-25.86-3.38c-.55-.11-1-1.53-.11-1.53C82,37,80.12,35.59,98,40.84Zm1.58-2.77,2.28,2.43A37.68,37.68,0,0,1,97,38.62Zm34.89.6.45.62c.19.27-1.27.4-1,.09ZM95.22,43.11c8.31,3.12,17.46,6.23,23.46,3.44,0,0,0,1.19-.65,1.53a6.15,6.15,0,0,1-2.75.8c-9.71.8-16-3.22-23.86-5.6a54.18,54.18,0,0,0-12.66-2.2,67.66,67.66,0,0,0-7.37.29c-1-.08-1-.65-1-1.22a48.78,48.78,0,0,1,24.8,3Zm40.18-3a1.13,1.13,0,0,1,.32,0l.85,1.08-1,1.6a7.49,7.49,0,0,1-1.34-1.62c-.25-.52.42-1.05,1.17-1.08Zm-24.48.31,2.63,2a14.89,14.89,0,0,1-6.41-.7Zm22.28,1c.21,0,.43.22.68.65.5.84.43,1-.52,1.31-1.25.39-1.35.31-.94-.81.27-.76.52-1.14.78-1.15Zm4,.52L139,43.44a12.9,12.9,0,0,0,.35,10.46c-.22,0-1.5,1.28-1.9,1.49-1.13-.47-3.61-9.7-.23-13.44Zm-2,1.95-.45,2.83c0,.23-2-1.34-1.79-2.12.34-.94,1.52-.74,2.24-.71Zm-3.2,1c.24,0,.61.57,1.06,1.31.35.58.28.79-.5,1.5-1.15,1.15-1.37.77-1.12-1.2.13-1,.3-1.61.56-1.61Zm2.37,2.57a.61.61,0,0,1,.39.12l.13,2.75c0,.25-2.14-.1-2.43-1.15-.36-.67,1.08-1.74,1.91-1.72Zm-2.85,2.32a4.06,4.06,0,0,1,1.1.57c.79.48.81.69.13,1.56-.81,1-1.21.87-1.33-.93-.05-.66-.1-1.17.1-1.2Zm3.17,1.06a.27.27,0,0,1,.19.06,6.76,6.76,0,0,1,.72,3.38c-.35.41-2.19-.14-2.61-.79s1-2.65,1.7-2.65Zm-2.26,3.25a2.85,2.85,0,0,1,1.18.41,2.65,2.65,0,0,1,1,.75c.22.46-.15,1.17-.64,1.75-.31.38-.61.09-1.23-1.19-.5-1-.71-1.7-.36-1.72Zm3.73,1.23a.2.2,0,0,1,.11,0c.63.35.53,1.38-.21,2.14-.9.92-1.67.23-1.06-.94.4-.73.86-1.22,1.16-1.23ZM84.32,81a2.94,2.94,0,0,0-1.76,1,1.28,1.28,0,0,1-1.4.49,6.61,6.61,0,0,0-2.82.7,4.65,4.65,0,0,1-2.11.46,5.62,5.62,0,0,0-1.53.21,8.58,8.58,0,0,1-1.1.38c-.92.27-.6.53-.06,1.72a88.67,88.67,0,0,1,5.31,21.49A100.56,100.56,0,0,1,78.36,131c-2.58,0-4.2-.12-6.91-.07-1.85,15.05-6.88,27-16.91,37.74l27.13.07c3.11-8.29,17.3-14.62,17.76-14.15l.75,3S90,159.1,83.1,172.05c.7-.43,3.26-.13,5,1.62a28.12,28.12,0,0,1,9-7l.19-.51a15.9,15.9,0,0,1,1.91-.52,10.64,10.64,0,0,0,1.26-.3,3.36,3.36,0,0,1,1.83-.36,10.81,10.81,0,0,0,3.83-.38c-5.76-15.89-7.12-30.23-4.87-46.89,2.12,0,6.78.1,6.78.1a64.88,64.88,0,0,1,2.5-13.78,53.13,53.13,0,0,1,7.65-15.77c2-3,3.8-5.19,5.88-8l-26.56.06C93.89,86.2,87.12,91.13,81.67,93.18c-1.85.7-2.11.6-2.42-.27-.55-1.56-.52-1.5.93-1.91.48-.14,2-1,4.44-2.08,5.13-2.6,8.66-7.37,10.73-10.59.83-1.27.28-1-1.14-1a4.38,4.38,0,0,1-3-1.59c-.42-.4-.61-.68-.81-.66-1.51,2.18-4.06,5-6,5.9Zm6.23-5A7.06,7.06,0,0,0,95,78.23,29.66,29.66,0,0,1,84.22,88.79l-2.12-6C87.31,80.38,88.7,78,90.55,76Zm43.3,1.91c-28.1,26-26.44,58.71-6.77,85.31L125,164.41c-18.48-24.75-21.82-61.38,6.41-86.65ZM116.14,81,123,81l-4.68,6.08-6.3,0Zm-1.08,0-3.83,6-10.33.13a43.53,43.53,0,0,1-19.58,13.87L80,94.63A31.75,31.75,0,0,0,97.63,81Zm-10.5.5-2.4,2.64,2.49,2.53,2.27-2.56Zm5.42-.07L107.55,84l1.9,2.54L112,84.12ZM98,82l-.41,4,3.12,1,.45-3.39Zm19,.15-2.26,3.54,3.41,0,2.38-3.52ZM81.36,83l2.21,6.12-1.94.93-2-6.39Zm-2.62,1L81,90.35,79.11,91,77,84.39Zm2.73,25c.26,8.81.38,14.12-1.09,21.87-.08.4-1.66,0-1.66,0,.2.07.89-8.75.83-14.29a86.42,86.42,0,0,0-6-31.44,9.55,9.55,0,0,1,2.74-.74c2.61,7.93,4.93,16.46,5.21,24.56ZM53.89,84.6C63,96.63,69.44,113,68.36,129.06c-1,18.73-8.14,29.52-20.61,42.49l-3.22.08c14.76-14.16,21.29-26.27,21.81-42.25.59-18.38-5-30.6-14.48-43.63Zm-29,16.54,0,4.38L55.81,92.27l-4.45-6.56ZM97.3,86.79,93.93,87l.12,3.39,3.5-.08Zm30-.65,20,26.25-5,3.68L123.26,91.4Zm-15.69,1.79,6,.1-2.32,3.84-5.79-.05Zm-1.11.1c-2.76,5.12-6.56,11-8.69,20.41l-19.73,0a50.44,50.44,0,0,0-.64-6.47c8.5-3.11,15.09-7.76,19.93-13.91Zm3.65.27-2.58,1.48,1.57,1.81L116,90.5ZM90.64,90.19l-.85,3.34L93,94.76l.59-4Zm18.4,2.5,5.75,0-2.42,4.84-5.7-.09Zm13.69-.63,19,24.55L139.9,118,121.38,94Zm-11.51,1-2.59,2.16,2,2.25,2.39-1.9s-1.75-2.51-1.75-2.51Zm-25.15.18-.79,3.25,3.32.89.6-3.49Zm-4.59,2.17-.68,3.2,3.13.85.66-3.09Zm-25.86-.33c.16,0-.52,3.82-1.53,4.51-.48.33-.73.25-1.15-.19S51.35,97,51.35,97l1.11-.56c1.35,2.16,1.35,1.11,1.86-.73Zm-5.19,2.22c.44,0,1,.54,1.58,1.6.87,1.54.84,1.64-.6,2.08-2.58.69-3.54.85-2.74-.86s1.19-2.82,1.76-2.82ZM58.12,97l1.77,3Q49.26,127.1,25.63,138.86l0-3c18.55-10.56,26.16-23,32.53-38.86Zm48.2,1.31,5.58.1-1.49,4.27-5.93-.05Zm-57.57-.19C44.21,109,38,118.39,25.6,126.36l-.05-2.88c13.93-8.39,20-24.12,20-24.13Zm70.53,0c3.3.09,6.77,3.69,6.42,6.66-.25,2.08.16,3.64.72,2.78,1.26-1.89,5-.63,4.93,1.64,0,1.21-.82,1.41-1.28.32-.69-1.62-2.61-1.65-2.9,0s1.08,2.74,4.67,4c4.21,1,6.74,4.76,5.25,6.93-.52.57-.84.71-.93.42,0-.09-.14-.54-.23-1-.48-2.28-1.57-3.23-2.89-2.45-.66.39-.58.91-.2,1.59.52.91.2,1.26-.72.8-1.46-.73-1.94-2.47-.53-3.26,1.68-.68,1.11-.82-1-1.55-4.56-1.56-6.52-4.42-6.76-9.87.09-2.49-.25-3.37-1.42-3.71s-2.28,1-1.52,1.76c.42.39.76.74.54,1-.71.69-2.48-.43-2.47-1.63,0-.78.31-1,1.49-1.87.32-.25,0-.74-.43-.74-1.8.58-1.67-1.8-.7-1.87Zm-10.35.62-2.79,1.61,1.45,2,3.09-1.46Zm-54.27,1.58a.58.58,0,1,1-.58.58.58.58,0,0,1,.58-.58Zm5.72.25a61.12,61.12,0,0,1,3.19,42.23L47.67,122.1a68.47,68.47,0,0,0,12.71-21.54Zm-21.5.94-14.19,6-.08,10.64c7.93-5.41,11.29-10.95,14.27-16.6Zm13.63-.09c1.4,0,.71,3.74-1.1,5-.67.51-1.12.45-1.34-.57a8,8,0,0,0-1.37-2.55c-.82-1.06-.81-1.08.38-1.16s2.4-.61,3.43-.74ZM51.13,103c-1,0-1.34.46-.73,1.12s.93.44,1.28-.36c.21-.49,0-.75-.55-.76Zm-25.59,13.8,0-9,12.13-5.11a37,37,0,0,1-12.17,14.14Zm107.78,7.29-1.62,1.62L116,105.32l1-2.58ZM47.48,103.46c.53,0,1.72,1.83,2.06,3.13.24,1,0,1.18-1.86,1.45-.76.21-2.82,0-2.65-.54a24,24,0,0,1,2.45-4Zm56.74.21,5.72.06-1.31,4.69-6-.09Zm2.53.28-2.66,1.84,2.1,2.08,2.82-1.74Zm9,2,15.85,20.56c-4.73,6-9.44,12.92-12.55,22.05-5.63-13.19-7.7-26-3.3-42.61Zm-64.34,1.75a.58.58,0,1,1-.58.58.58.58,0,0,1,.58-.58Zm-1.83.78c1,.07.06,3.22-1.43,4.37-1.17.91-1.68.48-2-1.17a8.18,8.18,0,0,0-1.28-2.42c-.62-.9-.37-1,1.21-.68a14.64,14.64,0,0,0,3.45-.1Zm53,.77,6,0-.93,7.12Zm-58.39.33c.94.88,2.14,4,1.53,4.19a9.47,9.47,0,0,1-4.3-.48c-.25-.26-.25-.26.28-1,.29-.38.84-1.16,1.23-1.71s.73-1.52,1.26-1Zm3.34.11c-.91,0-1,.15-.54,1.14.35.8.59.87,1.2.35.85-.74.49-1.53-.66-1.49Zm105.18.61.21,3.52c-23,11.42-31.66,38.39-31.79,38.39l-1.67-3.11c10.57-26,24.63-33.58,33.25-38.8ZM44.09,114.48c1.37,0,1.77-.13,1.76.38a5.17,5.17,0,0,1-2.82,4c-1.05.5-1.08.51-1.19-.73a9.8,9.8,0,0,0-.9-3.16c-.16-.36-.75-1.19,0-1a12.81,12.81,0,0,0,3.15.42Zm3.07-.32a.58.58,0,1,1-.58.58.58.58,0,0,1,.58-.58Zm-7.34.8c.25,0,.49.5.77,1.26.62,1.63.8,2.51.62,2.9-.28.59-4.06.21-4.7-.46a41,41,0,0,1,3.31-3.7Zm2.72.4c-.54,0-.25.37.15,1.31.28.66.66.76,1.09.31.57-.62.65-1.1.29-1.37a3.91,3.91,0,0,0-1.53-.25Zm110.24,3.55,0,1.18c-.89-.27-1.45-.65-2.47-1-.63-.21-1-.36-.44-1a10.58,10.58,0,0,1,2.85-2.32v1.33c-1.7.75-1.53,1.44,0,1.82ZM86.2,117.72h6.37v4.2h5l-.38,4.79H92.57v4.2H86.2v-4.2H81.66l.36-4.79H86.2Zm14.37,0c-3.22,16-.26,32.92,4.71,46.73l-2.51.28c-3.88-11-7-26.77-3.82-47,0,0,1.12,0,1.62,0Zm47.24.31a.59.59,0,0,1,.58.59.58.58,0,0,1-1.16,0,.59.59,0,0,1,.58-.59ZM35.86,119.38c.21,0,.86.28,1.43.44a9.13,9.13,0,0,0,2.34.36c1.58,0,1.78,0,1.1,1.31a7,7,0,0,1-2.36,2.56c-1.1.58-1.52.5-1.45-.58a8.37,8.37,0,0,0-.72-2.9c-.32-.7-.69-1.17-.34-1.19Zm6.69.52a.58.58,0,1,1-.58.58.58.58,0,0,1,.58-.58Zm107.08-.08a5.32,5.32,0,0,1,1.92.61c1.86.9,1.81,1.11-.71,2.9-1.84,1.38-2.27,1.54-2.33-.65-.07-1.84.13-2.84,1.12-2.86Zm-114.72.53c.73,0,1.55,3.85.89,4.2-1,.53-4.23-.51-4.22-1.39a14.65,14.65,0,0,1,3.33-2.81Zm112.49-.16c.44,0,.5.33.46,1.55A20.57,20.57,0,0,0,148,124c.09,1,0,1.09-.81.63a7.22,7.22,0,0,0-2.71-.87c-.93-.08-1-.46-.71-1.08a5.13,5.13,0,0,1,3.63-2.44Zm-109.75.58c-.65,0-.49.34-.09,1.3.29.68.78.75,1.28.17.71-.82.57-1.25-.46-1.4-.22,0-.58-.07-.73-.07Zm108.9.92a2,2,0,0,0-.81.35c-.61.38-.85.65,0,.95s1.19.39,1.13-.29c0-.4,0-1-.35-1Zm-59.73.49v4.19h5.07v-4.19Zm55.2.37a.58.58,0,0,1,.58.58.59.59,0,0,1-.58.58.58.58,0,0,1-.57-.58.57.57,0,0,1,.57-.58Zm-94.83.65,16,20.52-1.06,2.67L45.64,124.73Zm105.7-.1,0,2.69c-1.81,1.31-13.27,9.62-19.21,23.61l-3.1,1.32a57.17,57.17,0,0,1,22.28-27.62ZM31.3,124.24a22.5,22.5,0,0,0,3,1.17c1.13.14,1.52.06,1.21.65a6.62,6.62,0,0,1-3.34,3.12c-1,.32-1.43.2-1.28-.41a10.45,10.45,0,0,0,.3-3.09c.15-.57-.33-1.36.09-1.44Zm-1.22.24c.67.56.54,4.15-.2,4.92-.39.41-1.51,0-3.2-.92-1.1-.62-1.3-1-.76-1.39.93-.56,3.66-2.75,4.16-2.61Zm114.19.08a4.74,4.74,0,0,1,1.28.17c2,.44,2.44.9.74,2.25a12.62,12.62,0,0,0-1.49,1.35c-.91,1.12-1.55.31-1.75-1.72-.14-1.43.08-2.24,1.22-2Zm-2.5.19c.33,0,.53.17.53.57a19.26,19.26,0,0,0,.57,3.35c.35,1.05.09,1.28-.77.82a8,8,0,0,0-3.19-.52c-1,.08-1-.2-.7-1.06.53-1.52,2.59-3.16,3.56-3.16Zm-109.49.74c-.39,0-.41.52-.14,1.73.08.38.41.35,1-.08s.71-.84-.12-1.34a1.82,1.82,0,0,0-.77-.31Zm4.52.13a.58.58,0,1,1,0,1.16.58.58,0,0,1,0-1.16Zm103.08,2.25a1.81,1.81,0,0,0,1.48.1,1.68,1.68,0,0,0-.08-1.56c-.58-.19-1.74,1-1.4,1.46ZM44,130.09c.35,1.65,2.68,1.56,2.42-.17-.15-1-.19-1,.32-1,2.4.11,2,3.91-.79,3.61-.58.07-.65.31-.16.52a17.08,17.08,0,0,0,2.63.68c3,0,7.38,4.62,7.27,8.74-.07,2.69.84,4.63,1.77,4.85.75.18,1.82-.5,1.73-1.32-.13-1.14.8-.79,1.33,0,.81,1.13-.24,2.76-2.17,2.63-.82.16.6.68,1.66,1,1,.05.15,1.24,0,1.45-.54.63-2.32.15-3.71-1-1.71-1.38-2.45-3.23-2.65-6.87-.13-2.34-.3-2.82-1-1.85-1.23,2.15-4.16,1.1-4.52-1.18-.21-1.2.85-2.07,1.19-1,.91,2.27,3.13,1.72,2.77-.53-.24-1.48-1.72-2.3-4.66-3.13-3.53-1-4.58-2.2-5.26-5.1-.31-1.28-.26-2,.42-2.62.33-.33.76-.67.76-.67s.47,2,.66,2.86Zm92.33-1.84a.57.57,0,0,1,.58.58.58.58,0,0,1-1.16,0,.57.57,0,0,1,.58-.58ZM25.5,128.8c1.05.38,1.95.94,3,1.31.7.24.51.8-.22,1.6a7.37,7.37,0,0,1-2.74,2v-1.62c1.37-.48,2.24-1.62-.05-2Zm113.52.9a9.11,9.11,0,0,1,1.62.15c1.68.35,1.87.5.87,1.68L140.27,133c-1,1.38-1.52.91-2-.87s-.7-2.58.73-2.42Zm-108.27.67a.58.58,0,1,1,0,1.15.58.58,0,1,1,0-1.15Zm106.58,1.26c.16.58.4,1.33.59,1.87.9,2,.33,1.22-1.3,1.05-1.09-.12-2.83.06-3.26-.24-.2-.24,0-.89.33-1.61a5.69,5.69,0,0,1,2.06-2.29c1.7-.79,1.3.21,1.58,1.22Zm-97.85-.72,18.25,24.14-1.43,2L37.52,132.27Zm114.41.09A46.53,46.53,0,0,0,140,147.27l13.92-5.36Zm-18.12.79c-.52.14-1.27,1.11-1,1.49a1.79,1.79,0,0,0,1.33.09c.56-.21.17-1.58-.38-1.58Zm-80,26.11-3.89,4.89-20.26-26.2,5.11-3.69Zm97.1-25.48.15,9-11.9,5a49,49,0,0,1,11.75-14Zm-81.36.77,4.76,6.2-5.82-.13Zm60.26.51a.57.57,0,0,1,.58.57.58.58,0,0,1-.58.58.57.57,0,0,1-.57-.58.56.56,0,0,1,.57-.57Zm3.5,1.46c2.17,0,2.9.15,2.27,1.22-.85,1.05-1.34,2-2.27,3-.53.54-1.2-.58-1.75-2.37-.45-1.44-.22-1.81.63-1.82s1,0,1.12,0Zm-2.52,2a11.87,11.87,0,0,0,.93,2.08,6,6,0,0,1,.67,1.32c0,.27-.3.28-.88.07-1.24-.56-4.16,0-4.24-.24-.43-.62.22-2.31,1.45-3.47a3,3,0,0,1,1.46-.95c.32,0,.37.43.61,1.19Zm-101.83-.45,20.62,26.78-1.43,1.73L29.26,137.89S26,139.5,25,140l.13,13.85-.56,0L24.65,224l11.5-11.47L36,164.94c2.44,2.29,4.53,4.74,7.33,7l4.78,0c12.49-12.7,19.33-23.58,20.84-43,1-13-3.33-29.41-14.81-45.28l-2.8,1.71,5.54,8.34-11.73,5.2c-4.67,9.85-10.21,18.94-20.34,24.14l-.06,12.75-.18.26.14,4Zm100.79.92c-.54,0-1.4,1.22-1,1.62a1.29,1.29,0,0,0,1.48-.19,1.06,1.06,0,0,0-.47-1.43Zm-61.5,2.75,6.06,0-1.58,5.19-5.9-.11Zm57.52,0a.58.58,0,1,1-.58.58.58.58,0,0,1,.58-.58Zm-30.85.16.78,6.74a45.75,45.75,0,0,0-20,14c-1.06-.07-9.55.07-9.55.07.21,0,7.87-14.41,8.75-20.69Zm-24,.63L70.12,143l2.18,2.31,2.87-2Zm57.79,0a10.8,10.8,0,0,1,2,.18c1,.2,1.18.22.83,1.06a16.39,16.39,0,0,1-1.76,3.3c-.94.58-3-3.59-2.31-4.3a2.16,2.16,0,0,1,1.23-.24ZM128,142.42c.27,0,.63.49.73.94a9.49,9.49,0,0,0,1.67,2.58c.75.83.71.95-.36,1a13.84,13.84,0,0,0-3.25.61c-1.11.41-1.26.32-1.12-1,.22-2,1.53-4.11,2.33-4.18Zm-1,4.06c.14.38,1.87-.32,2-.78,0-.2-.7-1.38-1.11-1.44-.69.11-1,1.68-.86,2.22Zm-58.42-.27,5.72.06L72.48,151l-5.66,0Zm2.56.63-2.74,1.73,2.14,2.07,2.62-1.81Zm58.2.86c.48,0,1,0,1.1.22.31.5-.93,3.3-.93,3.3l-2,.8a12.58,12.58,0,0,1-1.35-2.79c-.07-.43.14-.58.61-.84a5.91,5.91,0,0,1,2.59-.69Zm-5.41.23a.57.57,0,0,1,.58.57.58.58,0,0,1-1.16,0,.57.57,0,0,1,.58-.57ZM97.89,148s1.23,7,1.3,6.22c-9.55,3.6-15.13,8.9-17.77,14.07H63.51l4-6.2,10.6-.05a43.35,43.35,0,0,1,19.78-14Zm-2.3,1.65-.88,2.82,2.68,1.71,1-3Zm29.33,0c.23,0,.46.37.92,1.18.34.6.78,1.48.78,1.48l-.8.3c-.64-2.21-1.23-1.39-1.3.56l-1.1.44a8.5,8.5,0,0,1,.74-3c.36-.63.57-1,.76-1Zm-58.36,1.94,5.55.06-2.32,4.81-5.65-.15Zm24.2.38-.44,3.57,3,.63.41-3.39Zm-21.84,0-2.74,1.78L68,156.2l2.63-1.77Zm17.56,3.13-.57,3.28,2.8.64.64-3.31Zm-60.93.19,7,7L33,210.85l-7,7Zm38.17,1.78s5.6.16,5.6.16l-2.25,4.06-1.92-.09,2.53-1.72-1.63-2.08-2.59,1.7,1.45,2.1-3.8-.09Zm36.2,1.2,1.9,6.29-2.29.4-1.72-5.92a13.42,13.42,0,0,1,2.11-.77Zm-18,.39,0,3.78,3.06.26.12-3.54Zm15.2.6,1.74,6-1.45.41-2.09-5.68a6.06,6.06,0,0,1,1.8-.72Zm-2.66,1.24,2.25,5.86A26,26,0,0,0,88,173.07,9.39,9.39,0,0,0,84,171.31a24.88,24.88,0,0,1,10.42-10.72Zm-33.8,1.47,5.88.17-4.09,6.12H55.79Zm17.52.23-.38,3.57L81,167.72l.47-3.67Zm-3.8.5-2.24,2.36,2.38,2.72L76.7,165Zm-5,.12-2.66,2.44,2.12,2.76,2.43-2.77Zm-33.89,2.28.26,47.4L26,222.06l-.07-2.55,7.77-8.12q0-24-.1-48.09Zm26-1.53-2.7,3.68H62l2.32-3.56ZM44.84,186.59c-1.07,3.83-6,8-6.06,7.92,2.43,3.48,2.35,8.44.2,10.89,0-.06,3.91,3.18,4.46,4.86a22.38,22.38,0,0,0,.82,2.14c.1.18.43.62.43.62,9.52-9.65,5-21,.15-26.43Zm.14,1c9.24,11.46,3.15,22-.07,24.88l-.62-1c6.87-8,4-17.78,0-22.42Zm-1,2.23c.06.19.42.73.16.7l-.47-.1Zm-.07,1.28a.5.5,0,0,1,.46.21c.19.31-.76,2.94-1.36,2.33-.17-.35-.38-.65-.54-1s-.07-.64.37-1.07a1.67,1.67,0,0,1,1.07-.46Zm1.33.72c.47,0,1.13,1.5,1.19,2.56a3.71,3.71,0,0,1-2-.74,4,4,0,0,1,.81-1.82ZM41.63,193c2.78,5.59,2.6,10,.16,14l-1.92-1.64a11.23,11.23,0,0,0-.25-10.47Zm1.87,1.4a4.58,4.58,0,0,1,1.32.24c1.86.59,1.93,1.81.13,2.7-.74.37-1,.21-1.4-1.65-.21-.92-.37-1.26,0-1.29Zm3.6,2.14c.36,0,.52.67.56,1.85s-.19,1.19-1.09.4-1.13-1.06-.24-1.76c.26-.21.6-.49.77-.49Zm-2.54,1.84a3.21,3.21,0,0,1,1.19.69c1.28,1,1,1.63-.45,2.1-1,.33-.95.37-.93-1.37,0-.85,0-1.41.19-1.42ZM61.41,200a2.22,2.22,0,0,0-1.69,3c.24.57.59.57.17.92-.46.54-.71,1.78-.2,2.24s.76-.26.13.91l-11.71,21.5,70.25-.13-8.44-15.81s.68-2.61-.67-2.92a1.09,1.09,0,0,1-.77-.89,2.63,2.63,0,0,0-.82-2.14,47.65,47.65,0,0,1-17.27-.6c-6.9-1.55-11.83-4.24-15-5.09a36.76,36.76,0,0,0-13.94-1Zm3.79.15A42.14,42.14,0,0,1,81,203.6a59,59,0,0,0,13.84,3.89,56.37,56.37,0,0,0,11.55-.06,1.26,1.26,0,0,1,1.13.32c.78.86.25,1.4-1.68,1.58a47.66,47.66,0,0,1-10.4-.36,62.63,62.63,0,0,1-16.13-4.32c-6.19-2.33-11.88-3.1-16.38-2.42-2.47.38-2.83.44-2.83-.23,0-1.29,1.1-1.88,5.1-1.88Zm-17.84,3.75c-.24.55-1.93-1.24-1.91-1.75a9.83,9.83,0,0,1,1.94-1.48c.27-.2.25-.1.25.14a12.89,12.89,0,0,1-.28,3.09Zm-2.61-1.32c.79.1,2.07,2.21.94,2.54s-1.92.48-2-.19c.52-1.66.71-2.31,1-2.35Zm45.43,7.2A73.5,73.5,0,0,0,106,210.8c2.46-.25,3-.17,3,.85,0,.64.07.62-3.1.62A62.74,62.74,0,0,1,98.3,212a51.71,51.71,0,0,1-14.48-2.71c-4.91-1.27-9.16-3.72-14-4.22-4.4-.43-8.36.35-9.19.81-.28,0-.43-.42-.41-.79a1.14,1.14,0,0,1,.46-.91c12.63-3.18,19.39,3.63,29.47,5.53ZM46.4,205.54c.42,0,.29.62-.4,1.94-.59,1.12-.82,1.11-1.15,0s-.32-1.36.38-1.54a11.92,11.92,0,0,1,1.17-.36Zm-2.94.62c.49,0,1.19,2.24.83,2.66s-1.31.11-1.61-.28c-.48-.64.14-2.39.78-2.38Zm22.07.6a31.9,31.9,0,0,1,5.7.5,19.85,19.85,0,0,0-3.13,1.35,20.31,20.31,0,0,0-2.57-1.85Zm2.54,2.71c6.92-3.86,9.84,1.47,10.84,2.33,6-1.34,7.24-.68,10.61,3,6.06-3,9-.45,11.53,1.15,3-2.77,6.73-2.85,8.69-1.46a12.29,12.29,0,0,1,.92,1.62c0,.19-.25,0-.93-.51-3.56-2.55-9.47.62-7.89,4,.43.9.36,1.29-.27,1.65a1,1,0,0,1-1.39-1.43c1-1.73.27-3.18-2.29-4.51-3.6-1.88-9.48.23-8.26,3,.77.89.05,1.51-1,1.48s-1.55-.81-.81-1.64c.93-1,.69-2.12-.39-3.35-3.24-4.6-9.77-2.77-8.91,1.26.38,1-.7,1.41-1.82,1-.71-.28-.6-1.38.17-1.77.9-.09,1-1.4.92-2.23-.15-1.22-1.94-2.42-3.72-3.05a8,8,0,0,0-3.42-.47A2.85,2.85,0,0,0,67.91,213c.2,1.19-.14,2.43-1.54,1.77-.76-.36-.57-1.22.21-2,2.75-2.69-2.79-6-6.13-3.71a2.5,2.5,0,0,1-1,.55c2.1-5.22,8.66-.33,8.6-.12Zm9.12-.7,4.18,1.57a13.74,13.74,0,0,0-2.33.73Zm-10.92,1.7c-3.86-.74-4.06,3.58-1.55,4.28-3.46,4.75,5.6,6.59,3.94.73,4.58.83,3.75-4.39.34-4.34.8-1.95,7.1-.48,6.82,1-4.25.45-2.55,4.33-.71,4.33-4.45,4.22,4.46,8.1,4.22,1.75,3.58.75,4-4,.56-4.3,1.26-1.78,5.75-.66,7,1.36-3.55.48-3.33,3.59-.55,4.09-3.52,4.48,5.14,6.14,4.24.93,3.1,1.07,4.81-3.07.79-4.25,4.11-2.46,8.58,1.2,8.1,1.27-4.7-.27-3.76,4.43-.37,4.18-2.16,4.89,6.41,5.16,4.24.09,3.86.07,3.52-4.4-.18-4.7,2.33-1.69,5-1.84,6.64-.25-3.51.92-2,5,1.48,3.87.33,3.43,3.11,2.7,3.17,2.6l2.49,4.64-67.4.1,5.75-10.61A2.73,2.73,0,0,0,58.42,214c2.26,1.62,4.69-2.4,1.38-3.55,2.7-2.83,6.71-.21,6.47,0Zm-21.94-.3c-.14.15-.18.23-.41,0-.59-.67,1-.73.41,0ZM58.26,212c.3.24.1.91-.14,1.14-.61.64-.82.59-.28-.53.16-.34.31-.62.42-.61Zm29.54.3,3.5.85-1.66.94a21.94,21.94,0,0,0-1.84-1.79Zm11,1.41,3.81.25a9.69,9.69,0,0,0-1.61,1.28,12.67,12.67,0,0,0-2.2-1.53Zm12.7,3.89a21.18,21.18,0,0,1,1,2c-1.24.21-1.57-1.62-1-2Z"/></g></g></g></svg>