<svg xmlns="http://www.w3.org/2000/svg" viewBox="0 0 178.58 249.45"><defs><style>.cls-1{fill:#fff;}.cls-2{fill:#e1cf01;}.cls-3{fill:#262e5e;}.cls-4{fill:#d41216;}</style></defs><title>QS</title><g id="Слой_2" data-name="Слой 2"><g id="S"><g id="QS"><path class="cls-1" d="M8.5,0H170.08a8.48,8.48,0,0,1,8.5,8.5V241a8.48,8.48,0,0,1-8.5,8.5H8.5A8.48,8.48,0,0,1,0,241V8.5A8.48,8.48,0,0,1,8.5,0Z"/><path class="cls-2" d="M81.71,227.69l18.56-33.9a98,98,0,0,0,9.76,3.09c-5,13.15-.49,27.41,0,30.5.38,2.59-28.28.31-28.28.31Zm-51-57.93c-1.05-14.41-1.09-28.33,1.28-39.85.05-.19-6.63-4-5.94-4.49,1.06-.68,14.21-7.53,14.21-7.53a3.36,3.36,0,0,0,1.66.42c.6-.06,1.16-.6.93-1.18a16.64,16.64,0,0,1-1-8.24,12.76,12.76,0,0,1,2.53-5.49c2.48-3,8.14-1.4,9.78-1.45,1,0,4.2-11.07-.83-13.12-1.38-.56-4.56,7-2.35,8.67.33.25-4.44-2.52-8.1-4.17a4.92,4.92,0,0,1-2.17-2.82c-.42-1.9,5.6-5.54,4.42-7.67-1.72-3.11-6.18-7.77-8.08-6.49C35.26,78,31,81.3,31,83.58c1.34,4.08,4.75,4.36,6.54,8.22a53.5,53.5,0,0,0,3.75,4.34c-1.24,1.89.77,5.2.86,4.69L26.52,94S30.1,121,26.32,125c-.4.42,3.34-1.06,3.41-.83,1.14,1.44,13.75,9.46,17.36,12.35,6.41-9,8.76-12.88,17-20.81,1.82-1.5,5.86-4.24,8.17-7.53a11.61,11.61,0,0,0,2.3-7.93c-.44-3-.7-5-2.54-7.41C67.77,87.28,61,82,61.11,81.94l2.32-1.88s8.36,6.91,11.9,12c2.39,3.42,1.32,7.35,3.37,8,.5.17,3.87-.11,5,.1.14,0,24.6,17.29,20.16,18.28-6.14,1.38-15.93.49-15.93.49-7-6.83-10.36-9.07-14.52-6.93,0,0-10.56,9.23-16.65,16.46-3.47,4.11-6.37,9.27-8.69,12.59-.9,1.27-12.11-9.5-12-8.2,1.66,11.72,2.61,25.84,1.32,35.41-.88,8.13-2.09,16.86-2.63,24.36a6.38,6.38,0,0,1,3.31,0,2.12,2.12,0,0,1,1.41,1.79c.42,3.57-4.18,2.74-4.29,2.43,0,0,2.57,5.51,2.57,5.51s-4,6.86-3.87,6.57-3.63-6.1-3.63-6.1,2.8-4.94,3.16-6c.21-.62-4,2-4.37-1.81s4.64-2.85,4.41-2.37c-.6-8-1.93-16.21-2.78-22.92Zm58.5,17.34c-6.74-2.8-14.93-1.8-20.53-3.6a13.73,13.73,0,0,0-7.24-1.31c-3.52.37-4.87,2.3-4.87,2.3L45.72,174.41s3.8-34,9.45-40.89c1.79-2.17,7.66-2.36,8.24,5,.23,2.86,8.27,8.43,16.29,15.82,10.17,9.37,23.2,19.61,24,20.16.46.3-12.58,11.69-12.79,12-.57,1-.52,1-1.78.58Zm26-76C102.32,98,75.49,74.62,75.49,74.62L88.05,62.36c6.59,2,13.37,3.61,21,3.69,0,0,8.4,3.8,12.85,0l11.6,9.18s-4.81,25.29-7.63,34.12c.06,3.49-1.43,8-4.94,8.22-2.94.2-5-3.52-5.81-6.51Zm25.92-30.27c1.34-8.22,1.61-14.21,2.54-23.8-6,1.59-5.8-6.16,0-4L141,47.13l3.9-6.53,3.58,6.21-3.08,5.49c6.4.32,4.86,6.27-.66,4.83,1,9.19,3.33,18.47,3.22,27.55,2,14.59-1.21,35.49-1.71,35.32l6.25,4.29L151.39,156l-9.87-4.33-2.94,2c.94,1.87,2.14,3.66,2.55,5.68,0,0,6.79,5.59,5.85,7.33.44.26-4.84,7.24-6.38,7.06-3-.33-6.41-4.14-7.36-6.86s6.1-5.4,5.22-7.4c-1-2.39-3.68-3.54-6-4.24a10.29,10.29,0,0,1-4.86-3.52s-1.25,10.13-2.46,9.32c-4.86-3.26-1.53-13.6-.63-13.31a39.92,39.92,0,0,0,4.63.73c8.83.92,8.23-9.93,6.52-15.19-.43-1.24.24-1.26.19-1.27-.41-.14,1.43,0,3-.5,4.29-1.26,10.86-5.62,10.86-5.62s-3.61-2.26-5.52-3.43c-5.19-3.17-13.09-8.67-13.09-8.67a82.87,82.87,0,0,1-10.94,14.42c-4.41,4.4-9.46,9.82-12.42,11.49-.16.09-5.56,6.57-3,14.13,2.2,6.46,12.8,13.45,12.72,13.92l-2.08,2c-.46,0-13.07-9.84-14.05-15.47-.23-1.36-3.22-1.68-7-4.55-7.2-5.42-18-14.54-19.7-18.16-.36-.77.56-.57,2.31-.6,4.45-.1,13.92.24,13.92.24l8.64,7.05,5.41.29c.35.31.55-1.43,5.31-5,9.09-6.78,20.36-24.18,20.36-24.18l11.92,8.38c-1.15-12.31-2.79-26-1.39-36.94ZM97.69,21.35S85.32,44.59,78.53,55.54l-9.61-2.76c4-10.69.17-31.06-.85-31.57Z"/><path class="cls-3" d="M23.85,20l.73,209.25,129.93-.09L154.14,20Zm90.3,151.64a112.07,112.07,0,0,1,18-13.89c2.21-1.33,2.89-1.53,3.75-.74,1.42,1.29,2.3,2.41,1.84,3.31a2.94,2.94,0,0,1-.44.55l-3.4-1.3,1.1,3.86c-3.06,1.25-3,4.56-.05,6.32l-2,4.68,4.73-2.08a3.13,3.13,0,0,0,5.65,0l4.27,2.08-1.48-5.22c1.41-1.34,2.23-3.48,0-5.44l1-4.1-3.86,1.26c-1-1.32-1.53-1.23-1.75-1.59a6.27,6.27,0,0,0-.72-2.7,18.75,18.75,0,0,0-1.71-2.45c-.3-.51-.05-.55,1.49-1.39.72-.39,1.31-.78,1.31-.78s7.6,3.8,10.7,5.25l.17,70.12-41.64-.12c-4.68-14-1.32-26.06-.08-31.14-2.18-.18-13.44-3.83-13.78-5.09,4.46-7.08,10.51-13.52,16.93-19.4Zm-81,20.4c-5.44-1.76-5.49,4.78-2.72,5.29a4.73,4.73,0,0,0,2.6-.13c.28.06-3.25,5.48-3.25,5.48s2.83,5.14,4.18,7.32l4.28-7.58-2.8-5.25c4.38,2.23,6.65-4.42,2-5.28a4.91,4.91,0,0,0-2.34.4l2.42-22.72c2,1.32,5.5,4,5.5,4,.81,12.52.22,22.95,7.22,41.16l.07,12.68h-24l-.1-66.17,4.21,3c.09.37-.67.12-.26,4.73.37,4.16,1.64,11.37,3,23.08Zm86.3-170.1a5.25,5.25,0,0,1,.34,1.24c1,3.24,4.36,7.13,7,8.16.94.36,1.31.9.76,1.44s-3.53-1.19-5.62-3.63c-1.91-2.22-3.18-4.06-3.46-5.45a4.2,4.2,0,0,1-.13-1.79.6.6,0,0,1,1.06,0Zm3.35-.35c.36,0,.84.42,1.13,1.18a9,9,0,0,0,3.47,4.4c.45.31.63.78.41,1.06a.6.6,0,0,1-.33.18c-1.32.38-4.8-3.66-5.08-6.16-.06-.54.13-.66.4-.66Zm4.34.05c.7,0,1,1.47.63,2.24-.26.24-.84-.13-1.36-1.1s-.27-1.13.73-1.14Zm-2.35,0c.15,0,.48-.08.64.14a6.8,6.8,0,0,0,2.33,3.5c.15.29.22.89-.11,1.05-.8.35-3.21-2.38-3.22-4,0-.48.14-.71.36-.72Zm-3.06,1a11.84,11.84,0,0,0,4.71,6.2c1.31.83,1.82,1.3,1.21,1.73a1.09,1.09,0,0,1-.33.18c-3.07-1.17-6.84-5.61-7-8.75.66-.85,1.25.11,1.37.64Zm-10.61,12a13.27,13.27,0,0,0-5.19,1.1c-2.22,1-2.78,1.68-2.46,1.92s1.67-.44,2.39-.53c3.88-1,6.56-1.2,9.09-.1,1.95.86,2,.46.65-1a6.1,6.1,0,0,0-4.48-1.43Zm13.69,2.13c1.29,0,2.6.28,3.07.88.36,1.94-.61,1.05-1.39.67a6.68,6.68,0,0,0-3.62-.79c-.78.12-.8.09-.36-.16a4.81,4.81,0,0,1,2.3-.6Zm-15.22.75c-3.67.29-4.94,2.15-7.32,4.06-1,.74-.75,1.31.44,1.12a6.62,6.62,0,0,1,4,.5c2.19.74,3.75,1,5,.59,2.27-.87,2.07-.73-1.17,2.41-1.73,1.4-1,1.32.72.12a10,10,0,0,0,2.46-2.27c.14-.28.15-1.26.39-1.26.83,0,.4-1-.35-1.47-.49-.35-.38-.72.26-1.39,1-1,.66-1.53-.43-.87-.19.1-.28-.22-.95-.62a5.38,5.38,0,0,0-3.05-.92Zm2.65,1.38c.89.75.51,1-1.43.93a14.16,14.16,0,0,0-5,.81c-2.21.73-2.34.75-1-.36,1.79-1.52,5.42-3,7.46-1.38Zm11.47-.64a4.38,4.38,0,0,1,2.32.48c1.85,1,2.26,1.9.2,1.18a7.74,7.74,0,0,0-4.24,0c-1.24.34-1.46.46-1.29-.21s1.53-1.37,3-1.4Zm-14.55,3c.44,2.2,2.11,1.48,2.27.16H112c-.26,1.77-2.66,3.24-3.6-.16.2,0,1.07.06.72,0Zm13.3,0h.45c.3,1.68,1.86,2.23,2.54.13H126c-.42,3.51-4.14,1.8-3.54-.13Zm-14.58.17c.3.1.44.93.39,1.14-.1.45-1.57,0-1.89-.47.31-.32,1-.84,1.5-.67Zm20,.37v.61c-.68.17-1,.55-1.59.42a2.21,2.21,0,0,1,.33-1.39,1.09,1.09,0,0,1,1.26.36Zm-14.82.71a1.52,1.52,0,0,1-.73.27c-.07-.59-.17-1.25.56-1.26a.58.58,0,0,1,.17,1Zm8.48-1c.25,0,.56.66.59,1-.07.61-1.59.37-1.59-.24,0-.26.63-.79,1-.79ZM107.69,64.86c-1.17-.59-10-6-12.3-15.49l-.45,1c1,2.29,2.38,6,2.38,6-.06-.32.36,2.47,1.27,7.23a6.16,6.16,0,0,1-1.53-.27c-1.17-4.35-1.45-7.76-2.43-12l-.43,1.19s1.24,7.64,2.07,10.63c-.47-.05-1.36-.25-1.36-.25-.69-3.22-1.23-5.38-1.88-8.61l-.61.78a50.31,50.31,0,0,1,1.64,7.56,4.89,4.89,0,0,1-1.76-.46s-.89-4.63-1-4.7a2.17,2.17,0,0,0-.48.78,18.62,18.62,0,0,1,.72,3.65,17.44,17.44,0,0,1-2.25-.61,3.92,3.92,0,0,0-.84,1c.34,1.48,20.67,4.67,19.45,3.45,0,.13,9,3.93,14,.7,0,0,8.71,6.46,12.1,9A7.78,7.78,0,0,0,136.37,78l3.45,2.65c1,.78,1.4.21,1.55-1.25.17-1.63,1.36-12.63,1.63-15,1-7.9,1-7.82-.16-7.45-1.84.55-3.49-.17-3.49-2a2.52,2.52,0,0,1,1.75-2.54,4.1,4.1,0,0,1,1.33-.12c.23.05.67.07.72.08.58,0-2.26-5.18-2.26-5.18s2.72-4.85,4-6.65l3.52,6.37-2.88,5.63c5.61-.42,5.07,6.64-.43,4.27,0,0,0,2.1,0,1.94.05-.6,0-1.11.23-1.22,5.33,2,6.41-5.75.67-5.39.95-1.64,2-3.35,3-5.16l-4.15-7.56-4.68,7.79L142.5,52A4.09,4.09,0,0,0,141,52c-3.47.72-2.72,6.3,1.25,5.54a5.71,5.71,0,0,0,1.13-.44L140.8,79.94s-.25.21-1.28-.53c-1.19-.86-3.68-2.72-3.84-2.91a92.6,92.6,0,0,0-6.93-39.56c-.26-.74-.11-15.22-.11-15.22l23.64.06L152.37,89c-1.24-.78-2.57-1.82-3.84-2.71a1.09,1.09,0,0,1-.46-1.26c-.41.89-.16,1.28-.16,1.28l5.22,4.16-.21,66.18s-8.43-4.34-13.62-6.43c-2.34-1-2.44-.68-2.44-.68s1.65,3.71,1.18,4.38c1.12,1.07,3,3.32,3.09,5.51a6.79,6.79,0,0,1,2,2.22l3.14-1.13-.72,3.26c3.33,2.33.12,5.46-.49,5.17a35.92,35.92,0,0,1,1.8,4.59,33.2,33.2,0,0,1-3.89-1.8c-1.91,3.76-5.14.6-5.17,0l-3.57,1.59,1.26-4.07c-2.3-1.41-3.86-3.52-.13-5.8l-.86-3.18,3.06,1.2s.57-.91,1-1.59c-1.15-5-8.68-4-11.11-8.53a66.42,66.42,0,0,1-1.2,7.63c-.24,5.36-4-.06-4-5.73,0-1.29,1.6-5.59,2.15-5.8s5.95,2.52,9.56-.06c1.64-1.71,4.48-6.53,1.76-14.06-.9-1.74,1.71-2,2.56-1.37,0,0,7.86-4.12,11.41-6.1-5.95-3.27-18.33-12-18.32-12.39-1.66,2.62-3.55,4.82-6.21,8.53-4.31,5.08-7.68,9.9-13.15,14-7.7,5.6-9.5,11.24-7.35,17.86.86,2.86,2.61,5.76,5.48,6.77,1.45,1.47,7.3,7,7.3,7C107.71,176.59,101,183.9,96.3,192c4,2.08,13.55,5.11,13.55,5.11-3.56,11.82-1.94,21.21.4,30.64,0,0-27.79,0-42.22-.42a4.41,4.41,0,0,1-1.71-.06c0-1.06,2.61-3.95,3.4-3.55.46-.29,1.4-.33,1.09-1.08-2-.23-5,3.21-5.13,4.63H64.5c-.25-.21,2.15-5.81,7-6.26-.18,0,1.35-1,.13-.7-5.6.66-8.21,6.87-8,7h-.86A11.43,11.43,0,0,1,72.4,219c0,.14.93.22.69-.86-6.34,1.1-9.5,3.85-11,9.17H60.92c.82-5.4,6.37-10.13,12.65-10,.24.12,1.17.48.33-.89-7,.79-10.44,3.11-13.29,9.09-2.56-6.64-9.68-9.79-9.76-9.82s-.18-1.86.22-1.78c6.07,2.2,8.39-3.07,8.14-6.14a26.56,26.56,0,0,0-.62-5.09,22.06,22.06,0,0,1-.84-4.62c0-.94.33-1.13,1-1.44,1.3-.59,2.11-2.73,1.82-3-.67,1.55-2.43,1.82-3.25,2.87-.65.86-.36,2.22.79,7,.71,2.9-.12,1.57-1.77.66l-1.1-.62c.74.76,1.52,1.47,2.27,2.21s.3,1-.67.64a5.78,5.78,0,0,0-5.09.47c-.4.29-.54.26-.64,0-.45-7.37.32-11.91,2.77-17.46,1.58-3.77,3.93-6.59,7.07-6.79s7.71.85,11.84,3.65c4.85,3.29,9.57,8.3,10.07,14.45a3.4,3.4,0,0,0,.54-.85c.22-.73-.59-2.92-1.85-5.46-.24-1.92-.89-5.27-1.41-7.54a1.6,1.6,0,0,1,1.47.21c.88,3.75,1.52,6.67,2.28,11.7,0,.48.64-.73.64-1.05-.11-.75-2.2-10.59-2.16-10.36,0-.34,2,.1,1.71.41,0,0,1.51,8.25,1.61,8l.51-.7s-1.43-6-1.25-7.19c.12-.18,1.23.18,1.58.37.44.6.72,2.74.91,4.21.51.39.62-.74.58-1-.37-.59-.76-2.77-.47-2.88a4.25,4.25,0,0,1,1.75.64c.28.25,1.39-1.28,1.11-1.55a61.19,61.19,0,0,0-19.28-3.73,9.39,9.39,0,0,1-3.88-.92c-5.17-1.86-9.45,0-10.08.59-6.32-4.39-13.37-10.52-19-14.43a2.78,2.78,0,0,0-1-.28c-.89,6.81-1.52,14.69-2.28,21-.31,2.49-.34,2.69-.23,2.76s.3,0,.38-.08c1.84-.69,3.51-.24,4.39,1.43a2.54,2.54,0,0,1-3.84,2.82c-.82-.42-.93-.34-.56.46.64,1.43,2.5,5.2,2.5,5.2s-2.51,5.12-3.78,6.52c-1.23-2-2.81-4-3.5-6.21,1-1.9,2.81-4.35,3.39-6.22a1.46,1.46,0,0,0-.93.17c-3.21,1.52-3.73-1.34-3.68-2.37.08-2.09,1.9-2.53,4.55-1.56-2.86-19-3.47-29.8-2.74-28.63a59.38,59.38,0,0,1-5.17-4.14L25.61,21.66l41.3.06c4.21,11.29,3,24.86.53,31.93a41.33,41.33,0,0,1,14.09,4.8c-8.62,12.63-22.15,26.29-36.8,35-.83.37-3.56-1.33-3.88-3-.08-.39.14-1.16.58-1.15,1.08.36,2.12.83,3.17,1.26,0,0-1.46-3.67-.76-4.23A6.07,6.07,0,0,0,45,85.48a3,3,0,0,0-.15-4.08,4.32,4.32,0,0,0-1.23-.91s1-2.87,1.55-4.22l-4.07,1.34c-1.31-1.82-3.74-3.24-5.53-.52-.34.72-.27.61-2.78-.5-1.43-.63-2.31-1-2.31-1,.54,1.6,1.24,3.09,1.85,4.94-2.8,1.78-2.17,4.79.19,5.69l-1.24,4.07s2.65-1,4.08-1.37A7.6,7.6,0,0,1,37,91.43a10.39,10.39,0,0,0,3,4.4,20.27,20.27,0,0,1-4,2.33l6,2.41c-.37-1.26-1.16-2.19-1.24-3.78a2.47,2.47,0,0,0-1-2.32c-1.44-1.24-1.66-2.91-2.47-4.27a4.67,4.67,0,0,1-1.43-1.79c-.91.08-3,1.1-3.35.73s.83-3.1.69-3.36c-1.05-.09-4-2.37-.49-4.92L31.5,76.73s2.65,1.16,3.92,1.81c.89-4.13,4.92-2.15,5.57-.37,0,0,3.2-1,3-.2s-.61,2.68-.61,2.68c2.87,2.54,2.28,3.79-.06,5.46a15.58,15.58,0,0,0,.54,3.44,26.15,26.15,0,0,0-2.7-1,2.59,2.59,0,0,0-.84,1.6c.73,3.21,4.7,4.11,10.57,7.4.2-2.08,1.64-4.92,1.8-7.41.1-1.82.16-1.85,1.44-1.27,3.37,2.43,2.34,9.11,1.11,11.85-.73,1.55-.84,1.51-2.26,1.07a14.27,14.27,0,0,0-7.31.27c-2.63,1.08-3.87,6.94-3.91,8.73a12.23,12.23,0,0,0,1,5.46c.37,1.34-.31,2.37-1.51,2-.28-.09-.92-.33-.92-.33L29,123.79l2.14,1.26s-1.57-.94-.6-1.45l9.74-5.08c1.81.71,1.57.85,2.75-.38a1.88,1.88,0,0,1,2-.64c5.74.55,8.28-.29,9.28-2.69.14-.37.09-.35.67-.65A2.32,2.32,0,0,0,56.57,112c0-.63.31-.72.79-1.16a2.24,2.24,0,0,0,.52-2.9c-.27-.5-.47-.65-.37-1.17a3.12,3.12,0,0,0-1-2.72c-1-1.09-.95-.91.85-2.58,3.54-3.36,6.65-5.94,10.09-9,2.35-2.08,2.1-1.93,3-1a14.12,14.12,0,0,1,3.18,13.76c-.08.23-.11.2.07,0,1-1.08,1-6.51.16-8.92-1-3-2-4.51-5.24-7.41-2-1.85-7.62-7.2-7.62-7.2,8.11-7,16.86-15.79,21.76-23.83-2.52-2.7-14.18-5.19-14.18-5.19,1.45-3,4.32-16.53-.59-31.54l41.9.48,1.49.11a3.48,3.48,0,0,1,.34-.12c.4-.11.6.18.51.63-.31,1.14-2,3.82-3.18,3.6-.53-.2-.38.81-.61,1.24,1.86-.25,4.06-2.61,4.61-5,.3-.5.49-.58.79-.48s.26.44-.11,1.57c-1.18,2.84-3.55,5.48-6.3,5.22l-.36,1c3.72-.06,6.6-3.55,7.45-6.16.59-1.55.61-1.76,1.21-1.61.49.46.19,1.11,0,1.65-1.87,6-7,7.58-9.57,7.32.31-1.27-.69,0-.27.74,5.5.37,9.88-4.37,10.5-8.44.3-1.12.82-1.51,1.12-1a2.39,2.39,0,0,1,0,1.35c-1.5,6.41-8.34,10.06-12.52,9-.32-.25-1.78.45,0,1,8.44-.32,11-4.67,13-8.52,2.3,3.46,4.18,7,9.68,9.13,0,0,.54,1.21.11,1.48-.23.14-.58.08-1.08,0-6.7-1.09-8.92,5.18-6.07,14.53.79,2.57.43,2.18-1.23,3.78-.8.76-1.18,2.12-1,2.15.29-.16.38-.6,1.08-1.18.3-.25.92-.49,1.38-.8,1.24-.72,1.23-1.21.78-2.91-.32-1.27-1.17-5.11-1.17-5.5,0-.74.17-.67,1.09,0,1.29.95,2,.88.46-.34a5.8,5.8,0,0,1-1.17-1.11c-.25-.36-.1-.59.4-.43a7.3,7.3,0,0,0,6.54-.7c.26,6.18-.6,15.54-5.77,22.24-4,4.46-11.56,1.09-14.37-.32Zm6.07-14.19a3.19,3.19,0,0,0-1.05.32c-1.52.87-1.16,4,.51,4.38a3,3,0,0,0,2.4-.28,3.79,3.79,0,0,1,1.87-.46c.55.23.72-.26.84-.81.27-1.23-1.75-1.26-3.36,0-2,1.61-3.58-.76-1.67-2.55.64-.4.62-.62.46-.61ZM98,57.29l1.7,2L100.8,64a3.1,3.1,0,0,1-1.44-.25A57,57,0,0,1,98,57.29Zm23.17,1.18-.06,0a3,3,0,0,1-.82.22c-.26,0-.64-.15-.91-.14a6,6,0,0,0-1.63.35.71.71,0,0,1-.65,0,3.94,3.94,0,0,0-2.67.05,2.08,2.08,0,0,1-1.71,0c-.21-.11-.42-.38-.45-.34a12.92,12.92,0,0,0-.48,1.91c0,.18-.13.48,0,.52s.39-.25.77-.44c.78-.39,1.64-.36,3.15,0,1.88.46,2.61.33,3.72-.24a2.6,2.6,0,0,1,2-.39c.14,0,.52.24.58.18s-.19-.65-.43-1.2c-.17-.4-.24-.55-.36-.54ZM101,60.59a18.43,18.43,0,0,0,2.56,2.19l0,1.51a8.44,8.44,0,0,1-1.89-.17c-.2-.58-1.06-3.52-.62-3.53Zm13.54,1a2.55,2.55,0,0,0,.49.23c2.62,1-.12.73-.38,1.67,0,.08.12.1.25,0a10.21,10.21,0,0,1,4.09-.39c1.3.43,1.38.13.13-.52-.91-.36.2-.6.57-.92.77-.49.24-.7-.74-.22a4.71,4.71,0,0,1-3.54,0,3.39,3.39,0,0,0-.87-.36c-.33,0-.15.34,0,.45Zm-10.32,1.68,1.54,1.2-1.57-.15ZM69.5,93.39a.57.57,0,0,0-.57.56.57.57,0,1,0,1.13,0,.57.57,0,0,0-.56-.56Zm2,.57-7,3.34,1.86.62v1.92l1.71-.54.72,1.79Zm.31,1.57a.56.56,0,1,0,.56.56.56.56,0,0,0-.56-.56ZM62.94,99a.56.56,0,0,0-.56.55.56.56,0,1,0,1.12,0,.56.56,0,0,0-.56-.55Zm2.16,1-7.89,3.63,2.34.71-.62,2.4,1.91-.8,1.06,1.62Zm.23,1.73a.56.56,0,1,0,.56.56.56.56,0,0,0-.56-.56Zm-15.66.36c3,0,6.3,1.12,7.43,3.66.31,1.27-.94,2-3.61,1.3-4.4-1.21-5.23-1.34-4.49-.6a1.9,1.9,0,0,0,1,.57,23.31,23.31,0,0,0,5.73,1.13c1.19-.16,2,.4,1.71,1.38s-1.87,1.58-4.18,1.25a31.54,31.54,0,0,1-4.51-.85c-1-.31-1.06-.28-.57.43.25.38.27.68.65.75a31.24,31.24,0,0,1,4.71.35c2.61.23,3,1,1.1,2.1-.9.53-3.62.39-5.16-.17-1.1-.4-3.63-1-2.65-.19.23.18.15.63.56.78,1.33.18,5.11.45,5.7,1,.38.35-.47,1.22-2.24,1.68-2.65.5-6.62.29-7.67-.43-1.94-4-.9-10.42,2.14-13a7.44,7.44,0,0,1,4.4-1.17Zm17.4,2.06a.56.56,0,1,0,.57.56.56.56,0,0,0-.57-.56Zm2.35.6-8.15,4.06,2.06.61-.49,2.37,1.91-.79,1.16,1.6Zm.06,2a.57.57,0,1,0,.56.57.57.57,0,0,0-.56-.57Zm4.74,4.79c-3.61,3.52-7.68,6.3-11.4,9.72l.8,0,2-1.82,57.09-.18-1.34,1.94.56.25a20,20,0,0,0,1.6-2.65c-12.54,0-22.22,0-36,.1-2.5-2.48-5.15-4.81-7.77-7.17Zm-17.35,2.26a.56.56,0,1,0,.55.55.55.55,0,0,0-.55-.55Zm74.53.43c4.93,3.65,10.77,8.14,15.62,10.81,1.94.84,1.76,1.13-.22,2.06-1.94,1.21-5.16,2.76-7.86,4.12-1.16.44-1.67-.14-2.5,0a1.55,1.55,0,0,0-1.12.73c-.59.77-.43.74-3.55.6s-4.44-.07-5.12.28-1.76,1.46-1.76,1.93a1.38,1.38,0,0,1-1,1.23,1.88,1.88,0,0,0-1.59,1.71,3,3,0,0,1-1,1.39,2.1,2.1,0,0,0-.54,2.46c.12.37.3.28.21,1.4-.22,2.54-.39,2.33,2.34,4.22L109.35,159.3c-.32.25-.42.23-.71,0a11,11,0,0,1-3.57-5.43c-2.35-6.49.52-11.82,4.34-15.08,1.33-1.13,3.11-2.48,3.6-2.82,7.2-6.13,13.45-14.82,18.39-21.8ZM59,114.67l-8,3.76,2.57.43-.49,2.22,1.86-.7,1,1.87Zm.49,1.76a.56.56,0,1,0,0,1.12.56.56,0,0,0,0-1.12Zm73,2.46-.91-2.14s-2.52,6.2-3,8.31c2.13-1.1,8.38-4.28,8.38-4.28l-2.67-.5.3-2.43Zm-91,.39a.56.56,0,0,0,0,1.12.56.56,0,1,0,0-1.12Zm2.44.51s-5.92,2.78-8.6,4l2.49.52-.43,2.43,2.25-.88.91,2.41Zm.32,1.83a.57.57,0,0,0-.56.56.56.56,0,1,0,1.12,0,.57.57,0,0,0-.56-.56Zm83.9.41a.55.55,0,0,0-.56.56.57.57,0,0,0,.56.56.56.56,0,0,0,.55-.56.54.54,0,0,0-.55-.56Zm9.69.51L135,130.38l7.63-3.84-2.07-.57V124l-1.71.49Zm-90.19,1.88a.56.56,0,1,0,.56.56.56.56,0,0,0-.56-.56Zm83.47.14a.56.56,0,1,0,.56.57.56.56,0,0,0-.56-.57Zm-81.13.58-8.09,3.94,2.52.59-.28,2.53,2-1.16,1.11,2.3Zm.51,1.67a.53.53,0,0,0-.53.56.56.56,0,0,0,.56.56.55.55,0,0,0,.55-.56.58.58,0,0,0-.58-.56Zm84.09.49a.57.57,0,0,0-.57.56.57.57,0,0,0,.57.56.56.56,0,0,0,.56-.56.57.57,0,0,0-.56-.56Zm-11.15,2.58-.75-2.11-3,7.74,8-3.69-2.56-.59.05-2Zm-8.17-1.66c-.09,0-.18,0-.18.07a24.38,24.38,0,0,1-2,2.19l-23.75.22s2,.54,2,.54c3.11,2.49,8,6.9,8,6.9l5.89-.23c3.27-3.21,8.17-5.64,10.36-9.6a.35.35,0,0,0-.25-.09Zm22.26,1.59a.56.56,0,1,0,.56.56.56.56,0,0,0-.56-.56Zm-18.33,2.7a.56.56,0,1,0,.56.56.56.56,0,0,0-.56-.56Zm12,.81c1.7,0,3.35.05,3.77.38,2.63,2.21,1.38,12.57-1.93,13.87-3.64.82-6.16,1-9.32-1.11-.89-.44-2.67-1.76-2.32-2.84.47-1.34,1.77-1.24,5.5-.08,1.36.42,2.11.33,2.46.07s-.1-.53-.8-.53a16.32,16.32,0,0,1-2.49-.61,10.36,10.36,0,0,0-2.75-.62c-1.54-.09-2-.15-2-1.09,0-1.77,2.45-2,7-1a13.29,13.29,0,0,0,1.76.25c.17.07-.35-.58-.44-1-.16-.13-.45-.2-1.22-.23-2.9-.28-5.31-.48-5.36-.86-.26-1.86,3.49-2.37,7.39-.87,1,.38,1,.22,1-.07,0-.54-1.69-1.48-4.16-1.45s-2.06-1.19-.09-2.11c.68-.32,2.31-.15,4-.16Zm-9.28,2a.57.57,0,1,0,.56.57.56.56,0,0,0-.56-.57Zm-8.65,3.88-.51-2.09-3.27,8.14,8.25-4.21-2.72-.5.24-1.72Zm-4.21,3.27a.56.56,0,1,0,.56.56.56.56,0,0,0-.56-.56Zm8.22,2.31-.69-2-2.78,7.08,7-3.14-2.07-.57.29-2.15Zm-5.6,0a.56.56,0,1,0,0,1.12.56.56,0,1,0,0-1.12Zm1.8,2.7a.56.56,0,1,0,.56.56.56.56,0,0,0-.56-.56Zm-3.54,1.66-2.38,6.72,6.62-3.21-1.93-.63s.1-1.52-.08-1.45-1.36.4-1.36.4Zm5.89.81a.55.55,0,0,0-.56.55.56.56,0,1,0,1.12,0,.55.55,0,0,0-.56-.55Zm-8.77,3.23a.55.55,0,0,0-.56.55.56.56,0,1,0,1.12,0,.55.55,0,0,0-.56-.55Zm2.53,2.59a.56.56,0,1,0,.56.56.56.56,0,0,0-.56-.56ZM74.68,186.7c-.3.05-1.09-.67-1.24-1a1.34,1.34,0,0,1,1.16.18c.21.2.36.7.08.83Zm2.4-.49c-.11.83.4,2.31.3,2.66-.26.13-1.58-1.28-1.9-1.63a5.6,5.6,0,0,1,0-1.33,2,2,0,0,1,1.57.3Zm2.37.42c.28,1.81,1.08,4.73,1,5.72a16.9,16.9,0,0,1-1.88-2.16,14.77,14.77,0,0,1-.64-3.9,2.09,2.09,0,0,1,1.57.34Zm-15.88-.21a6.2,6.2,0,0,1-2.89.71c-.92,0-2.52-.49-2.36-.37.43.75,1.53.36,1.55.85-.28.49-1,.44-1.37.91-.08.12.1.23.62.17a7.74,7.74,0,0,1,5.48-.08c.4.08.14-.3,0-.39a2.27,2.27,0,0,0-1-.41c-1.63-.29-.92-.46.18-.95.8-.29,1-1-.23-.44Zm3.54,2.31a10.09,10.09,0,0,0-1.36.53,4.78,4.78,0,0,1-3.29-.06,3,3,0,0,0-2.78.35,2.21,2.21,0,0,1-2.24.29c-.8-.45-.79-.3-.4.82.1.28-.09,1.13.25,1.32s.57-.34.78-.41,1.48.51,2.2-.12c1.28-.47,1.66.28,2.55.21,1.43-.51,2.33-1,3.57-.06a8.57,8.57,0,0,1,.82-2.84s0,0-.1,0Zm-2.62,5.76c-1,0-1.59.64-2.92.52a1,1,0,0,0-1,1.56c.32.48.74.57,2.19-.09.6-.27,1.43-.87,1.91-.83,1.42.14,1.77,1.52.59,2.67-.58.34-.59.71-.41.72a2.11,2.11,0,0,0,1.63-1.19c.59-1.78-.47-3.4-2-3.36Zm4.64,8.21a8.13,8.13,0,0,0-3.94,2.83c-.62,1-1.21,2.07-.78,2.62s.85.87.89,1.12-.25.42-.52.72c-1.18,1.32-.9,1.39.76.53.83-.43,1.23-.61,1.78-.46a8.88,8.88,0,0,0,4.93-.38c.61-.22,1.21-.53,1.25-.37a6.78,6.78,0,0,1-6.64,1.87c-.19-.05-.34,0-.33,0s.31.42,1,.72c1.14.5,3.86,0,5.56-1.27,3.37-2.2,5.22-4.31,2.57-3.43-1.22.41-1.67.33-3.15-.33-2.21-1-3.91-1.3-5.75-.66-2.32.81-.54-1.1,2.08-2.77.56-.35.63-.77.3-.76Zm-12.54,5.73h-.77c-.56-1.87-1.89-1.87-2.48,0l-.64,0c.63-2.33,3-2.81,3.89,0Zm13.79.15-.58,0c-.35-1.13-1.6-2.12-2.48-.27l-.4-.08c.72-3,3.58-1.31,3.46.33Zm-3.88-1.7c.36,0,.45.41,0,1.08-.29.47-.63.43-1,.07s-.29-.37,0-.68a1.47,1.47,0,0,1,.89-.47Zm4.29,0a3.38,3.38,0,0,1,.79.24c.88.3,1.09.54.72.91a1.26,1.26,0,0,1-1.34.26c0-.45-.45-.79-.47-1.24,0-.12.14-.17.3-.17Zm-13.85,0c.61,0,1.44.33,1.38.68s-.67.64-1.17.68c-.33,0-.32-.09-.41-.32a6.35,6.35,0,0,1-.23-.7c-.14-.4.12-.33.43-.34Zm-4.19.13s-.34,1-.49,1.37c-1.29-.07-1.17-.64-.56-1a2.16,2.16,0,0,1,1-.33Zm-1,2.42a5.85,5.85,0,0,1,.92.34,9.62,9.62,0,0,0,4.5,0c.7-.16,1-.38,1.19-.27s0,.89-1,1.34a6.49,6.49,0,0,1-4.88,0c-1.31-.67-1.45-1.38-.7-1.37Zm-.35,1.47a5.65,5.65,0,0,0,3.89.9c2.22-.08,2.62-.35.74.64-1.73.92-4.4.75-4.91-.24-.3-.57-.11-1.25.28-1.3Zm10.78,1.33h0c.18,1.21,2.19,2.3,3.16,2.56,2,.91,5.31,0,7.77-1,1.79-.77,2.44-1.94.3-1.28-3.43,1.07-7.75,1.15-9.91.32a6.69,6.69,0,0,0-1.3-.55Zm-11.32,4.49c4.3,1,9.5,7.61,9.49,10.51H59a14.1,14.1,0,0,0-8.15-9.42c-.24-.9.07-1.11,0-1.09Zm-.06,1.87a13.53,13.53,0,0,1,7.69,8.64H57a11.57,11.57,0,0,0-6.21-7.13,3.43,3.43,0,0,1,0-1.51Zm0,2.26c2.62.78,4.93,4.22,5.59,6.38H55.08a7.81,7.81,0,0,0-4.33-4.83,3.87,3.87,0,0,1,0-1.54Zm0,2.35a5.78,5.78,0,0,1,3.61,4h-1.2a6.77,6.77,0,0,0-2.41-2.89v-1.14Zm.12,2c.14-.08,2,1.57,1.66,2H50.89c0-.51,0-2,0-2Z"/><path class="cls-4" d="M97.73,21.67c-3.12,6-19.12,33.24-19.28,34.18l4.1,1.81,19.89-35.85-4.71-.14Zm47,22.72L142.83,47l1.58,2.86L146,47ZM71.62,71.67s-5.74,5.7-8,8.36c4.82,4.81,14,10.84,14.09,20.13l6.36,0,20.55,18.39s18.61.13,19,.06,7-9.56,7-9.56l11.79,8.6s-.56-9.26-1-14.94c-.15-3.79-.27-6.12,2.5-7.81-3.81-1.82-3.57-5.15-.76-7.61-.93-1.27-2.31-1.51-2.52-6a11.32,11.32,0,0,0-1.87-1.53l-.76.68c-2.45,2.2-4.11,4.44-4.39,5.9-.52,2.78,2.3,4.68,3.93,2.65.46-.57.87-.41.87.34,0,1.51-1.91,2.37-3.51,1.58a2.21,2.21,0,0,0-.75-.28c-.06.06,1.6,4.12,2,5a11,11,0,0,1,1.19,4.55c.06,1.67,0,1.88-.75,4.77-.74,2.72-.39,4.34.92,4.34.75,0,.72.71,0,1-1.59.56-2.58-.61-2.63-3.12,0-1.52-.06-1.56-.85-1.19-2.72,1.28-5.67-1-4.39-3.4.27-.51.59-.35.75.37a2.13,2.13,0,0,0,2.29,1.94c2.94,0,4.17-4.17,2.48-8.34-.34-.84-.51-.8-1,.27-.7,1.66-1.88,2.15-2.84,1.18-.33-.32-.48-.85-.26-.88l.71,0c1.71-.06,2.3-1.72,1.5-4.21a23.29,23.29,0,0,1-1-3.78,7.27,7.27,0,0,1,.81-5,22.22,22.22,0,0,1,2.41-2.7c1.28-1.28,2.37-2.27,2.37-2.27s-.64-.56-1.52-1.21l-2.16-1.62s-8.75,24-8.13,33.37c-1.11,12.33-10.17,8.92-10.84.38Zm-.39,3.6c3,0,5,3.91,6.08,12.11.37,2.72,2,6.52,3.23,7.42,3,2.27,7.78.52,7.79-2.87,0-4.22-5.92-4.84-6-.63,0,1-.53,1-1,.1a3.16,3.16,0,0,1,.81-3.22c.54-.5.5-.6-.54-1.17-3.6-2-5.13-5-3.21-6.22.85-.56,2,.14,1.47.89C79,82.84,79,83,79.67,84s1.72,1.65,3.92,2.3a17.33,17.33,0,0,1,3,1,4.81,4.81,0,0,1,2.78,6.09c-.21.57-.41,1.15-.45,1.26-.09.27.06.27,1.82,0,2.8-.38,5.92.63,7.45,2.39A8.66,8.66,0,0,1,99.71,102a12.08,12.08,0,0,0,.24,1.73c.13.6.3,1.62.38,2.26.73,6.11,5.81,9.23,8,4.93,1.38-2.71-1.82-5.42-3.44-2.92-.57.88-1.16.47-.83-.57.64-2,3.17-2.37,4.89-.67a4.84,4.84,0,0,1,.93,4.35c-.24.7-.21.74.31.56a4.45,4.45,0,0,1,3.88.76c1.69,1.81,1.35,4-.73,4.69A1.78,1.78,0,0,1,111,116c-.15-.79.39-1,.82-.34.78,1.28,2.5.25,2.1-1.26-.47-1.71-1.93-2.07-4.63-1.14-4.3,1.47-5.69,1.35-7.74-.69-1.47-1.46-2-2.72-2.42-5.5-.44-3.07-.48-3.16-1.24-2.51-3.63,3.1-8.44-1.58-5.36-4.65,1-.95,1.66-.13.8.94-1.25,1.56.38,3.72,2.42,3.22,3.73-.92,3-6.37-1.06-7.64-1.23-.39-4.6-.23-7.2.34C80.22,98.33,77,95.24,75.53,85.22a35,35,0,0,0-1.07-4.55c-.81-3-3.59-4.61-5.1-3-1.21,1.3-.57,3,1.11,3s1.16,1.15-.59,1.31c-3,.27-3.55-4.78-.65-6.22a4.72,4.72,0,0,1,2-.55ZM31.67,77.13l.94,3.59,3.75,1.06-1.19-3.41Zm9.61,1.07-1,3.25,2.84-.69L44,77.37Zm30.81,5.32A1.08,1.08,0,1,1,71,84.6a1.07,1.07,0,0,1,1.08-1.08ZM36,85.46l-3,1-.58,2.57,3.09-.8Zm7,.81-2.41-.41.68,2.66,2.55,1Zm104.73-.2-1.55,1.21c4.52,3.93-.36,7.72-.51,7.46,3.27,2.17,2.69,5.58,2.26,8.7-.77,5.58-1.07,10.85-1.92,16.56a44.68,44.68,0,0,0,6.56,3.77c.05,0,0-33.52,0-33.52ZM92,91.12a1.08,1.08,0,1,1-1.07,1.08A1.08,1.08,0,0,1,92,91.12ZM25.83,93.88,26,125.16l6.48-11.58L28,108.44l3.85-4.11Zm63.06,4.76a1.08,1.08,0,1,1-1.07,1.08,1.08,1.08,0,0,1,1.07-1.08Zm14.7,3.21a1.08,1.08,0,1,1-1.08,1.07,1.07,1.07,0,0,1,1.08-1.07Zm42.12,34.85,4.76,4.88-3.72,4.63,5.85,9.93-.09-30.72ZM25.77,126.42,26,160.07l5.09,3.72,1.29-1.22c-3.29-3.51-1.33-6.12,1.15-7.63-4.37-1-3-6.8-2.78-9.49-.11-5,1.72-10.66,1.16-15.45Zm29.3,4.68-7.29,10.16s-8-6.07-12.05-8.81c.43,4.39.82,10,1.36,14.7,1.31,6.88-2.1,7-2.13,7.65,5.42,4.12.87,8,.06,7.77,2.88,1.57,2.64,6.35,2.64,6.35l1.37.78s.45-.28.64-.38a12,12,0,0,0,4.39-5.44c.93-3.15-1.8-5.75-3.51-3.37-.84,1.17-1.52.39-.83-1a2.66,2.66,0,0,1,3.37-1.26c.64.34.5-.55-.49-3a27.76,27.76,0,0,1-1.06-3.57,10.74,10.74,0,0,1,.5-6.1c1.13-3.13.73-5.1-1.07-5.28-1-.09-1.06-.39-.28-.83,1.75-1,3.44.42,3.37,2.8,0,1.29,0,1.31.66,1,3.44-1.38,6.16,2.19,3.76,4.94-.74.84-1.2.3-.72-.83.75-1.73,0-3-1.71-3-2.55,0-3.95,3.5-2.95,7.35.31,1.21.36,1.23,1.2.42s1.31-.94,1.89-.77c1.2.36,1.52,1.64.37,1.48-2-.27-2.51,1.8-1.38,5.5,1.48,4.89,0,8.88-4.42,11.72-.23.14-.58.42-.58.42a29.2,29.2,0,0,0,5,3.73l8-32.34s-.14-1.83-.33-2.69c0-8.68,8.09-9.52,10.62-1.64A19.25,19.25,0,0,0,65,140.32l42.16,37.42s7.87-7.61,7.76-7.81c-6-6-14-10.29-14.35-19.85-1.43,0-6.22,0-6.22,0l-20.5-18.81c-6.44,0-12.14-.42-18.82-.22Zm11.49.7c1.12,0,2.26.55,2.26,1.49s-.54,1-1,.34c-.62-.91-1.35-1-2.09-.21-2.06,2.17,1.14,4.14,4.81,3,2.25-.71,3.34-.9,4.17-.74,3.47.7,5.15,3,5.45,7.61.14,2.32.14,2.31,1.14,1.39a3.83,3.83,0,0,1,6.53,2.3,3.09,3.09,0,0,1-2.74,3.2c-.56,0-.47-.59.14-.89a2.32,2.32,0,0,0,.1-3.93c-1.9-1.2-4.4.68-4.37,3.29q.06,4.69,7,4.31l3.77-.18c2.21-.1,4.59-.51,6.84,1.19,2.35,1.87,3.92,5.6,4.59,11,1,6.63,1.86,8.4,4.09,8.56a2.33,2.33,0,0,0,2.44-2.33,1.72,1.72,0,0,0-2.14-1.43c-1.12.37-1.35-.84-.25-1.3,1.52-.64,3.39.59,3.8,2.5.24,1.12-1,3.26-2.34,3.79-3.44,1.4-5.89-1.45-6.7-7.82a37.87,37.87,0,0,0-1.68-7.38C98.71,154.92,96,153,93,154.4c-3.38,1.55-2.71,6.62.88,6.59,2,.15,2.38-1.29,2.42-2.85,0-1.14,1.34-.07,1.46.72a3.55,3.55,0,0,1-1.51,2.7c-1.22.82-.79.76.46,1.09,3.36.62,5.86,5.07,3.85,6.58-1,.63-2.15-.3-1.43-1.22,1.15-1.47-.8-3.78-4.34-4.55-4.64-1-6.49-4.47-4.81-8,.55-1.18.6-1.15-1.66-1-5,.28-6.75-.41-8.43-3.29-.5-.88-.72-2-.83-4.36-.19-4.14-.57-6.71-1.09-7.43-2.59-3.57-8-2.5-7.3,1.45a2.23,2.23,0,0,0,4,1.23c1.1-1.14,1.62-.08.54,1.12-2.6,2.88-7.13-.48-5.78-4.3.31-.87.35-.84-1.32-.89-3.71-.1-5.48-3.28-3.09-5.54a2.41,2.41,0,0,1,1.6-.61Zm9,13.64a1.08,1.08,0,1,1-1.08,1.08,1.08,1.08,0,0,1,1.08-1.08Zm14.92,3.82a1.08,1.08,0,1,1-1.08,1.08,1.08,1.08,0,0,1,1.08-1.08Zm-3.2,7a1.08,1.08,0,1,1-1.08,1.08,1.08,1.08,0,0,1,1.08-1.08Zm47.42,4.19.68,3.18,2.47.66-.38-2.73Zm8.65,1.1-.05,1.89,2.2.26.77-3.26Zm-36.92,2.85a1.08,1.08,0,1,1-1.08,1.08,1.09,1.09,0,0,1,1.08-1.08ZM138,168.82l-2.58.72-1.25,3.59,3.31-1.2Zm5,.33.33,2.66,3.18,1.44-1.08-3.8ZM96.07,191.82,76.3,227.56l5.41-.07,18.66-33.7Zm-62.18,8.65-1.75,2.35,1.66,2.73,1.91-2.74Z"/><path d="M12.4,9.05a5.76,5.76,0,0,0-5.57,4.84,35.81,35.81,0,0,0-.26,5.38A40.38,40.38,0,0,1,6.44,24l-2.19-.06.12,2.85,2.33,0a9.14,9.14,0,0,0,0,1.77c.19,4,.82,5.43,3.08,6.5,1.54.73,4.37.72,5.66-.28.77-.5.85-.49,1.77.08a4.17,4.17,0,0,0,3.58.55l0-2.91c-3.09,0-3.51-.77-2.69-2.79a3.47,3.47,0,0,0,.08-.74c.23-3.24.14-14.16-.22-15.46A5.8,5.8,0,0,0,12.4,9.05Zm-.27,2.86a3,3,0,0,1,2.76,2.16c.55,1.48.54,1.35.7,10.47C15.67,29,15.48,29,15.48,29a13.33,13.33,0,0,0-6.29-4.77s0,.21,0-4.21,0-5.56.69-6.75a2.55,2.55,0,0,1,2.25-1.38Zm55.36,8.87c3.64,11,4,21.91.82,32.36a44,44,0,0,1,14,4.78C81.48,60,69.23,75,60.91,81.84c2.37,2.34,5,4.68,7.7,7.26,4.14,3.92,5.6,6.63,5.87,11.72A14.19,14.19,0,0,1,72,108.47,17.36,17.36,0,0,1,67,113c-2.32,1.54-5.72,4.85-10,9.74-1.64,1.87-4.39,5.26-6.66,8.5-.87,1.17-3.4,4.84-3.4,4.84A124.78,124.78,0,0,0,29.21,123.9S38.36,119,40.28,118c1.48,1,3.48.13,2.52-2a14.33,14.33,0,0,1,1.71-13c.55-.83,1.86-1.31,4-1.46.92,0,1.9,0,2.87,0a4.92,4.92,0,0,1,1.82.41c1.73,1,2.08-.27,3.16-4.36s-.66-9.21-3.12-9.22c-.58,0-.9.2-.78,1.65A4.38,4.38,0,0,1,52,92.37a16.77,16.77,0,0,0-1.13,4.94c.36.07-2.29-2.64-6.46-3.71-2.71-.32-4.08-3.69-4-3.7a6,6,0,0,1,.76-1.27,19.29,19.29,0,0,0,2.94,1.28s-.26-1.35-.36-1.72c-.5-1.88-.47-2.17.25-2.56,1.81-1,2-2.7.59-4.28a2.87,2.87,0,0,0-1.13-.86L44.36,77s-.82.17-1.47.37c-1.88.57-1.74.59-2.54-.32-1.75-2-4.42-1.61-4.82.68-.05.26-.16.66-.16.66l-4-2c.12.94,1.16,4.14,1.16,4.14-3.51,2.73-.55,5.15.41,5.4,0,0-.82,2.61-1.1,3.7l4-1.13a3.9,3.9,0,0,0,1.57,1.85c.22,2.24,1.94,4,3.12,5.12a4.36,4.36,0,0,1,.07,1.34c-.25,1.29,1.07,3.35,1.29,3.47-5.44-2.22-11.12-4.9-16.6-7.52l.35,67.31a46.74,46.74,0,0,0,3.8,3c1.22.87,1.22.87,1,1.88-.33,1.32-.25,2.33.88,11,.6,4.6,1.25,9.38,1.83,13.66.34,2.45.27,2.7-.58,2.34a2.92,2.92,0,0,0-3,.63,2.76,2.76,0,0,0,2,4.6,2.39,2.39,0,0,0,1.34-.49c.88-.47.74.1-.48,2-2.74,4.22-2.6,3.65-1.44,5.67,2.2,3.86,2.78,4.76,2.92,4.91s.32-.23,1.14-1.75c.45-.8,1.2-2.21,1.82-3.3,1.26-2.2,1.29-1.78-.31-4.67-1.71-3.09-1.75-3.27-.72-2.75a3.78,3.78,0,0,0,1.28.37c2,0,2.43-.91,2.64-2.57,0-2.14-1.69-3.1-4-2.3a3.47,3.47,0,0,1-.78.16L37.29,169l1.31,1,.43-.23-1.15-1c.25-3.76-1-5.1-2.33-6,4.48-2.55,2.54-6.58-.44-7.82,0,0,1.94-1.13,2.33-2.32s.2-2.74-.17-5.72C37,142.23,36,132.72,36,132.72c3.91,3,7.93,6.12,11.71,9.1l7.59-10.53,18.26.12s13.88,12.61,20.87,19l6,.06s.07.64.13,1.07c.57,6.23,4.75,10.5,8.55,13.5,1.55,1.39,5.37,5.05,5.37,5.05l-7.09,7.15L64,138.45s-.2-.56-.29-.91c-1-4.11-3.73-5.83-6.2-5.54s-4.82,2.86-4.71,7.22a15,15,0,0,0,.26,1.86l-7.94,33.07s-3.17-2.42-4.89-3.59l-.37.22,4.64,3.49.35-.14,1.32,1,.1.7c4.07,2.77,11,7.93,11,7.93,3.25-2.42,6.67-1.61,10.1-.7a16.58,16.58,0,0,0,3.82.82,58.45,58.45,0,0,1,19,3.72L67.24,228.07l43.46.09c-2.15-8.46-4.42-17.06-.36-31.5-4.28-.86-13.81-4.68-13.81-4.68s0-.21.36-.71c1.76-2.52,6.22-9.34,10.39-13.29.51-.37,7.78-7.43,7.85-7.65a1.75,1.75,0,0,1,.5-.79c.67-.45,2.46-2.13,2.46-2.13l-9.11-7.9a1.82,1.82,0,0,1-.53-.11c-1.27-.71-3.56-4.67-4.13-7.33-1.3-6.11,1.1-10.94,7.88-15.89,6.61-4.54,19.15-22.11,19.19-22.5,6.76,5.6,12,8.5,18,12.17-3.59,2.06-6.52,3.44-9,4.8-1.63.93-1.86,1.13-3.23.74a1.46,1.46,0,0,0-1.69.71c-.15.45-.17,1.15,0,1.25,2.36,3.73,1.35,12.44-1.85,14.11a9.18,9.18,0,0,1-7.7.24c-1.73-.55-1.7-.56-2.47,1a11,11,0,0,0-.24,10.07c1.28,2.77,3.18,4,3.41.3.14-2.19,1.11-4.75,1.08-7.11a11.21,11.21,0,0,0,6.4,4c2.13.34,4.4,3,4.33,4.1-.59.6-.76,1.35-.86,1.29-1-.34-3.29-1.29-3.29-1.29l1,3.38a2.6,2.6,0,0,1-.62.39c-2.12,1.08-2,4,.24,5.17.45.24.49.35.29,1-.27,1.38-.88,2.32-1.21,3.69a13.37,13.37,0,0,0,2.84-1.16l1-.46.6.64a2.68,2.68,0,0,0,4.27,0l.63-.65,1.76.89c1.66.84,2.1,1,2.1,1s-1-3.72-1.14-4.14a1,1,0,0,0-.43-.52c-.24-.08-.2-.14.43-.64,1.59-1.27,1.76-3,.4-4.34a7.33,7.33,0,0,1-.59-.61l.83-3.44-3.43,1.13a3.83,3.83,0,0,0-2-1.91c-.06-1.55-.25-3.15-2.92-5.58.9-.82-.17-2.8-1.05-4,1.5.51,5.26,2.1,5.26,2.1l.56,0,1.8.86.21.32s5.64,2.66,8.23,3.91c0-.14,0-2.93,0-33.6,0-18.29,0-33.34,0-33.43A11,11,0,0,0,152,89c-1.19-.9-1.44-1.07-2.95-2.08-1.2-.8-1.12-.8-.87-1.73s.28-2.54-.1-5.29c-.28-2-1.31-9.17-2-14.94-.5-4-.62-4.94-.75-5.59a9.2,9.2,0,0,1,0-2.38c5.66,2.46,6.11-5.68.43-4.59,0,0,.66-1.31,2-3.63,1.18-2,1.17-1.82.24-3.46-.44-.77-1.07-1.92-1.41-2.57A19.21,19.21,0,0,0,144.8,40l-4.15,7.22,2.45,5a2.34,2.34,0,0,1-.72,0,2.72,2.72,0,0,0-3.06,3.39A2.41,2.41,0,0,0,142.81,57c1.05-.42,1.05-.52.11,7.41-.27,2.34-1.5,13.3-1.67,14.93-.11,1.1-.18,1.41-.63,1.16a10.07,10.07,0,0,1-1.56-1l-.34.32c.54.43,1.18,1,1.83,1.6-.15,2.9-.09,4.59,2.33,6-4.38,2.75-1.82,7,.75,7.58-1.53.4-3,2.37-2.68,6.29l1.25,16.16-11.88-8.82-7,10-18.37,0L84.27,99.86s-4.54-.06-6.41-.1c.21-.1-.39-5.78-3.38-9.49C71.22,86.4,63.8,80,63.8,80l7.79-7.91,43.74,39.36s.21,1.12.32,1.59c1.46,6.22,8.54,6.59,10,.27a17.24,17.24,0,0,0,.43-3.69,13.93,13.93,0,0,1,.49-2.31c2.35-9.22,4.35-17.17,6.66-26,.32-1.22.66-2.58.75-3,.38-1.8.33-1.79,2.21-.37,1.15.87,1.62,1.17,1.62,1.17l.37-.37c-1.3-1-3.5-2.6-3.5-2.6l0-.67c-7.1-5.09-8.56-6.44-12.77-9.77-3.26,2.87-7.92,1.7-10.83.69-.76-.3-2.6-.78-2.6-.78a62,62,0,0,1-19.7-3.36l23.27-41.44h-9l-.32.35H98.13l0-.35ZM153.29,157ZM94,21.72l3.18.06L78.36,55.37l-2-.78s.19-.1.19-1.52a4.3,4.3,0,0,0-1-3.06c-.57-.78-.82-.82.86-.59a4.42,4.42,0,0,0,4.51-6.17c-.52-1.13-.45-1.2.94-1.34a4.47,4.47,0,0,0,2.61-7.66c-.56-.5-.31-.82.73-.6,3.32.72,5.88-3,4.56-5.83-.42-.81,0-.94.56-1A4.63,4.63,0,0,0,94,21.72Zm-25.37,0H83.38c-2,3,1.51,4.83,2,4.62-3.18,1.73-2.31,4.18-.66,5s4,.08,3.35-3.45l.79-.34c.77.87,1.53,6.24-4.32,5.49-1-.13-1.6.84-.73,1.38,4.62,5.31-2.61,7.66-2.93,6.78l0-.9c2,.36,4.46-2.16,2.26-4.4-1.24-1.27-4.87-.65-4.24,3.21-2.15-3.19-4.48-2.23-5.11-.54A2.54,2.54,0,0,0,76,42c-2.38,2-1.23,4.22.41,4.71,1.81.55,3.65-.19,3.16-3.47,0-.32.65-.21.71-.23,1.86,4.66-2.6,6.38-5,5.41-.89-.35-1.36,1-.41,1.73,1.44,1.07,1,4.13.82,4.16a43.86,43.86,0,0,0-6.37-1.71,57.58,57.58,0,0,0-.67-30.87Zm23.49,0h1.33a4.24,4.24,0,0,1-4.06,4.61,5.48,5.48,0,0,0-.15-1.54c1.22-.27,2.84.07,2.88-3.08Zm5.82.1,4.24,0-20,35.5L79,55.7Zm-10.49,2.7a1.36,1.36,0,1,1-1.36,1.36,1.36,1.36,0,0,1,1.36-1.36Zm-41.69.62c-3.21,8.3-9.37,13.33-13.85,21.68C27.23,55.31,29.38,62.63,36,64c3.49.72,7.56-2.68,8.08-6.37.13-.88.28-1.13.69-1.13.61,0,.54,1.54.16,3.62A25.76,25.76,0,0,1,40.66,71l11.48-.1a20,20,0,0,1-4.51-11.25c-.28-2.54-.07-3.65.74-3.22.27.14.34.4.45,1.71a6.21,6.21,0,0,0,9,5c5.32-2.81,5.18-8.07,4-11.9-3.67-10-11.79-16.63-16-26.17Zm-35.1,3.15A27.79,27.79,0,0,1,14.36,32a3.45,3.45,0,0,1-3.56.53c-1-.53-1.38-1.76-1.47-3.83-.05-1.15.35-1.2,1.34-.36Zm1.66,11A64.36,64.36,0,0,1,8.7,45.91C7.59,48,4.86,51.54,5.59,54.39s4,3.73,5.71,1.44c.79-1.07,1-.94.94.26a7.15,7.15,0,0,1-2.12,4.71l5.8,0c-1.23-1.47-2.34-2.7-2.46-4.7,0-.76.22-1.31.75-.49.6.58,1.11,1.65,2.74,1.35s3.18-2.5,2.84-4.63a18.18,18.18,0,0,0-3.56-7,66.7,66.7,0,0,1-3.9-6.11Zm66.6.74a1.26,1.26,0,0,1,0,2.52,1.26,1.26,0,1,1,0-2.52Zm65.84,1,3.39,5.9-3.86,6.83-3.23-6.55Zm-.06,2-2.38,3.93,2.16,4L147,47.14Zm0,1.69L146,47.07l-1.5,2.41-1.24-2.55Zm-3.28,8a2.09,2.09,0,0,1,.81.18c2.28,1,1.55,4.41-.88,4.2a2.56,2.56,0,0,1-1-.4,2.22,2.22,0,0,1,1.12-4Zm5.57.07a2.21,2.21,0,0,1,1.1,4.11,2.44,2.44,0,0,1-3.13-.79,2.33,2.33,0,0,1,.86-3,2.41,2.41,0,0,1,1.17-.29Zm-2.77,4c.2,0,.42,1,.62,2.66.07.61.26,2.13.43,3.39s.33,2.66.37,3.13a10.11,10.11,0,0,0,.13,1.06c0,.1.11.74.18,1.42s.18,1.63.23,2.14.19,1.59.31,2.4C147.7,81.3,148,84,147.69,84.69c-.73,2.5-4.14,2.69-5.56,1.24-1.08-1.1-1.24-2.3-.82-5.45.25-1.81.35-2.73,1.07-9.66.17-1.62.41-3.78.54-4.8s.27-2.23.31-2.71.16-1.5.26-2.27.35-2.33.42-2.95c.11-1,.23-1.4.37-1.38ZM88.39,62.94s10.93,3.6,19.25,3.44a6.65,6.65,0,0,1,2.93.48c.91.3,2.32.69,3.16.89a11.85,11.85,0,0,0,6.81-.46c.31-.13.77-.52,1.24-.38.28.09.69.66.69.66-7.28,1.93-24.31,1.57-34.92-2.9Zm56.16,1.14c-.05,0-.1.07-.15.16-.18.28,0,2.12.63,8,1.27,11.22,1.26,11.46-.27,12.64-.76.58-.87.81-.51,1s.25.16.8,0c1.29-.35,1.82-1.37,1.81-3.46a36.94,36.94,0,0,0-.52-5.7c-.18-1.35-.41-3.26-.53-4.25-.83-7-1-8.44-1.26-8.4ZM87.29,65.26c10.88,3.89,22.25,5,36,2.89,0,0,1.31.86,2,1.28l-.46.11.2,1.89,2.33-.37s1.26,1,2.2,1.61c-12.22,3.73-32,3.09-44.13-2.32a7,7,0,0,1-.74-.48,4.24,4.24,0,0,1,.91-1.39l2.22.63.64-2-1.7-.62Zm2.85,2.42-.71,2,3.1.92.54-2Zm4.75,1.24-.41,2.27,3.12.58L98,69.56ZM100.06,70l-.25,2.2,3.31.35.2-2.22Zm22.74,0-2.82.31.18,1.93,2.84-.34Zm-5,.56-2.79.18.09,2,2.81-.18Zm-12.58,0v2.15l2.86.11,0-2.2Zm7.87.27h-2.64v2h2.66Zm-30.6.36c.28,0,.93.63,1.2,1.34.53,1.39.29,2.94-.54,3.45-1.13.7-2.45-.4-1.68-1.38a1.22,1.22,0,0,1,.5-.39c.58-.19.71-1.1.4-2.68-.05-.24,0-.34.12-.34Zm4.22.54a76,76,0,0,0,38.92,2.33s-6.53,26.65-6.67,26.66ZM81,71.87c.63,0,.74,1,.18,1.61s-2.08.14-1.79-.76A3,3,0,0,1,81,71.87Zm3.39.61c.13,0,.37.25.76.77,1.32,1.78,1.42,3.77.24,4.68C84,79,83,77.34,84.1,75.9c.3-.37.35-1.06.17-2.59-.06-.54,0-.81.08-.83Zm45.67.65a2.85,2.85,0,0,1,1,.37c.84.42,1.14,1,.73,1.51-.6.71-2.21-.69-1.91-1.65.05-.15.1-.23.21-.23Zm-1.27.93c.22,0,.55.4.95,1.19.25.51.4.65.82.8,1,.37,1.19,1.41.31,1.72s-1.68-.36-2.12-2c-.29-1.11-.23-1.69,0-1.66Zm-42.13.74c.14,0,.43.32.87,1,1.31,2,.86,5.68-.79,6.55A1.36,1.36,0,0,1,84.87,82c-.86-.86-.65-1.54.62-2,1.09-.4,1.44-1.63,1.1-3.88-.13-.9-.14-1.34,0-1.35Zm6.27.62c8,6.63,15.3,13.74,24.67,22,2.22-6.84,5.46-21,5.47-21.09-.36.29-15.72,2.47-30.14-1Zm30.14,1s0,0,0,0v0Zm5-.94a4.91,4.91,0,0,1,.74,1.9,4.63,4.63,0,0,0,1.31,2.26c1.58.27,2.26,1.15,1.47,1.94-.57.57-1.81.25-2.41-.63-1.13-1.66-1.9-5.47-1.11-5.47Zm-89.75.91a2.14,2.14,0,0,1,2.11,1.86c.26,1.44-.56,2.49-1.25,2.33s-1-1.48-1-1.48a5.36,5.36,0,0,1-.49,1.47c-.68,1-2.09-.5-1.84-2a2.51,2.51,0,0,1,2.47-2.19Zm57.25.38a96,96,0,0,0,26.75.52l-4.93,19.13Zm-6.62,0q.19,0,.81.69c1.36,1.43,1.76,3.43.87,4.42-.54.61-.9.67-1.47.28-.73-.5-.79-1.25-.12-1.6s.68-1,.19-2.34c-.36-1-.47-1.46-.28-1.45Zm-57.15.49L35,78.58l1.15,2.71-3.19-.83Zm12.11.36-1,2.69-2.47.93,1-2.92Zm83.48.57c.12,0,.3.34.51,1,.53,1.75.76,2.18,1.24,2.41a.9.9,0,0,1,.1,1.67c-.48.22-.63.17-1-.27a6.5,6.5,0,0,1-1-3.18c-.08-1.1,0-1.67.13-1.67ZM91.71,79.39c.09,0,.23.13.43.38,1.25,1.47,1.38,3.74.27,4.42s-2.59-.7-1.65-1.48l.44-.35c.26-.2.28-.32.31-1.6,0-1,0-1.35.2-1.37Zm9.45.16,15.32,13.93L120,79.7a110.07,110.07,0,0,1-18.84-.15Zm-37.64.7C68.36,85.36,74.7,89.5,76.2,94.58a16.85,16.85,0,0,1-5.6,19.76,59.49,59.49,0,0,0-9.73,8.76c-4.67,5-7.78,10.38-10.89,14.32-.53.66-1.92,2.74-1.92,2.74s-.68.78-3-1.13a109,109,0,0,0-18.84-13L29,124.52a124.06,124.06,0,0,1,18.11,12.54s4.79-7,6.32-9a90.68,90.68,0,0,1,5.84-7c5.27-6.5,10.72-8.66,13-12A14.3,14.3,0,0,0,73,93.7C70.29,89,65.06,85.84,61.58,82Zm45.95.38h6s-.88.73-1.56,1.18c-.42.29-.92.25-1.85-.14s-2.58-1-2.58-1Zm6.85,0,1.4,0A22.39,22.39,0,0,1,114.21,84c-.19.07-.28.1-.71,0-2.86-1-5.49-2.15-8.28-3.29h2.49s1.2.38,3,1.12c2.06.86,2.6,1.12,3.39.6s1.4-1.28,2.23-1.76Zm2.83,0-.5,1.84a32.74,32.74,0,0,1-3.93,3.42c-.33.18-.32.21-1.77-.35-5.32-2.07-7.9-3.41-7.9-3.41l-1.08-1s1.39.4,2.31.76l2.36.9c.68.25,2.18.88,3.18,1.28,2.3.91,2.18.94,4.38-1a33.58,33.58,0,0,1,3-2.46ZM38.5,80.8l2.32,2.66-3.1,2.61-2.34-2.76Zm88.16,0a11,11,0,0,0,1.76,3c.65.63.81,1.11.42,1.46-1,.63-1.18-.38-1.49-1-.55-1.17-1.22-2.74-.69-3.44Zm-84,.27h.18c2.47,0,3.06,3.7.73,4.58a2.27,2.27,0,0,1-2.32-.35c-.5-.5-.57-.93-.23-1.19a4.38,4.38,0,0,1,1.82-.41A16,16,0,0,1,41.14,83c-1-.58-.14-1.89,1.5-2Zm51,0c.14,0,.38.29.72.86,1.25,2.06,1.18,6-.12,7a1.49,1.49,0,0,1-2.09-.18c-.74-.83-.52-1.66.6-2.15s1.29-1.54.85-4.15c-.15-.92-.14-1.37,0-1.36Zm-60.12.07a2,2,0,0,1,1.8.84c.27.43.14.75-.36,1a12.76,12.76,0,0,1-1.74.46,10,10,0,0,1,1.78.46c.83.36.77,1-.46,1.62-2.36,1.13-4.59-1.94-2.64-3.7a2.54,2.54,0,0,1,1.62-.64Zm62.14,1.48h.06a2.27,2.27,0,0,1,1,.87c1.4,1.87,1.65,4.67.45,5.22s-2.18-.62-1.27-1.65c.65-.74.57-1.82-.29-4-.12-.31-.09-.46,0-.48Zm30.42.09c.11,0,.32.44.64,1.34.72,2,1.33,2.83,2.07,2.83a1,1,0,0,1,.68,1.78c-1.45,1-3.34-1.46-3.48-4.55,0-.93,0-1.4.09-1.4Zm-7.63,1L118,85.33s-1,1-1.69,1.56c-1.11,1-1.39,1.16-2.27.86-1.36-.46-2.71-.89-4.12-1.32l-3.27-2.71,7.46,2.92s.65.19.88,0c1-1,2-1.73,3.44-2.9Zm7.05,1.53c.09,0,.19.09.25.39.34,1.54.83,2.65,1.24,2.82a.8.8,0,0,1,.51,1.13c-.63,1.34-2.31-1-2.31-3.25,0-.63.15-1.06.31-1.09Zm-27,.11c.09,0,.24.13.47.36,1,1,1.34,3.88.51,4.71-1.2,1.2-2.48-.58-1.32-1.83.31-.33.31-.35.24-1.81,0-1-.06-1.43.1-1.43ZM36,85.62l-.8,2.68L32.57,89l.61-2.2Zm3.1.27a1.08,1.08,0,0,1,.68.25,2.33,2.33,0,0,1,.64,3A2.21,2.21,0,0,1,38,90.27,2.13,2.13,0,0,1,36,88a2.2,2.2,0,0,1,.74-1.66c.3-.22.56-.13.82.31s.67,1.41.67,1.41a8.58,8.58,0,0,1,.16-1.52.8.8,0,0,1,.7-.66Zm2,.24,1.87.64.74,2.54-2.1-.82Zm106.59.47a22,22,0,0,1,3.09,2.25c.64.51,1.72,1.48,1.72,1.48l-.06,33.14a65.81,65.81,0,0,1-5.69-3.37c-.34-.37-.18-1.41-.05-3.3.58-5,.83-8.76,1.46-13.36.45-5.12,1.43-6.59-2-8.76,3.68-2.31,2.64-5.91.33-7.41Zm-30.06.13-.34,1.51c-1.22,2.08-2.3,2-4.16,1l-2.23-1.9a36.77,36.77,0,0,1,3.63,1.21,1.25,1.25,0,0,0,1.45-.37c.57-.52,1-.9,1.65-1.46ZM101,87.52c.76.83,1,1.64.89,3.65-.14,1.43-.08,2.49-1.25,3.29a1.93,1.93,0,0,1-2,0c-1-.71-.47-2.13.92-2.2.88,0,1.24-2.89.74-4.68-.08-.28-.06-.46.08-.47s.39.14.63.4Zm23.71-.11c.17,0,.48.44.66,1.15a2.59,2.59,0,0,0,1.19,1.9c.73.38,1,1.09.5,1.51-.93.85-1.88-.17-2.19-2.32,0-.24-.44-2.21-.16-2.24Zm20,.36A3.11,3.11,0,0,1,147.93,91a3.38,3.38,0,0,1-2,3.09c-3,.9-4.7-1.14-4.68-3.12a3.32,3.32,0,0,1,3.43-3.21Zm-41.85,1.15c1.74,1.74,1.82,5.47.11,5.47-2-.67-.45-1.88-.41-2.2a8.07,8.07,0,0,0-.43-3.31c-.14-.7.54-.17.73,0Zm42-.17c-.37,0-.34.36.34.93a1.67,1.67,0,0,1-.93,3c-.71,0-.88.48-.26.73,2.39,1,4-2.68,1.88-4.19a2.21,2.21,0,0,0-1-.47Zm-91.46.49c1.92.65,2.59,4.32,2.66,5.61.09,2.25-1,5.94-1.9,6.67-2.41,1.91-3.55-4.82-1.48-9.16a2.76,2.76,0,0,0,.32-1.72c-.08-.87.07-1.39.4-1.4Zm63.6.35a12.09,12.09,0,0,1-.5,1.7c-.3.7-.52.72-1.21.12-.39-.32-1-1-1-1,.61.1,1.15.41,1.66.16a2.84,2.84,0,0,0,1.08-1Zm7.3.06c.14,0,.32.39.55,1.15.63,2.08,1.18,2.86,2,2.86a1.05,1.05,0,0,1,.38,2.07,1.68,1.68,0,0,1-1.25,0c-.93-.25-2.2-3.38-2-5,.09-.75.19-1.13.32-1.12Zm-84.7,1.21c.5,0,.7.23,1,.85a5,5,0,0,0,2,2c1.81.89,3.71,1.59,5.5,2.48,2.31,1.16,4.39,4.72,3,5.09a5.31,5.31,0,0,1-1.64.08,2.86,2.86,0,0,1-.74-.87,9.84,9.84,0,0,0-6.08-4.21C40.36,95.69,38.44,93,38,91.8c-.11-.32-.11-.57.18-.66a6.31,6.31,0,0,1,1.33-.28Zm65.3.21c.1,0,.24.11.45.34,1.28,1.36,1.44,3.88.29,4.58s-2.34-.5-1.36-1.58c.43-.48.43-.48.43-1.91,0-1,0-1.4.19-1.43Zm18.61,1.6c.16,0,.39.43.67,1.26.39,1.19.44,1.28.89,1.52.77.39.89,1,.33,1.54-1,1.05-2.1-.64-2.1-3.35,0-.66.08-1,.21-1Zm-16.71.19a1.43,1.43,0,0,1,.57.46c1.56,1.85,1.25,6.2-.5,6.86-.58.21-.76.23-1.12.07-1.3-.57-1.15-1.94.46-2.81,1.2-.65.34-4.57.59-4.58ZM26.65,94.22l6.47,3.21s1.77,3.73,2.59,5.13c.55,1,1.68,1.91.52,2.56-1.95,1.32-3,2.07-3,2.89,0,.66.84,1.33,1.94,2.64,1.6,1.87,1.58,1.44.14,4.3a32.24,32.24,0,0,0-2.05,6.55l-6.54,3.36a40.45,40.45,0,0,1,6.8-11.42,30.46,30.46,0,0,1-5.18-4.84,38.7,38.7,0,0,1,4.36-4.42,28.87,28.87,0,0,1-6-10Zm81.79.06h0c.27,0,.89.69,1.44,1.78.7,1.39.76,3.15.14,3.78-1.08,1.07-2.48-.31-1.47-1.46.71-.51.51-1.8,0-3.13-.26-.65-.26-.94-.1-1Zm-82.5.63a60.65,60.65,0,0,0,5.49,9.23l-4.21,4.42a43.86,43.86,0,0,0,5.07,5c-2.7,3-4.48,7.23-6.26,11.21Zm96.78.07c.15,0,.36.45.57,1.32.27,1.1.45,1.38,1.09,1.66,1,.43,1,1.42,0,1.77-.36.13-1-.24-1.33-.72a5.18,5.18,0,0,1-.56-2.46c-.06-1,0-1.58.19-1.57Zm23.34.67c1.59.44,2.16,2,1.85,5-.41,4-.9,8.34-1.3,12-.45,4.19-.72,6.36-.82,6.53-.33.52-.38-1.45-.14-3.64.35-3.12.55-5.86.85-9,.68-7,.51-9.14-.75-9.79-1-.5-1.39-.2-.67.48,1.37,1.05,1.33,1.49-.14,18.6-.15,1.77-.21,3-.21,3l-1.85-1.16s-.15-1.46-.32-3.68c-.42-4.17-.66-8.62-.94-12.62-.3-4.26.5-5.75,3.14-5.86a4.32,4.32,0,0,1,1.3.13Zm-34.14,2.48c.2.56,1.12,4.77-1.24,3.56a.85.85,0,0,1-.2-1.45,3,3,0,0,0,.38-2.71,13.61,13.61,0,0,0-.35-1.38c.46.17,1.35,1.83,1.41,2Zm-70.2-1.32a11.2,11.2,0,0,1,5.6,3c.88.93.83,1.68-.54,1.77s-1.35.41-2-.14a3.42,3.42,0,0,0-1.46-.86c-2-.31-3-4-1.62-3.77Zm80.61,1.1a11.83,11.83,0,0,1,.41,1.48c.3,1.33,1.21,2.32,2,2.2.55-.07,1.32.1,1.4.76a1.09,1.09,0,0,1-.74,1.33,1.92,1.92,0,0,1-2-.44c-1.23-1.16-2-4.93-1.06-5.33Zm-9.61,0c.72.28,1.64,2.57,1.73,4.39,0,1.3-.2,2.94-1.33,3.56a1.24,1.24,0,0,1-1.77-.44,1.34,1.34,0,0,1,.72-1.92c1-.45,1.32-2.48.71-4.46,0-.33-.53-1.27-.06-1.13Zm-76.29,1,5.27,2.67a13.34,13.34,0,0,0-1.78,3.13,23.36,23.36,0,0,1-3.49-5.8Zm78.28.92c.09,0,.39.28.65.54,1.32,1.27,1.89,3.59,1.09,4.44-.63.67-1.74.62-1.93-.09a2.78,2.78,0,0,1,.47-1.31,4.37,4.37,0,0,0-.08-2.76c-.17-.44-.32-.82-.2-.82Zm-36.62.52,6,.21,20,18-1.87,0-18.34-16.7h-5.7Zm-34.31,3.24a14.38,14.38,0,0,0-1.5,12.21c1.06,2.88-1.25,3-2.2,1.16a13,13,0,0,1-.93-6.5c.32-4.24,2.27-8.49,3.84-9s1.24,1.56.79,2.14Zm81.75,8.7c-.61,2.82-1.73,4.23-3.32,4.81-6.51,2.41-9.35-10.72-3.31-13.87,5.76-1.91,7.43,5.32,6.63,9.06Zm-47.8-8.59,5.62.12c5.12,4.66,10.62,9,16.1,14.66H96.8l-1-.91c-5-4.42-8.62-8-13.39-12.14l-5-.14Zm42.85.87c-3,.12-3.28,4.24-3.19,5.79.22,2.25,1.11,5.57,4,5.31,2.09-.21,3-2.69,2.86-5.66-.18-2.8-1.32-5.44-3.64-5.44Zm-43.36,1.36,4.92.12c4.35,3.78,8.94,7.9,13.5,12.43H93.49s-.56-.53-.73-.71c-3.69-3.33-7.45-7-11-10l-5.11-.2Zm43.44.16c.86.32,1,2.43.25,3.3-.51.59-1.7-.54-1.8-2a1.25,1.25,0,0,1,1.55-1.34Zm-81.45.27a26.35,26.35,0,0,0-.82,4.53l-2.06-2.62Zm83,2.52a.92.92,0,1,1-.91.92.92.92,0,0,1,.91-.92Zm-41.41.46,9.82,9.23-2.79,0-8.06-7.3-5.11-.19,1-1.74Zm38.2.16a.91.91,0,1,1-.91.91.91.91,0,0,1,.91-.91Zm11.69,0a190,190,0,0,0,21.47,14.64,9.56,9.56,0,0,1-2.57,1.39,122.83,122.83,0,0,1-18.49-12.38c-4.4,6.47-12.84,18.24-20.35,23.68-4.74,3.39-7.12,7.56-7.11,12.45,0,5,1.8,8.34,6.77,12.47,3.2,2.67,6.71,6.08,6.71,6.08l-1.84,1.58c-.31,0-5.38-4.4-10.51-9.55-2.82-2.83-4.08-9-3.59-12.4.65-4.55,2.17-7.82,6.49-11.34a47.75,47.75,0,0,0,4.8-3.74c13.42-14.36,18.22-22.88,18.22-22.88Zm-9,2.35c.51,1,.79,2.41-.8,2.5-.94.06-1.48-1.52-.67-2.91.62-1.1,1.17-.17,1.47.41Zm-47.31-.28,5.3.16s5.22,4.56,7.86,7.08h17.76c9.77,0,17.8,0,17.84.08s-1.26,2-1.26,2l-58.57,0s3.62-3.22,4.91-4.12a29.44,29.44,0,0,0,6.16-5.22Zm-35.89,2.2A21.1,21.1,0,0,0,39.88,118l-4.06,2.16a46.16,46.16,0,0,1,2.7-6.32Zm112.91,11.76A45.34,45.34,0,0,1,146,135.64c-.51.66-.85,1.16-.85,1.16l5,4.77-4.33,4.6a28,28,0,0,1,5.56,9.48,37.17,37.17,0,0,1-5.48-2.59c-.68-1.71-1.38-3.53-2.15-5.1-1.76-3.57-1.74-3.23-.3-4.28,2.11-1.54,2.74-1.89,2.19-2.67-.38-.55-2.87-3.5-3-3.59s-.13-.58.3-1.28a39.39,39.39,0,0,0,3.35-8Zm.95.18.13,30.06c-1.79-3.59-3.64-7.26-5.71-9.55-.08-.16,4.51-4.64,4.51-4.64-1.68-1.56-2.67-2.49-5-4.66,2.29-3.29,4.1-7.61,6.09-11.21ZM26,126.77l5.71,3.32c-.3,4.24-.68,9.8-1.27,15.45-.49,4.41-.69,6.44.09,7.66A9.57,9.57,0,0,0,33,155.06c-3,1.22-4.15,4.81-.79,7.49a13.42,13.42,0,0,0-1.18,1l-4.69-3.51Zm89.4,1.52a34.83,34.83,0,0,1-5.37,5.1,32.28,32.28,0,0,0-5.34,4.45s-3.37,0-5.64-.11l-7.86-7s.28-.1-10.41,0c-13.81.12-25,0-25,0l1.57-2.2Zm28,1.38A25.08,25.08,0,0,1,140,136.6a16.79,16.79,0,0,0-1.29-4.44Zm-111,.8.68.48s-.41,5.19-.54,6.71c-.24,2.8-.36,5.33-.6,8.19-.5,5.67-.42,6.51.7,7.38.85.65,1.44.36.68-.46a2.28,2.28,0,0,1-.65-1.58,23.34,23.34,0,0,1,.06-4.3c.85-15,1-15.49,1-15.49l1.71,1.1c-.1.23,1.57,15.11,1.4,18.81-.2,4.32-6,3.37-6.3.16-.11-.74,1-12.88,1-12.88Zm47.48.87,2.28.07,14.1,13,4.8.11-.42,1.63H96.08Zm8.74,0h2.21L99,138.65l5,.08-.94,1.41L98.06,140Zm-2.76,0L97.87,142.1l4.06.21-.62,1.47-4.82-.14-13.4-12.26Zm-11.5,0h2.48l18.64,16.78,4.89.09-.08,1.51-5.87,0Zm62.74.47c1,.25,1.47,1.2,2.16,4.74.81,4.12-.94,10.81-3.14,12.07-1.13.89-2.37,0-1.57-1.22,2.62-3.81,3-10,1.42-13.51-.49-1.12,0-2.28,1.13-2.08Zm-79.09.62c6,.07,7.5,12.31,1.63,14-3.8.56-5.76-2.88-6.31-6-.66-3.86,1.05-8.07,4.68-8Zm-3.28,7.34c.36,2.45,1.88,5.26,4.09,5,2.91-.32,3.27-4.2,3-6.15-.34-2.36-1.64-4.49-3.72-4.61-3.09-.18-3.62,3.85-3.35,5.74Zm3.2-4.76c.83,0,1.44,1.1,1.21,2.47-.15.9-.48,2-1.49,1.25a3.69,3.69,0,0,1-.77-2.61c.08-.62.38-1.1,1-1.11Zm82.13,2.83,2.8,3.23-3.17,2.23a14.9,14.9,0,0,0,.37-5.46Zm-80.1.29A.92.92,0,0,1,60,140a.92.92,0,1,1,0-1.83Zm-3.27.56a.91.91,0,1,1-.91.91.91.91,0,0,1,.91-.91Zm1.85,1.18a2,2,0,0,1,1,.92,2.3,2.3,0,0,1,.26,2.53c-.87,1-2.24-.08-2.08-1.68.12-1.18.44-1.89.83-1.77Zm7.81,3.57a1.21,1.21,0,0,1,.55,2.3c-.73.48-.9,2.08-.44,4.29.36,1.59.17,1.84-.78.4-1.63-2.6-1.21-7,.67-7Zm-3.06.83c1.15,0,1.52.84.84,1.51a2.73,2.73,0,0,0,.09,2.53c.62,1.37.47,1.78-.68.46-1.61-1.71-1.58-4.44-.25-4.5Zm75.84.67a30.06,30.06,0,0,1,3.5,6.55l-5.64-2.6Zm-82.47,7c-.4-.46-.6-2-.92-2.6s-.48-1.21-.89-1.19c-2.39.2-2.29-2.08-.92-2.51,2.84-.89,3.87,5.95,2.73,6.3Zm11.83-2.3c-.41,1.19-.11,1.91,0,3.19.07.57.1.73-.37.28-1.14-1-1.73-4.35-.72-5,1.37-.84,1.79.58,1.12,1.51Zm56.54-1.6a1.66,1.66,0,0,1,1.49,1.2,14.24,14.24,0,0,1,.18,5.41c-.34,2.28-.89,4.37-1.12,5.93-.8.95-2.76-2.41-3-5.06-.31-2.1.42-6.47,2-7.39a1,1,0,0,1,.37-.09Zm7.62.36c.49,0,.38.14.75.52a2.77,2.77,0,0,0,1.56,1c1.62.51,3.4,2.77,2.71,3.45-.54.44-2-.38-2.52-.55l-1.5-.51c-1.36-.46-3.31-3-2.7-3.47a4.13,4.13,0,0,1,1.7-.41Zm-3.95.41c1,0,1.28.26,1.85,1.34a7.23,7.23,0,0,0,4.73,3.38c2.93.89,5.45,2.59,5.33,5.73a7.57,7.57,0,0,0-2.1.27,6.36,6.36,0,0,0-4.56-4c-4-.91-7.72-5-6.66-6.58a2.86,2.86,0,0,1,1.41-.16Zm-69.06.2L94.3,179.14c-14.59-5.41-28-5.29-40.93-3.29Zm14.75,2c-.06.94-1.35,1.14-1.62,1.37-.64.56-.56,2.18-.28,4.08.21,1.13-.07,1.09-.67.19a7,7,0,0,1-.34-5.92c.91-2.08,3-1,2.91.28Zm-19.89-1.48c1.33.14,1.69,1.94,1.74,3.14,0,1.65-.46,1.59-.73,0-.12-.7-.34-1-.91-1.14-1.29-.39-1.37-2-.1-2Zm16.07,1.85c-.34.37-.35,2.12,0,3.29.17.65-.14.7-.58.19-1.43-1.68-1.57-4.53-.24-5.08,1.08-.28,1.37,1,.86,1.6Zm-15,3.36c0,1.68-.35,1.83-.86.22a2,2,0,0,0-.52-.86c-.94-.64-1.11-1.14-.56-1.69,1.34-1.1,1.92,1.83,1.94,2.33Zm5.05-1.48-4.69,20c11.54-1,16.79-1.17,29.12,1.24Zm14,.34c.7.17,1,1.09.12,2-.27.35-.52.88-.19,2.3.45,1.93-.31,1.31-1.23-.51-.59-1.18-.32-4.16,1.3-3.75Zm-22.08.06c1.25,0,2.42,2,2.43,4.26,0,1.8-.24,1.67-.91-.05-.47-1.14-.85-1.55-1.7-1.85-1.58-.55-1.45-2.36.18-2.36Zm8.47.57,21.72,19a92,92,0,0,0-26.1-.46ZM79.2,155c1.7,0,2.37,2.1.28,2.84-1.24.44-.71,3-.48,4.45.09.57-.09.6-.45.1-1.31-1.94-2-6.82.65-7.39Zm-2.3,2.36a2.35,2.35,0,0,0-.13,2c.55,2,.69,2.4-.46,1.37-1.21-1.28-1.74-3.82-.73-4.58s2.17.1,1.32,1.25ZM34,155.76c2,0,3.48,1.29,3.4,3.11a3.25,3.25,0,0,1-3.18,3.37A3.21,3.21,0,0,1,30.82,159,3,3,0,0,1,34,155.76Zm0,.8A2.43,2.43,0,0,0,32.68,161c.82.6,1.47.43.8-.21a2,2,0,0,1,.91-3.56c.82-.18.5-.66-.44-.67Zm28.09.52-2.78,13.47a78,78,0,0,1,17.86-.12Zm-9.36.51c1.39-.07,1.79,2,1.8,2.84,0,1.07-.12,1.62-.32,1-.47-1.35-.93-2.09-1.43-2.09A1.31,1.31,0,0,1,52,159a.84.84,0,0,1,.66-1.38Zm9.62.54,1.83,1.55c-1.18-.51-2.18.82-2.18.82Zm18.84,2.54c-.53.67-.53,2.08-.11,3.72.11.46-.32.12-.75-.42a4.41,4.41,0,0,1-1-3.24c.16-2.51,3.34-2,1.91-.06Zm-29-1.2c1.19.14,1.64,2.61,1.61,3.36s-.22,1.31-.37.84a6.68,6.68,0,0,0-1.48-2.87c-.94-.58-.68-1.25.24-1.33Zm90.74,2.77a2.3,2.3,0,0,1-.86,2.06c-.55.29-.88-.1-1.21-1.11l-.33-1s-.2.93-.27,1.12c-.42,1.29-1.82,1.3-2.4-.13-.63-1.68,1.11-3.39,2.45-3.33a2.56,2.56,0,0,1,2.62,2.42Zm-79.15-1.86a11.11,11.11,0,0,1,2,.72l1.61,1.42s-1.48-.64-2-.83c-1.25-.44-1.22-.44-2.23.38s-1.88,1.47-1.88,1.47l.32-1.83s1.51-1.33,2.15-1.33Zm-10.55,4.48c.23,1.94-.31,2.1-.83.25-.45-1.57-.89-2.15-1.65-2.15a1.2,1.2,0,0,1-.62-2.29c2.38-.67,3,3.43,3.1,4.19Zm81.63-4.23,2.19,1,.47,2.27-2-.5Zm-49.24.21a1.28,1.28,0,1,1,.76,2.43c-1,.24-1,1.77-.7,4,.06.51.2,1.12.17,1.21-.15.4-.66-.21-1.33-1.64-1-2.6-.7-5.5,1.1-6Zm60.43,0-.6,2.64-1.86-.13-.07-1.61Zm-62.59,1.72c-1,1.47-.11,2.83.12,4,0,.68-.83,0-1.33-1-1-2-1.09-3.68-.16-4.41,1.31-.77,1.91.6,1.37,1.39Zm-19.07-.36a6.47,6.47,0,0,1,1.87.59c.78.3,2.57,1,2.57,1l2.38,2.09s-2.09-.77-3.54-1.38c-3.27-1.38-2.8-1.42-5.38.55-.75.56-1.52,1.21-1.52,1.21l.31-1.68a20,20,0,0,1,2.19-1.85c.53-.38.77-.57,1.12-.56ZM34,163a3.35,3.35,0,0,1,3.17,2.77,7.37,7.37,0,0,1,0,2.48c-1.15,8.85-1.66,17.06-2.72,25.25-.13.39-.27.24-.44-.46-1.23-7.43-2-15.58-3.06-22.94-.24-2.74-.95-6.34,2.53-7L34,163Zm-.1,1A2.41,2.41,0,0,0,32,165.12c-.64,1.34-.47,4,.73,12.18.1.68.24,1.81.31,2.51a18.6,18.6,0,0,0,.7,4.2c.4.6.44,0,.16-2.16-.14-1.08-.34-2.73-.43-3.66-.54-3.86-.66-6.6-1-10.12-.17-1.73.52-3,1.83-3.35.71-.19.75-.51.08-.72a1.41,1.41,0,0,0-.47-.07Zm110.59.11a2.43,2.43,0,0,1,1,4.63c-.9.45-2.38.24-2.75-.47a.83.83,0,0,1,.46-1.12,8.85,8.85,0,0,1,1.33-.53s-1.29-.25-1.65-.87c-.79-1.32.65-1.61,1.65-1.64Zm-91.9,3.69c0,.65-.36.38-.44,0a5,5,0,0,0-1.27-2.16c-.56-.44-.69-1-.31-1.43,1.41-1.25,2,3.19,2,3.59Zm82.88-3.7a2.91,2.91,0,0,1,2,.74c.69.69.65.95-.51,1.38-.56.2-.95.37-.95.37s.52.2.91.31c1.12.37,1.06,1,0,1.79-1.39,1-3.63-.35-3.61-2.18a2.23,2.23,0,0,1,2.12-2.41Zm5.15,0,2.23,2.46-2.61,2.7-2.45-2.69Zm-75.82.23h.09c.7,0,1.8.48,4.5,1.57l3.21,1.29L75,169.26a46.7,46.7,0,0,1-4.5-1.64c-.26-.12-.81-.36-1.24-.52l-2.34-.92c-1.85-.75-1.87-.75-2.5-.23-.27.23-.92.74-1.45,1.14l-1.72,1.31c-.49.37-1.11.94-1.11.94l.39-2.08a11.82,11.82,0,0,1,1-.82L63.45,165c.56-.43.85-.69,1.33-.72Zm24,1.83c.06.43,0,.51-.48,1s-.71,1.69-.25,3.05a4.31,4.31,0,0,1,.25.86c-.66.66-2.41-3.53-2-4.78.5-1.49,2.14-1.51,2.48-.15Zm-38.3.18a1.36,1.36,0,0,1,1.25,1.05c.73,2,.28,4.48-.45,2.18a4.52,4.52,0,0,0-.78-1.28c-.26-.27-.84-.59-.82-1a.88.88,0,0,1,.8-.91Zm14.93.06a4.36,4.36,0,0,1,1.38.44c.64.26,2.42.85,3.44,1.24,1.58.61,3.22,1.41,3.22,1.41l-3.57-.19s-1.21-.41-1.93-.7c-2.62-1.08-2.47-1.07-3.77-.09a14,14,0,0,0-1,.93l-1.82.1a17.1,17.1,0,0,1,2.09-1.83c.4-.29.95-.72,1.22-.94a1.05,1.05,0,0,1,.79-.37Zm27.93.7a1.27,1.27,0,0,1,1.47,1.35,1.85,1.85,0,0,1-1.59,1.47,11.12,11.12,0,0,0-.43,4.85c.26,1.15-.23,1.18-.73.07-.8-1.79-2-7.12,1.28-7.74Zm-2.84,2a3.89,3.89,0,0,0-.33,2.76c.26,1.26.31,1.57-.41.78-1.39-1.85-1.59-4.8-.31-5.14a1,1,0,0,1,1,1.6ZM48.8,167.62c2.17.34,2.81,4,2.51,5.61-.58,1.92-.55.62-.75-.18-.53-1.92-1.15-3-1.81-3.08-1.78-.29-1.53-2.61,0-2.35Zm16.63.72h.1c.71.12,2.62.71,1.8.91H64.51c-.55,0,.35-.89.92-.93Zm75.93.61c.27,0,.64.29,1.08.74,1,1,.56,2.63-.8,3.43a2.44,2.44,0,0,1-3.37-3.27c.64-1.18,1.41-1,2.06.7.12.2,0-.21.23-.71s.52-.87.8-.89Zm-3.58.12-.64,2.57-2.59,1.24.95-3.17Zm5.4.43,2.06.17,1.15,3.34-3-1.27Zm-48.82,1.89c1.51.06,1.66,1.48.8,2.1a2.53,2.53,0,0,0-.56,2.21c.05.47.15,1.06.14,1.12,0,.24-.2.2-.46-.09-1.59-1.72-1.38-5.4.08-5.34ZM48.91,172c1,0,2,2.73,1.5,3.77-.33.61-.65.46-.78-.25a1.49,1.49,0,0,0-1.15-1.35c-1.12-.36-.75-2.17.43-2.17Zm48.2,1.65a.94.94,0,0,1,.14,1.68c-.51.36-.64.67-.72,1.65.16,2.24-1.1.82-1.21-1.22-.07-1.1.53-2.75,1.79-2.11Zm-49,.69c.69,0,1.5,1.22,1.32,1.94s-.4.46-.81,0a2.84,2.84,0,0,0-.7-.3.85.85,0,0,1,.19-1.68Zm19.43.94c9.23,0,18.84,1.42,26.83,4.61L93.71,181l-2.1-.72-.72,1.9,1.73.66-.81,1.75c-9.43-3.09-19.59-5.4-36.49-2.9C54.49,181.12,53,180,53,180l1.35-.29-.18-1.88-3.41.61-1-1a74.6,74.6,0,0,1,17.8-2.13Zm31,.41c.88,0,1.43,1,.78,1.42-.45.29-1.46.38-1.66.14-.42-.51.17-1.56.88-1.56ZM66.23,176.8l0,1.95,2.79-.09.06-1.85Zm4.87,0v1.91l2.7.09.13-1.87ZM64,177l-2.73.18.08,1.78,2.72-.12Zm12.23.29-.07,1.84,2.75.31.2-1.88Zm-17.32.09-2.75.35.24,1.83,2.67-.29Zm22.64.6-.27,1.92,2.57.38.32-1.83Zm45,.55a27.34,27.34,0,0,1,3.25,5.15,23.32,23.32,0,0,1,1.76,8.42c0,1.6-1.12,1.28-1.35-.39-1-7-9.41-8.08-12.73-1.59a11.29,11.29,0,0,0-.57,6.71c1.6,9.06,13,17.81,16.6,27.31,6.72-13.77,12.62-15.91,15.68-27.12,2.46-8.62-5.93-15-12-9.44a7.82,7.82,0,0,0-2.26,4.17c-.25,2-1.14,1.72-1.23.06a28.43,28.43,0,0,1,1.78-8.11,22.25,22.25,0,0,1,2.54-5.17ZM86.66,179,86.4,181l2.61.55.35-1.8ZM68.2,181.27a65.22,65.22,0,0,1,23.19,4,11.32,11.32,0,0,1-1.16,2.06,61.29,61.29,0,0,0-18.39-3.77,9.58,9.58,0,0,1-3.2-.39c-4.19-1.37-7.89-2-11.3.07l-1.39-1a79.24,79.24,0,0,1,12.25-1Zm94.7,7.25s.49.66.79,1c1.34,1.61,2.16,4.5,1.27,4.5-.21,0-.32-.2-.64-.51-1.2-1.78-3.61-1.15-4.53.16a5.49,5.49,0,0,0-.33,5.13c2.41,5,7,10.62,6.94,11.27,2.46-5.51,4.48-7.06,6.31-11.09a6.59,6.59,0,0,0,.15-4.69c-.69-2.09-4.06-3-5.25-.86-.4.66-.71.86-1,.59-.54-.55.4-3.54,1.51-4.76a9.21,9.21,0,0,0,.56-.76ZM31.62,192.38c2,0,2.92,3.05.83,4.33a2.18,2.18,0,0,1-1.9,0,2.26,2.26,0,0,1,.16-4.16,2.23,2.23,0,0,1,.91-.18Zm64.72.09c.71.44,3.33,1.6,3.33,1.6L81.28,227.32l-4.45,0ZM37,192.55a2.25,2.25,0,1,1-.08,4.5c-2.23-.12-3.23-4.13.08-4.5Zm63.25,1.73c.5.27,2.28.57,2.44.92a4.32,4.32,0,0,1-.11,1,4.91,4.91,0,0,0,.81,3.16c1,1.46-.09.79-1.14.78-2.36-.61-5.37,2.61-4.23,5.93.26.73.21.79-1.05,1.18a4.59,4.59,0,0,0-2.75,6.65c.72,1.42.74,1.35-.53,1.45-3.52.29-5.56,3.42-4.08,6.61.23.49.08.63-.68.77-2.41.44-3.49,2.45-3.79,4.66l-3.18,0Zm3,1.18,6.11,1.66c-2.54,8.62-2.89,18.63.16,30.22h-14c2-1.75,1.18-4.17-1.1-4.7,2.21-1.27,2.22-4.65-.43-5.05-2.33-.36-3.54,1.85-2.5,4.08l-1,.27a4.37,4.37,0,0,1-.54-.86c-.88-2.57,1-5.11,4.09-5.1,1.94,0,2.34-.54,1.27-1.73A3.87,3.87,0,0,1,96.52,208a2.15,2.15,0,0,1,1.83-.18l.06,1.41s-.47,0-.83.1c-2.76.44-2.24,4.83.56,4.79a2.66,2.66,0,0,0,2.64-2.86v-1.17c1.42,2.42,3.85,2.59,4.89.62,1.22-2.32-1-3.77-3.21-3.53,0,0,.46-.31.75-.46a2.46,2.46,0,1,0-3.32-1.25,7.89,7.89,0,0,0,.31.74l-1.06.27a1.66,1.66,0,0,1-.35-.36c-1.83-2.86,1.1-6,4.81-5.29,1.35.42,1.31-.51.55-1.36-.82-1.22-1.43-2.6-.83-4Zm-69,1.24,3.21,5.65-3.59,6.5-3.56-6.09ZM34,199.64l-2.22,3.06L34,206.22,36,202.66Zm-.1,1.15,1.45,1.94-1.46,2.38-1.42-2.23Zm66.22,6.1a1.22,1.22,0,1,1-1.22,1.22,1.23,1.23,0,0,1,1.22-1.22Zm66.6,6.72a7,7,0,0,0-3,.84c-1.14.59-1.14.59-1.58.29a3.74,3.74,0,0,0-2.64-.88c-.75,0-1.28,0-1.28,0l.11,2.92c2.62-.07,3.34.83,2.79,2.41-.57.72-.44,11-.26,15a6.79,6.79,0,0,0,2,4.95,5.66,5.66,0,0,0,9.3-3.91c.13-3.24.06-6.48.06-9.72l2.08,0,0-2.93-2-.11a20.71,20.71,0,0,0-.06-2.09c.14-4.55-2.19-6.72-5.3-6.84Zm-.17,2.94a2.7,2.7,0,0,1,2.81,2.28,4.82,4.82,0,0,1,.15,2.66c-.38.63-1.87-.47-3.81-2.83-.65-.8-1-1.21-1-1.21a2,2,0,0,1,1.8-.9Zm-3.11,3.94c1.78,1.53,2,3.09,6.23,4.57,0,0,.12-.17,0,5-.08,5.66-.41,6.81-2.12,7.28a2.86,2.86,0,0,1-3.49-1.71c-.62-1.47-.78-4.93-.75-11.51,0-2.39.08-3.59.08-3.59ZM91.51,222.2a1.27,1.27,0,1,1-1.26,1.27,1.26,1.26,0,0,1,1.26-1.27Zm-1.92.86a2.81,2.81,0,0,0,.28,1.6c-1.82.11-2.3,1.51-2.48,2.69H85.76c.27-4,3.72-4.07,3.83-4.28Z"/></g></g></g></svg>