<svg xmlns="http://www.w3.org/2000/svg" viewBox="0 0 178.58 249.45"><defs><style>.cls-1{fill:#fff;}.cls-2{fill:#d41216;}.cls-3{fill:#e1cf01;}.cls-4{fill:#262e5e;}</style></defs><title>QC</title><g id="Слой_2" data-name="Слой 2"><g id="C"><g id="QC"><path class="cls-1" d="M8.5,0H170.08a8.48,8.48,0,0,1,8.5,8.5V241a8.48,8.48,0,0,1-8.5,8.5H8.5A8.48,8.48,0,0,1,0,241V8.5A8.48,8.48,0,0,1,8.5,0Z"/><path class="cls-2" d="M95.4,226.06c.43-6.34.06-13.15.35-18.31-.2-.37.51-1.37.55-1.37a6.9,6.9,0,0,1,0-4.47c4.15-15.82,11.67-28.13,19.41-39.61,6.3,19-13.48,32.28-17.63,48.86-1.39,5.74-1.18,9.75-1.71,14.93Zm-32.88.24L39,190l5.1-2.48,24.19,38.7ZM93,159c.21,1.05,1,1.61,1.9,1.13s1-.5.42.32a1.7,1.7,0,0,0,2.73,2,1.39,1.39,0,0,0,.14-1.91c-.56-.52-.68-.79.14-.39,2.06.83,3.19-2.15,1.2-3.15a2,2,0,0,0-1.89.36c-.46.48-.52.31-.4-.06a9.34,9.34,0,0,1,.29-1,4.81,4.81,0,0,0,.23-.78l-2.1,0s.17.48.34.89.23.66.3.83c.29.57-.06.36-.62-.07a1.64,1.64,0,0,0-2.38.36A2.41,2.41,0,0,0,93,159Zm3-29.56,4.52-.13,5,13.72c-4,6.6-5,14.06-.42,21.61l-14.34,0c3.36-11.39,3.88-23.46,5.27-35.23Zm4.72,17.85a1.58,1.58,0,0,0,.14-2.18c-.7-.82-.54-.87.39-.33,1.35.78,2.64-.9,1.84-2.39a1.78,1.78,0,0,0-2.76-.31c-.52.7-.46.06-.06-.87.15-.35.36-1,.36-1l-2.19.05s.28.62.43,1c.4,1,.42,1.39-.2.71a1.69,1.69,0,0,0-2.92,1.3,1.46,1.46,0,0,0,2.12,1.46c.6-.35.87-.44.2.37a1.71,1.71,0,0,0,.31,2.22,1.92,1.92,0,0,0,2.34-.06Zm-30.29,4.28c.18-.13.24,0,.13.13a6.85,6.85,0,0,1-.52.59c-1,1.13.29,2.58,1.94,2.36,1.13-.16,1.78-1.92,1-2.62-.27-.18-.48-.21-.69-.45,0-.11,0-.17.13-.13s.45.3.6.34a1.61,1.61,0,0,0,2.09-.88,2.13,2.13,0,0,0-.68-2.24,1.6,1.6,0,0,0-2.17.42c-.57.76-.65,0-.18-1a5.31,5.31,0,0,0,.29-.95l-2,.1s.11.44.29.93c.44,1.14.76,1.47.19.88-2.46-1.45-3.27.52-3.32,1.31a1.75,1.75,0,0,0,3,1.21Zm9.85-22.26,3.64,0c-2.74,14.57-8.36,26.78-17.81,35.18l-17.78-.06-8.57-6,3.3-4.31c22.58,2.33,32.2-8.86,37.22-24.85ZM63.91,163.08a1.59,1.59,0,0,0,.8-2.48c-.63-.73-.7-1,.28-.39,1.31.76,2.57-.76,1.93-2.25a1.71,1.71,0,0,0-2.56-.58c-.8.59-.78.32-.37-.61a7.66,7.66,0,0,0,.37-1.21l-2.23,0a9.37,9.37,0,0,0,.32.89c.37.84.51,1.22.34,1.22s-.36-.25-.52-.4a2,2,0,0,0-2.11-.05c-1.34,1.27-.58,3.49,1.11,3.08,1.1-.26,1.35-.68.44.35-1.12,1.27.62,3.1,2.2,2.4Zm-14-.44a1.49,1.49,0,0,0,.71-2.19c-.52-.68-.78-1.13.14-.51,1.23.62,2.3-.2,2.29-1.6a1.73,1.73,0,0,0-2.86-1.26,2.11,2.11,0,0,1-.5.28c-.15,0,.11-.79.41-1.3.13-.23.35-.69.35-.69l-2.23-.08a9.93,9.93,0,0,0,.3,1.07c.36.95.44,1.27-.18.73-1.67-1.57-3.46.43-2.75,2.15a1.4,1.4,0,0,0,2.19.48c.61-.47.29.16-.12.66-1.15,1.36.53,3.06,2.25,2.26ZM151.62,126.1l.12,2.69-28.8,24-1.21-1.85Zm-107.11,5c4.15-2.94,8.76-8.24,13.31-11,3.33,7.64-4.47,15.13-13.31,11Zm76.1-1.93c-4.17-14.31,15.53-13.36,13-10.32ZM27,119.86,55.5,96.62l1.3,1.95L26.73,123.21Zm78.09-23.45c.08.25.94,1.17.94,1.26-.24-.19-1.71-1-2.42-.21a2.73,2.73,0,0,0-.54,1.71,1.69,1.69,0,0,0,2.82.87c.31-.25.56-.57.63-.46a2.44,2.44,0,0,1-.25.9c-.15.36-.73,1.12-.31,1.12h2a4,4,0,0,0-.32-1c-.45-1-.43-1.51.12-.8,1.06,1.37,3.12.23,2.91-1.42a1.55,1.55,0,0,0-2.25-1.31c-.1.07-.38.35-.42.35s.19-.45.38-.83c.65-1.25-.32-2.41-1.81-2.28a2.11,2.11,0,0,0-1,.38,1.66,1.66,0,0,0-.49,1.73ZM129.7,84.75A48.71,48.71,0,0,0,138.26,91l-2.69,4.25c-18.25-1.69-31.51,5.52-37,25.07l-3,.58c1.13-12.19,5.22-24.29,17.3-36.11Zm-17.48,2.93c0,.57,1.07,1.26.83,1.42s-.74-.5-1-.53a1.73,1.73,0,0,0-.46,3.42,2.58,2.58,0,0,0,1.51-.39c.34-.27.57-.5.64-.47s-.17.63-.39,1.06a12.64,12.64,0,0,0-.52,1.19,5.88,5.88,0,0,0,2.4,0s-.22-.68-.43-1.2c-.28-.67-.34-1.09-.15-1s.17.23.34.38a1.78,1.78,0,0,0,3-.89c.38-1.31-1.18-2.65-2.27-1.92-.39.26-.39.06,0-.51a1.74,1.74,0,0,0,0-1.79,2,2,0,0,0-3.36,1.27Zm17.19,3.87c0-.29,0-.21.32.11a1.77,1.77,0,0,0,3-.48c.42-1.32-.86-2.83-2-2.31-.58.27-.59.17-.26-.26A1.65,1.65,0,0,0,129,86a1.61,1.61,0,0,0-1.48,2.42c.26.45.18.55-.29.33-1.38-.67-2.66,1.5-1.65,2.8a1.94,1.94,0,0,0,2.74.08c.42-.4.42-.21.11.62s-.55,1.31-.55,1.31l2.38,0a10.15,10.15,0,0,1-.82-2.07Zm-51,29.25S74.91,111,73.7,106.25c2.62-6.27,6.21-12.35.18-21.37l14.64,0C84,95.09,83.9,121,82.84,121Zm1.28-11.51a4.42,4.42,0,0,1-.77-1.8c-.08-.52.05-.55.32,0,1.3,1.44,3.07,0,3.08-1.23s-1.22-2.17-2.1-1.58c-.61.4-.78.29-.23-.48a1.57,1.57,0,0,0-1.45-2.45c-1.8,0-2.49,1.7-1.2,2.9,1,.89.06.36-.69.05-1.47-.62-2.44.88-1.78,2.39a1.56,1.56,0,0,0,2.58.47c.43-.46.83-.73.6,0a10.69,10.69,0,0,1-.79,1.76ZM82,93.53a5.77,5.77,0,0,1-1-1.9c0-.31.16-.23.66.19,1.57,1.35,3.73-1.07,2.27-2.55a1.26,1.26,0,0,0-1.61-.35c-.73.39-.68.2-.31-.2a1.6,1.6,0,0,0-.08-2.16c-1.6-1.43-4.14.7-2.65,2.23.65.66.34.57-.37.14-1.35-.8-2.84,1.41-1.83,2.71,1.2,1,2.1.51,2.93-.12.18-.1.34-.14.34-.07s-.83,2.11-.83,2.11ZM62.8,87.4c-.9-.06-1.54-8.4-.45-11.05,2.33-11.14,9.44-19.26,13.86-26.09,7.09-10.17,6.21-27.06,6.51-26.39l1,.12s-.78,9.9-.34,14.37c.46,3.94.36,4.18.08,4.57-.08.37,0,1.44,0,1.81C80.27,59.3,72.73,74.28,65,85.58ZM135.73,62,111.78,24.18l5.75-.51c2.14,3.38,22.95,35.66,22.95,35.66Z"/><path class="cls-3" d="M37.09,227c2.73-10-4.65-33.22-9.27-36.25,5.41-.23,11.92-.13,11.72-.64,0,0,23,36.18,22.81,36.37s-25.26.52-25.26.52Zm93.23-56.66c-5.57-.8-3.37-5.42.21-5.9-.46.08.39-2.3,3.28-3.27.65-1.19,1.17-3.22,1.77-4.16-1.73.56-3.84,2-11.71.87.68-3.73,8.22-4.37,10.93-3.79,1.57.36,3.11,2.7,3.59,2.75,4.84-.8,11,3.57,9.12,8-.28.64-1-.75-2.65-1.34-5.26-1.9-5.62-4.75-6.83-6-.44-.08-2.77,4.52-2.77,4.52l.73,3.12c1.26-.11,6.87,3.35-.11,5.7-1.93,6.65-5.57,1.95-5.56-.48Zm13.22-29.7c-.31-.3.23-2.37.94-3.57a2.07,2.07,0,0,1,1.78-1c.92.16.78,1.5-.44,5.43,0,.57-1.31.63-2.28-.88Zm-111-27.51c-1.53,0-.16-4.16.78-5.48.31-.41,1.53.46,1.59,1.07.12,1.07-1.54,4.84-2.37,4.41ZM31.43,84.83a23,23,0,0,1,6.23,3.36c1.75,1.31,1.27,3.87,2.67,4.1,1-.47,2.68-4.67,2.68-4.67s.44-2.15-.8-2.82c-3.07-1.66-3-3.45-2.82-3.6.91-2.36,2.73-1.94,3.71-2.07,0-1.3,0-4,2.65-3.74,2.34.22,2.57,3.56,1.59,3.59,0,0,4.42-.64,4.38,2.29,0,1.59-2.66,3.63-3.48,2.89,0,0,.44,3.16-3.54,4.25-.94,1-1.69,5-1.69,4.62,2.4-2.17,6.16-2.68,12.09-1.9-3.68,6.81-13.84,3.62-14.63,2.31-5.12-1.55-9.91-3.55-9-8.61ZM75.2,68.5c5.41.49,11.32-1.2,15.82-.3.52.07,1.07.82,1.38,1,2.32,1.27,4.76.87,8.5-.54.92-.35,18.06-.22,18.06-.22,3.91,5.77,10.86,16.62,11,16.26,0,0-9.5-.11-13.88.15-3.08.18-1.26.6-3.4.69-15,11.26-17.84,35.57-17.84,35.57s4.77-1.25,6,.06c5.89-17.23,17.07-25.1,32.66-23.56,7.21.72,15.81,7.8,15.81,7.8L133.9,118c-12-6-17.07,11.74-13.44,11.78l31.05-25.38s.53,2.07.48,2.14c-2.22,2.9-39.24,33-39.24,33l-1.62-1.79s-1,.9-1.56,1.51a3.32,3.32,0,0,0,1,2.59c-7.33,5.88-7.58,16.68-2.17,22.57,0,0-2.4.17-2.65.22-3.05.52-6.2-14.5-.16-21.49-3-6-4.92-14.11-5.3-14.49.08,1-4.81.64-4.81.64A164.61,164.61,0,0,1,91,164.72l22.47.49-9.57,16.59s-10.73-.26-15.35-.58c-4.83-2.81-7.62-.68-12.15.36-6.44.19-15.94-.11-15.94,0A77.35,77.35,0,0,0,49.05,165c-.6-1,19.08-.38,19.08-.38S78,149.72,79.76,145.52c1.4-3.28,4.54-15.23,4.54-15.23.14.63-1.79-3.1-6.29-3C74.29,152,44.9,160.34,27.22,144.42l-.17-2.88,39-31.61,1.73,2c-.37-.29-23.92,19.3-23.53,19.18,7,3.65,15.06.69,14.12-11.3A130.56,130.56,0,0,0,73.58,106.4c.11-.18,5.37,11.83,5.24,14.14,3-1,4.83,1.11,4.77.75-1.09-7,5-33.27,5.11-36.3-3.38-.27-7.86-.15-14.88-.43,5.64,10.92,3.68,18.32-4.2,25L68,107.54c.67.37,11.51-9,2.78-23.05-.4,0-4.6-.38-4.6-.38s8.61-13.67,9-15.61Zm41.87-45.12s24.6-.6,24.61.12a57.42,57.42,0,0,0,9.73,36.42s-10.9-.39-10.7-.25Z"/><path class="cls-4" d="M152.85,22.52,25,22.36l.79,205.22H153.49Zm-11.69.81S139.51,45,150.84,59.27c-6.92-1.05-10.89,0-14.92,2.86l.55.56c5.56-3.41,10.26-2.51,15.08-2l-.13,27.95c0,1.35-5.63.75-9.17-1.91a16.47,16.47,0,0,1-4.82-4.65c-.3-.47-.61-.94-.7-1q-.48-.56-6-11.26c-1.88-3.62-4.38-8.56-6.4-12.39-1.31-2.47-3.74-7.16-3.91-7.53-.36-.78-3-6-4.05-7.83-2.72-5-7.12-13.65-8.69-16.76-.35-.8-.88-1.18.07-1.15a3.43,3.43,0,0,1,.54.05c.17.08.37-.29.37-.29ZM27.3,140.84l-.08-2.2L64.38,108l1.18,1.52ZM63.2,87.16l-.49.17c-1-4.26-.41-9.94.71-14.22,1.65-5.93,4.7-10.69,8.11-15.47,7.79-10.92,11.24-19.16,11.1-33.83l1.12.12c0,2.32-.36,4.06-.45,7.14a55.45,55.45,0,0,0,.27,9c.18,1.59.28,2.62,0,2.82a1,1,0,0,0-.12.86c0,.44-.08,1.31-.08,1.31C81.59,53.84,72,76.24,63.2,87.16ZM67.85,107l-2-2.42a1.69,1.69,0,0,1-.15-2.6c3.93-4,4-9.06.16-13.62-.26-.58,1.18-3.5,1.18-3.5l3,.05C74.73,90.61,76,100.65,67.85,107ZM70.6,84.47c.09-.39-4.44-.24-4.44-.24C69,80,71.37,75.72,73.72,71.4c3.65-6.55,8.71-18,10.3-26.34,1.18,9.73,2.89,24.16,11.21,24.73,2.73.19,5.89-1.68,6.41-1.38l17.29-.13A67.45,67.45,0,0,0,130.79,85a45,45,0,0,0,11,4.26c2.17.54,2.38.18,6.66.79a8.62,8.62,0,0,0,2.83-.32c-3.42,2.7-7.36,1.94-11.71.78-.24-.06-.5-.14-.75-.23l-3.28,4.94c-7.31-1.73-30.76-.51-36.93,25,0,0,.63.32.48.15C104,98.25,124.76,93.84,134.64,96l-.84,1.3c-16.41-2-29.76,8.25-33,22.8l.32.29c6.15-22,32-30.14,48.08-14.89l2.94-2.09-.1,2.82-39.44,33.05-1.58-1.63s-.28.21-.59.47c-1,.85-1.42,1.06-1.14,1.53s1.4,1.54,1.45,1.66c-6.55,5.33-8.62,15.61-2.41,22.81.7.76.57,1,.44.11-5.57-6.07-4.87-16.8,2.09-21.89l1.4,1.84c-3.06,6.72-4.7,17.2,3.35,18.11,2.89,7.73-.43,16.89-4.13,23-3.93,7.08-8.69,13-11.65,20.65-1.45,3.22-3.74,12.75-3.62,20h-.87c0-3,.2-6.5.22-8.75.12-11,.11-10.34.35-10.62.09-.09.32-.19.34-.26s-.18-.35-.26-.61a3.64,3.64,0,0,1-.22-1.17c0-.41.39-1,.32-1.14-1.73-6.06-1.87-16.95-7.46-22-2.74-2.35-6.38-2.45-11.09-.51-10.41,0-8.87.55-17.27.07a78.22,78.22,0,0,0-12.25-17.16c-2.13-2.38-5.1-3.68-7.88-5.4A13.24,13.24,0,0,1,44,153.84a7.23,7.23,0,0,1,.85-1.2c28.33,2.72,34.48-24.71,33.19-24l-.26.21c-7.74,28.27-35.31,27.24-49.16,15,0,0-2,1.7-2-.17,0-1.69.62-2.18.62-2.18l38.89-31.72c.71.46,1.47,2,1.79,1.8.72-.39,1.77-1.15,1.74-1.61a18.49,18.49,0,0,0-1.42-2.55c10.4-10.77,5.71-15.58,2.37-23ZM85.34,23.93a.57.57,0,0,1,.5.3c.24.37-.71,2.56-1.29,2.94S84,27.11,84.36,25a1.2,1.2,0,0,1,1-1.07Zm57.07,0h9l.06,34.6c-6.73-9.47-10.14-20.36-9.07-34.6Zm-54.65.08c.23,0,.43.06.49.22.23.58-1.09,3.1-2.72,5.19-.85,1.08-1.28,1.4-1.55,1.14-.22-.49-.21-1.07.57-2a19.1,19.1,0,0,0,2.19-3.45c.2-.57.39-1.09,1-1.13Zm9.25.13c.26,0,.53,0,.61.12A18,18,0,0,0,105.18,32c.44.24.24.87.39,1.32-3.41-.51-7.88-5.33-9.07-8.85,0-.26.25-.25.51-.24Zm5.33,0c.67.69,1.74,1.52,2,2.31a2.63,2.63,0,0,1,.15,1.29c-.59.37-3.53-3-3.42-3.44a1.57,1.57,0,0,1,1.29-.16Zm-12.75,0c.29,0,.73,0,.8.21.36,1.48-3,7.28-5.51,8.92-.88.58-.94.43-.87-.55,0-.66.11-.6,1-1.47a17.25,17.25,0,0,0,3.47-4.81c1-2.16.75-2.3,1.09-2.3Zm2.3,0a.89.89,0,0,1,.71.25c.11.19,0,.51-.14.9a25.42,25.42,0,0,1-7.17,10.31c-1.27,1-1.49,1-1.58,0,0-.58.22-.75.82-1.17a17.3,17.3,0,0,0,6.31-8.66c.21-.66.13-1.26.49-1.46a1.1,1.1,0,0,1,.56-.13Zm17.2,5.48c.14.23,1.09,1.72.31,1.16a23.24,23.24,0,0,1-1.82-2c-2.18-2.48-2.25-2.32-2.2-2.94,0-.8-.56-2.12.68-1.78,1.23,1.44,2,3.75,3,5.53ZM99.16,24.2a3.39,3.39,0,0,1,.78.09c1.44,2.69,5,5.07,4.93,5.05a5.53,5.53,0,0,1,0,1.39c-.08.36-5.57-3.82-6.18-6.32,0-.16.26-.21.5-.21Zm-3.91.05c1.29,2.36,4,7.74,10.21,9.92.45.1.93,1.37.58,1.73A17.57,17.57,0,0,1,94.28,24.28a1,1,0,0,1,1,0Zm-1.68.46c-.21,0,3,9.14,12,11.87.78.24,1.24.58,1.19,1s0,.66-.91.22a10,10,0,0,0-8.9-.4c-.46.24-.93.87-.56,1.27.21.2.73,0,1.39-.21,3.41-1.32,8.63-.54,9.56,1.54.65,1.48.76,2.58.4,2.76s-.73-.36-1.55-1.08c-2.59-2.27-5.7-2.91-8.16-.72-.54.47-1.07.39-1.25.59s0,.61.18,1a.94.94,0,0,1,0,.92,3.81,3.81,0,0,0-.2,1.62c.06,1.16.83,2.17,3,3.71,1.73,1.2,3.08,1.87,1,.16-3.64-2.94-4.3-4.14-1.94-3.12s5.61,0,7.92-1.76c.78,0,1.25-.15,1.66.15,1.73,4,3.13,9.42,5.42,14.64-2.73,3.08-12.25,10.65-19,10.38C89,69.09,86.88,59.5,85.58,54.2a33.79,33.79,0,0,1-.87-7.7.37.37,0,0,1,.25-.06,10.91,10.91,0,0,0,3.54.12c1.55-.36,1.87-.64,2-.41s-.54.88-1.68,1.65c-.49.34-1.92,1-1.78,1.14.35.22,2.09-.7,2.38-.95.45-.38.76-.4,1-.19s.31,0-.53,2.07c-.93,2.29-.84,2.51,1,3.92A8.66,8.66,0,0,1,92.14,55c.17.28.29.61.37.72.3.41.12-.24-.07-1.29a4.11,4.11,0,0,0-1.5-1.92c-1-.68-.84-1.35,0-3.69,2.41-6.88,1.79-10-.86-11.46-1.19-.67-4.54-.49-5.6.39-.51.44-.44-.42-.36-.47,6.36-4.37,7.85-8.54,9.47-12.56Zm12.28,3.37a73.45,73.45,0,0,1,5.4,6A23.44,23.44,0,0,1,113,36.87c.11.18.22.38.14.46s-.28-.12-.43-.22c-1.32-1-6.78-7.22-6.78-7.22-.25-1-.43-1.37-.06-1.81Zm1.08,4.22s4.73,5.17,7.44,7.71a31.87,31.87,0,0,1,1.53,3c0,.12-.58-.32-.58-.32-3-2.75-5.76-5.86-8.64-8.79,0,0-.22-1.22-.23-1.72.07-.24.35,0,.48.12Zm10.26,13.25a29.28,29.28,0,0,1,1.41,2.57c.51,1,.34,1-.11.63-3.38-2.77-6.22-6.14-9.41-9.23-.41-.43-1.24-1.38-1.24-1.38s-1-2.23-.37-2.18.87.77,1.21,1.14c1.67,1.79,4.86,4.87,8.51,8.45ZM87.66,38.16a4.31,4.31,0,0,1,3.46,1.18c.63.77.89,2,.54,2.37s-1-.41-1-.41c-3.28-1.85-4.42-1-6.2-.42-.26.08-.53-.6-.2-1.28.65-1.13,2.31-1.41,3.4-1.44Zm20.69,1.75c3.52,3.52,7.09,7.44,10.9,10.48.53.45.9.74,1.14,1,.5,1,1.66,3.36,1.66,3.36-4.08-2.85-13.27-12.68-13.17-12.61s-.77-1.81-.53-2.22Zm-6.89.58a5.27,5.27,0,0,1,1.91.42c1.77.7,2.88,1.45,1,1.2a14.09,14.09,0,0,0-4.36-.22c-1.74.28-1.88.48-2,.2-.4-.72,1.51-1.58,3.43-1.6ZM87,40.7a5.17,5.17,0,0,1,2,.43c2.17.95,2.55,1.57.7,1.27a11.38,11.38,0,0,0-4,.19,9.28,9.28,0,0,0-.94.36c-.44.14-.57-.19-.38-.75A2.55,2.55,0,0,1,87,40.7Zm15.69,2.76.45,0c-.56,3.16-3.72,2.85-4.57.13H99c1.66,2.59,2.91,1.07,3.67-.17Zm1.76.17c1.46,0,1.37.86-.15,1.44-1.17.46-1.3.38-.87-.5s.36-.94,1-.94Zm-15,.11a2,2,0,1,1-4.07.26h.38c1.3,2.44,2.8,1,3.27-.25Zm1.77.39c.45.31.17.73-.81,1.32s-1.11-.11-.38-1c.31-.29.81-.54,1.19-.29Zm6.89,0c.18-.06.59.71.23.9-.2.11-.51-.21-.55-.44a.43.43,0,0,1,.32-.46Zm11.9.17a100,100,0,0,0,13.13,12.22,24.48,24.48,0,0,1,1.34,2.72c-.19.24-.29.21-.84-.06A89.58,89.58,0,0,1,110,46c-.18-.63-.57-1.24-.1-1.73Zm-25.28.29a.82.82,0,0,1,.49,1.07c-.19.15-.49-.08-.62-.26a.78.78,0,0,1-.05-.68.25.25,0,0,1,.18-.13Zm26.39,4c0-.1,12.33,12.42,13.91,12.18.74.43,2.58,4,2.58,4s0,.32-.26.17c-2.09-1-10.82-8.27-15.28-13.66a21.13,21.13,0,0,1-1-2.68ZM96.35,50.48c2.15,1,1.22,3.17-1,1.82-1.79-1.09-3.21-1.19-3.2-.25a1.05,1.05,0,0,0,1,.9,17.53,17.53,0,0,1,2.56.58c1.36.29,2.38-.07,2.72-.9a2.17,2.17,0,0,0-1.7-2.84c-.91.08-.68.51-.29.69ZM113.4,53.9a87,87,0,0,0,14.72,12.45A22.71,22.71,0,0,1,129.41,69c0,.19-.22,0-.22,0-4.33-2.5-10-7.47-15.47-13.11a14.17,14.17,0,0,1-.68-2.06.47.47,0,0,1,.36.07ZM99.1,56.38c-.19,0-.45.32-.77.5-.66.37-.87.46-2.49,0-.88-.27-1-.25-1.55.14a1,1,0,0,1-1.23.16c-.92-.41-1.35-.11-2.2.19s-1.09-.06-1.82-.23a15.44,15.44,0,0,0,0,3.05s.76-.45,1.17-.66c.71-.36.61-.3,1.64-.26A7.86,7.86,0,0,0,95.87,59a3.2,3.2,0,0,1,3.15.43c.54.44,1.24.37.83-.44a5.32,5.32,0,0,1-.43-1.68c.06-.57-.06-.93-.28-.95Zm16.33,2.3c2.89,2.78,6.46,7,14.86,11.93.44.77,1,1.79,1.41,2.58,0,.22,0,.42-.24.34a70.24,70.24,0,0,1-15.27-12,18.46,18.46,0,0,1-1.3-2.94c.08-.28.41,0,.54.07Zm-1.23,1.06,3.21,6-10.81,0a42,42,0,0,0,7.6-6Zm-17.93.14c-1.78.71-2,.85-3.81.42-1-.25-.74.35-.22.6a4.75,4.75,0,0,0,4-.31c.47-.31.79-1,.06-.71Zm-1.82,1.86c-1.86,0-3.62.67-3.75,1.43,0,.15.12.31.41.14,1.27-.76,4.39-1,6.77-.15.38.13.44-.11,0-.43a5.39,5.39,0,0,0-3.47-1Zm23.61,2.58a69.5,69.5,0,0,0,14.42,10.53,19.78,19.78,0,0,0,1.46,2.72c-7.06-3.43-14.76-10.19-14.76-10.19a25.15,25.15,0,0,1-1.49-3.08c0-.32.27-.06.37,0Zm2.41,5a80.62,80.62,0,0,0,13.8,9.16c.3.28,1,2,1.28,2.23s-.3.19-.82-.09c-3.85-1.77-12.1-7.44-12.1-7.44-.79-1.3-1.93-2.65-2.16-3.86ZM43.3,92.14a39.75,39.75,0,0,0,1.58-3.81,3.67,3.67,0,0,0,3.25-1.43c.89,0,1.56,0,2.78-.06,0-1.19,0-2.89,0-2.89,1.23-1.26,2.06-2.72.16-5,0,0-.08-1-.11-2.82a21.65,21.65,0,0,0-2.84,0,3.09,3.09,0,0,0-5.27,0s-1.27.07-2.14.07c0,.48-.16,2.58-.16,2.58s-3.71,2.53.13,5.51l0,2.5a15.81,15.81,0,0,1,2.18.19s-1.47,3.42-2.44,5c-.33.08-.25-.1-.65-1.24a8.71,8.71,0,0,0-2.5-3.51c-1.25-1-3-1.27-4.16-2.11s-2-1.85-2.32-1.65a11.46,11.46,0,0,0,.17,4.23c.62,2.47,4.17,4,7.13,5.22.23.15.43.37.43.45,0,.41-.39.28-1.36.19a2.09,2.09,0,0,0-2.6,1.51,7.4,7.4,0,0,1-.81,1.19,4.93,4.93,0,0,0-.66.85,16.52,16.52,0,0,1-.64,1.55,3.24,3.24,0,0,0-.52,1.38,30.53,30.53,0,0,0,.17,5.64c.19,1.1,1.58,1.73,2.06,1.82.74.13.87.88.75,1.49-.56,3-2.29,4.84-2.85,3.86-.14-.27-.3-1.49-.34-1.48a4.14,4.14,0,0,0-.19,1.47,1,1,0,0,0,1.26.58c.84-.31,1.51-1.15,2-3,.21-.78.41-1.22.78-1.27.67,0,1.71,1.42,1.71,1.42-3.47,2.89-10.15,8.14-10.15,8.14L26.88,24l55,.1a47,47,0,0,1-3.3,20.52c-3.2,7.21-8.15,12.56-12,19.2a35.44,35.44,0,0,0-4.49,24.66,56.69,56.69,0,0,1-12.37,11.92l-4.36-4.6s.66-.06,1.43-.09c3.55-.4,7.4-.9,8.89-4.61.21-.41.12-.59-.13-.64-2.79.38-5.2,0-6.78.1-3.87.28-5.5,1.61-5.5,1.61Zm.43,2.73s-4.47-2.13-4.81-2.19c-1.94-.35-6.64-2.8-7.44-4.46-.1-.22-.36-3.26-.44-3.88,0-.19.11-.19.3,0,.5.35,2.45,1.62,3.17,2,3,1.44,4.12,2.47,4.84,4.64a7.31,7.31,0,0,0,.48,1.22c.24.26.34.24.64,0a14.82,14.82,0,0,0,2.46-4.78c.07-.2.24-.4.14-.69-.23-.78-.81-1.78-.22-2.55-1.86.09-3.64-1.27-3.41-2.63C39.93,79,41,79.41,43,79c-.23-5.83,5.23-4.41,5.21-.35,6,.5,3.17,6-.32,5.2,1.39,3.15-2.77,4.33-3.35,3.8-.23,1-1.82,4.29-2.15,5.27C46.84,89.81,54,91.21,55,91c-2.58,5.4-11,4.08-11.3,3.86Zm80-19.89c1.13.87,10.7,6.86,12.47,7,0,0,.84,1,1.54,1.82s.89.93,1,1.09-.25.16-.31.15c-4.3-1.87-8.68-3.84-12.4-7a4.29,4.29,0,0,1-.86-1c-.33-.43-1.31-2-1.41-2.15Zm3.18,4.83c4.37,2.46,8.09,4.85,12.08,6.13a5.19,5.19,0,0,1,1.14.43c.29.2,1.5.95,1.79,1.12,1.82,1.07,2,1,1.55,1.19S139.8,88,137.1,87c-4.79-1.77-6.48-2.77-8.22-4.34-.39-.4-2.2-2.57-1.95-2.8ZM39.66,93.53a2.89,2.89,0,0,1,1.58.69,19.62,19.62,0,0,0,2.94,1.85l.45.18,4.3,4.89-11.08,9s-.9-.92-1.19-1.23-.19-.53.14-.86a1.41,1.41,0,0,0,.25-1.12,1.19,1.19,0,0,1,.48-1.28,1.28,1.28,0,0,0,.47-1,1.43,1.43,0,0,1,.6-.79,1.72,1.72,0,0,0,.75-2.07c-.11-.34-.17-.43.28-.73a2.08,2.08,0,0,0,1-1.8,1.84,1.84,0,0,0,0-.35c-.15-.81.57-.61,1.16.42a8.08,8.08,0,0,1,.58,2.53c.19,1.23.32,1.57.39,1.4.39-1-.07-4.74-1.21-5.25-1.66-.74-3-2.25-2.63-2.85.14-.21.17-.13,1.18.33a7.81,7.81,0,0,0,1.23.5c1.17,0,.46-.46.08-.52a5.08,5.08,0,0,1-2-1.19c-.27-.48-.12-.73.25-.74Zm-2.83.65c1.08,0,1.29.27,1.3,1.21,0,.54.21,1,1.08,2.06.35.45.58.8.56,1s-.14,0-1.34-.15c-.42,0-.64-.06-.78.16-.42.61-1.28,0-1.82-.92-1.28-2.14-.83-3.32,1-3.33Zm20.63,1.28,11.78,14.42-1.33,1L56.09,96.69Zm-2,.89,1.26,2.13s-3.65,3.12-4.61,4C44.39,108.76,26.88,123,26.88,123l-.24-2.87Zm-21.26.38c.23,0,.49.3.86.87a12.12,12.12,0,0,0,1.76,2.17c1.43,1.32,1.57,1.2.41,1.32-.47,0-.62,0-.9.71C35.5,102.86,33,99,33.57,97.58c.23-.57.43-.85.66-.85Zm4.11,2.07a1.53,1.53,0,0,1,.82.27c.62.25.66.4.56,1s-.53.72-1.39,0c-.65-.62-.54-1.22,0-1.24Zm18.8.35,1.38,1.79L27.1,126.35v-2.93c.77.1,20.91-17.41,30-24.27Zm-24.37.29c.08,0,.22.27.57.79a8.92,8.92,0,0,0,2.1,2.34c.7.53.78.82.3.82a1,1,0,0,0-.64.48c-.3.51-.32.39-.78.12a3.48,3.48,0,0,1-1.58-1.72,5.22,5.22,0,0,1-.07-2.61c0-.14.06-.21.1-.22Zm5,2a1,1,0,0,1,.85,1.66c-.3.28-.56.42-1.15.08-.77-.46-.91-1.16-.27-1.55a1.1,1.1,0,0,1,.57-.19Zm-5.15,2c.17,0,.47.23,1,.75a6.51,6.51,0,0,0,1.34.9c.61.34.64.45.31.73-.14.11-.61.12-.73.49-.36,1-1.89-.17-2-1.68-.08-.76-.09-1.18.13-1.19Zm3.84.12a1,1,0,0,1,.67,1.79c-.43.31-1.53-.24-1.64-.82-.07-.36.58-1,1-1Zm23.43.87a1.06,1.06,0,1,1-1.05,1,1,1,0,0,1,1.05-1Zm-3.15.43A1.06,1.06,0,1,1,55.65,106a1.06,1.06,0,0,1,1.05-1.06Zm-21.07,1.41h.2c1,.05,1,1,.44,1.46a.74.74,0,0,1-1.1,0c-.79-.64-.5-1.44.46-1.5ZM59,107.86a1.06,1.06,0,1,1-1,1,1.06,1.06,0,0,1,1-1Zm92.36.06,0,2.66-37.15,30.9L113,139.84Zm-94.49.23-2.75,6.17-.82-1.59H51.28l.63-1.84-1.21-1.48Zm58.46,25.65,4.89-3.92c-2.1-10.61,6.3-14.84,14.28-11.75l5-4.24c-9.21-7.75-30.87-2.49-24.13,19.91ZM49.24,113.05a1.05,1.05,0,1,1-1.06,1,1,1,0,0,1,1.06-1Zm-3.2.26a1,1,0,0,1,1,1,1,1,0,1,1-1-1Zm17,2.13-4.84,3.88c1.24,10.17-3.7,15.34-14.33,11.86l-5.14,4.08C52.62,144.82,70.8,132.5,63,115.44Zm-14.91.92a1.06,1.06,0,0,1,0,2.11,1.06,1.06,0,1,1,0-2.11Zm102,.27a1.05,1.05,0,1,1-1.05,1.05,1.06,1.06,0,0,1,1.05-1.05ZM46,116.88,42.85,123l-.77-1.85-2.08,0,.67-2.14-1.3-1.1Zm100,.64,1,1.62,2,.06-.77,1.54,1.47,1.51L143,123.88ZM38.55,122a1.06,1.06,0,1,1,0,2.11,1.06,1.06,0,0,1,0-2.11Zm-3,.12a1.05,1.05,0,1,1-1.06,1.06,1.05,1.05,0,0,1,1.06-1.06Zm105.27.63a1.05,1.05,0,1,1-1.06,1,1,1,0,0,1,1.06-1Zm10.64.16,0,2.34c-9.69,8.55-30.07,25.07-30.07,25.07l-1.27-1.63s20.73-16.95,31.3-25.78ZM37.63,125.16a1.06,1.06,0,1,1-1.05,1,1.06,1.06,0,0,1,1.05-1Zm105.32.25a1.06,1.06,0,0,1,0,2.11,1.07,1.07,0,0,1-1.06-1,1.06,1.06,0,0,1,1.06-1.06Zm-3,.19a1.06,1.06,0,0,1,0,2.11,1.06,1.06,0,1,1,0-2.11Zm11.76.37-.09,3c-9.39,8-28.6,23.91-28.54,23.92l-1.45-2s21.06-18.14,30.08-24.9Zm-116-.43-2.9,6.53-1.25-1.76-1.82-.12.43-1.77-1.68-1.14Zm100.49,2.58,1.85-.35-.33,1.89L139,131l-6.82,1.49,3.3-6.11ZM146.37,160c1.38,2.07,1.3,4.32.72,4.67-.61-.34-1.14-.94-1.77-1.21-3.18-1.37-5.72-2.5-6.17-4.51-1.73-4.56,6.07-.67,7.22,1.05Zm-16.69-12.11,10.69-8.7a10.71,10.71,0,0,1,1.94,1.24c.12.42-.18.55-.61.94a1.46,1.46,0,0,0-.34,1c0,.6.18.87-.06,1.13-.4,0-.73.51-.71.93s-.41.69-.66.93c-.44.44-.57.53-.85,2,0,.15,0,.53-.23.73-.62,0-1.07,1.57-1.35,1.66a1.8,1.8,0,0,1-1.34-1.39,7.25,7.25,0,0,1,0-2.22,6.44,6.44,0,0,0,.17-1.69c-.12-.44-.41-.17-.4.44a9.66,9.66,0,0,1-.26,1.71c-.16.71-.58,1.65-.39,2.21.29.83,1.36,1.18,1.84,1.62a6.93,6.93,0,0,1,1.68,2c1,1.85,1,2.16.76,3.55-.14.8-.92.67-1.39.34,0,0-3-2.19-4.32-3.27a14.7,14.7,0,0,1-4.21-5.2Zm4.06,6a34.45,34.45,0,0,1,4.13,2.63l-2.72,5.65a11.19,11.19,0,0,1,.69,3.09c3.44-.27,5.3,5.52-.05,5,.61,3.58-5.16,6.39-5,0-6,.47-4-6.34-.29-5.06-.11-2.89,1.81-3.26,3.17-4a12.18,12.18,0,0,0,1.79-4.1l-.27-.87c-1.14,2-6,2.56-11.32,1.51,1.44-3.43,5.82-3.33,9.87-3.84Zm-10.6,4.3c-.19.68-.19.68.63.59.42,0,2.09,0,3.25,0,2.15.17,5.53.19,7.22-1.11.33-.31.51-.29.57-.12.14.84-1.5,3.58-1.5,3.58l-2.72,1.5s-1.11,0-2.48,0l0,2.44a3.17,3.17,0,0,0,0,5.47l-.1,2.66,2.62,0c1.74,1.67,3.16,1.66,4.76.09h3v-2.87a3.16,3.16,0,0,0,.18-4.85l0-2.92-2.33,0s-.48-.38-.49-.67a39.24,39.24,0,0,1,2-3.94c.42-.61.31-.26,1,1.15,1,2,1.92,2.83,4.37,4a13.2,13.2,0,0,1,3.61,2.16c.51.48.8.33,1-.39a5.89,5.89,0,0,0-.59-4.67c-1.86-3.1-5.1-3.24-5.62-4-.07-.17.59-.36,1.3-.68a10.1,10.1,0,0,0,3.26-3.91,5.38,5.38,0,0,1,.46-2.11,4.54,4.54,0,0,0,.26-2.25,5.12,5.12,0,0,1,.08-2.28,5,5,0,0,0-.86-2.73c-.21-1-.16-.74.5-3,.1-.36.84-3.54-.11-3.75a.84.84,0,0,1,.13.17,4.83,4.83,0,0,1,.1,2.08c0,.15-.16.55-.24.89-.57,2.55-.9,3.19-1.42,2.63-.12-.13-.59-.32-1-.56-.68-.46-.62-.68-.45-1.53,0-.13.31-1.3.28-1.26-.15.4-.25,1.43-.72,1.68-.25.06-.59-.17-1.24-.73-.25-.21-.79-.59-.79-.59s7.72-6.5,10.59-8.65l0,96.25-54.58,0c-.68-6,1.11-13.85,4.08-21.75,1.84-4.88,4.47-8.5,7.45-12.88,5.69-8.33,10-16.79,8.34-27.52a17,17,0,0,1-.36-2.78,31.07,31.07,0,0,1,5.45-6.88c2.94-2.41,7-6,7.37-5.79a13.08,13.08,0,0,0,3.67,4.57c.27.29.28.55-.34.68-4.07,0-8.26.86-9.61,4.45ZM28.37,130.8a1.05,1.05,0,1,1-1.05,1,1,1,0,0,1,1.05-1Zm102,.24a1,1,0,1,1-1,1.05,1,1,0,0,1,1-1.05Zm2.29,2.89a1.05,1.05,0,1,1-1.05,1,1,1,0,0,1,1.05-1Zm-3.4.44a1.06,1.06,0,1,1-1.05,1,1,1,0,0,1,1.05-1Zm-3.76,2.4,1.9-.09a13.53,13.53,0,0,0-.5,2.09l1.55,1.14-6.7,1.14,2.89-5.94Zm-4.58,17.32-11.28-14.57,1.36-1.11,11.38,14.42Zm-1.37-14.16a1.06,1.06,0,1,1-1,1,1,1,0,0,1,1-1Zm23.71,1.63c.91.71,0,1.71-.88,1.32a.74.74,0,0,1-.1-1.4.89.89,0,0,1,1,.08Zm1.22.68c.93,0,2,2.24,1.78,2.9s-.54.78-1.86-.33-1.33-1.16-.8-1.76c.29-.34.43-.79.88-.81Zm-22.33.41a1,1,0,1,1-1,1,1,1,0,0,1,1-1Zm-3.26.4a1.06,1.06,0,1,1-1.06,1,1,1,0,0,1,1.06-1Zm23.1.75c1,.16,1.31.94.83,1.52-.64.79-2.1.07-1.75-.86a1,1,0,0,1,.92-.66Zm1.86,1.19c.41,0,1,.53,1.7,1.46s.81,1.38.59,2c-.3.93-.5,1.1-1.18.19a17.57,17.57,0,0,0-1.27-1.58c-.9-1-1-.7-.5-1.43.25-.33.42-.64.66-.66Zm-2.44,1.1c.94.48,1,1.11.48,1.55a1.61,1.61,0,0,1-2-.71c-.32-.94.67-1.41,1.54-.84Zm1.58,1.39c.53,0,1,.5,1.61,1.55,1.1,1.77,1.16,2.37.22,3.54-.67.84-.74.88-1.4-.46a10.19,10.19,0,0,0-2.51-3.14c-.39-.32-.54-.78-.25-.81l.78,0a1.22,1.22,0,0,0,1-.36.9.9,0,0,1,.58-.29Zm-3.78,1.38a2.1,2.1,0,0,1,1.59.79c.54.56.48,1.08-.57,1.18-.48.19-1.77-.66-1.77-1.23a.71.71,0,0,1,.75-.74Zm2.47,2.06h.08c.44,0,.67.44,1.17,1.44.76,1.53.53,2.36-.78,3-.89.45-1.57.59-1.69.06,0-.15,0-.59-.1-1a4.66,4.66,0,0,0-.74-1.93c-.8-1.21-.94-1.64-.06-1.28a1.73,1.73,0,0,0,1.51-.11,1.43,1.43,0,0,1,.61-.21Zm-4.46,2.45c-.3,0-.5.18-.42.68.28.14.72,0,1.05.13s.72.89,1.2.77c.05-.61-1.16-1.56-1.83-1.58ZM46.17,164c-2.46-1.17-8.55-3.88-11.49-3.92-5.44-1.53-5.81-.83-7.72-1.32a20.53,20.53,0,0,1,19.6,4.86c1.16,1.15.53.82-.39.38Zm6.43,23.81c5.78,10,11.17,21.34,20.2,38.08l-.86.28-34.47.06c1.71-18.5-8.29-36.13-9-35.44,7.81.15,14.29-1.36,15.66-4.24l-1.11-.32c-4.55,3.93-11.13,4.11-15.67,2.9.1-9.65-.44-19.83-.14-29.46a13.62,13.62,0,0,1,12.54,5.49c5,6.59,8.4,15,12.82,22.65Zm-15.81-26.7c1.38-.11,8.93,3,12.3,5.31a19.45,19.45,0,0,1,2.31,2.82c0,.45-.66-.1-3.92-2A73.22,73.22,0,0,0,40,163.74l-.34-.15a3.78,3.78,0,0,0-.5-.46c-.89-.68-2.61-1.9-2.33-2Zm3.67,3.51A55.9,55.9,0,0,1,54,172.15a10.83,10.83,0,0,1,1.78,3c-.53-1-10-6.69-13.36-8l-1.91-2.53Zm2.67,3.63c.41-.24,11.46,6.28,13.08,8a11.7,11.7,0,0,1,2.46,3.84c0,.49-.53.07-1.53-.85A52.41,52.41,0,0,0,44.64,171Zm2,3.8c5.18,2.19,11.7,7.47,15,10.61a6.07,6.07,0,0,1,1.52,2.55c.08.34-.1.31-.17.5-4.26-4.9-13.63-10.48-14.87-10.92a20,20,0,0,1-1.47-2.74Zm17.23,15.24c.59.61,1.54,2.75,1.33,3s-.1.06-.35-.11a96.6,96.6,0,0,0-14.22-11.07c-.55-.27-2.39-3.17-2-3.23,3.06,1,11.8,8,15.24,11.4Zm-12.65-6.93a2.55,2.55,0,0,1,.6.3c5.37,3,13.17,10.44,14.65,12.23a5.17,5.17,0,0,1,.83,2.19c-.08.49-.27.08-2.44-2.06a78.51,78.51,0,0,0-11.78-9.51c-.82-.56-.66-.64-1.25-1.67s-.83-1.5-.61-1.48Zm34.39.11c3.84.11,5.34,3,7.71,8.37a44.15,44.15,0,0,1,2.82,14c0,.26-.46,0-.67,0a7.39,7.39,0,0,0-3.8-.16c-1.09.28-2.12.25-1-.49.36-.23,1.34-1.14,1.86-1.46,1.05-.66.41-.65-.63-.13-.8.39-1.32.88-1.65,1s-.08-.62.12-1.09c1.11-2.75,1.45-4.37-.21-4.89a3.85,3.85,0,0,1-1.34-.83c-.23-.22-.43-1.11-.5-1.14s-.13.81-.13.94A3.09,3.09,0,0,0,88,196.34c1.16.83,1.39,1.06.76,3-.88,2.75-1.07,3.43-1.23,4.07-.09.36-.27,1-.36,1.39a14.78,14.78,0,0,0-.24,4.22c.37,2.9,3.5,4.33,7.69,2.72.4-.16.56,0,.56,0-3.34,3.4-7.09,5.57-9.27,12.43-2.81-5.66-6.78-10.1-13.4-11.87l-.1-1.18c2.31,1.1,6.78,2.61,9.62.92,1.52-1,1.06-1.71-.78-1-2.2.86-6.17.76-8.15-.36a1.06,1.06,0,0,0-.93,0c-.1-.67-1.06-3.17-.92-4.12-.08-.13.61-.14.74,0a8.71,8.71,0,0,0,6.22,2.74,5.3,5.3,0,0,0,3.87-1.84c.1-.09.61-.16.68-.24s0-.3,0-.37-.22-.38-.34-.69a1.15,1.15,0,0,1-.17-.77c0-.18.12-.28.22-.4a1.12,1.12,0,0,0,0-.72.43.43,0,0,1-.09-.64c.39-.45-3.37-3.88-4.11-3.87-.26,0-.11.5.43.85,1.91,1.27,3.31,2.93,3,3.14s-1.09-.2-2-.4a6.89,6.89,0,0,0-6.12,1,7.09,7.09,0,0,1-3.1.81c0-1.23-5.21-14.92-5.22-14.32,1.89-2.2,7.81-7.4,13.74-9.64a12.67,12.67,0,0,1,5.1-.73Zm-22.49,3.06,10.76.17c-2.7,1.36-7.62,6.25-7.62,6.25-1.41-2.83-1.84-4.24-3.14-6.42ZM52.34,185c.81,0,9.35,7,10.57,8.62.15.2,1,1.11,1.93,2C67.05,197.83,68,199.11,68,200c0,.43-.39.15-1-.5a63.5,63.5,0,0,0-12.78-11.37c-.62-.33-2.55-2.89-1.9-3.18Zm29.25,1.28c-.24,0-.2.23-.07.44,1.36,1.2,4.94,1.15,6.17.18s-.35-.42-.8-.22a5.58,5.58,0,0,1-3.71,0,14.65,14.65,0,0,0-1.59-.41Zm3.3,2c-1.25,0-2.56.38-2.27.85.11.16.45.48,1.27,0,1.18-.58,3.61.18,3.68.2.25.07-.81-.69-1.16-.85a3.86,3.86,0,0,0-1.52-.23Zm-30.18,1.3C59.3,192.32,64.9,198,68.26,202a4.1,4.1,0,0,1,1,2c0,.73-.15.33-3.2-2.77a87.08,87.08,0,0,0-8.4-7.57c-1.43-1-1.69-1.18-2.37-2.43s-.86-1.74-.55-1.72Zm28.62.94a4.27,4.27,0,0,1-3.12-.06c-1-.35-.78,0-.39,1.05a6.84,6.84,0,0,1,.28,1.31c0,.25,0,.27.72-.13s.75-.47,2.07-.16,1.38.2,2-.13.66-.46,1-.31a2.84,2.84,0,0,0,2.52-.07,1.07,1.07,0,0,1,1.3,0c.45.23.63.08.45-.37a7.13,7.13,0,0,1-.21-1.2c0-.47-.12-.89-.31-.79a4.51,4.51,0,0,1-2,.74c-1.26,0-2.38-.78-4.35.08Zm-56,1c11.46,14.26,9.43,34.83,9.05,34.66l-9,0Zm29.8,2.88a71.07,71.07,0,0,1,13,12.66c.52.67.1.88.36,1.69.09.3-.42-.14-1.87-1.71-1.81-1.94-4.78-4.86-6.75-6.56a23.43,23.43,0,0,1-3.22-3c-.36-.52-1.83-3-1.55-3.12Zm25.74,1.31h-.14a1.77,1.77,0,0,0-1.06,3.19c.52.48,1.36.77,1.36.5a2,2,0,0,0-.45-.46c-1.17-.89-1-2.28.28-2.3.46,0,.48.16,1.54.92,1.25.89,2.73.89,2.71,0,0-.67-.26-1.34-1.38-1.23a3.22,3.22,0,0,1-1,0,3.29,3.29,0,0,1-.74-.34,3,3,0,0,0-1.1-.26Zm-22.77,4.2c3.5,2.35,8.31,7.67,10.77,10.8a2,2,0,0,1,.37,2c0,.09-.48-.18-.48-.18-2.85-3.35-6.07-6.39-9.23-9.48,0,0-1.88-3-1.43-3.12ZM94,204.88l-.76.38c-1.14-1.72-2.19-1.74-3.07.26l-.56-.14c-.42-.46,1.51-4.82,4.39-.5Zm-.17-1.46c.31,0,.86.18,1,.5s0,.63-.45.62a4.45,4.45,0,0,1-.69-.83c-.15-.19-.09-.3.15-.29ZM81,205.52l-.85,0c-1.61-2.12-2.82-.7-3.54.19l-.9-.12c.14-2.33,4.25-3.14,5.29-.11Zm8.23-1.81a1.17,1.17,0,0,1,.37.08,3.2,3.2,0,0,0-.47,1.38c-.33.13-.79.42-1.14.06-.65-.59.35-1.54,1.24-1.52ZM76,204c.4,0,.28,0,.11.2a4,4,0,0,0-.55,1c0,.25-.09.34-.32.34a8.55,8.55,0,0,1-1.35-.14C73.57,205,75,204,76,204Zm5.12.3c.26,0,.2.34.12.49s-.24.27-.33,0a1.31,1.31,0,0,0-.18-.29c-.13-.17-.11-.17,0-.2a1.78,1.78,0,0,1,.34,0ZM95,205.94c1,0,.32,1.64-1,2.05a5.17,5.17,0,0,1-5-.43c-1-.57-1.31-1.18-.43-.93,3.31.91,4.11.74,6.11-.56a.61.61,0,0,1,.39-.13Zm-31.84-.37c3.29,2.79,5.77,6,8.41,8.87a2.28,2.28,0,0,1,.67,1.7c-.13.52-1.21-.73-1.21-.73s-6.43-6.88-6.43-6.88a19.18,19.18,0,0,1-1.44-3Zm9.84,1a9,9,0,0,1,1.42.3c3.17,1,4.13.93,5.95.09,1.16-.53,1.64-.46,1.14.34-.91,1.48-4.14,1.64-6.56.82A6.88,6.88,0,0,1,73.1,207c-.33-.35-.41-.5-.12-.49Zm14.62,1a2.63,2.63,0,0,1,1,.44c2.66,1.51,4.62,1.23,6.25.22.3-.27.46-.14.5.12.14.92.18,1.58-.24,2a3.06,3.06,0,0,1-1.28.58c-2.57.87-5.7.25-6.3-1.68-.2-1-.32-1.68.1-1.7Zm-21.06,4.13h0c.18,0,.61.4,1.29,1.17,3.53,4,5.48,6.31,5.12,7.47,0,0,0,.25-.2.12A23.66,23.66,0,0,1,68.07,215c-1.29-2.1-1.83-3.3-1.53-3.33ZM95,214.47c-3,2.28-6.6,7.71-6.92,10.38-.07.51,0,.89-.2,1.08A1.17,1.17,0,0,1,87,226c-.28-.05-.21-.08-.28-.39-.25-1.23.92-4.3,3.35-7.94,1.27-1.9,4.16-4.47,5-4.49.53.22,0,1.31,0,1.29Zm-22.08-1.24a3.07,3.07,0,0,1,1,.3,18.53,18.53,0,0,1,5.41,3c3.23,2.63,6.82,8.88,5.76,9.47-.46.25-.79.09-1-.49a16.14,16.14,0,0,0-.78-1.72,19.46,19.46,0,0,0-8.95-8.65c-1.46-.71-1.61-.64-1.72-1.23s0-.65.26-.66Zm22,2.3c.26,0,.33.47.23,1.45-.07.8-.12.79-1,1.73a14.57,14.57,0,0,0-3.91,6.64.65.65,0,0,1-.2.43c-.37.31-.84.16-1.15.15s-.17-.62-.13-.9a20.4,20.4,0,0,1,4.79-8.32c.71-.76,1.14-1.16,1.38-1.18Zm-21.48.07c1.41,0,6.45,3.73,8.49,7,1.33,2.15,1.69,3,1.39,3.34a1.7,1.7,0,0,1-1.26.05c-.34-.14-.47-.65-1.11-1.85a14.73,14.73,0,0,0-6.66-6.59,2.54,2.54,0,0,1-.89-.54c-.17-.36-.4-1.36,0-1.44Zm.76,2.8A11.53,11.53,0,0,1,76.94,220c1.8,1.32,4.54,5.36,4,5.93a1.36,1.36,0,0,1-1.13.07,21.43,21.43,0,0,0-5.45-6c-.31-.52-1-1.74-.07-1.6Zm-4,.6c.08,0,.42.31,1,1,1.81,1.9,3,4,2.69,5.06-.22.9-.49.41-2.56-3.54-.87-1.66-1.28-2.45-1.16-2.48Zm24.74.06a6.4,6.4,0,0,1-.16,1.94c-.08.39-.34.57-.59.88A11.55,11.55,0,0,0,92.59,225c-.3.87-.16,1.07-1.22,1-.49-.07-.38-.2-.18-.77.67-1.87,2.27-4.91,3.81-6.17Zm-20.56,2.05c0-.55,4.86,4.3,4.19,4.85-.62.11-1,.13-1.26-.09a17.91,17.91,0,0,0-2.82-3.35Zm20.29,1.53h0a9.19,9.19,0,0,1-.08,3.29,1.73,1.73,0,0,1-1.34,0,.44.44,0,0,1-.2-.56c.2-.58,1.25-2.65,1.59-2.73ZM76.5,225.93c-.15.24-1.09.28-1.45,0a4.58,4.58,0,0,1-.09-1.84c.36-.23,1.66,1.5,1.54,1.82Z"/><path d="M13.82,10.74C10.06,10.81,8.2,14,8.18,17.1v8.26H5.94v2.73H8.18s0,1.26,0,2c0,3.7,1.29,5.95,3.84,6.58a7.54,7.54,0,0,0,5.6-1c.68.28,1.15.86,1.88.94s2.48,0,2.48,0L22,33.8l-.83-.12c-1.6,0-2.3-.59-2.13-1.59a3.89,3.89,0,0,0,.42-1.91v-14a5.53,5.53,0,0,0-5.6-5.47Zm-.12,2.72c1.79,0,3.28,2.06,3.24,4.19l0,10.79a3,3,0,0,1-.35,1.81c-.24-.69-4-4.48-5.8-4.3a36,36,0,0,1-.12-4.55c0-2.33-.64-5.81,1.45-7.38a2.71,2.71,0,0,1,1.55-.56Zm97.16,9.34.6.8-3.53,0c.58.49,13.69,26.86,30.45,57.35,2.77,5.34,8.06,7.27,14.21,7.51L136.31,62.26c1.74-.94,5.18-3.47,7.26-3,.13.63.75.38.76-.19l.75,0,.26.41h3.17l.26-.37,2.73.39c-7.29-9-11.14-22.83-9.89-36.34l-24.17.05-.32-.42Zm-2.93.82s0,0,0,0ZM80.14,41.2c-2.75,8.87-9.54,16.18-13.57,23.53-4.33,8-5.35,15-4.13,22.63l.79.07A131.3,131.3,0,0,0,83.59,45.05c.08-.32-.06-.89,0-1.22a1,1,0,0,1,.09-.92c.23-.25.15-1.21,0-2.79a64.55,64.55,0,0,1,0-12.68c.3-3.28.28-3.79.28-3.79l-1.58,0A48.83,48.83,0,0,1,80.14,41.2Zm38-17.2,2.6.06c.39,7.92,7.07,9,8.1,8.84-1.7,5.36,1.12,11.24,7.91,12.08-1.55,5,1.2,11.52,6.64,11.34l.58.36a6.46,6.46,0,0,0-.41,2.21,19,19,0,0,0-2.65.42C133.85,48.72,118.1,24,118.1,24Zm23.05,0c-.78,8.86,1,21,5.15,28.21a3.36,3.36,0,0,1-.22.61c-.39.6-.59.08-.83-.4-.89-1.64-2.56-1.89-3.29-1-1.62,2.21.13,3.08,1.5,4.32-5.57-.34-7.42-6.47-6.14-9.5a4,4,0,0,0,.69,2.07c1.56,2.37,3.85.37,3.19-1.51a10.87,10.87,0,0,0-1.26-2.07,7.24,7.24,0,0,0,1.9-.53,1.54,1.54,0,0,0,.71-1.67,3.33,3.33,0,0,0-.46-1.46,2.23,2.23,0,0,0-1.74-.83c-1.15.08-1.29.87-2,1.41-.18-1.42-1.1-2.51-2.59-2.24a1.94,1.94,0,0,0-1.26,2.92c.36.77.85,1,1.34,1.67-8-.89-7.13-10.39-6.24-10.22,0,0,.24,0,.17.31-.45,2.33,2.43,3.72,3.7,2,.8-1.37-.93-3.54-.93-3.54a7.38,7.38,0,0,0,1.68-.55c2.09-1.2-.14-4.66-2.08-3.81-.68.31-.86.94-1.52,1.28-.45-.5-.47-1-1.27-1.48-2.2-1.22-3.57,1.67-2.35,2.94.49.51,1.37,1,1.2,1-6.8-.85-6.73-8-6.58-7.92Zm-58.46.06h.94c-.28,4.23-.88,9.79-.49,13.91.46,3.94.48,4.49.2,4.88s-.18.64-.11,1a1.75,1.75,0,0,1,0,1A84.85,84.85,0,0,1,80,55.05C75.66,67.12,68.52,80.28,62.92,87.18c0,0-.26,0-.26,0a35,35,0,0,1,3.45-21C69.58,59.55,75,53.85,78.25,46.85a48.09,48.09,0,0,0,4.44-22.79Zm34.46,0L140,59.49l-4.17,2L112.45,24.15Zm-68.7,3.71c-8.09.13-12,10.3-5.26,15.19,1.22.87,1.59,1.38,1.26,1.73s-.65.15-1.26-.46C37.92,39,29.78,41.85,29,49c-1.26,11.89,13.54,15,17.33,3.7,1.09-3.25,1.55.26.5,3.72a33.47,33.47,0,0,1-4.2,9.17c-.29.44-.73,1-.73,1h13s-.41-.55-1-1.24a25,25,0,0,1-4-11.59c-.1-1.17-.06-2.06.17-2.21.39-.25.62.06,1,1.46.86,2.88,2.5,5.23,4.32,6.12,4.41,1.82,8,1.27,11-2.74C72.93,47.73,62.27,37,54.66,44c-.7.64-1.14.7-1.21.18,0-.25.17-.5,1.12-1.4,6.54-5.19,3.27-14.1-4.9-15a10.1,10.1,0,0,0-1.22-.07ZM15.57,33.16c.16.33-.44.66-1.09.84-1.84.52-3.64-.63-3.69-3.26,0-.8-.08-1.66.21-1.79.84-.38,4.07,3.21,4.57,4.21Zm115-2.21A1.07,1.07,0,1,1,129.45,32,1.06,1.06,0,0,1,130.52,31ZM13.45,40.31c-3.7,0-5.63,5-2.11,8,.61.52.85,1,.81,1.11s-.19,0-.94-.48c-3.31-2.34-7.29-.25-6.94,3.1.5,4.77,5.88,5.91,7.79,1.49.34-.78.5-1,.68-1s.19.32.11.83a16.82,16.82,0,0,1-2.5,6h6a13.69,13.69,0,0,1-2.07-6c0-.61.06-1,.3-1s.25.21.5,1.24c1,3.78,6.81,3.58,7.78-.25,1.09-4.28-3-7.33-6.28-4.62-.47.38-1,.66-1.09.39a2.46,2.46,0,0,1,.8-1.1c3.39-3.31,1.12-7.75-2.85-7.74Zm124.63,2.47A1.08,1.08,0,1,1,137,43.86a1.08,1.08,0,0,1,1.08-1.08ZM83.73,44.89c.39,1.55-7.24,24.75-18.08,39.51l4.73.1.15.52c6.63,9.79,2.49,18.46-2.87,22.48L69.51,110l-1.67,1.35-1.66-2c-13.58,10.18-40.06,32.72-40.06,32.72l.15,3.61L28.34,144c13.43,13,41.91,12.28,49.38-14.56l2,.05c-4.52,19.67-22.91,27.37-36.79,24.11l-3.25,4.67.88.47c-.16-.25-.31-.34-.08-.57l2.76-3.55c20.77,2.66,33.3-9.09,37.37-25l2.65,0a64.69,64.69,0,0,1-17.48,34.35c-6.45,0-17.79-.17-17.79-.17,4.12,4,12,16.21,12.33,17.45,0,0,8.11.26,16.81,0,3.2-1.44,7.47-2,9.46-1,3.5,1.76,6.79,8.31,8.28,18.82a39.5,39.5,0,0,0,.83,4.4c0,.1.25.18.29.16s-.21.47-.23.88a2.28,2.28,0,0,0,.19,1.23c.25.27.22.45.18.57a4.88,4.88,0,0,1-.49.51c-.07,6.13,0,11.69-.37,19.22h1.2c0-12.12,3.65-23.33,9.29-31,3.42-5.06,7-10.52,9-15.72a29.77,29.77,0,0,0,1.36-17.19l-.83.05c-4.95-3.4-7-10.65-.87-15.83l-2.16-2.81c-6.09,4.71-7.5,13.41-1.18,20.61h-2.47c-6.16-7.69-4.8-16.53,2.32-22.83l-1.59-2,1.73-1.53,1.56,1.71,39.76-33.22,0-3.63-3,2.47c-17.84-16.48-44.28-4.92-48.16,14.94l-2.42,0c5.08-21.37,23.81-27.41,37.35-24.57l3.34-5.06c-3-.84-6-3.06-8.61-5.63-.08-.08-.65.13-.73,0s.35-.4.27-.48c-6.58-6.8-11.07-16.51-11.27-16.52l-17.45,0c-2.56,1.26-6.94,2.7-9.35.76-5.16-4.17-6.89-12.58-7.6-18-.22-1.69-.4-4.62-.56-5.59a.4.4,0,0,0-.46-.16Zm61.85,9.36a1.06,1.06,0,1,1-1.06,1.06,1.07,1.07,0,0,1,1.06-1.06Zm2.27,1.25A12.93,12.93,0,0,1,149.9,59c-.4,0-.78.12-1.22-.24A4.84,4.84,0,0,0,147.43,56Zm-3.19,1.56a1.89,1.89,0,0,1,.39,1.73c-.43.09-.72.06-.86-.09a1.87,1.87,0,0,1,.47-1.64ZM75.28,68.63l16.2,0c2.81,2.16,5.57,1.87,9.57.14h18l1,1.85H74.4c.26-.69.88-2,.88-2ZM74,71.52h46.6l1.18,1.89H72.79Zm4.49,2.75h5.23l-1.94,3.29H76.34Zm11.61,0h5l-2.22,3.28H87.88Zm16.15,0-2.11,3.28H99l2.18-3.25Zm6.25,0h5l-1.87,3.28h-5.17Zm-67.14.51c-3.24,0-2.64,4.26-2.33,4.13-2-.47-3.54.5-3.79,2.23a3,3,0,0,0,3.49,3.06A3.82,3.82,0,0,0,43,86.84a11.41,11.41,0,0,1-1.2,2.89c-1.47,3.07-1.77,3.21-2.44,1.2-.72-2.18-1.83-3.28-4.72-4.68a16.65,16.65,0,0,1-2.42-1.45c-1.29-1-1.31-1-1.24,1,.07,2.56.85,3.69,3.59,5.2a20.6,20.6,0,0,0,4.37,1.79,13.53,13.53,0,0,1,3.31,1.48,8.29,8.29,0,0,0,3.06,1,15.79,15.79,0,0,0,7.37-1.49c1.19-.69,1.64-1.3,2.52-3.05a20.24,20.24,0,0,1-4.36-.2c-2.84-.17-4.25,0-6.41,1.12-1.8.93-1.9,1.1-1.15-.45a19.83,19.83,0,0,0,.95-2.37c.32-.83.4-.9,1.19-1A2.93,2.93,0,0,0,48.29,85a4.47,4.47,0,0,0,0-1c1.17.18,3.58-.41,3.5-2.84-.06-2.2-1.63-2.7-3.55-2.85a3.07,3.07,0,0,0-2.91-3.53Zm0,.68c2.84,0,2.78,2.63,1.54,4.11l-1.51-1.25-1.22,1.13c-1.33-.85-1.32-4,1.19-4Zm77.7,0,1.4,2.06h-2.89Zm-53,3h5.35l-2.15,3h-5s1.13-1.92,1.85-3Zm16.86,0-2,3.13H80.19l1.88-3.07Zm6.26,0H98L96.07,81.8H91.29Zm11.37,0h4.89l-2,3.34H102.6Zm11.08,0h5l-2.08,3.34H113.7Zm-70.18.62,2.4,2.42-2.34,2.34-2.41-2.3Zm6.09,2.35c-.42,2.82-3.14,2.66-3.9,1.29l1.1-1.26-1.35-1.33c1.31-2.11,4.48-.82,4.15,1.3Zm-8.07-1.34-1.3,1.46,1.43,1.37c-.92,1.28-4.44,1.18-3.74-1.89a2,2,0,0,1,3.61-.94Zm82.36-.36,1.49,2-2.79,0Zm-58,2.51,59.79.19,1.6,2c-20.88.36-41.32-.34-62.64-.35Zm-21,1.27c2.37,1.45.62,4.52-1.93,4-1.89-.83-2.28-2.8-.57-3.94l1.34,1.1Zm20.5,1.17H65.66l-1.59,1.86c6,6.33,5.79,11.82.19,16.6l2.25,2.53c6.28-5.37,7.67-13.82.78-21Zm6.17.25c3.37,5.26,6.28,15.23-3.75,24.36l-1.21-1.47c8.73-8.53,6.68-15.71,2.77-22.83Zm.94.12L88,85.11c-2.91,11.07-5,17.6-5.26,34.93l-3.92,0c.43-.4-2-10.47-4.9-14,6-10.21,2.77-16,.5-21Zm-42.71,0a5.87,5.87,0,0,1,1.66.87c.84.51,1.94,1.15,2.44,1.42a6.3,6.3,0,0,1,3.32,3.54c.4,1.13.15,1.15-1,.09a32.93,32.93,0,0,0-4-3c-.8-.55-1-.46-.59.21A8.71,8.71,0,0,0,36,90.09c1,.64,2.5,1.92,2.39,2.11s-.28.15-.79-.06c-.24-.11-1-.42-1.68-.7-3-1.2-4.22-2.67-4.4-5.12-.06-.85-.12-1.25.15-1.25Zm62,.06a3.34,3.34,0,0,1,.46.76c.12.49-.36.93-1.86,1.6-.52.23-1,.35-.93.65.07.71,1.42,1.79,1.25,2.75-.31.74-2.19,1.46-2.66,2.33,0,.6,1.23,1.51,1,2.32-.09.24-.49.49-1.07,1-1.19,1-1.26,1.19-.83,2,1,1.87,1,1.73-.33,3s-1.37,1.33-.71,2.49.69,1.2-.27,2-.91,1-.41,1.93.6,1-.22,1.69-1.15.94-.46,2,.75,1.07,0,2-.84.91-.44,1.49c.52.74.61.93.08,1.75s-.58.81-.05,1.62a2.45,2.45,0,0,1,.37,1.45H84.9a4.22,4.22,0,0,0-.2-1.32c-.48-.86-.47-1.13.1-1.89s.48-.86-.06-1.64-.47-.79.24-1.69.69-1.22.32-1.69c-.88-1.12-.88-1.59,0-2.33.68-.57.74-.82.16-1.79s-.64-1,.4-2,1.06-.94.34-2-.65-1.13.46-2.17,1.15-1,.41-2.37-.7-1.21.65-2.42,1.81-1.27.46-2.88c-.75-1.27-.21-1.4,1-2,2.16-1.31,1.17-1.23.26-3.19-.75-1.31-.32-1.32,1-2a10.08,10.08,0,0,0,1.06-.51c.89-.49.41-1,.41-1Zm2.82,0,6.48.09c-7.51,9.59-11.13,21.86-12.42,34.81l-2.45,0c-.15-10.11,3-22.74,8.39-34.86Zm33.28.23c3.71,3.12,6.46,4.91,8.41,5.61,0,0-2.61,4.34-2.81,4.18a31.73,31.73,0,0,0-37,24.78H96a52,52,0,0,1,6.42-20.07,55.92,55.92,0,0,1,11.81-14.57Zm-25.87-.16,3.2,0a12.59,12.59,0,0,0,.87,1c1.37,1.57,1.5,1.26-1.54,3-1.92,1.08-2.77,1.59-2.88,2s.84,1.37.94,2a36.68,36.68,0,0,1-3.08,2.07c-.66.32-.69.59,0,1.73.75,1.3.7,1.26-.92,2.39s-1.9,1-1.22,2.09c.93,1.53.49,1.87-1.71,3.06-.56.3-.57.6-.18,1.64.54,1.45.68,1.3-.46,2.09-1.34.92-1.58,1-1.28,1.51.86,1.65,1.21,2,0,2.59-.88.41-.9.64-.41,1.73s.62,1.05-.26,1.66-1.28.45-.49,1.38c.62.74.57,1.32.06,1.77-.44.19-.64,1-.51,1l-1.12,0a1.25,1.25,0,0,1,.31-2c.15-.27,0-.47-.38-1.1-.49-.89-.48-1,.23-1.51s.73-.38.26-1.53c-.56-1.34-.53-1.5.34-2.12s.86-.74.28-1.92-.61-1.23.9-2.23c1.06-.71,1.08-.67.51-2-.39-.9-.11-1.21,1.34-2.2.82-.57.88-.68.5-1.35-1.08-1.86-1.06-1.92.78-3.11,1.51-1,1.5-1.07.92-2.37s-.69-1.3,1.38-2.55c1.71-1,1.8-1,1.1-2.19-.87-1.53-.82-1.28,2.59-3.23,1.24-.85,2.35-.56,1.12-2-.54-.69-1.2-1.43-1.2-1.43ZM43.6,87.74c.23,0,.41.28.4.82a6.38,6.38,0,0,1-.74,2.26c-.72,1.54-1.44,2.68-1.82,2.68-.89,0-.87-.18.32-2.5.54-1.06,1.1-2.27,1.18-2.5.2-.51.45-.75.66-.76Zm11,3.48c0,3.25-10.19,4.89-10.72,3.25,1.78-1.39,7-.77,8.15-2-1.34-.08-3.16.14-4.41.17-1.56,0-4.07.69-4.09,1-.17-.86,2.67-2.47,4.91-2.57s4.38.16,6.16.2Zm.88,5S35.54,112.66,25.7,120.63l.06,3.55L57.25,98.4Zm-.07.81,1.27,1.55L27.09,122.63,27,120.1Zm93.44,8.45-1.07,1.14C118.88,85.1,92.3,117.72,107,141.06a6.49,6.49,0,0,1-1.16,1c-16.34-27.09,14.93-58.78,43-36.65Zm-15.89-4.7a9.45,9.45,0,0,1,5.93,2.67c1.48,1.78,1,2.58-.83.9-2-1.48-3.7-1.82-.89-.08a4.59,4.59,0,0,1,1.21,1.21c.1.3-.42,0-2.78-.87a7.86,7.86,0,0,1-3.64-2.83c-.34-.71.14-1,1-1Zm-6.08,0a4.34,4.34,0,0,1,1.29.13,8.81,8.81,0,0,1,3.49,1.5c.53.41.35.7-.25.44a16,16,0,0,0-3.38-.93c-.58.06,0,.44.85.65,1.86.47,2.79,1,1.46,1a34.78,34.78,0,0,1-4.57,0c-1.38-.16-3.45-1.42-3-1.87s2.56-.89,4.09-.9Zm-5.92,1.94c2.45,0,3.77.94,1.1,1.13-4.61.72-5.49,1.72-.39.53,1.19-.27,1.16.15.34.56-.66.32-1.5.48-2.2.82a9.89,9.89,0,0,1-5.27.21c-1.65-.63,3.56-3.29,6.42-3.25Zm19.7.41c1.24,0,3.88,1.83,5.06,3.51.76,1.1.38,1.89-.78,1-.23-.18-1.9-1.6-2-1.63s1.38,1.41,1.61,1.82.63,1.15-.19,1.16c-1.3-.16-4.35-3.56-4.37-5.24a.57.57,0,0,1,.66-.63Zm-15.35,1c.52,0,.26.26-.73,1-1.76,1.24-.84,1,1.22-.07a8.17,8.17,0,0,1,1.66-.63c.26,0,.58-.12.7-.15.55-.17.12.51-.78,1.23a16.48,16.48,0,0,1-5.52,3.09c-1.89.47-2.29.52-1.59-.65,1.11-1.88,2.72-3.37,4.26-3.66a5.85,5.85,0,0,1,.78-.11Zm6.35,0a15.6,15.6,0,0,1,3.29.48c1.08.33.79.41-.49.55-2.43.26-1.42.55.94.51,3.22,0-1.62,1.16-3.18,1.39a14.6,14.6,0,0,1-4.25-.49c-1-.19-.4-.93,1.52-1.85a5,5,0,0,1,2.17-.59Zm19.88.44.09,2.07-38.95,32.57-1.33-1.46Zm-13.25,1.78c1.56,0,3.8,1.06,3.56,1.71-.09.24-.27.23-1.45-.09-.78-.2-2.17-.42-2-.25a11.61,11.61,0,0,0,1.57.57c1.37.33,3,1.11,2.65,1.34-.64.39-1.22.08-2,0a18.13,18.13,0,0,1-5.49-1.69c-.57-.54,1.45-1.58,3.12-1.6Zm-18.17.12c.28,0,.39.27.12.63a12.2,12.2,0,0,0-1,1.64,9.91,9.91,0,0,1-3.37,3.59c-1.26.78-1.43.65-1.33-1a5.56,5.56,0,0,1,3.06-4.29c.78-.11,1.23-.32.41.67-1.47,1.75-.47,1.57.9-.42.43-.63.89-.86,1.17-.85Zm-5.06.23c.85,0,1.13.3,0,.81a17,17,0,0,0-3.14,2.07c-.08.27.69-.15,2-.85,1.7-.93,1.86-.9,1,.16a11.81,11.81,0,0,1-4.93,3.26c-2.46.68-2.4.21-1-1.62a7.38,7.38,0,0,1,4.1-3.47,7,7,0,0,1,2-.36ZM73.3,107c8.93,15.39,4,31-6.39,39-10.82,8.34-27.67,7.84-37.61-2.17l1.38-1.3s15.67,16,35.41,1.8c10-7.19,14.16-24.18,5.9-36Zm-40,0-.07,0a19.49,19.49,0,0,0-1.66,4.9,1.21,1.21,0,0,0,.36,1.12c.24.23.61.08.73,0,.75-.34,1.17-.87,1.83-2.53a4.42,4.42,0,0,0,.42-2.37,1.62,1.62,0,0,0-.59-.72,2.81,2.81,0,0,0-1-.46Zm.17.7a1.64,1.64,0,0,1,1.16,1c0,.73-.41,1.93-.72,1.75-.51-.64-1.11-.24-1.21-.47a4.88,4.88,0,0,1,.71-2.26Zm96.42.57a16.23,16.23,0,0,1,10.82,3.73l-1.55,1.42a16.93,16.93,0,0,0-19.4-.16c-4.64,3.24-8.75,10.4-4.73,20.49l-1.45,1.31a18.14,18.14,0,0,1,5.89-23.91,19.74,19.74,0,0,1,10-2.88ZM71.2,109.5c.12,0,.3.4.28.88s-.27,1.34-.66,1.5-.72-1.14-.72-1.14a5.06,5.06,0,0,1,1.1-1.24Zm71.07.46a3.45,3.45,0,0,1,.46,0c.44.06.45.46,0,.84s-.69.43-1.14.1-.43-.51-.08-.77a1.64,1.64,0,0,1,.73-.18ZM66,110.05l1.32,1.62-4.56,3.67-.55,0L27.3,144.31v-2.57ZM139,114l-4.75,3.92c-9.51-4.94-17.14,3.86-14.45,11.86l-4.11,3.57c-7.36-20.19,14.16-27.1,23.31-19.35Zm-24.91-3.09h0a.27.27,0,0,1,.1.06,10.6,10.6,0,0,1-.41,3.34,1.55,1.55,0,0,0-.17.52,20,20,0,0,1-1.56,3.27,8,8,0,0,0-.61,1.33c-.55,2.66-1.74-1.61-1.32-4.08.2-1.17,1.85-3.57,2.33-3.39.24.09.22.27-.2,1.2-1.2,2.6-1.49,3.93-.24,1.43,1.44-2.9,1.82-3.64,2-3.68Zm-80.82.05a.45.45,0,0,1,.39.32,1.18,1.18,0,0,1,0,.72,1.34,1.34,0,0,1-1.26.87.56.56,0,0,1-.5-.45,1.12,1.12,0,0,1,.31-.87,1.63,1.63,0,0,1,1-.59Zm36.22.17c.56,0,1.16,1.55.78,2.24s-.37.46-.91-.64a12.45,12.45,0,0,1-.5-1.2l.46-.36.12,0Zm-1,.64a7.7,7.7,0,0,1,.74,1.93c.09.52.07.42-.5.21a2.81,2.81,0,0,1-.84-.8,4.45,4.45,0,0,0-.37-.57Zm3.57.23c.29,0,.62.29.91,1,1.1,2.79,1,5.91-.24,7.38-.21.25-.25.25-.5.1a2.85,2.85,0,0,1,0-1.82,6.15,6.15,0,0,0,.26-1.36c0-1.07-.26-1.21-.4-.22-.17,1.15-.34,2-.65,1.26a9.6,9.6,0,0,1-.36-1.07c-.62-2.41.11-5.27,1-5.3Zm-4.82.71s1.06,1.38,1.5,1.87c.15.26.15.33-.1.43-.42.16-1.83-.78-2.39-1.07-.3-.24-.17-.43-.17-.43.39-.28.77-.57,1.16-.8Zm42,0c.57,0,.57.19,0,1.07-3.39,4.86-2.7,4.14-.55,1.48,1.2-1.48,1.41-1.62,1.54-1.29a18,18,0,0,1-2.06,4.17,9,9,0,0,1-2.34,1.78c-1.61.81-1.43.49-.84-1.54.76-3.13,2.67-5.65,4.29-5.67Zm-44,1.68c9.28,23.08-16.13,33.21-27.59,22.53l1.33-1.06C55,146.7,70.75,129.37,63.55,115.81c0,0,.65-.54,1.77-1.4Zm2.15.57c1.53.15,3.78,3,3.9,4.5.24,1.11-.07,1.3-.62.52-.91-1.69-.8-.62,0,1.06.41.85.51,1.87.08,1.92-.59-.12-1.86-2.15-2.25-3a9.78,9.78,0,0,1-1.5-4.24c-.1-.51,0-.78.41-.78Zm-4.62.75c7.07,13.56-8.14,29.84-23.6,19.32l4.64-3.68c8.07,3.87,17.07-.93,14.49-12.06Zm70.51,2.53-12.75,10.62c-2.62-8.8,7-13.83,12.75-10.62Zm-23.68,0c.42-.09.77,2.58.85,6.32s.17,4-1,2.67a11,11,0,0,1-1.33-1.56c-.75-1.43-.51-2.93-.3-5s.89-1.65.78.4c-.07,1.31-.06,3,.14,3s.1-.13.06-.31a32,32,0,0,1,.53-5.11c.08-.22.16-.33.24-.34Zm-35.14,1.61c.92.36,1.19,3.44.19,6.41a4.27,4.27,0,0,1-2.07,2.62c-.7.37-.87.25-.55-.39A10.65,10.65,0,0,0,73.24,125c.09-1.32-.6-.26-.54.3-.55,2.45-1.26,2.82-1.17.24a6.28,6.28,0,0,1,1.22-4c.45-.65.93-1.56,1.79-1.68Zm32,.31c.38,0,.47.51.13,1.5-.23.69-1,2.91-.94,2.9s.92-2,1.09-2.33c.29-.53.4-.63.65-.61a9.58,9.58,0,0,1-.13,3.24c-.52,2.67-2.33,5.42-3,4.6-1.13-1.33-.6-6.74.9-8.38.57-.62,1-.92,1.33-.92ZM58,120.57C59.33,130,51.55,134,44.83,131.18,45,131.14,58,120.57,58,120.57Zm31.79.17,1.36,1.78,2.48.13-1.27,1.87,1.26,2.4-2.77.06-1.59,1.83-1.38-1.66L85.41,127l1.41-2.25-1.13-2.15,2.61-.12Zm-20.83.81a6.94,6.94,0,0,1,2,2.77c.46,1.8.29,5.2-.36,5.08-.7-2.45-.43-3.71-.68-3.43-.43.45.27,4.21,0,5.13-.11.24-.49,0-.91-.65-1.13-1.62-1-8-.12-8.89Zm82.9,3.82-30.64,25.38L123,153l28.93-23.87Zm-44.25.44c.14,0,.44.19,1,.82a16,16,0,0,1,2.45,4.64,16,16,0,0,0,.53,1.64c.21.52.23.66.1.82-.53.65-2.75-1-3.47-2.57-1-2.22-1-4.21,0-2.27.37.71.82,1.74.82,1.33a13.22,13.22,0,0,0-.79-2.27c-.21-.41-1-2.07-.64-2.14Zm43.93.62.06,2.1L123,152.39,121.91,151s26.87-22.35,29.59-24.6ZM107,127.72c.13,0,.2.21.16.63-.13,1.39-.47,4.41-.4,4.68s.45-2,.54-2.38c.49-2,1.24,2.78.79,4.92-.07.34-.22.88-.29,1.22a5,5,0,0,1-.41,1.05c-.8,1.27-2.71-3.79-2.39-6.37.2-1.6,1.52-3.79,2-3.75Zm-33,1.11c.37,0,.45.35.38,1.12-.21,2.64-2,5.41-3.89,6.15s-2.09.58-1-.78c.86-1,1.39-2.13,1.24-2.28s-.27.36-1,1.26c-.87,1.12-1,.17-.23-1.48a6.71,6.71,0,0,1,2.63-3,5.09,5.09,0,0,1,1.8-.95Zm17.35.81a83.81,83.81,0,0,1-8.69,34.45H77.48c6.27-9.22,10.26-20.64,11.37-34.42Zm2.25,0A10.22,10.22,0,0,1,94.62,131c.34.59.43,1.11-.19,1.55-.72.61-1,.38.16,1.91.62.8.42.93-.36,1.61s-.84.73-.1,1.67.94,1.16-.1,1.94-.94.87-.21,2,.87,1-.41,2.12c-1.11.93-1.13.68-.07,2.39.39.62.36.66-.35,1.3-1.76,1.55-1.67,1.45-1.42,1.86,1.93,2.76,1.06,2.68-.82,4-.38.32-.29.69.56,2.07.73,1.17.62,1.42-1.07,2.59s-1.82,1.37-.94,2.6.89,1.14-.52,2.4c-.64.57-1.16,1.09-1.16,1.09H84.5s.66-.6,1.1-.94c2.57-1.89,2.56-1.69,1.48-3.06-1-1.21-.87-1.29.1-2,.7-.5,1.64-1,2.35-1.52.38-.27.1-.5-.54-1.7s-.74-1.18.58-2.26,1.46-1.15.68-2.66-.8-1.37.19-2.18c1.47-1.2,1.54-1.14.77-2.54-.62-1.1-.62-1.07.42-2.12s.92-1,.3-1.95-.6-1.11.23-1.85.78-.75,0-1.78-.72-.93.17-1.71c.47-.41.94-.83.92-1a5.87,5.87,0,0,0-1-1.89c-.17-.25.18-.33.74-.91s.54-.45.11-1.23c-.23-.43-.67-1.14-.67-1.14Zm-8.37,0,.89,0a4.31,4.31,0,0,0,.36.41c.57.58.6.92,0,1.23s-.33.73.12,1.4.49.64-.21,1.34-1.1.76-.3,1.87c.45.51.39,1.05-.31,1.51-.54.35-1.44.64-.49,2,.46,1,.5.9-.46,1.58-1.29.91-1.53.76-.94,2.08.65,1.48.72,1.5-.62,2.49-1.57,1.15-1.62,1.24-1,2.62s.67,1-1,2.32c-1.21.94-1.48,1-1.13,1.77.67,1.47,1,1.86-1,2.86-2.26,1.16-2.38,1.25-1.29,3,.89,1.4.69,1.2-.77,2-2.11,1.22-3,1.75-3.11,2.12s1.65,1.7,1.65,1.7l-2.95.08s-1.24-1-1.72-1.47c-1.33-1.3-1.34-.87,3.09-3,2.44-1.19,2.24-.92,1.84-1.61-1.18-2-1.22-2.26,1-3.37,1.92-1,1.59-1,1.12-2.49-.41-1.28-.34-1.16.67-1.92,2.45-1.81,2.38-1.62,2-2.51s-.67-1.28-.38-1.72c.88-1.26,2.75-1.53,2-3-.36-1-.49-1.19.59-2s1-.71.36-1.78-.65-1.15.46-1.92c.79-.72.78-.7.33-1.41-.61-1-.58-1,.3-1.77.71-.63.83-.66.38-1.35-.6-.91-.51-1.11.29-1.56.49-.28.48-.39.44-.85a4.12,4.12,0,0,0-.26-.61Zm11,.06h4.1a33.71,33.71,0,0,0,4.92,13.12c-5.18,8.32-4,15.23-.84,21.34l-13,0a113.91,113.91,0,0,0,4.8-34.42Zm-28.13,0c.15,0,.26.23.51.66.82,1.4.24,3.39-1,5.47-.9,1.55-1.06.36-.65-1.88.26-1.41-.45.71-.79,2.41-.18.93-.63,1.67-1.11,1.63s-.31-1.37-.3-1.66c.11-2,.87-3.49,2.34-5.51.56-.77.79-1.11,1-1.12Zm41.84,4a1.52,1.52,0,0,1,.8.27l1.06.61c1.13.62,1.22.81.68,1.44-.66.78-1.09.49-2.25-.81-.78-.87-.79-1.49-.29-1.51Zm-.38,1.71a1.68,1.68,0,0,1,.93.63c.75.85.66,1.58-.17,1.37-.34-.49-.51-1.25-.84-1.8-.07-.13,0-.2.08-.2Zm36.61.11A2.85,2.85,0,0,0,144,137.5c-.71,3-.71,2.85-.08,3.28l.42.28c.37.29.88.75.94.66.6,0,1.52-3.81,1.49-4.59s.07-.94-.14-1.31a.49.49,0,0,0-.46-.25Zm-37.17.07a.22.22,0,0,1,.18.07,5.53,5.53,0,0,1,.91,1.93,1.17,1.17,0,0,1-.12.47c-.41.79-1,0-1.11-1.33,0-.76,0-1.12.14-1.14Zm37.05.58h.09c.49,0,.42.53-.26,1.26-.36.38-1.09.57-1.33.33s.37-1.29,1.16-1.52a2.06,2.06,0,0,1,.34-.07Zm-82.31.42h.08a.89.89,0,0,1,.63.33,1.7,1.7,0,0,1,0,1.53c-.39,1.36-2.93,4-3.85,4-.54-.09,1.73-3,1.81-3.46-.17-.17-1.58,1.46-2.25,2.59a5.3,5.3,0,0,1-.82,1.25c-.47.05-1,.35-1,0,.08-1.45,2.9-4.59,3.87-5.47a2.45,2.45,0,0,1,1.51-.81Zm6.82.14c2.18,0-2.12,4.75-4.9,5.44a5.88,5.88,0,0,1-2.58.09c-.11-.18,0-.33.37-.42a14.46,14.46,0,0,0,3.41-2.18c0-.26-1.17.18-2.18.83-.64.42-.95.34-.6-.17a7.69,7.69,0,0,1,6.48-3.59Zm37.78,0c.13,0,.25.26.33.81.4,1,.42,1.3,0,1.6-.64.52-.8.38-.79-.81,0-1,.22-1.61.42-1.6ZM36.4,138.14s.8.3.47.68-1.21,0-1.21,0Zm109.68,0c.26,0,.27.22.13.83a5.88,5.88,0,0,1-.94,2.46,3.56,3.56,0,0,1-1.09-.66c-.11-.11-.42-.34-.46-.49a1.54,1.54,0,0,1,.39-1.49,1.21,1.21,0,0,1,.62-.21,3.14,3.14,0,0,0,.83-.27,1.89,1.89,0,0,1,.52-.17Zm-109.4,1.15a5.76,5.76,0,0,1,1.72.24,22.16,22.16,0,0,1,5,2.23c.66.63-1.06,1.3-3.14,1.33-1.1,0-1.31-.22-2.83-1.13-.19-.13-1.08-.71-.82-.92s1.13.08,2.19.62c.35.17,1.19.12,1.18,0a16.48,16.48,0,0,0-3.7-1.48c-1-.33-1-.66-.38-.8a6.71,6.71,0,0,1,.77-.06Zm-2.08.73s.44.39,1,.81a7.55,7.55,0,0,1,1.83,1.79c.72.88,1.86,3.07,1.73,3.46-.29.91-3.33-.68-5.82-3.17a17.44,17.44,0,0,1-1.28-1.41l.94-.86s.84.7,1.8,1.55c1.81,1.59,1.8,1.05,0-.63-.51-.48-1-.91-1-.91,0-.3.31-.57.8-.63Zm74.34.08s1,1,1.34,1.47c-5.93,5.79-8.19,13.87-2.47,22.49h-2.74c-5.14-10.12-2.7-17.73,3.87-24Zm-50.08.23c.37,0,0,.42-.62,1.53C57,144,56.77,144.49,54.79,145a8.47,8.47,0,0,1-1.53.06c-.85.11-.48,0,.83-.84,1.81-1.18.27-.57-1.4.29-1,.5-2,.47-2.07.21s.39-.52.67-.77c2.55-2.28,3.33-2.18,5.7-3a13.49,13.49,0,0,1,1.87-.6Zm-10.65,2.08a12.37,12.37,0,0,1,2.54.27c.51.11,1.34.22.64.84a8.62,8.62,0,0,1-4.49,1.82c-.22,0-3.46-.22-2.77-.91a7.19,7.19,0,0,1,1-.13c1.8-.34,1.31-.63-.9-.51-2.77.15-2.89-.14-.8-.71a17.87,17.87,0,0,1,4.42-.66Zm14.79.21c1.23,0,2.19.21,2.19.68,0,.76-2.32,2.43-3.85,2.76l-1.15.25a20.09,20.09,0,0,1-3.77-.09c-1.39-.5-.42-.69,2.12-1,1.1-.13,1.63-.42,1.63-.63a4.7,4.7,0,0,0-2,0c-1.35.17-1.09-.22.59-1.1a10.59,10.59,0,0,1,4.27-.9Zm-22.8,1.06a5.36,5.36,0,0,1,1.28.44c1.47.42,3.5.91,4.89,2.42,1.12,1.09,1.39,1.44,1.15,1.82s-3.76.11-5.22-.51a7.09,7.09,0,0,1-2.65-2.07c-1.27-1.86-.74-2.35.88-1.05,2,1.56,2.25,1.72,2.6,1.65.13,0-.21-.35-.87-.83-1.64-1.23-2.44-1.88-2.06-1.87Zm12,2a6.45,6.45,0,0,1,3.57.85c2,.7,1.51,1.33-2,2.2a6.5,6.5,0,0,1-4.83-.66c-2.84-1.75-2.65-2.1.52-1.32,1,.26,2.08.3,2.14.11s-1.21-.47-2.23-.81-.16-.34,2.06-.36ZM134,153.26l-.52.26a13.72,13.72,0,0,1-2.19.27,15.74,15.74,0,0,0-4.83,1,7.88,7.88,0,0,0-3.24,3.19c1.46-.1,9.67,1.39,11.94-1.57.48-.62-1.22,4.67-2.09,4.91-2.17-.26-3.08,3.13-2.86,3-2.19.84-3.88,1.34-3.32,3.88.24,1.1,1.36,2.41,3.73,2.08-.64,4.4,4.73,5.53,5.32.24,0,0,1.05-.2,1.45-.25,2.46-.58,3.05-4.17-.55-5.3-1-.29-1.05-.48-1.05-.48a3.27,3.27,0,0,0-.45-2.6c.8-1.89,2.77-5.54,2.77-5.54Zm.38,1.09c.49.66-2.09,1.75-4.83,2a16.59,16.59,0,0,0-2,.24c-.29.51,5.31.14,7.06-.84.59-.33.65,0,.39.48-2,2.6-6.92,2-10.75,1.5-.22-.22,0-.49.83-1.18a8.28,8.28,0,0,1,5.18-2c.7,0,3.82-.61,4.13-.23Zm3,2.7a47.49,47.49,0,0,1-2.2,4.54c-.22.23-1,.39-1-.48s1.76-4.76,2.22-4.84a.83.83,0,0,1,.95.78Zm1.17.26c.54,3.92,3.52,4.86,6.38,6.1.75.34,1.39,1,2.14,1.35,1.42-1.92-.17-5.67-2.66-6.89-1.85-.86-3.54-1.55-4.58-1.47-.6,0-1.27.43-1.28.91Zm1.53-.24a11.78,11.78,0,0,1,2.44.53,6.35,6.35,0,0,1,4.77,5c0,.1.15,2-.28,1.93-.66-.19-1-.85-2.07-1.29a15.91,15.91,0,0,1-4.29-2.3,4.41,4.41,0,0,1-1.52-2.5c-.12-.79.15-.87.82-.23,1.49,1.19,3,1.6,4.44,2.75.42.32,1.89,1.14.88.12a19,19,0,0,0-3.75-2.41c-1.49-.71-2.29-1.58-1.44-1.59ZM26.55,161l16.9,26.43c-4.16,2.19-6.21,3.15-13.12,2.61l0,.35-2.94-.17c5.08,7.92,11.33,18.24,9.56,36.25l20.59,0,.35.33c.3.2.75-.36.75-.36l9.29,0,.25.3,4.33,0s-19.8-37.06-29.75-55.46c-4.08-7.38-8.34-10.66-16.24-10.18Zm106.59.88a2.11,2.11,0,0,1,2.22,2.22,4.62,4.62,0,0,1-.65,1.84l-1.51-1.43-1.44,1.44a2.5,2.5,0,0,1-.9-2.34,2.66,2.66,0,0,1,2.28-1.73Zm-17.48.53c1.43,5.57,3,13.26-9.43,31-7.34,10.51-9.74,20.42-10,32.52h-.74c.35-6.64.4-18.68.4-18.68l.69-.62a4.3,4.3,0,0,1-.45-1.11c-.23-1,0-.68.57-3.39,2.53-13.14,19-39.75,19-39.75ZM49.41,165l62.87.29-.83,1.65-60.84-.44Zm83.81.48,2.33,2.27-2.28,2.57-2.4-2.52Zm-1.92,1L130,167.75l1.1,1.16c-1.13,2.39-4.16.52-4.06-1.26.12-2.09,2.56-3,4.23-1.26Zm4,2.7,1-1.29-1.14-1.26c1.87-1.85,3.65-.22,3.82,1.33s-2.39,3.51-3.69,1.22Zm-74.46-1.58,5.14.05-1.91,3.58-5.22,0Zm11.47,0h4.73l-2,3.63H70.29Zm11.17,0h5l-2,3.63H81.34Zm11.23,0h5.13L98,171.17H92.69Zm11.44,0h5l-2,3.63H104Zm-54.66,0h3.32l-1.35,2.39Zm82.94,2.3a2.27,2.27,0,0,1-1.4,4.08,2.32,2.32,0,0,1-1.21-4.16l1.43,1.3Zm-70,1.93h4.84l-1.82,3.27H62.78Zm10.75,0h5.31l-1.87,3.26h-5Zm11.36,0h5.28l-1.72,3.26H84.84Zm11.32,0h5.24l-1.63,3.26H96Zm-43.19.12h3.34l-1.42,2.62Zm2.52,3.79,49,.44-.83,1.59H58.5ZM59,178.57l45.92.11-1.06,2.2L88,180.81c-3.1-2.31-6.64-1.25-10.67.07,0,0-12.15.12-16.92,0Zm64.44,5.61a29.44,29.44,0,0,1,5.12,11.38c.73,3.67-.06,5.46-1,2.26-1.55-8-11.06-9.19-15.3-3-5.9,8.62,4.43,19.1,11.83,12.09.63-.61,1-.75,1.2-.5s.07.55-1.24,1.88c-5.15,5.18-3.24,12.64,3.73,14.37,9.88,2.47,15.85-9.61,7.22-15.32-.9-.68-1-.85-.67-1.22s.55-.3,1.35.43c7.4,6.7,17.51-2,12.83-11.1-3.61-7-13.65-5.7-16.05,2.05-.45,1.44-.48,1.53-.73,1.69-1,0-.31-3.37-.15-4.26,1.16-4,2.45-7.7,4.91-10.77Zm-79.71,3.7,24.21,38.23-5.35-.06-23-36Zm119,2.23c.16.12,2.42,6.33,2,6.9-.14.45-.52.3-.67-.27-1.4-5.36-8-4.45-8,1.09,0,3.43,3.57,4.92,6.63,2.78.46-.31.67-.32.67,0a4.51,4.51,0,0,1-.79,1c-2.46,2.74-1.53,6.54,1.79,7.31,4.47,1.05,6.63-4,3.27-7.6a9.29,9.29,0,0,1-.89-1.07c0-.28.38-.23.82.1,3.09,2.3,6.87.75,6.83-2.81-.06-4.69-5.89-5.93-7.5-1.59-.4,1.08-.59,1.37-.79,1.17-.79-.41,2.1-7.1,2.17-7.1Zm-123.82.26L61.72,226.1c-1,0-2,.05-3.08,0a9.1,9.1,0,0,0-8.1-10c1.9-7.81-3.79-11.09-7.59-11.71,1.54-10.14-6.86-11.58-7-11.48a9.42,9.42,0,0,0-.22-2.13Zm-3.71.57c0,.21.44,2.24-.47,1.86l-.06-1.86Zm-4.81.05c.33,1.35,1,1.61,2,2.51,0,0-1.2.21-1.48,0A11.5,11.5,0,0,1,29.27,191Zm3.58,2.28a1,1,0,1,1-1,1,1,1,0,0,1,1-1Zm2.08.8c3-.19,7.36,3,6.22,9.07a9.72,9.72,0,0,0-.93-2c-2.07-2.8-4.52,1-2.87,2.6.81.77,1.19,1.07,1.1,1.14A2.19,2.19,0,0,0,37,208c1.29,2.36,3.07,1.11,4.11-.29,0,0,.63,2.11,1.27,2.38a2.18,2.18,0,0,0,2.76-1.28c.68-1.74-1-2.19-1.33-3.16,3.48.11,7.91,5.2,5.89,9.61a2.38,2.38,0,0,0-2.9-2.68c-1,.37-1.41,1.89-.57,3.46a6.63,6.63,0,0,0,.41.69,4.92,4.92,0,0,0-1.14.27c-2.72,1.67.79,6.24,2.81,3.38a6.76,6.76,0,0,1,.55-.73c.33.64.43,1.53,1,1.84,2.51,1.26,3.62-1.4,2.57-2.7-.6-.74-1.26-1.59-1.26-1.59-.11-.46,7.5,1.53,6.57,8.93l-20.17,0c1.87-11.38-2.66-24.39-5-28.35l1-1.33c.25.5.67,1.74,1.41,2,2.34.75,3-.88,2.73-2.56-.16-.9-1.41-1.62-1.81-1.75Zm5.34,10.7a1,1,0,1,1-1,1,1,1,0,0,1,1-1ZM161.18,214a4.8,4.8,0,0,0-4.17-1.07l-.07,2.82s3.32-.17,2.88,1.56a12.83,12.83,0,0,0-.28,1.46l0,14.46c.54,6.36,8.72,7.63,10.74,1.6a8.17,8.17,0,0,0,.32-3.09V224.1l2.33,0-.09-2.71-2.13,0c.15-3.81-.51-7.48-3.18-8.35a6.58,6.58,0,0,0-6.31.95Zm6.94,6.5c-1.35.25-3.24-2.3-4.8-4.13.71-1.37,2.88-1.12,3.69-.28,1.17,1.22,1.09,3.47,1.11,4.41ZM48.9,216.62a1,1,0,1,1-1,1,1,1,0,0,1,1-1Zm113.33,2.44c1.43,2.78,5.81,4.92,5.87,4.5l0,7.66c.23,3.07-.86,4.57-2.8,4.77-3.42,0-3.38-4.2-3.38-6.56l0-7.57a6.58,6.58,0,0,1,.32-2.8Z"/></g></g></g></svg>