<svg xmlns="http://www.w3.org/2000/svg" viewBox="0 0 178.58 249.45"><defs><style>.cls-1{fill:#fff;}.cls-2{fill:#262e5e;}.cls-3{fill:#e1cf01;}.cls-4{fill:#d41216;}.cls-5{fill:#0d0d0b;}</style></defs><title>QH</title><g id="Слой_2" data-name="Слой 2"><g id="H"><g id="QH"><path class="cls-1" d="M8.5,0H170.08a8.48,8.48,0,0,1,8.5,8.5V241a8.48,8.48,0,0,1-8.5,8.5H8.5A8.48,8.48,0,0,1,0,241V8.5A8.48,8.48,0,0,1,8.5,0Z"/><path class="cls-2" d="M154.16,19.55l-130.55.07.78,209.61,131-.27c-1-69.89-1.12-139.64-1.26-209.41Zm-15.4,1.77,13.77.07V102s-.86,0-.78-.59a4.14,4.14,0,0,0-.54-2.76,5.73,5.73,0,0,1-.73-.93,3.85,3.85,0,0,0-1.43-1.67c-.24-.1-.51-.16-.55-.32s-.11-.66-.21-1.12c-.25-1.16-.48-1.12.26-2.27,2.55-4,3.53-7.66,3.21-11.31a13.1,13.1,0,0,0-.52-2.81c-2.47,2.47-4.25,5.53-5.93,7.79a78.06,78.06,0,0,1-.38-8.24,3.67,3.67,0,0,0,2.69-2.88s1.41,1.11,2.27.95l-.57-2.08c3.78-1.16,4.3-6.09-.16-7.13l.4-2.6s-1.35.45-1.94.74c-.3.13-.37,0-.57-.4-2.09-3.23-5.32-2.55-6.74.65l-1.74-.74a6.88,6.88,0,0,1,.25,2.66c-3.65,1.62-2.75,6.08.17,6.67l-.26,2.07,2.2-.7a3.34,3.34,0,0,0,1.91,2.64c0,4.36-.11,7.08,0,11a18,18,0,0,0-8.36-5.16,12.89,12.89,0,0,0,.19,2.36c.07.47.06.4-.16.4-.51,0-2.77-3.65-2.77-3.65a.75.75,0,0,0-.49.23c-.27.26.34.76,1.21,2,1,1.5.91,1.44.12,2.12-4.53,3.84-11.08,18.47-10,19.89-2.87.18-14,5.65-16.06,16.93-.12.51-.36,1.17-.36,1.17l-3.23-.8c2-9.25,6.34-28,6.34-28a40.78,40.78,0,0,1,4.9-1.07l0-.73-4.25,1,.2-1.61,4-.79v-.38l-4.25.57.69-2.68s-9.54,1.4-13,1.3c0,0,0,6.13,0,13.55-.69,5.49-1,16.17-1,16.17l-3.83-2.22c-.42-7.83-.54-27.59-.54-27.59l-12.88-2,.43,3.11c-10.68-4.24-21.39-8.13-29.27-16.4,4.85-3.73,12.95-7.42,12.95-7.42l-.26-.59C43.33,78.58,35.93,85.71,25.92,94.56l-.27-73.17,54.37,0L79.84,34.7a1.35,1.35,0,0,1-.18.47c-.66,3.23,1.25,9,.86,11.77a13.67,13.67,0,0,1,.12,2.46,40.23,40.23,0,0,0-6.41,13.84c-.56.22-1.39.67-2,.83l-.16.71A42,42,0,0,1,77,62.94c16.09,7.84,27.91,5.92,40.57.09-2,7.08,2.36,16.09,9.58,18a7.35,7.35,0,0,0,3.05.19c.81-.23-1.82-6.24-3-6.47-3.49-1.51-4.93-5-4.55-9.12l-.58-1c-1.19,4.94,1.67,10,5.6,11.18l1,2.31c-7.12-2.14-10.15-8.8-7.78-15.39,0-4.11-2.62-5.93-3.84-7.7-6.19-2.36-7.34-8.09-6.26-12.73,2.88,1.23-1.94-4.06-1.94-4.06-2.12,4.59-3,10.4,1.85,16.29A42.24,42.24,0,0,1,99,64.8c-6.62,3.46-11.58,1.13-14.78-6.51a35.28,35.28,0,0,1-2.59-14c0-3,0-3.06,1.16-2.56a6.45,6.45,0,0,0,4.66-.15c1.84-1,1.75-.37-.25,1.69a10.36,10.36,0,0,0-1.13,1.17c0,.61.85.1,2.07-1.12.46-.44.78-.86.92-.86s.15.58,0,1.2c-.07.23-.29,1.23-.5,2.21s-.48,2.14-.62,2.57c-.54,1.7-.39,2.5,1.24,3.28a13.17,13.17,0,0,1,2.32,1.83,7.56,7.56,0,0,1-.22-2.05c.16-.6.87-.17,1.59.18,1.61.76,2.54.78,3.4.06a2.34,2.34,0,0,0-.62-3.8c-1.08-.42-1.27,0-.19.72,1.61,1.13-.21,2.87-1.57,1.79-1.08-.84-2.94-.94-3.15-.24s-.39.54-1.14.11c-1.15-.67-1.16-.79-.19-4.51,1.83-7,1.65-9.62-.77-11.75a6.6,6.6,0,0,0-7.84-.56v-2.4c4.51-1.8,7.8-4.78,10.45-9.78h.51c2.64,5.71,6.9,9.81,14.92,12.81,3.13,3.1-4-8.88-1.71-4a19.46,19.46,0,0,1-10.13-8.83H96a21.61,21.61,0,0,0,8.11,7.21.59.59,0,0,0,.78,0s-3.7-5.79-4.3-7.17l37-.26c-1.17,9-2.82,18.77,3.67,36.3-3-1.6-15.27,1.81-13.11,2.48,1.08-1.25,8.86-3.08,14.62-1.72-.47-.42-8.78-19.7-4-36.87Zm4,36.87s0,0,0,0ZM114.17,92.91l0,1.41.3-.07-.18-1.37ZM80.81,21.36h1.62a3.92,3.92,0,0,1-1.67,1.73Zm2.79,0h1.74a12.82,12.82,0,0,1-4.55,4.5l0-1.7a22.26,22.26,0,0,0,2.78-2.8Zm2.88,0h1.61a18.63,18.63,0,0,1-7.3,7V27a24.27,24.27,0,0,0,5.69-5.67Zm2.46,0h1.3a18.13,18.13,0,0,1-9.45,8.85v-1a19.5,19.5,0,0,0,8.15-7.82Zm3.56,0h1.56a21.81,21.81,0,0,0,11.5,10.07l.75,1.73c-6.45-2.32-10.72-5.7-13.81-11.8Zm4.53,0h1.11a16.21,16.21,0,0,0,4.27,4.07l1,2a20.37,20.37,0,0,1-6.39-6Zm2,0,1.24.07L102,24.18a16.68,16.68,0,0,1-2.89-2.82ZM97.63,32.43a6.87,6.87,0,0,0-4.4,1.39c-1.18,1-.31,2,1.4,1.23,2.92-1.36,6.28-.75,9.89,1.23,3,1.67,2-.06-.86-1.92a11.19,11.19,0,0,0-6-1.93ZM83.87,34.62c2.45,0,5.27,1.1,5.34,2.54a8,8,0,0,0-8-.62c-.23,0-.27-.91-.12-1.22a4.71,4.71,0,0,1,2.83-.7Zm14.87.92a4.56,4.56,0,0,0-3.63,1.28c-.34.42-.43.46-.79.4-.73-.12-.69.3.14,1.44a1.56,1.56,0,0,1-.2,1.94c-.62.86-.5.9,1.33,1.77a41.61,41.61,0,0,1,3.79,2.44c.91.51,1.08.06.25-.61-.29-.24-1.14-.84-1.91-1.34-1.29-.84-2.24-1.7-1.21-1.32a6.22,6.22,0,0,0,1.11.3,9.66,9.66,0,0,0,3.77.23,6.4,6.4,0,0,0,2.72-1.44c.22-.1.44,0,1,0,2,.07,1.59-.52-1.34-2.12s-5.18-1.87-7-1c-.79.36-1.24.46-1.12.22a1.68,1.68,0,0,1,.69-.73c3-1.79,5.4-.3,8,1,1.13.68,1.44.86,1.57.64s-1.26-1.3-3.19-2.26a8.91,8.91,0,0,0-4-.91Zm-9.59,2.08c.51.2.28.78-.18.6-2.77-1.24-3.33-1.85-6.63-.7-1.09.38-1.52,0-.18-.53,2.91-1.22,5-.4,7,.63Zm-1.9,1.47c-.75,3.81-4.54,2.63-4.11,0h.7c0,2.3,2.36,2.29,2.75,0Zm22.06,0,1,2.19A11.21,11.21,0,0,0,117.72,56s1.06,1.63.86,1.84c-12.38-2.74-11.43-14.54-9.27-18.71Zm-11.73.14.35,0c1.07,2.66,2.62,1.13,2.92,0l.79,0c-.24,2.75-4.41,3.22-4.06-.05ZM88,39.31c.5-.06.67.69.53.84s-.95.92-1.07.4A1,1,0,0,1,88,39.31Zm-5.78.08h.13a1.29,1.29,0,0,1,.27,1.31c-.18.19-.93-.07-1.07-.36a.66.66,0,0,1,.67-1Zm20.08.25c.25,0,.92.31.86.63,0,.08-1,.77-1.17.66-.4-.22.16-1.21.24-1.27l.07,0Zm-5.47.12h0a.71.71,0,0,1,.16,1.12,1.65,1.65,0,0,1-.73-.28c0-.4.46-.81.55-.84Zm15,4.83c-.16,3.16.67,6.23,4.12,8.2l-.74-1.36c-.89-.7-2.74-2.71-2.51-5.11Zm-31,5.65.39,2.08a47.22,47.22,0,0,0-4.54,9.88l-1.79.66a39,39,0,0,1,5.94-12.62Zm.75,3.24.51,1.79a26.64,26.64,0,0,0-2.53,5.92l-2,.73a28.84,28.84,0,0,1,4-8.44Zm6.29.74h-.08c0,.35,0,1.32,0,2.93,0,.31.32.18,1.16-.25s.66-.44,1.37-.2a5.22,5.22,0,0,0,3.64.18,2.57,2.57,0,0,1,2.34.23,5.87,5.87,0,0,0,1,.43c.54.2.33,0,0-1.5-.42-1.64-.24-1.83-.9-1.4a2.37,2.37,0,0,1-.79.35c-.57.07-1.53-.63-2.11-.41a2.93,2.93,0,0,1-2.65.09c-.64-.16-1.26.23-1.82.34-.31,0-.72-.81-1.17-.8Zm23.55.85c2.34,2.14,4.75,2.88,7.35,3.69-.31,1.07-.94,2.27-1.23,3.66-13.58,7.17-27.22,7-40.08.44l6.68-2.56c3.64,6.32,8.32,8,13.57,5.94a35.32,35.32,0,0,0,13.71-11.17Zm-29,1.26L83,57.88l-.86,2.33-1.64.67a13.56,13.56,0,0,1,1.92-4.55Zm12.27,1.8a13.71,13.71,0,0,1-2.42.3,14.48,14.48,0,0,0-1.65,0c-.61.12.11.39,1.47.78s3-.2,3.24-.79c0-.14-.13-.31-.64-.29Zm-11.31.76.36.79-.62.22Zm36.09.45,1,2.3c-1.75,3.8-2.92,14.21,8.8,17.45l.51,1.5c-8,.15-16-10-10.32-21.25Zm-26.84.78a5.07,5.07,0,0,0-3.12.89c-.69.55.16.9,1.07.46a5,5,0,0,1,4.29.19c.88.6,1.34.5.75-.42a3.67,3.67,0,0,0-3-1.12Zm51.17,2.6c3.07-.06,3.39,4.33,2.79,4.71a4.09,4.09,0,0,1,1.44-.2c2.25.06,3.41,1.3,3.54,3.11s-1.25,2.83-3.26,2.73c-.75,0-1.26-.11-1.23,0,.37,1.45-.08,3.64-2,4.19a1,1,0,0,0-.54.48c-.15,2.31.52,10.22.52,10.22s3.6-6.06,4.42-7c1.59-2.17,1.87-2,1.88,1.63-.26,5-1.07,6.14-4,10.34-1.26,1.81-4.25.86-4,2.08a4.16,4.16,0,0,0,1,1.22,1.65,1.65,0,0,0,1.36.45c1.27,0,1.76-.3,1,.81-.6.87-2.71,1-2.95,1.51-.55,1.06-.18.82-1.13,1.76-.72.79-.47.39-.14,1a4.56,4.56,0,0,1-.21,3.66,3.59,3.59,0,0,0-.37,1.59,6,6,0,0,0,1.53-2.69c.29-1.24.64-1.86.64-1.17,0,.88.14,2.06.93,2.51.62.36.71.72.61,1.16s.38.85.86,1.24c.11.11.49.25.45.5-.13.75.18,1.65.74,1.79.24.12,1.81,0,2.07-.89,0-.29,0-1.45-.62-1.51-.45-.21-.4-.33.27-.72a8.79,8.79,0,0,1,2.22-1.12,2.68,2.68,0,0,0,1.3-.81l.13,47.73-21,18.08a102.86,102.86,0,0,0-16.23-11.52l-2-1.18.71-.92L111.09,153l3.91-3.15,1,1.25-1.85,1.8,2.77,3.07,6.24-6.08L119,146l2.14-4,1.37.68-1,2.53,3.12,2,3.91-7.77-5-2.26,1.26-5.21,1.53.16-.51,3.76,3.86.76,1.57-8.85-5.67-1,.48-5,1.59,0-.24,2.79,4,.57.76-7.72-5.56-.92.72-6,1.27.19-.25,3.67,4.08.7c.45-2.5.81-5.62,1.48-8.07l-5.26-2,1.86-5,1.19.41-1,2.71,3.88,1.65,3.26-6.45-4.56-3.23a20.39,20.39,0,0,1,3.51-4.69l.89.78a7.76,7.76,0,0,0-.83,1c-.62.85-.81,1.28-.73,1.5a20.22,20.22,0,0,0,3.12,2.3,5.48,5.48,0,0,0,1.67-1.42c.52-.62.79-.68,1.32-.29a2.48,2.48,0,0,1,.37.36.82.82,0,0,1,.2.38.35.35,0,0,1,0,.2,1.78,1.78,0,0,1,.35-.24c.39-.21-.74-1.2-1.66-1.71-2.76-1.55-6-4.46-6.75-8.11-.27-1.64,4,.33,6.88,3.24.44.44,2.08,2,2.08,2-.24-4.22-.58-8.5-.4-12.76l-.64-.45a3.46,3.46,0,0,1-1.33-2.69c0-.71.56-1.08-.84-1-2.9,0-4.58-2.7-2.82-5,.63-.87,3.3-1.3,3.3-1.28a3.4,3.4,0,0,1,2.88-4.42Zm-1.05,32.46c-.06,0,0,0,0,0Zm3.84-27.75-.08,0,.08,0ZM50,76.54C58.14,83.36,63.31,88,79.8,93.09l.41,2.44c-9.49-2.19-19.83-6.62-32.13-17.64ZM47.6,78.12a84.42,84.42,0,0,0,15.71,11.5l1.87,1.12-1,1,3.14,4.51-4,3.29-1-1,2.1-2.06-3-2.94-6.1,6.17,4.18,3.71-2.42,3.72-.88-.4,1.29-2.59-3.89-2.12-4.34,8,5.53,2.52-1.25,4.89-1.29-.06.43-3.84-4.15-.74-1.4,9,5.35.84-.13,5.16-1.43,0,.1-2.92-4.22-.19-.38,7.52,5.2.67L51.15,139l-1.28-.33.14-4-3.95-.39-1.37,8.43L50,144.22l-1.89,5.26L47,148.84l.76-2.71c-1-.43-3.71-1.56-3.71-1.56l-3.5,6.54,4.53,3.08-2.79,4.9-1.07-.73,1.92-2.85-3.76-2.36-2.14,2.92a40.26,40.26,0,0,1-3.17-2.62,1.9,1.9,0,0,0-2-.49c-.68.16-1.32.28-1.18,0s1.36-1,3.32-2.23c.55-.35,1-.65,1-1s.3-.6.69-.84.34-.51.27-.79a8.81,8.81,0,0,1,.6-5.31c.5-1,.66-1.22.33-1.22-.95.12-2.12,3.58-2.34,4.56a12.25,12.25,0,0,1-.25-1.34c-.12-.64-.21-1-.72-1.15s-.41-.44-.48-.9a1.69,1.69,0,0,0-1.08-1.47c-.61-.26-.68-.36-.66-1a2.51,2.51,0,0,0-.86-1.55l-2.12.75a1.58,1.58,0,0,0,.4,1.55c1.07,1-.49,1-1.56,1.66-.29.19-.63.6-.87.46-.67-.22-.62,1.81-1.29,1.55l.17-48.55C31.05,90.38,47.6,78.12,47.6,78.12Zm85.81,8.59.82.9a51.67,51.67,0,0,0-6.4,9.37,38,38,0,0,0-4,12c-.6,2.86-.7,5.77-1.07,8.69-.38,3.15-.46,7.39-1.06,10.71-1.11,9.11-3.67,14-9.23,19.13-2.45,2.27-10,6.57-10.26,6.52l-1.8-.45c15.59-8,19.49-13.48,21.18-32.39.33-23.71,11.12-32.89,11.82-34.49ZM135,88.29l.83.81-4.55,6.43,4.48,3.16-1.78,4.16-1.36-.51,1-2.83-3.77-1.59-3.06,8.26,5.38,1.7-.88,5.37-1.09-.29v-3.67l-4-.81L125,117.71l5.88.82-.43,4.76-1.39-.1-.05-2.84-4.08-.21-.94,8,5.79,1-1,5.68-1.24-.29.28-3.75-3.88-.51-2.25,7.67,4.88,2.46-2.4,4.92-1-.71,1.33-2.91-3.79-1.88-3.67,6.35,4,3.91L117,154.13l-.87-1.11,2-2.16-3-3L109,152.85l3.18,4.19-.38.53-3.28-1.32-1.57-2.08L105,155l-1.48-.57c9.19-4.82,15.17-10.41,17.65-18.84,1.35-4.66,1.76-9.75,2.2-14.87.22-2.67.46-5.34.85-8a39.79,39.79,0,0,1,2.85-12A47.47,47.47,0,0,1,135,88.29ZM85.46,91.47l6.32,3.33L91.68,97l-5.83-2.92Zm1.78.07,4.5.61,0,1.81ZM67,91.59l2.63,1.18,2.23,2.57,1.67-1.09,1.8.68c-5.71,2.94-10.79,6.46-14.74,12.53-4.41,6.76-4.9,15.62-5.47,24.17-.93,11.78-3,20.07-10.79,29.62l-1.16-.72,4.23-6.72-4.77-3.08,2.17-4,1.1.38L45,149.5l3.94,2.08,3-8.47-5.56-1.73.93-5.3,1.4.12-.37,3.8,4,.63,1.14-8.95-5.35-.83.12-4.73,1.31.13v2.88l4.23.22.32-8.16-5.25-.58.65-5.77L51,115l-.34,3.46,4,.58,1.91-7.47-5.25-2.37,2.84-5,1.27.59-1.3,2.79,3.64,1.78,3.82-5.84-4.06-3.9,4-4.17,1,1-2.16,2.49,3,2.77,5.94-5-2.91-4.37Zm37.79.28L104.56,94l-6.33,3.6v-2Zm34,.07,1.4.87-1,1.2-1.22-.77Zm-36.63.3-3.79,2.19V92.25Zm44.7,2a1.1,1.1,0,0,1,.53.14.71.71,0,0,1-.11,1.16c-.56.4-2.09.37-2.25,0-.22-.58,1-1.28,1.83-1.26Zm-60.5.86,5.44,2.94,0,2.07-5.23-2.88Zm17.72.07-.32,2.7-5.6,3,0-2.34Zm-27.11.05,2.23.56c-8.26,3.69-16.42,9-19.59,18.36a43.09,43.09,0,0,0-2.1,9.87c-.2,4.19-.75,8.31-.94,11.81-.41,7.12-2.75,16.76-10.85,27l-.77-.6A45.62,45.62,0,0,0,54,144.73c2.53-9.33,1.28-19.62,4-29a31.65,31.65,0,0,1,10.17-15.24,55.35,55.35,0,0,1,8.74-5.22Zm3.75.78h0c2,6.75,4.49,19,4.49,19C79.86,112.54,71,113,71,113s-5-6.4-5.93-6.93c4-5.36,14.78-10,15.54-10Zm68.28,1.06c1.22,0,1.13,1.82-.41,3.08-.79.65-1.15.56-1.74,0a1.3,1.3,0,0,0-1-.35c-.87,0,.85-1.79,2.37-2.53a2,2,0,0,1,.81-.24Zm-62,1.52,4.85,2.49,0,2-4.49-2.43Zm16.44.27-.26,2.25-5,2.63,0-2.07Zm47.27.84a.48.48,0,0,1,.42.19c.69.76-.62,3.09-2.1,3.78a1.09,1.09,0,0,1-1.4-.18c-.23-.2-.57-.46-.77-.44-.85.09-.38-.87.31-.92a14.12,14.12,0,0,0,2.27-1.65,3,3,0,0,1,1.27-.78Zm-5.13.91c1.07,0,1.46.86.19,1.25-.9.28-1.41.08-1.41-.52.19-.63.74-.7,1.22-.73Zm-57.91,1.2,4.3,2.16,0,2.21-4-2.06Zm15.4.31-.3,2.09-4.64,2.38v-1.73Zm48.57.88c.3,0,.39.34.38.92a2.58,2.58,0,0,1-1.59,2.28c-.7.32-1.2.29-1.55-.08a.88.88,0,0,0-.49-.31c-1.49-.06-1.25-.45.18-1a13.61,13.61,0,0,0,2-1.23,2.1,2.1,0,0,1,1.11-.53Zm-5.49.68c.73,0,1.38.52,1,.85a2.2,2.2,0,0,1-1.74.16c-.44-.45-.05-1,.76-1ZM88.3,105.2l3.67,2,0,2.11-3.5-2Zm14.07.15-.09,2.16-4.21,2.08,0-2Zm45.31.9c.71,0,.62.74,0,1.07a.86.86,0,0,1-1.21-.2c-.51-1,.65-.86,1.17-.87Zm1.43,2.21a.68.68,0,0,1-.19.8c-.31.13-1.12,0-1.24-.24s-.08-.3.12-.5,1.07-.45,1.31-.06Zm-60.28,0L92,110.21v2.07l-2.88-1.68Zm13,.06-.16,2-3.64,1.81,0-1.94ZM63.7,109.81c.78,0,1.39.53.93,1.42-.29.55-.51.75-1.76,1.64a11.46,11.46,0,0,0-1,.73s-.36.27-.58.42c-1.12.77-.73-.85.67-3.23a2,2,0,0,1,1.72-1Zm37.88,1.77-.29,2.19L98,115.43v-2.11Zm-12.26.21,2.64,1.3,0,2.13L89.61,114ZM121,112a.27.27,0,0,1,.22.1,4.2,4.2,0,0,1,0,2.34c-.37.88-1.08-1.32-1-1.87A1.18,1.18,0,0,1,121,112Zm-55.39.4c1.06,0,1.83.71,1.47,1.78s-2.82,1.7-3.9,2.42c-.72.35-.89,0-.67-.64.1-.29.18-.51-.36-.59-1.31-.19-.51-.83,1.9-2.44a2.86,2.86,0,0,1,1.56-.53Zm52.85.68a1.89,1.89,0,0,1,1.32.74c.83.9,1.43,2.79,1,3.28-.34,0-.51.47-.53.68,0,.59-1.14-.5-2.17-2.21-.83-1.38-.42-2.48.41-2.49Zm-44.39.32c3.25,0,9.45.65,18,6a36.57,36.57,0,0,0,3.43,2,31.37,31.37,0,0,0,10.14,3.73l-.12,2.17c0,.69,1.09,4.66.57,6.9-.77,0,.75.65.75.65l1,2a58.57,58.57,0,0,1-7.49-.5c-3.78-.62-10.67-3.82-14-6.34a34.66,34.66,0,0,0-13.15-5.46l-.07-1.86a67.77,67.77,0,0,0-.8-7.28l-.82-2c.2.08,1.06-.07,2.54-.08Zm27.1,1.4-.25,2.14L98,118.24V116.4Zm14.25.1c.8,0,2,.94,3.39,2.81a2.9,2.9,0,0,1,.6,1c0,.23-.1.36-.33.34-.54-.11-.74-.3-.9.37,0,.17.06.48-.13.42-1-.28-3.74-3.08-3.57-4,.13-.67.46-1,.94-1ZM89.94,115,92,116.1l.09,2.12-1.85-.81Zm-22.4.64a1.17,1.17,0,0,1,1.25.73c.48,1.2-.38,1.92-3,2.46-2.24.53-2.19.56-1.88-.27.21-.55-.49-.61-.87-.76-.65-.24-.12-.32,1.76-1.25a7,7,0,0,1,2.7-.91Zm-7.45.57c.07,0,.14,0,.25.19a8.54,8.54,0,0,1-1.7,12.53c-.47.31-.48,0-.43-.59l.08-1.17c0-.24,4.73-3.13,1.25-9.57l.29-.91c.09-.28.15-.47.26-.48Zm53.19,1.22c1.28,0,4.89,3.28,3.35,3.4-.18,0-.11.25-.12.4a2.17,2.17,0,0,1-.05.53c-.11.29-.53.23-1.18-.15a11.69,11.69,0,0,1-2.58-1.82c-1.11-1-.8-2.36.58-2.36Zm-12.71.56,0,1.77L98,121l0-1.6ZM68,119.25c1.73,0,2.7,1.67,1,2.57-.69.36-3,.11-4,0s-.49-.46-.42-.57c.16-.27.29-.31-.33-.68-.5-.52-.78-.65.45-.81a24,24,0,0,0,2.57-.38,2.82,2.82,0,0,1,.78-.15Zm52.65.42c.12,0,.11.21,0,.76l-.08,1.18c-.79.12-4.7,5-1.52,10.65l-.27,1c-.12.5-.16.57-.57.26-2.38-1.64-3.16-10,1.78-13.49a2.34,2.34,0,0,1,.61-.36Zm-9.3,1a4,4,0,0,1,1.67.43,8.42,8.42,0,0,1,2.74,1.6c.14.22-.09.41-.39.5s-.41.26-.31.69c0,.25.06.53-.25.54a7.85,7.85,0,0,1-3.19-1.08c-2.21-1.19-1.91-2.71-.27-2.68Zm-11.24,0v2.15l-2.11-1Zm-35.39,1.85a7,7,0,0,1,.91.11,12,12,0,0,0,1.59.14c2.41,0,3.41,1.63,1.42,2.49-.54.23-.77.2-2.25-.23-.71-.21-1.58-.42-1.94-.52-.71-.21-1-.43-.49-.59s.48-.46.2-.86c-.06-.41.07-.55.56-.54Zm55.91,0c-.34,3.32-.62,5.91-1.12,9.16-.36-.14-3-6.27,1.12-9.16Zm-10.12,1.59a10.89,10.89,0,0,1,3.39.82c1.12.41,1.26.52.49.86-.47.2-.41.38-.27.68s.61.69,0,.6a22.33,22.33,0,0,1-3.34-.16c-1.82-.32-2.31-2-.82-2.72a1.27,1.27,0,0,1,.58-.08ZM63.93,125a4.6,4.6,0,0,1,1,.27c3.26,1,4.58,2.27,3,3.47-.47.36-1.19.21-2.54-.55a12.79,12.79,0,0,1-2.34-1.47c-.26-.27-.12-.59.28-.56s.46-.24.41-.69,0-.47.17-.47Zm8.78.3,2.5.56L69,153.09c0,.32-2,.21-4.76,1.35a.4.4,0,0,0-.1.33l4.32-.74L68.06,156l-3.91.73-.09.58,4.48-.81s-.15,1.87-.31,2.59c0,0,8.32-1.21,11.46-1.52A10.75,10.75,0,0,1,81,157.5s.1-21.52.09-23.86c0-2.53,0-5.57,0-5.57l4.32,2.44.71,27.12,13.51,2.19c-1-5.07,28.66,13.77,28.66,13.77l-5,2.62c-.73.56-7.16,4.09-7.16,4.09l-.59.85a151.09,151.09,0,0,0,37.3-25.89l.25,71.69L99,227.17v-6.71l0-6c-.22-3.85.45-8.08-.73-11.31L98,199.79c3.34-3.89,5.14-8.78,6.73-13.79,0,0,1.61-.62,2.39-.89l.27-1c-1.55.79-5.11,2.12-5.11,2.12.38-.3-7.58-3.66-12.5-4.44a49.15,49.15,0,0,0-27.73,4.35c-.42.3-.6.29-.5-.09a13.68,13.68,0,0,0-9.7-16.86,11.5,11.5,0,0,0-2.88-.46l.13.65c12.21,1.37,15.07,14.27,10.37,20.26-1.23,2-1.42,2.56,1.17,2.49,10.45-.08,14.08,11.59,9.32,18.06a7.45,7.45,0,0,1,.39.75,12.91,12.91,0,0,0-1.51-16.61c3.89-4.33,11.37-11.28,17.83-10.87,2.35.15,4.67,3,6.22,5.26,3.26,4.82,4.11,11.53,4.34,15.36.06,1,.19,1.74.19,2.26,0,1.54-.29,1.36-1.28,1.1a8.58,8.58,0,0,0-4.21,0c-2,.62-1.7.26.11-2,1.06-1.32,1.2-1.72.76-1.81-.13,0-.58.43-1.17,1.33-1.78,2.74-1.64,1.62-.36-2.65.84-2.78.76-3-1.52-4.69a21.71,21.71,0,0,1-1.76-1.3c-.43-.91-.61.23-.23,1s-.42,1.07-1.82.31c-3.29-1.82-5.43,1.87-2.49,3.47.69.37,1.08.07.54-.43-1.8-1.67-.55-3.08,1.89-1.6,1.42.86,2,.58,2.43-.49.26-.43,2.46,1.14,2.45,1.75a14,14,0,0,1-.5,2.54,46.12,46.12,0,0,0-1.2,4.74c-.55,2.85-.53,4.31.06,5.56a6,6,0,0,0,7.55,3,8.89,8.89,0,0,1,1.22-.3L98,218c-5.7,2.16-9.83,8.9-9.64,9.13h-2a24.06,24.06,0,0,0-13.49-11.62s-.73-1.21-.08,1a3.91,3.91,0,0,0,1.73,2.57c2.87,1.46,6.66,4.05,8.75,8.06l-1.44,0a23.63,23.63,0,0,0-6.19-6.06C75.07,221,76,226,78,227.48l-37.18.65c2.54-9.93,3-20.95-2.92-35.38a28.31,28.31,0,0,0,13.3-2.51l-.36-1a27,27,0,0,1-14.58,2.1c3.8,7,7.13,21.79,3.89,36l-13.65.07L26.34,150s.54.49.7.66a3.59,3.59,0,0,1,.84,1.53c.16.6.33.64,1.17,1.27.41.31.65.58.65.73a1.54,1.54,0,0,0,.24,1.06c.75.9.62,1.48.06,2.07-2.62,2.72-4.25,8.44-2.93,14.48,3.1-2.1,6.3-7.56,6.4-7.56l.29,7.45a3.24,3.24,0,0,0-2.19,2.53,5.32,5.32,0,0,1-2.77-.43l.63,2.2a3.58,3.58,0,0,0,.33,6.87s-.34,1.7-.62,2.62l2.39-.37c1.39,4.16,6.74,2.83,6.71-.07,0,0,1.63.61,2.24.88l-.59-2.83c6.07-3,1.53-7,.14-6.95,0-.79.38-1,.72-2l-2.46.15a4.4,4.4,0,0,0-2.16-2.5l-.34-10.68a30.38,30.38,0,0,0,6.14,4.57c2.27,1.19,2.5.93,2.17-1.13a9.55,9.55,0,0,1-.14-1.53c.85.2,3,3,2.9,4.37.78,1,1.49-1.73-.53-4.08A43.77,43.77,0,0,0,56.7,142l7.16-2.85.08-.93c4.89-3.27,7.43-7.81,8.77-13Zm6,1.67,1.64.73-1.87.93Zm-15.89.45a9.46,9.46,0,0,1,1.46,1c1.4,1,2.22,1.73,2.25,2.35a1.09,1.09,0,0,1-.57.9c-.85.45-1.66.08-3.49-1.79a15.73,15.73,0,0,1-1.17-1.2c-.2-.32-.05-.61.3-.48,1.48.67.2-1.2,1.22-.73Zm50.5.39a4.25,4.25,0,0,1,.69,0c.4.08.51.31.27.53s-.27.68.11.86.15.4-.16.58a4.35,4.35,0,0,1-.86.34c-2.25.7-3.91.49-4.34-.55-.5-1.21.45-1.79,3.2-1.79Zm-32.76.71,0,1.61-2.34,1.13.25-1.64Zm-19.85.5c.21,0,.54.33,1,.93,2.25,2.76,2.55,3.29,1.82,4s-2.1,0-3.42-2.39a8,8,0,0,0-.53-.89c-.48-.57-.27-.74.35-.7.33,0,.49-.09.5-.44s.09-.53.25-.53Zm54,1.4c.41,0,.38.14.19.62s-.37.55.23.82c.1.05.32.32.12.44a25.49,25.49,0,0,1-3.33,1.52c-1.48.49-2.38-.71-1.52-1.9.36-.5,2.86-1.41,4.11-1.49ZM59.5,132c1.5,2.23,1.69,3.27.7,3.93-.63.47-2-.21-2.26-1.66a5.77,5.77,0,0,1,0-3.17c.55-1.38,1.39.67,1.54.9Zm21-.93v1.75l-2.84,1.43L78,132.3Zm5.78.08L89,132.85l.15,1.49-2.75-1.52Zm29.79,1.71c.07,0,.11,0,.11.12s-.06.93.34,1c.78.13.61.38-.08,1a13.31,13.31,0,0,1-2.32,1.92c-2.32.85-3-1.59-.85-2.87a9.11,9.11,0,0,1,1.95-.88,6.19,6.19,0,0,1,.85-.26Zm-29.71.9,3.09,1.82.1,1.84-3.07-1.57Zm-6,.17v1.59l-3,1.73.25-1.78Zm12.5,1.3c.86.4,11.83,3.45,15.47,2.41,0,0,3.11,4.48,5.41,6.09-3.56,5.23-15.63,10.36-15.63,10.36Zm24.71.11c.2,0,.25.2.25.57-.05,1.08-1.84,5.08-3.26,3-.39-.76,0-1.55,1.26-2.49,1-.75,1.49-1.1,1.75-1.11ZM57.85,136c.27.3.15,1.21-.44,1.15-.17,0-.19-.94-.08-1.44.17-.09.42.19.52.29Zm22.59.51v2l-3.59,2,.39-2.25Zm5.93.29,3.55,1.89.42,2.24-3.94-2Zm-5.93,2.75v2l-4,2.06.27-2Zm6,.18,4,2.25.52,2.13-4.43-2.29Zm-56.25.06a.62.62,0,0,1,.4,1.13c-.33.3-1.25.23-1.33,0-.42-.41.15-1.12.93-1.13Zm1.22,2.16a1.1,1.1,0,0,1,.26,0,.83.83,0,0,1,.47,1.19c-.52.71-1.92.21-1.72-.69.06-.24.57-.49,1-.52Zm49,.69v1.82L76,146.72l.27-2Zm6.19.25,4.52,2.43.35,2-4.86-2.52Zm-57.3,0a.49.49,0,0,1,.49.22c.08.14.18.52.49.69.59.35.65.42-.46.9a17.08,17.08,0,0,0-1.71,1.05c-1,.66-1.39.44-1.46-.34-.09-1,1.71-2.47,2.65-2.52Zm3.39,1.5a1.08,1.08,0,0,1,.61.13.59.59,0,0,1,0,1c-.83.53-2.12-.2-1.43-.83a1.36,1.36,0,0,1,.79-.3Zm47.71,1,0,2.37-4.88,2.57.32-2.4Zm-50.13.28a1.33,1.33,0,0,1,.9.25,1.19,1.19,0,0,0,.84.49c.83,0,.57.33-.31.74a10.75,10.75,0,0,0-2.94,2.06c-.9.84-1,1-1.27.68-1.11-1.29,1.05-4.13,2.78-4.22Zm56.41,0,5.12,2.8.44,2.37-5.56-3.1Zm-53,1.67a.82.82,0,0,1,.55.17c.36.3.15.87-.35,1.13a1.46,1.46,0,0,1-1.34-.08c-.48-.48.4-1.2,1.14-1.22Zm-2.47,1.19c.31,0,.59.37.84.8.09.11.44.06.69.06,1,0,1.09.41.16.93a18.37,18.37,0,0,0-1.76,1.34c-1.6,1.53-2.47,1.17-2.27-.4a3.27,3.27,0,0,1,2.34-2.73Zm55.51.15,5.65,3.1.55,2.54L86.64,151Zm-6.24,0,0,2.35-5.32,2.81.42-2.38Zm6.32,3,6.33,3.83.23,2.49-6.56-3.77Zm-6.32.42v2.3l-5.88,3,.3-2.17Zm-47.73,1.52a.91.91,0,0,1,.41.07c.69.32.51.86-.53,1.43s-1.41.48-1.64-.17.95-1.31,1.76-1.33Zm66.06.31c11,2.52,21.77,8,32.22,17.47L128.76,173s-9.16-10.44-29.52-16.57Zm-11.94,1.09,3,1.8v.46l-3-.25Zm-52,0a6.13,6.13,0,0,1,1.53.67c4.38,3.16,6.13,5.07,7.22,8.53.65,2.08.64,2-1.5.87A21,21,0,0,1,35.49,160a97.36,97.36,0,0,0,.33,12.11c2.74,1.35,1.86,4.86,1.85,4.84,7-1.92,5.49,7.36.25,5.36,1.25,7-6.73,6.4-5.91.43-6.35-.25-5.23-7.17,0-6.21A3.51,3.51,0,0,1,34.2,172l-.29-9.13s-5.18,7.43-6,7.32c-.5-.07-1.27-.93,0-7.44.67-3.39,4.27-7.52,6.28-7.65a6.39,6.39,0,0,1,.64-.06Zm5.07.07.92.64-.87,1.56-1-.7Zm40.5.45,0,1.36-2.85.18ZM49.11,171c-.43,0,.72.28,1.45.93,6.71,1,10.81,9.25,7.7,15.19-.37.27.21,1.56.59,1.07,3.27-4.63.83-16-8.71-17.12-.57-.05-.89-.07-1-.07Zm2.53,3.12c-.54,1.48-.68,1.83.7,1.23,2.45.9,5.08,4.88,4.24,8.87-.27.46.2-.31.52,1,1.21-2.93,0-9.23-5.46-11.11Zm31,7.44a38.57,38.57,0,0,1,19.07,4.58c-1.83,1-7.7,2.45-7.7,2.45-3.29-3.7-5-7.4-10.93-5.5-6.24,1.61-11.86,7-15,10.59a14.38,14.38,0,0,0-7.7-2.5c-.17,0-.41.71-.21-.45a21.25,21.25,0,0,0,1.9-4.06,42.63,42.63,0,0,1,20.59-5.11ZM104,186.34A38.28,38.28,0,0,1,97.87,199l-.37-1.91a43.79,43.79,0,0,0,4.75-10Zm-2.66,1.15c.18.28-2.73,7.21-4.17,8.47l-.56-1.79a38.48,38.48,0,0,0,2.85-6.07Zm-17.73,0c-.09,0-.12.09-.12.26,0,.64.66,1.14,1.87,1.41,1.63.37,3.92-.19,3.92-1,0-.44-.32-.47-1.25,0-1.17.54-2.21.43-3.74-.37a1.8,1.8,0,0,0-.68-.29Zm14.54,1.1a13.6,13.6,0,0,1-2,4.2l-.28-.88a30.08,30.08,0,0,0,1.49-3.13Zm-1.71.55a4.88,4.88,0,0,1-1,1.78l-.65-1.39Zm-10.33,1.28c-1.11,0-2.2.38-2.3,1,0,.28.38.17,2.44-.08,1.09-.13,1.6.51,2.6.44.5-.06,0-.53-.13-.66a4.24,4.24,0,0,0-2.61-.67Zm-4.72,1.29c-.11,0,0,.3.43,1a5,5,0,0,1,.32,1.67c0,1.23,0,1.19.55.48.38-.37,1.13-.29,2.3,0,.75.21.93.28,1.46,0s.75-.18,1.27-.08a3.33,3.33,0,0,0,1.52-.25,2,2,0,0,1,1.4,0c.9.42.76.38.84-1.14s0-1.61-.87-1.1a2.71,2.71,0,0,1-2.72.26,3,3,0,0,0-2.6-.07c-1.21.37-1.76.49-2.72-.1a4.91,4.91,0,0,0-1.18-.66ZM61.73,194l.54.88c4.86,1.74,8.16,5.71,6.21,12.41L69,208c2.43-6.75-.35-12.33-7.22-14Zm1.5,2.86.67,1.36c3.66,1.77,3.44,6.64,3.23,6.44l.58,1.27c.91-3.15-.75-7.81-4.48-9.07Zm15.29,7.26c-.14,0-.24.05-.27.15s.18.39,1.86,1.54c1.43,1,2.54,1.73,2.46,1.88a5.06,5.06,0,0,1-1.59-.32,7.37,7.37,0,0,0-5.52,1.08c-.35.23-.93,0-1.44-.15a2.12,2.12,0,0,0-.87-.06c-1,.28,0,1.27,2.53,2.57,3.13,1.59,4.83,1.73,6.74.77,1.26-.66,1.72-.17.33.58-2.41,1.3-4.73.9-8.55-1.73-1.77-1.22-2.48-1-1,.14,2.66,2.1,7.8,4.64,11,1.53a2.38,2.38,0,0,1,.54,0c.66,0,.69-.2,0-1.28-.41-.65-1.24-1.34-.23-2.14.77-.61.71-.89-.22-1.17-.24-.07-.21.09-.59-.21-2.23-1.8-4.41-3.16-5.19-3.15Zm1,3.56a2.41,2.41,0,0,1,2.18,2l.06.36-.8,0c-.66-2.65-2.65-1.77-2.85-.22l-.72-.1c.27-1.47,1.19-2.14,2.13-2.11ZM96,209.91l-.53.08c-.35-1-1.93-2.28-2.68.09l-.67,0c.47-3.22,3.39-2.72,3.88-.15ZM92,208.58c.22.31-.16.83-.38,1.07s-.69,0-.88-.2a.58.58,0,0,1,.24-.8c.3-.16.8-.29,1-.07Zm-9.35.09c.23.5-.39.87-.47.71a1.46,1.46,0,0,1-.22-.93c.2,0,.61.06.69.22Zm14.06-.08a.78.78,0,0,1,.77.57.63.63,0,0,1-.62.53.9.9,0,0,1-.6-1c.11-.2.25-.13.45-.11Zm-19.54.16c.12.18-.1.72-.15.79a2,2,0,0,1-.73,0,1.52,1.52,0,0,1,.11-.76c.2-.13.63-.19.77,0Zm13,1.74a.66.66,0,0,1,.35.13c2,1.31,4.59,1.89,6.45.95.41-.21.69-.19.69,0s-.47.67-1.32.92c-1.92.58-5.08-.18-6.17-1.35-.32-.34-.28-.67,0-.66Zm-17.59,1.37c-.19,0-.26.11-.22.34.13.78,5.5,3.86,7.74,4.27a6.24,6.24,0,0,0,4.4-.47c2.73-1.59,2-3.73-.64-2.11-1.81,1.08-6.36.58-9.08-1a7.27,7.27,0,0,0-2.2-1ZM96.73,213c.68-.28,1-.38,1.12-.25.69.57-.44,1.47-2.5,1.83a4.86,4.86,0,0,1-4.52-1.08c-1.46-1.07-.77-1.59.06-1.1a6.1,6.1,0,0,0,5.84.6ZM73,216.35c4.76,1.7,10.15,5.8,12.55,10.78H84.12a23.07,23.07,0,0,0-10.17-9,3.56,3.56,0,0,1-.92-1.78ZM98,218.68v1.56a17.48,17.48,0,0,0-7.25,6.89l-1.66,0A19.65,19.65,0,0,1,98,218.68Zm0,2.37V223a13.57,13.57,0,0,0-4.49,4.17h-2A15.06,15.06,0,0,1,98,221.05Zm-21.74,1.47a14.43,14.43,0,0,1,4.61,4.65l-.76,0a26.48,26.48,0,0,0-3-3,4.41,4.41,0,0,1-.85-1.69ZM98,223.75s0,0,0,0v1.52a11.09,11.09,0,0,0-2,1.82h-1.6A8.82,8.82,0,0,1,98,223.75Zm0,2.52v.86H97a3.9,3.9,0,0,1,1-.86Zm-19.55.22a1.73,1.73,0,0,1,.53.72l-.27,0Z"/><path class="cls-3" d="M37.84,192.87c3.3.09,10.27-1.14,10.16-1s21.62,35.92,20.74,35.56c-.28.45-27.69.43-27.69.43-.6,0,5.81-13.3-3.21-35Zm9.81-25.3c10.53-8.73,21.56-8.8,33.41-10l.28-29.66,4.28,2.57.09,27.18a68.42,68.42,0,0,1,40.73,16.92c.15.22-16.77,9.26-24.18,11.66-5.75-4.22-20.93-6.89-31-3.64-2.77.89-6.16,2.32-9.46,3.37,2.39-14.32-8.8-16.43-12.72-17.09-.5-.08-1.09-1.15-1.44-1.31Zm-13.52,4.62a69.63,69.63,0,0,0-.25-9.22c-.06-.71-6.16,9.28-6.5,6.86-.85-6.07,2.16-13.78,6.9-14.73.47-.64,9.85,5.17,9.42,10.18-.14,1.63-8.37-5.52-8.4-5.09-.2.84.24,12,.5,12,2.36,1.33,1.85,3,2.11,4.46,1.61-.43,4.28.11,4.62,2.07-.12,4.06-4.61,3.82-4.61,3.82.61,2-.21,5-3.08,4.85-2,.1-3.57-3-2.76-4.72-.26.43-5.16-.67-4.42-3.57.39-1.51,1.14-3.19,4.35-2.47-.23-1.83.22-3.74,2.12-4.45Zm8.92-35.29c-.45-.18-16.6-1-16.6-1l.85-39.33c8.24-18.92,39.27-10.07,34.34-6C46.81,100.23,44.55,118,43.05,136.9Zm29.79-16.15-.49-4.37c-1.27-2.71,33,13.12,33.4,13.46l1,4.66c.2,2-21.81-8.3-33.91-13.75ZM135.21,113c-.51,17.64-3.23,29.59-13.48,44-.29.47-3.19,1.68-3.41,2.08,1.46,2.32,9.83,5.72,13.7,7.55l20.1-12c.23,0-.69-41.94-.69-41.94Zm7.61-19.17c-2.7-.41-9-6.92-7.69-8.9,0-1.47,7.82,4.19,8.63,5.71-.4-.45-.45-13.83-.58-13.29-.29.15-2.38-1.34-1.83-4.12-3.62.5-4.68-1.78-4.57-2.87.23-2.27,2.61-2.94,4.14-3.25-.5-3.12,1.53-4.14,2.38-4.27,1.42-.23,3.86.53,3.27,4.53,1.71-.26,4.82-.27,5,2.82.15,2.72-1.74,3.47-4.46,2.75.47,3.14-.82,4-2.64,4.63.12,1.32.61,10.09.61,10.09s5.45-8.35,5.84-7.63C152,82.6,150,96,142.82,93.87ZM117.57,63.09c-2.67,7.72,4.74,19.9,10.64,18.12,1.28-.2,3.73.49,2.88,1.18-10,8.13-33.46,9.82-33.47,9.47.24,10-.22,20-.46,29.94l-4.27-2.57c-.14-9.1-.37-18.33-.58-27.43-15-2-28.51-6.8-39.17-17.1,7.08-5.24,15.54-8.52,23.66-11.83,10.24,5.31,24.48,8.38,40.77.22Zm-7.41-40.25c-.47-.21,1.62-1.76,1.62-1.76s17.44.23,26.09.11C134.72,34.13,137,45.72,141,56.84c0,0-9.64.89-9.87,1.12s-20.77-34.81-21-35.12Z"/><path class="cls-4" d="M160.83,237.32c-.28-.79-.29-.89-.35-8.13s0-8.13.36-9.65c.76-1.89-1.45-1.9-2.86-2.13v-3c1.65-.22,3.63.25,4.36,1.22a6,6,0,0,1,4-1.34c4,0,5.72,2.48,5.62,7.21a12.89,12.89,0,0,0,.12,1.77h2.13v3H172s.37,7.51-.14,10.17c-1.54,5.91-8.89,6.3-11,.85Zm8.1-1.06c.38-.9.32-.53.33-7.42v-3.15c-3.14-.73-5.93-4.51-5.91-4.51s0-.36-.07,6.79c0,8.12.25,8.58,2,9.9,1.67.94,3-.13,3.69-1.61ZM164.52,218a18.67,18.67,0,0,0,3.57,3.84,3.78,3.78,0,0,0,1.28.58s0-.91-.05-1.38c0-2.83-2.06-5.06-4.8-3Zm-96,9.32L47.94,191.73l3.44-1.34,22.1,36.86Zm55.93-4.91c-7.92-1.25-10.15-11.2-4.33-20.57,2.75-4.54,14.28-21.43,13.6-20.87-.36-.32,8.86,13.08,13.47,19.95,4.36,7.25,6.69,19.09-4,21.26-4.11.84-8.38-1.64-8.57-6.43,0-.68-.3-1.22-.69-1.22s-.56.47-.56.93c-.12,4.58-4.22,7.71-8.88,7Zm37.12-11.71c-3.53-1.18-4.16-5.41-1.53-10.24,2.15-3.84,3.28-4.83,5.26-8.65.81-1.57.9-1.61,1.52-.53,1.47,2.44,3.08,5.09,4.4,7.15,3.46,5.39,4.06,9.14,1.85,11.41-2,2-6.27.86-6.29-1.77a1.06,1.06,0,0,0-.14-.47c-.16-.31-.48-.1-.48.31,0,1.91-2.57,3.46-4.59,2.79ZM31.68,179.62l3.3-3.06,3,3.42-3.09,2.67Zm67.76-19.81L99,157.26a65.34,65.34,0,0,1,29.24,16l-1.7,1.25c.53-.15-17.26-13.49-27.12-14.72ZM64.15,157.3l3.85-.56-.11,2.14-3.66.84Zm71.12-1.48-2.1-1.9,1.36-1.79,2.25,1.43ZM63.91,138.36c5.22-2.46,9.29-12.43,8.78-13.09l2.84.68L69,153.23l-4.94.89c0-5.22-.11-10.54-.11-15.76ZM98.24,153.8C96.47,148.05,93,135.06,93,135.06c.12.43,11.31,3.61,15.3,2.45a47.4,47.4,0,0,0,5.55,6.26,48.16,48.16,0,0,1-15.6,10Zm46.89-20.91-1.85-1.64,1.4-2.51,2.6,2Zm-25.75-1.14c-1.6-2.89-1.72-6.15,1.26-9.36Zm-61.21-5.59a59.12,59.12,0,0,1,.87-7.44c.33-.53,1,1.39,1.28,2.85.39,1.84-1.68,5.68-2.15,4.59Zm45-2.12S107.52,104,109.4,96.1l5.28-1.33L114,111.25c-4.34,3.88-8,13.13-8,13.13ZM33,120.54c-.74-.61-2.21-1.72-1.56-2.25.35-.3,1.7-1.46,2.07-1.32.7.26,2.09,1.18,1.54,1.87-.43.54-1.61,2.06-2,1.7ZM71,112.88l-5.75-6.73c3.56-5,9.46-7.81,15.73-10.06L85.25,115c-4.79-1.45-10-3-14.21-2.07ZM41.78,96.43c-.76-.57.42-1.56,1.11-2.23s2.66,1,2.14,2c-.33.6-1.09,2-1.58,1.92-.28,0-1.37-1.44-1.67-1.66Zm69.06-6,3.7-.53-.28,2.54-3.91.62ZM50.62,76.14l2.27-1.41A67.65,67.65,0,0,0,79.34,89.66l.64,3.1c-10.85-3.35-21.11-8.42-29.36-16.62ZM144,73.28l-3-2.92,2.67-3,3.16,2.73A18.8,18.8,0,0,1,144,73.28Zm-99.34-5.4C41,62.22,36.77,56.2,33.44,51.25c-5.51-8.25-7-13.83-5.26-18.89,2.84-8.29,15-7.85,15.87.57.18,1.72,1,1.57,1.21-.2,1.18-9.36,15.42-8.14,16.27,1.84.9,8.47-5,15-8.19,19.53-2.87,4.57-6.21,8.92-8.68,13.78ZM9.58,54.46c-2.41-4-9-13.09-2.67-15.88,2.23-1,5.09.78,5.08,2.67,0,.85.47.9.58,0,.46-3.71,5.67-4,7.33-.38,1.42,4.27-1.15,8.16-4.75,13.64-.82,1.27-2.73,4.69-2.73,4.69Zm117.63,4.87L105,21.39h4.17l21.57,36.45ZM6.67,26.09H4.41v-3H6.67s0-1.62.08-4.51c.14-6.14.3-7.09,2.11-8.79,3.58-3.34,9.57-.61,9.5,4.41-.11,7.09,0,13.85-.24,14.81-.37,1.69-.41,1.78-.26,2.09.31.62,3,.89,3,.71v3a5.65,5.65,0,0,1-4.58-1.19,6.9,6.9,0,0,1-6.67.8c-1.9-.88-3.35-3.15-3-8.28Zm7.66,5.29c-1.12-1.59-3-3.77-4.8-4.54-.1,1.83.06,3.37.71,4.2a2.65,2.65,0,0,0,4.09.34Zm.93-17.51c-.83-2.32-3-3.1-4.54-1.66-1,.91-1.13,1.85-1.15,7,0,3.18,0,4.52,0,4.52,3,1,5.9,4.45,5.87,4.41l.08-9.62a26.86,26.86,0,0,0-.24-4.66Z"/><path class="cls-5" d="M105.25,20.65l-5.3,0L130,81.1a6.62,6.62,0,0,1-2.41-.28,14.37,14.37,0,0,1-10-17,7.26,7.26,0,0,0,.21-1.08c-18.61,8.42-30.13,5.32-40.86,0l-4.59,1.76c.31-2.77,3.73-13.15,8.85-18V41.17L81,38.7l-.41-4.49C73,41.38,64.13,52.67,63,68.69c0,0-6.93,3.57-12.85,7.5.33,0,9.22,10.88,30.58,17l-1-3.48A93.55,93.55,0,0,0,92,91.88l.6,27.36,5.1,3L97.86,92a68.86,68.86,0,0,0,12.44-1.31l-.61,2.92,4.25-.83v2.13L109.28,96l-6.62,28.31,3.86.86c1.12-5.7,4-10.32,8.11-13.15l0-1.08c2.65-1.9,8.16-3.42,8.2-3.38,1.88-9.19,6.25-15.55,10.9-21.6l-2.21-3,8.5-3.11-11.8-20.07c4.54-3.12,13.54-2,13.54-2-3.86-10.41-7.25-21.15-3.44-36.9l-32.8,0Zm10.75.66c0,2.63-3.44,2.36-3.86,0Zm21.08-.09c-2.09,12.07-1.4,23.82,3.44,35,0,0-.7,0-.79,0s.08-.6,0-.76c-.09-.42-.79-.22-1.37.18-.26.16-.55.36-.73.45a17.32,17.32,0,0,1-3.64.28c1-.67,2.38-2.56,1.58-3.66-.19-.24-.3-.14-.48.18-.86,1.53-1.29,1.78-2.44,1.76-1.81,0-3.11-1.14-3-2.84s2.56-2.51,2.2-.91c-.1,1.42,1.31,1.69,1.57.28.1-.53,0-.28.14-.9,2.82-1.5,1.26-4.54-1.37-3.91-.62.17-.7.22-1.13,0-.81-.42-1.49-.29-1.79.3s.14.93.74.93.75.3.74.68c0,.87-1.51,1.29-2.5.78-2.63-1.34-1.66-4.83,1.4-4.82.93,0,1.31.06,1.35-.14.12-.56-1.3-1.54-2.1-1.39s-1.09.31-.73-.59a3.61,3.61,0,0,0,0-2.06c-.49-1-.47-.49-.78.32-1,1.67-2.52,2-3.83,1.13s-1.17-2.46,0-3.6c.8-.8,1.66-.26,1.18.64a.62.62,0,0,0,.32.91c.72.19,1.17-.24,1.17-1.12,0-.48-.15-.59.72-1.08a2.08,2.08,0,0,0-2-3.67c-.56.25-.69.49-.94.37-1.06-1-2.58.27-1.69.94a3.27,3.27,0,0,0,1,.27c.22.13.15.44-.17.83-1,1.24-3.44.63-4-1.12-.65-2,1.42-4.16,3-3,.47.36.88.39.88-.12a2,2,0,0,0-2.3-1.64c-1.31.09-1.17.26-.45-.93a2.63,2.63,0,0,0,0-2.7c-.35-.48-.72-.59-.68-.08a2.3,2.3,0,0,1-3.06,2.4,2.71,2.71,0,0,1-1.46-3.68c.66-1.29,2.25-1.43,2,0-.12.88.55,1.35,1.2.83.23-.19.29-.36.31-.93s-.24-.82.17-1.2c1.07-.14,1.14-2.42,1-2.52Zm-19.24.08c.68,0,1.24.23,1.24.91a1.24,1.24,0,1,1-2.47,0c0-.68.54-.91,1.23-.91Zm-12.1.09h2.74l21.67,36.12-2.56,1.24Zm4.5,1.26a10,10,0,0,0,4.18,1.53,8.86,8.86,0,0,0-1,3.87Zm4.42,7.28c1.34.48,2.5,1.2,4.7.47A8.67,8.67,0,0,0,117,34Zm11.27,4.36a1.14,1.14,0,1,1-1.14,1.14,1.14,1.14,0,0,1,1.14-1.14Zm-7,2.85a7.76,7.76,0,0,0,3.1.54,6,6,0,0,0-.78,3.26Zm3.32,5.69a6.06,6.06,0,0,0,3.83.87,6.25,6.25,0,0,0-1.1,3.62ZM133.09,47a1.2,1.2,0,1,1-1.2,1.2,1.2,1.2,0,0,1,1.2-1.2Zm-6.73,2.7a5.37,5.37,0,0,0,2.45.6,8.24,8.24,0,0,0-.52,2.59Zm3.77,6.15a7.23,7.23,0,0,0,3.21.7,13,13,0,0,0-2.44.71Zm13.73,6.75c-2.8.19-3.45,2.33-3.12,4.51a3.45,3.45,0,0,0-3.86,4.17c.63,2.35,2.82,2.43,4.33,2.27a3.83,3.83,0,0,0,1.88,4.12l.31,12.21s-1-.94-1.69-1.61c-2.91-2.9-7.3-5-7-3.37,0,.24.13.85.2,1.36.47,2.76,4.18,5.75,6.71,7.26a7.64,7.64,0,0,1,1.46,1c-4.73,5.06-7.28,10.46-7.91,15.82-.59,5-1.07,9.47-1.54,14-1.93,22.94-11.77,28.71-12.24,29.83l-.18,3.06-2.75-.2-3.17,2.73c10.37,5.36,16.43,11.83,16.34,12a169.27,169.27,0,0,0,22.18-17.69l-.13-51.07a4.51,4.51,0,0,1-.7.2c-.52,0-.58.23-.76,1.21a3.61,3.61,0,0,1-.65,1.35c-.46.65-.3.32.29.56,1.32.53-.4,3-2.29,3.27-1.36.21-2.12.46-2.35.77-2.86,2.51-5.72,2.9-7.87,2a4.35,4.35,0,0,1-2.61-2.22c-.88-2.5,1-6.11,2.05-8.2a25.83,25.83,0,0,1,5.28-6.7l-.54-.59a5.54,5.54,0,0,0,.77,0c2.85-1,3-1,3.54-1.8a29.47,29.47,0,0,0,2.12-3.62c1.46-3.8,1.66-4,1.65-6.54,0-2-.13-3.38-.52-3.48-2.25,1.72-4.51,5.73-5.83,8.1-.46-3.51-.6-9.63-.6-9.63.48-.52,3.17-.23,2.57-4.62A3.25,3.25,0,0,0,152,70.22c-.17-3.55-2.9-3.44-5.13-3a3.34,3.34,0,0,0-3-4.61Zm0,.3c2.93.09,3.51,3.33,1.72,5.16,0,0-1.16-.9-1.78-1.4-.59.45-.76.85-1.4,1.33a3.25,3.25,0,0,1-1.23-2.53,2.8,2.8,0,0,1,2.69-2.56ZM76.93,63c11.85,6.62,26.71,7.1,40.3.35l-.16,1.12-1.49.84.84,1.55.47-.23v1c-11.21,6.06-30,7.31-44.69-2.74l1.28-.6s.29.2.57.37a18.68,18.68,0,0,0,2,1.13L77,64.55s-1.36-.83-1.22-.89Zm1,2-.68,1.54,1.7.91L79.64,66Zm-6.45.18c18.24,11.45,35.23,8,45.43,3.36l.13,1.21c-13.17,5.61-30.48,7.11-46.95-4Zm43,.73-1.63.65.65,1.48,1.66-.71Zm-45.13.28c14.83,9.56,30.73,11.43,47.86,4.42l.66,1.84c-16.69,6.69-34.3,5.93-50.4-5.47Zm11.39.05-.66,1.6,1.84.7L82.45,67Zm31.18.66-1.6.53.5,1.53,1.66-.57Zm-28.37.44L83.15,69l1.88.53.33-1.62ZM151.45,70c.25,2.75-3.81,4.07-5.33,1.51l1.34-1.63-1.2-1.11A2.78,2.78,0,0,1,151.45,70ZM67.07,67.48l4.42,3-3.22,5-4.76-3.2Zm76.65.14,2.81,2.43-2.58,3-2.63-2.66Zm-1.75.83-1.58,1.83,1.72,1.82c-2,2.15-5.06.83-5-1.81,0-2,3.11-4,4.89-1.84Zm-32.74-.71-1.69.51.39,1.48,1.75-.46Zm-22.76.47-.31,1.59,1.94.42.33-1.59Zm20,.27-1.8.39.31,1.58,1.8-.38Zm37.46.37-1.48,1.45,1.48,1.54,1.49-1.54Zm-54.33,0-.23,1.61,2,.27.16-1.62Zm13.67.23-1.82.2.18,1.58,1.9-.24Zm-10.78.18,0,1.64,1.78.15V69.46Zm7.85.15-1.78.07v1.59l1.82-.11Zm-32.61,0a1.91,1.91,0,1,0,1.9,1.91,1.91,1.91,0,0,0-1.9-1.91Zm29.62,0-1.76,0v1.61h1.81Zm46.58,0,.77.77-.77.76-.79-.76Zm-76.21.61a1.25,1.25,0,1,1-1.25,1.25,1.25,1.25,0,0,1,1.25-1.25Zm-6.76.09,2.53,2.06a48.34,48.34,0,0,1-3.36,4.8l-4.68-3.75L57.88,72a1.84,1.84,0,0,0-.21.85,1.88,1.88,0,1,0,2-1.86Zm-1.42,1.33a1.26,1.26,0,1,1-1.26,1.25,1.26,1.26,0,0,1,1.26-1.25Zm86,.59a2.42,2.42,0,0,1,.86.52,2.83,2.83,0,0,1-2.33,4.51,2.65,2.65,0,0,1-1.53-4.74l1.49,1.4ZM76.45,73l5.24,2-2,5.69L74,78.35Zm-21.54.59a63.46,63.46,0,0,0,73.82,7.86l1.34,0,.72.73a65.45,65.45,0,0,1-77.51-7.51Zm58.86,1.15,1.69,5.63-5.8,1.53-1.29-5.71Zm-61,.21A64,64,0,0,0,79.15,89.78l.27,2.31c-11.44-3.43-20.08-8-28.49-16ZM77.83,75a1.87,1.87,0,1,0,1.88,1.87A1.87,1.87,0,0,0,77.83,75Zm-9.31.41,5.4,2.86L71.23,83.7l-5.75-3.07Zm9.29.2a1.26,1.26,0,1,1-1.26,1.26,1.26,1.26,0,0,1,1.26-1.26Zm9,.77,5.19.75-.24,5.76-6.06-.73c.24-2,1.11-5.78,1.11-5.78Zm25.08.14a1.87,1.87,0,1,0,1.87,1.87,1.87,1.87,0,0,0-1.87-1.87Zm0,.62a1.25,1.25,0,1,1-1.25,1.25,1.25,1.25,0,0,1,1.25-1.25Zm-42.22.08a1.87,1.87,0,1,0,1.87,1.87,1.87,1.87,0,0,0-1.87-1.87Zm33.2,0,.74,5.78-5.67.28-.33-5.77Zm40.64.51h.81a134.86,134.86,0,0,0,1,15c.09.63.13.82.07.94-.56,1-1.21-.26-1.46-3.09-.07-.78-.16-1.92-.26-2.67-.29-2.25-.2-10.18-.2-10.18Zm-95.85.09c-8.52,5.32-22.71,18-22.62,18.32L25,145l1.11,0,.91-1.79c-1.42-.36-1-3,1.7-3.56a8.93,8.93,0,0,0,2.22-.83c2.07-1.57,5.42-2.5,7.77-1.88,3.42.88,4.13,3.4,2.48,7.78-1.3,3.45-3.88,7.87-6.3,9.13l-.62.31s.56.51.77.65c6.66-3.86,10-17.67,9.84-26.26.27-8.8,1.79-17.64,5.34-24.06,5.87-10.62,13.64-14.88,13.6-14.92S53.38,83.28,47.59,77.87Zm22,0a1.26,1.26,0,1,1,0,2.51,1.26,1.26,0,0,1,0-2.51Zm51.8.2,2,5.38-5.62,2.3-2-5.65ZM89,78.1A1.87,1.87,0,1,0,90.91,80,1.87,1.87,0,0,0,89,78.1Zm11.43.47a1.87,1.87,0,1,0,1.87,1.87,1.88,1.88,0,0,0-1.87-1.87ZM89,78.72A1.26,1.26,0,1,1,87.76,80,1.25,1.25,0,0,1,89,78.72Zm11.44.46a1.26,1.26,0,1,1-1.26,1.26,1.26,1.26,0,0,1,1.26-1.26Zm19.11.64a1.87,1.87,0,1,0,1.87,1.88,1.88,1.88,0,0,0-1.87-1.88Zm0,.62a1.25,1.25,0,1,1-1.26,1.26,1.25,1.25,0,0,1,1.26-1.26Zm-39.7.1L85.45,82l-1.3,5.89-6.34-1.68Zm71-.16c.92,2.88-.76,6.57-.85,6.81-1,2.9-2.25,5.26-2.69,5.4s-.55,0-.55-.3A44.2,44.2,0,0,1,149,85.65a17.37,17.37,0,0,0,.8-2.65c0-.45-.43.28-.89,1.4-.91,2.22-2.23,4.6-2.51,6.76-.21,1.77-.55,1.52-.79-.58-.34-2.92.3-4.42,3.58-8.48.78-1,1.59-2,1.66-1.72Zm-41.26,1.5,1.62,5.77-6.62,1.13-1-5.85Zm-27.76.58a1.87,1.87,0,1,0,1.87,1.87,1.87,1.87,0,0,0-1.87-1.87Zm9.91.38,6,.34.06,6-6.52-.28Zm-9.94.24a1.26,1.26,0,1,1-1.25,1.25,1.25,1.25,0,0,1,1.25-1.25Zm25.21.53a1.87,1.87,0,1,0,1.87,1.87,1.87,1.87,0,0,0-1.87-1.87Zm-12.45.48A1.87,1.87,0,1,0,96.47,86a1.88,1.88,0,0,0-1.87-1.88Zm12.43.14a1.25,1.25,0,1,1-1.26,1.25A1.25,1.25,0,0,1,107,84.23Zm-12.45.48A1.25,1.25,0,1,1,93.32,86a1.25,1.25,0,0,1,1.26-1.26Zm41,.36c.1,0,.23,0,.32,0,1.34,0,5.86,3.24,7,5.2,1,1.74.47,2.43-.64.88-1.53-1.7-4.35-4.23-4.71-4.23s.15.55,1.94,2.3,3.66,4,3.66,4.4-.35.24-.86-.07a17.83,17.83,0,0,1-2.57-1.85l-1.27-1.15c-1.66-1.45-3.55-4.81-3-5.46,0,0,.07,0,.13,0Zm-83.8.47a2.33,2.33,0,0,1,2.52,2c0,1,.1,1,1,1s3.2.3,3.2.3V91.6s-1.15,0-2.47-.07c-2.24-.11-2.24-.11-2.52.88a1.35,1.35,0,0,1-.72.88c-2,1.33-4-1.07-2.71-3.35.43-.78.45-1,.15-1.51a2,2,0,0,1,1.58-2.89Zm.5,1.37a1.15,1.15,0,0,0-.78.35,1.78,1.78,0,0,0,0,1.82c.32.52.31.67-.06,1a1.56,1.56,0,0,0,0,2.26c.57.42,1.19-.13,1.19-1s.65-.9.65-.9l4.22.07v-.68l-3.06-.16a2.11,2.11,0,0,1-1.2-.27c-.35-.23-.75-.65-.37-1.16a.8.8,0,0,0-.57-1.38Zm-9.16,1.57,2,3.41,2.34.08.2,2.08,2.84,1.83-2.91,1.69-.14,2.09-2.2.28-2.05,2.56-2-2.56H39l0-2.14L36,95.9l3.26-1.83,0-2.44,2.3-.16ZM113.84,90l.09,2.06-3.28.58.43-2.1Zm-21,2.08,4.42.13L97,121.11H96l0-1.12-1.41,0-1.44-.87Zm-49.75.73-2.59,3.28,3.14,2.74,2.76-3.21Zm51.08.44V94.6H96V93.28Zm-51,1.13L45,95.75l-1.4,1.84L41.8,96.06Zm70.8.76-.06,15.8c-6.07,4.76-8,13.16-8,13.16l-2.47-.15,6.27-27.84ZM81,95.52c-5.47,2.6-11,4.57-16.39,10.77a30.16,30.16,0,0,1,6.28,7c4.51-.67,9.53.13,15,2.28Zm13.13.35v1.38H96V95.87Zm-61.42,2a4.54,4.54,0,0,1,.18.88c4-.34,3,4.31.43,4.47-.3,0,.25.82.85,1.07a2.71,2.71,0,0,0,3.6-1.09A8.42,8.42,0,0,0,38.6,102l2.47,1.31s.07,0-.36,1.1c-.8,2.06.36,4.6,1.25,2.75A2.41,2.41,0,0,1,44.82,106c1.13.47,1.52,2.5.73,3.78-.24.38-.25.46-.1.82a4.21,4.21,0,0,1,.12,2.37c-.3.58-.65.71-1.33.24a8.07,8.07,0,0,0-3.08-1.37c-2.85-.54-3.41-1.54-4.54-3.88-3.37,1-8.43-1.11-7.75-6.12.3-1.11.39-3.23-.17-3.66-1.11-.86.1-2.08,1.76-2.28,1.37-.14,2,1.15,2.27,1.91ZM80.5,96.4l4.39,18.4c-4.82-1.77-9.55-3.15-13.74-2.12a29,29,0,0,0-5.68-6.55c4.15-5,9.42-7.8,15-9.73Zm-49.69.91a1.39,1.39,0,0,0-.94.41,2.16,2.16,0,0,1,.46.59c.26.54.26.54,0,1.73-1.34,4.79,1.83,8,6.35,6.58,1.11-.35,1.07-.31,1.39,1,.53,2.15,2,3.26,5.06,3.66a2.11,2.11,0,0,1,.74.24c1.32.85.78-.28.42-.72a4.19,4.19,0,0,0-.73-.68s.4-.26.59-.36c.85-.45,1.17-2.22.47-2.6s-1.73.18-1.74.83c0,1.2-1.51,1.33-2.84.33-1.7-1.27-.19-4.5-.18-4.49l-1-.42c.13.11-2,3.16-4.66,2.09-1.83-.74-3.14-2.87-2.28-3.48.62-.17,1.37.17,1.84-.19.94-.74.18-2-1.16-2a8.4,8.4,0,0,0-.93.14,6,6,0,0,0,.15-1.62,1.1,1.1,0,0,0-1-1ZM94.17,98.7v1.14H96V98.72Zm0,2.34v1.17H96V101Zm0,2.52v1.19H96v-1.19Zm0,2.34v1.26H96V105.9Zm0,2.35v1.18H96v-1.18Zm0,2.41v1.18H96v-1.18ZM33.9,111.82l1.56,2.63,1.86.09.07,1.8,3.15,2.41-2.76,2-.19,2-2.19.06-1.77,3-2.17-2.62-1.75-.28-.2-2.38-2.7-2,2.53-2,.21-2.11,2.06.18Zm102.55,1.26a1.23,1.23,0,0,1,.55.15c.65.33.86.37,2.56.45,2,.1,2.67.28,3.65.93.59.39.62.39,1.25,0,2.77-1.84,5.94-.17,6.17,3.25a4.59,4.59,0,0,0,.5,2c.24.53.5.94.35,1.27-.44,1-2.58,1.08-3.74-.43a.89.89,0,0,0-.71-.33c-.58.22-2.05-1-2-1-.14.81-.2,1.45-.35,2.62l-2.59,0s-.05-.47-.17-2.12c-.14-1.9-.61-2.46-1.22-1.43a2.18,2.18,0,0,1-4-1.11c-.05-.72-.1-.81-.49-1.11-1.31-1-.92-3.12.26-3.1Zm-42.3.1v1.06H96v-1.06Zm42.59,1.13c-.51,0-.22,1,.63,1.43.48.27.49.27.42,1.11-.12,1.52,1.35,2.26,2,1a1.14,1.14,0,0,0,.12-.68c-.28-1.1,2.11-.8,2.68.34a5.78,5.78,0,0,1,.36,1.67c.06.66.08,1.44.08,1.44h.76a7.9,7.9,0,0,1,0-.91c.18-1.88,1-3.07,2.15-3.07.48,0,.5.09.16.71-.57,1,0,1.81,1.31,1.82.84,0,.83,0,1.15.61s.6.86.92.74.23,0-.06-2.2c-.45-3.34-2.39-4.24-5.07-2.34-.76.53-.93.52-1.6-.14-1-1-1.65-1.2-3.62-1.27a10.86,10.86,0,0,1-2.06-.2.82.82,0,0,0-.37-.08Zm-63.66,1c-.44,0-1,.1-1.39.13a75.5,75.5,0,0,1,.94,7.75c2.26-.4,5.19,0,9.05,1.77A59.43,59.43,0,0,1,90,130a29.28,29.28,0,0,0,10.41,4.37c4,.87,7.2.8,7.11.61a35,35,0,0,1-1.27-7.69A32.48,32.48,0,0,1,91.29,122c-5.4-3.67-11.63-6.86-18.21-6.74Zm21.07.21v1.07H96v-1.07Zm-60.81.22-2.93,3,3.19,3,2.7-3.08Zm-.08,1.38,1.66,1.59-1.34,1.7-1.87-1.61Zm41.34.25c.39,0,.77.28,2.06,1,1.09.75,2,1.22,1.64,0,.24-.34,1.44.76,2.86,1.45,1.7,1.36,1.71,1,1.93.36.23-.5.55-.16,1.91,1.1,1.79,1.66,1.63,1.66,2,1.25.4-.78.54-.77,2,.9s1.84,2.06,2.16,1.33c.5-.37.76,0,2.82,1.93,1,1,1.25.85,1.44.17s.25-.54,2,.81c2,1.59,2.18,1.7,2.26,1.16.13-.87.74-.57,2.78.9,1.23.88,1.7,1.12,2,.91.26-.48-.68-1.39,1.32-.53l.54,2.89-.69-.2c-.42-.12-1.35-.43-1,.47.2.52-.3.45-1.84-.46-2.22-1.32-2.63-1.63-2.79-1.36-.3,1-.26,1.06-1.75-.12-1.74-1.32-2.09-1.68-2.33-1.23,0,1-.52.79-2.14-.61-1.37-1.19-1.66-1.82-2.28-.9-.17.32-.33.24-.57.07A33.18,33.18,0,0,1,88,125.9c-.35-.38-.55-.26-.85.06s-.29.21-1.18-.61c-2.11-1.93-2.5-2.42-2.8-2.15-.24.45,0,1.07-1.63-.21-2-1.47-2.92-2.11-2.78-1.15-.35.43-.11.51-2.14-.62s-2.19-1.39-2.47-1a.6.6,0,0,1-.84.34l-.39-2.94h.7a3.89,3.89,0,0,1,1-.28Zm-15.54.25c-.15.45-1.22,3.07-1.24,9.75a7.59,7.59,0,0,0,2.77-4.81,10.31,10.31,0,0,0-1.53-4.94Zm35.08.18V119H96v-1.22Zm-34.95,1c2.36,3.73-.24,7.25-.89,7.5a34.27,34.27,0,0,1,.89-7.5ZM121,121.86c-3.87,2.45-3.24,9-1.35,10.74A61.35,61.35,0,0,0,121,121.86Zm-.53.82-1,8.5c-1.36-1.5-1.6-6,1-8.5Zm24.42,1.43,2,2.57,1.81.14.41,1.86,2.65,2.16-2.66,1.8-.23,2.06-2,.2L145,138l-1.92-3-1.83-.19-.06-2-2.88-2.13,2.75-1.66.05-2.23h2.16Zm-72.45.81a19.87,19.87,0,0,1-8.78,13.25l0,.62-7.38,3a46.21,46.21,0,0,1-10.61,21.8L47.4,167l-8.24,2.83L51,190.06c.82,0-5.71,3.09-13.59,2.28,5,12.21,6,24.85,3.25,35.93l38.62-.17L49.72,170.2l-.49-.95c-.41-.75,15.69,2.27,12.28,17.19,0,.35.07.4.26.25,3.13-2.69,23.91-10.14,40.51-.29l4.93-2.05c-2.34,8.22-5,13.87-9.51,18.82l.76,11.69a49.66,49.66,0,0,0,17.75-34.38c3.59-1.74,6.71-3.73,10.05-5.59l.44.14,2.16-1.3c-6.93-7.58-21.08-14.83-30.15-16.74l.53,2.57a74.41,74.41,0,0,0-12.64-2.05L86,130.3l-5-3-.15,30a120.06,120.06,0,0,0-12.43,1.54l.38-2.57-4,.82-.07-2.5,4.48-1.29,6.5-27.57Zm.55.61,2.07.42-6.44,27a27.79,27.79,0,0,1-3.83.86c-.29-5.07-.4-15.4-.4-15.4,6.35-5.3,7.35-9.05,8.6-12.91Zm-44.19,2c1,0,2,.7,2.08,1.33.16.39.3.56.57.6,1.62.22,1.67.65,1.72,1.59-.23,1.8,1,.29,1.31-1.49,0-.19,0-1.55,0-1.55l2,0s.06,1.42.09,1.65c.17,1.38.76,2.49,1.17,1.76,1.4-2.51,4.6-1.23,4.1,1.19-.13.57-.12.61.27,1.05a2.18,2.18,0,0,1,.66,2.11c-.2.64-.65.74-1.61.35a7.58,7.58,0,0,0-2.46-.29c-2.08-.06-2.21-.1-3-.88l-.52-.49-.87.51A4.13,4.13,0,0,1,30,135c-1-.52-1.59-1.76-1.75-3.69,0-1-.32-1.76-.95-2-.34-.32,0-1,.62-1.55a1.63,1.63,0,0,1,.91-.28Zm115.92.29L142,131.21l3.25,2.91,3-3.56Zm-63.27.5,3.78,2.16.49,26.82-4.28-.12Zm-52.55.37c-.28,0-.11.49.11,1.19a3.2,3.2,0,0,1,.17,1.46c-.4,2.94,3,4.44,5.4,2.4.65-.74.76-.69,1.3.1s1.64,1.11,3.68,1c.93-.05,1.54.45,1.94.12s0-.77-.55-1.1c-.35-.2-.36-.23-.29-.92.17-1.74-1.26-2.2-2.28-.73-.84,1.21-2.11.41-2.52-1.59-.24-1.54-.44-1.52-.62-.18-.2,1.64-2.35,3.41-3.21,2.6-.24-.23-.23-.18,0-1,.31-1.05.06-1.44-1.09-1.71a.83.83,0,0,1-.48-.35c-.6-.94-.58-1.27-1.57-1.27Zm116.09.62,1.74,1.5-1.51,1.78-1.85-1.41Zm-62.36,1v1.27h1.62v-1.27Zm0,2.56v1.33h1.62v-1.33Zm9.75,1.53q2.73,10.09,5.47,20.19c1.72-.69,11.69-5.11,16.39-10.77a31.54,31.54,0,0,1-5.71-6.58c-4.7.77-10.1-.21-16.15-2.84Zm-9.75.8v1.24h1.62v-1.24Zm10.77.34c4.28,1.27,9.77,3,14.82,2.14a22,22,0,0,0,5.32,6c-3.82,4.16-9.35,7.34-15.07,9.78Zm40.66.48a1,1,0,0,1,.64.27,4.24,4.24,0,0,0,2.58,1,5.2,5.2,0,0,1,4.42,3.61c.2.78.31.82,1.43.55,4.2-1.06,7.45,2.43,6.45,7.09-.35,1.62-.46,1.82,0,2.46,1.07,1.15,1.3,1.17.13,2.18a2.33,2.33,0,0,1-3.63-1c-.43-.86-.43-.92-1.13-1a2.36,2.36,0,0,1-.05-4.67c.22,0,.38,0,.49-.05.73-.33-.81-2.06-2.07-1.8-1.56.33-2.33,1.33-3,2.89L138,146c.62-1.27,1.07-2.9.54-3.92-.43-.85-1-.89-1.15-.07-.39,1.93-2.78,2.5-4.35.93a2.35,2.35,0,0,1-.34-3.08c.42-.82.43-.88.25-1.22-.61-1.21.22-2.72,1.16-2.72Zm-51.43,1.57v1.29h1.63v-1.29Zm51.73.1c-.5,0-.5.5,0,1.09.41.41.49.6-.08,1a1.87,1.87,0,0,0-.37,2.4,1.22,1.22,0,0,0,2.24-.83c-.14-.94.6-1.36,1.77-1a3.21,3.21,0,0,1,1.84,4.33c-.13.36-.38,1.2-.38,1.2l.51.3s.59-.94.82-1.23c1.93-2.38,6.5-1.18,6,1.79-.08.94-.07,1.06-1.09.77-.67-.34-1.33.37-1.31,1.28A1.44,1.44,0,0,0,146,150c.77-.15,1-.12.91.92a1.7,1.7,0,0,0,.83,1.46c1.15.47,1.74-.18.82-1.15a2.13,2.13,0,0,1-.17-2.33,6.73,6.73,0,0,0-.45-4.5c-.92-1.81-3.52-2.57-5.69-1.66-1,.53-1.1.65-1.2-.28a5.16,5.16,0,0,0-4.44-4.21,12.78,12.78,0,0,1-2.23-.63ZM82.64,140v1.2h1.63V140Zm0,2.35v1.32h1.62v-1.32Zm0,2.57v1.32s.89,0,1.62,0v-1.32ZM135.49,147l1.77,2.62,2,.13.23,2.12,3,1.85-2.58,1.61,0,2-2.46.21-2.17,2.88L133.35,158H131.5l-.43-2.28L127.79,154l3.36-1.92-.09-2.39h2.28Zm-52.85.31v1.36h1.62v-1.36Zm0,2.49v1.34h1.62v-1.34Zm51.85,1L132,154.2l3.43,2.83,2.71-3.42Zm-51.85,1.36v1.46h1.62v-1.46Zm52.11.17,1.77,1.37-1.26,1.6L133.51,154Zm-52.11,2.54v1.23h1.62v-1.23Zm-48.15.16c-3.12,0-6.07,5.06-6.78,7.46-.83,3.06-1,8.61-.16,8.76,2.79-2,4.12-5.42,6.21-8,.33,2.95.28,8.64.28,8.64a5.9,5.9,0,0,0-1.91,1.69,3.16,3.16,0,0,0-.23,2.84c-1.55-.5-4.37.07-4.53,2.94.1,4,4.52,3.47,4.53,3.41S31,187.13,35,187.58c1.41.17,3.88-.86,3.14-4.79,2.48.41,4.61-.95,4.63-3.33a3,3,0,0,0-3.34-3,9.72,9.72,0,0,0-1.38.2,4,4,0,0,0-2-4.6l-.45-11.7s1,1.08,1.43,1.48a22,22,0,0,0,5.35,3.81c2.14,1.12,1.87.84,1.51-1.3-1-3.22-3.13-5.66-7.6-8.7a3.06,3.06,0,0,0-1.74-.56Zm.31.25.62,16.55H34.5l-.8-16.53Zm91.79.54h.26a2.16,2.16,0,0,1,1.63,3.43c-.36.4-.48.49-.3.73.87,1.1.39,2.83-.47,3.09-2.73.85-3.14-.64-3.13-2.39l-4.2-.16,0-2.45,4.64.09a1.75,1.75,0,0,1,1.55-2.35Zm-93.74,0h0c.43,0,0,1.2-1.23,3A29.08,29.08,0,0,0,29.36,163c-.75,1.87-1.25,5.23-.75,4.61.45-1.4.49-2,.89-3a38.72,38.72,0,0,1,3.38-6.06c.4-.36.5-.14.5,1.07,0,2.74-1.33,5.62-4.42,9a9.73,9.73,0,0,1-1.25,1.18c-.3,0-.29-.63-.29-1.93,0-5.17,1.95-9.78,4.9-11.77a1.33,1.33,0,0,1,.53-.25Zm3.13.24c1.36.4,3.79,2.58,4.79,3.7,1.17,1.25,2.73,4.73,2.45,5.26-.09.23-.29.2-1-.19-4.31-2.43-7.41-5.42-6.59-6.39.22-.27,1.15.29,2.39,1.44.84.75,1.71,1.51,2.48,2.27,1.22,1.19,1.49,1.37.76,0a19.52,19.52,0,0,0-4.77-4.89c-.92-.69-1.13-1.25-.54-1.24Zm90.88.7a.33.33,0,0,0-.15,0c-.85.35-.5,1.45-.58,2.3l-4.67-.16,0,.65,4.38.23c.08.66-.27,2.09.29,2.33,1.23.51,1.9-1.07.86-2-.37-.33-.77-.47.26-.94a1.56,1.56,0,0,0,.21-2.21.94.94,0,0,0-.57-.21ZM67.78,157l-.23,1.73-2.71.68-.07-1.85Zm32,.61c10,2.7,21.11,8.81,28.33,15.72l-1.45.95a68.3,68.3,0,0,0-26.48-14.8Zm-17.23.27c16.46,0,31.47,6.35,43.59,16.69l-2,1.25c-11-9.13-23.29-15.22-39.76-15.95-10.77-.47-23,2.29-35.16,8.95l-.9-1.64c11.76-6.41,23.3-9.27,34.21-9.3Zm-1.3,2.48,6.48.19-.4,6-5.89-.19Zm-7,.43.91,5.8-5.64,1-1.59-5.82Zm20.5.76,6.43,1.72-2.12,5.91-5.65-1.61Zm-10.31.09a1.85,1.85,0,1,0,1.85,1.85,1.85,1.85,0,0,0-1.85-1.85Zm0,.64a1.21,1.21,0,1,1-1.23,1.21,1.22,1.22,0,0,1,1.23-1.21Zm-12.77,0a1.85,1.85,0,1,0,1.85,1.85,1.85,1.85,0,0,0-1.85-1.85Zm0,.64a1.21,1.21,0,1,1-1.23,1.21,1.22,1.22,0,0,1,1.23-1.21Zm25.47.75A1.85,1.85,0,1,0,99,165.52a1.84,1.84,0,0,0-1.85-1.84Zm-35.86.21,1.91,5.66-5.46,2.21-2-5.59Zm35.86.42a1.22,1.22,0,1,1-1.24,1.21,1.23,1.23,0,0,1,1.24-1.21Zm10.69,1.36,5.79,3.06-3,5.41-5.4-2.82Zm-48.48.49A1.85,1.85,0,1,0,61.19,168a1.85,1.85,0,0,0-1.85-1.85Zm21.87.18.27,5.71-5.12.36-.94-5.68Zm6.16.3,5.84.81L91.84,173l-5.29-.85Zm-28,.16A1.21,1.21,0,1,1,58.11,168a1.22,1.22,0,0,1,1.23-1.21Zm19.15.74a1.85,1.85,0,1,0,1.85,1.85,1.85,1.85,0,0,0-1.85-1.85Zm-9.34.23,1.51,5.56L65,174.94l-1.73-5.35Zm20.46.09a1.85,1.85,0,1,0,1.85,1.85,1.85,1.85,0,0,0-1.85-1.85Zm-11.12.32a1.21,1.21,0,1,1-1.24,1.21,1.22,1.22,0,0,1,1.24-1.21Zm11.12.32a1.21,1.21,0,1,1-1.23,1.21,1.22,1.22,0,0,1,1.23-1.21Zm19.78,0a1.85,1.85,0,1,0,1.85,1.85,1.85,1.85,0,0,0-1.85-1.85Zm-10,.54L105,171l-2.25,5.28-5.41-2.06Zm10,.1a1.21,1.21,0,1,1-1.23,1.21,1.22,1.22,0,0,1,1.23-1.21Zm-42.49.19a1.85,1.85,0,1,0,1.85,1.86,1.85,1.85,0,0,0-1.85-1.86Zm0,.64a1.22,1.22,0,1,1-1.23,1.22A1.22,1.22,0,0,1,66.9,170Zm34.22,1.08a1.85,1.85,0,1,0,1.85,1.85,1.85,1.85,0,0,0-1.85-1.85Zm0,.64a1.22,1.22,0,1,1-1.23,1.21,1.23,1.23,0,0,1,1.23-1.21ZM35,172.35a2.9,2.9,0,0,1,2.66,2.77c.05,1-1.29,2.42-1.29,2.42l-1.56-1.44-1.49,1.38c-.26.08-1.42-1.89-1.07-2.92A2.86,2.86,0,0,1,35,172.35Zm84,0,4.47,3.66s-2,1.19-2.33,1.4a1.63,1.63,0,0,0,.07-.5,1.85,1.85,0,1,0-2.27,1.8l-1.07.61-2.36-2Zm-7.09,9.78-2,.81c-12.19-8-28.84-12.38-47.89-4.32L61.33,177c14.14-5.89,32-7.72,50.52,5.09Zm-1.08-8,4.8,2.94-3,4.68-4.68-3Zm-1.45,9.07-2,.75c-14.87-9.55-30.71-9-44.87-3.32l-.22-1.34c16.67-7.22,33.41-4.92,47.1,3.91Zm10-7.5a1.22,1.22,0,1,1-1.23,1.21,1.22,1.22,0,0,1,1.23-1.21Zm-86.5,2.2-1.66,1.66,1.51,1.7a6.61,6.61,0,0,1-.83.59,2.75,2.75,0,0,1-4-2.46c.15-2.67,3.37-3.95,5-1.49Zm78.66-1.29a1.85,1.85,0,1,0,1.85,1.86,1.85,1.85,0,0,0-1.85-1.86Zm-72,.08a2.78,2.78,0,0,1,2.75,2.44,2.84,2.84,0,0,1-1.58,2.74c-1.58.95-3.41-.6-3.38-.69l1.33-1.31L37,178.23a3.32,3.32,0,0,1,2.48-1.54Zm-4.61.32,2.73,2.71-2.88,2.69-2.67-2.68Zm71.83,7.22-1.52.71-2.09-1.26-.62,1.18,1.16.74-1.2.45c-13.89-7.8-29.59-5.54-40-.36,0,0,.09-.81.1-.81l1.13-.58-.42-1.43-.61.18,0-1.6c14.9-6.7,31.8-5.17,44.14,2.78Zm4.75-7a1.22,1.22,0,1,1-1.23,1.22,1.22,1.22,0,0,1,1.23-1.22Zm-76.63,1-1.45,1.44,1.44,1.54,1.41-1.49Zm45.47.32-1.91.08.1,1.55,1.86,0Zm1.29,0,0,1.54h1.72v-1.53Zm3.07,0-.09,1.55,1.72.07.12-1.54Zm-7.4.2-2,.21.22,1.56,1.84-.22Zm10.59,0-.14,1.6,1.76.19.24-1.52Zm-53,0,.84.9-.84.84-.9-.88Zm39.13.47-1.88.3.2,1.6,1.84-.36Zm17.06,0-.32,1.49,1.75.42.29-1.52Zm-20.14.65-1.58.42.34,1.57,1.67-.41ZM94,180l-.33,1.51,1.78.49.36-1.45Zm-25.75.76-1.65.58.43,1.45,1.68-.57Zm28.82.16-.55,1.45,1.54.62.69-1.32Zm-31.55.85-1.56.65.64,1.43,1.49-.68Zm-32.32.05,1.59,1.58,1.89-1.7c1.65,1.46,1.62,4.86-1.3,5.43-2.54.49-4.87-3.31-2.18-5.31Zm66.7.3-.6,1.33,1.71.75.59-1.28Zm-48.68,8.55,21.54,36.61-3.41-.07L48.54,191.83Zm-3.54,1.4,1.2,1.85c-2.34-1.85-5.77-.3-5.62,2,.12,1.05,1,1.69,1,.68s1.38-2,2.47-1.92c2,0,3.21,2.59,1.84,3.87-.91.83-2.14.8-1.72-.35.06-.39,0-.54-.16-.71a.88.88,0,0,0-1.37.91c.17.49.22.61-.37,1-2.28,1.6-.69,4.76,2.07,3.32.57-.2.8-.23,1.05-.13,1.16.44,1.94-.56.85-1.08-.63-.3-.65-.82,0-1.22,1.31-.87,3.34.49,3.34,2.23,0,1.23-1.64,2.15-3.2,1.79-.93-.21-1,.41-.19,1.07,1.65,1.26,4.12.21,4.85-2.06a2.22,2.22,0,0,0,.2-.87l2.2,3.63s-.68-.32-1.09-.45c-2.07-.63-4.4.72-4.4,2.55,0,.86.51,1.19.79.52A2.59,2.59,0,0,1,55,207.22a2.49,2.49,0,0,1,1.46,3.25c-.56,1.3-2.45,1.69-2.24.46.11-.59-.25-1-.88-.89-.24,0-.55.71-.47,1.05s0,.39-.78,1c-1.92,1.49-.44,3.94,2,3.23a1,1,0,0,1,.92.06c.86.42,1.77.16,1.77-.5,0-.46-.2-.64-.74-.64-.82,0-.65-.93.26-1.39,2.28-1.14,4.61,1.74,3.23,4-.6,1-1,1.06-3.11.83-.34,0-.5.2-.3.48a3.37,3.37,0,0,0,3.61.68,3.81,3.81,0,0,0,2-3.32l2.41,4.21a3.23,3.23,0,0,0-5.63,1.59c0,.72.65,1.09.87.5a2.42,2.42,0,0,1,4.67,1,1.6,1.6,0,0,1-.37,1.08c-.68,1.31-2.42,1.63-2.11.45.14-.36-.13-.76-.61-.87s-.77.28-.76,1c0,.53,0,.7,0,.7a2.68,2.68,0,0,0-1.61,2.14l-16.87,0c2-11.7,1.54-22.25-2.3-32.24L38.57,193l3,.07c.72.63,3.43.38,4.49-.58Zm2.87,4.59,1.74,3.13a5.74,5.74,0,0,0-2.58-.78,6.7,6.7,0,0,0,.84-2.35ZM46,200a1.15,1.15,0,1,1-1.15,1.15A1.15,1.15,0,0,1,46,200Zm12,9.35,1.68,3a6.83,6.83,0,0,0-2.78-.72,6.71,6.71,0,0,0,1.1-2.26Zm-4.84,3.19a1.09,1.09,0,1,1,0,2.18,1.09,1.09,0,0,1,0-2.18Zm12.16,9.32,2.48,4.39a5.58,5.58,0,0,0-3.34-1.13,5.77,5.77,0,0,0,.86-3.26ZM62,227.32H59.38c.53-2.32,2.67-1.71,2.66,0Zm2.51-1.13a2.54,2.54,0,0,1,2.17,1.15H63.37a1.17,1.17,0,0,1,1.18-1.16Z"/></g></g></g></svg>