<svg xmlns="http://www.w3.org/2000/svg" viewBox="0 0 178.58 249.45"><defs><style>.cls-1{fill:#fff;}.cls-2{fill:#e1cf01;}.cls-3{fill:#d41216;}.cls-4{fill:#262e5e;}</style></defs><title>QD</title><g id="Слой_2" data-name="Слой 2"><g id="D"><g id="QD"><path class="cls-1" d="M8.5,0H170.08a8.48,8.48,0,0,1,8.5,8.5V241a8.48,8.48,0,0,1-8.5,8.5H8.5A8.48,8.48,0,0,1,0,241V8.5A8.48,8.48,0,0,1,8.5,0Z"/><path class="cls-2" d="M112.21,21.14s20.23,29.25,27.09,34.44c.51.24,9-1.38,9-1.38C143.93,43.82,141.14,33.07,144,21Zm11.24,46.25c-14,3.94-27.87,7.65-43,1.23L63.94,84.57c-.14.41,21.4,9.69,21.74,8.68l-5.3,16.92,12.22,2.69,5.61-18s16.88-1.62,24.71-4.3c6-2,12.11-3.53,17.43-8a60,60,0,0,1-16.9-15.2Zm-83.9,4.72c-5.29-3.24-9.42,3.44-5.55,6.77-.46,2-.61,4.85,1.27,6.12,1.73,1.1,5,0,5.43,0,0,0,.08,3.51-.18,3.5-.51,0-2.39-1.63-3.56-2-4-1.18-9.49-1.76-9.39-1.56s-1,1.15,3.42,3.91c1.63,1,6.79-.13,10.9,1.17,2.5.79,5,2.1,6.32,1.45a9.46,9.46,0,0,0,4.38-4.83c.18-2-10.32,2.34-9.68,2.41l0-4.06c4.23.46,8-2.6,3.89-7.86,3.09-3.07-1.23-10.4-7.22-5ZM57.16,90.72C46.76,101.2,25.5,120.88,25.5,120.88l.23,14.68L46.5,154.14C48.14,134.41,59.35,116,70,106.79c1-2.8-10.6-15.09-12.87-16.07Zm74.1,3.62c-1.56,12.13-3,28.68-23.57,47.06,3.57,6.08,8.11,12.26,14.64,15.21.46,1,18.88-19.06,30.21-28.56l-.06-12.88ZM38.51,97c0,.26-.8,3.44-1,3.36,0,.17,2.11-.77,2.35-1.65s.68-1.81.71-2c-.47-3.28-1.36-.95-2.06.24Zm-7.58,8.5c-.07,0-.27.18-.3.2-.41.27-1.15,4.42-.89,4.84.12.2-.42,1.68,0,2.22s2.56.27,2.89-.61c.4-1.08,1.77-5.51.72-6a9,9,0,0,0-2.38-.69ZM144.59,140.6c-.34,1.53-.27,2,.42,2.28,1.19.53,1.72-.11,2.68-2.6.57-1.48,1.08-3.71.62-4.6-2.26-1.57-3.46,3.77-3.72,4.92ZM88.87,137a9.11,9.11,0,0,0-2.06.21c-6.08,1.39-5.62,12-6.65,16.25-19.11,2.73-24.16,4-29.4,6.18C42.63,163,40.05,165,37.89,166.71c1.36-.15,16,13.47,16.71,15.39-.93-2.64,28.26-9,43.8-2.61,1.91.68,16.43-14.09,16-15.74,1.88-3.3-18.3-7-20.85-9.07-2.09-11.24,14.11-17.4,2.89-17.08-2,.06-5-.62-7.54-.59Zm50.81,12.63c-.36.42-.77.73-1.19,1.15l-1.06,1.4.77,1.25,2-2.19Zm-14.24,14.14c2.1-.95,9.53-4.56,9.85-3.72l-.15,3.61c-1.14-.37-8.49.84-4.24,8.42-2.68,6,3.29,9.14,7.46,5.15,8.76,3,7.59-5.76,5.78-7.17,1.42-2.21-.37-6.92-1.26-6.93,0,0,7.64,1.72,6.9.36a6.6,6.6,0,0,0-2.47-2.83c-1.95-1.3-5.39-.83-8.18-1.41-3-.62-4.88-1.69-7.38-1.84-3.78.35-7.3,3.66-6.31,6.36ZM40.31,192.21,29.78,195A76.39,76.39,0,0,1,34.36,210a72.43,72.43,0,0,1,.29,18l30.55.15Z"/><path class="cls-3" d="M164.57,241c-4-1.4-4.11-3.93-4.24-7.16a66.82,66.82,0,0,1,.51-14c.26-1.22.41-1.83-.8-2.26a9.85,9.85,0,0,0-2-.24v-3a6,6,0,0,1,3.52.57l1,.61c1.57-1.48,5.72-1.71,7.68.13,1.3,1.32,1.73,2.42,1.81,5.38a15.21,15.21,0,0,1,0,2.33h2.27v2.94h-2.27s.05,1.45,0,4.61a46,46,0,0,1-.26,5.25c-.77,4.08-4.41,5.81-7.23,4.89Zm4.35-5.06c.79-2.1.46-10.24.46-10.24-3.38-1.3-4.82-3.35-6.2-4.8,0,0-.57,9,.11,13.91.62,4,4.27,4.64,5.63,1.13Zm0-13.69c.19,0,.4,0,.42,0,.27-.73-.19-3.79-1-4.4a2.83,2.83,0,0,0-3.89.07,19.85,19.85,0,0,0,3.59,3.92,1.71,1.71,0,0,0,.83.45ZM67.74,228c-13.41-19.13-25.83-37.33-42.32-57.39,0,0,0-7.75.08-15.44l50.65,72.64Zm46.92-25a121.09,121.09,0,0,0,16.14-22.73,92.61,92.61,0,0,0,17.48,22.48,87.6,87.6,0,0,0-16.74,23.09A90.73,90.73,0,0,0,114.66,203Zm44.07-2.31a66.49,66.49,0,0,0,7.57-9.81c2.54,3.62,4.08,6.32,7.5,10.12a54.13,54.13,0,0,0-7.42,9.64,50,50,0,0,0-7.65-9.95Zm-63.86-3.58a79.39,79.39,0,0,0-2.23-11.72l9.25-8.73c-1,7.8-2.53,13.78-7,20.45Zm44.2-27.48c2.07,2.75-1.42,4.27-2.74,3.05-2.67-2.48,1.25-5.05,2.74-3.05Zm-91.7-17.32c-1.54,1,2.75-24,14.54-36.87,7.17,20.53-5.48,32-14.54,36.87Zm58.13-.09-7.82-2.12,3.89-10.94s7.35,1.72,6.72,4a84.19,84.19,0,0,1-2.79,9.06ZM69.27,148a66.43,66.43,0,0,0,5.21-11.26l11.13-1.54-6.45,12.51Zm47.17-15.36c-6.06-12.06,1.08-31.15,14.25-36.4a58,58,0,0,1-14.25,36.4Zm-40.71-3.42a61.38,61.38,0,0,0-.82-12.75l27.55,3.67,1,11.54Zm20.16-18.35c.93-3.67,1.76-6.73,3.56-9.7,2,.06,10.14-1.28,9.11.3-2.21,2.83-3.27,7.42-4.72,10.31-1.52-.16-8.41,1-8-.91Zm-18.25-2.1c-2.78-1-6.59-1.26-8.07-3.41l2.89-9.19,8.59,2.64Zm24.09-87.62,6.72-.06s32.32,41.35,44.44,57.44c-.41,1.64.13,15.52.13,15.52-17.16-24.15-51.29-72.9-51.29-72.9Zm-62,57.7A1.51,1.51,0,1,1,42,76.93c1,1.53-1.31,2.95-2.27,1.93ZM76,72.08c.1-9.58,6.89-21,6.82-20.67-.07,0,1,9.37,2.28,12.32-.35.52-8.78,9-9.1,8.35ZM47.07,68.9A91.12,91.12,0,0,0,30,45.85c6.86-6.5,12-14.52,17.29-22.42A119.18,119.18,0,0,0,63.64,46.5c-6.37,6.26-12.4,15.13-16.57,22.4ZM4.69,48.45a75.51,75.51,0,0,0,7.6-10.09c2.17,3.55,4.46,7.21,7.61,10.14a50.21,50.21,0,0,0-7.39,10.08A42.21,42.21,0,0,0,4.69,48.45ZM4.25,26.18v-3H6.47s0,.24,0-3.81c0-5.66.31-7.4,1.44-8.84,3-3.9,8.64-2.7,10.11,2.16a9.4,9.4,0,0,1,.39,2.54c.06,3.22.07,8.56,0,11.9a6.3,6.3,0,0,1-.75,3.31c.16,1.19,2,1.43,3.2,1.33v3.11a18.78,18.78,0,0,1-2.6,0,6.52,6.52,0,0,1-2-1.18,8.53,8.53,0,0,1-4.12,1.45c-6.37-.13-5.66-8.09-5.64-9ZM9.36,27s0,1.11.07,1.86c.23,2.47,1.83,3.75,3.44,3.31a3.29,3.29,0,0,0,1.27-.73A11.51,11.51,0,0,0,9.36,27Zm5.92-12.35c-.68-3.72-4.19-4.29-5.51-1.14a44.58,44.58,0,0,0-.43,5l0,5.3c2.84.62,4.41,2.45,6.18,4.52,0,0,.36-9.52-.27-13.73Z"/><path class="cls-4" d="M24.17,19.41l-.26,209.66,130.46,0-.05-209.34Zm119.22,1.64c-1.07,11.6-1.25,20.69,4.77,32.72-1.09,1.14-9.28,1.46-11.86,2.81-.05.33.66.89.66.89,2.7-1.25,13.23-2.4,13.23-2.4-4.41-7.68-8-22.47-5.3-33.81l7.59,0,0,55.86s.6,10.78.82,16.86c-4-5.23-9.41-12.53-12.92-18-4.25-6-9-13-13.84-19.58-1.43-2.07-3.48-4.76-5.14-7.18-2.62-3.74-4.79-6.65-7.5-10.68-2.9-4.17-5.68-7.95-9.12-12.79a36.45,36.45,0,0,1-3.06-4.61Zm-49.92.21c4.93,8.56,13.74,11.46,16,12l1.3,1.89A28.13,28.13,0,0,1,92.14,22.35,2.57,2.57,0,0,1,92,21.29Zm-4.88,0c-1.36,3.24-3.27,5.09-5.07,7l.06-2.08a17.64,17.64,0,0,0,3.62-5Zm2.39,0a2.77,2.77,0,0,1-.13,1c-1,3.37-7.52,9.77-7.33,8.81l-.07-1.65c0,.07,4.87-4.66,6.15-8.17Zm-4.71,0c-.51.94-2.4,3.79-2.56,3l.16-3Zm14.8,0c.82,1.18,1.56,2,2.42,3.26a.94.94,0,0,1,.22.61c-.13.33-.52.08-1.59-.87a31.14,31.14,0,0,1-3-3Zm-6.55,0h1.59a22.77,22.77,0,0,0,11.26,9c.55.61,1.14,1.71,1.37,2-5.53-1.49-11.71-6.16-14.22-11Zm3.87,0c1.76,2.53,4.51,4.31,6.06,5.52.83.65,1.93,2,1.83,2.26-3.45-1.09-7.49-4.92-9.34-7.76Zm-6.76,1.57,1,1.53a32.48,32.48,0,0,1-9.12,10l0-2c4.42-3.18,6.32-6.37,8.2-9.53ZM93.18,25A29.51,29.51,0,0,0,111.5,36.26a10.87,10.87,0,0,1,1.34,1.57c1,1.37,1,1.42,1.16,3.67a45.58,45.58,0,0,0,2.75,13.2c-.17.87-.32,1.32-2,3.54-6.86,9.26-21.47,18-28.67,6.07-2.39-3.83-2.63-11.18-2.78-15.76,0,0,0-.32.06-.4.17-.84.41-.7,1.71-.35,1.32.56,2.69.11,4.09-.27,1.58-.64,1.71-.15.18,1.28A11.36,11.36,0,0,0,88.27,50a7.64,7.64,0,0,0,1.36-.7c1.22-.92,1.51-.57,1.05.45-1.92,4.35-2.26,4.52.45,5.73a4.81,4.81,0,0,1,1.26.81c1.85,1.74,1.18.8.67,0-.8-1.25-.08-1.91,1.26-1.13a4.34,4.34,0,0,0,2.72.73c1.25-.4,1.62-1.76,1.26-3.26-.3-.83-2-2.3-1.61-.77a1.45,1.45,0,0,1,1,2.39c-.67.9-1.87.41-3.7-.8-1-.76-2.24-.37-2.19.57,0,.62-.86.48-1.44-.32-.32-.45-.1-1.73.5-2.94,3.8-7.64.6-15.05-6-13l-1.38.42,0-2.92A35,35,0,0,0,93.18,25ZM97,38.73c-1,1.2-.64,2.27,1.54,1.2a6.91,6.91,0,0,1,4-1c2.75-.1,5.21.77,8.25,2.64,2,1.24,2.32,1.33,1.77.56C110.9,39,101.26,34.21,97,38.73Zm-9.32.36c1.91.48,3.74,1.74,3.42,2.26-.12.19-.23.22-.47.1A7.33,7.33,0,0,0,83.83,41c-.36.15-.55-.09-.55-.51,0-.83,1.4-1.49,2.87-1.55a7,7,0,0,1,1.55.14Zm11.06,2.43c-1.13.58-1.52.9-2,.64-1.15-.64-.91-.14-.19,1.13.5.89.5,1.07.42,1.62s-.07.62.51,1.26a15.83,15.83,0,0,0,3.79,3.88,11,11,0,0,0,1.22.72c.17,0,.11-.12-.18-.41-2.08-2-3.72-3.79-1.6-3,2.46.81,4.8-.19,6.72-.85a11.29,11.29,0,0,1,1.81-.44c1.78,0,2.2-.74,1.06-1.86-3.84-4.31-7-5.32-11.56-2.66Zm9.11.8c.79.74,1.21,1.13,1.13,1.32s-.69-.14-1.71-.69a9.32,9.32,0,0,0-7.32-.51c-2.26.65-1.59-.39.93-1.36a6.56,6.56,0,0,1,7,1.24ZM86.73,40.84a7.25,7.25,0,0,1,4.73,1.58c.84.72.23.89-1.14.33a6.43,6.43,0,0,0-5.5-.2,6,6,0,0,1-1.32.53.91.91,0,0,1-.15-1.15,5.27,5.27,0,0,1,3.38-1.09Zm28.5.59c.13,0,.32.21.61.61.51.73.54,1.09.11,2.36-.53,1.55-.74,1.29-.87-.87-.08-1.4-.09-2.11.15-2.1ZM117,43.77c.2,0,.43.32.8,1,.25.51.19.65-.61,3-.34,1-.65,1.76-.66,1.77-.25.19-.21.18-.32,0-.57-.73-.53-2.16,0-3.87.38-1.29.58-1.95.83-2ZM101.36,44c.07,0,.45.08.45.08,0,3.48,2.65,2.78,3,.31,0,0,.66-.07.77.09.31.52-.43,2-1.54,2.5a2.47,2.47,0,0,1-2.56-.33,5.19,5.19,0,0,1-.63-2.17.65.65,0,0,1,.5-.48Zm-1.6.41h.08a.51.51,0,0,1,.56.4l.58,1.77c-.43.51-2-.52-2-1.29a.86.86,0,0,1,.81-.88Zm-10.94,0c.4,0,.55,0,.59.39a2.5,2.5,0,0,1-2.5,2.47,1.91,1.91,0,0,1-2.18-2.05c0-.83.72-.94.8-.28.23,1.89,1.85,2,2.59,1,.27-.41.21-1.42.7-1.49Zm17.71.39a1.51,1.51,0,0,1,.49.11c1.49.48,1.53.71.26,1.17-1.52.55-1.62.62-1.26-.44.19-.59.25-.83.51-.84Zm-15.77.17c1.1.06,1.19,1,.22,1.31-1.44.64-1.93.6-1.37-.34.3-.67.58-1,1.15-1Zm-6.9.33a.74.74,0,0,1,.44.17c.17.5.45.89.67,1.4a.91.91,0,0,1-1.11-.05c-.69-.55-.57-1.51,0-1.52Zm34.67,1.08c.43,0,.86.68,1,1.19-1.5,1.92-1.26,5.51-1.61,6.59-.3.88-.4.12-1.23-2.16-.34-.92,1.35-5.51,1.75-5.61Zm1.53,2a1.78,1.78,0,0,1,.87,1.31,5.16,5.16,0,0,1-.28,1.46,39.27,39.27,0,0,0-.86,5.77c-.06.93-.06,1.76-.1,1.84-.45.88-1.4-1.49-1.32-3.38.3-1.51.46-6.79,1.69-7ZM122.18,51a2.53,2.53,0,0,1,.41.77,4.82,4.82,0,0,1-.24,2.09,26.27,26.27,0,0,0-.14,9.46c.09.7-.39.35-1.12-.84a6.59,6.59,0,0,1-.78-2.64,32.45,32.45,0,0,1,.65-8c.18-1.11.31-2.08,1.22-.84Zm1.14,1.81,1.2,1.45a44,44,0,0,0-.51,5.11,74,74,0,0,0,.82,8.48c-.74-.82-1.09-1.31-1.9-2.35-.09,0-.79-7.13-.3-9.86a20.65,20.65,0,0,1,.69-2.83Zm1.88,2.88c.2,0,.46.22.78.67a2.1,2.1,0,0,1,.45,1.25c0,.37-.17.66-.18,1.32a58.15,58.15,0,0,0,1.17,11.24c.24,1.28-.22.76-1-.06A4.34,4.34,0,0,1,125.35,68c-.07-.22-.81-7.48-.8-8a13.48,13.48,0,0,1,.34-4.06c.09-.17.19-.26.31-.27Zm-4.37,7.91s-1.4.72-1.76.47c-.59-1.61-2.72-5.93-2.76-6.69a8.83,8.83,0,0,1,.87-1.38c1.18,2.55,2.24,5.16,3.65,7.6ZM94.5,58.42c-.42.5-.92.29-1.94-.16-.52-.16-.44.06-1.3.51a2.36,2.36,0,0,1-1.35.35c-.58,0-.79-.21-.79.2A10.4,10.4,0,0,1,89,61.1c-.19.72-.36,1-.25,1.17.3.27.54.11,1.17-.5,1-1,1.74-.72,2.89-.34,1.32.42,1.6.58,2.8.16,1.7-.6,2.73-.6,3.41-.16,1.17.74,1.52.7,1-1.34-.16-.66-.17-1.68-.26-1.86s-.41.37-.72.59c-.59.4-.9.39-2.24,0-.8-.26-1.69-1.11-2.29-.35Zm21.59.27c.52,1.22,2.58,5.31,2.52,5.77-.4.36-.94.62-1.26.3a37.59,37.59,0,0,1-2.18-5c-.25-.51.49-1.79.92-1.05Zm11.1-.15c.15,0,.45.28.68.59a2.57,2.57,0,0,1,.77,2.07,44.05,44.05,0,0,0,1.58,11.35,15.81,15.81,0,0,1,.55,1.57c-.35.51-2-.85-2.45-2.92a56.77,56.77,0,0,1-1.27-7.13c-.27-3.13-.27-5.37.14-5.53Zm-12.4,2c.59,1.14,1.34,3.13,1.85,4.31.23.52-1,.93-1.22.75-.47-.35-.69-1.34-1-1.93-1-2.15-1.16-2.19-.62-2.86.34-.47.74-1,1-.27Zm14.73,1.31c.09,0,.2.09.34.27A5.78,5.78,0,0,1,131.07,64a7.69,7.69,0,0,1,.06,1.41c.11,1.87.6,4.43,2,9.66a8.32,8.32,0,0,1,.3,1.28c-.14,1-1.55-.59-2-2.2a49.79,49.79,0,0,1-1.6-6.32c-.52-3.43-.82-5.94-.35-5.94Zm-16,1.39c1.17,2.73,1.26,2.73.52,2.94s-.82.16-1.74-1.7c-.67-1.36-.8-1.53-.24-2,.86-1,1.09-.05,1.46.78Zm-16.33-.65c-.13,0-.53.29-.92.45a6.69,6.69,0,0,1-3.74.09c-1.86-.74-1.33.23.31.82,1.27.43,3.8.09,4.19-.7.24-.26.33-.67.16-.66Zm14.12,1.43c1,1.62,1.36,2.27,1.19,2.39a1.82,1.82,0,0,1-1.34.32c-.43-.21-.8-1.21-1-2,.13-.39.82-1.07,1.14-.72Zm-26.21.68c.47,0,1.68,1.64,1.44,1.94-.07.15-.53,0-1.59-.29-.36-.13-1.16-.23-.91-.75a3,3,0,0,1,1.06-.9ZM110.22,67c-.1.27-.89.34-1.23.32a4.61,4.61,0,0,1-.44-1.28c.11-.24.65-.86.91-.73a7.76,7.76,0,0,1,.76,1.69ZM132,65.4c.17,0,.46.3.89.91.81,1.16.7,1.08,1.28,3.85.66,3.14,1.45,5.38,2.25,8.58,0,.53-.2.39-.8,0-1-.59-1.28-1.24-1.58-2.94-.52-2.81-1.62-5.42-2-8.74-.22-1.1-.24-1.7,0-1.69Zm-24.33,1.12c.57,0,.49.86.32,1-.41.37-1.56.26-1.76.28-.44-.7,1.06-1.25,1.44-1.28Zm27.23,3c.17,0,.62.66,1.46,1.84s.63,1,1.12,2.83c.69,2.59,1.82,4.45,2.48,6.84,0,.27-.32.23-.64.1A7.14,7.14,0,0,1,137.63,80c-.36-.38-.36-.87-1.4-4.48-.38-1.3-.48-1.64-1-3.62-.39-1.65-.57-2.42-.38-2.39ZM47.12,77.24c2.75,5.07,1.73,7.32-4.19,8-.43-.06,0,2.6,0,3.79,3-1.7,6.56-2.1,9.86-3.16-.9,2.88-2.48,6.15-7.26,5.64-5-3.86-10.89-1.54-14.89-3.11a5.28,5.28,0,0,1-3-3.64,49.59,49.59,0,0,0,8.08.64c-2.76-2.12-2-5.06-1.56-6.41-3.23-4.07-.54-8.64,4.15-7.58a9.84,9.84,0,0,1,1.44.58c4.52-4,9.77-.25,7.44,5.24Zm91.49-2.46c.18,0,.6.47,1.42,1.63a74.86,74.86,0,0,1,4.56,6.82c-.11.59-2.67-.45-3.32-1.3a28.72,28.72,0,0,1-2.8-6.73c0-.27,0-.41.14-.42ZM38.47,89.51c1.28.19,1.64.3,1.62.8s-3.1.48-3.54.16.1-.8.45-.93a3.32,3.32,0,0,1,1.47,0ZM127,90c-18,8.48-25.29,31-16.23,48.31l-1.25.9c-8.88-18.27-2.27-37.85,12.16-47.74.58-.42,1.88-.74,2.48-1.14,0,0-5.89,1.35-7.88,2.13a4.79,4.79,0,0,0-2.87,1.79,39.82,39.82,0,0,0-4.49,6l-9.27.37v.34l9.09-.21c-9.37,15.43-7.06,30.1-1.28,40.37l.15.1c.33.22,1.22-.43,3-2.16l2.12-2a55.24,55.24,0,0,0,3.86-4.12c-6.3-12.84-.09-29.69,14.65-37.31a16.43,16.43,0,0,0-.16-1.7s-.55-.5-.88-.45c-16.42,7.23-23,25.2-16.32,41.53l-1.1,1.2c-8.39-16.91.61-38.06,16.31-44,0-.38-.35-.87-.77-.57a33.42,33.42,0,0,0-16,45.09l-1,.93c-9.45-18.76.51-39.78,16.11-47,.46-.1-.41-.67-.41-.67Zm-91.37.17s-.11,1,.24,1.34c.16.72-.1.64-.7.49-1.5-.35-.33.49.89,1.18s1,.66,0,1.32c-.7.44-.63.61-.54,1,.14.51.24.17.53-.1a2.27,2.27,0,0,1,1.65-.7c.82,0,.91.66.76,1.17-.33,1.07-1.43,1-2.34.75-1.48-.44-3.9-3-3.86-4.52-.11-1.36,1.75-1.94,3.38-1.88Zm6.67.33c.58.21,1.3.49,2.1.83a12.91,12.91,0,0,1,2.93,1.39,4.85,4.85,0,0,1,1.89,4.67L38,108.07s-.65-.31-1.24-.62c-1.91-1-2.36-1.48-1.31-2a1.64,1.64,0,0,0,.75-1.36c.1-.74.06-.61.5-.94.76-.59.8-.83.81-1.79a2.23,2.23,0,0,1,.3-1.34,6,6,0,0,0,.5-1.75c0-.13,0-.44.06-.55a1.54,1.54,0,0,1,.45-.91,4.3,4.3,0,0,0,.47-1c.31-.89.25-.76.76-.66.74.14.64.57.56,1.26a1.45,1.45,0,0,1-.19.49,2.71,2.71,0,0,1,.65-.34c.24-.05.47,0,.53.4a7.29,7.29,0,0,1,0,.88,9.94,9.94,0,0,0,.23,2.28c.83,2.89.67,2.49.38.08a9.18,9.18,0,0,1-.06-2.12,4.21,4.21,0,0,1,.39-1.45c.5-.87.52-1-.55-1.47-.4-.16-1.08-.43-1.22-.71a2.19,2.19,0,0,0-1.36-1c-1.62-.38-2.57-2-2.33-2.18s.81,0,1.22.06c1.48,0,1.79,0,2.46-.59.34-.3.5-.57.78-.59a2.85,2.85,0,0,1,.88.29Zm76.92,1.74c-15.18,12.28-17.84,32.15-10.27,47.48l-1.31,1c-9.52-18-3.13-37.38,8.57-48ZM31.62,93.67c.27,0,.56.37,1.62,1.51a11,11,0,0,0,1.86,1.66c.89.42.7.25-.05,1-.75.87-.34,1.59-1.24,1.15-2.37-1.11-4-4.37-2.49-5.16a.93.93,0,0,1,.3-.11ZM30.44,97.1l.19,0c.28.07.64.62,1,1A7.56,7.56,0,0,0,34,100c.83.37.85.46.27,1.1a1.8,1.8,0,0,0-.38.67c-.06.16-.07.36-.25.39-.91.18-4-1.67-4.09-3,.1-1.2.4-2.09.87-2.13Zm6.48.36c.53,0,.84.46.84,1.23,0,.53-.3.74-.91,1-1.3.49-2.1-.44-1.19-1.47a2,2,0,0,1,1.26-.73Zm-.79,3.12c1,0,1.26.83.54,1.54s-2,.67-2-.06a1.88,1.88,0,0,1,1.49-1.48Zm-6.08,1c.67.2,2.28,1.36,3,1.49,0,.39-.43.5.23,1.24.31.33.33.56.07.7-.81.43-3.61-.93-3.8-2.33-.09-.69.14-1.08.51-1.1Zm3.66,1.68c1,0,2.06.07,1.94.53s-.43,1.21-.87,1a1.89,1.89,0,0,1-.57-.44c-.52-.49-.65-1.15-.5-1.14Zm36.45,4c2.81,2.54,13,29.1-8.25,48.44L57.4,157c20.42-16,17-38.79,11.51-48.6,0-.29-.08-.26-.59.2s-.49.49-.31.57c6.22,9.58,8.55,36.63-16,49.68-.42.43.42.37.42.37,0-.35,11-3,10.27-3.1,10.25-9.06,19.17-30.67,8.06-49.5-.27-.18-.63.58-.63.58Zm-3.54,3-.14.59c8.9,17.47.41,38.88-16.14,46.8a6.27,6.27,0,0,0,.88.48C70,148,75.4,126.63,67.21,110.07Zm-1.48,1.23-.11.64C72.4,127,66.55,147.62,49,156c-.17.91,0,.64.83.6,20.34-10.91,22.25-31.65,15.88-45.13Zm-1.27,1.79c-.57.76-1.62,1.15-2,2.12,5.1,16-2,30.8-14.66,37,0,.78-.58,2.73.8,2.42C64,147.57,71,128.34,64,113.2l-.1.07Zm80.24,30.19c.59,0,1.12.22,1.66.29,2,.26,3.27,1.71,2.39,2.59-.29.29-.7.12-2-.51-.59-.29-.69-.56-.81-1.21s-.3-.87-.5-.26-.42,1-1.1.84c-1.9-.44-1.18-1.75.35-1.74Zm-21.22,13.3c-4.77-2.7-10.65-7.58-14-13.12a78.48,78.48,0,0,0-3.64,8.85l-7.49-2-.08.1,7.39,2.13-.72,2.46c-.07.27-1.22,3.08-1.22,3.08l11.54,5.39a18.26,18.26,0,0,1-2.49,2.88,2.28,2.28,0,0,0-.57,1.36l16-15.27a36,36,0,0,0,2.83,3.75c.72.65.95.81.11,1-3.76.55-6.69,3.4-5.67,7.22.17.42.5.26,1.21-.18,2.5-2.26,8.6-4.36,8.81-3.83l0,2.43c-6.58.1-5.9,4.93-5.42,7.52,0,.06-1.9,1.72-1.9,1.72a16.62,16.62,0,0,1,2,1.15c-.58,3.22,2.17,7.89,7.56,5.5.47.48.91,1,1.42,1.56a11.06,11.06,0,0,0,1.19-2.14c2.68,1.21,8.24-1.5,5.4-7.72l1.56-1.49-1.5-1a7.64,7.64,0,0,0-1.23-4.37,29.16,29.16,0,0,0,4.4.75c1.16.11,2.13.13,2-.57a13.09,13.09,0,0,0-.31-1.54c-.56-1.62-3.45-2.82-6.27-3-.46,0-.95,0-1.05-.13s.15-.54.45-.49a2.93,2.93,0,0,0,3.29-2.31,3.51,3.51,0,0,1,.82-1.22c.8-.87.86-.85.85-2.12a2.17,2.17,0,0,1,.55-1.66,4.11,4.11,0,0,0,.5-3.08,2.51,2.51,0,0,1-.13-1.76c.47-1.46-.57-2.79-1.93-3.55-.11,0-.07.07-.16.18a4,4,0,0,1-2.74-.5c-.31-.15,1.05-8.06,3.87-7.36a8.5,8.5,0,0,1,.66,1.45c.26,0,.16-2.36-1.48-2a4,4,0,0,0-1.75,1.42c-1.31,1.68-1.33,2.75-1.77,4.54-.21.84-.24.8-1.4-.12-.84-.65-1.25-.87-1-1.25.13-.17.68-.72.68-.72l10.21-9.82v98.38H94.58L95,214.62c1.08-8.89-.83-27.56-2.27-29.31,1.12-1.26,4.57-4.27,4.37-4.4l-.45-.28-1.83,1.68L90.31,181a19.54,19.54,0,0,0-5.92-3.08c-3.32-.85-9.73,1.86-9.73,1.9a53,53,0,0,0-18.3,4.87,9,9,0,0,1-1-1.71C50,175.6,44.86,171.49,37.78,166.48l9-4.95L25.5,139.33l-.18-18L56.09,91.88c.18-.51,9.82,6.81,13.41,12.76a71.27,71.27,0,0,1,3-8.41c.11-.26,6.12,2.22,7.9,2.33a.71.71,0,0,0,.49-.27L73,95.71l1.62-4.64s.57-1.27-.07-1.48c-3.62-1.17-7-3.23-10.47-5,0,0,1.62-1.8,1.64-1.88s.68-1,.52-1.37c-1.76,1.71-16.12,15-16.12,15a7,7,0,0,0-2.44-4.49,6.56,6.56,0,0,0,2.64-1.29c2.1-1.54,3.25-4.27,3-5.87a46.44,46.44,0,0,1-6.37,1.86,7.89,7.89,0,0,0-3.59,1.59l-.13-2.55s3.41.59,5-1.69c1.36-2,.8-4.22.49-5.37,0-.25,0-.22.55-.76.43-.4,1.1-.91,1.1-.91,0-.15-1.76-.81-2.06-1.41.48-4.73-3.3-6.55-6.49-5.71-.6.18-.88.29-1.6-.5-.1-.12-1-1-1-1s-.37.87-.56,1.25c-.63,1.24-.8.86-2.16.93-3.42.16-4.94,2.93-4.16,6.32.18.8.1.68-.42,1.68-.27.52-.71,1.17-.71,1.17s.63.36,1.06.54c.63.28.66.61.65,1.24a6.31,6.31,0,0,0,1.19,3.48,19.63,19.63,0,0,1-7.17-1c.37,3.74,3.12,5.13,6.49,5.67a2.52,2.52,0,0,1-.72.48,1.71,1.71,0,0,0-1.28,1.54,3,3,0,0,1-.85,1.51,2.28,2.28,0,0,0-.75,2.33,2.17,2.17,0,0,1-.53,1.5,2.79,2.79,0,0,0-.58,2.28,9.41,9.41,0,0,1,.11,2.25c-.15,1.55.41,2.13,1.11,3.22.46.71.37.73.26,1.25-.26,1.23-.52,1.86-.79,2.8-.62,2.1-.64,3.69-.14,4.1a2.14,2.14,0,0,0,2,.31c3-.92,2.47-3.85,2.63-5.82.08-.5.25-.75.42-.72a9.38,9.38,0,0,0,2.88,2.18c-4,4-6.56,6.51-11.58,10.92l.14-98.41H83s0,.73-.08,4.29c-.25,7.24-.55,14.82-.08,22.2a68.83,68.83,0,0,0,.39,7.6c.36,2.46.52,5.11,1.67,7.4.46,1.25.48,1.15-1.28,2.78a6.79,6.79,0,0,0-1.57,1.79c0,.06,0,.24.09.14s.73-.71.8-.79c.48-.56,1.28.16,4,.93a7,7,0,0,1,1.86,1.07c4.07,3.43,9.8,2.36,14.08.49a9.09,9.09,0,0,1,3.47-.82,68.47,68.47,0,0,0,14.94-4l.94,1.54a.64.64,0,0,1,.61.32C127,74.06,140.58,83,140.34,82.62l-8.88,4.92c6.47,8,21.24,21.52,21.24,21.52l-.34,19.47a126.53,126.53,0,0,0-10.94,10.37c-1,1-1.71,1.55-1.33,1.57.91-.13,1.69.76,2.42,1.38.47.52.36.47-.18,1.18-.38.5-.52.65-.52,1a1.78,1.78,0,0,1-.61,1.69,2.42,2.42,0,0,0-.68,1.37,2.38,2.38,0,0,1-.46,1.45c-.67.14-.73,1.11-.61,1.55a1.39,1.39,0,0,1,.44,1.28c-1.34,1.46-2.74,2.71-1.84.68a6.06,6.06,0,0,0,.54-1.38s-.64.67-1,1c-.51.48-.7.2-.72-1.28a9.7,9.7,0,0,0-.72-3c-.11-.16-.13.13-.08,1.21a6.34,6.34,0,0,1-.26,3.25c-.68,1.91-1.16,2.18-.06,2.11s1.92-.06,2.37.55a2.09,2.09,0,0,0,.77.78,8.08,8.08,0,0,1,2,1.5c1.54,1.67,1.1,3.17-1.87,2.16-1.57-.54-.55-1.21,1.14-1,1,.09,1.2-.29.31-.56-1.66-.31-1.93-.5-3,.8A10.66,10.66,0,0,1,129,153c-.52-.88-.68-1.05-.32-1.54.14-.2.06-.14-.19.13s-.91.5-1.14.7c-1.54,1.54-3.11,3.2-4.5,4.45Zm20-10.81c.78.1.77.75.07,1.39-.66.49-1.11.59-1.47.21-.65-.65.18-1.61,1.4-1.6Zm2.28.46a3.8,3.8,0,0,1,2.39,1.08c1.14.94,1.4,3.24.35,3.64-.44.16-.5,0-1.44-.89a8,8,0,0,0-2-1.46c-1.37-.65-1.54-.9-.62-1.35a1.67,1.67,0,0,0,.57-.52c.24-.38.31-.5.74-.5Zm-1.48,3.05a2,2,0,0,1,.8.32c2.32,1.26,3.45,3.25,2.66,4.36-.51.74-1.34.46-2-.58a6.5,6.5,0,0,0-2.4-1.89c-1.24-.62-1.26-.72-.37-1.14a1.88,1.88,0,0,0,.83-.74c.2-.37.22-.34.46-.33Zm.74,4.72c1.74,1.75,1.54,2.69.41,3.4-.78.49-2,.61-2.43.21-.66-.58-.64-1.24.09-1.45s.42-.42-.21-.58c-2.27-.65-3.67-1.85-1.2-1.59a2.23,2.23,0,0,0,1.76-.91c.54-.65,1.26.61,1.58.92Zm-119.3.67,51.06,73.09L35,227.86a26.28,26.28,0,0,1,.18-4.91,50.55,50.55,0,0,0-1.67-16.9,61.37,61.37,0,0,0-3.65-10.48c-.31-.72-.26-.79.73-.91a39.46,39.46,0,0,0,9-2.41c1.36-.12,3.35.4,3.24.24S41,190.84,41,190.84a49.79,49.79,0,0,1-13.31,3.07c5.5,9.35,7.46,22.08,5.81,33.52l-7.91,0,0-56.29Zm9.13,10.83a4,4,0,0,1,2.74,2.2,23.09,23.09,0,0,0,1,2.45c0,.21,1.78,3.4,1,3.12-1.55-2.1-4.31-5.68-5-7.43,0-.23,0-.33.23-.34Zm5.51,3.2a17.06,17.06,0,0,0,1.06,2.82c1.1,2.37,2.81,6.09,2.46,7.14-.24.72,0,.68-.62-.2-.3-.43-1.26-1.76-1.49-2.07-.56-.75-.18-.06-.5-1.28-.76-3.45-2-5.26-2.79-7.27-.28-1,1.52.48,1.88.86Zm1,.52c.15.11,2.17,1.53,2.38,1.73.72,2.55,3.58,10.72,2.84,12.19a6.66,6.66,0,0,1-1.5-2.2,27.23,27.23,0,0,0-2.9-9.63c-.38-.88-.67-1.76-.82-2.09Zm3.81,2.87a4.64,4.64,0,0,1,1.68,1.67,7,7,0,0,1,.61,2c.74,3.33,2.14,6.71,1.51,10.27-.4.53-1.25-.68-1.37-1.86a45.68,45.68,0,0,0-2.14-10.46c-.26-.9-.47-1.61-.29-1.64Zm3.25,3.06c.13,0,.42.26.88.7a2.67,2.67,0,0,1,1.05,2.58c0,2.09.72,4.46.83,6.56a29.11,29.11,0,0,1,.09,4.54c-.26.36-1.44-1-1.34-3a25.1,25.1,0,0,0-1-8.53c-.48-2-.73-2.8-.52-2.85ZM142.11,163c3.65,2.35,2.36,6.67,1.58,7.2,5,6.37-2.79,9.62-5.28,7.33-3.68,3.66-10,.6-7.56-5.43,0,0-4.62-8.82,4.49-8.23,0,0,.16-3.57-.1-3.73-3.25-.22-7.67,2.91-8.92,3.78-.69.42-.85.22-.85.22-.17-1.85-.18-2.7.58-3.73,1.31-1.81,3.48-2.41,6.33-3,3.53,1.09,6.88,2.79,10.15,2.53a11.22,11.22,0,0,1,5.38,1.24c1.18.55,1.79,2.63,1.79,2.63-1.84,1-7.59-.77-7.59-.77Zm-1.73-13.08a1.4,1.4,0,0,1,1.42-1.26.84.84,0,0,1,.24,1.64c-.25.2-1-.1-1.09.13.05.39-.34.22-.41.08a1,1,0,0,1-.16-.59Zm-.59,2.49a2,2,0,0,1,1-.32c.54-.06,1.25,0,1.4.59s-.93.9-1.8.91c-.45,0-1,.1-1.1-.22s.31-.83.49-1ZM29.38,112.11c.7-2.44.26-3.81,1.44-6.82l2.85.94a16.33,16.33,0,0,1-.45,4.61c-.58,1.64-2.47,3-3.84,1.27Zm21.27,66.17c.34,0,1.17,1.22,1.54,2.29s.23,2.27.48,3.34a38.58,38.58,0,0,1,.38,8.5c-.08.56-.44.33-.93-.2-.71-.77-.61-.79-.61-2.93a65.15,65.15,0,0,0-.58-7.29,15,15,0,0,1-.41-3.61c0-.08.07-.11.13-.1Zm33.4.44c3.68.59,6.61,3.09,8.3,7.23s2,9.93,2.28,15.2c0,1.26-.54.95-1.9.16s-1.8-.51-4,0c-1.35.32-1.23-.61,1-2.14.76-.49,1.64-1.15,1.35-1.25a2.21,2.21,0,0,0-1.31.53c-2.19,1.77-2.79,2.2-2.16.48.16-.44.67-1.64.88-2.22.79-2.16-.12-3.09-2.81-4.45-.67-.35-1.12-.92-.44.28.54,1-.59,1.77-2,.62a2.8,2.8,0,0,0-3.58.73,2.49,2.49,0,0,0,.93,3.33c1.07.46,1.46.13.43-.59-1.33-.91-1.07-2.47.42-2.47a11.13,11.13,0,0,1,2.67,1.31c1.17.64,2,.37,2-.58,0-.64.37-.58,1.14-.2,1,.51.93,1,.38,2.42-.37,1-.56,2.15-.9,3.2-.87,3.53-1,7.54,0,8.79,2.58,3.32,5.32,3,7.67.78l-.1,3.63c-2.4,1.92-5.19,3.23-9.51,10.35-1.5-1.89-8-9.62-18.32-11.36l-2.34-3.19a161,161,0,0,0-2.9-15.84s1.28-1.94,2.44-3.38c4.66-5.73,12.52-12.28,20.37-11.35ZM70.54,182c-.4.13-.53-.67-.31-.82a5.24,5.24,0,0,1,1.12,0c.37,0,.36.44-.81.81Zm-17.48-.6a10.79,10.79,0,0,1,1.76,2.27c.34.5.15,1.33.2,2.15.08,1.16.21,3.07.29,4.25a12.48,12.48,0,0,1-.39,4.9c-.34.83-1,.25-1.21-.88,0-.27.18-3.08.18-4.63,0-2.65-.67-5.93-.83-8.06Zm15.68,0a.43.43,0,0,1,.44.15c.56.71.78,1.15.28,1.53-.68.57-1.29.43-1.66-.64-.25-.76.32-1,.94-1Zm-2.08.63a3.47,3.47,0,0,1,1.26,2.23c0,.2-.22.38-.63.71s-.52.34-1-.36c-.7-1.09-1-1.82-.89-2.19a1.22,1.22,0,0,1,1.23-.39Zm24.49.13a22.4,22.4,0,0,1,3,.78l-1.49,1.44c-.44-.74-.95-1.48-1.48-2.22Zm-26.72.76a7.9,7.9,0,0,1,1.46,3.28,1.75,1.75,0,0,1-.59.59c-.18,0-.34-.27-1-1.38-1.09-1.91-1.4-2.44-.84-2.67a1.22,1.22,0,0,1,.93.18Zm-2.17.44a11.81,11.81,0,0,1,2.08,4.18,1,1,0,0,1-.22.57c-.91,1-.67.82-2-1.95-1.14-2.29-1.44-2.51-.69-2.77a1.5,1.5,0,0,1,.85,0Zm-2.17.75c.39,0,.51.65,1.28,2.16,1.29,2.84,1.77,3.24,1.48,3.54-.36.46-.57.77-.91.22-.78-1.26-1.55-2.87-2.28-4.29-.58-1.06-.63-1.19-.26-1.45a1.32,1.32,0,0,1,.69-.18Zm23,.8c-.48.14-2.43.76-1.24.87.25,0,.85-.13,1.28-.16,1.21-.09,3.72.14,3.63-.09-.22-.87-3-.79-3.67-.62Zm-24.72.27a11.66,11.66,0,0,0,.63,1.14c1.83,3.55,2.85,4.84,2.52,5.4-.26.34-.68.76-.92.66-.4-.16-.92-1.32-2.24-4s-1.49-2.91-.8-3.26c.29-.14.64-.23.81,0Zm-1.83,1.25c.84,1.37.73,1.19.72,5.65,0,2.77-.36,4.55-.83,5.22-.24.36-.67.15-.88-.55-.1-.32.18-.79.23-1.3.33-3.34.1-6.68.11-9.84.26,0,.51.6.65.82Zm21.74,1.09c.39.56.3,1,.3,1.77,0,1.07.07,1.14.8.6s.71-.5,1.87.28a1.71,1.71,0,0,0,2.13,0c.39-.36.54-.2,1.07-.06.57.32.74.37,2-.23.84-.37.88-.43,1.37-.16.88.77,1,.49.89-.52a8.07,8.07,0,0,1,.21-1.44c.44-1.8-.27-1.82-1.2-.68a1.64,1.64,0,0,1-1.94.28,7.72,7.72,0,0,0-4.06-.09,3,3,0,0,1-2.78-.67c-.34-.29-1.11-.55-1.2-.33s.09.57.56,1.24Zm-20,2.53c.19,0,.47.51.9,1.68.54,1.51-.41,6.77-1,7.63-.3.45-.49.73-1.11-.11-.25-.36-.06-.48.19-1.52a32,32,0,0,0,.7-5.3c0-1.53.09-2.34.3-2.38Zm1.9,5.09c.14,0,.29.32.51.92a6.6,6.6,0,0,1-.24,3.62,9.83,9.83,0,0,1-.85,2.1c-.13.35-.82.23-1-.56-.12-.5.29-1.11.49-1.91s.43-1.81.55-2.32c.21-1.24.36-1.86.55-1.85Zm14.72,2.34h-.06s1.44,1.63,1.83,2.08c.21.17,2,2.32.87,1.82a7.56,7.56,0,0,0-8,1.34c-.26.25-.46,0-1.22-.06-1.55-.11-2.11.5-1.17,1.27.14.11.45.17.58.35s.09.48.15.57c3,4,8.56,4.76,12,2.16.44-.33.69-.45,1.1-.32.81.24.88-.44.16-1.39-.31-.42-.69-.89-.47-1,.44-.38.66-1-.11-1.24a2.52,2.52,0,0,1-1.42-1.57c-.35-1-3.76-3.92-4.28-4Zm-13.61,1.74c.64,0,.68,3.83,0,5-.37.44-1.22-.38-1.09-1.22a26.8,26.8,0,0,1,.94-3.69.3.3,0,0,1,.19-.09Zm13.28,2.4a3,3,0,0,1,1.9.78c.32.29.88,1.55.64,2-.06.26-.74.24-.8.06-.37-2.55-2.43-2.91-3.08-.54,0,0-.43.36-.48-.33.15-1.35.78-2,1.82-2Zm16.59.22a1.69,1.69,0,0,1,1.6,1A1.5,1.5,0,0,1,93,204c-.07.16-.29.09-.29.09-1-2.87-2.47-1.54-3,0,0,0-.54.16-.61,0a1.41,1.41,0,0,1,.19-.94,2.25,2.25,0,0,1,1.93-1.32Zm-14,.18a2.34,2.34,0,0,1,1.48.76c.48.49.53.77.14,1.13-.23.22-1.06.43-1.22.06l-.71-1.64c-.06-.15.15-.3.31-.31Zm-5,.08c.42,0,.51.09-.14,1.61-.14.32-1.81-.15-1.5-.77a2.78,2.78,0,0,1,1.64-.84Zm16.73.12c.17,0,.31,0,.36.09a9.72,9.72,0,0,0-.78,1.65c-.59-.07-1.31,0-1.43-.48s.11-.74.95-1.06a3.45,3.45,0,0,1,.9-.2Zm4.89.41a.94.94,0,0,1,.7,1c-.06.21-.36.21-.57.05a1.66,1.66,0,0,1-.48-.9c.07-.27.15-.27.35-.19Zm-31.5,1.47c.19.37.54,2.44.13,2.39s-.58-.73-.65-1.29c0-.12.34-1.09.52-1.1Zm7,1.11a3,3,0,0,1,1.34.52,10.41,10.41,0,0,0,7.06.7c1.43-.37,1.79-.58,2-.34.34.42-.19.83-2.21,1.51-2.2.74-4.49.61-7.5-1.51-.81-.57-.91-.85-.68-.88Zm25.17.57c.37.7-.9,1.36-1.54,1.54a6.63,6.63,0,0,1-4.61-.49,2.9,2.9,0,0,1-.29-.19c-.95-.71-.55-1.21.5-.67a6.4,6.4,0,0,0,4.7.1c.61-.29,1-.66,1.24-.29Zm-28.16,1.3c-.13,0,.09.34.53.83,3.1,3.48,10.5,5.36,14.66,1.78,1.3-1.23,1.11-1.78-1-.8a19.41,19.41,0,0,1-8.29.43,12.19,12.19,0,0,1-4.75-1.54c-.71-.52-1.09-.73-1.2-.7Zm21.39.1a3.59,3.59,0,0,1,1.24.46,7.25,7.25,0,0,0,4.22.07c1.64-.6,2,.17.42,1A4.72,4.72,0,0,1,88,208c-.44-.38-.67-.87-.48-.91,0,0,.1.07.13.07Zm-20.56,6.16c6.1.56,15.32,6.62,18.91,13.9H83.92A27.25,27.25,0,0,0,68.16,215.2c-.27-.2-1.23-1.59-1.09-1.84Zm27.1,1.33-.28,2a32.59,32.59,0,0,0-7.55,8.81c-.58,0-.86-.72-.77-1.2,2.23-4.39,4.89-6.82,8.6-9.63Zm-24.68,1.58c1.4-.1,10.52,4.8,13.59,11H81.4c-3.45-4.5-7.29-7.43-10.7-8.61-.83-.87-1.74-2.34-1.21-2.38Zm24.4,1.4v2.72a23.22,23.22,0,0,0-5,6.87h-1.7a2.23,2.23,0,0,1-.24-1.21,24.05,24.05,0,0,1,7-8.38Zm-13.84,9.59H78.41a18.66,18.66,0,0,0-5.33-5c-.77-1-1.64-2.14-1.29-2.33,0-.71,7.28,4.19,8.26,7.29Zm13.88-5.53,0,1.57c-1.1,1.42-2,2.61-2.92,4h-1.4c1.27-2.75,4.48-6.28,4.36-5.53Zm-18.81,3c.5.14,2.35,1.9,2.29,2.49l-.83,0a13,13,0,0,1-1.35-1.8c-.2-.38-.34-.74-.11-.66Zm18.49.49h0v2H92.2a4.17,4.17,0,0,1,1.41-2Z"/><path d="M122.78,20.78c-6.87,0-13.82,0-21.55.12L153.43,95l0-16.45L136.72,56.89a62.36,62.36,0,0,1,12.13-2.31c-4.71-10.44-7.06-20.24-5-33.67-7.41-.09-14.2-.13-21.08-.13Zm20.22.47c-.41,4.74-.95,10-.09,15.91-2.72-1-3.36.7-3.8.88-.52-1.14-2.41-3.11-4.55-.8-1.12,1.21-.58,3.47,2,4.49-3,.23-4.5-2.3-5-4.91-1.6-1-3.28-2-3.44-5.63l.82.13a2.52,2.52,0,0,0,3.85,2.59c1-.75,1.1-1.92.7-3.73a2.64,2.64,0,0,0,2.16-3.32c-.68-3.29-4-2.9-5.6-.74-1.28-1.59-3.63-1.88-4.58.58a2.64,2.64,0,0,0,2,3.22c-3,.58-4.55-3.59-4.72-6.41l-1.25-2.22c8.17-.05,11.74,0,21.47,0Zm-40.92.08h6.06l44.25,57.25.09,14.25Zm15.33,0h1A12.51,12.51,0,0,0,127,31.81c.26,4.12,2.25,9.71,9.78,11.6-.22,4.65,2.77,9.09,6,11.22a14,14,0,0,1-1.53.28c-4.3-3.41-5.36-8.43-5.79-10.5-.14-.3-.55-.37-.88-.45a13.27,13.27,0,0,1-8-8l-.8-3.62c0-.47-.09-.25-1.18-.65-2.84-1.05-5.47-4.12-6.64-7.78a5.55,5.55,0,0,1-.45-2.57Zm-3.9,0h3.4s0,.6.07,1c.45,3.61,3.69,8.14,7,9.64a7.79,7.79,0,0,1,1.27.66c.93,5.92,3.61,9.48,9.27,11.92.09.1.35.15.42.27.77,3.66,2.46,7.9,5.67,10.24l-1.39.14Zm16.59,6.21A1.39,1.39,0,1,1,128.71,29a1.39,1.39,0,0,1,1.39-1.39ZM83.22,35.15c.08.2-19,16.34-17.14,46.7l-.55.62.15.21c-.63.72-1.23,1.29-1.92,2a69.35,69.35,0,0,0,10.87,5.2l-1.32,3,8.24,2.67-1.1,2.9s-5.74-1.9-8.11-2.7a74.81,74.81,0,0,0-2.74,8c-.08.22-.26.12-.56-.31C64.76,96.23,56,91,56.27,91.48L25.08,121.07l-.21,18.29L46.45,161.6a104.81,104.81,0,0,0-9.2,5.08c2.3,1.88,4.9,3.32,7.18,5.1,4.73,3.33,7.92,8.23,11,11.55A52.73,52.73,0,0,1,97,180.91c-1.46,1.54-3.09,2.88-4.6,4.55,3.65,9.58,2.48,28.61,2.3,29.12a63.05,63.05,0,0,0,17.4-47.87l3.2-3.2c-.06-.17-8-4.42-11.31-5.35l.91-2.91-7.93-2.48.89-2.31,7.89,2.29c1.5-3.67,3.09-8.82,3.09-8.82a40.55,40.55,0,0,0,13.78,13.38l31-29.66-.21-19.08-21.1-21.1,8.78-4.58c-.84-.68-2.06-1.33-2.93-2-.07,0,.17-.2.11-.24-.22-.18-.38-.31-.61-.47,0,0-.21.19-.26.16a53,53,0,0,1-8.31-6.65c-.06-.06,0-.32,0-.39-1.22-1.3-2.43-2.51-3.68-3.79a21.69,21.69,0,0,1-1.52-2l-.06-.46-1.33-1.68c-4.29,2.54-22.59,8.89-40.3,1.85l3.36-3.36a25.79,25.79,0,0,1-1.7-6.55c-.93-7.92-.58-22.19-.58-22.19Zm55.83,4.49a1.47,1.47,0,1,1-1.46,1.46,1.46,1.46,0,0,1,1.46-1.46Zm4.59,1.74a66.31,66.31,0,0,0,4,12.52l-1.95.22c-1.59-1-3.27-2.54-3.44-4.68-4.3,0-5.55-6.7-4-5.89a2.55,2.55,0,0,0,3.07,3c1.39-.19,2.59-2.12.93-4.24a2.32,2.32,0,0,0,1.34-.91ZM82.78,52.17a60.72,60.72,0,0,0,2.06,11.6l-8.49,8a43.72,43.72,0,0,1,6.43-19.6Zm40.7,15.37,1.07,1.55c-12.26,7.2-33.19,7.71-45.94,1.64l1.69-1.61c11.22,5.06,29.47,5.43,43.18-1.58ZM43.84,70a6.81,6.81,0,0,0-4.18,1.6C34,69,30.36,75,33.84,79c-.52,2.85-.91,3.39,1.24,6.28-2.28.29-5.17-.31-7.62-.68.42,4.22,6.47,5.21,9,4.74a9,9,0,0,1,5.4.79c1.61.45,2.6,1.22,4.18,1.59,2.6.62,6.42-2.43,7-5.33,0-.39.17-.74,0-.8-1.77.46-3.73,1.1-5.47,1.48a10.25,10.25,0,0,0-4.26,1.84l-.11-3.5c8.81.43,5-8,4.48-8.31,1.63-3.31-.34-7.06-3.75-7.1Zm80.1.26,1.92,4.61-5.1,1.73L119.46,72Zm-80.47.14c3,0,5.67,3.18,2.8,6.72,5.57,4.91-1.57,10.18-5,6.52-4.54,4.15-9.35-.18-6.82-4.69-4.83-4.33,1.13-10.13,5.2-6.4a4.43,4.43,0,0,1,3.79-2.15ZM78.25,72a1.3,1.3,0,1,1,0,2.59,1.3,1.3,0,1,1,0-2.59Zm-33.18.09a.5.5,0,0,0-.26.12c-.15,0-.46.56-1.26,1.48C42.18,75.32,42,75.34,42,75.34a3.62,3.62,0,0,0-3.41.39A6.55,6.55,0,0,1,36,74.25c-.69-.58-1.06-.71-1.18-.4s.18.66,1.51,1.56c1.84,1.26,1.72,1.16,1.72,1.16a5,5,0,0,0,.48,2.82,13.08,13.08,0,0,1-1.62,2.5,3.62,3.62,0,0,0-.68,1.17c0,.66.58.21,1.92-1.47.52-.66,1.24-1.61,1.24-1.61a3.62,3.62,0,0,0,3.1-.14l1.19.93c1.56,1.25,1.9,1.38,2.09,1.23s.23-.29-.36-.71a14,14,0,0,1-2.38-2A4.53,4.53,0,0,0,42.62,76s0-.18,1-1.3a9.15,9.15,0,0,0,1.67-2.28.25.25,0,0,0-.24-.28Zm36.11.29,4.58,1.42-1,4.77L79.86,77Zm33.19,1.17,1.27,4.65-4.77,1.27-.78-4.94Zm3.34.07A1.3,1.3,0,1,1,116.42,75a1.31,1.31,0,0,1,1.29-1.31Zm10.85.17,4,3.57-4.45,2.25L126,75Zm-37.82,1,4.66.55-.19,5-5.34-.72Zm-16.17.06,5.19,2.27-1.87,5.23-5.31-2.28Zm13.37.4a1.3,1.3,0,1,1-1.3,1.3,1.3,1.3,0,0,1,1.3-1.3Zm16.77,0,.63,5-4.83.29-.11-5.09Zm3.33.57a1.3,1.3,0,0,1,0,2.6,1.3,1.3,0,1,1,0-2.6Zm-67.35.47a1.34,1.34,0,1,1-1.34,1.34,1.34,1.34,0,0,1,1.34-1.34ZM98,76.32a1.3,1.3,0,1,1-1.3,1.3,1.3,1.3,0,0,1,1.3-1.3Zm22.79.32,1.88,5.15-5.28,1.71-1.5-5.3Zm3.71.14a1.3,1.3,0,1,1-1.3,1.3,1.3,1.3,0,0,1,1.3-1.3Zm9.13,1.46L137,80.66l-1.69.94c-.44-1.06-1.23-2.32-1.73-3.36Zm-48.82.47,5,1.09-.77,5.28L83.55,84Zm-15,.29,2.67,1.26-1.77,4.4-4.33-2.31Zm12,.28a1.3,1.3,0,1,1-1.29,1.3,1.3,1.3,0,0,1,1.29-1.3Zm29.13.29.9,5.28-5.69.81-.35-5.39Zm21.29.1a1.3,1.3,0,1,1-1.29,1.3,1.3,1.3,0,0,1,1.29-1.3Zm-4,0L130,84.37l-5.56,2.32L122.81,82ZM114,80.05a1.3,1.3,0,1,1-1.3,1.3,1.3,1.3,0,0,1,1.3-1.3Zm-18.79.53,5.32.1L100.42,86l-5.83-.17Zm42.58.37,2.1,1.45C118.28,96.26,88,98,64.38,84.34c0,0,1-1,1.51-1.53,21.3,12.75,52.4,11,71.85-1.86Zm-45.47.6a1.3,1.3,0,1,1-1.3,1.3,1.3,1.3,0,0,1,1.3-1.3Zm10.93.29a1.3,1.3,0,1,1-1.29,1.3,1.3,1.3,0,0,1,1.29-1.3Zm-25.36.72,5.57,1.61-1,4.39-6.1-1.76Zm-3.67,0a1.3,1.3,0,1,1-1.3,1.3,1.3,1.3,0,0,1,1.3-1.3Zm43.19.94,1.32,4.92-6.14,1.32-.75-4.85Zm3.53.71a1.3,1.3,0,1,1-1.3,1.3,1.3,1.3,0,0,1,1.3-1.3ZM40.57,85v3.46c-1-.84-2.17-1.73-3.35-2.64A6.44,6.44,0,0,0,40.57,85Zm-12.66.09a14.47,14.47,0,0,0,1.72.23c2.5,0,7.18.77,8.56,1.9a6,6,0,0,1,1.53,1.32c0,.3-.41.3-1-.07A15,15,0,0,0,33,86.75c-.47-.07-.53,0-.53.17s.43.43,1.79.65a16,16,0,0,1,2.52.57c1,.29.38.67-.69.77-4.4.41-7.68-1.47-8.34-3.63-.06-.14,0-.19.12-.19Zm61.14.08,5.52.71-.25,4.62-6-.69Zm-46.95.4c1,.76.3,3.05-.23,3.73-.34.38-1.14.18-1.13-.36s-.05-2.76,0-3.47a1.31,1.31,0,0,1,1.31.1Zm64,.2.29,4.77-6,.27,0-4.68Zm-20.32.32a1.3,1.3,0,1,1-1.3,1.3,1.3,1.3,0,0,1,1.3-1.3Zm-33.57.07C52.41,89.66,47.05,92,45,91c-.89-.48-.53-.77,1.24-1.13,2.28-.6,3.79-1.19,3.79-1.62,0-.26-.35-.23-1.28.12-1.43.48-2.92.69-4.29,1.3-1,.46-1.42.63-1.65.35-.48-.58,1.79-2.06,4.15-2.46,1.77-.29,3.55-1.23,5.19-1.36Zm57.22.44a1.3,1.3,0,0,1,0,2.6,1.3,1.3,0,1,1,0-2.6Zm-12.08,1a1.3,1.3,0,1,1-1.3,1.3,1.3,1.3,0,0,1,1.3-1.3Zm28.93,2.2c8.69,8.28,18.21,17.8,26.07,25.64l0,12.3-30,28.51A38.92,38.92,0,0,1,108,141.37a8.66,8.66,0,0,0,1.26-1.12l-1.56.93c-5.54-8.85-7.89-26.48,1.51-40.62l-9.49.35,1.55-3.23,10.34-.57,4.18-4.48s1.32-.25,2.42-.5,3.31-.89,4.94-1.42,3-1,3.08-1Zm-70.14,2.3A37.55,37.55,0,0,1,70,106.62C54,120.4,48,136.46,46.58,153.16c-8.72-8.15-13.13-12.67-21-20.59l.29-11.82Zm33.72,1.54a123.24,123.24,0,0,0-6.08,16.14L81.27,109a24.55,24.55,0,0,0,2.32-1.1l-1.29-2.08,2.45-1-1.45-1.76,2.48-1.44-1.23-1.56,2.27-1.13-1.41-1.62L87.79,96l-1.24-1.56Zm.76,0,.69.13c.09,0-.45,1.3-.39,1.34.87.18.92.14,1.18.22l.66-1.38,1.08.21A90.14,90.14,0,0,0,88,110.32l-1.28-.26s.37-1.24.38-1.4c-.16,0-.87-.34-1.1-.43-.07.2-.53,1.63-.53,1.63l-1,0A76.12,76.12,0,0,1,90.6,93.6Zm4.16.19L97,95.66l-2.58,1,1.34,1.77-2.73,1,1.56,1.84-2.7,1,1.61,2.23-2.81.94,1.78,2L90,108.59l1.52,1.5-1.67.54a5.49,5.49,0,0,1-1.32-.19,87.14,87.14,0,0,1,6.27-16.65Zm-55.18.95c-.63.4-.27,1.29-1.06,2.05-.13.13-.13.44-.18.71s-.66,2.68-.66,2.68a3.26,3.26,0,0,0,.4-1c.22-.67.4-1.94.51-2.16.59-.17.67-2.06,1.26-1.8.34.15.28.45.08,1.18-.42,1.45-.58,2.06.14,1.07,1.07-1.29,1.17-2.45,0-2.7l-.45-.05Zm16.2.54-28,26.32-.09,9.82,9.76,9.88L44.34,148c2.52-15,8.29-29.37,22.48-41.78a33.75,33.75,0,0,0-11-11Zm75.56.27c-16.46,7.74-20.25,23.61-15.15,38,7.85-10.1,14-19.58,15.15-38Zm-58.62.8,7.48,2.41-2.81,9.6-6.74-2-.69-1.7Zm57.8.25a59.47,59.47,0,0,1-14,35.24,28.05,28.05,0,0,1,14-35.24Zm-40.29.07-.47,1.19,1,.3L91.23,97Zm-1,2.82-.42,1.21,1.06.36.4-1.23Zm44.13.22c-2.31,17.82-11.93,34-22.1,42.3a39.55,39.55,0,0,0,10.92,11.46L150.79,126l-.11-9.15Zm-75.7,4.73c-.18.65-.24,1-.24,1a7,7,0,0,1,1.2-.78c5.63-2.8,3.81,1.46,1.16,3-.59.32-1.2.7-1.2.7l1.17.23c3.42.71,2.69,2.71-.87,2.4-.53,0-1.15-.14-1.15-.12a13.68,13.68,0,0,0,.46,1.41c1.2,3-1,3.26-2.51,1.33-.21-.26-.67-1-.67-1s-.15.55-.24,1.1c-1.27,4.74-4.41,4.62-3.24-.19.15-.5.33-1.39.33-1.39a14.81,14.81,0,0,1-1.48.77c-4.06,1.81-4.73,0-1-2.79,1-.77,1.41-1.08,1.41-1.08a11,11,0,0,1-1.79-.28c-3-.74-3.74-2.5,1-2.42.69,0,1.4.06,1.4.06s-.23-1-.47-1.78c-1.14-3.53,1.15-3.95,3.09-.79.41.68.53.68.53.68a6.88,6.88,0,0,1,.59-2.32c2.35-4.35,3.26-.38,2.56,2.24Zm50.66-3.51a39.62,39.62,0,0,0-4.5,10.53l-7.65-.13a41,41,0,0,1,3.49-10c3.12-.09,5.93-.23,8.66-.37Zm-20.21,1.54-.44,1.28,1.11.34.4-1.25Zm-57.24,2.4a48.87,48.87,0,0,0-1.55,6.4c-.19,1.11,0,1.57.67,1.81A2.81,2.81,0,0,0,33,111.87c.43-.62.74-1.88.81-4.11l.07-2a20.62,20.62,0,0,1-3.05-.9Zm56.21.28-.37,1.17,1.07.39.41-1.18Zm49.57.44a4.15,4.15,0,0,1,2.73.84l2.27,2.34a3.14,3.14,0,0,0,2.17,5.41,5.46,5.46,0,0,0,2.2-.91l3.61,3.73c-2.6,1.14-5.13-2.36-5.25-2.36.56-.59-1.51,7.15-3.47,6.83-1.77-.3,0-7.32,0-7.15-1.21,1.28-7.13,2.65-6.72,1.21.83-2.85,5.25-3.94,5.83-4.44-2.35-1.41-5.33-5.34-3.42-5.5Zm-105.49.09a5.33,5.33,0,0,1,1.77.35c.24.07.25.26.28.45,0,.84.21,3.31-.57,3.34a3.57,3.57,0,0,0-2.25.6c-.46.35-.61.1-.48-.8s.55-2.7.73-3.44a.53.53,0,0,1,.52-.5Zm23.39,0a3.14,3.14,0,1,0,3.13,3.14,3.13,3.13,0,0,0-3.13-3.14Zm0,1.09a2,2,0,1,1-2,2,2.05,2.05,0,0,1,2-2Zm16.18,0c7.2,12.42,6.36,29.46-2.12,41.85l9.12-.64-1.2,2.34-9.72.94c-1.48,1.36-2.83,2.92-4.29,4.37l0,.51A90.55,90.55,0,0,0,52.4,159.1c-1.79-1.76-5.16-5.28-5.14-5.37l.22-1.14c23.11-11.79,16.34-35.43,14.72-37.38a70,70,0,0,1,8.49-8.37Zm64.15,2.26a1.7,1.7,0,1,1-1.7,1.7,1.7,1.7,0,0,1,1.7-1.7Zm7.53.46,2.84,2.92a2,2,0,1,1-2.84-2.92Zm-97.54.36a1.7,1.7,0,1,1-1.7,1.69,1.69,1.69,0,0,1,1.7-1.69Zm-12.62.71c.8.26.61,1-.41,1.66a1.75,1.75,0,0,1-1.86.2c-1.1-.59,1.19-2.24,2.27-1.86Zm13.11,4.15L35.1,124.66a14,14,0,0,0,.72-4.92c3.07.32,4.36-1.24,3.91-4.45a18.24,18.24,0,0,0,5.59-.51Zm16.36,1.13c4.74,13.5.62,27.79-14.19,36.07.61-12.94,6-25.31,14.19-36.07Zm13.49,1.18a108.41,108.41,0,0,0,27,3.13,64.49,64.49,0,0,0,1,11.25,100.81,100.81,0,0,0-27.3-3c.41-3.86-.25-8.24-.68-11.42Zm60.27,2-8.65,10.12.36-5.53c2.91.37,3.95-1.16,3.52-4.2a15.12,15.12,0,0,0,4.77-.39Zm-84.1.56-.68,4c-1.73,0-3.43.66-3.41,4.52l-5.16-.07Zm95.25.74a1.7,1.7,0,1,1-1.7,1.7,1.7,1.7,0,0,1,1.7-1.7Zm-103.1.52a1.7,1.7,0,1,1-1.7,1.69,1.69,1.69,0,0,1,1.7-1.69Zm99.32,1.74-.9,6.12c-2.36-.21-4.33.16-3.73,4.3a41.06,41.06,0,0,0-6.62.44Zm-8.45,1.11a1.69,1.69,0,1,1-1.7,1.69,1.69,1.69,0,0,1,1.7-1.69Zm-103.3,1.31a1.7,1.7,0,1,1-1.69,1.7,1.7,1.7,0,0,1,1.69-1.7Zm5.62,2c2.17.49,1.17,5.54.68,6.91,0,0,6-3.18,6.4-1.76.24,2.85-5,4.83-5,4.83s3.55,3.09,3.65,5c0,1.25-1.48,1-3.42-.57-.83-.82-1.47-1.42-2-2a3.14,3.14,0,1,0-4.44-4.41l-1.64-1.58c-1.13-1.05-1.91-1.88-1.8-2.26,1.48-1,4.42,1.76,4.68,2-.22-.55,1.41-5.91,3-6.21Zm-3,6.21s0,.05.05.05l-.05-.05ZM126,131c1,0,1,2.33.6,3.54-.26.93-.5,1.69-.5,1.69a10.1,10.1,0,0,1,1.25-.86c2.8-1.31,3.84.18,2.43,1.9-.67.89-1.6,1.09-2.35,1.83a7.3,7.3,0,0,1,3.22.83c.72.43,1.29,1,1.29,1.28,0,.72-1.79,1.11-3.45.92a9.39,9.39,0,0,1-2-.36,12.18,12.18,0,0,1,.75,1.48c.62,1.73.41,3.75-.49,3.74-1.51-.4-2.24-2.07-2.83-3.27a9,9,0,0,1-2,3.76c-1.07,1-1.61.17-1.56-1.5a22.36,22.36,0,0,1,.51-2.65c-6.31,2.13-5.84-.75-.92-3.27-3-1.45-4.88-2.75.29-3.05-.14-.12-1-2.89-.07-3.53s2.8,1.46,2.89,1.56a7.2,7.2,0,0,1,1.41-2.94c.7-.78,1.21-1.1,1.59-1.1Zm-5.82,6h0Zm27.63-1.82a3.3,3.3,0,0,0-2.29,1.92c-.1.18-.29.24-.37.46a29.17,29.17,0,0,0-1.09,5.41,5.77,5.77,0,0,0,3,.52c.2-.09.14-.59.2-.76,2-5,2.15-7.69.59-7.55Zm-113-.13a2,2,0,0,1,1.26,3.64c-1.31-1.31-2-2-2.87-2.86a2.07,2.07,0,0,1,1.61-.78Zm113.34,1c.28.67-.61,1.4-1.76,1.4-.68,0-.9.09-.6-.51s1.84-2.17,2.36-.89Zm-15.38-.47a1.7,1.7,0,1,1-1.7,1.7,1.7,1.7,0,0,1,1.7-1.7Zm-89.42.12a1.7,1.7,0,1,1-1.69,1.69,1.7,1.7,0,0,1,1.69-1.69Zm80.2.69a3.14,3.14,0,1,0,3.13,3.13,3.13,3.13,0,0,0-3.13-3.13Zm-41.93.42A52.18,52.18,0,0,1,78,147.3c-3,.18-6.29.32-8.45.63,3.59-6.29,3.67-7.77,5-11.1Zm5.19.51c.85.1,1.78.23,2.62.39a97.67,97.67,0,0,1-6.22,16.38l-1.59-.25-.76-.93,2.53-1-2-2,3.27-1-2-2L86,146.1,84.25,144l2.9-1.14-1.84-2.38,3.09-.85Zm36.74.16a2,2,0,1,1-2,2,2,2,0,0,1,2-2Zm-33.54.31,1.08.18-.33,1.16,1.22.26.4-1.25a6.6,6.6,0,0,1,1.1.17,142,142,0,0,1-5.9,16.17l-1.17-.18.31-1.11L85.7,153h0l-.53,1.2L84,154.14a113.5,113.5,0,0,0,6.07-16.35Zm57.27.42c.87,0,.81.44.19,2.07s-.81,2.15-1.1,2.35c-.68.48-2.14.07-2-.63.39-2.29.53-3.27,1.12-3.57a8.7,8.7,0,0,1,1.82-.22Zm-52.93.19,2.81.55-2.35,1.39,1.49,1.75-2.89,1.23,1.76,1.82-2.8,1.14,1.7,2-2.89,1.22,2,1.71-3.26,1,1.24,1.9-1.23.68-1.51-.24c2.51-5.84,4.12-10.66,6-16.17Zm6.91,1.4,5.51,1.5,1.1,2L105.36,152,98,149.84Zm-11,.84-.52,1.43,1.21.26.47-1.48Zm-1.07,3.29-.52,1.44,1.14.22.53-1.44Zm-1.07,2.9-.54,1.42,1.11.23.53-1.43ZM140,149.45s-.65.48-.66.68.42.74.37,1.07-.33.45-.74.89c-1,1.21-1.4,1.08-.8-.21a3.84,3.84,0,0,0,.28-.78,10.06,10.06,0,0,0-.58,1.05l-.66,1.28a5.62,5.62,0,0,1,1.53,1s.21-.59.36-1.15a2,2,0,0,1,1.13-1.36,3.17,3.17,0,0,0,.63-.48,5,5,0,0,1-.86-2Zm-52.92.35-.57,1.52,1.11.27.61-1.55Zm-62.34,3.82c-.1,6,.1,10-.11,16.55L41,191.39l-2.55.86s0,.29-.17.33c-3.5,1-9.17,1.92-9.17,1.92,4.22,9.63,7,21.68,5.07,33.72l42.37-.11Zm89.61,10.25-1.46,1.46C91.36,153.67,61.68,153.72,40,167.84l-1.76-1.3c23.64-15.14,52.72-15,76.11-2.67Zm-88.82-8.13,49.87,71.64-5.85.09-44-57.53Zm107,1.3s-1.44.37-2.65.76c-3.47,1.11-5.09,3.11-4.77,5.9.1.82.31.8,1.72-.09,3.3-2.08,3.51-2.18,7.63-3.38a2.38,2.38,0,0,1,.78,0l-.18,3.25c-6.87,0-6.49,5.43-4.52,8.26-.69,1.31-2.2,5.88,2.78,7.63a6.5,6.5,0,0,0,5-1.63c4.58,2.17,9.89-1.47,5.75-7.76,1.55-2.74.46-4.77-1-6.53,0,0,.25,0,2.42.42a19.85,19.85,0,0,0,4.54.5c0-3-2.45-4.28-7.55-4.68-3.63.51-10-2.65-10-2.62Zm-55.21.34h.74l-.24,5.06-5.57.26-.36-5c1.92-.13,3.7-.27,5.43-.28Zm6.68.12,6,.73-.9,4.73-5.51-.6Zm48.32.06c.62,0,.48.62-.24.76-1.07.22-3.83,1.82-3.83,2.24,0,.26.14.22,1.15-.32a25.28,25.28,0,0,1,2.33-1c.78-.3,1.67-.65,2-.79.92-.42,1.38-.13,1.05.66-.22.52-.31.56-2.46,1.24a11.26,11.26,0,0,0-3.53,1.57c-.46.29-1.27.76-1.81,1-1.27.66-1.52.66-1.52-.22-.07-2.62,2.82-4.59,6.75-5.15Zm-51.57.61a1.36,1.36,0,1,1-1.36,1.35,1.36,1.36,0,0,1,1.36-1.35ZM66,158.53l.44,4.59L61,164.52l-1.26-4.73c2.1-.52,4.19-.88,6.29-1.26Zm70.53.35c1.5.23,1.38,3.67.61,4.26-1.18.85-1.9-.93-1.38-3.29.15-.7.43-1,.77-1Zm-67.43.19a1.35,1.35,0,1,1-1.35,1.35,1.34,1.34,0,0,1,1.35-1.35Zm26.75.39,6.19,1.69-1.51,4.79-5.81-1.63Zm-3.37.09a1.36,1.36,0,1,1-1.35,1.36,1.36,1.36,0,0,1,1.35-1.36Zm50.63.4c2.67,0,6.19,1.37,6.2,3.43-.06.59-5.59-.19-8.14-1.22-.91-.36-2-1.48-2-1.94,0-.27.55-.26.76,0,.37.44,1.64.9,4.56,1.63,2.25.57,2.48.59,2.48.25s-1.33-.74-2.77-1c-.72-.11-1.4-.33-2.51-.43-.52,0-.64-.33-.21-.55a5.92,5.92,0,0,1,1.65-.2ZM138.41,161c.68.32.92.95,1.29,1.28a3,3,0,0,1-1.41.49,4.86,4.86,0,0,1,.12-1.77Zm-81,.37A1.36,1.36,0,1,1,56,162.74a1.36,1.36,0,0,1,1.36-1.35Zm-3.65.38,1.46,4.69L50,168.73l-1.86-4.64a48,48,0,0,1,5.62-2.32Zm24.2.77s4.16,0,5.6,0l-.33,5.29-5.2,0Zm-5.57.29.29,5.27-5,.68-1-5.31Zm31.66,0a1.35,1.35,0,1,1-1.35,1.35,1.34,1.34,0,0,1,1.35-1.35Zm36.23.12c3.05,0,6,3.52,3,7.19,4.94,3.81-.43,10.2-4.8,6.47-6.25,6.14-9.74-2.19-7.15-4.4-3.82-6.28.87-10.24,5.71-7.47a3.91,3.91,0,0,1,3.29-1.79Zm-51,.15,5.5,1.22-1.11,5.22-5.37-1.09Zm18.19.13,5,2.49-3.9,3.75-2.89-1.44Zm-32.21.59a1.35,1.35,0,1,1-1.35,1.35,1.34,1.34,0,0,1,1.35-1.35ZM86,164a1.35,1.35,0,1,1,0,2.7,1.36,1.36,0,0,1,0-2.7Zm-25,.76L62.23,170l-5.09,1.72-1.82-5.09Zm3.49.37a1.36,1.36,0,1,1-1.35,1.35,1.36,1.36,0,0,1,1.35-1.35Zm75.33,2.41c-.38.48-.89,1-.89,1a3.5,3.5,0,0,0-3.31.25L134,167.52c-1.38-1.11-1.84-1.37-1.84-.9a5.14,5.14,0,0,0,1,1.06A12.34,12.34,0,0,1,135,169.5a3.28,3.28,0,0,0,.35,3.17s0,.13-.52.71c-1,1-2,2.66-1.78,2.9s1.12-.42,2.16-1.82c.74-1,1-1,1-1,1.26.35,2,.66,3.23-.39a5.3,5.3,0,0,1,1.43.93c1.48,1.23,2,1.49,2.18,1.08s-.07-.57-1.33-1.53c-.81-.62-1.72-1.35-1.72-1.35a3.12,3.12,0,0,0-.46-3.07s0,.07,1.39-1.68c.9-1.17,1-1.32.75-1.57-.39-.52-1.72,1.56-1.85,1.73Zm-39.24-1.5,5,2.08-1.77,5.19-4.79-2ZM46,166.43a1.35,1.35,0,1,1-1.36,1.35A1.36,1.36,0,0,1,46,166.43Zm50.71.14a1.35,1.35,0,1,1-1.35,1.35,1.35,1.35,0,0,1,1.35-1.35Zm-54.18.37,1.63,4-3.69-2.75Zm40.69,1,4.94.58-.79,4.71-4.25-.39Zm-5.39,0-.05,4.83-4.69.21-.4-4.83Zm-24.14.88a1.35,1.35,0,1,1-1.35,1.35,1.35,1.35,0,0,1,1.35-1.35ZM50,169l1.91,4.86-3,1.43-4-3.75Zm17.66.07.76,4.62-4.89,1.21-1.18-4.7Zm69.92,0a1.93,1.93,0,1,1-1.93,1.93,1.93,1.93,0,0,1,1.93-1.93Zm-57.24.15A1.36,1.36,0,1,1,79,170.57a1.34,1.34,0,0,1,1.35-1.35Zm13.32.5,5.22,1.69-1.76,4.17-4.5-1.22Zm-23.11.17a1.36,1.36,0,1,1-1.36,1.36,1.36,1.36,0,0,1,1.36-1.36Zm19.83.5A1.35,1.35,0,1,1,89,171.74a1.36,1.36,0,0,1,1.36-1.35ZM57.25,172,59,176.11l-4.9,2.12L52,174Zm3.47.25a1.36,1.36,0,1,1-1.35,1.35,1.36,1.36,0,0,1,1.35-1.35Zm18.08,1.25A55.54,55.54,0,0,1,100,177.55l-1.74,1.63c-18.93-6.5-31.32-3.57-44,2l-1.28-1.59a58.92,58.92,0,0,1,25.87-6.12Zm21.43.05a1.36,1.36,0,1,1-1.36,1.35,1.36,1.36,0,0,1,1.36-1.35Zm-49.35,3c1.08.06,1.19,2.09.68,1.51l-1.21-1.4a1.1,1.1,0,0,1,.53-.11Zm50.62.83c0,1.54-1.5,11.85-6.41,18.93A50.1,50.1,0,0,0,93,185.52s5.29-4.88,8.54-8.2ZM38.64,192.94l25.57,34.48-2.69,0a16.69,16.69,0,0,0-3-7.06,12.08,12.08,0,0,0-4.77-3.81c-1.4-.64-1.58-.5-1.67-1.57-.42-6-5.3-9.83-9-11.27a14,14,0,0,0-6.13-10.25Zm-2.49.83c2.33,1.6,4.89,3,6.27,9.32.11,1.33.19,1.19,1.23,1.58,4.07,1.19,7.62,6.09,7.94,10.37,0,1.29.41,1.41,2,2.08a12.58,12.58,0,0,1,5.14,4.26,14.08,14.08,0,0,1,2.16,6H59.48c-1-6.31-5-8.82-9.17-10,.33-8.91-6.6-11.69-9-12.1.14-6.42-4-9.06-6.69-11.22a8.47,8.47,0,0,1,1.54-.3Zm-4.14.88c2.09.69,3.68,3.6,3.52,4.94,2.75.35,5.65,3,5,5.79a.68.68,0,0,1-.85-.18c.74-5.38-7.3-2.72-4.09,1.18l-1.44.94A66.55,66.55,0,0,0,30.05,195c.56-.15,2-.33,2-.33ZM38.67,206a1.3,1.3,0,1,1-1.29,1.3,1.29,1.29,0,0,1,1.29-1.3Zm6.91,5.82a5.55,5.55,0,0,1,4,5.11l-.67,0c-1.08-4.93-6.69-2.24-4.35,1.68-3,1.11-2.76,3.89-1.88,5a3.21,3.21,0,0,0,5.28-.86c2.92,3.77,6.94-.46,3.39-4,2.91,1.07,3.38,5,2.94,6.18a5.93,5.93,0,0,1,2.7,2.6H35.15s1.05-8.8-.07-15.44c1.45.35,2.43.7,4.1-1.25,2.7,2.23,4.64.54,4.5-1.39a3.63,3.63,0,0,0-2.07-2.73c2.37-.59,4.16,3.5,4,5.12ZM48,218a1.33,1.33,0,1,1-1.33,1.33A1.32,1.32,0,0,1,48,218Z"/></g></g></g></svg>