<svg width="39" height="48" viewBox="0 0 39 48" fill="none" xmlns="http://www.w3.org/2000/svg">
<path d="M17.421 32.91C17.421 31.29 16.151 31.26 16.161 32.44C16.061 38.38 11.031 41.31 7.38101 40.61C1.75101 39.54 -0.0489913 33.96 0.00100868 30.67C0.171009 20.51 10.391 13.06 19.621 0C26.341 11.75 37.541 20.99 38.201 30.06C39.081 42.14 23.791 46.64 21.611 32.57C21.471 31.57 20.301 31.12 20.391 32.52C20.721 36.37 20.251 37.98 24.601 47.52H13.231C15.7283 43.0424 17.1619 38.0503 17.421 32.93V32.91Z" fill="black"/>
</svg>
